<?xml version="1.0" encoding="UTF-8" standalone="no"?>
<!-- Created with Inkscape (http://www.inkscape.org/) -->

<svg
   width="144"
   height="90"
   viewBox="0 0 144 90"
   version="1.1"
   id="svg1"
   xml:space="preserve"
   xmlns="http://www.w3.org/2000/svg"
   xmlns:svg="http://www.w3.org/2000/svg"><defs
     id="defs1" /><path
     id="rect185"
     style="display:inline;fill:#ffffff;fill-opacity:0;stroke-width:0.647868;stroke-linejoin:round;stroke-miterlimit:2"
     d="M 0,0 H 144 V 90 H 0 Z" /><g
     id="g66"
     transform="translate(136,-37.25)"
     style="display:inline"><path
       d="M -80.394531,64.914453 -112,71 l 63,13.2 29.7,-7.5 z m 0,0.6 L -21.7,76.7 -49,83.45 -109.375,71.15 Z"
       style="display:inline;fill:#bc6e20;fill-opacity:1;stroke-width:0.6;stroke-linejoin:round;stroke-miterlimit:2"
       id="path43" /><g
       id="g43"
       style="display:inline;fill:#5a5a2e;fill-opacity:1"
       transform="matrix(0.6,0,0,0.6,-25.6,32)"><g
         id="g40"
         style="fill:#5a5a2e;fill-opacity:1"><path
           id="path37"
           style="display:inline;fill:#8d8075;fill-opacity:1;stroke-linejoin:round;stroke-miterlimit:2"
           d="M -92.574932,55.857 -75,11.99999 l 101.75,13.25 -15.5,51.5 z" /><path
           id="path38"
           style="display:inline;fill:#593108;fill-opacity:1;stroke-linejoin:round;stroke-miterlimit:2"
           d="M -91.324932,54.857 -74.5,14.24999 l 99.5,12.5 -14.5,47.75 z" /><path
           d="M -70.578125,14.742188 -74.5,14.25 l -16.824219,40.607422 4.400391,0.849609 c 10.812019,0.486736 33.116286,-0.116116 37.59375,-12.849609 4.392299,-12.491294 -12.437848,-23.393114 -21.248047,-28.115234 z"
           style="display:inline;fill:#331d04;stroke-width:1.04749;stroke-linejoin:round;stroke-miterlimit:2"
           id="path39" /><path
           d="M -74.5,14.25 -91.324219,54.857422 10.5,74.5 25,26.75 Z m 0.75,1 97,12.5 L 8.25,73 -89.574219,54.107422 Z"
           style="display:inline;fill:#a15d1c;fill-opacity:1;stroke-linejoin:round;stroke-miterlimit:2"
           id="path40" /></g><path
         id="path41"
         style="display:inline;fill:#552f08;fill-opacity:1;stroke-linejoin:round;stroke-miterlimit:2"
         d="M -91.324932,54.857 -144,64.99999 l 105,22 49.5,-12.5 z" /><path
         d="M -91.324219,54.857422 -144,65 -91.324219,76.037109 Z"
         style="display:inline;fill:#331d04;fill-opacity:1;stroke-linejoin:round;stroke-miterlimit:2"
         id="path42" /><path
         d="M -91.324219,54.857422 -144,65 l 4.375,0.25 48.300781,-9.392578 L 6.5,74.5 h 4 z"
         style="display:inline;fill:#bc6e20;fill-opacity:1;stroke-linejoin:round;stroke-miterlimit:2"
         id="path69" /><g
         id="g69"><ellipse
           style="display:inline;fill:#ffff33;fill-opacity:1;stroke:#919100;stroke-width:1.27692;stroke-linejoin:round;stroke-miterlimit:2;stroke-opacity:1"
           id="ellipse109"
           cx="-85.5"
           cy="47.823074"
           rx="9.7365389"
           ry="4.3096156" /><ellipse
           style="display:inline;fill:#ffff33;fill-opacity:1;stroke:#919100;stroke-width:1.27692;stroke-linejoin:round;stroke-miterlimit:2;stroke-opacity:1"
           id="ellipse70"
           cx="-40.5"
           cy="83.073074"
           rx="9.7365389"
           ry="4.3096156" /><ellipse
           style="display:inline;fill:#ffff33;fill-opacity:1;stroke:#919100;stroke-width:1.27692;stroke-linejoin:round;stroke-miterlimit:2;stroke-opacity:1"
           id="ellipse74"
           cx="-53.5"
           cy="79.823074"
           rx="9.7365389"
           ry="4.3096156" /><ellipse
           style="display:inline;fill:#ffff33;fill-opacity:1;stroke:#919100;stroke-width:1.27692;stroke-linejoin:round;stroke-miterlimit:2;stroke-opacity:1"
           id="ellipse75"
           cx="-26.75"
           cy="80.823074"
           rx="9.7365389"
           ry="4.3096156" /><ellipse
           style="display:inline;fill:#ffff33;fill-opacity:1;stroke:#919100;stroke-width:1.27692;stroke-linejoin:round;stroke-miterlimit:2;stroke-opacity:1"
           id="ellipse76"
           cx="-10.25"
           cy="77.573074"
           rx="9.7365389"
           ry="4.3096156" /><ellipse
           style="display:inline;fill:#ffff33;fill-opacity:1;stroke:#919100;stroke-width:1.27692;stroke-linejoin:round;stroke-miterlimit:2;stroke-opacity:1"
           id="ellipse77"
           cx="-6.25"
           cy="73.323074"
           rx="9.7365389"
           ry="4.3096156" /><ellipse
           style="display:inline;fill:#ffff33;fill-opacity:1;stroke:#919100;stroke-width:1.27692;stroke-linejoin:round;stroke-miterlimit:2;stroke-opacity:1"
           id="ellipse78"
           cx="-22"
           cy="74.323074"
           rx="9.7365389"
           ry="4.3096156" /><ellipse
           style="display:inline;fill:#ffff33;fill-opacity:1;stroke:#919100;stroke-width:1.27692;stroke-linejoin:round;stroke-miterlimit:2;stroke-opacity:1"
           id="ellipse79"
           cx="-36"
           cy="76.573074"
           rx="9.7365389"
           ry="4.3096156" /><ellipse
           style="display:inline;fill:#ffff33;fill-opacity:1;stroke:#919100;stroke-width:1.27692;stroke-linejoin:round;stroke-miterlimit:2;stroke-opacity:1"
           id="ellipse80"
           cx="-64.25"
           cy="76.073074"
           rx="9.7365389"
           ry="4.3096156" /><ellipse
           style="display:inline;fill:#ffff33;fill-opacity:1;stroke:#919100;stroke-width:1.27692;stroke-linejoin:round;stroke-miterlimit:2;stroke-opacity:1"
           id="ellipse81"
           cx="-74.5"
           cy="78.323074"
           rx="9.7365389"
           ry="4.3096156" /><ellipse
           style="display:inline;fill:#ffff33;fill-opacity:1;stroke:#919100;stroke-width:1.27692;stroke-linejoin:round;stroke-miterlimit:2;stroke-opacity:1"
           id="ellipse82"
           cx="-87.25"
           cy="73.823074"
           rx="9.7365389"
           ry="4.3096156" /><ellipse
           style="display:inline;fill:#ffff33;fill-opacity:1;stroke:#919100;stroke-width:1.27692;stroke-linejoin:round;stroke-miterlimit:2;stroke-opacity:1"
           id="ellipse83"
           cx="-97.75"
           cy="70.073074"
           rx="9.7365389"
           ry="4.3096156" /><ellipse
           style="display:inline;fill:#ffff33;fill-opacity:1;stroke:#919100;stroke-width:1.27692;stroke-linejoin:round;stroke-miterlimit:2;stroke-opacity:1"
           id="ellipse84"
           cx="-110.5"
           cy="68.323074"
           rx="9.7365389"
           ry="4.3096156" /><ellipse
           style="display:inline;fill:#ffff33;fill-opacity:1;stroke:#919100;stroke-width:1.27692;stroke-linejoin:round;stroke-miterlimit:2;stroke-opacity:1"
           id="ellipse85"
           cx="-121.25"
           cy="65.573074"
           rx="9.7365389"
           ry="4.3096156" /><ellipse
           style="display:inline;fill:#ffff33;fill-opacity:1;stroke:#919100;stroke-width:1.27692;stroke-linejoin:round;stroke-miterlimit:2;stroke-opacity:1"
           id="ellipse86"
           cx="-108.25"
           cy="61.573074"
           rx="9.7365389"
           ry="4.3096156" /><ellipse
           style="display:inline;fill:#ffff33;fill-opacity:1;stroke:#919100;stroke-width:1.27692;stroke-linejoin:round;stroke-miterlimit:2;stroke-opacity:1"
           id="ellipse87"
           cx="-95"
           cy="65.573074"
           rx="9.7365389"
           ry="4.3096156" /><ellipse
           style="display:inline;fill:#ffff33;fill-opacity:1;stroke:#919100;stroke-width:1.27692;stroke-linejoin:round;stroke-miterlimit:2;stroke-opacity:1"
           id="ellipse88"
           cx="-80.75"
           cy="68.073074"
           rx="9.7365389"
           ry="4.3096156" /><ellipse
           style="display:inline;fill:#ffff33;fill-opacity:1;stroke:#919100;stroke-width:1.27692;stroke-linejoin:round;stroke-miterlimit:2;stroke-opacity:1"
           id="ellipse89"
           cx="-69"
           cy="72.073074"
           rx="9.7365389"
           ry="4.3096156" /><ellipse
           style="display:inline;fill:#ffff33;fill-opacity:1;stroke:#919100;stroke-width:1.27692;stroke-linejoin:round;stroke-miterlimit:2;stroke-opacity:1"
           id="ellipse90"
           cx="-50.25"
           cy="74.573074"
           rx="9.7365389"
           ry="4.3096156" /><ellipse
           style="display:inline;fill:#ffff33;fill-opacity:1;stroke:#919100;stroke-width:1.27692;stroke-linejoin:round;stroke-miterlimit:2;stroke-opacity:1"
           id="ellipse91"
           cx="-31.5"
           cy="70.323074"
           rx="9.7365389"
           ry="4.3096156" /><ellipse
           style="display:inline;fill:#ffff33;fill-opacity:1;stroke:#919100;stroke-width:1.27692;stroke-linejoin:round;stroke-miterlimit:2;stroke-opacity:1"
           id="ellipse92"
           cx="-19.75"
           cy="68.073074"
           rx="9.7365389"
           ry="4.3096156" /><ellipse
           style="display:inline;fill:#ffff33;fill-opacity:1;stroke:#919100;stroke-width:1.27692;stroke-linejoin:round;stroke-miterlimit:2;stroke-opacity:1"
           id="ellipse93"
           cx="-36.5"
           cy="64.073074"
           rx="9.7365389"
           ry="4.3096156" /><ellipse
           style="display:inline;fill:#ffff33;fill-opacity:1;stroke:#919100;stroke-width:1.27692;stroke-linejoin:round;stroke-miterlimit:2;stroke-opacity:1"
           id="ellipse94"
           cx="-46.25"
           cy="68.073074"
           rx="9.7365389"
           ry="4.3096156" /><ellipse
           style="display:inline;fill:#ffff33;fill-opacity:1;stroke:#919100;stroke-width:1.27692;stroke-linejoin:round;stroke-miterlimit:2;stroke-opacity:1"
           id="ellipse95"
           cx="-56.5"
           cy="68.823074"
           rx="9.7365389"
           ry="4.3096156" /><ellipse
           style="display:inline;fill:#ffff33;fill-opacity:1;stroke:#919100;stroke-width:1.27692;stroke-linejoin:round;stroke-miterlimit:2;stroke-opacity:1"
           id="ellipse96"
           cx="-52.25"
           cy="63.323074"
           rx="9.7365389"
           ry="4.3096156" /><ellipse
           style="display:inline;fill:#ffff33;fill-opacity:1;stroke:#919100;stroke-width:1.27692;stroke-linejoin:round;stroke-miterlimit:2;stroke-opacity:1"
           id="ellipse97"
           cx="-65.75"
           cy="66.073074"
           rx="9.7365389"
           ry="4.3096156" /><ellipse
           style="display:inline;fill:#ffff33;fill-opacity:1;stroke:#919100;stroke-width:1.27692;stroke-linejoin:round;stroke-miterlimit:2;stroke-opacity:1"
           id="ellipse98"
           cx="-72.5"
           cy="61.823074"
           rx="9.7365389"
           ry="4.3096156" /><ellipse
           style="display:inline;fill:#ffff33;fill-opacity:1;stroke:#919100;stroke-width:1.27692;stroke-linejoin:round;stroke-miterlimit:2;stroke-opacity:1"
           id="ellipse108"
           cx="-97.5"
           cy="53.073074"
           rx="9.7365389"
           ry="4.3096156" /><ellipse
           style="display:inline;fill:#ffff33;fill-opacity:1;stroke:#919100;stroke-width:1.27692;stroke-linejoin:round;stroke-miterlimit:2;stroke-opacity:1"
           id="ellipse99"
           cx="-85.25"
           cy="61.573074"
           rx="9.7365389"
           ry="4.3096156" /><ellipse
           style="display:inline;fill:#ffff33;fill-opacity:1;stroke:#919100;stroke-width:1.27692;stroke-linejoin:round;stroke-miterlimit:2;stroke-opacity:1"
           id="ellipse100"
           cx="-98.5"
           cy="59.573074"
           rx="9.7365389"
           ry="4.3096156" /><ellipse
           style="display:inline;fill:#ffff33;fill-opacity:1;stroke:#919100;stroke-width:1.27692;stroke-linejoin:round;stroke-miterlimit:2;stroke-opacity:1"
           id="ellipse114"
           cx="-70.25"
           cy="48.073074"
           rx="9.7365389"
           ry="4.3096156" /><ellipse
           style="display:inline;fill:#ffff33;fill-opacity:1;stroke:#919100;stroke-width:1.27692;stroke-linejoin:round;stroke-miterlimit:2;stroke-opacity:1"
           id="ellipse101"
           cx="-85.5"
           cy="56.073074"
           rx="9.7365389"
           ry="4.3096156" /><ellipse
           style="display:inline;fill:#ffff33;fill-opacity:1;stroke:#919100;stroke-width:1.27692;stroke-linejoin:round;stroke-miterlimit:2;stroke-opacity:1"
           id="ellipse102"
           cx="-71"
           cy="58.073074"
           rx="9.7365389"
           ry="4.3096156" /><ellipse
           style="display:inline;fill:#ffff33;fill-opacity:1;stroke:#919100;stroke-width:1.27692;stroke-linejoin:round;stroke-miterlimit:2;stroke-opacity:1"
           id="ellipse103"
           cx="-57.75"
           cy="59.323074"
           rx="9.7365389"
           ry="4.3096156" /><ellipse
           style="display:inline;fill:#ffff33;fill-opacity:1;stroke:#919100;stroke-width:1.27692;stroke-linejoin:round;stroke-miterlimit:2;stroke-opacity:1"
           id="ellipse113"
           cx="-43.25"
           cy="50.573074"
           rx="9.7365389"
           ry="4.3096156" /><ellipse
           style="display:inline;fill:#ffff33;fill-opacity:1;stroke:#919100;stroke-width:1.27692;stroke-linejoin:round;stroke-miterlimit:2;stroke-opacity:1"
           id="ellipse112"
           cx="-35.5"
           cy="54.823074"
           rx="9.7365389"
           ry="4.3096156" /><ellipse
           style="display:inline;fill:#ffff33;fill-opacity:1;stroke:#919100;stroke-width:1.27692;stroke-linejoin:round;stroke-miterlimit:2;stroke-opacity:1"
           id="ellipse104"
           cx="-43.75"
           cy="58.573074"
           rx="9.7365389"
           ry="4.3096156" /><ellipse
           style="display:inline;fill:#ffff33;fill-opacity:1;stroke:#919100;stroke-width:1.27692;stroke-linejoin:round;stroke-miterlimit:2;stroke-opacity:1"
           id="ellipse111"
           cx="-29.25"
           cy="61.323074"
           rx="9.7365389"
           ry="4.3096156" /><ellipse
           style="display:inline;fill:#ffff33;fill-opacity:1;stroke:#919100;stroke-width:1.27692;stroke-linejoin:round;stroke-miterlimit:2;stroke-opacity:1"
           id="ellipse110"
           cx="-59"
           cy="48.573074"
           rx="9.7365389"
           ry="4.3096156" /><ellipse
           style="display:inline;fill:#ffff33;fill-opacity:1;stroke:#919100;stroke-width:1.27692;stroke-linejoin:round;stroke-miterlimit:2;stroke-opacity:1"
           id="ellipse105"
           cx="-49.5"
           cy="52.823074"
           rx="9.7365389"
           ry="4.3096156" /><ellipse
           style="display:inline;fill:#ffff33;fill-opacity:1;stroke:#919100;stroke-width:1.27692;stroke-linejoin:round;stroke-miterlimit:2;stroke-opacity:1"
           id="ellipse106"
           cx="-63.5"
           cy="52.323074"
           rx="9.7365389"
           ry="4.3096156" /><ellipse
           style="display:inline;fill:#ffff33;fill-opacity:1;stroke:#919100;stroke-width:1.27692;stroke-linejoin:round;stroke-miterlimit:2;stroke-opacity:1"
           id="ellipse107"
           cx="-78.5"
           cy="52.573074"
           rx="9.7365389"
           ry="4.3096156" /></g><path
         d="M -139.625,65.25 -144,65 -39,87 10.5,74.5 h -4 L -39,85.75 -139.625,65.25"
         style="display:inline;fill:#bc6e20;fill-opacity:1;stroke-linejoin:round;stroke-miterlimit:2"
         id="path67" /></g><g
       id="g60"
       style="display:inline"
       transform="matrix(0.6,0,0,0.6,-134.5,37.1)"><g
         id="g53"><g
           id="g47"><path
             d="M 142.5,83.5 V 139 L 188,124.84375 V 70.949219 Z"
             style="display:inline;fill:#664314;fill-opacity:1;stroke-width:1.23482;stroke-linejoin:round;stroke-miterlimit:2"
             id="path44" /><g
             id="g46"><path
               d="m 142.5,139 13.13281,-4.08594 C 155.58832,132.99639 155.42424,130.9015 155,129.25 c -1.39073,-5.41441 -6.0522,-11.16027 -6.125,-19.25 -0.0811,-9.0133 5.80291,-14.898932 6.75,-21.875 0.34547,-2.544666 0.22518,-5.846998 0.0527,-8.259766 L 142.5,83.5 Z"
               style="fill:#b07921;fill-opacity:1;stroke-linejoin:round;stroke-miterlimit:2"
               id="path45" /><path
               d="M 174.91211,128.91602 188,124.84375 V 70.949219 l -14.19141,3.914062 c -0.14619,2.872502 -0.186,6.683116 0.41211,9.011719 1.39073,5.41441 6.3022,9.91027 6.375,18 0.0811,9.0133 -4.42791,13.77393 -5.375,20.75 -0.2564,1.88862 -0.32076,4.21596 -0.30859,6.29102 z"
               style="fill:#b07921;fill-opacity:1;stroke-linejoin:round;stroke-miterlimit:2"
               id="path46" /></g></g><g
           id="g52"><path
             d="m 42,61.867187 v 56.408203 l 0.04883,-0.0117 L 142.5,139 V 83.5 Z"
             style="display:inline;fill:#8c591b;fill-opacity:1;stroke-linejoin:round;stroke-miterlimit:2"
             id="path47" /><g
             id="g49"
             style="fill:#000000;fill-opacity:0.356863"><path
               d="m 42,61.867187 v 56.408203 l 0.04883,-0.0117 15.173828,3.13281 c -0.06372,-1.23225 -0.125715,-2.63892 -0.177734,-4.18359 -0.26476,-7.86195 -6.644544,-13.9179 -6.837891,-21.71289 -0.254326,-10.253431 6.622371,-15.331117 6.652344,-22.580078 0.01454,-3.515065 0.04091,-6.138191 0.0625,-7.839844 z"
               style="fill:#eec21f;fill-opacity:1;stroke-linejoin:round;stroke-miterlimit:2"
               id="path48" /><path
               d="M 126.28516,135.65234 142.5,139 V 83.5 l -15.89844,-3.421875 c 0.0208,1.694602 0.0432,4.116281 0.0566,7.242187 0.0313,7.248963 7.20884,12.326652 6.94336,22.580078 -0.20184,7.79499 -6.86229,13.85094 -7.13867,21.71289 -0.0522,1.48541 -0.11451,2.84178 -0.17773,4.03906 z"
               style="fill:#eec21f;fill-opacity:1;stroke-width:1.02171;stroke-linejoin:round;stroke-miterlimit:2"
               id="path49" /></g><g
             id="g51"><path
               d="m 102.00195,73.90625 c 0.0367,0.611526 0.55283,9.766688 -1.25195,13.09375 -1.771014,3.264824 -5.186029,6.690008 -9.298828,6.082031 0.222011,0.06215 0.446424,0.118443 0.673828,0.167969 4.31336,0.939393 7.91467,-2.61661 9.75,-6 1.86754,-3.442761 1.25,-13.125 1.25,-13.125 z"
               style="display:inline;fill:#bc6e20;fill-opacity:1;stroke-linejoin:round;stroke-miterlimit:2"
               id="path50" /><path
               style="display:inline;fill:#7d7d7d;fill-opacity:1;stroke-linejoin:round;stroke-miterlimit:2"
               d="m 81.375,69.875 20.625,4 c 0,0 0.61754,9.682239 -1.25,13.125 -1.83533,3.38339 -5.43664,6.939393 -9.75,6 -4.170978,-0.908384 -7.462014,-3.971887 -8.875,-8 -1.461947,-4.167692 -0.75,-15.125 -0.75,-15.125 z"
               id="path51" /></g><path
             id="path52"
             style="fill:#000000;fill-opacity:1;stroke-width:0.931972;stroke-linejoin:round;stroke-miterlimit:2"
             d="m 91.1875,75.125 a 4.1925041,3.5179235 49.884643 0 0 -3.8125,3.196319 4.1925041,3.5179235 49.884643 0 0 2.121754,3.841465 l -1.112563,5.363138 5.71875,1.00837 -1.158117,-5.79856 A 4.1925041,3.5179235 49.884643 0 0 95,79.665813 4.1925041,3.5179235 49.884643 0 0 91.1875,75.125 Z" /></g></g><g
         id="g56"><path
           d="m 142.5,147 v -6 L 37.5,119.33984 V 126 Z"
           style="fill:#656565;fill-opacity:1;stroke-linejoin:round;stroke-miterlimit:2"
           id="path53" /><path
           d="M 142.5,147 192,132.5 v -6.43555 L 142.5,141 Z"
           style="fill:#656565;fill-opacity:1;stroke-width:1.23482;stroke-linejoin:round;stroke-miterlimit:2"
           id="path54" /><path
           d="M 42.048828,118.26367 37.5,119.33984 142.5,141 v -2 z"
           style="fill:#989898;fill-opacity:1;stroke-linejoin:round;stroke-miterlimit:2"
           id="path55" /><path
           d="m 142.5,139 v 2 l 49.5,-14.93555 -3.99805,-1.2207 z"
           style="fill:#989898;fill-opacity:1;stroke-width:1.23482;stroke-linejoin:round;stroke-miterlimit:2"
           id="path56" /></g><g
         id="g58"><path
           d="M 142.5,83.5 V 79 L 37.5,57 v 3.898437 z"
           style="fill:#656565;fill-opacity:1;stroke-linejoin:round;stroke-miterlimit:2"
           id="path57" /><path
           d="M 142.5,83.5 192,69.845703 V 66.5 L 142.5,79 Z"
           style="fill:#656565;fill-opacity:1;stroke-width:1.23482;stroke-linejoin:round;stroke-miterlimit:2"
           id="path58" /></g><path
         d="m -144,64 105,22 v -0.5 l -105,-22 z"
         style="display:inline;fill:#bc6e20;fill-opacity:1;stroke-linejoin:round;stroke-miterlimit:2"
         id="path59"
         transform="translate(181.5,-7)" /><path
         d="M 10.5,73 -39,85.5 V 86 L 10.5,73.5 Z"
         style="display:inline;fill:#bc6e20;fill-opacity:1;stroke-width:1.23482;stroke-linejoin:round;stroke-miterlimit:2"
         id="path60"
         transform="translate(181.5,-7)" /></g><g
       id="g65"
       style="display:inline"
       transform="matrix(-0.32272511,0.50581469,-0.50581469,-0.32272511,75.578215,0.59372561)"><g
         id="g63"><g
           id="g62"
           style="display:inline"><path
             style="fill:#664314;fill-opacity:1;stroke-linejoin:round;stroke-miterlimit:2"
             d="M 160.1573,33.9251 C 175.56543,32.450398 190.5,65.5 190.5,65.5 l -48,12.25 c 0,0 -0.0179,-42.13322 17.6573,-43.8249 z"
             id="path61" /><path
             d="m 142.49975,77.75074 4.14605,-1.058293 c 0.19157,-9.061856 1.7688,-36.497515 13.82444,-37.629905 11.60717,-1.090264 23.07169,20.869488 26.21792,27.40966 l 3.81166,-0.972363 c 0,0 -14.93433,-33.050297 -30.34246,-31.575595 -17.6752,1.69168 -17.65761,43.826496 -17.65761,43.826496 z"
             style="fill:#ae761e;fill-opacity:1;stroke-linejoin:round;stroke-miterlimit:2"
             id="path62" /></g></g><g
         id="g64"><path
           d="M 142.5,75.25 V 79 L 192,66.5 v -3.75 z"
           style="display:inline;fill:#656565;fill-opacity:1;stroke-width:1.23482;stroke-linejoin:round;stroke-miterlimit:2"
           id="path63" /></g></g></g></svg>
