<?xml version="1.0" encoding="UTF-8" standalone="no"?>
<!-- Created with Inkscape (http://www.inkscape.org/) -->

<svg
   width="55.667328"
   height="71.219048"
   viewBox="0 0 55.667328 71.219048"
   version="1.1"
   id="svg1"
   xml:space="preserve"
   xmlns="http://www.w3.org/2000/svg"
   xmlns:svg="http://www.w3.org/2000/svg"><defs
     id="defs1" /><g
     id="g10"
     style="display:inline"
     transform="translate(-297.4111,-56.140747)"><g
       id="g244"
       style="display:inline"
       transform="matrix(0.5,0,0,0.5,162.62238,45.875135)"><path
         style="display:inline;fill:#808186;fill-opacity:1;stroke:none;stroke-width:2;stroke-linecap:round;stroke-linejoin:round;stroke-miterlimit:2;stroke-dasharray:none;stroke-opacity:1"
         id="path238"
         d="m 277.09085,153.82432 c 0.32245,-3.62992 0.29051,-7.27837 0.49218,-10.91542 0.14168,-2.55511 0.33676,-5.10699 0.49407,-7.66119 0.30981,-5.75967 0.44754,-11.53272 1.38699,-17.23181 0.9021,-4.82262 1.89479,-9.62593 2.7441,-14.45801 0.8126,-3.86242 1.45538,-7.75255 2.06957,-11.65019 0.45064,-2.62101 0.33837,-5.2908 0.61831,-7.926032 0.16409,-1.544705 0.38353,-3.083157 0.55106,-4.627492 0.39799,-3.271793 0.31202,-6.566921 0.39619,-9.85223 0.0151,-0.589729 0.1782,-3.533196 0.20926,-4.108691 0.16252,-2.410566 0.22765,-4.875117 0.52695,-7.274146 0.15515,-1.243667 0.41621,-2.471873 0.61018,-3.710082 0.32091,-2.908223 0.76419,-5.797692 1.19623,-8.690523 0.42587,-3.167741 0.75751,-6.338607 0.83962,-9.534884 -0.14853,-1.876917 0.10592,-3.71779 0.28516,-5.578547 0.0159,-0.223215 0.0251,-0.447009 0.0477,-0.669647 0.0136,-0.134547 -0.91566,1.440943 -0.34818,1.627669 0.70125,0.230739 1.47012,0.137405 2.20609,0.195219 1.0069,0.0791 2.01489,0.143666 3.02234,0.215499 5.00397,0.40399 10.00563,0.844973 14.99917,1.360561 3.39188,0.259057 6.77959,0.571499 10.17369,0.802298 4.03858,0.376343 8.04806,0.924548 12.10215,1.115803 3.42499,-0.04244 6.83481,0.248898 10.25412,0.384108 1.57486,0.0799 3.15963,-0.02606 4.73372,0.04521 0.8378,0.03794 1.66981,0.158587 2.5047,0.238161 3.18708,0.180176 6.36338,0.427539 9.54522,0.689655 2.89461,0.143814 5.79393,0.155595 8.68986,0.053 1.98796,-0.191081 3.93711,0.357971 5.89009,0.663566 1.19435,0.238438 2.42228,0.164333 3.61896,0.373846 0.0979,0.01715 -0.20899,0.02649 -0.29772,-0.01839 -1.49623,-0.756742 -0.25526,-0.366813 -1.0048,-0.584761 -0.55964,2.483177 -1.32608,4.922216 -2.0175,7.374626 -0.72685,2.744708 -1.37697,5.500318 -1.72551,8.319947 -0.43367,4.033115 -1.1133,8.035223 -1.51901,12.070888 -0.35715,3.817905 -0.73004,7.635242 -1.02134,11.458999 -0.42222,3.708982 -0.99469,7.398663 -1.40518,11.11018 -0.24225,2.05972 -0.17193,4.13427 -0.24316,6.20101 -0.0545,1.5801 -0.20456,3.16067 -0.29183,4.73949 -0.0493,2.6973 -0.5739,5.34954 -0.91507,8.01696 -0.31777,2.87566 -0.5801,5.75601 -0.92246,8.62893 -0.18282,2.96043 -0.57335,5.8947 -0.95848,8.83337 -0.24854,3.29645 -0.63927,6.57108 -1.04388,9.85039 -0.18038,2.8568 -0.71202,5.66988 -1.08086,8.50353 -0.2869,2.54221 -0.6046,5.07971 -0.93207,7.61768 -0.10311,1.69713 -0.39905,3.37323 -0.56889,5.06341 -0.12838,1.27754 0.002,0.52581 -0.16375,1.37036 -0.0559,0.27571 -0.11174,0.55143 -0.1676,0.82714 -0.0434,0.28199 -0.0765,0.56577 -0.1303,0.84597 -0.0184,0.0957 -0.0919,0.37684 -0.0857,0.27957 0.0605,-0.94568 0.60683,-0.85313 -0.65013,-0.83162 -5.29525,-0.20357 -10.58817,-0.47878 -15.87308,-0.87008 -0.74721,-0.0815 -1.49606,-0.14926 -2.24164,-0.24454 -0.69863,-0.0893 -1.39346,-0.20603 -2.09019,-0.30905 -0.7056,-0.0991 -1.40982,-0.20851 -2.11679,-0.29736 -2.09171,-0.26288 -4.17549,-0.38822 -6.28041,-0.47329 -2.43546,-0.1139 -4.87442,0.0796 -7.30908,0.0464 -0.5968,-0.008 -2.56698,-0.14451 -3.14039,-0.18189 -3.65239,-0.14776 -7.29058,-0.45791 -10.93865,-0.6767 -2.16284,-0.21036 -4.35041,0.0507 -6.50986,-0.19249 -0.99707,-0.11231 -1.98272,-0.30965 -2.97455,-0.46148 -3.33012,-0.38517 -6.67379,-0.51741 -10.00254,-0.92936 -2.2268,-0.45898 -4.53786,-0.21371 -6.77117,-0.5271 -1.90215,-0.40918 -3.84169,-0.61394 -5.7542,-0.95699 -0.95843,-0.19383 -1.92663,-0.31383 -2.90073,-0.38761 -3.62527,-0.30939 -4.06281,4.81751 -0.43754,5.1269 v 0 c 0.81387,0.0821 1.61253,0.25001 2.41086,0.42666 2.00553,0.36026 4.02552,0.66768 6.03869,0.9701 2.25973,0.26057 4.53437,0.39939 6.78032,0.79238 3.28408,0.3607 6.58544,0.4952 9.86739,0.87783 1.12025,0.14795 2.2366,0.32837 3.36037,0.44671 2.17936,0.2295 4.38019,0.14886 6.56297,0.33677 3.63403,0.21634 7.26769,0.42397 10.90417,0.59065 3.52835,0.24267 7.05314,0.16676 10.58735,0.22518 1.9116,0.0796 3.79998,0.19737 5.69729,0.45769 4.72272,0.64796 -0.70239,-0.0266 4.37071,0.6853 0.79373,0.11138 1.59129,0.1936 2.38694,0.29041 5.71327,0.59126 11.50946,1.2095 17.23988,0.52789 1.52034,-0.34216 2.47968,-0.36317 3.71998,-1.48184 1.15108,-1.03818 1.29874,-2.45693 1.52759,-3.85835 0.49506,-2.26906 0.78714,-4.59419 1.02616,-6.90172 0.23728,-2.48684 0.53399,-4.96822 0.80821,-7.45127 0.47674,-2.86975 1.03739,-5.73143 1.26809,-8.6354 0.36411,-3.25061 0.75834,-6.49636 0.97239,-9.76035 0.41811,-2.96053 0.72307,-5.93063 0.93343,-8.91269 0.35498,-2.84655 0.64957,-5.6988 0.86799,-8.55945 0.40511,-2.77997 0.94104,-5.54226 1.0163,-8.36056 0.30561,-3.59749 0.49616,-7.19938 0.7223,-10.80243 0.13799,-1.8942 0.28018,-3.7979 0.54851,-5.67958 0.38728,-2.715885 0.21852,-0.648098 0.5744,-3.624554 0.0765,-0.640082 0.11784,-1.283885 0.17676,-1.925828 0.25756,-3.783909 0.74303,-7.54887 1.1479,-11.319036 0.36198,-4.004294 1.00312,-7.969904 1.26832,-11.98431 0.27293,-2.542495 0.85149,-5.020067 1.58972,-7.467047 0.9193,-3.234515 -0.0186,0.132969 0.79675,-2.994932 0.50174,-1.924838 1.23159,-3.804782 1.27605,-5.821517 -0.0822,-0.680469 0.0113,-1.406295 -0.24646,-2.041405 -1.14772,-2.82836 -4.02295,-2.836269 -6.56878,-3.116356 -2.22339,-0.286512 -4.44912,-0.60614 -6.69572,-0.586392 -2.76721,-0.05786 -5.53776,-0.05136 -8.29964,-0.257818 -3.15107,-0.13878 -6.29468,-0.440744 -9.44727,-0.573664 -2.46809,-0.178464 -4.93284,-0.15282 -7.40126,-0.294283 -3.41329,-0.229274 -6.82224,-0.529316 -10.24528,-0.572706 -4.03312,-0.237327 -8.04637,-0.632145 -12.06509,-1.039596 -3.29867,-0.17215 -6.60585,-0.356922 -9.87831,-0.815452 -5.1127,-0.633679 -10.22181,-1.343064 -15.36406,-1.68464 -2.61423,-0.05133 -6.49648,-0.519014 -8.87441,0.875029 -1.0791,0.632618 -1.35037,1.88259 -1.46606,2.978045 -0.28084,1.993999 -0.57526,3.98555 -0.52227,6.007292 -0.12037,2.991615 -0.4532,5.955284 -0.77877,8.930415 -0.41172,2.871405 -0.82417,5.744829 -1.32803,8.601294 -0.61823,3.82085 -0.98839,7.679705 -1.23303,11.541802 -0.26683,4.578314 -0.34579,9.164692 -0.69205,13.738894 -0.33087,4.110055 -0.59728,8.226255 -1.03193,12.326465 -0.45378,3.84198 -1.26088,7.61845 -2.05248,11.40301 -0.92698,4.83254 -2.09937,9.61806 -2.78144,14.4955 -1.092,5.8854 -1.57158,11.85045 -1.89289,17.82399 -0.40344,6.31036 -0.74846,12.64372 -0.13769,18.9551 0,3.66402 5.1817,3.66402 5.1817,0 z" /><g
         id="g242"><g
           id="g239"
           style="display:inline"><path
             style="display:inline;fill:#62a4ce;fill-opacity:1;stroke:none;stroke-width:1;stroke-linecap:round;stroke-linejoin:round;stroke-miterlimit:2;stroke-dasharray:none;stroke-opacity:1"
             d="m 286.47168,24.644531 c -1.80325,3.459785 -0.70759,7.816316 -1.50391,11.641602 -1.4596,11.365152 -2.8772,22.743829 -3.11733,34.215811 -0.65957,15.532086 -4.25555,30.465846 -6.6733,45.931786 -0.5655,9.66932 -1.61702,19.3756 -1.54823,29.04771 1.37591,3.28076 5.87774,2.248 8.70022,2.99031 14.02299,1.57769 28.13673,2.69457 42.21906,2.9572 11.19058,0.0917 22.33199,2.4119 33.59927,2.09546 3.57949,-0.83488 2.31105,-5.40703 3.10847,-8.0295 2.62434,-22.2585 5.45843,-44.47504 6.90766,-66.84901 1.85369,-15.255304 2.59768,-30.746371 6.812,-45.607814 -0.15311,-3.520016 -4.8133,-2.965447 -7.28223,-3.487305 -26.62758,-0.853725 -53.29882,-2.600875 -79.83496,-5.28125 -0.46224,0.125 -0.92448,0.25 -1.38672,0.375 z"
             id="path239" /></g><path
           id="path255"
           style="display:inline;fill:#000000;fill-opacity:1;stroke:none;stroke-width:2;stroke-linecap:round;stroke-linejoin:round;stroke-miterlimit:2;stroke-dasharray:none;stroke-opacity:1"
           d="m 287.46875,100.95898 c -0.45636,4e-4 -0.93366,0.17555 -1.39453,0.21094 -0.0804,0.17677 -0.18438,0.34586 -0.24219,0.53125 -0.11126,0.35684 -0.25277,1.43375 -0.29883,1.71485 -0.26713,1.63033 -0.61873,3.24337 -0.97851,4.85546 -0.64241,3.23411 -1.36169,6.46149 -2.32227,9.61719 -0.60374,1.3584 1.31815,2.21192 1.92188,0.85352 0.13962,-0.31181 0.29602,-0.61641 0.41797,-0.93555 0.33592,-0.87913 0.72415,-2.20576 0.97461,-3.08789 0.56072,-1.97497 1.00032,-3.95639 1.40234,-5.96875 0.19299,-0.80576 0.35433,-1.62149 0.49023,-2.43945 0.0423,0.16718 0.0816,0.31829 0.11524,0.44336 0.15077,0.56042 0.3192,1.11576 0.47851,1.67382 0.2717,0.88535 0.45947,1.79285 0.71094,2.6836 0.31149,1.10332 0.64214,2.19354 2.23828,1.78515 0.38824,-0.0993 0.54966,-0.58503 0.82422,-0.87695 0.85752,-1.40398 1.46468,-2.94321 2.38281,-4.3125 0.20111,-0.29992 0.39945,-0.56185 0.60352,-0.81445 -0.37998,1.8558 -0.69834,3.72438 -1.0332,5.58789 -0.28868,1.44366 -0.51099,2.89912 -0.61915,4.36719 -0.16232,1.51685 1.9822,1.74536 2.14454,0.22851 0.20266,-1.40152 0.48196,-2.78618 0.77343,-4.17187 0.56354,-3.00324 1.15249,-6.00234 1.62696,-9.02149 0.0296,-1.47612 0.41364,-1.54697 -1.69141,-1.71875 -0.17852,-0.0146 -0.28045,0.22412 -0.4043,0.35352 -0.60596,0.63312 -1.04507,1.41773 -1.72851,1.98242 -0.57215,0.67038 -1.12875,1.28576 -1.62695,2.01758 -0.60833,0.89355 -1.08049,1.85892 -1.5293,2.83594 -0.052,-0.24237 -0.0957,-0.38754 -0.39258,-1.57813 -0.0252,-0.0877 -0.93229,-3.24047 -0.95312,-3.30859 -0.24728,-0.80829 -0.52465,-1.70055 -0.9004,-2.47071 -0.16211,-0.33229 -0.19355,-0.8459 -0.54296,-0.96679 -0.14561,-0.0504 -0.29515,-0.0705 -0.44727,-0.0703 z m 16.36914,1.92383 c -0.27682,0.19909 -0.59475,0.35091 -0.83008,0.59766 -0.22639,0.23739 -0.6864,1.40741 -0.76172,1.60351 -0.5663,1.47424 -1.03832,2.98534 -1.64843,4.44336 -1.17284,2.97683 -2.37335,5.94668 -3.40821,8.97461 -0.57911,1.35126 1.33105,2.17157 1.91016,0.82032 0.71855,-1.48381 1.37461,-2.99665 2,-4.52149 1.28994,0.42433 2.59406,0.7763 3.9375,0.98047 l 0.43555,0.041 c 0.0408,0.88195 0.0908,1.76249 0.17382,2.64257 0.0135,0.16035 0.0256,0.32208 0.0391,0.48243 0.0713,1.48631 2.17483,1.38474 2.10351,-0.10157 l -0.006,-0.48828 c -0.0151,-2.59871 0.0488,-5.2036 -0.21484,-7.79297 -0.25661,-1.79445 -0.51526,-3.46629 -1.14063,-5.17773 -0.17243,-0.47185 -0.6776,-1.8075 -1.19921,-2.13086 -0.40756,-0.25266 -0.92743,-0.24902 -1.39063,-0.37305 z m 11.46289,1.02539 c -1.00142,-0.0421 -2.00617,-0.0293 -3.01172,0.0606 -1.45827,0 -1.45827,2.0625 0,2.0625 1.09616,0.0801 2.19621,0.0555 3.29297,0.11719 -0.6741,2.70585 -1.02912,5.48152 -1.53515,8.22265 -0.25446,1.68031 -0.8327,3.42075 -0.58204,5.13477 0.24505,1.43238 2.27044,1.08668 2.02539,-0.3457 0.14953,-1.42077 0.56307,-2.9021 0.8086,-4.33789 0.32727,-1.52059 0.61882,-3.04456 0.85742,-4.58204 0.4438,-2.85971 0.053,-0.46238 0.38672,-3.01757 0.0355,-0.27169 0.0885,-0.54015 0.13281,-0.81055 0.005,-0.0212 0.01,-0.0418 0.0137,-0.0625 0.1593,0.0167 0.28566,0.0283 0.35157,0.0352 0.90131,0.0878 1.80135,0.14973 2.69726,0.2832 1.45889,0.27378 1.84562,-1.78872 0.38672,-2.0625 -0.93338,-0.20652 -1.87587,-0.32717 -2.82617,-0.42969 -0.99816,-0.12902 -1.99663,-0.2255 -2.99805,-0.26758 z m 11.25977,0.14453 c -0.21778,-0.009 -0.43481,0.007 -0.67969,0.0801 -0.89652,0.26886 -1.2691,1.03017 -1.42578,1.88281 -0.36996,1.76441 -0.52625,3.56348 -0.78711,5.34571 -0.39283,2.69953 -0.83216,5.39239 -1.29492,8.08008 -0.25225,0.9249 0.49461,1.48523 1.16797,1.39062 0.12448,0.38666 0.47304,0.70508 1.04687,0.70508 1.46448,0.0675 2.93277,0.0529 4.39844,0.041 0.64662,-0.0505 1.28468,0.0454 1.92383,0.125 1.46037,0.21265 1.76115,-1.85375 0.30078,-2.0664 -0.73594,-0.1218 -1.47534,-0.24565 -2.22461,-0.21484 -1.46567,-0.012 -2.93396,-0.0265 -4.39844,0.041 -0.01,0 -0.0196,0.002 -0.0293,0.002 0.49247,-1.90568 0.84303,-3.84399 1.12891,-5.79101 0.18163,0.21283 0.46518,0.35742 0.85156,0.35742 0.91062,0.0416 1.82305,0.0365 2.73438,0.0273 1.49617,0 1.49617,-2.11718 0,-2.11718 -0.91133,-0.009 -1.82376,-0.0143 -2.73438,0.0273 -0.25908,0 -0.47165,0.0648 -0.63867,0.17187 0.0205,-0.15543 0.0406,-0.31132 0.0605,-0.46679 0.1882,-1.74821 0.26889,-3.51232 0.58594,-5.24414 0.14972,0.0187 0.1362,-0.12882 0.11328,-0.29102 0.0833,0.0224 0.19661,0.045 0.29492,0.0684 0.82981,0.21998 1.62763,0.53915 2.47265,0.70508 0.64874,0.1274 0.84238,0.12653 1.49024,0.18164 0.82487,0.0463 1.64729,-0.0452 2.4707,0.0234 1.48685,0.10675 1.63725,-1.9948 0.15039,-2.10157 -0.81297,-0.0521 -1.62433,0.0218 -2.4375,-0.0547 -0.44046,-0.0386 -0.74931,-0.0561 -1.18554,-0.13672 -0.90938,-0.16816 -1.75392,-0.57432 -2.67188,-0.70703 -0.24723,-0.023 -0.46582,-0.0557 -0.68359,-0.0645 z m 15.24804,0.80079 c -0.45761,0.0125 -0.90889,0.31309 -1.00586,0.95312 -0.12634,0.69489 -0.0752,0.33795 -0.14257,1.07422 -0.24466,1.89539 -0.52804,3.78837 -1,5.64258 -0.44294,2.23958 -0.66277,4.5128 -0.84571,6.78711 -0.007,0.0326 -0.0114,0.0661 -0.0156,0.0976 -0.6877,-0.035 -1.37453,-0.0882 -2.05664,-0.18554 0.51521,-1.52732 0.83974,-3.11161 1.04297,-4.71094 0.13577,-1.13582 0.22178,-2.27342 0.34961,-3.41016 0.035,-0.31142 0.26618,-2.1724 0.29882,-2.50586 0.0316,-0.32253 0.0467,-0.64554 0.0703,-0.96875 0.13538,-1.48917 -1.97009,-1.68056 -2.10547,-0.1914 -0.47099,2.26123 -0.63191,4.55935 -0.81641,6.85547 -0.19781,1.53745 -0.52743,3.05894 -0.93945,4.55273 -0.25471,0.9254 -0.33014,1.29453 0.47851,2.07813 0.17076,0.16544 0.80318,0.26983 0.98633,0.31054 1.29274,0.28885 2.62122,0.35091 3.94141,0.35156 0.5978,0.0196 1.17579,0.12777 1.75586,0.26172 0.36754,0.0849 0.23947,0.0179 0.40429,0.11328 0.55456,0.28732 1.30263,0.48095 1.83985,0.0137 0.2118,-0.18421 0.33638,-0.45055 0.5039,-0.67578 0.66752,-1.82893 0.98826,-3.76787 1.29688,-5.6836 0.38696,-2.40874 0.73114,-4.82552 1.16406,-7.22656 0.19684,-1.22661 0.11348,-0.63116 0.25586,-1.78711 0.21266,-1.52277 -1.94164,-1.82355 -2.1543,-0.30078 -0.16907,1.07248 -0.0737,0.51286 -0.28515,1.67773 -0.47065,2.42004 -0.88008,4.85356 -1.24805,7.29102 -0.22597,1.57681 -0.44041,3.15647 -0.79101,4.71094 -0.60351,-0.22994 -1.23411,-0.37002 -1.875,-0.44922 0.39783,-2.18269 0.54899,-4.40271 0.94726,-6.58594 0.46758,-1.91748 0.78142,-3.87299 0.94141,-5.83984 0.0366,-0.75683 0.009,-0.42802 0.0684,-0.98243 0.12467,-0.82289 -0.47609,-1.28366 -1.06446,-1.26757 z m -15.01757,0.88086 c 10e-4,-1.3e-4 0.005,1e-5 0.006,0 h 0.002 0.002 l 0.002,0.002 h 0.002 0.002 v 0.002 h 0.002 v 0.002 l 0.002,0.002 v 0.002 c 6e-5,7.9e-4 5e-5,0.005 0,0.006 -0.006,0.0375 -0.0974,0.13463 -0.17188,0.21484 -0.006,-0.093 0.007,-0.17114 0.0703,-0.20117 0.0391,-0.0184 0.0661,-0.0278 0.082,-0.0293 z m 25.49609,0.39062 c -1.28419,-0.0417 -2.27075,0.0356 -2.62695,1.50391 -0.11655,0.79177 -0.19083,1.58383 -0.30078,2.375 -0.24251,1.24458 -0.48641,2.48558 -0.83985,3.70507 -0.43954,1.70698 -0.90425,3.40862 -1.19531,5.1504 -0.20264,1.50735 -0.3676,2.94624 1.58008,3.15624 0.71405,2.9e-4 1.39841,0.15013 2.0957,0.29883 1.37549,0.21883 2.71665,0.63803 4.11328,0.72657 1.47295,0 1.47295,-2.08204 0,-2.08204 -1.26387,-0.28172 -2.52707,-0.57333 -3.8125,-0.74023 -0.65549,-0.13624 -1.31628,-0.22243 -1.98242,-0.26172 -10e-4,-0.0518 -0.003,-0.10457 0.006,-0.15234 0.0364,-0.2003 0.0808,-0.40008 0.12109,-0.59961 0.35542,-1.51243 0.70476,-3.02356 1.0625,-4.53516 0.14794,0.0709 0.32493,0.11133 0.53125,0.11133 0.7233,0.042 1.44752,-0.0196 2.16797,0.0625 1.47737,0.15338 1.69416,-1.93645 0.2168,-2.08984 -0.39638,-0.0387 -0.79375,-0.0542 -1.19141,-0.0566 -0.39766,-0.002 -0.79535,0.008 -1.19336,0.0215 -0.0153,0 -0.0299,-4.5e-4 -0.0449,0 0.171,-0.77343 0.3108,-1.55193 0.44531,-2.33398 0.0742,-0.73245 0.15157,-1.46013 0.24414,-2.18946 0.17022,0.0225 0.34557,0.0104 0.51758,0.0195 1.03405,0.0584 2.06314,0.0793 3.0918,0.20313 0.5565,0.10932 1.11484,0.20841 1.66797,0.33398 1.46571,0.33994 1.94619,-1.73428 0.48047,-2.07422 -0.62657,-0.14781 -1.25649,-0.261 -1.89258,-0.36132 -1.08454,-0.13374 -2.16997,-0.16131 -3.26172,-0.19141 z m -47.96875,0.01 c 0.003,0.0121 0.008,0.025 0.0117,0.0371 0.26364,0.96737 0.49712,1.933 0.64844,2.92578 0.0898,0.589 0.13652,1.18354 0.20507,1.77539 0.0948,0.93054 0.15141,1.86397 0.19532,2.79687 -1.17952,-0.21356 -2.32277,-0.59383 -3.4961,-0.82031 0.32149,-0.81409 0.64007,-1.62988 0.95703,-2.44531 0.56641,-1.39783 1.02127,-2.83393 1.47852,-4.26953 z m 47.44922,1.64648 h 0.002 0.002 l 0.002,0.002 v 0.002 l 0.002,0.002 v 0.002 c 9.1e-4,0.0226 -0.0177,0.0823 -0.0312,0.10547 -0.007,0.0113 -0.0168,0.0243 -0.0273,0.0371 6.8e-4,-0.005 10e-4,-0.0105 0.002,-0.0156 0.0146,-0.0438 0.01,-0.10059 0.0449,-0.13086 l 0.002,-0.002 h 0.002 z m -2.9668,12.11328 c 0.0104,-0.001 0.0219,2.6e-4 0.0293,0.002 h 0.002 c 0.0293,0.012 0.0595,0.0249 0.0879,0.0391 -0.0496,-0.007 -0.10209,-0.009 -0.14844,-0.0274 h -0.002 v -0.002 -0.002 l 0.002,-0.002 0.002,-0.002 c 0.006,-0.003 0.017,-0.005 0.0273,-0.006 z" /><path
           id="path241"
           style="fill:#000000;fill-opacity:1;stroke:none;stroke-width:2;stroke-linecap:round;stroke-linejoin:round;stroke-miterlimit:2;stroke-dasharray:none;stroke-opacity:1"
           d="m 316.48828,76.337891 c -0.5702,0.0011 -1.13329,0.06436 -1.54883,0.291015 -0.89354,0.487383 -0.99706,1.413935 -1.03125,2.314453 -0.0222,2.155887 -0.0181,4.314113 0.0645,6.46875 0,1.099204 1.55468,1.099204 1.55468,0 0.0826,-2.154637 0.0868,-4.310909 0.0645,-6.466797 0.003,-0.111795 -0.0756,-0.889278 0.1582,-1.107421 10e-4,-9.34e-4 0.003,-0.0032 0.004,-0.0039 h 0.002 l 0.002,-0.002 h 0.002 0.002 0.002 0.002 0.002 c 10e-4,2.73e-4 0.005,0.0015 0.006,0.002 0.0249,0.01385 0.0529,0.06957 0.084,0.08008 0.0865,0.02924 0.17861,0.04206 0.26953,0.05078 0.61767,0.0593 1.23671,0.08437 1.85547,0.130859 0.65329,0.07314 1.31244,0.07696 1.9668,0.134766 0.27463,0.02426 0.73495,0.051 0.74414,0.175781 1.2e-4,0.0016 1.1e-4,0.0045 0,0.0059 l -0.002,0.002 v 0.002 0.002 l -0.002,0.002 -0.002,0.002 h -0.002 v 0.002 h -0.002 c -0.0275,0.01 -0.10931,-0.02803 -0.14257,-0.0059 l -0.002,0.002 c -0.0621,0.05762 -0.0712,0.151882 -0.10742,0.228516 -0.44173,2.061295 -0.81021,4.13685 -0.98828,6.238281 -0.0102,0.218141 -0.0211,0.436155 -0.0312,0.654297 -0.0847,1.129346 1.513,1.250439 1.59766,0.121093 0.0212,-0.200562 0.0433,-0.402952 0.0645,-0.603515 0.27446,-2.144195 0.67234,-4.267101 0.95312,-6.410156 -0.0363,-0.32198 0.007,-0.662401 -0.10937,-0.964844 -0.52982,-1.378226 -2.69211,-1.119453 -3.83399,-1.263672 -0.44855,-0.02128 -1.0255,-0.08312 -1.5957,-0.08203 z m 11.87695,0.720703 c -0.29215,0.0061 -0.58094,0.06879 -0.87109,0.103515 -0.29384,0.120078 -0.60862,0.19613 -0.88086,0.359375 -0.78972,0.473555 -1.39031,1.23136 -1.77539,2.076172 -0.10329,0.09756 -0.18763,0.232851 -0.24023,0.408203 -0.47512,1.641029 -0.81585,3.447059 -0.17578,5.097657 0.11462,0.295625 0.293,0.560571 0.43945,0.841796 0.19867,0.215677 0.36524,0.467124 0.5957,0.648438 0.87342,0.68717 2.27324,0.881876 3.31055,0.490234 0.36761,-0.138791 0.68875,-0.379276 1.0332,-0.568359 0.29286,-0.287152 0.63842,-0.529081 0.87891,-0.861328 1.04079,-1.437838 1.45295,-3.75721 1.26367,-5.5 -0.0382,-0.352031 -0.14313,-0.694251 -0.21484,-1.041016 -0.13733,-0.271302 -0.23529,-0.567062 -0.41211,-0.814453 -0.65566,-0.917387 -1.87166,-1.262769 -2.95118,-1.240234 z m 0.28125,1.603515 c 0.44611,0.01275 1.00197,0.09577 1.24414,0.386719 0.0951,0.114204 0.14738,0.257487 0.22071,0.386719 0.0485,0.254829 0.12161,0.507415 0.14648,0.765625 0.11414,1.185141 -0.15792,3.26796 -0.77734,4.298828 -0.13959,0.232309 -0.35753,0.406388 -0.53711,0.609375 -0.18136,0.131648 -0.34622,0.290893 -0.54492,0.394531 -0.43316,0.225924 -1.35427,0.248015 -1.78711,-0.02734 -0.12306,-0.07829 -0.21388,-0.199099 -0.32031,-0.298828 -0.0973,-0.172446 -0.21615,-0.33428 -0.29102,-0.517578 -0.337,-0.825063 -0.31505,-1.715368 -0.1875,-2.59375 0.0774,-0.112906 0.12984,-0.255781 0.14844,-0.429687 0.10533,-0.957894 0.52273,-2.035224 1.3164,-2.640625 0.13259,-0.101142 0.29432,-0.157748 0.44141,-0.236328 0.1781,-0.03088 0.35469,-0.08172 0.53516,-0.0918 0.10844,-0.0061 0.24387,-0.01011 0.39257,-0.0059 z" /><path
           id="path242"
           style="fill:#000000;fill-opacity:1;stroke:none;stroke-width:2;stroke-linecap:round;stroke-linejoin:round;stroke-miterlimit:2;stroke-dasharray:none;stroke-opacity:1"
           d="m 292.78906,55.96875 c -1.45827,0 -1.45827,2.0625 0,2.0625 1.22851,0.101658 2.44996,0.258165 3.67578,0.382812 -0.0291,0.06715 -0.0526,0.140051 -0.0723,0.21875 -0.44043,1.786294 -0.65049,3.616365 -1.06446,5.408204 -0.18196,0.92584 -0.43606,1.832032 -0.70117,2.736328 -0.44503,1.406105 1.54326,2.035012 1.98828,0.628906 0.32064,-0.940407 0.62635,-1.885687 0.84766,-2.855469 0.43914,-1.781945 0.7077,-3.594715 0.95313,-5.412109 0.0509,-0.203592 0.0534,-0.387561 0.0195,-0.550781 1.084,0.106489 2.16717,0.202954 3.24804,0.339843 1.48836,0.217296 1.795,-1.886219 0.30664,-2.103515 -1.23669,-0.203344 -2.48401,-0.315913 -3.72851,-0.460938 -1.81788,-0.179175 -3.6432,-0.457 -5.47266,-0.394531 z m 13.42188,0.609375 c -0.96675,-0.01982 -1.76956,0.228027 -1.98242,1.519531 -0.10305,1.330348 -0.38612,2.636149 -0.48829,3.966797 -0.23856,1.983773 -0.52304,3.962394 -0.71875,5.951172 -0.0542,0.379706 0.0469,0.679955 0.22852,0.890625 0.0665,0.461128 0.42904,0.880859 1.08789,0.880859 1.39669,0.05748 2.79591,0.06081 4.19336,0.0332 1.51241,0 1.51241,-2.140624 0,-2.140624 -1.11032,-0.02194 -2.22175,-0.02289 -3.33203,0.0059 0.21513,-1.127707 0.38148,-2.266435 0.52734,-3.40625 0.0209,8.91e-4 0.0409,0.002 0.0625,0.002 0.68448,0.03418 1.36969,0.03181 2.05469,0.02344 1.49122,0 1.49122,-2.109376 0,-2.109376 -0.62488,-0.0077 -1.24856,-0.0099 -1.87305,0.01563 0.086,-1.175991 0.25328,-2.344746 0.32032,-3.521485 0.0458,0.0013 0.0916,0.0042 0.13671,0.0098 0.17525,0.02163 0.34879,0.0521 0.52344,0.07813 0.91941,0.157771 1.84531,0.255013 2.77735,0.283203 1.47735,0.07117 1.57891,-2.016722 0.10156,-2.087891 -0.87662,-0.06047 -1.74694,-0.166209 -2.61328,-0.314453 -0.34317,-0.03703 -0.68361,-0.07347 -1.00586,-0.08008 z m 9.64258,0.330078 c -0.73912,0.0052 -1.47901,0.03076 -2.2168,0.05078 -1.47295,0 -1.47295,2.082033 0,2.082032 0.75578,0.04769 1.51262,0.04214 2.26953,0.03906 -0.005,0.01719 -0.009,0.03495 -0.0137,0.05273 -0.47459,1.649718 -0.87222,3.328591 -1.24219,5.00586 -0.14287,1.062505 -0.38975,2.101392 -0.61719,3.146484 l -0.0547,0.384766 c -0.21352,1.446642 1.8314,1.747423 2.04492,0.300781 0.0122,-0.0806 0.0249,-0.161587 0.0371,-0.242187 0.22855,-1.03315 0.59099,-2.039949 0.71875,-3.097657 0.40443,-1.658731 0.80123,-3.317819 1.13672,-4.992187 0.0477,-0.190657 0.0527,-0.364117 0.0254,-0.519531 0.38244,0.03128 0.76322,0.07681 1.14453,0.11914 1.44811,0.20538 1.73912,-1.843448 0.29101,-2.048828 -0.43561,-0.07553 -0.87118,-0.157082 -1.31054,-0.208984 -0.73614,-0.06276 -1.47378,-0.07748 -2.21289,-0.07227 z m 8.22851,0.541016 c -1.00732,-0.0127 -1.73121,0.489032 -1.93164,1.474609 -0.0891,0.218768 -0.22807,0.545803 -0.28711,0.753906 -0.25257,0.890241 -0.25335,1.830294 -0.42773,2.734375 -0.30472,1.832532 -0.58729,3.684821 -0.4668,5.548829 0,1.458263 2.0625,1.458262 2.0625,0 0.0434,-0.945919 0.13423,-1.887868 0.25,-2.826172 0.1521,0.04419 0.32637,0.05854 0.52148,0.0332 1.37624,-0.155609 2.77835,-0.203545 3.99219,-0.966797 0.17762,-0.18415 0.39477,-0.337574 0.5332,-0.552734 0.58916,-0.915676 0.35112,-2.11392 0.0586,-3.076172 -0.1105,-0.204194 -0.20315,-0.418871 -0.33008,-0.613282 -0.75867,-1.162046 -1.98354,-1.92935 -3.25586,-2.410156 -0.23971,-0.03337 -0.47675,-0.09656 -0.71875,-0.09961 z m 10.26367,0.841797 c -0.18083,-0.0081 -0.37196,0.02751 -0.60937,0.07227 -0.16793,0.03166 -0.34342,0.03894 -0.50391,0.09766 -0.1804,0.066 -0.33849,0.180754 -0.50781,0.271484 -0.12494,0.125277 -0.26265,0.240269 -0.375,0.376953 -0.67729,0.824038 -1.00564,2.174984 -1.43555,3.125 -0.16998,0.379134 -0.89575,1.999771 -1.05078,2.330078 -0.65281,1.390861 -1.40326,2.737782 -1.96484,4.169922 -0.46924,1.407714 1.52294,2.069823 1.99218,0.662109 0.33978,-0.590201 0.66831,-1.184888 0.98633,-1.785156 1.05143,0.175855 2.1216,0.201476 3.18555,0.21875 0.25786,0.0062 0.47399,-0.05142 0.64648,-0.15039 0.13865,0.744153 0.29591,1.483963 0.29688,2.24414 -0.0226,1.454084 2.03405,1.487286 2.05664,0.0332 0.0284,-1.015152 -0.0896,-2.024764 -0.22852,-3.029297 -0.1462,-1.157748 -0.28399,-2.317051 -0.43164,-3.474609 -0.0811,-0.635789 -0.21585,-1.864826 -0.33398,-2.496094 -0.0672,-0.359019 -0.16808,-0.710912 -0.25195,-1.066406 -0.16021,-0.348612 -0.20656,-0.778224 -0.48047,-1.046875 -0.41484,-0.406868 -0.68884,-0.539224 -0.99024,-0.552734 z m -10.10547,0.871093 h 0.002 v 0.002 h 0.002 v 0.002 c 0.002,0.01346 -0.012,0.05939 -0.0215,0.07617 -0.0142,0.02512 -0.0304,0.04769 -0.0488,0.07031 0.003,-0.0082 0.005,-0.01722 0.008,-0.02539 0.0141,-0.04245 0.0247,-0.08799 0.0547,-0.121093 l 0.002,-0.002 z m 20.91602,0.302735 c -0.61131,0.04238 -1.10278,0.669764 -1.40625,1.101562 -0.66926,1.197594 -0.99828,2.543627 -1.55273,3.794922 -0.64961,1.7093 -1.25248,3.522934 -1.24805,5.369141 -0.511,0.03452 -1.0213,0.08677 -1.52734,0.169922 -0.26845,0.140758 -0.57073,0.229151 -0.80469,0.421875 -0.84439,0.695568 -0.74467,1.977606 -0.84571,2.943359 -0.20734,1.45139 1.8454,1.74436 2.05274,0.292969 0.19719,-0.515728 0.0188,-1.487411 0.31836,-1.941406 0.0111,-0.01683 0.0214,-0.0284 0.0273,-0.0332 l 0.002,-0.002 h 0.002 0.002 0.002 0.002 v 0.002 0.002 0.002 l 0.002,0.002 c 0.005,0.03951 -0.0495,0.209252 -0.0703,0.28125 0.0897,0.0079 0.17948,0.02425 0.26953,0.02344 0.40302,-0.0036 0.80419,-0.04011 1.20703,-0.05273 0.70141,-0.02198 1.40183,-0.02208 2.10352,-0.02148 1.01601,0.0057 2.03293,-0.03149 3.04882,-0.0332 0.30299,0.0038 0.53816,0.130647 0.78321,0.267579 -0.006,0.02407 -0.0136,0.04805 -0.0234,0.06836 -0.20882,0.429408 -0.44265,0.843297 -0.6543,1.271484 -0.22087,0.533726 -0.11782,0.312005 -0.29882,0.675781 -0.69,1.291712 1.13812,2.268275 1.82812,0.976563 0.26305,-0.473421 0.14525,-0.240915 0.35156,-0.701172 0.40488,-0.782882 1.19743,-2.00899 0.94532,-2.927734 -0.0738,-0.268894 -0.28407,-0.48057 -0.42579,-0.720703 -0.45364,-0.329923 -0.93553,-0.621682 -1.45703,-0.800782 0.0444,-0.128038 0.0689,-0.274033 0.0684,-0.4375 0.004,-0.200922 0.009,-0.402593 0.0137,-0.603515 -0.0295,-2.049799 -0.27864,-4.08108 -0.63281,-6.09961 -0.0737,-0.325875 -0.39302,-1.918489 -0.61328,-2.24414 -0.26402,-0.39036 -0.59079,-0.795155 -1.02734,-0.972657 -0.15285,-0.06215 -0.30034,-0.084 -0.44141,-0.07422 z m -21.04883,0.07031 c 0.0954,0.04525 0.20349,0.05952 0.30469,0.08984 0.79849,0.517774 1.68598,1.024886 2.10547,1.917969 0.0117,0.322275 0.15023,0.915009 0.0449,1.216797 -4.7e-4,0.0013 -0.003,0.0049 -0.004,0.0059 v 0.002 h -0.002 l -0.002,-0.002 v -0.002 l -0.002,-0.002 c -0.007,-0.02292 -0.0105,-0.107346 -0.0351,-0.13086 l -0.002,-0.002 -0.002,-0.002 -0.002,-0.002 c -0.0238,-0.01348 -0.0608,0.0032 -0.0898,0.002 -0.11841,0.01052 -0.23816,0.01204 -0.35547,0.03125 -0.22579,0.03698 -0.44684,0.09544 -0.67188,0.136719 -0.60518,0.111007 -1.21746,0.176394 -1.82617,0.263672 0.0149,-0.09982 0.0318,-0.199032 0.0469,-0.298828 0.20614,-1.017947 0.0887,-2.104138 0.45313,-3.085938 0.0135,-0.0458 0.0261,-0.09271 0.0391,-0.138672 z m 9.96289,0.681641 h 0.002 0.002 l 0.002,0.002 c 0.006,0.0035 0.0137,0.01402 0.0254,0.0293 -0.0164,-0.0033 -0.0306,-0.007 -0.0449,-0.0098 0.004,-0.0081 0.007,-0.0142 0.01,-0.01758 l 0.002,-0.002 z m 0.0586,0.03516 c 0.006,-3.58e-4 0.0116,0.0015 0.0156,0.002 -0.005,-10e-4 -0.0108,-9.51e-4 -0.0156,-0.002 z m 0.0195,0.002 c 10e-4,2.39e-4 0.003,0.0016 0.004,0.002 -10e-4,-2.85e-4 -0.003,-0.0017 -0.004,-0.002 z m -0.3418,0.560547 c 0.22038,1.634333 0.38064,3.275559 0.59961,4.910156 -0.0899,-0.0213 -0.18813,-0.03262 -0.29297,-0.03516 -0.73989,-0.0241 -1.47776,-0.05714 -2.2168,-0.09961 0.38662,-0.809309 0.75303,-1.628172 1.09766,-2.458985 0.262,-0.774428 0.51776,-1.553316 0.8125,-2.316406 z m 19.57813,0.09766 c -0.43874,-0.0092 -0.88562,0.241478 -1.0625,0.835938 -0.37038,1.236762 -0.64808,2.494035 -0.93555,3.751953 -0.2862,1.68565 -0.51048,3.400459 -0.42774,5.113281 0,0.677973 0.4416,1.043803 0.91797,1.097657 0.001,0.574055 0.44694,1.147793 1.25196,1.042968 0.71554,-0.07582 0.34279,-0.03231 1.12304,-0.132812 0.81426,-0.118178 2.44349,-0.224936 3.10938,-0.632813 0.31562,-0.193333 0.59638,-0.454316 0.8164,-0.751953 0.13028,-0.176226 0.13555,-0.416529 0.20313,-0.625 0.118,-1.319926 5.9e-4,-2.379743 -0.97656,-3.376953 -0.23361,-0.172719 -0.45018,-0.371277 -0.70118,-0.517578 -0.97768,-0.569865 -2.12822,-0.564672 -3.2207,-0.509766 0.0178,-0.116906 0.036,-0.234815 0.0547,-0.351562 0.24074,-1.175636 0.51355,-2.341282 0.85351,-3.492188 0.25852,-0.868826 -0.36463,-1.437703 -1.00585,-1.451172 z m -7.55274,0.441407 h 0.002 0.002 v 0.002 h -0.002 c -10e-4,7.3e-4 -0.003,0.0027 -0.006,0.0039 -0.15836,0.07359 -0.30905,0.182892 -0.48046,0.210937 h -0.002 l -0.002,-0.002 -0.002,-0.002 v -0.002 h -0.002 v -0.002 -0.002 -0.002 -0.002 -0.002 -0.002 l 0.002,-0.002 v -0.002 c 0.0423,-0.06349 0.45541,-0.192944 0.49023,-0.195312 z m -0.82812,1.664062 c 0.0101,0.05906 0.0213,0.116704 0.0312,0.175781 0.28305,1.905042 0.59324,3.800659 0.68164,5.726563 0.006,0.182368 0.0118,0.364507 0.0176,0.546875 2.6e-4,0.07977 0.006,0.155304 0.0176,0.226562 -0.69008,-0.01882 -1.37985,-0.04364 -2.07031,-0.03711 -0.21088,0.0021 -0.42159,0.0036 -0.63281,0.0059 0.0426,-0.582458 0.20295,-1.141745 0.34765,-1.710937 0.24488,-0.963278 0.51484,-1.866131 0.875,-2.792969 0.10774,-0.291842 0.2174,-0.58282 0.32422,-0.875 0.14764,-0.403822 0.27251,-0.836591 0.40821,-1.265625 z m 8.21093,5.263672 c 0.0396,0.0033 0.081,0.0059 0.12305,0.0059 0.82987,0.07185 1.77776,-0.113403 2.51758,0.378907 0.0843,0.05608 0.13924,0.145373 0.20898,0.21875 0.3363,0.401002 0.29803,0.879616 0.25782,1.365234 -0.0107,-0.01814 -0.0253,-0.03736 -0.0469,-0.05664 -0.0782,-0.06992 -0.21025,0.0018 -0.31445,0.01367 -0.67334,0.07679 -1.34688,0.187722 -2.01758,0.285157 -0.68464,0.109995 -0.4693,0.07504 -0.90234,0.142578 9e-5,-0.007 0,-0.01443 0,-0.02148 0.0343,-0.778894 0.0932,-1.556291 0.17382,-2.332031 z m 3.09571,2.125 c -9.2e-4,0.01218 -0.003,0.02298 -0.004,0.03516 -0.0334,0.01459 -0.0489,0.02334 -0.0547,0.02539 v -0.002 c 0.008,-0.0074 0.0361,-0.0281 0.0586,-0.05859 z m -8.58008,1.761719 c 0.25494,0.133649 0.15743,0.05019 0.28125,0.166015 -0.22429,0.23889 -0.26171,0.04337 -0.28125,-0.166015 z" /></g><g
         id="g243"><path
           style="display:inline;fill:#000000;fill-opacity:1;stroke:none;stroke-width:2;stroke-linecap:round;stroke-linejoin:round;stroke-miterlimit:2;stroke-dasharray:none;stroke-opacity:1"
           id="path243"
           d="m 275.09085,148.32432 c 0.32245,-3.62992 0.29051,-7.27837 0.49218,-10.91542 0.14168,-2.55511 0.33676,-5.10699 0.49407,-7.66119 0.30981,-5.75967 0.44754,-11.53272 1.38699,-17.23181 0.9021,-4.82262 1.89479,-9.62593 2.7441,-14.45801 0.8126,-3.86242 1.45538,-7.75255 2.06957,-11.65019 0.45064,-2.62101 0.33837,-5.2908 0.61831,-7.926032 0.16409,-1.544705 0.38353,-3.083157 0.55106,-4.627492 0.39799,-3.271793 0.31202,-6.566921 0.39619,-9.85223 0.0151,-0.589729 0.1782,-3.533196 0.20926,-4.108691 0.16252,-2.410566 0.22765,-4.875117 0.52695,-7.274146 0.15515,-1.243667 0.41621,-2.471873 0.61018,-3.710082 0.32091,-2.908223 0.76419,-5.797692 1.19623,-8.690523 0.42587,-3.167741 0.75751,-6.338607 0.83962,-9.534884 -0.14853,-1.876917 0.10592,-3.71779 0.28516,-5.578547 0.0159,-0.223215 0.0251,-0.447009 0.0477,-0.669647 0.0136,-0.134547 -0.91566,1.440943 -0.34818,1.627669 0.70125,0.230739 1.47012,0.137405 2.20609,0.195219 1.0069,0.0791 2.01489,0.143666 3.02234,0.215499 5.00397,0.40399 10.00563,0.844973 14.99917,1.360561 3.39188,0.259057 6.77959,0.571499 10.17369,0.802298 4.03858,0.376343 8.04806,0.924548 12.10215,1.115803 3.42499,-0.04244 6.83481,0.248898 10.25412,0.384108 1.57486,0.0799 3.15963,-0.02606 4.73372,0.04521 0.8378,0.03794 1.66981,0.158587 2.5047,0.238161 3.18708,0.180176 6.36338,0.427539 9.54522,0.689655 2.89461,0.143814 5.79393,0.155595 8.68986,0.053 1.98796,-0.191081 3.93711,0.357971 5.89009,0.663566 1.19435,0.238438 2.42228,0.164333 3.61896,0.373846 0.0979,0.01715 -0.20899,0.02649 -0.29772,-0.01839 -1.49623,-0.756742 -0.25526,-0.366813 -1.0048,-0.584761 -0.55964,2.483177 -1.32608,4.922216 -2.0175,7.374626 -0.72685,2.744708 -1.37697,5.500318 -1.72551,8.319947 -0.43367,4.033115 -1.1133,8.035223 -1.51901,12.070888 -0.35715,3.817905 -0.73004,7.635242 -1.02134,11.458999 -0.42222,3.708982 -0.99469,7.398663 -1.40518,11.11018 -0.24225,2.05972 -0.17193,4.13427 -0.24316,6.20101 -0.0545,1.5801 -0.20456,3.16067 -0.29183,4.73949 -0.0493,2.6973 -0.5739,5.34954 -0.91507,8.01696 -0.31777,2.87566 -0.5801,5.75601 -0.92246,8.62893 -0.18282,2.96043 -0.57335,5.8947 -0.95848,8.83337 -0.24854,3.29645 -0.63927,6.57108 -1.04388,9.85039 -0.18038,2.8568 -0.71202,5.66988 -1.08086,8.50353 -0.2869,2.54221 -0.6046,5.07971 -0.93207,7.61768 -0.10311,1.69713 -0.39905,3.37323 -0.56889,5.06341 -0.12838,1.27754 0.002,0.52581 -0.16375,1.37036 -0.0559,0.27571 -0.11174,0.55143 -0.1676,0.82714 -0.0434,0.28199 -0.0765,0.56577 -0.1303,0.84597 -0.0184,0.0957 -0.0919,0.37684 -0.0857,0.27957 0.0605,-0.94568 0.60683,-0.85313 -0.65013,-0.83162 -5.29525,-0.20357 -10.58817,-0.47878 -15.87308,-0.87008 -0.74721,-0.0815 -1.49606,-0.14926 -2.24164,-0.24454 -0.69863,-0.0893 -1.39346,-0.20603 -2.09019,-0.30905 -0.7056,-0.0991 -1.40982,-0.20851 -2.11679,-0.29736 -2.09171,-0.26288 -4.17549,-0.38822 -6.28041,-0.47329 -2.43546,-0.1139 -4.87442,0.0796 -7.30908,0.0464 -0.5968,-0.008 -2.56698,-0.14451 -3.14039,-0.18189 -3.65239,-0.14776 -7.29058,-0.45791 -10.93865,-0.6767 -2.16284,-0.21036 -4.35041,0.0507 -6.50986,-0.19249 -0.99707,-0.11231 -1.98272,-0.30965 -2.97455,-0.46148 -3.33012,-0.38517 -6.67379,-0.51741 -10.00254,-0.92936 -2.2268,-0.45898 -4.53786,-0.21371 -6.77117,-0.5271 -1.90215,-0.40918 -3.84169,-0.61394 -5.7542,-0.95699 -0.95843,-0.19383 -1.92663,-0.31383 -2.90073,-0.38761 -3.62527,-0.30939 -4.06281,4.81751 -0.43754,5.1269 v 0 c 0.81387,0.0821 1.61253,0.25001 2.41086,0.42666 2.00553,0.36026 4.02552,0.66768 6.03869,0.9701 2.25973,0.26057 4.53437,0.39939 6.78032,0.79238 3.28408,0.3607 6.58544,0.4952 9.86739,0.87783 1.12025,0.14795 2.2366,0.32837 3.36037,0.44671 2.17936,0.2295 4.38019,0.14886 6.56297,0.33677 3.63403,0.21634 7.26769,0.42397 10.90417,0.59065 3.52835,0.24267 7.05314,0.16676 10.58735,0.22518 1.9116,0.0796 3.79998,0.19737 5.69729,0.45769 4.72272,0.64796 -0.70239,-0.0266 4.37071,0.6853 0.79373,0.11138 1.59129,0.1936 2.38694,0.29041 5.71327,0.59126 11.50946,1.2095 17.23988,0.52789 1.52034,-0.34216 2.47968,-0.36317 3.71998,-1.48184 1.15108,-1.03818 1.29874,-2.45693 1.52759,-3.85835 0.49506,-2.26906 0.78714,-4.59419 1.02616,-6.90172 0.23728,-2.48684 0.53399,-4.96822 0.80821,-7.45127 0.47674,-2.86975 1.03739,-5.73143 1.26809,-8.6354 0.36411,-3.25061 0.75834,-6.49636 0.97239,-9.76035 0.41811,-2.96053 0.72307,-5.93063 0.93343,-8.91269 0.35498,-2.84655 0.64957,-5.6988 0.86799,-8.55945 0.40511,-2.77997 0.94104,-5.54226 1.0163,-8.36056 0.30561,-3.59749 0.49616,-7.19938 0.7223,-10.80243 0.13799,-1.8942 0.28018,-3.7979 0.54851,-5.67958 0.38728,-2.715885 0.21852,-0.648098 0.5744,-3.624554 0.0765,-0.640082 0.11784,-1.283885 0.17676,-1.925828 0.25756,-3.783909 0.74303,-7.54887 1.1479,-11.319036 0.36198,-4.004294 1.00312,-7.969904 1.26832,-11.98431 0.27293,-2.542495 0.85149,-5.020067 1.58972,-7.467047 0.9193,-3.234515 -0.0186,0.132969 0.79675,-2.994932 0.50174,-1.924838 1.23159,-3.804782 1.27605,-5.821517 -0.0822,-0.680469 0.0113,-1.406295 -0.24646,-2.041405 -1.14772,-2.82836 -4.02295,-2.836269 -6.56878,-3.116356 -2.22339,-0.286512 -4.44912,-0.60614 -6.69572,-0.586392 -2.76721,-0.05786 -5.53776,-0.05136 -8.29964,-0.257818 -3.15107,-0.13878 -6.29468,-0.440744 -9.44727,-0.573664 -2.46809,-0.178464 -4.93284,-0.15282 -7.40126,-0.294283 -3.41329,-0.229274 -6.82224,-0.529316 -10.24528,-0.572706 -4.03312,-0.237327 -8.04637,-0.632145 -12.06509,-1.039596 -3.29867,-0.17215 -6.60585,-0.356922 -9.87831,-0.815452 -5.1127,-0.633679 -10.22181,-1.343064 -15.36406,-1.68464 -2.61423,-0.05133 -6.49648,-0.519014 -8.87441,0.875029 -1.0791,0.632618 -1.35037,1.88259 -1.46606,2.978045 -0.28084,1.993999 -0.57526,3.98555 -0.52227,6.007292 -0.12037,2.991615 -0.4532,5.955284 -0.77877,8.930415 -0.41172,2.871405 -0.82417,5.744829 -1.32803,8.601294 -0.61823,3.82085 -0.98839,7.679705 -1.23303,11.541802 -0.26683,4.578314 -0.34579,9.164692 -0.69205,13.738894 -0.33087,4.110055 -0.59728,8.226255 -1.03193,12.326465 -0.45378,3.84198 -1.26088,7.61845 -2.05248,11.40301 -0.92698,4.83254 -2.09937,9.61806 -2.78144,14.4955 -1.092,5.8854 -1.57158,11.85045 -1.89289,17.82399 -0.40344,6.31036 -0.74846,12.64372 -0.13769,18.9551 0,3.66402 5.1817,3.66402 5.1817,0 z" /></g></g></g></svg>
