<?xml version="1.0" encoding="UTF-8" standalone="no"?>
<!-- Created with Inkscape (http://www.inkscape.org/) -->

<svg
   width="55.667328"
   height="71.219048"
   viewBox="0 0 55.667328 71.219048"
   version="1.1"
   id="svg1"
   xml:space="preserve"
   xmlns="http://www.w3.org/2000/svg"
   xmlns:svg="http://www.w3.org/2000/svg"><defs
     id="defs1" /><g
     id="g10"
     style="display:inline"
     transform="translate(-297.4111,-56.140747)"><g
       id="g178"
       style="display:inline"
       transform="matrix(0.5,0,0,0.5,162.62238,45.875135)"><path
         style="display:inline;fill:#808186;fill-opacity:1;stroke:none;stroke-width:2;stroke-linecap:round;stroke-linejoin:round;stroke-miterlimit:2;stroke-dasharray:none;stroke-opacity:1"
         id="path172"
         d="m 277.09085,153.82432 c 0.32245,-3.62992 0.29051,-7.27837 0.49218,-10.91542 0.14168,-2.55511 0.33676,-5.10699 0.49407,-7.66119 0.30981,-5.75967 0.44754,-11.53272 1.38699,-17.23181 0.9021,-4.82262 1.89479,-9.62593 2.7441,-14.45801 0.8126,-3.86242 1.45538,-7.75255 2.06957,-11.65019 0.45064,-2.62101 0.33837,-5.2908 0.61831,-7.926032 0.16409,-1.544705 0.38353,-3.083157 0.55106,-4.627492 0.39799,-3.271793 0.31202,-6.566921 0.39619,-9.85223 0.0151,-0.589729 0.1782,-3.533196 0.20926,-4.108691 0.16252,-2.410566 0.22765,-4.875117 0.52695,-7.274146 0.15515,-1.243667 0.41621,-2.471873 0.61018,-3.710082 0.32091,-2.908223 0.76419,-5.797692 1.19623,-8.690523 0.42587,-3.167741 0.75751,-6.338607 0.83962,-9.534884 -0.14853,-1.876917 0.10592,-3.71779 0.28516,-5.578547 0.0159,-0.223215 0.0251,-0.447009 0.0477,-0.669647 0.0136,-0.134547 -0.91566,1.440943 -0.34818,1.627669 0.70125,0.230739 1.47012,0.137405 2.20609,0.195219 1.0069,0.0791 2.01489,0.143666 3.02234,0.215499 5.00397,0.40399 10.00563,0.844973 14.99917,1.360561 3.39188,0.259057 6.77959,0.571499 10.17369,0.802298 4.03858,0.376343 8.04806,0.924548 12.10215,1.115803 3.42499,-0.04244 6.83481,0.248898 10.25412,0.384108 1.57486,0.0799 3.15963,-0.02606 4.73372,0.04521 0.8378,0.03794 1.66981,0.158587 2.5047,0.238161 3.18708,0.180176 6.36338,0.427539 9.54522,0.689655 2.89461,0.143814 5.79393,0.155595 8.68986,0.053 1.98796,-0.191081 3.93711,0.357971 5.89009,0.663566 1.19435,0.238438 2.42228,0.164333 3.61896,0.373846 0.0979,0.01715 -0.20899,0.02649 -0.29772,-0.01839 -1.49623,-0.756742 -0.25526,-0.366813 -1.0048,-0.584761 -0.55964,2.483177 -1.32608,4.922216 -2.0175,7.374626 -0.72685,2.744708 -1.37697,5.500318 -1.72551,8.319947 -0.43367,4.033115 -1.1133,8.035223 -1.51901,12.070888 -0.35715,3.817905 -0.73004,7.635242 -1.02134,11.458999 -0.42222,3.708982 -0.99469,7.398663 -1.40518,11.11018 -0.24225,2.05972 -0.17193,4.13427 -0.24316,6.20101 -0.0545,1.5801 -0.20456,3.16067 -0.29183,4.73949 -0.0493,2.6973 -0.5739,5.34954 -0.91507,8.01696 -0.31777,2.87566 -0.5801,5.75601 -0.92246,8.62893 -0.18282,2.96043 -0.57335,5.8947 -0.95848,8.83337 -0.24854,3.29645 -0.63927,6.57108 -1.04388,9.85039 -0.18038,2.8568 -0.71202,5.66988 -1.08086,8.50353 -0.2869,2.54221 -0.6046,5.07971 -0.93207,7.61768 -0.10311,1.69713 -0.39905,3.37323 -0.56889,5.06341 -0.12838,1.27754 0.002,0.52581 -0.16375,1.37036 -0.0559,0.27571 -0.11174,0.55143 -0.1676,0.82714 -0.0434,0.28199 -0.0765,0.56577 -0.1303,0.84597 -0.0184,0.0957 -0.0919,0.37684 -0.0857,0.27957 0.0605,-0.94568 0.60683,-0.85313 -0.65013,-0.83162 -5.29525,-0.20357 -10.58817,-0.47878 -15.87308,-0.87008 -0.74721,-0.0815 -1.49606,-0.14926 -2.24164,-0.24454 -0.69863,-0.0893 -1.39346,-0.20603 -2.09019,-0.30905 -0.7056,-0.0991 -1.40982,-0.20851 -2.11679,-0.29736 -2.09171,-0.26288 -4.17549,-0.38822 -6.28041,-0.47329 -2.43546,-0.1139 -4.87442,0.0796 -7.30908,0.0464 -0.5968,-0.008 -2.56698,-0.14451 -3.14039,-0.18189 -3.65239,-0.14776 -7.29058,-0.45791 -10.93865,-0.6767 -2.16284,-0.21036 -4.35041,0.0507 -6.50986,-0.19249 -0.99707,-0.11231 -1.98272,-0.30965 -2.97455,-0.46148 -3.33012,-0.38517 -6.67379,-0.51741 -10.00254,-0.92936 -2.2268,-0.45898 -4.53786,-0.21371 -6.77117,-0.5271 -1.90215,-0.40918 -3.84169,-0.61394 -5.7542,-0.95699 -0.95843,-0.19383 -1.92663,-0.31383 -2.90073,-0.38761 -3.62527,-0.30939 -4.06281,4.81751 -0.43754,5.1269 v 0 c 0.81387,0.0821 1.61253,0.25001 2.41086,0.42666 2.00553,0.36026 4.02552,0.66768 6.03869,0.9701 2.25973,0.26057 4.53437,0.39939 6.78032,0.79238 3.28408,0.3607 6.58544,0.4952 9.86739,0.87783 1.12025,0.14795 2.2366,0.32837 3.36037,0.44671 2.17936,0.2295 4.38019,0.14886 6.56297,0.33677 3.63403,0.21634 7.26769,0.42397 10.90417,0.59065 3.52835,0.24267 7.05314,0.16676 10.58735,0.22518 1.9116,0.0796 3.79998,0.19737 5.69729,0.45769 4.72272,0.64796 -0.70239,-0.0266 4.37071,0.6853 0.79373,0.11138 1.59129,0.1936 2.38694,0.29041 5.71327,0.59126 11.50946,1.2095 17.23988,0.52789 1.52034,-0.34216 2.47968,-0.36317 3.71998,-1.48184 1.15108,-1.03818 1.29874,-2.45693 1.52759,-3.85835 0.49506,-2.26906 0.78714,-4.59419 1.02616,-6.90172 0.23728,-2.48684 0.53399,-4.96822 0.80821,-7.45127 0.47674,-2.86975 1.03739,-5.73143 1.26809,-8.6354 0.36411,-3.25061 0.75834,-6.49636 0.97239,-9.76035 0.41811,-2.96053 0.72307,-5.93063 0.93343,-8.91269 0.35498,-2.84655 0.64957,-5.6988 0.86799,-8.55945 0.40511,-2.77997 0.94104,-5.54226 1.0163,-8.36056 0.30561,-3.59749 0.49616,-7.19938 0.7223,-10.80243 0.13799,-1.8942 0.28018,-3.7979 0.54851,-5.67958 0.38728,-2.715885 0.21852,-0.648098 0.5744,-3.624554 0.0765,-0.640082 0.11784,-1.283885 0.17676,-1.925828 0.25756,-3.783909 0.74303,-7.54887 1.1479,-11.319036 0.36198,-4.004294 1.00312,-7.969904 1.26832,-11.98431 0.27293,-2.542495 0.85149,-5.020067 1.58972,-7.467047 0.9193,-3.234515 -0.0186,0.132969 0.79675,-2.994932 0.50174,-1.924838 1.23159,-3.804782 1.27605,-5.821517 -0.0822,-0.680469 0.0113,-1.406295 -0.24646,-2.041405 -1.14772,-2.82836 -4.02295,-2.836269 -6.56878,-3.116356 -2.22339,-0.286512 -4.44912,-0.60614 -6.69572,-0.586392 -2.76721,-0.05786 -5.53776,-0.05136 -8.29964,-0.257818 -3.15107,-0.13878 -6.29468,-0.440744 -9.44727,-0.573664 -2.46809,-0.178464 -4.93284,-0.15282 -7.40126,-0.294283 -3.41329,-0.229274 -6.82224,-0.529316 -10.24528,-0.572706 -4.03312,-0.237327 -8.04637,-0.632145 -12.06509,-1.039596 -3.29867,-0.17215 -6.60585,-0.356922 -9.87831,-0.815452 -5.1127,-0.633679 -10.22181,-1.343064 -15.36406,-1.68464 -2.61423,-0.05133 -6.49648,-0.519014 -8.87441,0.875029 -1.0791,0.632618 -1.35037,1.88259 -1.46606,2.978045 -0.28084,1.993999 -0.57526,3.98555 -0.52227,6.007292 -0.12037,2.991615 -0.4532,5.955284 -0.77877,8.930415 -0.41172,2.871405 -0.82417,5.744829 -1.32803,8.601294 -0.61823,3.82085 -0.98839,7.679705 -1.23303,11.541802 -0.26683,4.578314 -0.34579,9.164692 -0.69205,13.738894 -0.33087,4.110055 -0.59728,8.226255 -1.03193,12.326465 -0.45378,3.84198 -1.26088,7.61845 -2.05248,11.40301 -0.92698,4.83254 -2.09937,9.61806 -2.78144,14.4955 -1.092,5.8854 -1.57158,11.85045 -1.89289,17.82399 -0.40344,6.31036 -0.74846,12.64372 -0.13769,18.9551 0,3.66402 5.1817,3.66402 5.1817,0 z" /><g
         id="g176"><g
           id="g173"
           style="display:inline"><path
             style="display:inline;fill:#62ce62;fill-opacity:1;stroke:none;stroke-width:1;stroke-linecap:round;stroke-linejoin:round;stroke-miterlimit:2;stroke-dasharray:none;stroke-opacity:1"
             d="m 286.47168,24.644531 c -1.80325,3.459785 -0.70759,7.816316 -1.50391,11.641602 -1.4596,11.365152 -2.8772,22.743829 -3.11733,34.215811 -0.65957,15.532086 -4.25555,30.465846 -6.6733,45.931786 -0.5655,9.66932 -1.61702,19.3756 -1.54823,29.04771 1.37591,3.28076 5.87774,2.248 8.70022,2.99031 14.02299,1.57769 28.13673,2.69457 42.21906,2.9572 11.19058,0.0917 22.33199,2.4119 33.59927,2.09546 3.57949,-0.83488 2.31105,-5.40703 3.10847,-8.0295 2.62434,-22.2585 5.45843,-44.47504 6.90766,-66.84901 1.85369,-15.255304 2.59768,-30.746371 6.812,-45.607814 -0.15311,-3.520016 -4.8133,-2.965447 -7.28223,-3.487305 -26.62758,-0.853725 -53.29882,-2.600875 -79.83496,-5.28125 -0.46224,0.125 -0.92448,0.25 -1.38672,0.375 z"
             id="path173" /></g><path
           id="path190"
           style="display:inline;fill:#000000;fill-opacity:1;stroke:none;stroke-width:2;stroke-linecap:round;stroke-linejoin:round;stroke-miterlimit:2;stroke-dasharray:none;stroke-opacity:1"
           d="m 289.125,101.2168 c -0.16932,0.005 -0.34455,0.0246 -0.50977,0.0137 -0.1784,0.0804 -0.36385,0.14566 -0.53515,0.24023 -1.2973,0.71627 -1.89627,2.17209 -2.52344,3.42578 -1.26665,2.85418 -2.38545,5.76934 -3.18359,8.79297 -0.39413,1.44514 1.64884,2.00374 2.04297,0.5586 0.73701,-1.77116 1.32236,-3.59986 2.02929,-5.38282 0.0303,-0.0765 1.1952,-2.88445 1.26172,-3.04492 0.38443,-0.71424 0.55886,-1.65248 1.12695,-2.26562 0.0326,0.24223 0.13532,0.47449 0.19532,0.71289 0.11813,0.46935 0.24992,0.93435 0.35742,1.40625 0.33284,1.46104 0.43041,2.14982 0.6914,3.65429 0.42897,2.14133 0.77017,4.34206 1.64454,6.35938 0.48298,1.40817 2.47516,0.72653 1.99218,-0.68164 -0.46972,-2.02832 -0.87693,-4.07006 -1.24609,-6.11914 -0.35379,-1.81675 -0.6765,-3.65829 -1.33203,-5.39844 -0.31976,-0.8488 -0.63209,-1.75304 -1.5293,-2.1914 -0.14876,-0.0727 -0.3131,-0.0846 -0.48242,-0.0801 z m 10.625,0.47851 c -0.51558,0 -1.03125,0.36462 -1.03125,1.09375 -0.0861,2.65797 -0.33791,5.30352 -0.73828,7.93164 -0.22768,1.30175 -0.48605,2.59737 -0.68359,3.9043 -0.0359,0.23751 -0.19424,1.10376 -0.043,1.35547 0.22706,0.37791 0.61302,0.6327 0.91992,0.94922 0.42408,-0.11138 0.88299,-0.13071 1.27148,-0.33399 0.28637,-0.14985 1.39431,-1.40051 1.57227,-1.61132 0.9507,-1.12629 1.84042,-2.31378 2.74023,-3.48047 0.65238,-0.89915 1.26528,-1.82365 1.86328,-2.75977 -0.0262,0.27037 -0.0514,0.5401 -0.0781,0.81055 -0.1437,1.57046 -0.35165,3.14321 -0.35742,4.72265 -0.11638,1.47367 1.9676,1.63774 2.08398,0.16407 0.2468,-1.55815 0.40344,-3.1311 0.57031,-4.69922 0.10052,-1.57996 0.33984,-3.197 0.23243,-4.78321 -0.0176,-0.26058 0.11755,-0.65699 -0.11524,-0.77539 -0.58879,-0.29948 -1.30902,-0.18735 -1.96289,-0.28125 -0.20311,0.41317 -0.32896,0.86699 -0.57422,1.25586 -1.28818,1.56384 -2.34577,3.29073 -3.52734,4.9336 -0.60702,0.81614 -1.22116,1.62533 -1.83789,2.43359 0.1021,-0.48303 0.19671,-0.96641 0.28125,-1.45312 0.4013,-2.74032 0.67465,-5.51232 0.44531,-8.28321 0,-0.72913 -0.51567,-1.09375 -1.03125,-1.09375 z m -10.36133,1.45899 0.002,0.002 -0.002,0.002 v 0.002 0.002 l -0.002,0.002 -0.002,0.002 -0.002,0.002 c -0.0213,0.0188 -0.0907,0.0326 -0.17383,0.0508 0.0621,-0.0571 0.0476,-0.0467 0.17969,-0.0644 z m 34.55078,0.30273 c -0.36081,0.0876 -0.75752,0.0832 -1.08203,0.26367 -1.27171,0.70711 -0.89786,3.08885 -1.03906,4.25586 -0.1563,2.37505 -0.44187,4.75557 -0.35938,7.13672 0,0.17112 0.0284,0.32372 0.0781,0.45508 -0.2699,0.60894 0.0632,1.46289 1.00195,1.46289 1.24035,0.0654 2.48349,0.0555 3.72461,0.0234 0.13116,-0.004 0.26142,-0.008 0.39258,-0.0117 1.47407,0 1.47407,-2.08594 0,-2.08594 -0.13116,-0.004 -0.26142,-0.008 -0.39258,-0.0117 -0.90272,-0.0234 -1.80617,-0.0341 -2.70898,-0.0137 0.0803,-1.1076 0.18422,-2.2131 0.2832,-3.31836 0.4796,0.12371 0.96587,0.21748 1.44531,0.34375 1.44902,0.39455 2.00763,-1.65429 0.5586,-2.04883 -0.60352,-0.1684 -1.20771,-0.30274 -1.83008,-0.38281 0.034,-0.47255 0.0634,-0.9461 0.0859,-1.41992 0.015,-0.61632 0.0232,-1.01167 0.0293,-1.25195 -0.0115,0.41116 -0.0266,0.87427 0.004,-0.91797 0.002,-0.11042 0.002,-0.22151 0.004,-0.33203 1.14517,0.48429 2.36592,0.80804 3.57812,1.08203 1.48193,0.36667 1.99952,-1.72905 0.51758,-2.09571 -1.428,-0.38746 -2.82801,-0.88981 -4.29102,-1.13281 z m 10.10157,0.82813 c -0.59068,-0.002 -1.16747,0.0642 -1.57813,0.31445 -0.185,0.11274 -0.29948,0.31413 -0.44922,0.4707 -0.0807,0.16548 -0.17663,0.32408 -0.24219,0.4961 -0.47578,1.24842 -0.29839,2.62509 -0.36718,3.92578 -0.0688,2.32219 -0.20401,4.64182 -0.39649,6.95703 -0.16352,1.47164 1.91851,1.70406 2.08203,0.23242 0.24873,-1.22033 0.38228,-2.45673 0.45704,-3.69726 0.20169,0.34088 0.59383,0.57629 1.14648,0.49414 1.20157,-0.16457 0.57598,-0.0417 1.87305,-0.39844 0.37816,-0.1813 0.77924,-0.32051 1.13476,-0.54297 1.31431,-0.82243 2.29657,-2.27201 2.23828,-3.85938 -0.0118,-0.32153 -0.12021,-0.63106 -0.17968,-0.94726 -0.11144,-0.29214 -0.19122,-0.59877 -0.33399,-0.87695 -0.74878,-1.45902 -2.12796,-2.26806 -3.7207,-2.47071 -0.46854,-0.0246 -1.07338,-0.0955 -1.66406,-0.0977 z m -23.10743,0.41796 c -1.48028,0 -1.48028,2.09375 0,2.09376 1.03168,0.10541 2.06308,0.21647 3.09571,0.3125 -0.0544,0.11474 -0.0925,0.24767 -0.11133,0.39843 -0.2273,1.78386 -0.38527,3.57698 -0.48047,5.37305 -0.0452,0.55353 -0.0994,1.10216 -0.20898,1.64648 -0.31908,1.45702 1.74146,1.90821 2.06054,0.45118 0.14954,-0.64731 0.25533,-1.29607 0.31446,-1.95899 0.13187,-1.75105 0.36763,-3.49522 0.38281,-5.25391 0.0233,-0.18639 0.01,-0.3538 -0.0312,-0.5 0.29487,0.02 0.58951,0.0376 0.88476,0.0527 0.66054,0.0288 1.32044,0.0177 1.98047,-0.0137 1.45679,-0.02 1.42946,-2.08056 -0.0273,-2.06055 -0.60347,-0.0157 -1.20526,-0.064 -1.80664,-0.11523 -2.01517,-0.16817 -4.02743,-0.43944 -6.05274,-0.42579 z m 13.28125,0.38282 h 0.002 0.002 0.002 0.002 l 0.002,0.002 v 0.002 0.002 l 0.002,0.002 c 4.1e-4,0.002 -3.2e-4,0.002 0,0.004 0.0125,0.0772 -0.0305,0.17802 -0.082,0.26953 0.002,-0.031 0.006,-0.0609 0.01,-0.0918 0.005,-0.0474 0.0402,-0.16157 0.0605,-0.1875 z m 21.97852,0.47851 c -0.23968,-0.005 -0.48752,0.0704 -0.7168,0.14063 -0.22039,0.0675 -0.39229,0.24331 -0.58789,0.36523 -0.31103,0.30149 -0.65366,0.62183 -0.92969,0.95117 -0.94736,1.1303 -1.52882,2.5074 -2.11718,3.84375 -0.19117,0.48487 -0.8178,2.05326 -0.97461,2.53516 -0.44277,1.36075 -0.66991,2.78221 -0.65821,4.21289 0,1.47295 2.08204,1.47295 2.08204,0 0.0809,-0.71945 0.18641,-1.43755 0.34179,-2.14453 0.11998,0.0399 0.25483,0.0625 0.40625,0.0625 1.23331,0.0283 2.46205,0.10318 3.67578,0.33008 l 0.41993,0.0762 c 0.0329,0.007 0.0638,0.0111 0.0957,0.0156 0.002,0.25337 0.003,0.50835 0.002,0.76172 0.12301,0.36293 -0.0409,0.7249 -0.0742,1.08008 -0.73412,1.17044 0.90847,2.27926 1.7168,1.10742 0.0918,-0.16257 0.20037,-0.31734 0.27539,-0.48828 0.22422,-0.51091 0.22069,-1.11262 0.26172,-1.65429 0.0836,-2.32487 0.0364,-4.66521 -0.51367,-6.93946 -0.38721,-1.37916 -0.83046,-3.75272 -2.46875,-4.22265 -0.0768,-0.022 -0.15644,-0.0317 -0.23633,-0.0332 z m -12.33789,0.44727 c 0.0313,0.0781 -0.0218,0.12705 -0.0879,0.16992 0.0108,-0.0592 0.0221,-0.071 0.0879,-0.16992 z m -0.0508,0.37109 c 0.007,-6e-5 0.015,10e-4 0.0215,0.002 0.58454,0.0628 1.17117,0.0989 1.75781,0.13476 1.2707,0.23543 1.75849,0.74529 2.14844,1.94336 0.0232,0.18859 0.0777,0.37654 0.0703,0.56641 -0.0265,0.68212 -0.91118,1.47497 -1.45507,1.76953 -0.21228,0.11496 -0.45012,0.17204 -0.67578,0.25781 -0.89599,0.24207 -0.46382,0.14956 -1.29493,0.28711 -0.35781,0.0532 -0.61257,0.21472 -0.77343,0.42578 0.0251,-0.74437 0.0337,-1.48909 0.041,-2.23242 0.0292,-1.02635 -0.10983,-2.06308 0.0781,-3.08008 0.005,-0.0249 0.008,-0.0475 0.0117,-0.0684 0.0241,-0.003 0.0487,-0.006 0.0703,-0.006 z M 346.5,107.50977 c 0.002,-4.9e-4 0.006,1.4e-4 0.008,0 h 0.002 v 0.002 0.002 l -0.002,0.002 -0.002,0.002 c -0.0581,0.0673 -0.13417,0.12346 -0.2168,0.15625 -0.005,0.002 -0.009,0.003 -0.0137,0.004 0.0416,-0.0435 0.0823,-0.0866 0.12305,-0.13085 0.0246,-0.007 0.0788,-0.0318 0.10156,-0.0371 z m -0.51367,0.46875 c 0.041,0.0922 0.10054,0.18487 0.1289,0.27734 0.38951,1.26959 0.22563,0.69643 0.57032,2.14258 0.26116,1.12117 0.40372,2.25588 0.47656,3.39648 -0.005,-0.001 -0.0123,-0.003 -0.0176,-0.004 -1.28219,-0.28939 -2.5825,-0.43334 -3.89648,-0.33985 0.22802,-0.58499 0.48254,-1.15954 0.71679,-1.74219 0.54297,-1.13908 0.9399,-2.40817 1.73828,-3.4082 0.0892,-0.11178 0.18506,-0.21814 0.28321,-0.32226 z m 6.94726,5.7246 c -1.48028,0 -1.48028,2.09375 0,2.09376 1.07191,0.14458 2.15259,0.20875 3.23243,0.2539 1.53519,0.0847 1.65433,-2.08716 0.11914,-2.17187 -1.11594,-0.0769 -2.23293,-0.15489 -3.35157,-0.17579 z m -54.5332,9.95704 c -1.90459,-0.0444 -3.8135,-0.0477 -5.7168,0.043 -1.48028,0 -1.48028,2.09375 0,2.09376 1.04153,0.0496 2.08603,0.0705 3.12891,0.0723 -0.58563,1.76498 -0.89127,3.60704 -1.27148,5.42383 -0.1667,0.77056 -0.24509,1.55414 -0.39063,2.32812 -0.0372,0.19769 -0.14106,0.61448 -0.10547,0.81836 0.0433,0.24796 0.15121,0.48054 0.22656,0.72071 0.68197,1.14232 2.22863,0.33229 1.86719,-0.77344 0.0295,-0.10302 0.0624,-0.20501 0.0899,-0.3086 0.20409,-0.76865 0.33735,-1.55081 0.5039,-2.32812 0.3906,-1.87187 0.70838,-3.75872 1.1836,-5.61133 0.0254,-0.10164 0.0382,-0.19907 0.041,-0.29101 0.14768,-0.003 0.29571,-0.004 0.44336,-0.008 0.73144,-0.035 1.46119,-0.0528 2.19336,-0.0488 1.47207,0 1.47207,-2.08204 0,-2.08204 -0.73217,0.004 -1.46192,-0.0138 -2.19336,-0.0488 z m 7.50977,0.32617 c -0.39021,-0.0173 -0.79456,0.18469 -1.01172,0.6914 h 0.002 c -0.44742,1.11893 -0.62655,2.32411 -0.7168,3.51954 -0.0185,0.24551 -0.0461,0.49036 -0.0351,0.73632 0.0116,0.2571 0.0691,0.51057 0.10351,0.76563 0.0865,0.22249 0.14154,0.46059 0.25977,0.66797 0.69433,1.2179 2.14119,1.11677 3.3418,1.05859 0.5798,0.009 1.11762,-0.10138 1.63671,-0.29687 -0.0402,0.13682 -0.0831,0.27228 -0.12695,0.4082 -0.42356,1.00943 -0.95445,2.03764 -1.74023,2.82031 -0.31768,0.31642 -0.59264,0.45883 -0.9668,0.69141 -0.72958,0.38097 -1.51201,0.29218 -2.30078,0.23437 -0.37147,-0.0273 -0.23759,0.0196 -0.41406,-0.0527 -1.39973,-0.39579 -1.96029,1.58272 -0.56055,1.97851 0.55677,0.14633 0.29106,0.10011 0.79687,0.1543 1.25111,0.12215 2.48112,0.131 3.62305,-0.48828 0.66568,-0.41936 0.90327,-0.52006 1.48242,-1.09375 1.00261,-0.99317 1.66662,-2.27694 2.1836,-3.57227 0.59346,-1.88128 0.978,-3.83906 0.82422,-5.82226 0,-1.47295 -2.08204,-1.47295 -2.08204,0 -0.0233,0.83842 -0.0953,1.67224 -0.22265,2.49805 -0.24495,-0.0684 -0.53274,-0.0444 -0.83789,0.11914 -0.42732,0.25982 -0.91315,0.28874 -1.40625,0.30078 -0.66458,0.0375 -0.37535,0.0247 -0.9961,0.043 -0.0974,0.003 -0.20824,-0.0434 -0.29101,0.008 v 0.002 h -0.002 v 0.002 0.002 c -0.002,0.0254 0.0317,0.14311 0.0234,0.18359 -2.4e-4,8.8e-4 -0.002,0.005 -0.002,0.006 v 0.002 h -0.002 v 0.002 h -0.002 l -0.002,0.002 h -0.002 -0.002 -0.002 -0.002 l -0.002,-0.002 c -0.006,-0.002 -0.0128,-0.006 -0.0215,-0.0137 -0.0418,-0.0379 -0.0602,-0.0965 -0.0898,-0.14454 -0.0873,-0.51727 -0.0684,-0.24069 0.006,-0.97265 0.10021,-0.98175 0.2315,-1.96421 0.45703,-2.92578 0.36194,-0.84454 -0.25005,-1.48292 -0.90039,-1.51172 z m 13.41211,1.14062 c -0.21664,-0.004 -0.4331,-7e-5 -0.64844,0.0137 -0.23917,0.0432 -0.48536,0.0631 -0.71875,0.13086 -0.81022,0.23524 -1.30986,0.98485 -1.62305,1.71485 -0.48968,1.29844 -0.67378,2.67102 -0.90234,4.03515 -0.24071,1.87314 -0.3754,3.75277 -0.2168,5.64063 0,1.46561 2.07422,1.46561 2.07422,0 0.0849,-1.12415 0.0205,-2.25346 0.11719,-3.37695 8.1e-4,-0.009 0.001,-0.0179 0.002,-0.0273 0.13164,0.12514 0.30668,0.22617 0.5293,0.28907 0.26057,0.0702 0.51811,0.16043 0.7832,0.21093 1.44586,0.27544 2.78564,-0.14671 4.06055,-0.8164 0.69768,-0.48165 1.25696,-0.78196 1.76172,-1.50586 0.67875,-0.97341 0.85832,-2.10526 0.38086,-3.20313 -0.14225,-0.32708 -0.37354,-0.60839 -0.56055,-0.91211 -0.26391,-0.25665 -0.50272,-0.54309 -0.79297,-0.76953 -1.20618,-0.94101 -2.72965,-1.39771 -4.24609,-1.42383 z m 11.20898,0.95508 c -0.8885,0.0235 -1.57156,0.25133 -2.10352,1.3125 -0.27681,0.75497 -0.32831,1.20087 -0.46875,1.97852 -0.14893,0.82461 -0.34514,1.64193 -0.49414,2.46679 -0.32626,1.85505 -0.64766,3.7135 -1.09765,5.54297 -0.12699,0.38098 -0.0717,0.70808 0.0859,0.95117 0.064,0.52815 0.51372,1.00846 1.25586,0.88477 1.43633,-0.0865 2.87717,-0.13285 4.31641,-0.1582 1.0969,-0.0736 2.18174,0.0328 3.26953,0.15234 1.47554,0.18627 1.73921,-1.90162 0.26367,-2.08789 -1.1803,-0.16792 -2.35763,-0.24583 -3.55078,-0.2168 -1.11162,-2.3e-4 -2.22994,-0.008 -3.33789,0.0957 0.3622,-1.21397 0.6036,-2.46405 0.81641,-3.71485 0.93299,0.0353 1.87491,0.0577 2.79101,0.24805 0.36373,0.0966 0.73383,0.16086 1.10547,0.2168 1.44759,0.22376 1.764,-1.82312 0.31641,-2.04688 -0.33162,-0.0531 -0.66224,-0.11356 -0.98242,-0.21875 -0.94546,-0.20661 -1.91309,-0.31989 -2.88086,-0.29687 0.0785,-0.46572 0.15693,-0.93088 0.23633,-1.39649 0.098,-0.57455 0.15921,-1.14815 0.33984,-1.70312 0.0309,-0.0456 0.0506,-0.10008 0.0918,-0.13672 h 0.002 0.002 0.002 l 0.002,0.002 0.002,0.002 v 0.002 c 0.003,0.009 0.002,0.0271 0,0.0371 -3.1e-4,0.001 3.9e-4,0.003 0,0.004 -0.0185,0.0432 -0.0913,0.0716 -0.0801,0.11719 l 0.002,0.002 c 7.8e-4,0.002 0.003,0.008 0.004,0.01 6.9e-4,8.3e-4 0.005,0.003 0.006,0.004 l 0.002,0.002 c 0.0235,0.0149 0.0709,0.008 0.10156,0.0117 0.27035,0.0328 0.54301,0.0404 0.81445,0.0625 1.04273,0.11813 2.10354,-0.001 3.12891,0.24023 0.55733,0.12112 1.11176,0.22236 1.65625,0.39258 1.38317,0.4788 2.0609,-1.47628 0.67773,-1.95508 -0.61248,-0.22839 -1.23443,-0.39698 -1.88086,-0.50195 -1.1406,-0.2385 -2.29473,-0.2216 -3.45508,-0.2832 -0.34412,-0.0139 -0.66281,-0.0293 -0.95898,-0.0215 z m -11.86719,1.07617 c 0.009,-9.2e-4 0.0181,2.2e-4 0.0274,0.002 0.0641,0.012 0.12055,0.0497 0.18359,0.0664 1.23029,0.0245 2.5182,0.40062 3.48633,1.18555 0.17015,0.13796 0.30688,0.31109 0.46094,0.4668 0.3626,0.62888 0.38196,0.94514 -0.16602,1.44726 -0.4133,0.37873 -0.61897,0.48132 -1.10156,0.79297 -1.28289,0.62363 -1.68607,0.77431 -3.03516,0.36524 -0.36992,-0.10452 -0.68365,-0.0509 -0.92187,0.0957 0.0117,-0.0976 0.0221,-0.1934 0.0332,-0.29102 0.30687,-1.12018 0.15306,-2.45216 0.64453,-3.51758 0.038,-0.0516 0.20206,-0.59454 0.38867,-0.61328 z" /><path
           id="path175"
           style="fill:#000000;fill-opacity:1;stroke:none;stroke-width:2;stroke-linecap:round;stroke-linejoin:round;stroke-miterlimit:2;stroke-dasharray:none;stroke-opacity:1"
           d="m 316.48828,76.337891 c -0.5702,0.0011 -1.13329,0.06436 -1.54883,0.291015 -0.89354,0.487383 -0.99706,1.413935 -1.03125,2.314453 -0.0222,2.155887 -0.0181,4.314113 0.0645,6.46875 0,1.099204 1.55468,1.099204 1.55468,0 0.0826,-2.154637 0.0868,-4.310909 0.0645,-6.466797 0.003,-0.111795 -0.0756,-0.889278 0.1582,-1.107421 10e-4,-9.34e-4 0.003,-0.0032 0.004,-0.0039 h 0.002 l 0.002,-0.002 h 0.002 0.002 0.002 0.002 0.002 c 10e-4,2.73e-4 0.005,0.0015 0.006,0.002 0.0249,0.01385 0.0529,0.06957 0.084,0.08008 0.0865,0.02924 0.17861,0.04206 0.26953,0.05078 0.61767,0.0593 1.23671,0.08437 1.85547,0.130859 0.65329,0.07314 1.31244,0.07696 1.9668,0.134766 0.27463,0.02426 0.73495,0.051 0.74414,0.175781 1.2e-4,0.0016 1.1e-4,0.0045 0,0.0059 l -0.002,0.002 v 0.002 0.002 l -0.002,0.002 -0.002,0.002 h -0.002 v 0.002 h -0.002 c -0.0275,0.01 -0.10931,-0.02803 -0.14257,-0.0059 l -0.002,0.002 c -0.0621,0.05762 -0.0712,0.151882 -0.10742,0.228516 -0.44173,2.061295 -0.81021,4.13685 -0.98828,6.238281 -0.0102,0.218141 -0.0211,0.436155 -0.0312,0.654297 -0.0847,1.129346 1.513,1.250439 1.59766,0.121093 0.0212,-0.200562 0.0433,-0.402952 0.0645,-0.603515 0.27446,-2.144195 0.67234,-4.267101 0.95312,-6.410156 -0.0363,-0.32198 0.007,-0.662401 -0.10937,-0.964844 -0.52982,-1.378226 -2.69211,-1.119453 -3.83399,-1.263672 -0.44855,-0.02128 -1.0255,-0.08312 -1.5957,-0.08203 z m 11.87695,0.720703 c -0.29215,0.0061 -0.58094,0.06879 -0.87109,0.103515 -0.29384,0.120078 -0.60862,0.19613 -0.88086,0.359375 -0.78972,0.473555 -1.39031,1.23136 -1.77539,2.076172 -0.10329,0.09756 -0.18763,0.232851 -0.24023,0.408203 -0.47512,1.641029 -0.81585,3.447059 -0.17578,5.097657 0.11462,0.295625 0.293,0.560571 0.43945,0.841796 0.19867,0.215677 0.36524,0.467124 0.5957,0.648438 0.87342,0.68717 2.27324,0.881876 3.31055,0.490234 0.36761,-0.138791 0.68875,-0.379276 1.0332,-0.568359 0.29286,-0.287152 0.63842,-0.529081 0.87891,-0.861328 1.04079,-1.437838 1.45295,-3.75721 1.26367,-5.5 -0.0382,-0.352031 -0.14313,-0.694251 -0.21484,-1.041016 -0.13733,-0.271302 -0.23529,-0.567062 -0.41211,-0.814453 -0.65566,-0.917387 -1.87166,-1.262769 -2.95118,-1.240234 z m 0.28125,1.603515 c 0.44611,0.01275 1.00197,0.09577 1.24414,0.386719 0.0951,0.114204 0.14738,0.257487 0.22071,0.386719 0.0485,0.254829 0.12161,0.507415 0.14648,0.765625 0.11414,1.185141 -0.15792,3.26796 -0.77734,4.298828 -0.13959,0.232309 -0.35753,0.406388 -0.53711,0.609375 -0.18136,0.131648 -0.34622,0.290893 -0.54492,0.394531 -0.43316,0.225924 -1.35427,0.248015 -1.78711,-0.02734 -0.12306,-0.07829 -0.21388,-0.199099 -0.32031,-0.298828 -0.0973,-0.172446 -0.21615,-0.33428 -0.29102,-0.517578 -0.337,-0.825063 -0.31505,-1.715368 -0.1875,-2.59375 0.0774,-0.112906 0.12984,-0.255781 0.14844,-0.429687 0.10533,-0.957894 0.52273,-2.035224 1.3164,-2.640625 0.13259,-0.101142 0.29432,-0.157748 0.44141,-0.236328 0.1781,-0.03088 0.35469,-0.08172 0.53516,-0.0918 0.10844,-0.0061 0.24387,-0.01011 0.39257,-0.0059 z" /><path
           id="path176"
           style="fill:#000000;fill-opacity:1;stroke:none;stroke-width:2;stroke-linecap:round;stroke-linejoin:round;stroke-miterlimit:2;stroke-dasharray:none;stroke-opacity:1"
           d="m 292.78906,55.96875 c -1.45827,0 -1.45827,2.0625 0,2.0625 1.22851,0.101658 2.44996,0.258165 3.67578,0.382812 -0.0291,0.06715 -0.0526,0.140051 -0.0723,0.21875 -0.44043,1.786294 -0.65049,3.616365 -1.06446,5.408204 -0.18196,0.92584 -0.43606,1.832032 -0.70117,2.736328 -0.44503,1.406105 1.54326,2.035012 1.98828,0.628906 0.32064,-0.940407 0.62635,-1.885687 0.84766,-2.855469 0.43914,-1.781945 0.7077,-3.594715 0.95313,-5.412109 0.0509,-0.203592 0.0534,-0.387561 0.0195,-0.550781 1.084,0.106489 2.16717,0.202954 3.24804,0.339843 1.48836,0.217296 1.795,-1.886219 0.30664,-2.103515 -1.23669,-0.203344 -2.48401,-0.315913 -3.72851,-0.460938 -1.81788,-0.179175 -3.6432,-0.457 -5.47266,-0.394531 z m 13.42188,0.609375 c -0.96675,-0.01982 -1.76956,0.228027 -1.98242,1.519531 -0.10305,1.330348 -0.38612,2.636149 -0.48829,3.966797 -0.23856,1.983773 -0.52304,3.962394 -0.71875,5.951172 -0.0542,0.379706 0.0469,0.679955 0.22852,0.890625 0.0665,0.461128 0.42904,0.880859 1.08789,0.880859 1.39669,0.05748 2.79591,0.06081 4.19336,0.0332 1.51241,0 1.51241,-2.140624 0,-2.140624 -1.11032,-0.02194 -2.22175,-0.02289 -3.33203,0.0059 0.21513,-1.127707 0.38148,-2.266435 0.52734,-3.40625 0.0209,8.91e-4 0.0409,0.002 0.0625,0.002 0.68448,0.03418 1.36969,0.03181 2.05469,0.02344 1.49122,0 1.49122,-2.109376 0,-2.109376 -0.62488,-0.0077 -1.24856,-0.0099 -1.87305,0.01563 0.086,-1.175991 0.25328,-2.344746 0.32032,-3.521485 0.0458,0.0013 0.0916,0.0042 0.13671,0.0098 0.17525,0.02163 0.34879,0.0521 0.52344,0.07813 0.91941,0.157771 1.84531,0.255013 2.77735,0.283203 1.47735,0.07117 1.57891,-2.016722 0.10156,-2.087891 -0.87662,-0.06047 -1.74694,-0.166209 -2.61328,-0.314453 -0.34317,-0.03703 -0.68361,-0.07347 -1.00586,-0.08008 z m 9.64258,0.330078 c -0.73912,0.0052 -1.47901,0.03076 -2.2168,0.05078 -1.47295,0 -1.47295,2.082033 0,2.082032 0.75578,0.04769 1.51262,0.04214 2.26953,0.03906 -0.005,0.01719 -0.009,0.03495 -0.0137,0.05273 -0.47459,1.649718 -0.87222,3.328591 -1.24219,5.00586 -0.14287,1.062505 -0.38975,2.101392 -0.61719,3.146484 l -0.0547,0.384766 c -0.21352,1.446642 1.8314,1.747423 2.04492,0.300781 0.0122,-0.0806 0.0249,-0.161587 0.0371,-0.242187 0.22855,-1.03315 0.59099,-2.039949 0.71875,-3.097657 0.40443,-1.658731 0.80123,-3.317819 1.13672,-4.992187 0.0477,-0.190657 0.0527,-0.364117 0.0254,-0.519531 0.38244,0.03128 0.76322,0.07681 1.14453,0.11914 1.44811,0.20538 1.73912,-1.843448 0.29101,-2.048828 -0.43561,-0.07553 -0.87118,-0.157082 -1.31054,-0.208984 -0.73614,-0.06276 -1.47378,-0.07748 -2.21289,-0.07227 z m 8.22851,0.541016 c -1.00732,-0.0127 -1.73121,0.489032 -1.93164,1.474609 -0.0891,0.218768 -0.22807,0.545803 -0.28711,0.753906 -0.25257,0.890241 -0.25335,1.830294 -0.42773,2.734375 -0.30472,1.832532 -0.58729,3.684821 -0.4668,5.548829 0,1.458263 2.0625,1.458262 2.0625,0 0.0434,-0.945919 0.13423,-1.887868 0.25,-2.826172 0.1521,0.04419 0.32637,0.05854 0.52148,0.0332 1.37624,-0.155609 2.77835,-0.203545 3.99219,-0.966797 0.17762,-0.18415 0.39477,-0.337574 0.5332,-0.552734 0.58916,-0.915676 0.35112,-2.11392 0.0586,-3.076172 -0.1105,-0.204194 -0.20315,-0.418871 -0.33008,-0.613282 -0.75867,-1.162046 -1.98354,-1.92935 -3.25586,-2.410156 -0.23971,-0.03337 -0.47675,-0.09656 -0.71875,-0.09961 z m 10.26367,0.841797 c -0.18083,-0.0081 -0.37196,0.02751 -0.60937,0.07227 -0.16793,0.03166 -0.34342,0.03894 -0.50391,0.09766 -0.1804,0.066 -0.33849,0.180754 -0.50781,0.271484 -0.12494,0.125277 -0.26265,0.240269 -0.375,0.376953 -0.67729,0.824038 -1.00564,2.174984 -1.43555,3.125 -0.16998,0.379134 -0.89575,1.999771 -1.05078,2.330078 -0.65281,1.390861 -1.40326,2.737782 -1.96484,4.169922 -0.46924,1.407714 1.52294,2.069823 1.99218,0.662109 0.33978,-0.590201 0.66831,-1.184888 0.98633,-1.785156 1.05143,0.175855 2.1216,0.201476 3.18555,0.21875 0.25786,0.0062 0.47399,-0.05142 0.64648,-0.15039 0.13865,0.744153 0.29591,1.483963 0.29688,2.24414 -0.0226,1.454084 2.03405,1.487286 2.05664,0.0332 0.0284,-1.015152 -0.0896,-2.024764 -0.22852,-3.029297 -0.1462,-1.157748 -0.28399,-2.317051 -0.43164,-3.474609 -0.0811,-0.635789 -0.21585,-1.864826 -0.33398,-2.496094 -0.0672,-0.359019 -0.16808,-0.710912 -0.25195,-1.066406 -0.16021,-0.348612 -0.20656,-0.778224 -0.48047,-1.046875 -0.41484,-0.406868 -0.68884,-0.539224 -0.99024,-0.552734 z m -10.10547,0.871093 h 0.002 v 0.002 h 0.002 v 0.002 c 0.002,0.01346 -0.012,0.05939 -0.0215,0.07617 -0.0142,0.02512 -0.0304,0.04769 -0.0488,0.07031 0.003,-0.0082 0.005,-0.01722 0.008,-0.02539 0.0141,-0.04245 0.0247,-0.08799 0.0547,-0.121093 l 0.002,-0.002 z m 20.91602,0.302735 c -0.61131,0.04238 -1.10278,0.669764 -1.40625,1.101562 -0.66926,1.197594 -0.99828,2.543627 -1.55273,3.794922 -0.64961,1.7093 -1.25248,3.522934 -1.24805,5.369141 -0.511,0.03452 -1.0213,0.08677 -1.52734,0.169922 -0.26845,0.140758 -0.57073,0.229151 -0.80469,0.421875 -0.84439,0.695568 -0.74467,1.977606 -0.84571,2.943359 -0.20734,1.45139 1.8454,1.74436 2.05274,0.292969 0.19719,-0.515728 0.0188,-1.487411 0.31836,-1.941406 0.0111,-0.01683 0.0214,-0.0284 0.0273,-0.0332 l 0.002,-0.002 h 0.002 0.002 0.002 0.002 v 0.002 0.002 0.002 l 0.002,0.002 c 0.005,0.03951 -0.0495,0.209252 -0.0703,0.28125 0.0897,0.0079 0.17948,0.02425 0.26953,0.02344 0.40302,-0.0036 0.80419,-0.04011 1.20703,-0.05273 0.70141,-0.02198 1.40183,-0.02208 2.10352,-0.02148 1.01601,0.0057 2.03293,-0.03149 3.04882,-0.0332 0.30299,0.0038 0.53816,0.130647 0.78321,0.267579 -0.006,0.02407 -0.0136,0.04805 -0.0234,0.06836 -0.20882,0.429408 -0.44265,0.843297 -0.6543,1.271484 -0.22087,0.533726 -0.11782,0.312005 -0.29882,0.675781 -0.69,1.291712 1.13812,2.268275 1.82812,0.976563 0.26305,-0.473421 0.14525,-0.240915 0.35156,-0.701172 0.40488,-0.782882 1.19743,-2.00899 0.94532,-2.927734 -0.0738,-0.268894 -0.28407,-0.48057 -0.42579,-0.720703 -0.45364,-0.329923 -0.93553,-0.621682 -1.45703,-0.800782 0.0444,-0.128038 0.0689,-0.274033 0.0684,-0.4375 0.004,-0.200922 0.009,-0.402593 0.0137,-0.603515 -0.0295,-2.049799 -0.27864,-4.08108 -0.63281,-6.09961 -0.0737,-0.325875 -0.39302,-1.918489 -0.61328,-2.24414 -0.26402,-0.39036 -0.59079,-0.795155 -1.02734,-0.972657 -0.15285,-0.06215 -0.30034,-0.084 -0.44141,-0.07422 z m -21.04883,0.07031 c 0.0954,0.04525 0.20349,0.05952 0.30469,0.08984 0.79849,0.517774 1.68598,1.024886 2.10547,1.917969 0.0117,0.322275 0.15023,0.915009 0.0449,1.216797 -4.7e-4,0.0013 -0.003,0.0049 -0.004,0.0059 v 0.002 h -0.002 l -0.002,-0.002 v -0.002 l -0.002,-0.002 c -0.007,-0.02292 -0.0105,-0.107346 -0.0351,-0.13086 l -0.002,-0.002 -0.002,-0.002 -0.002,-0.002 c -0.0238,-0.01348 -0.0608,0.0032 -0.0898,0.002 -0.11841,0.01052 -0.23816,0.01204 -0.35547,0.03125 -0.22579,0.03698 -0.44684,0.09544 -0.67188,0.136719 -0.60518,0.111007 -1.21746,0.176394 -1.82617,0.263672 0.0149,-0.09982 0.0318,-0.199032 0.0469,-0.298828 0.20614,-1.017947 0.0887,-2.104138 0.45313,-3.085938 0.0135,-0.0458 0.0261,-0.09271 0.0391,-0.138672 z m 9.96289,0.681641 h 0.002 0.002 l 0.002,0.002 c 0.006,0.0035 0.0137,0.01402 0.0254,0.0293 -0.0164,-0.0033 -0.0306,-0.007 -0.0449,-0.0098 0.004,-0.0081 0.007,-0.0142 0.01,-0.01758 l 0.002,-0.002 z m 0.0586,0.03516 c 0.006,-3.58e-4 0.0116,0.0015 0.0156,0.002 -0.005,-10e-4 -0.0108,-9.51e-4 -0.0156,-0.002 z m 0.0195,0.002 c 10e-4,2.39e-4 0.003,0.0016 0.004,0.002 -10e-4,-2.85e-4 -0.003,-0.0017 -0.004,-0.002 z m -0.3418,0.560547 c 0.22038,1.634333 0.38064,3.275559 0.59961,4.910156 -0.0899,-0.0213 -0.18813,-0.03262 -0.29297,-0.03516 -0.73989,-0.0241 -1.47776,-0.05714 -2.2168,-0.09961 0.38662,-0.809309 0.75303,-1.628172 1.09766,-2.458985 0.262,-0.774428 0.51776,-1.553316 0.8125,-2.316406 z m 19.57813,0.09766 c -0.43874,-0.0092 -0.88562,0.241478 -1.0625,0.835938 -0.37038,1.236762 -0.64808,2.494035 -0.93555,3.751953 -0.2862,1.68565 -0.51048,3.400459 -0.42774,5.113281 0,0.677973 0.4416,1.043803 0.91797,1.097657 0.001,0.574055 0.44694,1.147793 1.25196,1.042968 0.71554,-0.07582 0.34279,-0.03231 1.12304,-0.132812 0.81426,-0.118178 2.44349,-0.224936 3.10938,-0.632813 0.31562,-0.193333 0.59638,-0.454316 0.8164,-0.751953 0.13028,-0.176226 0.13555,-0.416529 0.20313,-0.625 0.118,-1.319926 5.9e-4,-2.379743 -0.97656,-3.376953 -0.23361,-0.172719 -0.45018,-0.371277 -0.70118,-0.517578 -0.97768,-0.569865 -2.12822,-0.564672 -3.2207,-0.509766 0.0178,-0.116906 0.036,-0.234815 0.0547,-0.351562 0.24074,-1.175636 0.51355,-2.341282 0.85351,-3.492188 0.25852,-0.868826 -0.36463,-1.437703 -1.00585,-1.451172 z m -7.55274,0.441407 h 0.002 0.002 v 0.002 h -0.002 c -10e-4,7.3e-4 -0.003,0.0027 -0.006,0.0039 -0.15836,0.07359 -0.30905,0.182892 -0.48046,0.210937 h -0.002 l -0.002,-0.002 -0.002,-0.002 v -0.002 h -0.002 v -0.002 -0.002 -0.002 -0.002 -0.002 -0.002 l 0.002,-0.002 v -0.002 c 0.0423,-0.06349 0.45541,-0.192944 0.49023,-0.195312 z m -0.82812,1.664062 c 0.0101,0.05906 0.0213,0.116704 0.0312,0.175781 0.28305,1.905042 0.59324,3.800659 0.68164,5.726563 0.006,0.182368 0.0118,0.364507 0.0176,0.546875 2.6e-4,0.07977 0.006,0.155304 0.0176,0.226562 -0.69008,-0.01882 -1.37985,-0.04364 -2.07031,-0.03711 -0.21088,0.0021 -0.42159,0.0036 -0.63281,0.0059 0.0426,-0.582458 0.20295,-1.141745 0.34765,-1.710937 0.24488,-0.963278 0.51484,-1.866131 0.875,-2.792969 0.10774,-0.291842 0.2174,-0.58282 0.32422,-0.875 0.14764,-0.403822 0.27251,-0.836591 0.40821,-1.265625 z m 8.21093,5.263672 c 0.0396,0.0033 0.081,0.0059 0.12305,0.0059 0.82987,0.07185 1.77776,-0.113403 2.51758,0.378907 0.0843,0.05608 0.13924,0.145373 0.20898,0.21875 0.3363,0.401002 0.29803,0.879616 0.25782,1.365234 -0.0107,-0.01814 -0.0253,-0.03736 -0.0469,-0.05664 -0.0782,-0.06992 -0.21025,0.0018 -0.31445,0.01367 -0.67334,0.07679 -1.34688,0.187722 -2.01758,0.285157 -0.68464,0.109995 -0.4693,0.07504 -0.90234,0.142578 9e-5,-0.007 0,-0.01443 0,-0.02148 0.0343,-0.778894 0.0932,-1.556291 0.17382,-2.332031 z m 3.09571,2.125 c -9.2e-4,0.01218 -0.003,0.02298 -0.004,0.03516 -0.0334,0.01459 -0.0489,0.02334 -0.0547,0.02539 v -0.002 c 0.008,-0.0074 0.0361,-0.0281 0.0586,-0.05859 z m -8.58008,1.761719 c 0.25494,0.133649 0.15743,0.05019 0.28125,0.166015 -0.22429,0.23889 -0.26171,0.04337 -0.28125,-0.166015 z" /></g><g
         id="g177"><path
           style="display:inline;fill:#000000;fill-opacity:1;stroke:none;stroke-width:2;stroke-linecap:round;stroke-linejoin:round;stroke-miterlimit:2;stroke-dasharray:none;stroke-opacity:1"
           id="path177"
           d="m 275.09085,148.32432 c 0.32245,-3.62992 0.29051,-7.27837 0.49218,-10.91542 0.14168,-2.55511 0.33676,-5.10699 0.49407,-7.66119 0.30981,-5.75967 0.44754,-11.53272 1.38699,-17.23181 0.9021,-4.82262 1.89479,-9.62593 2.7441,-14.45801 0.8126,-3.86242 1.45538,-7.75255 2.06957,-11.65019 0.45064,-2.62101 0.33837,-5.2908 0.61831,-7.926032 0.16409,-1.544705 0.38353,-3.083157 0.55106,-4.627492 0.39799,-3.271793 0.31202,-6.566921 0.39619,-9.85223 0.0151,-0.589729 0.1782,-3.533196 0.20926,-4.108691 0.16252,-2.410566 0.22765,-4.875117 0.52695,-7.274146 0.15515,-1.243667 0.41621,-2.471873 0.61018,-3.710082 0.32091,-2.908223 0.76419,-5.797692 1.19623,-8.690523 0.42587,-3.167741 0.75751,-6.338607 0.83962,-9.534884 -0.14853,-1.876917 0.10592,-3.71779 0.28516,-5.578547 0.0159,-0.223215 0.0251,-0.447009 0.0477,-0.669647 0.0136,-0.134547 -0.91566,1.440943 -0.34818,1.627669 0.70125,0.230739 1.47012,0.137405 2.20609,0.195219 1.0069,0.0791 2.01489,0.143666 3.02234,0.215499 5.00397,0.40399 10.00563,0.844973 14.99917,1.360561 3.39188,0.259057 6.77959,0.571499 10.17369,0.802298 4.03858,0.376343 8.04806,0.924548 12.10215,1.115803 3.42499,-0.04244 6.83481,0.248898 10.25412,0.384108 1.57486,0.0799 3.15963,-0.02606 4.73372,0.04521 0.8378,0.03794 1.66981,0.158587 2.5047,0.238161 3.18708,0.180176 6.36338,0.427539 9.54522,0.689655 2.89461,0.143814 5.79393,0.155595 8.68986,0.053 1.98796,-0.191081 3.93711,0.357971 5.89009,0.663566 1.19435,0.238438 2.42228,0.164333 3.61896,0.373846 0.0979,0.01715 -0.20899,0.02649 -0.29772,-0.01839 -1.49623,-0.756742 -0.25526,-0.366813 -1.0048,-0.584761 -0.55964,2.483177 -1.32608,4.922216 -2.0175,7.374626 -0.72685,2.744708 -1.37697,5.500318 -1.72551,8.319947 -0.43367,4.033115 -1.1133,8.035223 -1.51901,12.070888 -0.35715,3.817905 -0.73004,7.635242 -1.02134,11.458999 -0.42222,3.708982 -0.99469,7.398663 -1.40518,11.11018 -0.24225,2.05972 -0.17193,4.13427 -0.24316,6.20101 -0.0545,1.5801 -0.20456,3.16067 -0.29183,4.73949 -0.0493,2.6973 -0.5739,5.34954 -0.91507,8.01696 -0.31777,2.87566 -0.5801,5.75601 -0.92246,8.62893 -0.18282,2.96043 -0.57335,5.8947 -0.95848,8.83337 -0.24854,3.29645 -0.63927,6.57108 -1.04388,9.85039 -0.18038,2.8568 -0.71202,5.66988 -1.08086,8.50353 -0.2869,2.54221 -0.6046,5.07971 -0.93207,7.61768 -0.10311,1.69713 -0.39905,3.37323 -0.56889,5.06341 -0.12838,1.27754 0.002,0.52581 -0.16375,1.37036 -0.0559,0.27571 -0.11174,0.55143 -0.1676,0.82714 -0.0434,0.28199 -0.0765,0.56577 -0.1303,0.84597 -0.0184,0.0957 -0.0919,0.37684 -0.0857,0.27957 0.0605,-0.94568 0.60683,-0.85313 -0.65013,-0.83162 -5.29525,-0.20357 -10.58817,-0.47878 -15.87308,-0.87008 -0.74721,-0.0815 -1.49606,-0.14926 -2.24164,-0.24454 -0.69863,-0.0893 -1.39346,-0.20603 -2.09019,-0.30905 -0.7056,-0.0991 -1.40982,-0.20851 -2.11679,-0.29736 -2.09171,-0.26288 -4.17549,-0.38822 -6.28041,-0.47329 -2.43546,-0.1139 -4.87442,0.0796 -7.30908,0.0464 -0.5968,-0.008 -2.56698,-0.14451 -3.14039,-0.18189 -3.65239,-0.14776 -7.29058,-0.45791 -10.93865,-0.6767 -2.16284,-0.21036 -4.35041,0.0507 -6.50986,-0.19249 -0.99707,-0.11231 -1.98272,-0.30965 -2.97455,-0.46148 -3.33012,-0.38517 -6.67379,-0.51741 -10.00254,-0.92936 -2.2268,-0.45898 -4.53786,-0.21371 -6.77117,-0.5271 -1.90215,-0.40918 -3.84169,-0.61394 -5.7542,-0.95699 -0.95843,-0.19383 -1.92663,-0.31383 -2.90073,-0.38761 -3.62527,-0.30939 -4.06281,4.81751 -0.43754,5.1269 v 0 c 0.81387,0.0821 1.61253,0.25001 2.41086,0.42666 2.00553,0.36026 4.02552,0.66768 6.03869,0.9701 2.25973,0.26057 4.53437,0.39939 6.78032,0.79238 3.28408,0.3607 6.58544,0.4952 9.86739,0.87783 1.12025,0.14795 2.2366,0.32837 3.36037,0.44671 2.17936,0.2295 4.38019,0.14886 6.56297,0.33677 3.63403,0.21634 7.26769,0.42397 10.90417,0.59065 3.52835,0.24267 7.05314,0.16676 10.58735,0.22518 1.9116,0.0796 3.79998,0.19737 5.69729,0.45769 4.72272,0.64796 -0.70239,-0.0266 4.37071,0.6853 0.79373,0.11138 1.59129,0.1936 2.38694,0.29041 5.71327,0.59126 11.50946,1.2095 17.23988,0.52789 1.52034,-0.34216 2.47968,-0.36317 3.71998,-1.48184 1.15108,-1.03818 1.29874,-2.45693 1.52759,-3.85835 0.49506,-2.26906 0.78714,-4.59419 1.02616,-6.90172 0.23728,-2.48684 0.53399,-4.96822 0.80821,-7.45127 0.47674,-2.86975 1.03739,-5.73143 1.26809,-8.6354 0.36411,-3.25061 0.75834,-6.49636 0.97239,-9.76035 0.41811,-2.96053 0.72307,-5.93063 0.93343,-8.91269 0.35498,-2.84655 0.64957,-5.6988 0.86799,-8.55945 0.40511,-2.77997 0.94104,-5.54226 1.0163,-8.36056 0.30561,-3.59749 0.49616,-7.19938 0.7223,-10.80243 0.13799,-1.8942 0.28018,-3.7979 0.54851,-5.67958 0.38728,-2.715885 0.21852,-0.648098 0.5744,-3.624554 0.0765,-0.640082 0.11784,-1.283885 0.17676,-1.925828 0.25756,-3.783909 0.74303,-7.54887 1.1479,-11.319036 0.36198,-4.004294 1.00312,-7.969904 1.26832,-11.98431 0.27293,-2.542495 0.85149,-5.020067 1.58972,-7.467047 0.9193,-3.234515 -0.0186,0.132969 0.79675,-2.994932 0.50174,-1.924838 1.23159,-3.804782 1.27605,-5.821517 -0.0822,-0.680469 0.0113,-1.406295 -0.24646,-2.041405 -1.14772,-2.82836 -4.02295,-2.836269 -6.56878,-3.116356 -2.22339,-0.286512 -4.44912,-0.60614 -6.69572,-0.586392 -2.76721,-0.05786 -5.53776,-0.05136 -8.29964,-0.257818 -3.15107,-0.13878 -6.29468,-0.440744 -9.44727,-0.573664 -2.46809,-0.178464 -4.93284,-0.15282 -7.40126,-0.294283 -3.41329,-0.229274 -6.82224,-0.529316 -10.24528,-0.572706 -4.03312,-0.237327 -8.04637,-0.632145 -12.06509,-1.039596 -3.29867,-0.17215 -6.60585,-0.356922 -9.87831,-0.815452 -5.1127,-0.633679 -10.22181,-1.343064 -15.36406,-1.68464 -2.61423,-0.05133 -6.49648,-0.519014 -8.87441,0.875029 -1.0791,0.632618 -1.35037,1.88259 -1.46606,2.978045 -0.28084,1.993999 -0.57526,3.98555 -0.52227,6.007292 -0.12037,2.991615 -0.4532,5.955284 -0.77877,8.930415 -0.41172,2.871405 -0.82417,5.744829 -1.32803,8.601294 -0.61823,3.82085 -0.98839,7.679705 -1.23303,11.541802 -0.26683,4.578314 -0.34579,9.164692 -0.69205,13.738894 -0.33087,4.110055 -0.59728,8.226255 -1.03193,12.326465 -0.45378,3.84198 -1.26088,7.61845 -2.05248,11.40301 -0.92698,4.83254 -2.09937,9.61806 -2.78144,14.4955 -1.092,5.8854 -1.57158,11.85045 -1.89289,17.82399 -0.40344,6.31036 -0.74846,12.64372 -0.13769,18.9551 0,3.66402 5.1817,3.66402 5.1817,0 z" /></g></g></g></svg>
