<?xml version="1.0" encoding="UTF-8" standalone="no"?>
<!-- Created with Inkscape (http://www.inkscape.org/) -->

<svg
   width="55.667328"
   height="71.219048"
   viewBox="0 0 55.667328 71.219048"
   version="1.1"
   id="svg1"
   xml:space="preserve"
   xmlns="http://www.w3.org/2000/svg"
   xmlns:svg="http://www.w3.org/2000/svg"><defs
     id="defs1" /><g
     id="g10"
     style="display:inline"
     transform="translate(-297.4111,-56.140747)"><g
       id="g295"
       style="display:inline"
       transform="matrix(0.5,0,0,0.5,162.62238,45.875135)"><path
         style="display:inline;fill:#808186;fill-opacity:1;stroke:none;stroke-width:2;stroke-linecap:round;stroke-linejoin:round;stroke-miterlimit:2;stroke-dasharray:none;stroke-opacity:1"
         id="path289"
         d="m 277.09085,153.82432 c 0.32245,-3.62992 0.29051,-7.27837 0.49218,-10.91542 0.14168,-2.55511 0.33676,-5.10699 0.49407,-7.66119 0.30981,-5.75967 0.44754,-11.53272 1.38699,-17.23181 0.9021,-4.82262 1.89479,-9.62593 2.7441,-14.45801 0.8126,-3.86242 1.45538,-7.75255 2.06957,-11.65019 0.45064,-2.62101 0.33837,-5.2908 0.61831,-7.926032 0.16409,-1.544705 0.38353,-3.083157 0.55106,-4.627492 0.39799,-3.271793 0.31202,-6.566921 0.39619,-9.85223 0.0151,-0.589729 0.1782,-3.533196 0.20926,-4.108691 0.16252,-2.410566 0.22765,-4.875117 0.52695,-7.274146 0.15515,-1.243667 0.41621,-2.471873 0.61018,-3.710082 0.32091,-2.908223 0.76419,-5.797692 1.19623,-8.690523 0.42587,-3.167741 0.75751,-6.338607 0.83962,-9.534884 -0.14853,-1.876917 0.10592,-3.71779 0.28516,-5.578547 0.0159,-0.223215 0.0251,-0.447009 0.0477,-0.669647 0.0136,-0.134547 -0.91566,1.440943 -0.34818,1.627669 0.70125,0.230739 1.47012,0.137405 2.20609,0.195219 1.0069,0.0791 2.01489,0.143666 3.02234,0.215499 5.00397,0.40399 10.00563,0.844973 14.99917,1.360561 3.39188,0.259057 6.77959,0.571499 10.17369,0.802298 4.03858,0.376343 8.04806,0.924548 12.10215,1.115803 3.42499,-0.04244 6.83481,0.248898 10.25412,0.384108 1.57486,0.0799 3.15963,-0.02606 4.73372,0.04521 0.8378,0.03794 1.66981,0.158587 2.5047,0.238161 3.18708,0.180176 6.36338,0.427539 9.54522,0.689655 2.89461,0.143814 5.79393,0.155595 8.68986,0.053 1.98796,-0.191081 3.93711,0.357971 5.89009,0.663566 1.19435,0.238438 2.42228,0.164333 3.61896,0.373846 0.0979,0.01715 -0.20899,0.02649 -0.29772,-0.01839 -1.49623,-0.756742 -0.25526,-0.366813 -1.0048,-0.584761 -0.55964,2.483177 -1.32608,4.922216 -2.0175,7.374626 -0.72685,2.744708 -1.37697,5.500318 -1.72551,8.319947 -0.43367,4.033115 -1.1133,8.035223 -1.51901,12.070888 -0.35715,3.817905 -0.73004,7.635242 -1.02134,11.458999 -0.42222,3.708982 -0.99469,7.398663 -1.40518,11.11018 -0.24225,2.05972 -0.17193,4.13427 -0.24316,6.20101 -0.0545,1.5801 -0.20456,3.16067 -0.29183,4.73949 -0.0493,2.6973 -0.5739,5.34954 -0.91507,8.01696 -0.31777,2.87566 -0.5801,5.75601 -0.92246,8.62893 -0.18282,2.96043 -0.57335,5.8947 -0.95848,8.83337 -0.24854,3.29645 -0.63927,6.57108 -1.04388,9.85039 -0.18038,2.8568 -0.71202,5.66988 -1.08086,8.50353 -0.2869,2.54221 -0.6046,5.07971 -0.93207,7.61768 -0.10311,1.69713 -0.39905,3.37323 -0.56889,5.06341 -0.12838,1.27754 0.002,0.52581 -0.16375,1.37036 -0.0559,0.27571 -0.11174,0.55143 -0.1676,0.82714 -0.0434,0.28199 -0.0765,0.56577 -0.1303,0.84597 -0.0184,0.0957 -0.0919,0.37684 -0.0857,0.27957 0.0605,-0.94568 0.60683,-0.85313 -0.65013,-0.83162 -5.29525,-0.20357 -10.58817,-0.47878 -15.87308,-0.87008 -0.74721,-0.0815 -1.49606,-0.14926 -2.24164,-0.24454 -0.69863,-0.0893 -1.39346,-0.20603 -2.09019,-0.30905 -0.7056,-0.0991 -1.40982,-0.20851 -2.11679,-0.29736 -2.09171,-0.26288 -4.17549,-0.38822 -6.28041,-0.47329 -2.43546,-0.1139 -4.87442,0.0796 -7.30908,0.0464 -0.5968,-0.008 -2.56698,-0.14451 -3.14039,-0.18189 -3.65239,-0.14776 -7.29058,-0.45791 -10.93865,-0.6767 -2.16284,-0.21036 -4.35041,0.0507 -6.50986,-0.19249 -0.99707,-0.11231 -1.98272,-0.30965 -2.97455,-0.46148 -3.33012,-0.38517 -6.67379,-0.51741 -10.00254,-0.92936 -2.2268,-0.45898 -4.53786,-0.21371 -6.77117,-0.5271 -1.90215,-0.40918 -3.84169,-0.61394 -5.7542,-0.95699 -0.95843,-0.19383 -1.92663,-0.31383 -2.90073,-0.38761 -3.62527,-0.30939 -4.06281,4.81751 -0.43754,5.1269 v 0 c 0.81387,0.0821 1.61253,0.25001 2.41086,0.42666 2.00553,0.36026 4.02552,0.66768 6.03869,0.9701 2.25973,0.26057 4.53437,0.39939 6.78032,0.79238 3.28408,0.3607 6.58544,0.4952 9.86739,0.87783 1.12025,0.14795 2.2366,0.32837 3.36037,0.44671 2.17936,0.2295 4.38019,0.14886 6.56297,0.33677 3.63403,0.21634 7.26769,0.42397 10.90417,0.59065 3.52835,0.24267 7.05314,0.16676 10.58735,0.22518 1.9116,0.0796 3.79998,0.19737 5.69729,0.45769 4.72272,0.64796 -0.70239,-0.0266 4.37071,0.6853 0.79373,0.11138 1.59129,0.1936 2.38694,0.29041 5.71327,0.59126 11.50946,1.2095 17.23988,0.52789 1.52034,-0.34216 2.47968,-0.36317 3.71998,-1.48184 1.15108,-1.03818 1.29874,-2.45693 1.52759,-3.85835 0.49506,-2.26906 0.78714,-4.59419 1.02616,-6.90172 0.23728,-2.48684 0.53399,-4.96822 0.80821,-7.45127 0.47674,-2.86975 1.03739,-5.73143 1.26809,-8.6354 0.36411,-3.25061 0.75834,-6.49636 0.97239,-9.76035 0.41811,-2.96053 0.72307,-5.93063 0.93343,-8.91269 0.35498,-2.84655 0.64957,-5.6988 0.86799,-8.55945 0.40511,-2.77997 0.94104,-5.54226 1.0163,-8.36056 0.30561,-3.59749 0.49616,-7.19938 0.7223,-10.80243 0.13799,-1.8942 0.28018,-3.7979 0.54851,-5.67958 0.38728,-2.715885 0.21852,-0.648098 0.5744,-3.624554 0.0765,-0.640082 0.11784,-1.283885 0.17676,-1.925828 0.25756,-3.783909 0.74303,-7.54887 1.1479,-11.319036 0.36198,-4.004294 1.00312,-7.969904 1.26832,-11.98431 0.27293,-2.542495 0.85149,-5.020067 1.58972,-7.467047 0.9193,-3.234515 -0.0186,0.132969 0.79675,-2.994932 0.50174,-1.924838 1.23159,-3.804782 1.27605,-5.821517 -0.0822,-0.680469 0.0113,-1.406295 -0.24646,-2.041405 -1.14772,-2.82836 -4.02295,-2.836269 -6.56878,-3.116356 -2.22339,-0.286512 -4.44912,-0.60614 -6.69572,-0.586392 -2.76721,-0.05786 -5.53776,-0.05136 -8.29964,-0.257818 -3.15107,-0.13878 -6.29468,-0.440744 -9.44727,-0.573664 -2.46809,-0.178464 -4.93284,-0.15282 -7.40126,-0.294283 -3.41329,-0.229274 -6.82224,-0.529316 -10.24528,-0.572706 -4.03312,-0.237327 -8.04637,-0.632145 -12.06509,-1.039596 -3.29867,-0.17215 -6.60585,-0.356922 -9.87831,-0.815452 -5.1127,-0.633679 -10.22181,-1.343064 -15.36406,-1.68464 -2.61423,-0.05133 -6.49648,-0.519014 -8.87441,0.875029 -1.0791,0.632618 -1.35037,1.88259 -1.46606,2.978045 -0.28084,1.993999 -0.57526,3.98555 -0.52227,6.007292 -0.12037,2.991615 -0.4532,5.955284 -0.77877,8.930415 -0.41172,2.871405 -0.82417,5.744829 -1.32803,8.601294 -0.61823,3.82085 -0.98839,7.679705 -1.23303,11.541802 -0.26683,4.578314 -0.34579,9.164692 -0.69205,13.738894 -0.33087,4.110055 -0.59728,8.226255 -1.03193,12.326465 -0.45378,3.84198 -1.26088,7.61845 -2.05248,11.40301 -0.92698,4.83254 -2.09937,9.61806 -2.78144,14.4955 -1.092,5.8854 -1.57158,11.85045 -1.89289,17.82399 -0.40344,6.31036 -0.74846,12.64372 -0.13769,18.9551 0,3.66402 5.1817,3.66402 5.1817,0 z" /><g
         id="g293"><g
           id="g290"
           style="display:inline"><path
             style="display:inline;fill:#62a4ce;fill-opacity:1;stroke:none;stroke-width:1;stroke-linecap:round;stroke-linejoin:round;stroke-miterlimit:2;stroke-dasharray:none;stroke-opacity:1"
             d="m 286.47168,24.644531 c -1.80325,3.459785 -0.70759,7.816316 -1.50391,11.641602 -1.4596,11.365152 -2.8772,22.743829 -3.11733,34.215811 -0.65957,15.532086 -4.25555,30.465846 -6.6733,45.931786 -0.5655,9.66932 -1.61702,19.3756 -1.54823,29.04771 1.37591,3.28076 5.87774,2.248 8.70022,2.99031 14.02299,1.57769 28.13673,2.69457 42.21906,2.9572 11.19058,0.0917 22.33199,2.4119 33.59927,2.09546 3.57949,-0.83488 2.31105,-5.40703 3.10847,-8.0295 2.62434,-22.2585 5.45843,-44.47504 6.90766,-66.84901 1.85369,-15.255304 2.59768,-30.746371 6.812,-45.607814 -0.15311,-3.520016 -4.8133,-2.965447 -7.28223,-3.487305 -26.62758,-0.853725 -53.29882,-2.600875 -79.83496,-5.28125 -0.46224,0.125 -0.92448,0.25 -1.38672,0.375 z"
             id="path290" /></g><path
           id="path292"
           style="fill:#000000;fill-opacity:1;stroke:none;stroke-width:2;stroke-linecap:round;stroke-linejoin:round;stroke-miterlimit:2;stroke-dasharray:none;stroke-opacity:1"
           d="m 316.48828,76.337891 c -0.5702,0.0011 -1.13329,0.06436 -1.54883,0.291015 -0.89354,0.487383 -0.99706,1.413935 -1.03125,2.314453 -0.0222,2.155887 -0.0181,4.314113 0.0645,6.46875 0,1.099204 1.55468,1.099204 1.55468,0 0.0826,-2.154637 0.0868,-4.310909 0.0645,-6.466797 0.003,-0.111795 -0.0756,-0.889278 0.1582,-1.107421 10e-4,-9.34e-4 0.003,-0.0032 0.004,-0.0039 h 0.002 l 0.002,-0.002 h 0.002 0.002 0.002 0.002 0.002 c 10e-4,2.73e-4 0.005,0.0015 0.006,0.002 0.0249,0.01385 0.0529,0.06957 0.084,0.08008 0.0865,0.02924 0.17861,0.04206 0.26953,0.05078 0.61767,0.0593 1.23671,0.08437 1.85547,0.130859 0.65329,0.07314 1.31244,0.07696 1.9668,0.134766 0.27463,0.02426 0.73495,0.051 0.74414,0.175781 1.2e-4,0.0016 1.1e-4,0.0045 0,0.0059 l -0.002,0.002 v 0.002 0.002 l -0.002,0.002 -0.002,0.002 h -0.002 v 0.002 h -0.002 c -0.0275,0.01 -0.10931,-0.02803 -0.14257,-0.0059 l -0.002,0.002 c -0.0621,0.05762 -0.0712,0.151882 -0.10742,0.228516 -0.44173,2.061295 -0.81021,4.13685 -0.98828,6.238281 -0.0102,0.218141 -0.0211,0.436155 -0.0312,0.654297 -0.0847,1.129346 1.513,1.250439 1.59766,0.121093 0.0212,-0.200562 0.0433,-0.402952 0.0645,-0.603515 0.27446,-2.144195 0.67234,-4.267101 0.95312,-6.410156 -0.0363,-0.32198 0.007,-0.662401 -0.10937,-0.964844 -0.52982,-1.378226 -2.69211,-1.119453 -3.83399,-1.263672 -0.44855,-0.02128 -1.0255,-0.08312 -1.5957,-0.08203 z m 11.87695,0.720703 c -0.29215,0.0061 -0.58094,0.06879 -0.87109,0.103515 -0.29384,0.120078 -0.60862,0.19613 -0.88086,0.359375 -0.78972,0.473555 -1.39031,1.23136 -1.77539,2.076172 -0.10329,0.09756 -0.18763,0.232851 -0.24023,0.408203 -0.47512,1.641029 -0.81585,3.447059 -0.17578,5.097657 0.11462,0.295625 0.293,0.560571 0.43945,0.841796 0.19867,0.215677 0.36524,0.467124 0.5957,0.648438 0.87342,0.68717 2.27324,0.881876 3.31055,0.490234 0.36761,-0.138791 0.68875,-0.379276 1.0332,-0.568359 0.29286,-0.287152 0.63842,-0.529081 0.87891,-0.861328 1.04079,-1.437838 1.45295,-3.75721 1.26367,-5.5 -0.0382,-0.352031 -0.14313,-0.694251 -0.21484,-1.041016 -0.13733,-0.271302 -0.23529,-0.567062 -0.41211,-0.814453 -0.65566,-0.917387 -1.87166,-1.262769 -2.95118,-1.240234 z m 0.28125,1.603515 c 0.44611,0.01275 1.00197,0.09577 1.24414,0.386719 0.0951,0.114204 0.14738,0.257487 0.22071,0.386719 0.0485,0.254829 0.12161,0.507415 0.14648,0.765625 0.11414,1.185141 -0.15792,3.26796 -0.77734,4.298828 -0.13959,0.232309 -0.35753,0.406388 -0.53711,0.609375 -0.18136,0.131648 -0.34622,0.290893 -0.54492,0.394531 -0.43316,0.225924 -1.35427,0.248015 -1.78711,-0.02734 -0.12306,-0.07829 -0.21388,-0.199099 -0.32031,-0.298828 -0.0973,-0.172446 -0.21615,-0.33428 -0.29102,-0.517578 -0.337,-0.825063 -0.31505,-1.715368 -0.1875,-2.59375 0.0774,-0.112906 0.12984,-0.255781 0.14844,-0.429687 0.10533,-0.957894 0.52273,-2.035224 1.3164,-2.640625 0.13259,-0.101142 0.29432,-0.157748 0.44141,-0.236328 0.1781,-0.03088 0.35469,-0.08172 0.53516,-0.0918 0.10844,-0.0061 0.24387,-0.01011 0.39257,-0.0059 z" /><path
           id="path293"
           style="fill:#000000;fill-opacity:1;stroke:none;stroke-width:2;stroke-linecap:round;stroke-linejoin:round;stroke-miterlimit:2;stroke-dasharray:none;stroke-opacity:1"
           d="m 292.78906,55.96875 c -1.45827,0 -1.45827,2.0625 0,2.0625 1.22851,0.101658 2.44996,0.258165 3.67578,0.382812 -0.0291,0.06715 -0.0526,0.140051 -0.0723,0.21875 -0.44043,1.786294 -0.65049,3.616365 -1.06446,5.408204 -0.18196,0.92584 -0.43606,1.832032 -0.70117,2.736328 -0.44503,1.406105 1.54326,2.035012 1.98828,0.628906 0.32064,-0.940407 0.62635,-1.885687 0.84766,-2.855469 0.43914,-1.781945 0.7077,-3.594715 0.95313,-5.412109 0.0509,-0.203592 0.0534,-0.387561 0.0195,-0.550781 1.084,0.106489 2.16717,0.202954 3.24804,0.339843 1.48836,0.217296 1.795,-1.886219 0.30664,-2.103515 -1.23669,-0.203344 -2.48401,-0.315913 -3.72851,-0.460938 -1.81788,-0.179175 -3.6432,-0.457 -5.47266,-0.394531 z m 13.42188,0.609375 c -0.96675,-0.01982 -1.76956,0.228027 -1.98242,1.519531 -0.10305,1.330348 -0.38612,2.636149 -0.48829,3.966797 -0.23856,1.983773 -0.52304,3.962394 -0.71875,5.951172 -0.0542,0.379706 0.0469,0.679955 0.22852,0.890625 0.0665,0.461128 0.42904,0.880859 1.08789,0.880859 1.39669,0.05748 2.79591,0.06081 4.19336,0.0332 1.51241,0 1.51241,-2.140624 0,-2.140624 -1.11032,-0.02194 -2.22175,-0.02289 -3.33203,0.0059 0.21513,-1.127707 0.38148,-2.266435 0.52734,-3.40625 0.0209,8.91e-4 0.0409,0.002 0.0625,0.002 0.68448,0.03418 1.36969,0.03181 2.05469,0.02344 1.49122,0 1.49122,-2.109376 0,-2.109376 -0.62488,-0.0077 -1.24856,-0.0099 -1.87305,0.01563 0.086,-1.175991 0.25328,-2.344746 0.32032,-3.521485 0.0458,0.0013 0.0916,0.0042 0.13671,0.0098 0.17525,0.02163 0.34879,0.0521 0.52344,0.07813 0.91941,0.157771 1.84531,0.255013 2.77735,0.283203 1.47735,0.07117 1.57891,-2.016722 0.10156,-2.087891 -0.87662,-0.06047 -1.74694,-0.166209 -2.61328,-0.314453 -0.34317,-0.03703 -0.68361,-0.07347 -1.00586,-0.08008 z m 9.64258,0.330078 c -0.73912,0.0052 -1.47901,0.03076 -2.2168,0.05078 -1.47295,0 -1.47295,2.082033 0,2.082032 0.75578,0.04769 1.51262,0.04214 2.26953,0.03906 -0.005,0.01719 -0.009,0.03495 -0.0137,0.05273 -0.47459,1.649718 -0.87222,3.328591 -1.24219,5.00586 -0.14287,1.062505 -0.38975,2.101392 -0.61719,3.146484 l -0.0547,0.384766 c -0.21352,1.446642 1.8314,1.747423 2.04492,0.300781 0.0122,-0.0806 0.0249,-0.161587 0.0371,-0.242187 0.22855,-1.03315 0.59099,-2.039949 0.71875,-3.097657 0.40443,-1.658731 0.80123,-3.317819 1.13672,-4.992187 0.0477,-0.190657 0.0527,-0.364117 0.0254,-0.519531 0.38244,0.03128 0.76322,0.07681 1.14453,0.11914 1.44811,0.20538 1.73912,-1.843448 0.29101,-2.048828 -0.43561,-0.07553 -0.87118,-0.157082 -1.31054,-0.208984 -0.73614,-0.06276 -1.47378,-0.07748 -2.21289,-0.07227 z m 8.22851,0.541016 c -1.00732,-0.0127 -1.73121,0.489032 -1.93164,1.474609 -0.0891,0.218768 -0.22807,0.545803 -0.28711,0.753906 -0.25257,0.890241 -0.25335,1.830294 -0.42773,2.734375 -0.30472,1.832532 -0.58729,3.684821 -0.4668,5.548829 0,1.458263 2.0625,1.458262 2.0625,0 0.0434,-0.945919 0.13423,-1.887868 0.25,-2.826172 0.1521,0.04419 0.32637,0.05854 0.52148,0.0332 1.37624,-0.155609 2.77835,-0.203545 3.99219,-0.966797 0.17762,-0.18415 0.39477,-0.337574 0.5332,-0.552734 0.58916,-0.915676 0.35112,-2.11392 0.0586,-3.076172 -0.1105,-0.204194 -0.20315,-0.418871 -0.33008,-0.613282 -0.75867,-1.162046 -1.98354,-1.92935 -3.25586,-2.410156 -0.23971,-0.03337 -0.47675,-0.09656 -0.71875,-0.09961 z m 10.26367,0.841797 c -0.18083,-0.0081 -0.37196,0.02751 -0.60937,0.07227 -0.16793,0.03166 -0.34342,0.03894 -0.50391,0.09766 -0.1804,0.066 -0.33849,0.180754 -0.50781,0.271484 -0.12494,0.125277 -0.26265,0.240269 -0.375,0.376953 -0.67729,0.824038 -1.00564,2.174984 -1.43555,3.125 -0.16998,0.379134 -0.89575,1.999771 -1.05078,2.330078 -0.65281,1.390861 -1.40326,2.737782 -1.96484,4.169922 -0.46924,1.407714 1.52294,2.069823 1.99218,0.662109 0.33978,-0.590201 0.66831,-1.184888 0.98633,-1.785156 1.05143,0.175855 2.1216,0.201476 3.18555,0.21875 0.25786,0.0062 0.47399,-0.05142 0.64648,-0.15039 0.13865,0.744153 0.29591,1.483963 0.29688,2.24414 -0.0226,1.454084 2.03405,1.487286 2.05664,0.0332 0.0284,-1.015152 -0.0896,-2.024764 -0.22852,-3.029297 -0.1462,-1.157748 -0.28399,-2.317051 -0.43164,-3.474609 -0.0811,-0.635789 -0.21585,-1.864826 -0.33398,-2.496094 -0.0672,-0.359019 -0.16808,-0.710912 -0.25195,-1.066406 -0.16021,-0.348612 -0.20656,-0.778224 -0.48047,-1.046875 -0.41484,-0.406868 -0.68884,-0.539224 -0.99024,-0.552734 z m -10.10547,0.871093 h 0.002 v 0.002 h 0.002 v 0.002 c 0.002,0.01346 -0.012,0.05939 -0.0215,0.07617 -0.0142,0.02512 -0.0304,0.04769 -0.0488,0.07031 0.003,-0.0082 0.005,-0.01722 0.008,-0.02539 0.0141,-0.04245 0.0247,-0.08799 0.0547,-0.121093 l 0.002,-0.002 z m 20.91602,0.302735 c -0.61131,0.04238 -1.10278,0.669764 -1.40625,1.101562 -0.66926,1.197594 -0.99828,2.543627 -1.55273,3.794922 -0.64961,1.7093 -1.25248,3.522934 -1.24805,5.369141 -0.511,0.03452 -1.0213,0.08677 -1.52734,0.169922 -0.26845,0.140758 -0.57073,0.229151 -0.80469,0.421875 -0.84439,0.695568 -0.74467,1.977606 -0.84571,2.943359 -0.20734,1.45139 1.8454,1.74436 2.05274,0.292969 0.19719,-0.515728 0.0188,-1.487411 0.31836,-1.941406 0.0111,-0.01683 0.0214,-0.0284 0.0273,-0.0332 l 0.002,-0.002 h 0.002 0.002 0.002 0.002 v 0.002 0.002 0.002 l 0.002,0.002 c 0.005,0.03951 -0.0495,0.209252 -0.0703,0.28125 0.0897,0.0079 0.17948,0.02425 0.26953,0.02344 0.40302,-0.0036 0.80419,-0.04011 1.20703,-0.05273 0.70141,-0.02198 1.40183,-0.02208 2.10352,-0.02148 1.01601,0.0057 2.03293,-0.03149 3.04882,-0.0332 0.30299,0.0038 0.53816,0.130647 0.78321,0.267579 -0.006,0.02407 -0.0136,0.04805 -0.0234,0.06836 -0.20882,0.429408 -0.44265,0.843297 -0.6543,1.271484 -0.22087,0.533726 -0.11782,0.312005 -0.29882,0.675781 -0.69,1.291712 1.13812,2.268275 1.82812,0.976563 0.26305,-0.473421 0.14525,-0.240915 0.35156,-0.701172 0.40488,-0.782882 1.19743,-2.00899 0.94532,-2.927734 -0.0738,-0.268894 -0.28407,-0.48057 -0.42579,-0.720703 -0.45364,-0.329923 -0.93553,-0.621682 -1.45703,-0.800782 0.0444,-0.128038 0.0689,-0.274033 0.0684,-0.4375 0.004,-0.200922 0.009,-0.402593 0.0137,-0.603515 -0.0295,-2.049799 -0.27864,-4.08108 -0.63281,-6.09961 -0.0737,-0.325875 -0.39302,-1.918489 -0.61328,-2.24414 -0.26402,-0.39036 -0.59079,-0.795155 -1.02734,-0.972657 -0.15285,-0.06215 -0.30034,-0.084 -0.44141,-0.07422 z m -21.04883,0.07031 c 0.0954,0.04525 0.20349,0.05952 0.30469,0.08984 0.79849,0.517774 1.68598,1.024886 2.10547,1.917969 0.0117,0.322275 0.15023,0.915009 0.0449,1.216797 -4.7e-4,0.0013 -0.003,0.0049 -0.004,0.0059 v 0.002 h -0.002 l -0.002,-0.002 v -0.002 l -0.002,-0.002 c -0.007,-0.02292 -0.0105,-0.107346 -0.0351,-0.13086 l -0.002,-0.002 -0.002,-0.002 -0.002,-0.002 c -0.0238,-0.01348 -0.0608,0.0032 -0.0898,0.002 -0.11841,0.01052 -0.23816,0.01204 -0.35547,0.03125 -0.22579,0.03698 -0.44684,0.09544 -0.67188,0.136719 -0.60518,0.111007 -1.21746,0.176394 -1.82617,0.263672 0.0149,-0.09982 0.0318,-0.199032 0.0469,-0.298828 0.20614,-1.017947 0.0887,-2.104138 0.45313,-3.085938 0.0135,-0.0458 0.0261,-0.09271 0.0391,-0.138672 z m 9.96289,0.681641 h 0.002 0.002 l 0.002,0.002 c 0.006,0.0035 0.0137,0.01402 0.0254,0.0293 -0.0164,-0.0033 -0.0306,-0.007 -0.0449,-0.0098 0.004,-0.0081 0.007,-0.0142 0.01,-0.01758 l 0.002,-0.002 z m 0.0586,0.03516 c 0.006,-3.58e-4 0.0116,0.0015 0.0156,0.002 -0.005,-10e-4 -0.0108,-9.51e-4 -0.0156,-0.002 z m 0.0195,0.002 c 10e-4,2.39e-4 0.003,0.0016 0.004,0.002 -10e-4,-2.85e-4 -0.003,-0.0017 -0.004,-0.002 z m -0.3418,0.560547 c 0.22038,1.634333 0.38064,3.275559 0.59961,4.910156 -0.0899,-0.0213 -0.18813,-0.03262 -0.29297,-0.03516 -0.73989,-0.0241 -1.47776,-0.05714 -2.2168,-0.09961 0.38662,-0.809309 0.75303,-1.628172 1.09766,-2.458985 0.262,-0.774428 0.51776,-1.553316 0.8125,-2.316406 z m 19.57813,0.09766 c -0.43874,-0.0092 -0.88562,0.241478 -1.0625,0.835938 -0.37038,1.236762 -0.64808,2.494035 -0.93555,3.751953 -0.2862,1.68565 -0.51048,3.400459 -0.42774,5.113281 0,0.677973 0.4416,1.043803 0.91797,1.097657 0.001,0.574055 0.44694,1.147793 1.25196,1.042968 0.71554,-0.07582 0.34279,-0.03231 1.12304,-0.132812 0.81426,-0.118178 2.44349,-0.224936 3.10938,-0.632813 0.31562,-0.193333 0.59638,-0.454316 0.8164,-0.751953 0.13028,-0.176226 0.13555,-0.416529 0.20313,-0.625 0.118,-1.319926 5.9e-4,-2.379743 -0.97656,-3.376953 -0.23361,-0.172719 -0.45018,-0.371277 -0.70118,-0.517578 -0.97768,-0.569865 -2.12822,-0.564672 -3.2207,-0.509766 0.0178,-0.116906 0.036,-0.234815 0.0547,-0.351562 0.24074,-1.175636 0.51355,-2.341282 0.85351,-3.492188 0.25852,-0.868826 -0.36463,-1.437703 -1.00585,-1.451172 z m -7.55274,0.441407 h 0.002 0.002 v 0.002 h -0.002 c -10e-4,7.3e-4 -0.003,0.0027 -0.006,0.0039 -0.15836,0.07359 -0.30905,0.182892 -0.48046,0.210937 h -0.002 l -0.002,-0.002 -0.002,-0.002 v -0.002 h -0.002 v -0.002 -0.002 -0.002 -0.002 -0.002 -0.002 l 0.002,-0.002 v -0.002 c 0.0423,-0.06349 0.45541,-0.192944 0.49023,-0.195312 z m -0.82812,1.664062 c 0.0101,0.05906 0.0213,0.116704 0.0312,0.175781 0.28305,1.905042 0.59324,3.800659 0.68164,5.726563 0.006,0.182368 0.0118,0.364507 0.0176,0.546875 2.6e-4,0.07977 0.006,0.155304 0.0176,0.226562 -0.69008,-0.01882 -1.37985,-0.04364 -2.07031,-0.03711 -0.21088,0.0021 -0.42159,0.0036 -0.63281,0.0059 0.0426,-0.582458 0.20295,-1.141745 0.34765,-1.710937 0.24488,-0.963278 0.51484,-1.866131 0.875,-2.792969 0.10774,-0.291842 0.2174,-0.58282 0.32422,-0.875 0.14764,-0.403822 0.27251,-0.836591 0.40821,-1.265625 z m 8.21093,5.263672 c 0.0396,0.0033 0.081,0.0059 0.12305,0.0059 0.82987,0.07185 1.77776,-0.113403 2.51758,0.378907 0.0843,0.05608 0.13924,0.145373 0.20898,0.21875 0.3363,0.401002 0.29803,0.879616 0.25782,1.365234 -0.0107,-0.01814 -0.0253,-0.03736 -0.0469,-0.05664 -0.0782,-0.06992 -0.21025,0.0018 -0.31445,0.01367 -0.67334,0.07679 -1.34688,0.187722 -2.01758,0.285157 -0.68464,0.109995 -0.4693,0.07504 -0.90234,0.142578 9e-5,-0.007 0,-0.01443 0,-0.02148 0.0343,-0.778894 0.0932,-1.556291 0.17382,-2.332031 z m 3.09571,2.125 c -9.2e-4,0.01218 -0.003,0.02298 -0.004,0.03516 -0.0334,0.01459 -0.0489,0.02334 -0.0547,0.02539 v -0.002 c 0.008,-0.0074 0.0361,-0.0281 0.0586,-0.05859 z m -8.58008,1.761719 c 0.25494,0.133649 0.15743,0.05019 0.28125,0.166015 -0.22429,0.23889 -0.26171,0.04337 -0.28125,-0.166015 z" /><path
           style="fill:#000000;fill-opacity:1;stroke:none;stroke-width:2;stroke-linecap:round;stroke-linejoin:round;stroke-miterlimit:2;stroke-dasharray:none;stroke-opacity:1"
           id="path296"
           d="m 285.14885,100.67797 c -1.01007,1.90682 -1.57244,4.00807 -2.10031,6.08824 -0.36603,1.97162 -0.93462,3.93328 -0.86236,5.95406 0.13202,0.26945 0.13027,0.66914 0.39607,0.80835 1.23625,0.6475 1.58307,0.22639 2.36325,-0.49966 0.27037,-0.2516 0.51567,-0.52912 0.76309,-0.80333 0.6855,-0.75972 1.07137,-1.25764 1.72158,-2.05891 1.45307,-1.87728 3.29999,-3.38111 4.86558,-5.15297 0.6732,-0.99099 2.00757,-2.59388 -1.17603,-1.54079 -0.23461,0.0776 -0.0591,0.49074 -0.0812,0.73686 -0.03,0.33452 -0.0499,0.66985 -0.0749,1.00478 -0.29374,2.23822 -0.63737,4.46949 -0.91586,6.70968 -0.0272,0.27856 -0.0543,0.55712 -0.0815,0.83568 -0.18302,1.53042 1.98132,1.78925 2.16434,0.25883 v 0 c 0.0374,-0.26155 0.0749,-0.52311 0.11233,-0.78466 0.36381,-2.29803 0.71712,-4.59978 0.93612,-6.91687 0.006,-0.32362 0.0113,-0.64723 0.0166,-0.97085 0.004,-0.24214 0.19855,-0.57265 0.0115,-0.72643 -2.2274,-1.83099 -1.5966,-1.31202 -2.17695,-0.51575 -0.10785,0.14796 -0.23193,0.28338 -0.3479,0.42507 -1.67717,1.74053 -3.58272,3.26311 -5.05086,5.20273 -0.73158,0.93373 -0.86729,1.11406 -1.59451,2.01556 -0.20797,0.25781 -0.43578,0.50034 -0.62808,0.77003 -0.0663,0.093 -0.22607,0.23292 -0.14312,0.31152 1.23047,1.16589 0.79845,-0.16603 1.04408,0.87131 0.0604,-1.82294 0.6327,-3.59508 0.93679,-5.38336 0.48827,-1.97441 1.0526,-3.93106 1.81493,-5.81938 0.57964,-1.3525 -1.33308,-2.172237 -1.91272,-0.81974 z" /><path
           style="fill:#000000;fill-opacity:1;stroke:none;stroke-width:2;stroke-linecap:round;stroke-linejoin:round;stroke-miterlimit:2;stroke-dasharray:none;stroke-opacity:1"
           id="path298"
           d="m 304.48929,104.97824 c -0.47063,-0.9025 -0.88356,-1.8869 -1.77679,-2.45855 -0.19465,-0.12458 -0.42066,-0.19153 -0.63099,-0.2873 -1.31249,-0.31042 -2.70873,-0.15901 -3.86649,0.56454 -0.22868,0.14292 -0.43253,0.32218 -0.6488,0.48326 -1.46318,1.16553 -2.02078,2.89154 -2.53288,4.61554 -0.36756,1.48529 -0.72971,3.15035 0.30426,4.48 0.24318,0.31271 0.5822,0.53735 0.8733,0.80602 1.52439,0.93441 3.28227,1.12439 5.02608,0.92249 0.87878,-0.22833 0.45953,-0.08 1.26028,-0.43779 1.34953,-0.62415 0.46686,-2.53267 -0.88267,-1.90852 v 0 c -0.36622,0.18255 -0.16473,0.10168 -0.60981,0.2288 -1.15032,0.11503 -2.36431,0.0314 -3.41178,-0.48989 -0.12827,-0.0753 -0.27379,-0.12698 -0.38482,-0.22598 -0.14415,-0.12853 -0.4151,-0.53328 -0.43496,-0.74588 -0.0183,-0.19578 0.0374,-0.39165 0.0659,-0.5862 0.0901,-0.6154 0.14702,-0.79163 0.29426,-1.41368 0.38774,-1.28175 0.67298,-2.64751 1.74495,-3.552 0.23917,-0.19808 0.43349,-0.38717 0.71617,-0.52109 0.51995,-0.24632 1.1313,-0.23828 1.6926,-0.27984 0.0387,0.01 0.29779,0.0661 0.33433,0.10242 0.47422,0.47207 0.6668,1.2524 1.09971,1.76454 0.75016,1.25027 2.51831,0.18938 1.76815,-1.06089 z" /><path
           style="fill:#000000;fill-opacity:1;stroke:none;stroke-width:2;stroke-linecap:round;stroke-linejoin:round;stroke-miterlimit:2;stroke-dasharray:none;stroke-opacity:1"
           id="path299"
           d="m 307.1361,104.54253 c 1.88938,0.1103 3.78438,0.0957 5.67544,0.0409 0.47473,-0.0101 0.94923,-0.0279 1.42375,-0.0448 1.46891,0 1.46891,-2.07734 0,-2.07734 v 0 c -0.47452,-0.0169 -0.94902,-0.0347 -1.42375,-0.0448 -1.89106,-0.0548 -3.78606,-0.0694 -5.67544,0.0409 -1.47436,0 -1.47436,2.08506 0,2.08506 z" /><path
           style="fill:#000000;fill-opacity:1;stroke:none;stroke-width:2;stroke-linecap:round;stroke-linejoin:round;stroke-miterlimit:2;stroke-dasharray:none;stroke-opacity:1"
           id="path300"
           d="m 309.45747,104.6361 c -0.0865,2.10799 -0.4374,4.19395 -0.75369,6.27674 -0.32025,1.52374 -0.16446,0.76526 -0.4676,2.27539 -0.32603,1.55996 1.88008,2.02104 2.20611,0.46108 v 0 c 0.33687,-1.55058 0.16875,-0.75133 0.50242,-2.39815 0.32826,-2.18684 0.74775,-4.39518 0.59782,-6.61506 0,-1.47436 -2.08506,-1.47436 -2.08506,0 z" /><path
           style="fill:#000000;fill-opacity:1;stroke:none;stroke-width:2;stroke-linecap:round;stroke-linejoin:round;stroke-miterlimit:2;stroke-dasharray:none;stroke-opacity:1"
           id="path304"
           d="m 317.42889,106.32641 c -0.85534,2.0917 -1.11643,4.39495 -1.0319,6.64047 0.0688,0.28987 0.0912,0.59485 0.20637,0.86961 0.56241,1.34188 1.98286,1.62981 3.29461,1.43493 0.33149,-0.0493 0.6495,-0.16551 0.97425,-0.24827 0.32313,-0.15618 0.66469,-0.27892 0.96939,-0.46855 1.51169,-0.94079 2.62497,-2.46454 3.28732,-4.09568 0.15358,-0.37819 0.25042,-0.77702 0.37563,-1.16552 0.0519,-0.35923 0.16847,-0.71496 0.15555,-1.07768 -0.0601,-1.68731 -0.99039,-3.31992 -2.38781,-4.26218 -0.28247,-0.19046 -0.60485,-0.31373 -0.90727,-0.4706 -0.31481,-0.0797 -0.62003,-0.22427 -0.94444,-0.23905 -1.75419,-0.0799 -3.11958,1.06265 -4.00585,2.4662 -0.18242,0.2889 -0.31214,0.60789 -0.46821,0.91184 -0.0908,0.26417 -0.18153,0.52834 -0.27229,0.79251 -0.51085,1.43354 1.51647,2.15598 2.02732,0.72244 v 0 c 0.0638,-0.16966 0.12766,-0.33932 0.1915,-0.50899 0.46055,-0.88293 0.85403,-1.58506 1.72945,-2.11151 0.10431,-0.0627 0.20418,-0.15246 0.32512,-0.16625 0.15483,-0.0177 0.30746,0.0511 0.46118,0.0766 0.14896,0.0652 0.31084,0.10649 0.44687,0.19555 0.62987,0.4124 1.07321,1.04319 1.39867,1.70637 0.0896,0.18265 0.21163,0.36235 0.23129,0.56485 0.0229,0.23576 -0.0721,0.46821 -0.10823,0.70231 -0.58681,1.74984 -1.39429,3.41016 -3.08366,4.32913 -0.74098,0.23069 -0.39541,0.15677 -1.16919,0.26179 -0.10239,0.0139 -0.21603,-0.009 -0.30756,0.0388 -0.0415,0.0217 0.007,0.10738 -0.0292,0.13758 -0.0265,0.0223 -0.0853,0.003 -0.0999,-0.0288 -0.0582,-0.12556 -0.0668,-0.2686 -0.10021,-0.4029 0.0202,-1.91148 0.29134,-3.81159 0.69385,-5.67862 0.65501,-1.31002 -1.19764,-2.23635 -1.85265,-0.92633 z" /><path
           style="fill:#000000;fill-opacity:1;stroke:none;stroke-width:2;stroke-linecap:round;stroke-linejoin:round;stroke-miterlimit:2;stroke-dasharray:none;stroke-opacity:1"
           id="path305"
           d="m 329.59526,116.19752 c 0.67251,-2.05566 1.15978,-4.16597 1.55985,-6.29012 0.14749,-0.87525 0.35531,-1.73817 0.50318,-2.61333 0.0344,-0.20383 0.0655,-0.40827 0.0928,-0.61318 0.065,-0.48867 -0.10868,-0.47471 0.0814,-0.47954 -0.0554,0.10116 -0.13265,0.19314 -0.16626,0.30348 -0.004,0.0135 0.15461,0.003 0.3157,0.0172 0.17417,0.0152 0.35067,0.0196 0.52134,0.0574 0.45295,0.10055 0.89499,0.32155 1.31427,0.50398 0.52922,0.26839 1.45177,0.63419 1.36539,1.40541 -0.0342,0.30542 -0.26097,0.52914 -0.43228,0.75764 -0.72715,0.98638 -1.85858,1.46952 -3.04976,1.58622 -0.14997,8.5e-4 -0.29994,0.002 -0.44992,0.003 -1.50018,0.006 -1.49122,2.12792 0.009,2.12158 v 0 c 0.218,-7.1e-4 0.436,-0.001 0.65401,-0.002 0.2454,-0.025 0.49308,-0.0333 0.7362,-0.075 1.27098,-0.21829 2.50735,-0.83489 3.4041,-1.77268 0.24794,-0.25929 0.43289,-0.57221 0.64933,-0.85832 0.16971,-0.39205 0.41507,-0.75942 0.50914,-1.17614 0.45212,-2.00285 -0.95586,-3.26164 -2.56902,-4.03547 -1.22277,-0.46643 -2.25738,-0.84743 -3.57457,-0.47928 -0.17229,0.0482 -0.35101,0.0991 -0.49706,0.20238 -0.23347,0.16515 -0.41531,0.39327 -0.62297,0.5899 -0.52447,1.31021 -0.61706,2.76469 -0.98729,4.1231 -0.42846,2.05701 -0.9536,4.09446 -1.36403,6.15364 -0.40355,1.41243 1.59392,1.98314 1.99747,0.57071 z" /><path
           style="fill:#000000;fill-opacity:1;stroke:none;stroke-width:2;stroke-linecap:round;stroke-linejoin:round;stroke-miterlimit:2;stroke-dasharray:none;stroke-opacity:1"
           id="path306"
           d="m 339.92457,105.9411 c -0.39284,1.64703 -0.82853,3.2832 -1.2965,4.91036 -0.30497,1.22419 -0.65691,2.44127 -0.71768,3.70703 -0.002,0.77316 0.025,1.56006 1.0012,1.85335 0.70448,0.21164 1.23401,-0.25197 1.74862,-0.57706 1.31057,-1.02873 2.27154,-2.40586 3.3827,-3.63057 0.15285,-0.17822 0.29671,-0.36457 0.45856,-0.53466 0.12306,-0.12933 0.26677,-0.23748 0.39467,-0.36203 0.6847,-0.66682 1.32963,-1.37253 1.91286,-2.12911 0.27493,-0.29306 0.43646,-0.66005 0.70648,-0.95684 0.0389,-0.0428 0.18076,-0.13823 0.12603,-0.11943 -1.00615,0.34565 -0.22121,0.44954 -1.39488,-0.0529 -0.003,1.45263 -0.0644,2.89746 -0.27344,4.33669 -0.22577,1.33392 -0.32912,2.68797 -0.55791,4.02062 -0.0249,0.13934 -0.0498,0.27868 -0.0747,0.41803 0.006,-0.005 0.0121,-0.011 0.0182,-0.0165 -0.54634,1.33407 1.34032,2.10672 1.88667,0.77265 v 0 c 0.21376,-0.48261 0.12439,-0.22027 0.25168,-0.79246 0.26093,-1.35349 0.41167,-2.72433 0.63512,-4.0833 0.26646,-1.77655 0.44035,-3.60051 0.0613,-5.37465 -0.3417,-0.32632 -0.58064,-0.81866 -1.02511,-0.97895 -0.8951,-0.3228 -1.53415,1.01011 -2.01673,1.49942 -0.8496,1.01056 -1.79104,1.93353 -2.69984,2.88696 -1.03339,1.10532 -1.93809,2.32551 -3.02973,3.37407 -0.0744,0.073 -0.26244,0.12238 -0.22324,0.21897 0.0492,0.12124 0.27108,0.049 0.36779,0.1372 0.58491,0.53314 0.39644,1.04481 0.41576,0.21295 0.0843,-1.10274 0.53931,-2.13383 0.76555,-3.21 0.50995,-1.71866 0.99587,-3.4554 1.23097,-5.23639 0.20752,-1.45263 -1.84681,-1.74611 -2.05433,-0.29348 z" /><path
           style="fill:#000000;fill-opacity:1;stroke:none;stroke-width:2;stroke-linecap:round;stroke-linejoin:round;stroke-miterlimit:2;stroke-dasharray:none;stroke-opacity:1"
           id="path307"
           d="m 350.7181,106.78958 c -0.13072,1.8013 -0.38165,3.5984 -0.68378,5.37918 -0.13037,0.93172 -0.39315,1.83736 -0.52746,2.7684 -0.13206,0.9154 0.0118,0.14058 -0.10919,0.76064 -0.182,0.89962 -0.43136,1.57886 1.00314,2.07105 0.40343,0.13842 1.15671,-0.67607 1.42495,-0.93366 1.12873,-1.19406 2.34408,-2.29157 3.34067,-3.603 0.69465,-0.91782 1.31192,-1.88803 2.01861,-2.79898 0.44908,-0.7336 1.11264,-1.28143 1.67289,-1.91902 0.0424,-0.0432 0.10808,-0.0721 0.12734,-0.12947 0.0163,-0.0486 -0.0662,0.10446 -0.11733,0.0997 -0.42068,-0.0396 -0.83219,-0.14717 -1.24693,-0.2279 -0.0409,-0.008 -0.099,-0.0745 -0.1191,-0.038 -0.0588,0.1068 -0.0366,0.24106 -0.0586,0.36095 -0.0385,0.20967 -0.0818,0.4184 -0.12271,0.6276 -0.24068,1.55722 -0.58158,3.09753 -0.8176,4.65515 -0.0352,0.82335 -0.2845,1.6075 -0.45159,2.40732 -0.069,0.45403 -0.0481,0.25456 -0.0753,0.59699 -0.21014,1.43025 1.81255,1.72743 2.02268,0.29718 v 0 c 0.0618,-0.2749 0.0311,-0.12284 0.0875,-0.45707 0.18438,-0.82993 0.42966,-1.64596 0.51779,-2.49553 0.28461,-1.55762 0.702,-3.09268 0.85414,-4.67383 0.051,-0.4122 0.3008,-2.03111 -0.10233,-2.34762 -1.00252,-0.7871 -1.40261,-0.68377 -2.04954,-0.0424 -0.59429,0.67085 -1.35584,1.20008 -1.81447,1.99253 -0.6883,0.91335 -1.29604,1.8863 -2.03552,2.75822 -0.98415,1.22179 -2.13384,2.28139 -3.16325,3.46309 -0.10531,0.12218 -0.34586,0.20803 -0.31595,0.36653 0.024,0.12708 0.29357,-0.075 0.3877,0.0137 0.36281,0.34176 0.55396,0.83474 0.89693,1.1964 0.0428,0.0452 0.12988,-0.7697 0.16722,-0.79823 0.27547,-1.1897 0.49351,-2.39378 0.80165,-3.57726 0.35605,-1.89603 0.62173,-3.84062 0.55112,-5.77265 0,-1.45933 -2.0638,-1.45933 -2.0638,0 z" /></g><g
         id="g294"><path
           style="display:inline;fill:#000000;fill-opacity:1;stroke:none;stroke-width:2;stroke-linecap:round;stroke-linejoin:round;stroke-miterlimit:2;stroke-dasharray:none;stroke-opacity:1"
           id="path294"
           d="m 275.09085,148.32432 c 0.32245,-3.62992 0.29051,-7.27837 0.49218,-10.91542 0.14168,-2.55511 0.33676,-5.10699 0.49407,-7.66119 0.30981,-5.75967 0.44754,-11.53272 1.38699,-17.23181 0.9021,-4.82262 1.89479,-9.62593 2.7441,-14.45801 0.8126,-3.86242 1.45538,-7.75255 2.06957,-11.65019 0.45064,-2.62101 0.33837,-5.2908 0.61831,-7.926032 0.16409,-1.544705 0.38353,-3.083157 0.55106,-4.627492 0.39799,-3.271793 0.31202,-6.566921 0.39619,-9.85223 0.0151,-0.589729 0.1782,-3.533196 0.20926,-4.108691 0.16252,-2.410566 0.22765,-4.875117 0.52695,-7.274146 0.15515,-1.243667 0.41621,-2.471873 0.61018,-3.710082 0.32091,-2.908223 0.76419,-5.797692 1.19623,-8.690523 0.42587,-3.167741 0.75751,-6.338607 0.83962,-9.534884 -0.14853,-1.876917 0.10592,-3.71779 0.28516,-5.578547 0.0159,-0.223215 0.0251,-0.447009 0.0477,-0.669647 0.0136,-0.134547 -0.91566,1.440943 -0.34818,1.627669 0.70125,0.230739 1.47012,0.137405 2.20609,0.195219 1.0069,0.0791 2.01489,0.143666 3.02234,0.215499 5.00397,0.40399 10.00563,0.844973 14.99917,1.360561 3.39188,0.259057 6.77959,0.571499 10.17369,0.802298 4.03858,0.376343 8.04806,0.924548 12.10215,1.115803 3.42499,-0.04244 6.83481,0.248898 10.25412,0.384108 1.57486,0.0799 3.15963,-0.02606 4.73372,0.04521 0.8378,0.03794 1.66981,0.158587 2.5047,0.238161 3.18708,0.180176 6.36338,0.427539 9.54522,0.689655 2.89461,0.143814 5.79393,0.155595 8.68986,0.053 1.98796,-0.191081 3.93711,0.357971 5.89009,0.663566 1.19435,0.238438 2.42228,0.164333 3.61896,0.373846 0.0979,0.01715 -0.20899,0.02649 -0.29772,-0.01839 -1.49623,-0.756742 -0.25526,-0.366813 -1.0048,-0.584761 -0.55964,2.483177 -1.32608,4.922216 -2.0175,7.374626 -0.72685,2.744708 -1.37697,5.500318 -1.72551,8.319947 -0.43367,4.033115 -1.1133,8.035223 -1.51901,12.070888 -0.35715,3.817905 -0.73004,7.635242 -1.02134,11.458999 -0.42222,3.708982 -0.99469,7.398663 -1.40518,11.11018 -0.24225,2.05972 -0.17193,4.13427 -0.24316,6.20101 -0.0545,1.5801 -0.20456,3.16067 -0.29183,4.73949 -0.0493,2.6973 -0.5739,5.34954 -0.91507,8.01696 -0.31777,2.87566 -0.5801,5.75601 -0.92246,8.62893 -0.18282,2.96043 -0.57335,5.8947 -0.95848,8.83337 -0.24854,3.29645 -0.63927,6.57108 -1.04388,9.85039 -0.18038,2.8568 -0.71202,5.66988 -1.08086,8.50353 -0.2869,2.54221 -0.6046,5.07971 -0.93207,7.61768 -0.10311,1.69713 -0.39905,3.37323 -0.56889,5.06341 -0.12838,1.27754 0.002,0.52581 -0.16375,1.37036 -0.0559,0.27571 -0.11174,0.55143 -0.1676,0.82714 -0.0434,0.28199 -0.0765,0.56577 -0.1303,0.84597 -0.0184,0.0957 -0.0919,0.37684 -0.0857,0.27957 0.0605,-0.94568 0.60683,-0.85313 -0.65013,-0.83162 -5.29525,-0.20357 -10.58817,-0.47878 -15.87308,-0.87008 -0.74721,-0.0815 -1.49606,-0.14926 -2.24164,-0.24454 -0.69863,-0.0893 -1.39346,-0.20603 -2.09019,-0.30905 -0.7056,-0.0991 -1.40982,-0.20851 -2.11679,-0.29736 -2.09171,-0.26288 -4.17549,-0.38822 -6.28041,-0.47329 -2.43546,-0.1139 -4.87442,0.0796 -7.30908,0.0464 -0.5968,-0.008 -2.56698,-0.14451 -3.14039,-0.18189 -3.65239,-0.14776 -7.29058,-0.45791 -10.93865,-0.6767 -2.16284,-0.21036 -4.35041,0.0507 -6.50986,-0.19249 -0.99707,-0.11231 -1.98272,-0.30965 -2.97455,-0.46148 -3.33012,-0.38517 -6.67379,-0.51741 -10.00254,-0.92936 -2.2268,-0.45898 -4.53786,-0.21371 -6.77117,-0.5271 -1.90215,-0.40918 -3.84169,-0.61394 -5.7542,-0.95699 -0.95843,-0.19383 -1.92663,-0.31383 -2.90073,-0.38761 -3.62527,-0.30939 -4.06281,4.81751 -0.43754,5.1269 v 0 c 0.81387,0.0821 1.61253,0.25001 2.41086,0.42666 2.00553,0.36026 4.02552,0.66768 6.03869,0.9701 2.25973,0.26057 4.53437,0.39939 6.78032,0.79238 3.28408,0.3607 6.58544,0.4952 9.86739,0.87783 1.12025,0.14795 2.2366,0.32837 3.36037,0.44671 2.17936,0.2295 4.38019,0.14886 6.56297,0.33677 3.63403,0.21634 7.26769,0.42397 10.90417,0.59065 3.52835,0.24267 7.05314,0.16676 10.58735,0.22518 1.9116,0.0796 3.79998,0.19737 5.69729,0.45769 4.72272,0.64796 -0.70239,-0.0266 4.37071,0.6853 0.79373,0.11138 1.59129,0.1936 2.38694,0.29041 5.71327,0.59126 11.50946,1.2095 17.23988,0.52789 1.52034,-0.34216 2.47968,-0.36317 3.71998,-1.48184 1.15108,-1.03818 1.29874,-2.45693 1.52759,-3.85835 0.49506,-2.26906 0.78714,-4.59419 1.02616,-6.90172 0.23728,-2.48684 0.53399,-4.96822 0.80821,-7.45127 0.47674,-2.86975 1.03739,-5.73143 1.26809,-8.6354 0.36411,-3.25061 0.75834,-6.49636 0.97239,-9.76035 0.41811,-2.96053 0.72307,-5.93063 0.93343,-8.91269 0.35498,-2.84655 0.64957,-5.6988 0.86799,-8.55945 0.40511,-2.77997 0.94104,-5.54226 1.0163,-8.36056 0.30561,-3.59749 0.49616,-7.19938 0.7223,-10.80243 0.13799,-1.8942 0.28018,-3.7979 0.54851,-5.67958 0.38728,-2.715885 0.21852,-0.648098 0.5744,-3.624554 0.0765,-0.640082 0.11784,-1.283885 0.17676,-1.925828 0.25756,-3.783909 0.74303,-7.54887 1.1479,-11.319036 0.36198,-4.004294 1.00312,-7.969904 1.26832,-11.98431 0.27293,-2.542495 0.85149,-5.020067 1.58972,-7.467047 0.9193,-3.234515 -0.0186,0.132969 0.79675,-2.994932 0.50174,-1.924838 1.23159,-3.804782 1.27605,-5.821517 -0.0822,-0.680469 0.0113,-1.406295 -0.24646,-2.041405 -1.14772,-2.82836 -4.02295,-2.836269 -6.56878,-3.116356 -2.22339,-0.286512 -4.44912,-0.60614 -6.69572,-0.586392 -2.76721,-0.05786 -5.53776,-0.05136 -8.29964,-0.257818 -3.15107,-0.13878 -6.29468,-0.440744 -9.44727,-0.573664 -2.46809,-0.178464 -4.93284,-0.15282 -7.40126,-0.294283 -3.41329,-0.229274 -6.82224,-0.529316 -10.24528,-0.572706 -4.03312,-0.237327 -8.04637,-0.632145 -12.06509,-1.039596 -3.29867,-0.17215 -6.60585,-0.356922 -9.87831,-0.815452 -5.1127,-0.633679 -10.22181,-1.343064 -15.36406,-1.68464 -2.61423,-0.05133 -6.49648,-0.519014 -8.87441,0.875029 -1.0791,0.632618 -1.35037,1.88259 -1.46606,2.978045 -0.28084,1.993999 -0.57526,3.98555 -0.52227,6.007292 -0.12037,2.991615 -0.4532,5.955284 -0.77877,8.930415 -0.41172,2.871405 -0.82417,5.744829 -1.32803,8.601294 -0.61823,3.82085 -0.98839,7.679705 -1.23303,11.541802 -0.26683,4.578314 -0.34579,9.164692 -0.69205,13.738894 -0.33087,4.110055 -0.59728,8.226255 -1.03193,12.326465 -0.45378,3.84198 -1.26088,7.61845 -2.05248,11.40301 -0.92698,4.83254 -2.09937,9.61806 -2.78144,14.4955 -1.092,5.8854 -1.57158,11.85045 -1.89289,17.82399 -0.40344,6.31036 -0.74846,12.64372 -0.13769,18.9551 0,3.66402 5.1817,3.66402 5.1817,0 z" /></g></g></g></svg>
