<?xml version="1.0" encoding="UTF-8" standalone="no"?>
<!-- Created with Inkscape (http://www.inkscape.org/) -->

<svg
   width="180"
   height="180"
   viewBox="0 0 180 180"
   version="1.1"
   id="svg1"
   xml:space="preserve"
   xmlns="http://www.w3.org/2000/svg"
   xmlns:svg="http://www.w3.org/2000/svg"><defs
     id="defs1" /><g
     id="g270"
     style="display:inline"
     transform="translate(-6,-116)"><g
       id="g265"
       style="display:inline"><g
         id="g230"
         style="display:inline;fill:#ff9966"
         transform="matrix(1.3220834,0,0,1.3220834,-240.31957,-148.58908)"><path
           style="fill:#ff9966;fill-opacity:1;stroke-width:1.25;stroke-linecap:round;stroke-linejoin:round;stroke-miterlimit:2"
           d="m 254.45264,170.32813 c -4.75817,-0.15095 -9.58871,0.66021 -13.78521,2.99682 -4.55527,2.49056 -8.89572,5.75483 -11.83491,10.09058 -2.75671,4.87919 -4.12553,10.44857 -4.43018,16.02051 -0.21282,1.50928 -0.9722,2.94839 -0.43798,4.49951 2.20187,11.30553 5.19749,22.4444 8.20507,33.5581 2.29006,8.17659 5.06974,16.21045 7.29493,24.40332 1.09934,2.32261 3.66027,3.47817 5.6914,4.86329 5.57335,3.00488 11.82858,4.42882 17.889,6.11103 10.13524,2.65665 20.62309,3.45065 30.96842,4.90752 5.85176,0.89299 11.76412,1.20103 17.67918,1.05278 1.77699,-0.15571 3.67247,0.27044 5.37209,-0.26518 0.53755,-2.12517 0.10965,-4.45369 0.17083,-6.65742 -0.18361,-6.78758 -0.83916,-13.60103 -2.85229,-20.1159 -4.48891,-15.54196 -10.53274,-30.73603 -18.945,-44.58996 -0.51034,-1.05876 -1.42438,-1.69772 -2.54785,-1.90284 -1.27647,-1.82008 -1.52916,-4.2371 -2.38251,-6.29555 -2.2316,-6.78596 -4.87388,-13.69602 -9.93648,-18.92053 -3.10147,-3.59812 -7.34912,-5.84904 -11.68771,-7.60479 -2.96914,-1.41263 -6.19199,-2.21621 -9.49257,-2.10184 -1.64544,-0.0527 -3.29208,-0.0637 -4.93823,-0.0495 z m -16.91309,32.28222 c 8.49079,1.36606 16.95298,3.08028 25.55475,3.64198 4.97143,0.48966 10.0204,0.20018 14.95306,0.72326 1.05298,1.03686 -0.14925,2.99449 -1.60448,2.34271 -13.06154,0.29993 -25.94961,-1.65069 -38.71632,-4.12738 -1.43066,0.13784 -2.07698,-2.14591 -0.66748,-2.55762 0.1572,-0.0365 0.32061,-0.0297 0.48047,-0.0229 z m 12.55762,34.8545 c 11.45986,2.61706 23.08438,4.66404 34.83629,5.35655 3.77545,0.40666 7.63964,0.51168 11.33314,1.37684 1.09474,0.95263 -0.0445,2.92709 -1.46289,2.29639 -10.1662,-1.32524 -20.46543,-1.4733 -30.51261,-3.50038 -4.97596,-0.96934 -10.03417,-1.66173 -14.83114,-3.16564 -1.27851,-0.58018 -0.42244,-2.2384 0.63721,-2.36376 z"
           id="path223"
           transform="matrix(0.75638193,0,0,0.75638193,30.496991,112.3901)" /><path
           style="fill:#ff9966;fill-opacity:1;stroke-width:1.25;stroke-linecap:round;stroke-linejoin:round;stroke-miterlimit:2"
           d="m 254.86963,163.58545 c -4.59543,0.13009 -8.98116,1.81435 -13.29844,3.24745 -5.52316,2.01581 -10.49723,5.78674 -13.75527,10.68907 -0.42845,1.34726 1.44125,1.4657 1.97754,0.49854 5.94164,-5.69608 13.5968,-10.22987 22.04864,-10.26736 5.75884,-0.0651 11.8225,-0.59306 17.13495,1.87039 4.36435,1.99031 9.03847,3.80013 12.31299,7.41552 4.1828,3.99274 7.12551,9.05416 9.39356,14.32569 1.95405,2.94862 2.73515,6.48744 4.49658,9.5542 4.52016,8.48069 9.47226,16.75916 13.11723,25.67749 3.84603,9.36106 7.31924,19.07075 9.7771,28.88437 1.74329,6.94463 1.57777,14.1386 1.70235,21.26138 -0.11695,0.79596 0.56164,1.28556 0.90332,1.80127 -0.1692,1.00048 0.0876,3.10252 1.50393,2.06954 1.41284,-1.33083 3.52556,-2.16013 4.4614,-3.84249 -0.63069,-7.22155 -1.88679,-14.38508 -2.84961,-21.55908 -1.30007,-6.50077 -2.18034,-13.11579 -4.45187,-19.38975 -1.43277,-4.98204 -3.71224,-9.64553 -6.3381,-14.09649 -2.4478,-4.25853 -3.74677,-9.06909 -6.35749,-13.23544 -3.10223,-5.87704 -4.96058,-12.23769 -7.40775,-18.37906 -2.24249,-5.30911 -4.9697,-10.57331 -9.30336,-14.49141 -4.04015,-4.15983 -9.06117,-7.25127 -14.51463,-9.1897 -1.86913,-0.76664 -3.81436,-1.41773 -5.80551,-1.66493 -2.81331,-1.19868 -6.02681,-0.84328 -9.01904,-1.08985 -1.90912,-0.0443 -3.8187,-0.10192 -5.72852,-0.0893 z"
           id="path224"
           transform="matrix(0.75638193,0,0,0.75638193,30.496991,112.3901)" /></g><g
         id="g240"
         transform="matrix(1.3220834,0,0,1.3220834,-240.31957,-148.58908)"
         style="display:inline"><path
           style="fill:#ffc666;fill-opacity:1;stroke-width:3.78191;stroke-linecap:round;stroke-linejoin:round;stroke-miterlimit:2"
           id="path231"
           d="m 211.30735,272.5596 c 1.30887,0.20308 2.62525,0.32062 3.9481,0.37741 0.97749,0.0315 1.95544,0.008 2.93309,-7.6e-4 0.94765,-0.0472 1.88445,0.0264 2.82382,0.14326 1.39451,0.11504 2.74859,0.47325 4.1256,0.69811 1.27641,0.22399 2.5378,0.51454 3.81826,0.71856 0.23157,0.0285 0.46265,0.0612 0.6947,0.0855 0.54137,0.0567 0.68645,0.0458 1.22007,0.10784 0.64807,0.0753 1.29148,0.20661 1.93512,0.31131 1.11613,0.18078 2.24442,0.2421 3.37336,0.22603 0.66032,-0.0163 1.32071,-0.0256 1.98122,-0.0274 0.47615,-4.2e-4 0.95229,0.002 1.42844,0.002 3.20906,0.004 3.21395,-4.53482 0.005,-4.53829 v 0 c -0.48197,-5.1e-4 -0.96393,-0.002 -1.4459,-0.002 -0.67934,0.002 -1.35858,0.011 -2.03772,0.0279 -0.8622,0.0142 -1.72369,-0.0293 -2.57635,-0.16779 -1.28633,-0.20882 -2.56974,-0.41427 -3.87061,-0.508 -1.27691,-0.19897 -2.53108,-0.50433 -3.80541,-0.71651 -1.43466,-0.22562 -2.84284,-0.61371 -4.29644,-0.72224 -1.13399,-0.13605 -2.26929,-0.22604 -3.4125,-0.17645 -0.90095,0.008 -1.80215,0.0299 -2.70302,0.005 -1.13678,-0.0466 -2.26784,-0.14566 -3.39264,-0.31966 -3.16539,-0.52756 -3.91149,3.94898 -0.74609,4.47654 z" /><path
           style="fill:#ffc666;fill-opacity:1;stroke-width:3.78191;stroke-linecap:round;stroke-linejoin:round;stroke-miterlimit:2"
           id="path232"
           d="m 220.80501,299.23906 c 1.536,0.13538 3.07754,0.1481 4.61533,0.2568 0.9939,0.0592 1.98057,0.23138 2.95733,0.42003 0.77695,0.13105 1.539,0.33106 2.29798,0.53975 0.79333,0.30035 1.63253,0.42943 2.46713,0.55378 0.8382,0.11493 1.65789,0.31437 2.4818,0.49922 0.93344,0.1713 1.87815,0.26066 2.81287,0.42104 1.13414,0.15667 2.22704,0.51086 3.35043,0.73243 1.08595,0.14637 2.17874,0.27061 3.27358,0.33148 0.9288,0.13887 1.8664,0.1843 2.80412,0.20422 0.77114,0.11098 1.54662,0.16464 2.32487,0.18612 0.60681,0.0103 1.21365,-0.002 1.82045,-0.006 0.30838,0.0427 0.6455,-0.0606 0.95131,-0.002 0.0494,0.01 -0.10054,0.004 -0.15081,0.006 0.52758,0.12869 1.06727,0.17916 1.60864,0.19494 0.081,2.3e-4 0.16207,4.5e-4 0.24311,6.8e-4 3.20906,6.7e-4 3.20999,-4.53763 7.6e-4,-4.53829 v 0 c -0.0453,2e-4 -0.0906,4e-4 -0.13589,6e-4 -0.32939,-0.004 -0.65039,-0.0569 -0.97108,-0.13453 -0.52865,-0.0604 -1.05103,-0.0877 -1.5833,-0.0656 -0.55454,0.005 -1.10912,0.0148 -1.66369,0.008 -0.7883,-0.0196 -1.56752,-0.11081 -2.35196,-0.18674 -0.88934,-0.0173 -1.77401,-0.0793 -2.65597,-0.19879 -0.88646,-0.0439 -1.76926,-0.15701 -2.65053,-0.25489 -1.15754,-0.21909 -2.27829,-0.60563 -3.44938,-0.75048 -0.86305,-0.14713 -1.73271,-0.24293 -2.59751,-0.37885 -0.93078,-0.20153 -1.8555,-0.42928 -2.801,-0.55793 -0.659,-0.0954 -1.31226,-0.19481 -1.93589,-0.44277 -0.87372,-0.23618 -1.75002,-0.468 -2.6433,-0.61944 -1.1524,-0.21618 -2.31302,-0.42115 -3.48503,-0.48851 -1.47722,-0.10392 -2.95706,-0.12574 -4.43338,-0.24028 -3.18943,-0.35438 -3.6906,4.15615 -0.50117,4.51053 z" /><path
           style="fill:#cc6633;fill-opacity:1;stroke-width:3.78191;stroke-linecap:round;stroke-linejoin:round;stroke-miterlimit:2"
           id="path233"
           d="m 205.79413,256.82397 c 0.14776,-0.0423 0.0281,7.5e-4 0.19376,-0.32828 0.3866,-0.76817 0.79401,-1.51078 1.24072,-2.24557 0.42646,-0.66455 0.97138,-1.24602 1.49448,-1.83566 0.28335,-0.25062 0.59515,-0.49819 0.90321,-0.73221 0.60368,-0.42129 1.16625,-0.8897 1.72114,-1.3729 0.58915,-0.38599 1.05211,-0.92174 1.51702,-1.44258 0.025,-0.0184 0.0524,-0.034 0.075,-0.0553 0.0933,-0.0881 0.17911,-0.18389 0.27215,-0.27227 0.0153,-0.0145 0.067,-0.0506 0.0521,-0.0357 -0.0436,0.0436 -0.091,0.0832 -0.13867,0.12219 -0.1762,0.14423 -0.30215,0.15918 0.30363,-0.0939 0.66985,-0.2845 1.33064,-0.57457 2.01627,-0.81987 0.77682,-0.2878 1.56416,-0.5292 2.30562,-0.90117 0.42905,-0.15375 0.79175,-0.43416 1.17632,-0.66841 0.15385,-0.0937 0.32076,-0.16417 0.47905,-0.25019 0.0635,-0.029 0.12362,-0.0675 0.1907,-0.087 0.0113,-0.003 -0.0194,0.0281 -0.009,0.0342 0.0227,0.0134 0.0524,0.007 0.0788,0.007 0.25736,0.005 0.51481,-4.2e-4 0.77234,0.005 0.86588,0.0244 1.73196,0.0386 2.59816,0.0427 0.54324,4.3e-4 1.08647,-0.002 1.62971,-0.002 0.7806,-5.5e-4 1.5612,-3e-4 2.3418,-2.2e-4 0.48581,0.0538 0.96383,0.18401 1.42564,0.34272 0.56471,0.13473 1.09874,0.35993 1.64944,0.53919 0.91656,0.25911 1.77855,0.6726 2.65953,1.02881 0.45781,0.18688 0.90081,0.39748 1.31759,0.66432 0.48402,0.35433 1.04312,0.59299 1.53378,0.93431 0.27717,0.20139 0.61969,0.31709 0.88575,0.53663 0.008,0.006 -0.009,0.0201 -0.004,0.028 0.0663,0.10118 0.15789,0.18322 0.23707,0.27462 0.44137,0.50568 0.96399,0.93363 1.4209,1.42219 0.67864,0.78293 1.48354,1.43837 2.20474,2.17926 0.35047,0.4778 0.897,0.80271 1.23295,1.29199 0.0365,0.0531 -0.127,-0.20252 -0.13454,-0.13858 -0.01,0.0846 0.0831,0.14869 0.12459,0.22304 0.35103,0.68295 0.84215,1.27238 1.23741,1.92987 0.40943,0.62757 0.61631,1.34462 0.86646,2.04332 0.2598,0.49207 0.39757,1.03251 0.63684,1.53339 0.54924,1.14973 0.0823,0.0973 0.315,0.62676 0.1893,0.45954 0.38683,0.9025 0.55755,1.29842 0.15667,0.43791 0.45201,0.8009 0.62889,1.22913 0.16335,0.40425 0.34695,0.80083 0.51093,1.20468 0.0234,0.0576 0.0489,0.23917 0.0566,0.17753 0.0778,-0.61991 -0.32419,-1.46763 0.15555,-1.86786 0.80713,-0.67338 2.03254,-0.53701 3.04882,-0.80551 0.0805,0.0519 0.14701,0.17064 0.24165,0.15567 0.0667,-0.0105 -0.0633,-0.11925 -0.095,-0.17885 -0.0564,-0.10595 -0.1143,-0.21111 -0.16933,-0.31778 -0.16928,-0.32814 -0.28607,-0.64242 -0.41041,-0.98875 -0.28936,-0.92913 -0.67606,-1.8224 -1.0603,-2.71504 -0.4351,-0.92545 -0.82558,-1.87081 -1.2517,-2.80022 -0.36986,-0.80458 -0.73753,-1.61082 -1.05901,-2.43633 -0.37158,-0.84191 -0.76222,-1.67859 -1.21801,-2.47848 -0.44044,-0.73042 -0.79163,-1.5044 -1.26987,-2.21166 -0.0399,-0.0591 -0.0829,-0.11608 -0.11948,-0.17726 -0.008,-0.0126 0.0392,0.0432 0.0318,0.0305 -0.0704,-0.11959 -0.14455,-0.23694 -0.21767,-0.35489 -0.12667,-0.20435 -0.20787,-0.30877 -0.10257,-0.16948 -0.35817,-0.70455 -0.97466,-1.20197 -1.58748,-1.67359 -0.45867,-0.32248 -0.88749,-0.71535 -1.40137,-0.95278 -0.10336,-0.0477 0.1945,0.11845 0.29174,0.17769 -0.36662,-0.28038 -0.40582,-0.39909 -0.71863,-0.5971 -0.17402,-0.11016 -0.36368,-0.19362 -0.54159,-0.29736 -0.0523,-0.0305 0.10959,0.0516 0.16439,0.0774 -0.35315,-0.22765 -0.86932,-0.52382 -1.41333,-0.78466 -2.90453,-1.36447 -4.83418,2.74315 -1.92965,4.10762 v 0 c 0.34684,0.15601 0.63193,0.33433 0.95408,0.54025 0.008,0.005 -0.0142,-0.0119 -0.0213,-0.0178 0.12981,0.0728 0.24895,0.16929 0.38943,0.21845 0.10494,0.0368 -0.18974,-0.11626 -0.28058,-0.18036 -0.0265,-0.0187 -0.0954,-0.0878 -0.0703,-0.0672 0.98654,0.8087 -0.25779,-0.21992 0.38356,0.33025 0.4836,0.37444 0.98324,0.70706 1.47134,1.07681 0.26819,0.18295 0.56647,0.59062 0.23832,0.0622 -0.0157,-0.0253 0.0307,0.0508 0.0461,0.0762 0.30898,0.55212 0.38635,0.64548 0.72082,1.18558 0.18081,0.21266 0.26901,0.4627 0.39809,0.71182 0.20671,0.39897 0.44948,0.77015 0.65885,1.16713 0.35547,0.58977 0.61675,1.23342 0.91622,1.85236 0.35559,0.90764 0.7601,1.79514 1.16353,2.68222 0.41354,0.89409 0.78355,1.80791 1.20618,2.69803 0.34957,0.811 0.70238,1.62172 0.96211,2.46729 0.27414,0.75026 0.5806,1.47517 0.99529,2.16063 0.12177,0.20127 0.23634,0.40916 0.38527,0.59125 0.21497,0.26284 0.46801,0.49209 0.70201,0.73814 1.14586,-0.17705 2.48441,0.12903 3.43757,-0.53114 1.04358,-0.7228 -0.0915,-2.88698 -0.45252,-3.74432 -0.23611,-0.51072 -0.45924,-0.83648 -0.63017,-1.232 -0.092,-0.12863 0.0138,0.0229 -0.15854,-0.3805 -0.0325,-0.076 -0.0853,-0.14239 -0.11686,-0.21882 -0.4674,-1.1325 0.13094,0.23852 -0.31204,-0.76417 -0.11393,-0.23717 -0.26316,-0.48572 -0.36264,-0.73256 -0.20887,-0.51827 -0.0928,-0.30388 -0.34266,-0.87799 -0.0232,-0.0534 -0.0554,-0.10241 -0.0832,-0.15362 -0.35284,-0.98402 -0.68432,-1.98086 -1.25794,-2.86525 -0.22123,-0.3628 -0.30125,-0.50561 -0.53859,-0.85097 -0.22372,-0.32556 -0.46651,-0.56839 -0.62082,-0.94513 -0.21284,-0.37878 -0.25482,-0.472 -0.57042,-0.89573 -0.3966,-0.53248 -0.96282,-0.92236 -1.3739,-1.44215 -0.72815,-0.73642 -1.52131,-1.40366 -2.20691,-2.18148 -0.41843,-0.41667 -0.85766,-0.80261 -1.25288,-1.24182 -0.58482,-0.65659 -1.23117,-1.24553 -2.03138,-1.63058 -0.53838,-0.34617 -1.10848,-0.63619 -1.63632,-0.99971 -0.64247,-0.39155 -1.3082,-0.7365 -2.00843,-1.01422 -1.00254,-0.40323 -1.98411,-0.86926 -3.02822,-1.15935 -0.51292,-0.12086 -0.98462,-0.41065 -1.51055,-0.4942 -0.93276,-0.31757 -1.90552,-0.54814 -2.89307,-0.58667 -0.78253,-7e-5 -1.56506,-3.3e-4 -2.34759,2.2e-4 -0.53422,6.3e-4 -1.06844,0.003 -1.60266,0.002 -0.84543,-0.004 -1.69073,-0.0184 -2.53585,-0.0421 -1.1284,-0.0187 -2.27201,0.0214 -3.2836,0.59084 -0.55084,0.29937 -1.0641,0.65584 -1.63762,0.90901 -0.50501,0.2737 -1.1535,0.37359 -1.68925,0.62668 -0.76063,0.27364 -1.49801,0.59362 -2.2418,0.90767 -0.2175,0.0922 -0.76134,0.32071 -0.884,0.38839 -0.51001,0.28142 -0.89293,0.71191 -1.30767,1.10841 -0.35073,0.39304 -0.65408,0.75956 -1.11163,1.04209 -0.18534,0.16143 -0.36441,0.34876 -0.55438,0.50054 -0.31007,0.24774 -0.66178,0.44229 -0.96166,0.70403 -0.52916,0.41301 -1.05453,0.83302 -1.52489,1.31362 -0.70206,0.79351 -1.42154,1.58361 -1.97687,2.49002 -0.40544,0.6688 -0.79658,1.33798 -1.15095,2.0356 -0.20373,0.40106 -0.51923,1.0236 -0.67257,1.43812 -0.0854,0.23099 -0.13868,0.47265 -0.20802,0.70898 -0.52756,3.16539 3.94898,3.91148 4.47654,0.74609 z" /><path
           style="fill:#cc6633;fill-opacity:1;stroke-width:3.78191;stroke-linecap:round;stroke-linejoin:round;stroke-miterlimit:2"
           id="path234"
           d="m 270.83735,323.20163 c 0,-0.92083 0,-1.84167 0,-2.7625 0.15122,-0.74998 0.1744,-1.51864 0.19541,-2.28116 0.0529,-0.90927 -0.0286,-1.80698 -0.15512,-2.70576 -0.0764,-0.90765 -0.24591,-1.80066 -0.47999,-2.67974 -0.20192,-0.82978 -0.40011,-1.65951 -0.60012,-2.48953 -0.25246,-0.78143 -0.52104,-1.55509 -0.76377,-2.33972 -0.13785,-0.46828 -0.36301,-0.9016 -0.55524,-1.34763 -0.15341,-0.35597 -0.26603,-0.74195 -0.40074,-1.10409 -0.25431,-0.57228 -0.4309,-1.1756 -0.65438,-1.75906 -0.44869,-1.17149 -0.0787,-0.11582 -0.31957,-0.81445 -0.28803,-0.88768 -0.65945,-1.7434 -0.97776,-2.61944 -0.33013,-0.98884 -0.7349,-1.94811 -1.11306,-2.91854 -0.33999,-0.77334 -0.58352,-1.57883 -0.83407,-2.38391 -0.24416,-0.57286 -0.36378,-1.18584 -0.56442,-1.7732 -0.1381,-0.40427 -0.3101,-0.8309 -0.46619,-1.22922 -0.56925,-1.45717 -1.16512,-2.90449 -1.71574,-4.36911 -0.4811,-1.34738 -1.03858,-2.66102 -1.60033,-3.9758 -0.55967,-1.45095 -1.1331,-2.89758 -1.83539,-4.2862 -0.47356,-0.94936 -0.95707,-1.89635 -1.3841,-2.86794 -0.66921,-1.20571 -1.28353,-2.43878 -1.9296,-3.6566 -0.27175,-0.60578 -0.64225,-1.15883 -0.95895,-1.74002 -0.2717,-0.49859 -0.50801,-1.01968 -0.77344,-1.52217 -0.50688,-0.91099 -0.97755,-1.84134 -1.47361,-2.75805 0.0586,0.34035 -0.46414,-1.12952 -0.43217,-0.8217 0.0255,0.24536 0.41431,0.51805 0.24567,0.69809 -1.0444,0.79492 -2.08881,1.58984 -3.13322,2.38477 -0.0837,-0.0371 -0.185,-0.17491 -0.25108,-0.11151 -0.0615,0.059 0.10457,0.13461 0.15685,0.20191 0.49616,0.71402 0.99596,1.42148 1.54553,2.09531 0.26696,0.29379 0.47275,0.63155 0.72209,0.93985 0.32305,0.39945 0.18462,0.17457 0.33084,0.42967 1.6e-4,0.0192 -0.008,0.0401 5e-4,0.0576 0.0621,0.13891 0.14271,0.26894 0.2071,0.4068 0.23434,0.50172 0.40243,1.04211 0.61668,1.55273 0.35539,1.01191 0.74538,2.00839 1.14919,3.0017 0.38868,1.08879 0.97264,2.08647 1.48164,3.11902 0.49272,1.15803 1.11733,2.25241 1.67183,3.38115 0.49872,0.97072 0.96102,1.95795 1.47644,2.92026 0.51596,1.10364 1.17354,2.1306 1.68922,3.23344 0.73036,1.38337 1.43523,2.78478 2.04577,4.22543 0.32541,0.82596 0.65397,1.65233 0.94895,2.48988 0.19769,0.56131 0.35594,1.12682 0.56471,1.68509 0.35771,0.94481 0.49428,1.94923 0.73892,2.92578 0.20022,0.66091 0.27048,1.34378 0.34202,2.02717 0.16698,1.34719 0.54133,2.6593 1.04807,3.9156 0.73988,1.66583 1.10479,2.50891 4.39522,1.00942 0.84067,-0.3831 -0.0294,-3.10495 -0.19729,-3.79625 -0.37143,-1.57638 -0.61055,-3.18039 -0.9485,-4.76353 -0.18313,-0.85783 -0.30407,-1.27814 -0.52333,-2.10783 -0.5082,-1.87513 -1.18778,-3.70016 -1.97268,-5.47579 -0.57797,-1.43408 -1.30397,-2.79825 -2.02258,-4.16462 -0.51131,-1.15759 -1.04458,-2.3061 -1.53127,-3.47429 -0.61077,-1.56786 -1.39876,-3.05483 -2.17359,-4.54534 -0.69868,-1.50127 -1.57288,-2.91103 -2.43394,-4.32281 -0.59948,-1.0933 -1.19633,-2.18825 -1.79896,-3.27987 -0.56916,-1.05163 -1.18874,-2.07626 -1.75831,-3.12726 -0.43672,-0.86008 -0.95134,-1.67656 -1.43919,-2.50797 -0.29319,-0.55289 -0.64221,-1.06896 -1.03303,-1.55701 -0.18424,-0.23006 -0.27232,-0.29536 -0.1629,-0.21011 -0.28354,-0.4233 -0.58023,-0.84018 -0.84572,-1.27608 -0.0685,-0.10661 -0.14233,-0.20998 -0.20551,-0.31982 -0.16934,-0.29443 -0.24042,-0.52956 -0.44958,-0.83273 -0.26359,-0.38206 -0.47464,-0.4999 -0.28721,-0.3904 -0.074,-0.10227 -0.15201,-0.20184 -0.2222,-0.30679 -0.0246,-0.0367 0.0496,0.0752 0.0849,0.10159 0.009,0.007 0.008,-0.0242 0.004,-0.0353 -0.0434,-0.11992 -0.0924,-0.23786 -0.14459,-0.35419 -0.0669,-0.14917 -0.14187,-0.29464 -0.21281,-0.44196 -1.42618,-2.87473 -5.49166,-0.85781 -4.06548,2.01692 v 0 c 0.26123,0.48381 0.3697,1.04809 0.73853,1.47329 0.0997,0.14438 0.19529,0.29162 0.29898,0.43314 0.006,0.009 0.0104,-0.038 0.0156,-0.0285 0.19755,0.35673 0.34156,0.74557 0.58762,1.0748 0.30204,0.48291 0.62779,0.95055 0.94211,1.42513 0.36008,0.50367 0.77964,0.95659 1.04358,1.52532 0.46523,0.79242 0.95792,1.56905 1.37223,2.38987 0.58009,1.05234 1.1913,2.08726 1.76668,3.14246 0.63524,1.1493 1.2604,2.30421 1.89888,3.45177 0.80909,1.32143 1.62803,2.6418 2.27985,4.04986 0.71689,1.37901 1.4515,2.75207 2.01379,4.204 0.54158,1.28945 1.11977,2.56381 1.70152,3.83562 0.67258,1.27765 1.35475,2.55127 1.89159,3.89431 0.69443,1.5526 1.28235,3.15546 1.73323,4.79601 0.17086,0.64191 0.31454,1.15126 0.45403,1.80503 0.35295,1.65422 0.60197,3.33045 0.99497,4.97654 0.0831,0.3408 0.16195,0.68268 0.24943,1.02239 0.0411,0.15941 0.04,0.60835 0.13609,0.47471 0.24602,-0.34216 -0.0222,-1.10617 0.38783,-1.20334 3.97357,-0.94149 4.42718,1.45837 3.64195,-0.29058 -0.35552,-0.86309 -0.6162,-1.76728 -0.73983,-2.69374 -0.099,-0.89421 -0.20036,-1.79027 -0.45556,-2.6569 -0.29785,-1.14777 -0.44688,-2.33641 -0.90284,-3.4402 -0.2183,-0.53284 -0.35461,-1.09204 -0.54592,-1.63547 -0.31876,-0.9055 -0.67515,-1.79842 -1.02908,-2.69047 -0.6412,-1.49028 -1.35083,-2.95318 -2.11688,-4.3834 -0.55726,-1.16722 -1.22974,-2.27054 -1.7914,-3.43605 -0.49092,-0.91499 -0.92724,-1.85578 -1.4035,-2.77825 -0.55769,-1.13381 -1.1828,-2.23394 -1.67953,-3.39674 -0.46394,-0.92994 -0.99086,-1.83004 -1.34324,-2.81209 -0.41323,-1.01431 -0.80221,-2.03533 -1.17562,-3.06527 -0.4102,-0.94766 -0.71594,-1.94328 -1.26938,-2.82523 -0.40647,-0.56355 -0.84068,-1.1077 -1.26798,-1.65551 -0.11829,-0.14503 -0.25062,-0.2788 -0.36159,-0.42951 -0.42596,-0.57853 -0.79976,-1.1966 -1.25679,-1.75287 -0.1597,-0.17979 -1.06278,-1.26131 -1.28601,-1.17686 -3.9955,1.51147 -3.90289,1.69257 -2.73356,3.94413 0.49067,0.90251 0.95099,1.82143 1.45233,2.71832 0.29741,0.56006 0.56607,1.13567 0.86856,1.69285 0.83181,1.53216 -0.29216,-0.61933 0.5408,0.93701 0.11281,0.21078 0.21758,0.42576 0.32637,0.63862 0.59698,1.12069 1.14794,2.26497 1.78694,3.36323 0.46652,1.04864 0.98063,2.07642 1.49569,3.10181 0.673,1.28504 1.15685,2.6581 1.70101,3.99994 0.53623,1.25323 1.06993,2.50415 1.52569,3.79004 0.55905,1.48415 1.16244,2.95126 1.7386,4.42856 0.0178,0.0452 0.31735,0.80338 0.35573,0.91411 0.20379,0.58794 0.32113,1.20491 0.5662,1.77895 0.28182,0.90554 0.56336,1.81093 0.93882,2.68322 0.36908,0.94705 0.76573,1.88222 1.08622,2.84795 0.32379,0.86223 0.67849,1.71074 0.9658,2.58676 0.32384,0.87386 0.65555,1.7451 0.98964,2.61618 0.27905,0.74417 0.55195,1.4881 0.87475,2.21433 0.21866,0.69506 0.43773,1.38889 0.68921,2.07174 0.21926,0.86666 0.41216,1.7402 0.63075,2.60743 0.20011,0.68946 0.29178,1.39988 0.3629,2.11305 0.0346,0.24534 0.10073,0.51028 0.114,0.75872 0.0212,0.39703 -0.0101,0.79688 -0.002,1.19408 -0.0201,0.8063 -0.1055,1.60022 -0.19699,2.40102 0,0.92084 0,1.84167 0,2.76251 0,3.20905 4.53829,3.20905 4.53829,0 z" /></g><g
         id="g264"
         transform="matrix(1.3220834,0,0,1.3220834,-240.31957,-148.58908)"
         style="display:inline"><path
           id="path244"
           style="fill:#000000;fill-opacity:1;stroke-width:5;stroke-linecap:round;stroke-linejoin:round;stroke-miterlimit:2"
           d="m 281.77388,319.20294 c -0.0226,0.0129 -0.0455,0.0265 -0.068,0.0399 -0.47899,0.27596 -0.96964,0.53017 -1.45662,0.79183 0.57337,0.34641 1.47162,0.0691 1.52458,-0.83172 z" /><path
           id="path246"
           style="fill:#000000;stroke-width:5;stroke-linecap:round;stroke-linejoin:round;stroke-miterlimit:2"
           d="m 208.92779,309.11145 c -0.7219,0.41328 -1.11449,1.39787 -0.37966,2.31642 1.65019,1.75329 3.53438,3.26214 5.54286,4.58113 2.52784,1.5773 5.39073,2.48716 8.21088,3.38599 2.96335,0.94922 5.97687,1.70564 8.99976,2.4346 3.42223,0.81187 6.90893,1.28521 10.39435,1.72402 3.66606,0.47248 7.33074,0.94909 10.9956,1.42856 2.92527,0.42165 5.86064,0.7261 8.8151,0.814 1.92614,0.0179 3.85171,-0.0266 5.77776,-0.0428 0.75292,-0.006 1.50585,-0.008 2.2588,-0.006 2.12131,0.007 2.13057,-2.99378 0.009,-3.00042 -0.7645,-0.002 -1.52831,-4.6e-4 -2.29279,0.006 -1.8883,0.0159 -3.77708,0.0589 -5.66547,0.0443 -2.85397,-0.0825 -5.68802,-0.38446 -8.51373,-0.79036 -3.66969,-0.47953 -7.33953,-0.95735 -11.01039,-1.43003 -3.3749,-0.42481 -6.75225,-0.87888 -10.06638,-1.66345 -2.95328,-0.71217 -5.89644,-1.44904 -8.79146,-2.37699 -2.56184,-0.81511 -5.17172,-1.62356 -7.47814,-3.03735 -0.75451,-0.49126 -1.21515,-0.76408 -1.91606,-1.32367 -0.49857,-0.39803 -0.98484,-0.81478 -1.46106,-1.24241 -0.0534,-0.0255 -0.11168,-0.0526 -0.1758,-0.0827 -0.68252,-0.30343 -0.7277,-0.35804 -1.2306,-0.56433 -0.62887,-0.29845 -1.24652,-0.62398 -1.81118,-1.03412 0.0225,0.0121 0.0758,0.0437 0.0916,0.0517 v -10e-4 c -0.0973,-0.0691 -0.19895,-0.1313 -0.30285,-0.19057 z" /><path
           id="path247"
           style="fill:#000000;stroke-width:5;stroke-linecap:round;stroke-linejoin:round;stroke-miterlimit:2"
           d="m 209.00905,309.15872 c -0.0149,0.58326 -0.002,1.16579 0.006,1.74913 0.0289,2.12112 3.02782,2.07991 2.99893,-0.0414 -4.1e-4,-0.0306 -9.7e-4,-0.061 -0.002,-0.0916 -0.52595,-0.23882 -0.60416,-0.30111 -1.06218,-0.48899 -0.62887,-0.29845 -1.24652,-0.62398 -1.81118,-1.03412 0.0225,0.0121 0.0758,0.0437 0.0916,0.0517 v -0.001 c -0.0717,-0.0509 -0.14599,-0.0981 -0.2216,-0.1433 z m 61.51512,12.83781 c 0.026,1.18915 0.0924,2.37612 0.23342,3.55588 0.41602,2.08013 3.35732,1.49216 2.94132,-0.58797 -0.0787,-0.7978 -0.12757,-1.59876 -0.15512,-2.40062 -0.27454,0.003 -0.4837,-0.10297 -0.64115,-0.29546 -0.16689,-0.004 -0.33393,-0.009 -0.50081,-0.0148 -0.6459,-0.0294 -1.27369,-0.0974 -1.87766,-0.25705 z" /><path
           id="path248"
           style="fill:#000000;stroke-width:5;stroke-linecap:round;stroke-linejoin:round;stroke-miterlimit:2"
           d="m 287.30935,316.47878 c -0.38149,0.21659 -0.76435,0.4299 -1.14048,0.65593 -0.68349,0.38141 -1.38176,0.73193 -2.10369,1.03559 -0.49447,0.19574 -0.99299,0.38105 -1.46253,0.63377 -0.30346,0.13679 -0.60825,0.26685 -0.89673,0.43876 -0.52099,0.30015 -1.05642,0.57508 -1.58515,0.86127 -0.23779,0.12268 -0.44066,0.2289 -0.6899,0.3516 -0.0451,0.0222 -0.0916,0.04 -0.13739,0.0606 h -10e-4 v -10e-4 h -0.001 c -0.0297,0.0142 -0.10051,0.0573 -0.11523,0.0635 h -10e-4 c -0.43151,0.29464 -0.86115,0.5916 -1.32367,0.83912 -0.16826,0.0776 -0.33385,0.16122 -0.50229,0.23784 -1.14233,0.75388 -2.24602,1.56141 -3.26485,2.47893 -1.65647,1.32518 0.21823,3.66819 1.87471,2.34301 2.01123,-1.81939 4.38215,-3.17391 6.69368,-4.56784 1.30105,-0.80389 2.73413,-1.42835 3.96066,-2.35335 0.21786,-0.16429 0.41325,-0.35355 0.62343,-0.5274 0.01,-0.85028 0.0329,-1.70055 0.0739,-2.54984 z" /><path
           style="display:inline;fill:#000000;fill-opacity:1;stroke-width:3.78191;stroke-linecap:round;stroke-linejoin:round;stroke-miterlimit:2"
           id="path249"
           d="m 272.91741,322.93952 c -0.009,-2.83652 0.0563,-5.67208 -0.11085,-8.50572 -0.0575,-0.97368 -0.14605,-1.94526 -0.21908,-2.91789 -0.55283,-6.07152 -2.52614,-11.8566 -4.47497,-17.59081 -1.71015,-5.02341 -3.64754,-9.97261 -5.90152,-14.77849 -1.49169,-3.18054 -2.02329,-4.08022 -3.65309,-7.12465 -2.03224,-3.62448 -4.20951,-7.19183 -5.81643,-11.03575 -0.36698,-0.87787 -0.67442,-1.77945 -1.01163,-2.66918 -0.76056,-1.99961 -3.58845,-0.92402 -2.82788,1.0756 v 0 c 0.3632,0.95174 0.6954,1.91591 1.0896,2.85525 1.63621,3.89886 3.83051,7.52707 5.89931,11.20264 1.58109,2.95014 2.11153,3.84924 3.55795,6.93069 2.21583,4.72057 4.1196,9.58244 5.79913,14.5176 1.86733,5.49258 3.77758,11.03032 4.32256,16.8445 0.16744,2.21276 0.2723,3.18582 0.32137,5.36359 0.0438,1.94322 -0.0276,3.88904 0,5.83262 0,2.13938 3.02553,2.13938 3.02553,0 z" /><path
           id="path250"
           style="display:inline;fill:#000000;fill-opacity:1;stroke-width:3.78191;stroke-linecap:round;stroke-linejoin:round;stroke-miterlimit:2"
           d="m 199.69756,258.52102 c -0.0272,0.0961 -0.0558,0.1922 -0.0842,0.28807 -0.19846,0.66108 -0.4003,1.32182 -0.59979,1.98255 -0.1061,0.37396 -0.22298,0.74431 -0.33387,1.11685 -0.0394,0.11068 -0.0788,0.22172 -0.11819,0.33239 -0.12556,0.35265 -0.27468,0.66431 -0.44171,0.93661 -0.0142,0.23929 -0.0456,0.49082 -0.096,0.75491 -0.0491,0.25678 -0.0227,0.12884 -0.0813,0.38705 -0.0935,0.35689 -0.20519,0.70791 -0.32205,1.05776 -0.008,0.0228 -0.0529,0.18162 -0.0827,0.22011 h -10e-4 -0.001 v -0.001 c -3.4e-4,-0.007 0.002,-0.0237 0.001,-0.0251 l -0.001,0.001 c -0.0228,0.12293 -0.0324,0.24825 -0.0576,0.37081 -0.0433,0.26051 -0.0741,0.52378 -0.11671,0.78445 0.043,0.27315 0.088,0.54579 0.13591,0.81842 0.25222,1.2769 0.48067,2.55864 0.75638,3.83067 0.48089,2.21865 1.61442,6.78477 2.14653,8.90078 1.22698,4.87921 2.50328,9.74681 3.88237,14.58547 0.43704,1.44983 0.85962,2.90357 1.31037,4.34919 1.26793,4.06648 2.7359,8.08522 3.6002,12.26609 0,2.13938 3.02553,2.13938 3.02553,0 -0.0694,-0.41896 -0.12068,-0.84166 -0.2083,-1.25719 -0.8573,-4.066 -2.30398,-7.9816 -3.53815,-11.9396 -0.44472,-1.42619 -0.86167,-2.86116 -1.29265,-4.29158 -1.36619,-4.79759 -2.63202,-9.62386 -3.84839,-14.46138 -0.52793,-2.09962 -1.65408,-6.63691 -2.13175,-8.84169 -0.26807,-1.23732 -0.48949,-2.48509 -0.73422,-3.72725 -0.51861,-2.78987 -0.69022,-5.61126 -0.76673,-8.43838 z" /><path
           style="display:inline;fill:#000000;fill-opacity:1;stroke-width:3.78191;stroke-linecap:round;stroke-linejoin:round;stroke-miterlimit:2"
           id="path251"
           d="m 200.69886,264.07434 c 0.12277,-0.90903 0.11645,-1.8279 0.20081,-2.74019 0.0675,-0.73022 0.11202,-0.97115 0.21793,-1.70775 0.17816,-1.19642 0.43797,-2.38944 0.8436,-3.53114 0.19294,-0.54306 0.41127,-1.07681 0.60854,-1.61831 0.51422,-1.4719 1.11339,-2.85843 2.07879,-4.09174 0.96844,-1.21214 2.14079,-2.23026 3.28626,-3.26763 1.08155,-0.90453 2.2364,-1.70563 3.45343,-2.41448 0.58934,-0.31488 1.14911,-0.6891 1.74175,-0.99776 0.55255,-0.28777 1.14173,-0.52082 1.71853,-0.75396 0.85437,-0.28133 1.70365,-0.60118 2.57885,-0.81523 0.53417,-0.13064 0.73041,-0.13556 1.28557,-0.20075 2.01714,-0.24483 4.05391,-0.22847 6.08239,-0.22835 1.2698,0.039 2.54608,-0.06 3.81088,0.0888 0.65223,0.0768 1.06511,0.16625 1.71293,0.28812 0.97069,0.12173 1.83317,0.53463 2.7058,0.94063 0.4228,0.19671 1.02786,0.45741 1.46145,0.64629 1.26388,0.53622 2.51349,1.1178 3.71478,1.78375 1.27062,0.61267 2.23936,1.6126 3.24641,2.56884 1.1568,1.12416 2.19021,2.35516 3.15327,3.64626 0.98408,1.36319 1.76838,2.84911 2.49519,4.36061 0.89947,1.9396 1.58724,3.96777 2.30395,5.97963 0.57165,1.69647 1.17131,3.38644 1.62851,5.11824 0.54888,2.06776 3.47314,1.29152 2.92425,-0.77625 v 0 c -0.48312,-1.8114 -1.09943,-3.5833 -1.70275,-5.3575 -0.75308,-2.11312 -1.47781,-4.24257 -2.42833,-6.27743 -0.81342,-1.68507 -1.69319,-3.34043 -2.7965,-4.85741 -1.0667,-1.42737 -2.21336,-2.78806 -3.49434,-4.03021 -1.19358,-1.13321 -2.37073,-2.29041 -3.86891,-3.02432 -1.2865,-0.706 -2.61591,-1.33702 -3.96748,-1.90809 -1.5737,-0.68517 -3.09998,-1.52604 -4.82029,-1.78722 -0.77221,-0.14309 -1.2364,-0.24374 -2.0207,-0.32935 -1.34848,-0.14719 -2.70486,-0.0699 -4.05807,-0.099 -2.15352,6e-5 -4.31539,-0.0118 -6.4565,0.25155 -0.3043,0.0396 -0.61035,0.0674 -0.91291,0.11858 -1.27603,0.21584 -2.49527,0.68854 -3.71718,1.09707 -1.33417,0.54533 -2.62042,1.17935 -3.84574,1.9414 -1.39621,0.81653 -2.72407,1.73772 -3.95917,2.78487 -1.28263,1.16158 -2.58716,2.31025 -3.6614,3.6759 -0.18232,0.24341 -0.37621,0.47854 -0.54694,0.73021 -0.86642,1.27717 -1.44027,2.72053 -1.96887,4.16111 -0.21057,0.57916 -0.44411,1.14994 -0.6473,1.73174 -0.4552,1.30344 -0.75413,2.66083 -0.95688,4.02465 -0.20655,1.45484 -0.32082,2.91238 -0.40798,4.37834 -0.35171,2.11026 2.63266,2.60766 2.98437,0.49739 z" /><path
           style="display:inline;fill:#000000;fill-opacity:1;stroke-width:3.78191;stroke-linecap:round;stroke-linejoin:round;stroke-miterlimit:2"
           id="path252"
           d="m 278.96847,321.65893 c -0.0592,-1.87955 -0.3863,-3.73598 -0.63509,-5.59623 -0.27955,-1.53041 -0.4196,-3.0802 -0.65755,-4.6163 -0.16867,-1.30139 -0.37992,-2.59596 -0.58559,-3.89202 -0.0317,-0.23288 -0.0672,-0.46528 -0.0951,-0.69864 -0.0383,-0.31933 -0.0989,-1.05316 -0.14974,-1.36223 -0.11712,-0.7118 -0.303,-1.42112 -0.46231,-2.12445 -0.19883,-0.88996 -0.28877,-1.79956 -0.46215,-2.69372 -0.074,-0.38136 -0.16456,-0.75936 -0.23949,-1.14053 -0.16713,-1.20966 -0.41814,-2.40325 -0.67586,-3.59593 -0.28642,-1.07735 -0.54525,-2.16522 -0.91176,-3.21912 -0.0588,-0.15728 -0.12277,-0.3127 -0.1763,-0.47184 -0.14961,-0.44473 -0.11488,-0.44684 -0.25196,-0.92579 -0.18562,-0.64857 -0.41059,-1.2879 -0.62264,-1.92811 -0.33105,-1.0234 -0.65162,-2.05596 -1.04837,-3.05691 -0.37089,-0.96052 -0.79621,-1.90008 -1.23952,-2.82926 -0.26858,-0.63797 -0.68123,-1.19703 -1.02563,-1.79289 -0.52567,-0.90949 0.17688,0.22161 -0.48396,-0.81996 -0.32389,-0.47411 -0.55338,-1.00135 -0.82177,-1.50594 -0.30328,-0.57019 -0.6335,-1.12205 -0.9262,-1.69823 -0.47676,-0.96177 -0.83945,-1.97213 -1.26142,-2.95789 -0.33465,-0.64811 -0.5601,-1.34269 -0.85018,-2.0103 -0.19411,-0.50787 -0.33216,-1.03684 -0.65452,-1.48498 -0.35744,-0.49691 -0.19755,-0.14601 -0.30719,-0.40467 -0.37252,-0.67349 -0.69965,-1.36897 -1.02777,-2.065 -0.37078,-0.75581 -0.75116,-1.50532 -1.14011,-2.25182 -0.43126,-0.90228 -0.88662,-1.79582 -1.19783,-2.74846 -0.17257,-0.69485 -0.53645,-1.31567 -0.759,-1.99197 -0.14739,-0.60072 -0.40114,-1.17039 -0.55659,-1.77104 -0.1608,-0.64959 -0.44607,-1.25107 -0.64743,-1.88668 -0.24966,-0.73848 -0.5028,-1.47862 -0.8406,-2.18215 -0.0487,-0.0902 -0.10418,-0.17705 -0.14604,-0.27061 -0.0718,-0.16045 -0.10713,-0.33524 -0.17428,-0.49767 -0.12675,-0.30663 -0.27002,-0.60742 -0.42083,-0.90272 -0.25117,-0.52111 -0.49155,-1.04611 -0.71377,-1.58014 -0.24514,-0.72247 -0.69803,-1.34223 -1.03481,-2.01747 -0.37247,-0.66223 -0.76711,-1.3131 -1.18708,-1.94549 -0.31478,-0.48013 -0.59408,-0.97319 -0.97144,-1.40761 -0.43372,-0.55833 -0.898,-1.08434 -1.40232,-1.57998 -0.36484,-0.46437 -0.75504,-0.89281 -1.20952,-1.27096 -0.3714,-0.31505 -0.71892,-0.68692 -0.99757,-1.0881 -0.53639,-0.68796 -1.27651,-1.15994 -1.99027,-1.64237 -0.7117,-0.5154 -1.40538,-1.04719 -2.14132,-1.52833 -0.6534,-0.49544 -1.38042,-0.87211 -2.09038,-1.27596 -0.75906,-0.39335 -1.54621,-0.71981 -2.33863,-1.03893 -0.90107,-0.38807 -1.78784,-0.79876 -2.70226,-1.15554 -0.63001,-0.31423 -1.3242,-0.47497 -1.96497,-0.75747 -0.70442,-0.26751 -1.44498,-0.37603 -2.17752,-0.52558 -0.62753,-0.11205 -1.26092,-0.1599 -1.88275,-0.30467 -0.75062,-0.17335 -1.51684,-0.23807 -2.28526,-0.24308 -0.47165,-0.003 -0.93482,-0.11964 -1.4071,-0.1598 -0.63913,-0.0329 -1.27965,-0.0166 -1.91932,-0.0121 -0.78727,0.005 -1.57456,0.005 -2.36184,0.004 -0.64308,-2.2e-4 -1.28616,-5.3e-4 -1.92924,-5.9e-4 -0.65318,-0.0392 -1.29094,0.0495 -1.92756,0.18706 -0.71587,0.19334 -1.43903,0.34749 -2.16433,0.50149 -0.71193,0.20665 -1.43382,0.37372 -2.14327,0.58811 -0.34504,0.0886 -0.70509,0.15298 -1.03836,0.28334 -0.67958,0.26581 -0.0769,0.0815 -0.57073,0.223 -0.74604,0.26606 -1.52719,0.40052 -2.27198,0.66977 -0.49081,0.17934 -0.93491,0.44974 -1.42063,0.63811 -0.66452,0.34099 -1.36264,0.60979 -2.01664,0.9695 -0.78894,0.37865 -1.46383,0.92479 -2.16294,1.43966 -0.51784,0.40821 -1.03469,0.81637 -1.54399,1.23679 -0.66034,0.48468 -1.18983,1.10138 -1.7545,1.68766 -0.48321,0.59893 -1.02289,1.1502 -1.48873,1.76197 -0.48118,0.59904 -0.8539,1.27802 -1.25096,1.93434 -0.45607,0.75096 -0.86673,1.5254 -1.3345,2.26918 -0.49509,0.69931 -0.9396,1.42791 -1.32813,2.19094 -0.60511,1.19236 1.08113,2.04811 1.68624,0.85576 v 0 c 0.36033,-0.7128 0.78319,-1.38661 1.24275,-2.04025 0.47368,-0.75366 0.89258,-1.53646 1.35249,-2.29837 0.36453,-0.60535 0.70614,-1.23277 1.14988,-1.78373 0.39882,-0.55987 0.92059,-1.02701 1.33344,-1.57861 0.51697,-0.53757 0.98596,-1.1019 1.59669,-1.54132 0.48207,-0.39897 0.97026,-0.78863 1.4625,-1.17311 0.63679,-0.4712 1.24674,-0.97326 1.96969,-1.31441 0.56426,-0.33336 1.20072,-0.53134 1.77291,-0.85394 0.47684,-0.18634 0.9187,-0.43578 1.39236,-0.62737 0.7138,-0.27608 1.48635,-0.36352 2.20004,-0.6447 0.52001,-0.17944 1.02109,-0.40476 1.57017,-0.49412 0.65868,-0.19909 1.32965,-0.3507 1.9891,-0.54852 0.72998,-0.15511 1.45817,-0.31118 2.17881,-0.50462 0.50441,-0.1144 1.0012,-0.17907 1.52003,-0.14265 0.64298,5e-5 1.28595,3.7e-4 1.92893,5.8e-4 0.79197,1.9e-4 1.58395,0.002 2.37591,-0.004 0.58436,-0.005 1.16936,-0.0182 1.7534,0.006 0.51913,0.0387 1.02708,0.18464 1.54985,0.16593 0.63161,0.002 1.26115,0.0539 1.87819,0.19663 0.63943,0.14129 1.28592,0.2144 1.93188,0.31508 0.6083,0.11795 1.21999,0.20798 1.80861,0.41235 0.66526,0.27446 1.36201,0.46826 2.01457,0.77762 0.90827,0.35374 1.78656,0.76515 2.68275,1.14781 0.71435,0.28761 1.42569,0.57744 2.11121,0.92918 0.67633,0.38346 1.36843,0.74114 1.98938,1.21435 0.22025,0.14399 0.44979,0.27426 0.66326,0.4281 0.49031,0.35336 0.94222,0.76179 1.45492,1.08485 0.53243,0.35881 1.09411,0.69956 1.51937,1.18793 0.38745,0.51991 0.81973,1.02136 1.322,1.43301 0.41634,0.34053 0.73801,0.75718 1.08953,1.16289 0.47697,0.46709 0.90636,0.9684 1.31906,1.49291 0.33835,0.35048 0.51642,0.8205 0.81319,1.20504 0.39275,0.55943 0.72134,1.16545 1.07214,1.75179 0.32791,0.62355 0.72913,1.20967 0.96981,1.87765 0.2425,0.58253 0.50473,1.15556 0.78043,1.72317 0.27976,0.52852 0.45656,1.09959 0.722,1.633 0.31072,0.61356 0.50444,1.2808 0.73751,1.92564 0.19488,0.60657 0.46285,1.18003 0.62158,1.7984 0.17435,0.64167 0.4323,1.25379 0.59459,1.89609 0.23388,0.66807 0.56674,1.29297 0.75409,1.97745 0.35273,1.04458 0.8299,2.03656 1.31514,3.02515 0.37769,0.72429 0.74659,1.45162 1.1069,2.18492 0.36045,0.76264 0.72157,1.52328 1.13404,2.25969 0.0831,0.123 0.16006,0.25035 0.24923,0.36902 0.12511,0.16647 0.033,-0.0663 0.15879,0.16673 0.18925,0.35051 0.25299,0.75262 0.42529,1.11058 0.29222,0.6607 0.50811,1.35418 0.84396,1.99591 0.43849,1.02436 0.81464,2.07486 1.31494,3.07222 0.29173,0.57105 0.61872,1.1191 0.9194,1.68475 0.29991,0.5642 0.56079,1.15117 0.92166,1.68173 0.43392,0.66694 -0.0195,-0.0485 0.46612,0.79158 0.31074,0.53751 0.68724,1.03905 0.9287,1.61501 0.42585,0.89187 0.83477,1.79366 1.18996,2.71605 0.3883,0.96333 0.68707,1.96422 1.00943,2.95018 0.19812,0.59813 0.41238,1.19547 0.58554,1.80149 0.20334,0.71161 0.0846,0.43932 0.31304,1.12045 0.0492,0.1465 0.10842,0.2894 0.16263,0.4341 0.34539,0.97849 0.57521,1.99385 0.84822,2.99374 0.25543,1.18153 0.50234,2.36393 0.66889,3.56224 0.0719,0.36387 0.1591,0.72464 0.23003,1.08872 0.18091,0.92857 0.27306,1.87374 0.48264,2.79753 0.1444,0.63726 0.32166,1.28166 0.42839,1.92647 0.11717,0.70788 0.11934,1.4318 0.25538,2.13743 0.20542,1.29427 0.41667,2.58696 0.58475,3.88661 0.23846,1.52229 0.37271,3.05954 0.65176,4.57631 0.23827,1.77716 0.55,3.55044 0.61835,5.34525 0,1.33711 1.89096,1.33711 1.89096,0 z" /><path
           style="display:inline;fill:#000000;fill-opacity:1;stroke-width:3.78191;stroke-linecap:round;stroke-linejoin:round;stroke-miterlimit:2"
           id="path253"
           d="m 209.87375,268.04352 c 2.43742,0.54772 4.91325,0.90822 7.37249,1.34354 4.09303,0.75137 8.2369,1.15037 12.37334,1.5712 2.66073,0.3001 5.33513,0.33669 8.00871,0.31396 1.67927,-0.0173 0.85617,-0.009 2.46931,-0.0254 2.13925,-0.0219 2.10821,-3.04732 -0.0311,-3.02537 v 0 c -1.6115,0.0166 -0.79014,0.008 -2.46409,0.0253 -2.56272,0.022 -5.12624,-0.009 -7.67665,-0.29854 -4.06243,-0.4133 -8.13252,-0.80266 -12.15237,-1.54044 -2.39,-0.42279 -4.79558,-0.7751 -7.16588,-1.2995 -2.0755,-0.51887 -2.8093,2.41632 -0.7338,2.93519 z" /><path
           style="display:inline;fill:#000000;fill-opacity:1;stroke-width:3.78191;stroke-linecap:round;stroke-linejoin:round;stroke-miterlimit:2"
           id="path254"
           d="m 219.47833,294.49617 c 3.02616,0.7721 6.08595,1.38423 9.15928,1.93463 2.85076,0.48796 5.69636,1.0095 8.56895,1.35495 1.32878,0.15979 2.86195,0.30622 4.19876,0.43951 3.70194,0.24988 7.39951,0.4979 11.0789,0.98669 0.39703,0.0586 0.79406,0.11721 1.19109,0.17581 2.11648,0.31213 2.55789,-2.68102 0.44141,-2.99315 v 0 c -0.41163,-0.0607 -0.82325,-0.12129 -1.23488,-0.18195 -3.71201,-0.49112 -7.44144,-0.75134 -11.17645,-0.99801 -1.30036,-0.12956 -2.81387,-0.27419 -4.10703,-0.42895 -2.82549,-0.33815 -5.62377,-0.8546 -8.4278,-1.33312 -3.05354,-0.54599 -6.09155,-1.15999 -9.09887,-1.92318 -2.09783,-0.41956 -2.69118,2.54721 -0.59336,2.96677 z" /><path
           style="fill:#000000;fill-opacity:1;stroke-width:3.78191;stroke-linecap:round;stroke-linejoin:round;stroke-miterlimit:2"
           id="path264"
           d="m 201.25021,269.89167 c -0.0292,-0.79246 -0.0624,-1.58637 -0.11365,-2.37803 -0.02,-0.68219 -0.169,-1.34939 -0.25157,-2.02405 -0.0405,-0.40718 -0.0997,-0.8109 -0.11258,-1.22034 -0.0113,-0.55864 -0.0735,-1.11399 -0.0888,-1.67268 -0.0109,-0.59497 -0.005,-1.19007 -0.002,-1.78509 -0.0206,-0.45578 0.0211,-0.90625 0.0604,-1.35936 0.0458,-0.54774 0.0428,-1.09766 0.0405,-1.64678 0.0265,-0.53291 0.1204,-1.0579 0.16825,-1.58903 0.0618,-0.39201 0.0777,-0.78884 0.14145,-1.18015 0.0198,-0.21244 0.0519,-0.42105 0.087,-0.63084 0.0346,-0.20672 -0.016,-0.15118 0.0393,-0.20824 0.0753,-0.23058 0.0953,-0.47152 0.12517,-0.71036 0.002,-0.0169 -0.0125,0.0632 -6.4e-4,0.051 0.0158,-0.0163 0.0104,-0.0443 0.0156,-0.0665 0.009,-0.0454 0.0197,-0.0905 0.0279,-0.1361 0.0103,-0.0569 0.0201,-0.11409 0.0278,-0.17148 0.008,-0.0593 0.0411,-0.23421 0.0193,-0.17851 -0.0295,0.075 -0.0338,0.1586 -0.0367,0.23923 0.084,-0.20855 0.17983,-0.41202 0.28685,-0.61069 0.12802,-0.26183 0.23311,-0.53473 0.34485,-0.7945 -3.6e-4,0.004 -0.003,0.015 -7.5e-4,0.0115 0.0965,-0.19242 0.18763,-0.38756 0.2779,-0.58376 -0.003,0.012 -0.016,0.0467 -0.01,0.036 0.12635,-0.21395 0.22644,-0.42772 0.37242,-0.63015 0.14254,-0.20649 0.23597,-0.43956 0.33555,-0.66792 0.0323,-0.074 -0.076,0.14257 -0.11542,0.21304 0.0191,-0.0247 0.0787,-0.0969 0.0571,-0.0743 -0.36101,0.37951 0.0492,-0.012 0.17267,-0.11819 0.0666,-0.0675 0.13835,-0.13039 0.20001,-0.20251 0.0743,-0.0869 0.14471,-0.17766 0.20699,-0.27356 0.0628,-0.0966 0.11052,-0.20224 0.16717,-0.30259 0.003,-0.005 0.0139,-0.0173 0.0108,-0.0127 -0.0415,0.0639 -0.0842,0.12701 -0.12638,0.1905 1.43633,-1.58552 -0.80594,-3.61679 -2.24226,-2.03127 v 0 c -0.12741,0.16635 -0.26908,0.31839 -0.35392,0.51171 -0.0236,0.0537 0.0707,-0.0945 0.11413,-0.13395 0.0142,-0.0129 0.0303,-0.0234 0.0455,-0.0351 -0.0655,0.0567 -0.21659,0.18575 -0.26633,0.23892 -0.0207,0.0221 0.0957,-0.0742 0.0727,-0.0545 -0.15822,0.13591 -0.3296,0.26176 -0.44616,0.43961 -0.0763,0.11774 -0.15839,0.23195 -0.22899,0.35321 -0.10639,0.18273 -0.0852,0.24401 -0.13519,0.30334 -0.20531,0.32187 -0.39983,0.64931 -0.57966,0.98631 -0.1016,0.22099 -0.20514,0.43992 -0.31436,0.65729 -0.0772,0.19233 -0.16261,0.3818 -0.24036,0.57299 -0.13177,0.2559 -0.26012,0.51451 -0.36908,0.78092 -0.11028,0.26064 -0.19573,0.52667 -0.22515,0.80925 -0.0522,0.23472 -0.0632,0.4555 -0.1288,0.67746 -0.0786,0.35539 -0.14246,0.71432 -0.17425,1.07728 -0.0731,0.46252 -0.10267,0.92953 -0.16783,1.39328 -0.053,0.62322 -0.1776,1.23926 -0.17985,1.86689 0.002,0.45756 0.007,0.91587 -0.0292,1.37242 -0.0464,0.53449 -0.0899,1.06817 -0.0717,1.60536 -0.003,0.62968 -0.009,1.25946 0.004,1.88909 0.0173,0.56556 0.0742,1.12795 0.0895,1.69312 0.0195,0.50063 0.0803,0.99571 0.13482,1.49327 0.08,0.61373 0.20905,1.22151 0.23397,1.84183 0.0492,0.72503 0.0759,1.45279 0.10706,2.17841 0,2.13937 3.02552,2.13937 3.02552,0 z" /></g></g></g></svg>
