<?xml version="1.0" encoding="UTF-8" standalone="no"?>
<!-- Created with Inkscape (http://www.inkscape.org/) -->

<svg
   width="180"
   height="180"
   viewBox="0 0 180 180"
   version="1.1"
   id="svg1"
   xml:space="preserve"
   xmlns="http://www.w3.org/2000/svg"
   xmlns:svg="http://www.w3.org/2000/svg"><defs
     id="defs1" /><g
     id="g270"
     style="display:inline"
     transform="translate(-6,-116)"><g
       id="g130"
       style="display:inline"><g
         id="g7"
         style="display:inline;fill:#ff9966"
         transform="matrix(1.3220834,0,0,1.3220834,-240.31957,-148.58908)"><path
           style="fill:#ffc666;fill-opacity:1;stroke-width:1.25;stroke-linecap:round;stroke-linejoin:round;stroke-miterlimit:2"
           d="m 315.17236,140.22119 c -5.99132,-0.0167 -12.25957,1.89673 -16.43676,6.37198 -1.68012,1.47715 0.96053,2.04652 2.14486,1.83628 2.18434,-0.009 4.46391,0.6064 6.58753,0.18394 4.26426,-2.71007 9.73794,-3.47542 14.50223,-1.8878 2.26421,1.18692 4.14868,3.09206 5.68994,5.10693 1.14305,1.70554 0.83853,4.49181 3.23807,5.05225 2.29249,1.07505 4.45152,2.40858 6.46261,3.93945 1.47348,0.44484 1.36389,-1.51926 1.04248,-2.39014 -1.23267,-4.80692 -2.664,-9.9059 -6.13086,-13.62012 -3.11419,-2.99813 -7.55459,-4.29796 -11.78418,-4.55224 -1.77136,-0.0512 -3.544,-0.0455 -5.31592,-0.0405 z"
           id="path202"
           transform="matrix(0.75638193,0,0,0.75638193,30.496991,112.3901)" /><path
           style="fill:#644d42;fill-opacity:1;stroke-width:1.25;stroke-linecap:round;stroke-linejoin:round;stroke-miterlimit:2"
           d="m 270.06299,150.11328 c -3.68951,0.0765 -6.61491,2.86036 -8.88526,5.49427 -1.24335,1.68635 -2.41397,3.71958 -2.40234,5.85632 0.66958,1.57462 2.78699,0.75566 4.07178,1.06592 1.46542,-0.0789 3.04348,0.63895 4.42334,0.13964 0.79392,-0.98787 0.82693,-2.41573 1.70459,-3.3999 1.85849,-2.8252 4.20795,-5.34358 6.93994,-7.31445 0.79719,-1.22352 -0.9067,-1.79439 -1.86029,-1.68196 -1.3268,-0.11202 -2.65968,-0.19727 -3.99176,-0.15984 z"
           id="path203"
           transform="matrix(0.75638193,0,0,0.75638193,30.496991,112.3901)" /><path
           style="fill:#644d42;fill-opacity:1;stroke-width:1.25;stroke-linecap:round;stroke-linejoin:round;stroke-miterlimit:2"
           d="m 294.46631,151.60059 c -5.44423,-0.0179 -10.94398,1.31003 -15.71875,3.93359 -2.73789,1.91772 -5.54611,4.12815 -6.97412,7.23486 -0.20241,1.58651 2.06141,1.48412 3.04525,2.17617 5.96076,2.39101 11.90932,5.33214 16.24902,10.20531 3.26339,3.10925 5.79095,6.87964 7.64228,10.97733 3.34832,6.7582 4.87853,14.26826 8.60251,20.86043 3.18082,6.1453 5.4483,12.74409 9.19287,18.59815 4.08307,8.43369 6.36724,17.67431 7.91181,26.90675 1.38149,7.5702 2.22629,15.24925 3.47784,22.85692 0.79276,1.24317 2.30978,-0.11779 3.18765,-0.56296 0.65327,-1.30016 -0.0229,-3.01682 0.0965,-4.46829 -0.0888,-5.684 -0.60757,-11.40198 -0.19873,-17.08594 2.08021,-8.90738 5.76317,-17.31391 9.09662,-25.81439 3.84534,-8.9996 7.04655,-18.41067 8.20367,-28.16657 0.6317,-6.59018 0.0486,-13.38225 -2.55637,-19.52433 -1.55913,-4.11224 -3.20837,-8.40561 -6.62464,-11.36699 -5.96857,-5.69337 -12.74378,-10.90025 -20.73394,-13.34773 -7.63817,-2.65433 -15.86155,-3.35883 -23.8995,-3.41231 z m 44.86865,23.14209 c 0.1132,0.0333 -0.12481,-0.0199 0,0 z"
           id="path204"
           transform="matrix(0.75638193,0,0,0.75638193,30.496991,112.3901)" /><path
           style="fill:#644d42;fill-opacity:1;stroke-width:1.25;stroke-linecap:round;stroke-linejoin:round;stroke-miterlimit:2"
           d="m 349.65625,213.22607 c -0.71875,3.46176 -2.16329,6.69729 -3.99512,9.70655 -2.83758,5.32009 -2.7332,11.54158 -3.83929,17.3276 -0.77461,5.47601 -1.01933,11.00924 -1.70182,16.49417 -0.0878,2.98826 -0.42684,6.04005 0.047,8.99952 1.00522,1.18032 2.89342,0.50572 4.26563,0.63867 5.8532,-0.0402 11.1575,-3.6346 14.6875,-8.09277 2.32025,-2.85303 2.79939,-6.72601 2.01671,-10.23561 -1.60025,-10.55073 -4.62639,-20.83786 -8.52798,-30.75745 -0.68888,-1.44936 -0.87385,-3.20709 -1.89401,-4.45372 -0.48856,-0.11005 -0.73816,-0.006 -1.05859,0.37304 z"
           id="path205"
           transform="matrix(0.75638193,0,0,0.75638193,30.496991,112.3901)" /><path
           style="fill:#644d42;fill-opacity:1;stroke-width:1.25;stroke-linecap:round;stroke-linejoin:round;stroke-miterlimit:2"
           d="m 356.46094,264.66504 c -3.49589,2.44603 -7.46274,4.14821 -11.70447,4.40932 -1.80575,-0.089 -2.32316,2.01902 -2.89514,3.36705 -0.30534,3.29895 -0.0958,6.58666 -0.79541,9.85107 -0.43679,2.92347 0.80585,5.85199 2.17636,8.33714 1.39012,0.69475 3.23504,0.0923 4.79532,0.29119 3.7873,0.0693 7.68869,-0.0638 11.15056,-1.79399 0.9446,-0.30415 2.48127,-1.14855 1.58284,-2.31676 -1.35766,-1.86655 -2.46268,-4.02974 -2.42481,-6.36328 -0.52708,-5.12125 -0.55359,-10.23618 -0.77344,-15.36865 -0.2654,-0.42328 -0.64014,-0.55605 -1.11181,-0.41309 z"
           id="path206"
           transform="matrix(0.75638193,0,0,0.75638193,30.496991,112.3901)" /><path
           style="fill:#cc6633;fill-opacity:1;stroke-width:1.25;stroke-linecap:round;stroke-linejoin:round;stroke-miterlimit:2"
           d="m 338.62744,234.90088 c -1.31481,1.50133 -1.61126,3.70792 -2.46387,5.49902 -1.68418,4.94104 -3.8501,9.87702 -4.20831,15.13989 0.0185,5.7395 -0.0229,11.51341 0.6341,17.21998 0.75094,1.45581 2.4408,-0.12535 3.52823,-0.34891 1.92864,-0.22084 1.38665,-2.26677 1.43222,-3.62473 0.0243,-6.397 -0.18621,-12.82046 0.68978,-19.17382 0.29718,-4.72425 0.90186,-9.43497 1.53922,-14.11915 -0.11366,-0.55393 -0.6463,-0.74989 -1.15137,-0.59228 z"
           id="path207"
           transform="matrix(0.75638193,0,0,0.75638193,30.496991,112.3901)" /></g><g
         id="g8"
         style="display:inline"
         transform="matrix(1.3220834,0,0,1.3220834,-240.31957,-148.58908)"><path
           style="fill:#3c2114;fill-opacity:1;stroke-width:3.78191;stroke-linecap:round;stroke-linejoin:round;stroke-miterlimit:2"
           id="path217"
           d="m 281.2376,319.60881 c 0,-0.91774 0,-1.83548 0,-2.75322 0.0424,-0.8938 -0.0322,-1.77597 -0.14734,-2.66073 -0.0304,-0.83929 -0.29988,-1.64022 -0.42661,-2.46461 -0.0916,-0.64937 -0.21961,-1.29532 -0.38541,-1.93012 -0.25403,-0.64319 -0.38797,-1.31376 -0.53257,-1.98617 -0.13808,-0.46713 -0.21071,-0.93506 -0.2987,-1.41074 -0.24104,-0.79502 -0.51091,-1.57888 -0.6668,-2.39699 -0.15252,-0.67782 -0.47966,-1.32222 -0.57392,-2.01373 -0.0948,-0.72834 -0.20595,-1.4533 -0.37596,-2.16836 -0.26566,-0.81128 -0.4296,-1.64888 -0.68247,-2.4638 -0.24007,-0.87611 -0.53691,-1.73704 -0.84031,-2.59374 -0.3215,-0.66133 -0.46749,-1.37713 -0.64283,-2.08505 -0.1071,-0.71779 -0.23014,-1.42771 -0.38653,-2.13758 -0.23172,-0.99514 -0.35114,-2.01252 -0.55816,-3.01245 -0.19026,-0.74163 -0.43737,-1.46519 -0.69534,-2.18524 -0.11752,-0.51369 -0.29615,-1.01945 -0.47041,-1.5183 -0.21359,-0.62137 -0.36291,-1.25934 -0.57946,-1.88062 -0.2109,-0.56598 -0.35974,-1.15028 -0.54456,-1.72562 -0.12951,-0.54449 -0.6199,-1.07565 -0.72223,-1.62675 -0.26158,-0.61865 -0.49278,-1.2488 -0.74448,-1.87223 -0.34301,-0.83431 -0.69405,-1.67003 -1.09087,-2.48063 -0.0959,-0.15567 -0.19757,-0.30796 -0.28783,-0.46698 -0.003,-0.006 0.0204,-0.002 0.0179,-0.009 -0.0469,-0.11417 -0.10574,-0.22308 -0.15889,-0.33448 -0.17329,-0.36327 -0.35178,-0.72301 -0.51192,-1.0923 -0.31453,-0.69084 -0.67385,-1.35964 -0.99874,-2.04534 -0.52697,-0.82171 -0.79694,-1.75369 -1.14162,-2.65742 -0.31836,-0.84161 -0.69803,-1.65318 -0.95882,-2.51503 -0.23239,-0.81096 -0.55478,-1.58614 -0.85871,-2.37115 -0.24885,-0.65038 -0.40303,-1.32705 -0.59289,-1.99557 -0.30267,-0.94892 -0.6157,-1.89426 -0.96633,-2.82675 -0.27026,-0.87462 -0.60101,-1.72453 -0.98318,-2.55588 -0.17679,-0.57189 -0.4108,-1.121 -0.63076,-1.67746 -0.26957,-0.61703 -0.4955,-1.24986 -0.79528,-1.85594 -0.16641,-0.30941 -0.24214,-0.66539 -0.42054,-0.9702 -0.1147,-0.19598 -0.25097,-0.37852 -0.37646,-0.56779 -0.0356,-0.0455 -0.0729,-0.0896 -0.1067,-0.13636 -0.0295,-0.0408 0.0673,0.0757 0.0938,0.11855 0.0467,0.0756 0.0463,0.27643 0.12505,0.2353 0.0792,-0.0414 -0.0663,-0.16603 -0.097,-0.24995 -0.007,-0.0191 -0.0107,-0.0394 -0.0161,-0.0591 -0.0514,-0.12534 -0.10292,-0.25069 -0.15438,-0.37604 -0.0164,-0.0418 -0.0288,-0.0853 -0.0492,-0.12523 -0.30614,-0.60102 -0.19918,-0.40285 -0.59776,-0.92631 -0.0196,-0.0258 -0.0707,-0.0632 -0.0469,-0.085 0.007,-0.006 0.0159,0.009 0.0238,0.0142 -0.21055,-0.4571 -0.42076,-0.90896 -0.67949,-1.34214 -0.36321,-0.54484 -0.41011,-0.66258 -0.67542,-1.11788 -0.3319,-0.46772 -0.46001,-0.70205 -0.75991,-1.14018 -0.47826,-0.55158 -0.99391,-1.06141 -1.57421,-1.50577 -0.4605,-0.31607 -0.98032,-0.54541 -1.44396,-0.85534 -0.0104,-0.007 0.008,-0.0293 -0.002,-0.0374 -0.11261,-0.0959 -0.23675,-0.17749 -0.35513,-0.26623 -0.31532,-0.22519 -0.60737,-0.47899 -0.91342,-0.71613 -0.24037,-0.18622 -0.22277,-0.0825 -0.23708,-0.20189 -0.34684,-0.45094 -0.74962,-0.84519 -1.19398,-1.19911 -0.22777,-0.20482 -0.50642,-0.34434 -0.74269,-0.53724 -0.0772,-0.063 -0.23617,-0.28117 -0.29887,-0.35053 -0.58187,-0.52192 -1.23394,-0.95438 -1.8547,-1.42719 -0.238,-0.18796 -0.2853,-0.28822 -0.78641,-0.63145 -0.18309,-0.1254 -0.42063,-0.22364 -0.61297,-0.31502 0.009,-7.1e-4 0.0323,0.005 0.0272,-0.002 -0.11981,-0.17187 -0.35533,-0.22216 -0.53562,-0.32888 -0.32559,-0.19274 -0.64732,-0.39135 -0.97434,-0.58187 -0.64283,-0.42644 -1.34522,-0.7426 -2.08232,-0.96154 0.30214,0.0839 0.23297,0.0697 -0.15998,-0.0735 -0.0686,-0.025 0.14257,0.11081 0.2059,0.0745 0.0573,-0.0328 -0.11449,-0.0667 -0.1755,-0.0919 -0.58602,-0.24252 -0.46832,-0.19264 -1.0339,-0.31749 -0.57402,-0.15151 -1.16954,-0.20411 -1.75455,-0.30464 -0.5153,-0.12188 -1.00238,-0.31694 -1.51817,-0.44124 -0.131,-0.0197 -0.26163,-0.042 -0.393,-0.0589 -0.0837,-0.0108 0.1661,0.0312 0.25001,0.0405 0.0154,0.002 -0.0281,-0.0127 -0.0428,-0.0174 -0.11584,-0.0369 -0.23043,-0.0778 -0.34707,-0.11205 -0.13872,-0.0408 -0.27868,-0.0772 -0.41803,-0.11575 -0.1348,-0.0277 -0.26959,-0.0554 -0.4044,-0.083 -3.15018,-0.61187 -4.01548,3.84317 -0.86531,4.45503 v 0 c 0.0432,0.007 0.0863,0.0138 0.12946,0.0207 0.21263,0.0351 0.39399,0.12939 0.59522,0.18443 0.17832,0.0488 0.35874,0.0896 0.53896,0.13072 0.008,0.002 -0.0129,-0.008 -0.0193,-0.0121 0.0746,-0.0145 0.39085,0.12152 0.41944,0.13113 0.42943,0.14446 0.8618,0.26452 1.30707,0.35091 0.56451,0.0968 1.13672,0.14606 1.69075,0.29321 -0.11171,-0.057 -0.0334,-0.0169 -0.23478,-0.12096 -0.038,-0.0194 0.0751,0.0407 0.11366,0.0591 0.7517,0.35874 0.22516,0.11553 0.95881,0.39714 -0.27243,-0.14854 1.26723,0.56864 0.95765,0.49604 0.66061,0.38371 1.30463,0.78621 1.96999,1.15835 -0.25207,-0.16208 0.0189,0.0144 -0.002,-0.008 -0.0619,-0.0654 -0.13654,-0.11769 -0.20512,-0.17617 -0.0198,-0.0169 0.0396,0.0337 0.0587,0.0514 0.47734,0.4434 0.23527,0.24628 0.60403,0.52947 0.27758,0.20792 0.54871,0.42121 0.83199,0.62128 0.10688,0.0755 0.21079,0.15515 0.31799,0.2302 0.0389,0.0273 0.0734,0.0693 0.12035,0.0767 0.023,0.004 -0.0207,-0.0417 -0.031,-0.0627 0.48417,0.5285 1.00241,1.01174 1.60163,1.40691 0.0292,0.0214 0.0526,0.0546 0.0875,0.0642 0.0176,0.005 -0.0404,-0.0604 -0.0273,-0.0477 0.28053,0.27317 0.49104,0.61468 0.78266,0.87799 0.50382,0.45924 1.04469,0.87583 1.58764,1.28814 0.2708,0.1987 0.53213,0.41062 0.80937,0.60023 0.20284,0.13873 0.42582,0.24547 0.63684,0.37141 0.36607,0.21846 0.2169,0.19537 0.39333,0.21613 0.0238,0.01 0.0551,0.006 0.073,0.0241 0.0406,0.0412 0.70508,0.80073 0.44632,0.40526 0.15651,0.21395 0.28669,0.44571 0.438,0.66367 0.0396,0.0571 0.0678,0.19932 0.12803,0.16467 0.0597,-0.0343 -0.13454,-0.24032 -0.10199,-0.17964 0.0474,0.0884 0.0978,0.17528 0.14666,0.26291 0.28026,0.49108 0.50035,0.81388 0.65777,1.08873 0.0353,0.0586 0.0503,0.13595 0.1059,0.17579 0.0414,0.0297 -0.0797,-0.18778 -0.0581,-0.14156 0.14602,0.31317 0.27551,0.63402 0.4339,0.9414 0.1819,0.34991 0.36777,0.76503 0.65824,1.04562 0.0385,0.0372 -0.0588,-0.0899 -0.0823,-0.138 -0.03,-0.0611 -0.10251,-0.25237 -0.0779,-0.18888 0.0329,0.0849 0.0685,0.16872 0.10278,0.25308 0.18161,0.47938 0.37553,1.03547 0.73979,1.44632 -0.048,-0.0902 -0.0976,-0.17955 -0.14381,-0.27065 -0.005,-0.0106 0.0163,0.0178 0.021,0.0287 0.0406,0.095 0.0747,0.19259 0.1143,0.28795 0.10739,0.25841 0.2105,0.51984 0.34179,0.76764 0.27088,0.44969 0.35839,0.99345 0.61169,1.45081 0.0877,0.22194 0.19901,0.4626 0.2875,0.67741 0.0973,0.23633 0.15381,0.48763 0.24084,0.72795 0.062,0.17123 0.1354,0.33813 0.2031,0.50719 0.33965,0.7301 0.61159,1.48307 0.85538,2.25047 0.30806,0.81835 0.58234,1.64791 0.85149,2.47967 0.23334,0.80268 0.42082,1.61896 0.72916,2.39849 0.26686,0.677 0.551,1.34234 0.74549,2.04601 0.2962,0.95913 0.68925,1.87495 1.05917,2.80691 0.38908,1.01479 0.704,2.06686 1.2864,2.99458 0.30811,0.64017 0.63732,1.26947 0.93814,1.9132 0.31583,0.71263 0.63714,1.45677 1.04212,2.11758 0.19558,0.36141 0.0265,0.035 0.29941,0.66436 0.21416,0.49389 0.46096,0.97463 0.64007,1.48275 0.21277,0.52186 0.39924,1.05526 0.61782,1.57468 0.003,0.007 0.008,-0.0113 0.0123,-0.017 0.19371,0.56578 0.41949,1.14367 0.73135,1.65472 0.21419,0.61411 0.35772,1.2527 0.59143,1.86062 0.25278,0.58636 0.31139,1.24736 0.56357,1.83636 0.18212,0.50589 0.33812,1.0208 0.47807,1.53985 0.19176,0.53349 0.37737,1.0677 0.53153,1.61343 0.23865,0.99685 0.29672,2.03608 0.56173,3.02884 0.0487,0.22057 0.1064,0.43911 0.15397,0.65993 0.1131,0.52506 0.0983,1.07521 0.25953,1.59269 0.21098,0.84884 0.39923,1.70978 0.76973,2.50755 0.2896,0.81749 0.57744,1.63694 0.80002,2.4748 0.255,0.69928 0.32013,1.45816 0.594,2.15274 0.16459,0.62391 0.21633,1.27027 0.31953,1.9061 0.13954,0.70183 0.3249,1.40733 0.58538,2.07356 0.16516,0.81365 0.36138,1.63437 0.66871,2.40661 0.0827,0.30537 -0.0462,-0.1869 0.0927,0.56688 0.0623,0.33762 0.17743,0.58406 0.21935,0.90792 0.16079,0.74419 0.30754,1.49367 0.58564,2.20566 0.13704,0.48574 0.22228,0.98288 0.28844,1.4776 0.12915,0.77843 0.36322,1.53668 0.40663,2.32758 0.0318,0.24398 0.0982,0.51276 0.10929,0.75965 0.0196,0.43734 -0.0159,0.87714 0,1.31464 0,0.91774 0,1.83548 0,2.75323 0,3.20906 4.53829,3.20906 4.53829,0 z" /><path
           style="fill:#3c2114;fill-opacity:1;stroke-width:3.78191;stroke-linecap:round;stroke-linejoin:round;stroke-miterlimit:2"
           id="path219"
           d="m 292.42318,294.37992 c 0.27229,-1.69366 0.78724,-3.33046 1.18139,-4.99693 0.28955,-1.228 0.55011,-2.46131 0.86439,-3.68323 0.0117,-0.002 0.0297,0.004 0.0351,-0.007 0.56644,-1.13529 -0.17409,0.2289 0.29784,-0.66622 0.21058,-0.39941 0.43163,-0.7932 0.6398,-1.19416 0.47719,-0.84975 0.89368,-1.72291 1.26589,-2.62333 0.34828,-0.71801 0.58776,-1.47577 0.81839,-2.23735 -0.0949,0.095 0.23287,-0.69134 0.15745,-0.53454 -0.0586,0.12184 -0.2453,0.47345 -0.15122,0.37635 0.15172,-0.15658 0.38333,-0.78084 0.46515,-0.98316 0.0261,-0.07 0.0636,-0.13677 0.0782,-0.21004 0.0122,-0.0616 -0.009,0.18026 -0.0711,0.1744 -1.41837,-0.13306 -2.81212,-0.49857 -4.23448,-0.5783 -0.11737,-0.007 0.0516,0.22942 0.073,0.34501 0.008,0.0411 0.009,0.0832 0.0141,0.12482 0.0315,0.15446 0.0631,0.30892 0.0946,0.46337 0.10782,0.91936 0.62355,1.69121 1.02612,2.49812 -0.0135,-0.015 -0.0451,-0.0644 -0.0404,-0.0448 0.0606,0.2538 0.18855,0.55698 0.27688,0.79565 0.0657,0.1775 0.10406,0.21077 0.0414,0.14694 -0.01,0.0363 0.012,0.35785 -0.0229,0.18406 -0.005,-0.0277 -0.0136,-0.0566 -0.008,-0.0842 0.0189,-0.0945 0.0536,-0.18505 0.0805,-0.27757 -0.32658,0.36858 -0.65976,0.72989 -0.98557,1.09847 -0.5724,0.54627 -0.80109,1.31342 -1.20139,1.96801 -0.4526,0.87166 -0.89322,1.74492 -1.28193,2.64693 -0.2318,0.64796 -0.55963,1.25186 -0.80656,1.89915 -0.25618,0.81405 -0.56087,1.61576 -0.88468,2.40587 -0.30849,0.72321 -0.6982,1.40766 -1.0305,2.11933 -0.22175,0.57902 -0.51043,1.11492 -0.79834,1.66139 -0.0686,0.16269 -0.13732,0.32531 -0.20574,0.48806 -0.11262,0.26795 -0.1484,0.34485 -0.24535,0.67734 -0.0435,0.14925 -0.0719,0.30253 -0.11134,0.4529 -0.011,0.0418 -0.0511,0.165 -0.0399,0.12327 0.0201,-0.0754 0.0446,-0.14963 0.0669,-0.22446 -0.40007,0.71463 -0.50946,1.50551 -0.51755,2.31072 -0.0107,3.20904 4.52752,3.22424 4.53827,0.0152 v 0 c -7.3e-4,-0.0545 0.0405,-0.18368 -0.01,-0.16308 -0.0297,0.0121 -0.12609,0.25612 0.0106,-0.0595 0.0898,-0.20396 0.19054,-0.40347 0.26951,-0.61186 0.0747,-0.19724 0.0721,-0.37991 0.14021,-0.56492 0.1291,-0.35075 0.12328,-0.18719 0.12429,-0.33758 0.32853,-0.62954 0.65285,-1.25778 0.92158,-1.91559 0.095,-0.26214 -0.003,-0.008 0.24896,-0.49231 0.30198,-0.57994 0.58377,-1.1726 0.84349,-1.77233 0.3315,-0.82273 0.6528,-1.65626 0.92167,-2.50003 0.22038,-0.58266 0.52601,-1.12738 0.73218,-1.71563 0.32595,-0.75651 0.69576,-1.48797 1.07159,-2.22147 0.0922,-0.16941 0.18834,-0.3367 0.27648,-0.50825 0.13,-0.25303 0.1824,-0.50911 0.39648,-0.70831 0.45491,-0.55856 1.00841,-1.03741 1.39616,-1.65195 0.1402,-0.27246 0.30735,-0.53268 0.42062,-0.81739 0.31612,-0.79457 0.24883,-1.68454 0.0983,-2.50378 -0.17724,-0.63882 -0.40532,-1.26042 -0.64296,-1.87998 -0.15034,-0.29145 -0.29932,-0.59894 -0.46414,-0.88211 -7.6e-4,-0.002 -0.0804,-0.0536 -0.0813,-0.0571 -0.0378,-0.14209 -0.0552,-0.28878 -0.0829,-0.43317 -0.11218,-0.50149 0.0113,0.0694 -0.12685,-0.67029 -1.13279,-6.06352 -4.09168,-1.55434 -4.51224,-0.32069 -0.004,0.0216 -0.0142,0.043 -0.0122,0.0648 6e-4,0.006 0.0216,-0.003 0.0187,0.003 -0.23268,0.46197 -0.49994,0.85735 -0.57964,1.37322 -0.1849,0.61977 -0.37456,1.23143 -0.66692,1.81203 -0.3245,0.78539 -0.67828,1.52648 -1.10011,2.26679 -0.48031,0.92657 -1.01054,1.83022 -1.33951,2.82674 -0.32177,1.25101 -0.59056,2.51312 -0.88594,3.77055 -0.40495,1.71737 -0.93648,3.40424 -1.21477,5.15004 -0.62935,3.14674 3.82082,4.03677 4.45017,0.89003 z" /><path
           style="fill:#3c2114;fill-opacity:1;stroke-width:3.78191;stroke-linecap:round;stroke-linejoin:round;stroke-miterlimit:2"
           id="path220"
           d="m 233.62032,235.02304 c 0.33107,-0.42315 0.60818,-0.91169 0.99459,-1.29198 0.22187,-0.21836 0.67395,-0.4313 0.93479,-0.5855 0.72058,-0.44108 1.43681,-0.8904 2.15326,-1.33899 0.89775,-0.56211 0.26722,-0.21943 0.86303,-0.53165 0.52814,-0.28989 1.12109,-0.43141 1.62155,-0.78211 0.17228,-0.12073 0.32707,-0.26468 0.4906,-0.39701 0.20975,-0.75995 0.79425,-1.50893 0.62925,-2.27982 -0.33923,-1.58488 -1.96492,-1.85202 -3.1956,-1.95979 -0.7057,-0.0401 -1.4127,-0.0208 -2.11895,-0.013 -1.08258,-0.0226 -2.09925,0.437 -2.87952,1.17098 -0.17487,0.1645 -0.3293,0.34947 -0.49396,0.5242 -0.0989,0.10638 -0.20292,0.20827 -0.29678,0.31914 -0.67925,0.80243 -0.19966,0.27905 -0.77861,0.9995 -0.29154,0.36279 -0.63997,0.68338 -0.96934,1.01045 -0.40822,0.45171 -0.91606,0.79281 -1.3654,1.19867 -0.19153,0.173 -0.37201,0.35793 -0.5615,0.53315 -0.13763,0.0725 -0.22351,0.15818 -0.37825,0.16098 -3.108,0.79898 -1.97808,5.19436 1.12992,4.39538 v 0 c 0.86794,-0.24613 1.66623,-0.627 2.34257,-1.23645 0.13077,-0.12251 0.25101,-0.2561 0.38401,-0.37618 0.54475,-0.49188 1.15399,-0.91379 1.65056,-1.45936 0.48248,-0.48136 0.96105,-0.961 1.38954,-1.49235 0.16862,-0.20909 0.30809,-0.44108 0.48212,-0.64569 0.11069,-0.13015 0.23235,-0.25055 0.34853,-0.37582 0.0309,-0.0432 0.0621,-0.0861 0.0927,-0.12945 0.0137,-0.0194 0.0434,-0.0352 0.04,-0.0587 -0.002,-0.0133 -0.93599,0.0512 -0.0868,-4.6e-4 0.577,-0.006 1.15443,-0.0222 1.73125,7.4e-4 0.0807,0.003 0.16161,3.5e-4 0.24206,0.007 0.0308,0.002 0.11107,0.0358 0.092,0.0116 -1.66045,-2.10949 -1.41456,-0.85434 -0.5371,-3.61229 0.0799,-0.0537 0.15734,-0.11122 0.23959,-0.16122 0.007,-0.004 -0.002,0.0168 -0.009,0.0209 -0.0388,0.025 -0.0804,0.0456 -0.12284,0.0639 -0.10613,0.0457 -0.21556,0.0833 -0.32226,0.1276 -0.18976,0.0788 -0.38115,0.15427 -0.56704,0.24183 -0.14589,0.0687 -0.28496,0.15108 -0.42743,0.22662 -1.07476,0.61286 -2.09468,1.31453 -3.15446,1.95061 -0.48318,0.29461 -0.89999,0.52809 -1.34357,0.89028 -0.68271,0.55745 -1.25344,1.23047 -1.73031,1.9692 -2.05439,2.46527 1.43202,5.37061 3.48641,2.90535 z" /></g><g
         id="g9"
         style="display:inline"
         transform="matrix(1.3220834,0,0,1.3220834,-240.31957,-148.58908)"><path
           style="display:inline;fill:#000000;fill-opacity:1;stroke-width:3.78191;stroke-linecap:round;stroke-linejoin:round;stroke-miterlimit:2"
           id="path186"
           d="m 282.51747,320.17492 c -0.11703,-1.8939 -0.13013,-3.7907 -0.2429,-5.68492 -0.12209,-1.67406 -0.0692,-3.35342 -0.14098,-5.02884 -0.0846,-1.32017 -0.17845,-2.64056 -0.11511,-3.96319 0.0924,-1.35091 0.44212,-2.65047 0.79462,-3.95061 0.49525,-1.66785 1.09254,-3.30156 1.62244,-4.95795 0.49723,-1.28466 0.97754,-2.57509 1.4237,-3.87836 0.47863,-1.16818 1.00259,-2.31691 1.46145,-3.49316 0.38779,-0.99571 0.76015,-1.9976 1.12497,-3.00196 0.52152,-1.2444 1.04166,-2.48949 1.5874,-3.72365 0.58104,-1.31465 1.11149,-2.61735 1.52004,-3.99604 0.42081,-1.36503 0.92768,-2.70022 1.37955,-4.05463 0.55021,-1.57214 0.81181,-3.22084 1.24195,-4.82589 0.3025,-1.04382 0.48217,-2.11383 0.67265,-3.18167 0.20283,-1.16901 0.40483,-2.33701 0.52459,-3.51797 0.0994,-1.0854 0.0737,-2.1765 0.0601,-3.26479 -0.0132,-1.00629 -0.0138,-2.01268 -0.0136,-3.01903 -0.0508,-0.83298 -0.15733,-1.66013 -0.29114,-2.48308 -0.0907,-0.71779 -0.23218,-1.42804 -0.39043,-2.13351 -0.2929,-1.30463 -2.13793,-0.8904 -1.84503,0.41423 v 0 c 0.15029,0.66884 0.28454,1.34206 0.36906,2.02301 0.1177,0.72276 0.21032,1.44821 0.26659,2.17905 -1.6e-4,1.01433 3.8e-4,2.02868 0.0138,3.04294 0.0127,1.01734 0.0392,2.03738 -0.0508,3.05223 -0.11258,1.13338 -0.31208,2.25327 -0.50472,3.37518 -0.18075,1.01524 -0.34884,2.03287 -0.6378,3.02494 -0.41863,1.56885 -0.67892,3.17829 -1.20911,4.71642 -0.45785,1.37504 -0.97399,2.72989 -1.39889,4.11619 -0.38422,1.30143 -0.88888,2.52672 -1.43629,3.76792 -0.56267,1.2734 -1.10079,2.55734 -1.63525,3.84268 -0.3597,0.99068 -0.72707,1.97883 -1.10954,2.96092 -0.4674,1.20118 -1.00989,2.37073 -1.48857,3.56734 -0.45013,1.31554 -0.93889,2.61642 -1.43581,3.91493 -0.53769,1.68347 -1.14682,3.34308 -1.64639,5.03912 -0.3883,1.43356 -0.76334,2.87023 -0.85852,4.35989 -0.0591,1.37894 0.0191,2.75498 0.11498,4.13114 0.0754,1.68512 0.0151,3.37491 0.14252,5.05867 0.1154,1.93493 0.1213,3.8731 0.25417,5.80699 0.16584,1.32678 2.0422,1.09223 1.87634,-0.23454 z" /><path
           style="display:inline;fill:#000000;fill-opacity:1;stroke-width:3.78191;stroke-linecap:round;stroke-linejoin:round;stroke-miterlimit:2"
           id="path187"
           d="m 294.85249,253.42539 c -0.0584,-0.92231 -0.17032,-1.8519 -0.46853,-2.73178 -0.0937,-0.27645 -0.20803,-0.54548 -0.31204,-0.81821 -0.53922,-1.51796 -1.14215,-3.0111 -1.76906,-4.49455 -0.37742,-1.03308 -0.86744,-2.00855 -1.3707,-2.98323 -0.42971,-0.88112 -1.02046,-1.65075 -1.68867,-2.361 -0.81709,-0.87068 -1.63079,-1.73713 -2.50001,-2.55719 -1.2356,-1.13391 -2.5821,-2.12959 -3.90865,-3.15105 -0.82359,-0.60838 -1.61777,-1.25494 -2.47974,-1.80872 -1.09683,-0.73852 -2.18523,-1.48292 -3.37498,-2.06392 -1.09449,-0.54778 -2.20125,-1.05232 -3.36005,-1.44676 -1.21066,-0.4928 -2.44359,-0.92452 -3.6916,-1.31209 -1.25586,-0.35939 -2.53084,-0.67153 -3.8111,-0.93268 -1.54014,-0.28892 -3.10141,-0.45714 -4.65882,-0.62406 -1.48533,-0.24419 -2.98963,-0.25712 -4.48703,-0.35213 -1.16763,-0.10157 -2.33862,-0.1365 -3.51013,-0.14159 -1.14543,-0.006 -2.2848,-0.0244 -3.41975,0.14357 -1.10176,0.20913 -2.21491,0.39412 -3.29692,0.69112 -1.12553,0.27651 -2.23089,0.62939 -3.33143,0.99111 -1.16359,0.36032 -2.18717,1.01183 -3.22285,1.6309 -0.8506,0.51817 -1.57935,1.18818 -2.32626,1.8378 -0.67386,0.62625 -1.32667,1.27427 -1.90384,1.99166 -0.43853,0.59192 -0.8112,1.24168 -1.13728,1.9024 -0.24129,0.50036 -0.52133,0.97821 -0.75866,1.48088 -0.56962,1.20971 1.14117,2.01527 1.71078,0.80556 v 0 c 0.23365,-0.49778 0.51691,-0.96752 0.7511,-1.46501 0.25091,-0.5403 0.57015,-1.06018 0.91311,-1.54564 0.49818,-0.63424 1.08486,-1.18912 1.6673,-1.74441 0.66128,-0.57752 1.30333,-1.17585 2.05456,-1.64051 0.91544,-0.5481 1.81415,-1.13684 2.84296,-1.45739 1.07447,-0.35382 2.1541,-0.69752 3.25323,-0.96723 1.0019,-0.29241 2.04884,-0.43306 3.07037,-0.64207 1.03524,-0.16552 2.08014,-0.11232 3.12558,-0.1218 1.13481,0.005 2.26901,0.0389 3.40002,0.13791 1.46996,0.0908 2.94613,0.10574 4.40405,0.3451 1.49945,0.15999 3.00266,0.322 4.48583,0.59741 1.2184,0.24279 2.42966,0.5487 3.62501,0.88517 1.23251,0.38175 2.44762,0.81303 3.644,1.29664 1.08547,0.36725 2.11785,0.84689 3.1433,1.35786 1.12719,0.54093 2.14165,1.26874 3.18281,1.95659 0.81893,0.51725 1.55913,1.14513 2.343,1.71276 1.27694,0.98266 2.57364,1.93928 3.76475,3.02835 0.84319,0.79476 1.63082,1.63577 2.42302,2.48029 0.55034,0.57909 1.03385,1.20649 1.38313,1.93038 0.2129,0.41155 0.4551,0.81552 0.64373,1.2391 0.23626,0.53055 0.42705,1.08217 0.66507,1.61212 0.61959,1.46558 1.21456,2.94104 1.7473,4.44078 0.36849,0.93512 0.61798,1.85654 0.65313,2.86756 0,1.33711 1.89096,1.33711 1.89096,0 z" /><path
           style="display:inline;fill:#000000;fill-opacity:1;stroke-width:3.78191;stroke-linecap:round;stroke-linejoin:round;stroke-miterlimit:2"
           id="path189"
           d="m 288.23415,318.02304 c 0,-1.14763 0,-2.29526 0,-3.44289 0,-0.93151 0,-1.86301 0,-2.79453 0,-0.78405 0,-1.5681 0,-2.35216 0,-0.90639 0,-1.81278 0,-2.71917 -0.0417,-0.78046 0.17871,-1.53249 0.29592,-2.29646 0.23142,-0.97621 0.22641,-1.98095 0.32203,-2.97289 0.10068,-0.89563 0.14375,-1.79551 0.15051,-2.6963 0.002,-0.8226 0.11172,-1.64219 0.23826,-2.45399 0.10772,-0.77369 0.1945,-1.55069 0.32236,-2.32163 0.10033,-0.86016 0.24371,-1.71058 0.41677,-2.55863 0.1438,-0.91765 0.27963,-1.83591 0.41527,-2.75482 0.0462,-0.74311 0.15979,-1.46727 0.32885,-2.19009 0.13292,-0.72846 0.24678,-1.45915 0.40714,-2.18165 0.10301,-0.64437 0.39899,-1.235 0.61611,-1.84573 0.21633,-0.68503 0.6264,-1.26918 1.03041,-1.85371 0.19658,-0.24871 0.32231,-0.54032 0.50634,-0.79665 1.19332,-1.77564 -1.3178,-3.46325 -2.51113,-1.68762 v 0 c -0.16726,0.25524 -0.31428,0.5177 -0.48748,0.76894 -0.55273,0.80577 -1.09106,1.62758 -1.39259,2.56608 -0.25098,0.72636 -0.60083,1.4259 -0.71536,2.19335 -0.15781,0.71156 -0.27832,1.42948 -0.3995,2.14812 -0.18806,0.80451 -0.32576,1.61246 -0.37609,2.43856 -0.12665,0.86403 -0.25606,1.72719 -0.38644,2.59045 -0.1811,0.88798 -0.33336,1.77871 -0.43881,2.67905 -0.12404,0.77797 -0.22088,1.55996 -0.32535,2.34051 -0.14913,0.95873 -0.26935,1.92693 -0.27422,2.89842 -0.005,0.81581 -0.0458,1.63058 -0.138,2.44159 -0.0824,0.93596 -0.0863,1.88129 -0.30141,2.80176 -0.13089,0.91226 -0.39275,1.81053 -0.32912,2.74334 0,0.90639 0,1.81278 0,2.71917 0,0.78406 0,1.56811 0,2.35216 0,0.93152 0,1.86302 0,2.79453 0,1.14763 0,2.29526 0,3.44289 0,2.13937 3.02553,2.13937 3.02553,0 z" /><path
           style="display:inline;fill:#000000;fill-opacity:1;stroke-width:3.78191;stroke-linecap:round;stroke-linejoin:round;stroke-miterlimit:2"
           id="path193"
           d="m 244.18279,226.23761 c -0.20615,-0.26283 -0.37812,-0.55649 -0.61843,-0.78849 -0.91176,-0.88018 -3.05517,-1.39381 -4.27054,-1.69741 -1.8894,-0.32616 -3.87251,-0.60869 -5.78284,-0.25596 -0.39873,0.0736 -0.78544,0.20175 -1.17817,0.30263 -2.25495,0.74127 -3.91815,2.26189 -5.54735,3.9141 -0.94002,0.98121 -1.76198,2.07928 -2.30508,3.33221 -0.30885,0.71252 -0.37177,1.05411 -0.56717,1.78911 -0.15401,0.63066 -0.2086,1.27348 -0.23962,1.91906 -0.0885,2.13754 2.93447,2.26266 3.02294,0.12512 v 0 c 0.0131,-0.43207 0.0497,-0.86176 0.1454,-1.28497 0.10973,-0.43901 0.18104,-0.79238 0.35315,-1.21257 0.39539,-0.96531 1.03078,-1.79671 1.74675,-2.54573 1.22972,-1.25221 2.49649,-2.50462 4.18229,-3.11611 0.24853,-0.0729 0.49195,-0.1663 0.7456,-0.21866 1.54416,-0.3188 3.16383,-0.0474 4.6964,0.18849 0.76965,0.18889 1.50747,0.40187 2.25396,0.66662 0.12914,0.0458 0.26051,0.0856 0.38786,0.13613 0.0783,0.0311 0.16196,0.16044 0.22825,0.10846 0.0647,-0.0507 -0.0417,-0.15892 -0.0625,-0.23837 0.79454,1.98635 3.60367,0.86269 2.80913,-1.12366 z" /><path
           style="display:inline;fill:#000000;fill-opacity:1;stroke-width:3.78191;stroke-linecap:round;stroke-linejoin:round;stroke-miterlimit:2"
           id="path195"
           d="m 293.26827,279.49219 c 1.06862,-1.28242 1.5403,-2.87994 1.86292,-4.48609 0.19342,-0.71853 0.20575,-1.46737 0.33773,-2.19534 0.0458,-0.25229 0.11243,-0.50033 0.16451,-0.75138 0.14879,-0.8458 0.2285,-1.70218 0.36471,-2.54975 0.12222,-0.75812 0.13735,-1.5258 0.25982,-2.28245 0.18558,-0.72795 0.32291,-1.46932 0.4285,-2.21306 0.11157,-0.85124 0.21684,-1.69807 0.25073,-2.55708 0.0197,-0.80306 0.003,-1.60639 -0.002,-2.40953 -0.005,-0.75949 -0.004,-1.51899 -0.003,-2.27849 0.0331,-1.0271 -0.0935,-2.04825 -0.16523,-3.07108 -0.0999,-0.9051 -0.34105,-1.7874 -0.5268,-2.67759 -0.14634,-0.45658 -0.19693,-0.9375 -0.33378,-1.39598 -0.39587,-1.32618 0.0267,0.20628 -0.21324,-0.67595 -0.22859,-0.80277 -0.4494,-1.60682 -0.69766,-2.40397 -0.27928,-0.85465 -0.74338,-1.63103 -1.07012,-2.46517 -0.26329,-0.70202 -0.66703,-1.33464 -1.03107,-1.98598 -0.52449,-0.74703 -1.11639,-1.44475 -1.61698,-2.20955 -0.58056,-0.89634 -1.22975,-1.74209 -1.8705,-2.59535 -0.51883,-0.72246 -1.04109,-1.44399 -1.51039,-2.20035 -0.46628,-0.7617 -1.02611,-1.46802 -1.64028,-2.11561 -0.56862,-0.50353 -1.14159,-1.00243 -1.74419,-1.46519 -0.68712,-0.5065 -1.43136,-0.91605 -2.21201,-1.25758 -0.74609,-0.2899 -1.41245,-0.73386 -2.1276,-1.08747 -0.861,-0.36925 -1.68907,-0.80705 -2.52846,-1.2218 -1.12442,-0.59154 -2.26234,-1.15475 -3.46134,-1.57805 -0.59707,-0.25002 -1.18468,-0.52016 -1.7853,-0.76623 -0.83994,-0.31098 -1.70388,-0.55158 -2.54725,-0.85149 -0.69897,-0.22017 -1.40375,-0.42436 -2.11985,-0.58127 -0.78521,-0.10316 -1.57728,-0.14978 -2.361,-0.26711 -0.46198,-0.075 -0.92358,-0.15477 -1.39122,-0.18459 -0.38713,-0.0247 -0.19289,0.0139 -0.40894,-0.0364 -0.58449,-0.15146 -1.16886,-0.28104 -1.77178,-0.34103 -0.40646,-0.0487 -0.81675,0.005 -1.22354,-0.0121 -0.18937,-0.008 -0.37633,-0.0455 -0.5647,-0.0666 -0.77951,-0.0976 -1.56409,-0.11997 -2.34869,-0.12106 -0.25249,-0.0172 -0.50882,0.0247 -0.76113,0.008 -0.0298,-0.002 0.11477,0.004 0.0889,-0.0113 -0.12535,-0.0731 -0.28416,-0.0587 -0.42662,-0.0861 -0.64854,-0.12214 -1.31013,-0.10057 -1.96656,-0.0975 -0.79229,0.006 -1.5846,0.009 -2.37691,0.0101 -0.5452,-2e-5 -1.09041,-5e-4 -1.63561,-6.8e-4 -0.53854,-1.2e-4 -1.07708,-5e-5 -1.61563,-4e-5 -0.66004,-0.002 -1.31567,-0.0237 -1.97048,0.061 -0.27001,0.0725 -0.54274,0.10902 -0.80677,0.20606 -0.25791,0.0948 -0.48495,0.22144 -0.74712,0.298 -0.64458,0.27088 -1.31378,0.47007 -1.97934,0.68519 -0.50112,0.0568 -0.92454,0.41515 -1.41736,0.48352 -0.52377,0.12859 -0.99503,0.40788 -1.516,0.54334 -0.86465,0.28488 -1.63466,0.78111 -2.39316,1.27233 -0.61318,0.40298 -1.18223,0.86016 -1.67692,1.402 -0.43097,0.28793 -0.71405,0.74227 -1.01403,1.15237 -0.32224,0.48189 -0.72073,0.89559 -1.09674,1.33426 -0.33523,0.47026 -0.71705,0.89074 -1.00138,1.39564 -0.22296,0.35993 -0.38638,0.74995 -0.58414,1.12355 -0.047,0.10999 -0.094,0.21998 -0.14096,0.32997 -0.79795,1.98499 2.00925,3.11346 2.8072,1.12847 v 0 c 0.004,-0.0175 0.008,-0.0349 0.0127,-0.0524 0.18673,-0.36084 0.33082,-0.71222 0.54327,-1.04831 0.025,-0.0446 0.059,-0.0853 0.0749,-0.13391 0.006,-0.0184 -0.0542,0.0543 -0.0437,0.0381 0.18444,-0.28606 0.46748,-0.5071 0.62923,-0.81214 0.42718,-0.49839 0.87174,-0.97925 1.24468,-1.5213 0.0711,-0.0979 0.14447,-0.1942 0.21339,-0.29366 0.0288,-0.0416 0.0862,-0.15603 0.11493,-0.18185 0.0687,-0.0617 0.1425,-0.11738 0.21376,-0.17608 0.09,-0.0841 0.17993,-0.16821 0.2699,-0.25232 0.3137,-0.35169 0.68808,-0.63003 1.07868,-0.89304 0.50886,-0.32966 1.0153,-0.67562 1.57966,-0.90261 0.46599,-0.13829 0.91792,-0.31207 1.36401,-0.50413 0.5745,-0.14366 1.09875,-0.40232 1.67005,-0.5534 0.66443,-0.21549 1.33642,-0.41557 1.98056,-0.6856 0.39718,-0.13391 0.75042,-0.33235 1.16237,-0.40542 -0.14421,-0.0247 -0.094,-0.0121 0.15477,-0.0121 0.4247,0 0.84939,-1e-5 1.27409,-1e-5 0.53818,-2e-5 1.07636,-9e-5 1.61454,3e-5 0.54661,1.9e-4 1.09321,6.7e-4 1.63982,6.8e-4 0.79601,-7.5e-4 1.59202,-0.005 2.38801,-0.0101 0.46064,-0.002 0.92653,-0.0271 1.38355,0.0436 0.55189,0.10485 1.10006,0.19066 1.6643,0.14393 0.67485,4.7e-4 1.34965,0.017 2.02004,0.10282 0.61622,0.0675 1.22847,0.092 1.84771,0.0846 0.55001,0.039 1.06604,0.23005 1.60723,0.3216 0.60215,0.0754 1.21074,0.0912 1.80663,0.22188 0.71543,0.0999 1.43522,0.17599 2.15542,0.23028 0.59394,0.12388 1.17436,0.3043 1.75486,0.47848 0.79678,0.27656 1.60555,0.51758 2.4017,0.79621 0.64796,0.26523 1.27886,0.55933 1.92762,0.82039 1.08538,0.38038 2.10705,0.90704 3.12625,1.43697 0.84303,0.41583 1.6742,0.85663 2.53888,1.22692 0.75851,0.36469 1.45526,0.85064 2.24931,1.14368 0.56084,0.2423 1.09449,0.5289 1.58785,0.89162 0.48176,0.36067 0.92547,0.76999 1.3907,1.14979 0.4799,0.49282 0.90168,1.04487 1.26194,1.63014 0.52073,0.82401 1.08185,1.62169 1.65456,2.41007 0.60826,0.80946 1.22569,1.60997 1.77542,2.46137 0.46747,0.68858 0.9585,1.36353 1.49069,2.00355 0.30284,0.54086 0.64486,1.06277 0.86707,1.64423 0.31073,0.75291 0.6969,1.47073 0.98673,2.23218 0.24235,0.77243 0.45333,1.55252 0.67576,2.33071 0.181,0.61887 0.36332,1.23161 0.49577,1.86455 0.15945,0.75531 0.3556,1.5051 0.46968,2.26805 0.0671,0.95173 0.18892,1.90133 0.15777,2.85692 -5e-4,0.76696 -7.6e-4,1.53392 0.003,2.30087 0.005,0.75824 0.0204,1.51665 0.005,2.27484 -0.027,0.75705 -0.12579,1.50166 -0.22367,2.25192 -0.0994,0.72402 -0.24895,1.43981 -0.41905,2.15029 -0.12288,0.76301 -0.15451,1.53302 -0.26234,2.29834 -0.12198,0.7994 -0.21193,1.60354 -0.33796,2.40232 -0.0654,0.31622 -0.14265,0.63015 -0.19855,0.94819 -0.11835,0.67329 -0.13025,1.36402 -0.30961,2.02789 -0.19675,1.0271 -0.4623,2.03966 -1.03374,2.93105 -1.51277,1.51277 0.62661,3.65214 2.13937,2.13938 z" /><path
           id="path197"
           style="fill:#000000;fill-opacity:1;stroke-width:3.78191;stroke-linecap:round;stroke-linejoin:round;stroke-miterlimit:2"
           d="m 270.02189,216.87865 c -1.99699,0.0276 -3.98728,0.28959 -5.93583,0.71945 -0.51984,0.12889 -1.04421,0.23779 -1.55856,0.38705 -1.86357,0.54081 -3.60146,1.43159 -5.14989,2.59711 -1.34678,1.05613 -2.52546,2.10039 -3.31508,3.65043 -0.68793,1.14656 0.93415,2.1201 1.62208,0.97354 0.64263,-1.31292 1.72197,-2.25398 2.85564,-3.13337 1.37957,-1.03683 2.93005,-1.82209 4.59147,-2.29573 0.46403,-0.1323 0.93755,-0.22868 1.4064,-0.34274 1.82731,-0.40115 3.69415,-0.64347 5.5665,-0.66627 1.05369,-0.0129 1.40754,0.038 2.45529,0.11819 1.85072,0.19877 3.70938,0.50624 5.44979,1.19219 0.3509,0.13831 0.68929,0.3066 1.03411,0.45944 1.23864,0.6546 2.39734,1.48376 3.27076,2.59268 0.41734,0.52988 0.68916,1.04384 1.02821,1.62504 0.90388,1.77752 1.51675,3.68106 2.14948,5.56649 0.42967,1.34326 0.6718,2.73841 0.71502,4.14681 0.0437,1.3364 1.93313,1.27431 1.88948,-0.062 -0.0547,-1.59194 -0.32088,-3.16958 -0.81104,-4.6875 -0.67454,-2.00894 -1.33079,-4.03543 -2.31199,-5.92105 -0.44554,-0.75405 -0.70169,-1.25056 -1.25719,-1.93823 -1.05409,-1.30492 -2.4312,-2.28887 -3.91191,-3.0536 -0.394,-0.17205 -0.78127,-0.35944 -1.18185,-0.51558 -1.89296,-0.73788 -3.90991,-1.07913 -5.92105,-1.29116 -1.16012,-0.0859 -1.51184,-0.13729 -2.67984,-0.12114 z m -0.71797,5.35081 c -1.27174,0.0468 -2.5351,0.26593 -3.73316,0.69876 -0.26377,0.11596 -0.53241,0.2218 -0.79184,0.34717 -0.85022,0.41086 -1.61294,0.96365 -2.43017,1.43151 -1.24147,0.49658 -0.53976,2.25311 0.70172,1.75652 0.70054,-0.33221 1.31778,-0.80908 1.98994,-1.19071 0.56479,-0.32066 0.68627,-0.35236 1.28673,-0.6116 1.58574,-0.56797 3.18492,-0.57729 4.84262,-0.4949 0.97474,0.12633 2.04493,0.13536 2.87927,0.71649 0.98925,0.77137 1.91584,1.626 2.79359,2.52177 0.66589,0.78331 0.85833,1.80912 1.15821,2.76404 0.0438,0.14378 0.0877,0.28759 0.13148,0.43138 0.3897,1.27906 2.1994,0.72801 1.80971,-0.55104 -0.0455,-0.14916 -0.0919,-0.29847 -0.13739,-0.44762 -0.39187,-1.24438 -0.69125,-2.53873 -1.61322,-3.52191 -0.9827,-0.99732 -2.01213,-1.95812 -3.13485,-2.79654 -0.18257,-0.10907 -0.35815,-0.23229 -0.54808,-0.32796 -0.99751,-0.50245 -2.16511,-0.53612 -3.24713,-0.67809 -0.69419,-0.0332 -1.25828,-0.0729 -1.95743,-0.0473 z" /><path
           id="path25-7"
           style="display:inline;opacity:1;fill:#000000;fill-opacity:1;stroke-width:5;stroke-linecap:round;stroke-linejoin:round;stroke-miterlimit:2"
           d="m 287.28128,243.88385 c -0.19186,0.28359 -0.29321,0.65838 -0.24227,1.11684 0.012,0.0666 0.0236,0.13279 0.0354,0.19944 0.0663,-0.43916 0.13579,-0.87789 0.20682,-1.31628 z m 7.46337,19.74865 c -0.0604,0.48325 -0.12271,0.96537 -0.16989,1.45072 -0.0986,0.99844 -0.36776,1.96564 -0.68547,2.91325 -0.0383,0.11005 -0.0769,0.2194 -0.11523,0.32944 -0.054,0.15491 -0.10948,0.30594 -0.16694,0.45354 1.60931,4.08575 3.14657,8.20004 4.66829,12.31927 1.63133,4.26864 2.76591,8.68749 3.81589,13.12589 0.42784,1.66926 0.68817,3.37281 0.944,5.07455 0.12114,0.80578 0.31419,2.00822 0.35603,2.82609 0.0219,0.42869 -0.006,0.85898 -0.009,1.28822 -0.0683,0.40527 -0.10033,0.81848 -0.20535,1.21582 -0.48335,1.82925 -1.74778,3.45443 -3.10825,4.72148 -0.44918,0.41833 -0.94065,0.78873 -1.41083,1.18332 -1.46796,1.04248 -3.03252,1.97904 -4.77466,2.48484 -1.24031,0.36011 -2.50248,0.42473 -3.78191,0.44171 -0.62318,-0.009 -1.24047,-0.0902 -1.8555,-0.18171 -2.09896,-0.30714 -2.5333,2.66225 -0.43433,2.96939 0.7777,0.11227 1.5582,0.20851 2.34596,0.21126 1.63051,-0.0376 3.20867,-0.15251 4.78353,-0.63377 2.0636,-0.63062 3.92476,-1.74181 5.65809,-3.00337 0.55138,-0.47167 1.12991,-0.91406 1.65459,-1.41526 1.79643,-1.71607 3.3106,-3.87262 3.88827,-6.3214 0.12925,-0.54787 0.15941,-1.11363 0.23933,-1.67084 -0.003,-0.53388 0.0216,-1.06978 -0.007,-1.60288 -0.0466,-0.86029 -0.24458,-2.11201 -0.37376,-2.96939 -0.26829,-1.78068 -0.54486,-3.56216 -0.9898,-5.30944 -1.07809,-4.55668 -2.24774,-9.09173 -3.92077,-13.47453 -1.84081,-4.98274 -3.70543,-9.95828 -5.6906,-14.88536 -0.21746,-0.51402 -0.43718,-1.02645 -0.65444,-1.54084 z" /><path
           style="display:inline;opacity:1;fill:#000000;fill-opacity:1;stroke-width:5;stroke-linecap:round;stroke-linejoin:round;stroke-miterlimit:2"
           id="path58-1"
           d="m 300.92393,310.21391 c -0.36516,1.67416 -0.44363,3.38928 -0.47283,5.09682 -0.0153,1.19788 0.21691,2.3758 0.2748,3.57112 0.0581,1.54703 -0.0246,3.09519 0.0617,4.64072 0.17405,1.25931 0.35207,2.52379 0.73471,3.73903 0.25831,0.88085 0.97056,1.4785 1.4408,2.23553 0.0715,0.15499 0.16307,0.63294 0.0421,0.76357 -0.007,-0.0273 0.004,-0.0695 -0.0218,-0.0819 -0.0341,-0.0166 -0.0772,0.003 -0.11268,0.0164 -0.12299,0.0462 -0.24042,0.10616 -0.35972,0.16124 -0.20596,0.0951 -0.40922,0.19603 -0.61604,0.28924 -0.74397,0.33531 -0.60765,0.27017 -1.35394,0.53713 -1.23945,0.51202 -2.56234,0.67967 -3.89031,0.74615 -1.62408,0.0343 -3.24857,-0.009 -4.87274,-0.0223 -0.23383,-9.9e-4 -1.07244,0.041 -1.38641,-0.093 -0.12895,-0.055 -0.076,-0.27109 -0.13416,-0.39864 -1.10952,-2.43162 0.59096,1.55487 -0.60422,-1.28843 -0.46219,-1.11549 -0.76021,-2.27615 -0.75511,-3.48355 0.1174,-1.24198 0.41311,-2.45442 0.55438,-3.69288 0.0991,-1.24588 0.0579,-2.4975 0.0411,-3.74577 -0.086,-0.67851 0.22224,-1.14044 0.55855,-1.70008 0.5537,-0.92143 0.31576,-0.51518 0.83405,-1.42868 0.10277,-0.20545 0.20554,-0.41091 0.3083,-0.61636 0.62999,-1.26614 -1.1606,-2.15708 -1.79059,-0.89094 v 0 c -0.0859,0.17367 -0.17173,0.34733 -0.2576,0.521 -0.73689,1.30109 -1.76239,2.56376 -1.65253,4.1419 0.0156,1.16513 0.0545,2.33317 -0.0289,3.49652 -0.14355,1.31316 -0.48884,2.59616 -0.56678,3.91838 0.009,1.47669 0.34137,2.90127 0.91546,4.26516 0.34423,0.79757 0.70481,1.81811 1.39505,2.4012 0.74694,0.63101 1.64294,0.60944 2.55349,0.59412 1.66404,0.0132 3.32849,0.059 4.9924,0.0196 1.52351,-0.0817 3.04109,-0.2826 4.46556,-0.86226 0.89801,-0.32662 2.7731,-1.00173 3.39141,-1.72355 0.14314,-0.16711 0.21891,-0.38175 0.32837,-0.57263 0.1715,-0.81306 0.13632,-1.60867 -0.29155,-2.34782 -0.39524,-0.6076 -0.9332,-1.10984 -1.22283,-1.77324 -0.35138,-1.04713 -0.45946,-2.15621 -0.64127,-3.24075 -0.0944,-1.53895 0.0106,-3.08289 -0.0608,-4.62354 -0.0586,-1.15139 -0.26725,-2.28629 -0.27262,-3.43813 0.0254,-1.53388 0.0919,-3.07285 0.39616,-4.58103 0.38851,-1.3598 -1.53453,-1.90924 -1.92305,-0.54944 z" /></g></g></g></svg>
