<?xml version="1.0" encoding="UTF-8" standalone="no"?>
<!-- Created with Inkscape (http://www.inkscape.org/) -->

<svg
   width="63.687149"
   height="85.995438"
   viewBox="0 0 63.687149 85.995438"
   version="1.1"
   id="svg1"
   xml:space="preserve"
   xmlns:xlink="http://www.w3.org/1999/xlink"
   xmlns="http://www.w3.org/2000/svg"
   xmlns:svg="http://www.w3.org/2000/svg"><defs
     id="defs1"><linearGradient
       id="linearGradient130"><stop
         style="stop-color:#858585;stop-opacity:1;"
         offset="0"
         id="stop130" /><stop
         style="stop-color:#707070;stop-opacity:1;"
         offset="0.5"
         id="stop132" /><stop
         style="stop-color:#577c35;stop-opacity:1;"
         offset="1"
         id="stop131" /></linearGradient><linearGradient
       id="linearGradient1"><stop
         style="stop-color:#4dc1ef;stop-opacity:1;"
         offset="0"
         id="stop1" /><stop
         style="stop-color:#13466b;stop-opacity:1;"
         offset="1"
         id="stop2" /></linearGradient><linearGradient
       xlink:href="#linearGradient1"
       id="linearGradient2"
       x1="238.58257"
       y1="162.24382"
       x2="258.38086"
       y2="25.99382"
       gradientUnits="userSpaceOnUse" /><linearGradient
       xlink:href="#linearGradient130"
       id="linearGradient131"
       x1="176.0332"
       y1="88.830933"
       x2="171.25195"
       y2="168.33093"
       gradientUnits="userSpaceOnUse" /></defs><g
     id="g10"
     style="display:inline"
     transform="translate(-151.34265,-57.311962)"><g
       id="g324"
       style="display:inline"
       transform="matrix(0.5,0,0,0.5,91.593113,50.15484)"><g
         id="g315"
         transform="translate(-62,-6.5)"><g
           id="g327"><path
             style="fill:#d8d2c3;fill-opacity:1;stroke-width:0.353553;stroke-linecap:round;stroke-linejoin:round;stroke-miterlimit:2;stroke-dasharray:none"
             d="m 187.33427,161.29009 c -1.49206,0.29306 -2.04863,2.07211 -1.33826,3.30835 0.17659,4.03009 0.11152,8.01258 -0.1785,12.06052 0.18449,1.58362 1.88035,1.95574 3.20682,2.02014 15.14524,1.9656 30.29018,3.61026 45.47107,5.10635 8.48407,0.64826 17.00551,0.99224 25.41523,2.37569 6.33541,1.06167 12.73255,1.64727 19.12379,2.24311 1.99002,0.14043 3.92976,0.87648 5.92133,0.82381 1.73821,-0.34011 1.90685,-2.34504 1.79953,-3.78033 -0.0909,-4.30005 -0.0737,-8.62134 -0.40945,-12.90362 -0.49692,-1.93569 -2.83892,-2.53037 -4.62247,-2.45023 -7.69576,-0.1596 -15.23094,-1.76454 -22.91959,-2.27814 -11.66154,-0.85879 -23.31223,-1.86175 -34.97474,-2.70593 -9.3422,-0.58541 -18.74984,-0.64071 -27.94236,-2.49827 -2.82097,-0.40838 -5.62044,-1.12659 -8.4593,-1.32418 z"
             id="path308" /><path
             style="fill:#7d776c;fill-opacity:1;stroke-width:0.353553;stroke-linecap:round;stroke-linejoin:round;stroke-miterlimit:2;stroke-dasharray:none"
             d="m 301.91699,39.726764 c -1.55279,0.981957 -1.37784,3.076739 -1.92917,4.64834 -1.95937,7.895877 -1.83102,16.077693 -2.5572,24.130808 -0.60318,8.252958 -1.16095,16.509022 -1.59711,24.772136 -0.82776,9.863422 -1.68192,19.724812 -2.32757,29.602472 -0.53233,5.66356 -1.36614,11.29533 -1.97264,16.95189 -1.19577,9.22525 -2.53233,18.43336 -3.89708,27.63429 -0.1748,1.22898 -0.5695,2.45323 -1.54006,3.29268 -0.9035,1.52364 -0.33165,3.39456 -0.46249,5.08364 0.18343,1.73173 -0.23429,3.73168 0.84747,5.21878 1.14655,1.13345 3.21119,0.39135 3.44127,-1.17736 2.86025,-10.91186 5.05532,-21.99665 6.45394,-33.19195 0.93625,-6.39728 1.75173,-12.81055 2.5199,-19.2289 0.61807,-4.23548 0.47572,-8.47068 0.91695,-12.71706 0.62271,-7.1437 0.45371,-14.32239 0.83707,-21.4757 1.12395,-6.990102 2.84473,-13.915158 3.19849,-21.011629 0.27186,-4.37876 0.62384,-8.63625 1.35413,-12.958907 0.17369,-1.744697 0.47167,-3.578136 -0.13362,-5.256689 0.18766,-4.25309 -0.12224,-8.525925 -0.36698,-12.763304 -0.16139,-1.319831 -1.58512,-2.032803 -2.7853,-1.553537 z"
             id="path309" /></g><g
           id="g314"><g
             id="g310"
             style="display:inline"><path
               style="display:inline;fill:url(#linearGradient2);fill-opacity:1;stroke-width:1;stroke-linecap:round;stroke-linejoin:round;stroke-miterlimit:2;stroke-dasharray:none"
               d="m 200.69043,24.248047 c -3.98408,0.04173 -3.59056,5.068664 -4.05132,7.818235 -3.09309,20.096108 -2.31982,40.481092 -4.73686,60.583648 -1.47822,20.0803 -3.1977,40.09471 -5.98038,60.06491 -0.17204,2.43289 -1.41012,6.74005 2.24805,7.11231 17.13456,3.99623 34.78989,3.508 52.18555,5.26757 13.18708,0.86002 26.3387,2.50838 39.51953,3.55762 2.39442,0.10971 6.84661,0.6169 6.71756,-2.9773 2.87011,-19.91812 5.74327,-39.8895 6.86659,-59.9751 1.93828,-19.648835 2.18637,-39.412183 4.68708,-58.964136 0.69727,-4.389401 2.64715,-8.666437 2.73463,-13.091273 -1.76275,-2.908738 -5.96046,-1.772325 -8.81152,-2.323242 C 267.8449,30.542444 243.64593,30.61602 219.70191,26.72641 213.4367,25.896113 207.05982,24.532703 200.69043,24.248047 Z"
               id="path310" /></g><g
             id="g51"><path
               id="path105"
               style="display:inline;fill:url(#linearGradient131);stroke-width:0.625;stroke-linecap:round;stroke-linejoin:round;stroke-miterlimit:2"
               d="m 178.84961,92.099609 c -0.10504,0.0018 -0.21153,0.02291 -0.31836,0.06445 -1.79022,1.816132 -4.4472,2.163947 -6.54687,3.470704 -0.67489,0.48277 -0.91662,1.485082 -0.69141,2.246093 0.74295,0.939667 2.01193,1.256176 3.06055,1.751953 3.59437,1.360491 7.52219,1.472731 11.31445,1.248051 0.88236,0.0805 1.3835,-0.76617 1.10351,-1.552738 -0.0167,-1.362104 -0.55996,-2.787305 -1.82031,-3.455078 -1.76032,-1.121515 -3.91615,-1.677805 -5.27539,-3.361328 -0.21476,-0.254825 -0.51106,-0.417458 -0.82617,-0.41211 z m -21.39258,2.001953 c -0.13497,-0.0034 -0.27508,0.02911 -0.42578,0.0625 -1.83003,1.773237 -4.36831,2.394916 -6.74414,3.0625 -1.22911,0.38167 -2.68788,1.115741 -2.95313,2.494141 -0.006,0.850207 0.9946,0.844197 1.46094,1.333987 2.97557,1.75747 6.53648,2.00646 9.9043,2.29297 1.09302,-0.002 2.31177,0.37302 3.30078,-0.22657 0.8642,0.59639 2.26529,0.44317 2.7793,-0.55664 0.5738,-1.33237 -0.7706,-2.40823 -1.60547,-3.236325 -1.81281,-1.650417 -3.53358,-3.417976 -5.32227,-5.080078 -0.12954,-0.104791 -0.25955,-0.143121 -0.39453,-0.146485 z m 43.86133,2.582032 c -0.10359,0.007 -0.21273,0.02982 -0.32617,0.05273 -1.14051,1.259881 -2.14159,2.686648 -3.49024,3.761726 -1.36681,1.26424 -3.13586,2.01156 -4.49609,3.26172 -0.47157,0.69223 0.0912,1.63534 0.55078,2.22265 1.41458,0.94324 3.08966,1.44016 4.6875,1.99805 3.13181,1.02814 6.50619,1.21559 9.75977,0.78515 0.98789,-0.10244 0.98074,-1.21902 0.96289,-1.9746 0.23479,-1.55668 -0.85974,-2.8866 -2.12696,-3.63086 -1.63174,-1.08479 -3.45158,-2.17843 -4.21875,-4.083992 -0.4589,-0.685368 -0.26631,-1.654076 -0.81054,-2.240234 -0.15943,-0.133975 -0.31955,-0.164059 -0.49219,-0.152344 z m -27.27539,3.474606 c -0.0381,-0.002 -0.0772,1e-5 -0.11524,0.002 -0.72755,0.0213 -0.8902,0.81488 -0.77343,1.38672 -0.57837,2.35361 0.52228,4.73125 1.91601,6.58007 1.4733,2.04449 4.42618,2.49259 6.63672,1.49414 2.08421,-1.06356 3.6731,-2.99354 4.625,-5.10156 0.28111,-0.91737 0.46389,-2.09851 -0.0918,-2.90625 -0.82066,-0.45884 -1.89508,-0.0403 -2.77734,-0.12109 -3.14297,0.0174 -6.30951,-0.35692 -9.30664,-1.32227 -0.0377,-0.005 -0.0752,-0.01 -0.11328,-0.0117 z m -24.39453,2.04688 c -0.24118,0.008 -0.43778,0.0992 -0.64453,0.28906 -0.33844,0.91625 0.1647,1.90362 0.14257,2.86133 -0.003,0.9795 0.11779,1.99134 0.8125,2.75195 0.87175,1.40888 2.31807,2.4343 3.98047,2.63281 2.17413,0.31157 4.36179,-0.25957 6.4668,-0.74804 1.1724,-0.37891 1.0665,-1.87007 1.22656,-2.85742 0.0132,-0.94096 0.24581,-1.92443 -0.0352,-2.83594 -0.76925,-0.65175 -1.89677,-0.29524 -2.83594,-0.46094 -3.02377,-0.20633 -6.00452,-0.49827 -8.85547,-1.61328 -0.0921,-0.0153 -0.17742,-0.0221 -0.25781,-0.0195 z m 45.50195,5.33203 c -1.22302,0.0742 -1.35015,1.56967 -1.66211,2.47656 -0.5125,1.89291 0.67811,3.72283 1.81641,5.13086 1.33665,1.61153 3.45061,2.57951 5.55273,2.25195 2.27744,-0.31385 4.62689,-1.28398 6.08203,-3.125 0.78774,-1.16206 1.20958,-2.71212 0.83008,-4.08789 -0.51521,-1.02359 -1.89339,-0.55502 -2.77344,-0.67773 -3.15111,-0.0299 -6.22548,-0.65439 -9.13281,-1.84961 -0.2303,-0.0719 -0.47002,-0.12742 -0.71289,-0.11914 z m -20.85156,1.11133 c -0.11279,0.006 -0.22872,0.0326 -0.34375,0.0879 -0.46586,0.26866 -0.29499,0.82068 -0.42969,1.20703 -1.95742,1.24744 -4.11173,2.23459 -5.85351,3.80664 -0.49539,0.37343 -1.42994,0.42978 -1.32618,1.27344 0.30156,0.87829 0.89764,1.70306 0.82618,2.69336 0.003,2.59755 0.16566,5.10309 -0.25782,7.6582 -0.18038,0.63072 -0.72725,1.44143 -0.0273,1.97461 1.37594,0.76054 2.98141,1.03281 4.49805,1.4082 2.92931,0.67021 5.95817,0.35404 8.93359,0.35547 0.86878,-0.11555 2.17583,0.18917 2.5625,-0.82422 -0.24506,-1.13467 -0.61697,-2.29118 -0.40625,-3.47851 0.29701,-1.91165 0.98884,-3.79268 2.04101,-5.41797 1.11547,-1.03568 2.52046,-1.7227 3.73438,-2.60352 0.63472,-0.66969 -0.23701,-1.46288 -0.97461,-1.43945 -1.93115,-0.31837 -3.44697,-1.81381 -4.42187,-3.45899 -0.43271,-0.72199 -1.05021,-1.75391 -2.05469,-1.40234 -1.91084,0.33535 -4.13419,0.0228 -5.59571,-1.41406 -0.24711,-0.25829 -0.56593,-0.44269 -0.90429,-0.42578 z m -24.65235,0.54883 c -0.0447,-7.1e-4 -0.0895,0.002 -0.13671,0.008 -0.5661,0.0272 -0.54429,0.62273 -0.79297,0.92969 -1.68427,1.03791 -3.76751,1.66307 -4.86328,3.44335 -1.3935,1.92652 -2.23437,4.23617 -2.29883,6.6211 -0.0357,1.41053 -0.30469,2.88694 0.0801,4.26172 0.86731,1.33976 2.59387,1.81324 4.10156,1.89844 1.20107,-0.0529 1.51834,-1.41344 1.67383,-2.37696 0.45847,-2.02139 0.11695,-4.09777 0.62695,-6.10547 0.53389,-0.13674 0.24557,0.69503 0.30859,1.00391 -0.18302,1.95989 -0.14834,3.96569 -0.47656,5.89648 -0.52717,0.7632 0.35959,1.60465 1.15625,1.45313 3.3042,-0.0109 6.59455,0.516 9.91406,0.42578 1.35682,-0.17877 1.52685,-1.75262 1.59571,-2.84961 0.14518,-1.36429 0.0602,-2.78062 0.27734,-4.08789 0.36301,-0.34523 0.45517,0.34905 0.38477,0.5957 -0.001,1.9776 -0.0917,3.98615 -0.60352,5.90039 0.0119,0.8599 1.03599,1.00147 1.60937,0.58008 1.26329,0.0461 2.63757,-0.005 3.76954,-0.61523 0.75844,-0.84271 0.56462,-2.12515 0.69531,-3.17774 0.0223,-2.02656 0.19759,-4.07783 -0.0644,-6.09179 -0.646,-1.91147 -2.27801,-3.30214 -3.88672,-4.42188 -0.39916,-0.32321 -1.16333,-0.51994 -0.91602,-1.19726 -0.15252,-1.12641 -1.41813,-0.72069 -2.18164,-0.57032 -2.71944,0.60585 -5.88501,1.1585 -8.35547,-0.49804 -0.53609,-0.32469 -0.94582,-1.01488 -1.61719,-1.02539 z m 43.43555,4.32617 c -0.0271,-10e-4 -0.0548,2.3e-4 -0.082,0.002 -0.21764,0.0138 -0.43479,0.1164 -0.59961,0.2793 -1.10024,1.88973 -3.04878,2.89948 -4.81445,4.04492 -1.2597,0.78373 -2.7488,1.48477 -3.31446,2.9668 -0.79094,1.79054 -1.65479,3.76374 -1.29687,5.76171 0.23294,1.09602 0.78811,2.50579 2.12109,2.50977 1.47511,0.0229 3.0202,0.0349 4.43164,-0.42773 0.89315,-0.49474 0.16932,-1.5287 0.23633,-2.27539 -0.0524,-1.44422 -0.1448,-3.04934 0.5918,-4.3418 0.19872,-0.38657 0.61776,0.11992 0.3125,0.34961 -0.60432,1.44495 -0.38826,3.0711 -0.34375,4.5957 0.37771,2.03162 2.27067,3.27953 3.97266,4.17188 2.43697,0.84039 5.08289,0.54853 7.60351,0.92382 1.08255,0.0454 1.08478,-1.22656 1.24219,-1.98046 0.37676,-1.82703 0.86835,-3.61589 1.21094,-5.45313 0.13192,-0.43796 0.49905,0.10996 0.33203,0.33984 -0.18792,2.50199 -1.27616,4.8571 -1.28321,7.38868 -0.1603,0.72805 -0.0313,1.92109 0.98243,1.73828 1.9456,-0.27254 3.89148,-0.83032 5.61132,-1.78907 1.15455,-0.63557 0.62504,-2.06108 0.73829,-3.12109 -0.04,-2.48959 0.17069,-5.33443 -1.5918,-7.34765 -1.33842,-1.62356 -2.60396,-3.35201 -4.19727,-4.73438 -0.84063,-0.48236 -1.65445,0.42687 -2.50586,0.48047 -2.04524,0.46279 -4.38808,0.46876 -6.12304,-0.88086 -1.11689,-0.76761 -1.96292,-1.85191 -2.71875,-2.94922 -0.14167,-0.16614 -0.32586,-0.24444 -0.51563,-0.25195 z m -43.12891,13.22461 c -0.26031,0.0126 -0.51929,0.047 -0.77148,0.11523 -0.63951,0.68592 -0.2672,1.73209 -0.46289,2.58594 -0.15146,2.25438 -0.41791,4.52365 -0.58398,6.7793 0.23764,1.06776 1.57711,0.75154 2.36718,0.99414 0.79177,0.0429 2.09391,0.69053 2.45508,-0.38672 0.16723,-1.60212 0.068,-3.20577 0.47266,-4.7793 0.26527,-1.50298 0.91446,-2.84768 1.20703,-4.32617 -0.17319,-1.11525 -1.51114,-0.76393 -2.31445,-0.88281 -0.77993,0.016 -1.58819,-0.13733 -2.36915,-0.0996 z m 9.99219,0.15234 c -0.0714,0.003 -0.14184,0.0163 -0.21093,0.0391 -1.31023,0.52168 -2.83647,-0.0754 -4.17969,0.39258 -0.67013,0.44069 -0.50175,1.39625 -0.85938,2.03906 -0.89481,2.39004 -1.2727,4.97837 -1.05273,7.51953 0.29455,1.128 1.71858,0.97209 2.60937,1.23829 0.90466,0.0277 1.89455,0.59588 2.75391,0.17187 0.80681,-0.80426 0.63336,-2.10712 0.88086,-3.14453 0.31008,-2.49543 0.65531,-5.00467 0.91797,-7.48242 0.0171,-0.44753 -0.37578,-0.75896 -0.78711,-0.77344 -0.0237,-8.3e-4 -0.0485,-0.001 -0.0723,0 z m 12.54492,2.60938 c -0.1661,0.008 -0.3312,0.0351 -0.49414,0.0898 -0.70836,0.86389 -0.81411,2.07936 -1.17187,3.12305 -0.59519,2.24687 -0.87357,4.56568 -1.30274,6.84179 0.12749,1.13661 1.54233,1.00631 2.36914,1.20899 0.80834,0.0148 1.69861,0.54596 2.4668,0.1914 0.42407,0.32756 1.19154,0.31281 1.69336,0.44922 0.91,0.0395 2.16313,0.73141 2.85352,-0.17187 0.27117,-0.82696 0.15868,-1.75684 0.43945,-2.60157 0.59387,-2.74693 1.43803,-5.57395 3.01172,-7.95507 0.22301,-0.57678 -0.32982,-1.19452 -0.92188,-1.10743 -1.39839,0.11254 -2.85554,0.0231 -4.20898,0.36329 -0.61459,0.46176 -0.33542,1.38102 -0.62109,2.04882 -0.61073,2.43211 -1.10428,4.91882 -1.66016,7.375 -0.0719,0.0726 -0.16247,0.12999 -0.25977,0.1836 -0.0656,-0.30023 -0.12246,-0.60295 -0.0332,-0.88477 0.35174,-2.72486 1.29047,-5.34785 1.70703,-8.04883 -0.0833,-1.16423 -1.553,-0.79186 -2.35937,-0.98046 -0.5004,-0.0114 -1.00949,-0.14948 -1.50782,-0.125 z m 20.77149,1.90625 c -0.21623,0.007 -0.42343,0.0878 -0.61524,0.29882 -0.87047,2.55157 -1.14111,5.28416 -1.44336,7.95704 -0.0663,1.08284 -0.27651,2.20073 -0.30078,3.23242 0.4377,0.99822 1.7732,0.70259 2.63477,0.95508 0.8206,-0.0115 2.05168,0.67811 2.54687,-0.29297 0.33716,-1.68099 0.14673,-3.43177 0.35547,-5.13477 0.0963,-1.84278 0.38108,-3.72105 0.58985,-5.55469 -0.21573,-1.02113 -1.52707,-0.70251 -2.30078,-1.03906 -0.47543,-0.0953 -0.9911,-0.43741 -1.4668,-0.42187 z m 5.4043,0.93359 c -0.24092,0.008 -0.47855,0.0368 -0.7129,0.0996 -0.67277,0.79832 -0.53963,1.97396 -0.74804,2.95703 -0.33286,2.43852 -0.27557,4.92004 -0.63477,7.34961 -0.46797,0.59848 -0.1338,1.57797 0.67969,1.57226 1.0882,0.0635 2.228,0.44202 3.29883,0.13868 0.80327,-0.46575 0.43912,-1.54633 0.63281,-2.29102 0.26262,-2.76707 0.49584,-5.55437 0.67774,-8.31836 0.50369,-0.67615 -0.25112,-1.52556 -1.00391,-1.37109 -0.72201,0.007 -1.46671,-0.15937 -2.18945,-0.13672 z m -71.85743,2.92187 -0.11914,0.0352 -0.11523,0.0352 c -0.65945,0.84105 -0.42274,2.04882 -0.6836,3.05078 -0.54242,4.32814 -1.14643,8.66095 -1.35742,13.01953 0.0516,1.12529 1.41018,1.09609 2.22852,1.1543 5.97744,0.80367 11.88474,2.26762 17.92969,2.70312 7.57821,0.66078 15.17137,0.69579 22.73632,1.39258 9.86522,0.82455 19.73667,1.56762 29.60743,2.32031 6.00814,0.44374 11.98615,1.44467 17.99218,2.03125 2.31979,0.25376 4.67539,0.0636 6.97852,0.41797 0.74384,0.42556 1.51208,-0.25717 1.41406,-1.04883 0.54256,-4.38379 1.21297,-8.76705 1.83203,-13.12304 -0.0865,-1.14311 -1.48793,-0.74601 -2.26757,-0.81641 -8.29677,0.0977 -16.54224,-0.52488 -24.7754,-1.52734 -12.73239,-1.47535 -25.39375,-3.41902 -38.01953,-5.62891 -8.67859,-1.51012 -17.41418,-2.68457 -26.16992,-3.64258 -2.39339,-0.19367 -4.82183,-0.51397 -7.21094,-0.37305 z"
               transform="translate(62,6.5)" /><path
               id="path2"
               style="display:inline;fill:#a3e5ff;fill-opacity:1;stroke-width:5;stroke-linecap:round;stroke-linejoin:round;stroke-miterlimit:2"
               d="m 240.02539,96.074219 c -0.21791,0.01081 -0.53014,0.07542 -0.9668,0.183593 -0.45474,-0.21954 -0.53744,-0.154955 -0.58007,0.148438 -0.0182,0.0047 -0.0362,0.0089 -0.0547,0.01367 -0.002,6.26e-4 -0.31505,1.193686 -0.45899,1.589844 -0.44785,1.180167 -1.0595,1.42348 -2.15234,1.93164 -1.343,0.558886 -2.73197,0.998426 -4.00391,1.710936 -0.73382,0.52241 -0.38767,0.23364 -1.0332,0.85938 -0.99616,1.00382 0.42181,2.41398 1.41797,1.41016 0.34188,-0.37118 0.14485,-0.18869 0.60742,-0.53321 1.21143,-0.71069 2.59297,-1.06074 3.86719,-1.64062 1.10776,-0.52962 1.91732,-0.98646 2.52148,-1.806646 0.1466,0.237766 0.31631,0.469406 0.51172,0.697266 0.18323,0.18106 0.35469,0.37562 0.54883,0.54492 0.96317,0.8399 2.15626,1.32038 3.29492,1.86329 0.90973,0.44344 1.97188,0.87793 2.4082,1.85546 0.30996,0.79904 0.32851,1.61796 0.30274,2.46289 -0.62807,0.0471 -0.30668,0.0233 -1.03711,0.0762 -1.54532,0.0958 -3.09236,0.0572 -4.63672,-0.0508 -1.76089,-0.15621 -3.51106,-0.41036 -5.1875,-0.99804 -1.23194,-0.44945 -2.47261,-0.93679 -3.53515,-1.72266 -1.07375,-0.92036 -2.37454,0.59917 -1.30079,1.51953 0.78626,0.60914 1.66206,1.06865 2.57032,1.46094 -0.38122,0.0242 -0.75222,0.26655 -0.90039,0.78516 -0.28914,1.12609 -0.33019,2.29717 -0.0586,3.43359 0.0852,0.35652 0.21517,0.70216 0.32227,1.05274 0.71545,1.68935 1.64864,3.44421 3.16992,4.55273 0.29528,0.21516 0.62771,0.37521 0.94141,0.5625 1.63287,0.7205 3.42779,0.82899 5.10546,0.28516 0.57422,0.99241 1.19608,1.95122 1.90235,2.85546 0.91459,1.10713 1.91509,1.62206 3.25586,2.04297 0.3713,0.0974 0.74598,0.18252 1.12109,0.26368 0.0348,0.007 0.068,0.0129 0.10156,0.0176 -0.0266,0.0152 -0.0534,0.03 -0.0801,0.0449 -1.07676,0.64619 -2.20165,1.22417 -3.18946,2.00585 -0.33721,0.29911 -0.46566,0.38931 -0.75586,0.74415 -0.32467,0.39699 -0.54423,0.8818 -0.74609,1.34765 -0.4026,0.91342 -0.78611,1.8413 -1.05274,2.80469 -0.30821,1.17597 -0.54316,2.32981 -0.29687,3.54492 0.12294,0.5126 0.27439,1.02001 0.48828,1.49414 -0.0266,5.9e-4 -0.0525,0.002 -0.0801,0.004 -1.07808,0.0848 -2.15585,0.17513 -3.23633,0.22461 -2.60772,0.0753 -5.23111,0.0664 -7.79101,-0.51172 -1.34042,-0.31513 -2.67988,-0.65131 -3.92773,-1.24414 0.10114,-0.16402 0.18603,-0.34045 0.28515,-0.50586 0.49153,-1.45654 0.50051,-3.01915 0.53906,-4.54102 0.006,-1.3466 0.0498,-2.6957 -0.0215,-4.04101 -0.071,-1.23903 -0.54355,-2.21324 -1.20899,-3.10938 0.37777,0.3076 0.96775,0.35599 1.42188,-0.16211 0.0734,-0.086 0.1473,-0.17185 0.2207,-0.25781 0.67695,-0.65084 1.46495,-1.1542 2.2793,-1.61719 1.00883,-0.61064 2.05191,-1.16518 3.08008,-1.74218 1.26491,-0.63246 0.37038,-2.42153 -0.89453,-1.78907 -1.07691,0.59842 -2.16321,1.18259 -3.21875,1.81836 -0.94588,0.52559 -1.83053,1.13659 -2.6211,1.875 -0.11678,0.13101 -0.23283,0.26352 -0.34961,0.39453 -0.33118,0.37784 -0.35595,0.78741 -0.20703,1.11133 -0.29578,-0.36333 -0.61854,-0.71758 -0.95508,-1.07617 -0.85088,-0.87481 -1.8889,-1.50206 -2.92382,-2.12695 -1.21224,-0.72833 -2.24349,0.98651 -1.03125,1.71484 0.88154,0.52663 1.77123,1.04781 2.5,1.78516 0.90556,0.95229 1.83629,1.91119 1.91211,3.29297 0.0747,1.29137 0.0164,2.58808 0.0176,3.88085 -0.0309,1.24079 -0.0452,2.50021 -0.33593,3.71289 0.11509,0.38123 -0.79641,0.48744 -1.00977,0.55079 -0.74796,0.15343 -1.52565,0.25901 -2.28711,0.1582 -0.46782,-0.0585 -0.80734,0.12386 -1,0.39844 -0.0428,-0.009 -0.0853,-0.0142 -0.1289,-0.0176 0.17605,-0.35155 0.29826,-0.73808 0.38867,-1.14258 0.18253,-1.25116 0.26388,-2.51122 0.3164,-3.77344 0.0317,-1.04475 0.0172,-0.52301 0.0391,-1.5625 0.0297,-1.4139 -1.97028,-1.4569 -2,-0.043 -0.0213,1.01362 -0.008,0.50717 -0.0391,1.52344 -0.0476,1.15505 -0.12014,2.30686 -0.27539,3.45313 -0.0358,0.21371 -0.0828,0.40321 -0.17773,0.59961 -0.0286,0.0591 -0.0618,0.11766 -0.0957,0.17382 -0.0281,0.0464 -0.0976,0.0812 -0.0898,0.13477 v 0.002 0.002 0.002 h 0.002 v 0.002 l 0.002,0.002 0.002,0.002 h 0.002 l 0.002,0.002 c 8.7e-4,2.4e-4 0.005,-1.3e-4 0.006,0 0.0237,9.5e-4 0.0676,-0.0206 0.0937,-0.0234 -0.38908,0.20323 -0.884,0.14296 -1.30664,0.19336 -1.67127,-0.0797 -3.33891,-0.20231 -5.00782,-0.32031 -1.57789,-0.10224 -3.15707,-0.16461 -4.73828,-0.15039 0.0162,-0.0524 0.032,-0.10526 0.0469,-0.1582 0.20627,-0.17615 0.3457,-0.44966 0.3457,-0.82422 0.11358,-1.2899 0.16492,-2.58503 0.20508,-3.87891 0.0519,-0.81198 0.12435,-1.62261 0.18945,-2.43359 0.11315,-1.40968 -1.88099,-1.56984 -1.99414,-0.16016 -0.0677,0.84361 -0.14426,1.6864 -0.19531,2.53125 -0.0253,0.8158 -0.0575,1.63257 -0.10352,2.44727 -0.0218,0.0614 -0.0392,0.12687 -0.0527,0.19726 -0.0712,0.36898 -0.14928,0.73764 -0.20508,1.10938 -0.0777,0.36932 -0.12315,0.82653 -0.41016,1.08594 -0.14489,0.24114 -0.5478,0.25631 -0.79687,0.26757 -0.58699,-0.19296 -1.17125,-0.41474 -1.78516,-0.5039 -0.3551,-0.0943 -0.57289,-0.39047 -0.87109,-0.58985 -0.13785,-0.0947 -0.25875,-0.25697 -0.40625,-0.33007 h -0.002 -0.002 -0.002 v 0.002 c -8e-5,6.7e-4 -3e-5,0.005 0,0.006 0.003,0.0186 0.0236,0.0641 0.0273,0.0762 h -0.002 l -0.002,-0.002 c -0.0224,-0.0298 -0.032,-0.0663 -0.0488,-0.0996 -0.13154,-0.36815 -0.004,-0.95352 -0.0547,-1.38867 -0.006,-0.849 -0.012,-1.69888 0.0371,-2.54688 0.0897,-1.27773 0.26337,-2.54518 0.77734,-3.73242 0.62627,-1.38837 1.29799,-2.789 2.49415,-3.7832 1.00096,-0.73924 2.08836,-1.29907 3.25,-1.7461 1.34164,-0.44722 0.70882,-2.34565 -0.63282,-1.89844 -1.36033,0.50687 -2.62249,1.18136 -3.79687,2.03126 -1.49559,1.18863 -2.36361,2.86713 -3.13672,4.57031 -0.61432,1.4027 -0.84001,2.90253 -0.94922,4.41601 -0.0537,0.9003 -0.0498,1.80168 -0.043,2.70313 -0.002,0.71457 -0.034,1.35208 0.16992,2.04492 0.20024,0.56992 0.67349,0.94121 1.13868,1.29102 0.42533,0.37105 0.86747,0.66959 1.40039,0.86718 0.623,0.10701 1.21504,0.31651 1.81445,0.51367 0.9276,0.18449 1.66707,0.0526 2.4043,-0.42187 0.17628,0.20407 0.45015,0.34375 0.82226,0.34375 1.66072,-0.0277 3.31966,0.0322 4.97656,0.14062 0.33896,0.024 0.67861,0.0484 1.01758,0.0723 -0.0387,0.0691 -0.0734,0.14599 -0.10156,0.23047 -0.40969,1.0717 -0.75468,2.16554 -1.05859,3.27148 -0.33246,1.22178 -0.47472,2.47216 -0.49415,3.73438 0.0168,0.59223 -0.003,1.18913 0.0254,1.78125 -1.16056,-0.17731 -2.32314,-0.34838 -3.48633,-0.50781 0.19469,-1.96401 0.38016,-3.92984 0.54687,-5.89649 0.0347,-0.45177 0.0688,-0.90174 0.10352,-1.35351 0.10824,-1.41007 -1.88589,-1.56437 -1.99414,-0.1543 -0.0343,0.44649 -0.0692,0.89335 -0.10352,1.33984 -0.16406,1.93613 -0.35222,3.87018 -0.5332,5.80469 -0.33801,-0.0425 -0.67536,-0.0846 -1.01367,-0.125 -4.08217,-0.54819 -8.16489,-1.11566 -12.26563,-1.50586 -2.05497,-0.17392 -4.11266,-0.38322 -6.17773,-0.33203 -1.41422,0 -1.41422,2 0,2 2.00877,-0.0512 4.00891,0.15494 6.00781,0.32422 4.06808,0.38815 8.11819,0.95224 12.16797,1.49609 0.55316,0.0661 1.10586,0.1354 1.6582,0.20703 0.2314,0.13025 0.51368,0.16895 0.77149,0.10157 4.14424,0.55556 8.26813,1.24924 12.39062,1.94726 5.59823,1.0089 11.20896,1.93415 16.83203,2.79297 4.77341,0.75291 9.56691,1.37992 14.35938,1.99805 3.87355,0.52427 7.75604,0.9676 11.64453,1.36328 3.02448,0.37708 6.0674,0.54065 9.10742,0.72656 2.22242,0.14384 4.44748,0.22459 6.67383,0.27149 1.13048,0.0214 2.26193,0.0258 3.39258,0.0254 0.73281,0.0249 1.45334,-0.003 2.16601,-0.18164 0.36183,-0.1167 0.19274,-0.0622 0.50977,-0.16211 1.34874,-0.42535 0.74717,-2.33356 -0.60156,-1.90821 -0.30568,0.0965 -0.16177,0.0493 -0.43555,0.14063 -0.52528,0.17851 -1.09714,0.0876 -1.64063,0.11133 -1.11637,4.1e-4 -2.23144,-0.003 -3.34765,-0.0234 -2.19969,-0.0462 -4.39992,-0.12734 -6.59571,-0.26953 -3.01319,-0.18414 -6.02766,-0.34438 -9.02539,-0.71875 -0.41176,-0.0419 -0.8247,-0.0859 -1.23632,-0.12891 0.057,-0.23803 0.0689,-0.44726 0.0976,-0.71094 0.13191,-1.61593 0.293,-3.22841 0.43164,-4.84375 0.10807,-1.13802 0.24894,-2.28414 0.27149,-3.42968 0.29798,0.13083 0.63555,0.17759 0.95508,0.21093 0.7432,0.0253 1.47379,-0.0587 2.18945,-0.26953 1.35621,-0.36053 2.72095,-0.7317 3.98828,-1.3457 0.19608,-0.11684 0.40134,-0.22284 0.58984,-0.35156 0.12907,-0.0881 0.25004,-0.18324 0.36524,-0.28516 0.26688,-0.0976 0.49698,-0.31629 0.60351,-0.67187 0.15145,-0.21004 0.28671,-0.43395 0.4043,-0.66797 0.1956,-0.45641 0.0953,-0.84938 -0.14062,-1.11133 0.11804,-1.30252 0.10915,-2.61332 -0.006,-3.91992 -0.14519,-1.62184 -0.29321,-3.29377 -1.14844,-4.72266 -0.10257,-0.16174 -0.19995,-0.32665 -0.3086,-0.48437 -0.60181,-0.87356 -1.38185,-1.60465 -2.05078,-2.42383 -0.71125,-0.82607 -1.39977,-1.67312 -2.12109,-2.49024 0.0131,-0.008 0.026,-0.0171 0.0391,-0.0254 0.83817,-0.61508 1.54655,-1.36955 2.04492,-2.28711 0.15959,-0.29382 0.27185,-0.61071 0.40821,-0.91601 0.10899,-0.25213 0.12698,-0.48507 0.082,-0.6875 0.0767,-0.12851 0.13305,-0.2842 0.15625,-0.46875 0.016,-0.13151 0.0308,-0.26302 0.0469,-0.39453 0.047,-0.68607 0.0647,-1.37928 -0.14843,-2.04297 -0.007,-0.0216 -0.0155,-0.0419 -0.0234,-0.0625 0.10745,-0.0457 0.21534,-0.0951 0.32031,-0.14844 0.92033,-0.67819 0.93364,-1.77147 0.97461,-2.81445 0.005,-1.55779 -0.36321,-2.41951 -1.34375,-3.60547 -0.69609,-0.71661 -1.58478,-1.17404 -2.42187,-1.69531 -0.43062,-0.26816 -0.66227,-0.44418 -1.07227,-0.73829 -0.89844,-0.5866 -1.4143,-1.435 -1.79688,-2.41015 -0.32266,-0.9122 -0.29823,-1.88567 -0.4414,-2.83008 -0.19669,-0.74098 -0.56436,-1.86432 -1.61133,-1.73633 -0.75736,0.0926 -0.92215,0.56171 -1.21875,1.07031 -0.24397,0.5932 -0.44838,1.20143 -0.82422,1.72852 -0.10377,0.14552 -0.54588,0.66577 -0.63281,0.76953 -0.8059,0.90127 -1.60082,1.82453 -2.5332,2.59766 -1.23057,0.94218 -2.62225,1.6396 -3.84766,2.58984 -0.63457,0.64517 -0.34961,0.31192 -0.85742,0.99414 -0.82686,1.1473 0.79423,2.31528 1.62109,1.16797 0.26989,-0.39727 0.11577,-0.19736 0.4707,-0.58789 1.23047,-0.97946 2.68407,-1.63638 3.90235,-2.63477 1.01075,-0.8616 1.90714,-1.84514 2.7793,-2.8457 0.34276,-0.41081 0.66845,-0.828 0.95117,-1.27148 0.0617,0.59151 0.15093,1.17791 0.38672,1.73633 0.5395,1.3168 1.27856,2.48439 2.48828,3.28906 1.02363,0.73087 2.13683,1.32101 3.1289,2.09375 0.63059,0.73029 0.8899,1.24519 0.875,2.24219 -0.003,0.0719 -0.0904,1.14348 -0.0781,1.16992 v 0.002 l 0.002,0.002 0.002,0.002 0.002,0.002 h 0.002 0.002 0.002 0.002 0.002 c 0.0301,-0.005 0.0886,-0.0649 0.11719,-0.0684 h 0.002 0.002 l 0.002,0.002 h 0.002 0.002 v 0.002 l 0.002,0.002 0.002,0.002 v 0.002 0.002 c 6.9e-4,0.003 0.002,0.006 0.002,0.01 -0.46409,0.31703 -1.10321,0.30083 -1.62891,0.43165 -1.20433,0.0723 -2.41388,-0.002 -3.61719,-0.0645 -1.70334,-0.14525 -3.3972,-0.40591 -5.0039,-1.01758 -1.4321,-0.51162 -2.84223,-1.0852 -4.21875,-1.73242 -1.29933,-0.55685 -2.08663,1.28191 -0.78907,1.83985 h 0.002 c 0.0308,0.0145 0.0629,0.0285 0.0937,0.043 -0.32982,0.75281 -0.70382,1.49452 -0.90039,2.29688 -0.0642,0.26212 -0.10073,0.52966 -0.15039,0.79492 -0.009,0.29214 -0.0536,0.58605 -0.0254,0.87695 0.0506,0.52248 0.17173,1.0435 0.34766,1.55079 -0.39013,-0.12047 -0.85245,-0.01 -1.16016,0.47851 -0.20669,0.33668 -0.44749,0.6522 -0.73632,0.92383 -0.48835,0.47149 -1.00906,0.90881 -1.56055,1.30273 0.13122,-0.49881 -0.10144,-1.09415 -0.81445,-1.24804 -0.31894,-0.0686 -0.63634,-0.14263 -0.95313,-0.22071 -0.87387,-0.26241 -1.68904,-0.63224 -2.27148,-1.36523 -0.63276,-0.80332 -1.16275,-1.6373 -1.67969,-2.50781 0.0556,-0.0337 0.11174,-0.0671 0.16797,-0.0996 1.44766,-0.99221 2.52952,-2.35879 3.4375,-3.8418 0.18178,-0.2969 0.36806,-0.59288 0.51562,-0.9082 0.13975,-0.29862 0.22925,-0.61856 0.34375,-0.92774 0.0411,-0.29547 0.0819,-0.5893 0.12305,-0.88476 0.15359,-1.40585 -1.83469,-1.62459 -1.98828,-0.21875 -0.007,0.14608 -0.0144,0.29337 -0.0215,0.43945 -0.0662,0.20289 -0.10797,0.41358 -0.19726,0.60742 -0.12856,0.27906 -0.29385,0.54195 -0.45313,0.80469 -0.74207,1.22409 -1.6075,2.3724 -2.78515,3.21094 -0.27586,0.17123 -0.53536,0.36927 -0.82617,0.51367 -1.33246,0.66164 -2.84936,0.72348 -4.22266,0.17187 -0.20983,-0.11357 -0.43195,-0.20517 -0.62891,-0.33984 -1.22876,-0.84015 -1.98457,-2.32556 -2.57226,-3.64258 -0.38885,-1.18799 -0.56847,-2.10912 -0.2461,-3.33593 0.11922,-0.41726 0.0194,-0.75929 -0.18554,-0.99219 0.24568,0.0953 0.49364,0.18874 0.74023,0.27929 1.84015,0.64998 3.76271,0.93727 5.69727,1.11133 1.64434,0.11818 3.29194,0.15485 4.9375,0.0547 0.7766,-0.056 0.40132,-0.0278 1.125,-0.082 0.55981,-0.0419 0.87394,-0.38186 0.96093,-0.76953 0.43409,-0.0743 0.82227,-0.42217 0.82227,-1.04492 0.002,-0.89658 0.0483,-1.80097 -0.19336,-2.67579 -0.0605,-0.21882 -0.15034,-0.42805 -0.22461,-0.64257 -0.59705,-1.52726 -2.01517,-2.28422 -3.40625,-2.97071 -1.19722,-0.53325 -2.38618,-1.0605 -3.30273,-2.01953 -0.53573,-0.662364 -0.74984,-1.453537 -0.69727,-2.292969 0.10308,-0.646867 0.079,-0.889006 -0.40039,-0.865234 z m -21.72851,1.097656 c -0.40098,-0.0071 -0.81372,0.0883 -1.2168,0.101563 -0.10439,0.232515 -0.24106,0.452611 -0.3125,0.697265 -0.15307,0.524126 -0.12361,1.122098 -0.0117,1.701172 -0.31129,0.667045 -0.74096,1.251575 -1.375,1.677735 -0.96053,0.61248 -1.98616,1.11054 -3.10547,1.35937 -1.45104,0.3311 -2.91875,0.67573 -4.19336,1.48243 -1.01779,0.80231 -1.51941,1.43314 -1.78906,2.71484 -0.13312,0.79871 0.4571,1.24838 1.0293,1.22461 0.015,0.2319 0.11782,0.47329 0.33984,0.69531 0.0482,0.0409 0.0976,0.0817 0.14648,0.1211 -0.002,0.023 -0.003,0.0465 -0.004,0.0703 -0.0108,0.64229 0.0379,1.28058 0.12109,1.91797 0.094,0.77567 0.22635,1.55076 0.28906,2.33007 -0.18077,0.2527 -0.24539,0.60233 -0.084,1.00586 0.51078,1.18639 1.28586,2.21218 2.15039,3.16016 1.30163,1.32353 2.8791,1.70245 4.65234,1.94531 1.53318,0.11471 3.02188,-0.27394 4.50782,-0.58203 0.6553,-0.16991 1.37054,-0.11117 1.98047,-0.44531 0.58109,-0.31835 0.64488,-0.51559 1.03515,-1.03125 0.76489,-1.54272 0.73964,-3.28886 0.78711,-4.9707 0.002,-0.13924 0.004,-0.25361 0.006,-0.34961 0.0566,8.8e-4 0.11334,10e-4 0.16992,0.002 1.41405,0.0217 1.44533,-1.97826 0.0312,-2 -0.13857,-0.002 -0.27744,-0.004 -0.41601,-0.006 -0.37664,-0.52242 -1.18838,-0.52437 -1.58008,-0.0332 -0.30953,-0.009 -0.62028,-0.0201 -0.92969,-0.0332 -2.46302,-0.11672 -4.92488,-0.29682 -7.3457,-0.79296 -1.46301,-0.36207 -2.89187,-0.78828 -4.10352,-1.72266 -0.24636,-0.24636 -0.51713,-0.3462 -0.77148,-0.3418 0.15693,-0.58801 0.47931,-0.92136 0.99023,-1.28906 1.06159,-0.59547 2.25173,-0.85527 3.42578,-1.12305 1.34267,-0.29767 2.57409,-0.89095 3.73047,-1.61914 0.47688,-0.31998 0.87462,-0.68288 1.21289,-1.08984 0.58826,0.86685 1.38162,1.59693 2.13477,2.31836 1.35837,1.21351 2.74618,2.39179 4.0039,3.71094 0.47466,0.50844 0.70815,0.88079 0.67969,1.5664 0.0594,1.41297 2.05747,1.32896 1.99805,-0.084 -0.0188,-0.24832 -0.008,-0.50182 -0.0566,-0.7461 -0.16443,-0.82928 -0.61262,-1.50483 -1.17578,-2.11718 -1.28033,-1.33979 -2.68047,-2.54678 -4.06641,-3.77539 -0.80321,-0.7662 -1.69895,-1.53848 -2.18164,-2.55469 -0.0574,-0.14412 -0.10973,-0.286747 -0.1543,-0.431642 0.20511,-0.660546 0.39473,-1.423142 0.13868,-2.09961 -0.07,-0.184897 -0.0989,-0.468848 -0.29102,-0.515625 -0.13062,-0.03181 -0.26283,-0.04646 -0.39648,-0.04883 z m -1.25782,1.027344 h 0.002 l 0.002,0.002 c 0.0142,0.01629 0.0606,0.102521 0.0644,0.257812 -0.0611,-0.04619 -0.0454,-0.175773 -0.0684,-0.257812 z m 44.22071,4.400391 h 0.002 v 0.002 h 0.002 c 0.0241,0.027 0.0446,0.0589 0.0625,0.0918 -0.0241,-0.0169 -0.0479,-0.035 -0.0723,-0.0508 h -0.002 v -0.002 h -0.002 v -0.002 -0.002 -0.002 l -0.002,-0.002 c -5.5e-4,-0.008 0.003,-0.0207 0.006,-0.0273 l 0.002,-0.002 0.002,-0.002 h 0.002 z m -51.40625,7.55859 c 0.90773,0.39381 1.8697,0.67055 2.83984,0.91602 2.54822,0.53305 5.14366,0.72794 7.73828,0.85156 0.27322,0.0116 0.54504,0.021 0.81836,0.0293 -0.002,0.0922 -0.004,0.20205 -0.006,0.33594 -0.0362,1.30425 -0.0104,2.64888 -0.4375,3.89843 -0.21067,0.45184 -0.17456,0.38472 -0.7207,0.46485 -0.45228,0.0664 -0.58968,0.0981 -1.05078,0.18359 -1.265,0.26306 -2.53161,0.60545 -3.83594,0.55664 -1.26116,-0.16588 -2.51015,-0.37894 -3.44727,-1.31836 -0.57704,-0.61789 -1.09702,-1.28189 -1.50195,-2.02148 0.002,-1.12724 -0.20464,-2.24472 -0.33984,-3.36133 -0.0192,-0.17862 -0.0384,-0.35635 -0.0566,-0.53516 z m 45.375,5.19532 c 0.79845,0.33044 1.60671,0.6394 2.41992,0.93164 1.76886,0.67055 3.63129,0.96588 5.50586,1.1289 1.29821,0.0778 2.60076,0.13562 3.90039,0.0664 0.075,-0.009 0.1499,-0.0173 0.22461,-0.0273 0.0111,0.0655 0.0296,0.13364 0.0527,0.20313 0.11922,0.41606 0.0814,0.84471 0.0508,1.26953 -0.0124,0.0949 -0.0247,0.19024 -0.0371,0.28516 -0.0193,0.15337 -0.0135,0.29281 0.0137,0.41797 -0.0377,0.0587 -0.0728,0.12435 -0.10352,0.19531 -0.39978,0.97074 -0.82326,1.67442 -1.69141,2.31055 -1.64416,1.0533 -3.26151,1.86113 -5.26953,1.82031 -0.64535,-0.0539 -0.96664,-0.0466 -1.58398,-0.22852 -0.99296,-0.29268 -1.8113,-0.93879 -2.50782,-1.68359 -0.7937,-0.92944 -1.30772,-1.68962 -1.69921,-2.86328 -0.0686,-0.20572 -0.13858,-0.41237 -0.16993,-0.62696 -0.0269,-0.18439 -0.003,-0.37224 -0.004,-0.55859 0.15201,-0.93369 0.51589,-1.78509 0.89844,-2.64062 z m -1.92383,6.0957 c 0.20749,0.37235 0.43801,0.72698 0.68359,1.05859 0.21228,0.28665 0.45542,0.54812 0.6836,0.82227 1.16387,1.28769 2.61863,2.20961 4.3457,2.5039 0.36055,0.0614 0.72597,0.0743 1.08984,0.11133 1.83324,0.0369 3.27634,-0.36601 4.71875,-1.08398 0.018,0.0202 0.0368,0.0407 0.0566,0.0606 0.79155,0.89078 1.54477,1.81559 2.32227,2.71874 0.74226,0.87862 1.57384,1.68272 2.17969,2.66602 0.66029,1.16393 0.73725,2.53395 0.85156,3.83789 0.1297,1.52638 0.11778,3.05956 -0.11524,4.57422 -0.004,0.0192 -0.006,0.0394 -0.01,0.0586 -0.1868,0.17382 -0.40519,0.30301 -0.69922,0.46485 -1.12159,0.50635 -2.31549,0.82967 -3.50195,1.14453 -0.50662,0.15168 -1.01967,0.22377 -1.54493,0.20703 -0.002,-0.1248 0,-0.19522 0,-0.32422 -0.002,-0.0593 -0.003,-0.11854 -0.004,-0.17773 0.13759,-0.27008 0.14487,-0.59915 0.0254,-0.87696 0.0249,-0.34895 0.0647,-0.69653 0.10742,-1.04492 0.12412,-0.98521 0.38571,-1.9463 0.66016,-2.89844 0.22942,-0.77718 0.42214,-1.5595 0.52734,-2.36328 0.033,-0.27032 0.0487,-0.54266 0.0625,-0.81445 0.0701,-1.41248 -1.92796,-1.51212 -1.99805,-0.0996 -0.0106,0.21969 -0.0211,0.43962 -0.0469,0.6582 -0.0884,0.70352 -0.26943,1.38604 -0.4668,2.06641 -0.30321,1.05419 -0.58734,2.1181 -0.72265,3.20898 -0.0264,0.21782 -0.0526,0.43626 -0.0742,0.6543 -0.7151,-0.0477 -1.42812,-0.12233 -2.14258,-0.17578 -1.3649,-0.0686 -2.72794,-0.13074 -4.08203,-0.32227 -0.44544,-0.0847 -0.90435,-0.13265 -1.32813,-0.30468 -0.38759,-0.15734 -0.73316,-0.40853 -1.08008,-0.63672 -0.59522,-0.4734 -1.26204,-0.88372 -1.77148,-1.45703 -0.0774,-0.0871 -0.14289,-0.18376 -0.21484,-0.27539 -0.50419,-0.73223 -0.56403,-1.60473 -0.61329,-2.46485 0.0168,-0.91247 -0.0114,-1.8608 0.27735,-2.73828 0.10231,-0.19627 0.0474,-0.0938 0.16992,-0.30664 0.68608,-1.23665 -1.06392,-2.20734 -1.75,-0.9707 -0.23215,0.42716 -0.12026,0.19923 -0.33008,0.68359 -0.33527,1.11823 -0.38069,2.29339 -0.36328,3.45508 0.053,0.8211 0.12637,1.5401 0.35352,2.23047 -0.0156,0.003 -0.031,0.008 -0.0469,0.0117 -0.92816,0.14865 -1.86241,0.25133 -2.79883,0.33007 -0.66451,-9.2e-4 -1.51612,0.17026 -2.05859,-0.31835 -0.39623,-0.52357 -0.59632,-1.15103 -0.73828,-1.78321 -0.15749,-0.8787 0.0568,-1.73502 0.28125,-2.58008 0.24244,-0.86042 0.58789,-1.68939 0.94922,-2.50586 0.1495,-0.34882 0.30807,-0.72579 0.56054,-1.01757 0.0558,-0.0645 0.40706,-0.35925 0.42774,-0.37696 0.91088,-0.6847 1.92689,-1.21184 2.90234,-1.79687 1.14374,-0.63928 2.18348,-1.44049 3.13086,-2.3418 0.40933,-0.3832 0.74211,-0.83267 1.04297,-1.30273 0.0357,-0.0567 0.0667,-0.1121 0.0918,-0.16797 z m -32.94336,13.44336 c -0.0763,0.47061 -0.15702,0.941 -0.23047,1.41211 -0.22652,1.6806 -0.40483,3.36766 -0.61133,5.05078 -0.15351,1.21934 -0.27744,2.45983 -0.61523,3.64453 -1.36653,-0.22964 -2.73335,-0.45679 -4.10157,-0.67578 -0.0389,-0.12062 -0.10381,-0.23966 -0.19921,-0.35156 -1.7e-4,-0.0348 -9.5e-4,-0.0768 -0.002,-0.12891 -0.0104,-0.53826 -0.0226,-1.07685 -0.0234,-1.61523 0.0144,-1.09368 0.13598,-2.17733 0.42383,-3.23633 0.29217,-1.07162 0.63237,-2.12768 1.02735,-3.16602 0.094,-0.2819 0.0837,-0.53268 0.006,-0.74023 0.74081,0.0478 1.48305,0.0915 2.22461,0.12695 0.71886,0.002 1.4265,-0.075 2.10156,-0.32031 z m 5.44922,0.0684 c 0.0554,0.30039 0.25817,0.58581 0.65039,0.7539 1.32831,0.6557 2.75561,1.0356 4.18945,1.37891 -0.28061,0.69033 -0.4752,1.41798 -0.68164,2.13086 -0.46828,1.64238 -0.76374,3.32504 -1.04102,5.00781 -0.10263,0.6257 -0.20191,1.2501 -0.26562,1.88086 -0.0221,0.22621 0.0107,0.42009 0.082,0.58203 -2.58114,-0.43046 -5.15885,-0.87571 -7.73437,-1.33984 -0.0387,-0.007 -0.0785,-0.013 -0.11719,-0.0195 0.0848,-0.29825 0.13836,-0.59016 0.20312,-0.93164 0.176,-0.9279 0.29008,-1.86231 0.40821,-2.79883 0.20657,-1.67721 0.3831,-3.35846 0.60937,-5.0332 0.0691,-0.43533 0.14401,-0.86966 0.21484,-1.30469 0.0125,0.002 0.0244,0.002 0.0371,0.004 0.97534,0.13484 1.96215,0.005 2.92188,-0.17968 0.16709,-0.0407 0.34438,-0.0827 0.52344,-0.13086 z m 17.62304,1.93164 c 0.0248,0.0232 0.0505,0.0457 0.0762,0.0684 0.44316,0.28674 0.48802,0.3601 0.99804,0.51758 0.76658,0.2367 1.58593,0.19132 2.375,0.15625 1.0426,-0.0883 2.08472,-0.20073 3.11524,-0.38477 0.21811,-0.0545 0.38943,-0.14986 0.51757,-0.26953 0.0353,0.0422 0.0702,0.0844 0.10743,0.125 0.38624,0.42193 0.83671,0.77828 1.29492,1.12109 -0.11215,0.10648 -0.20942,0.2462 -0.28125,0.42578 -0.48673,1.56633 -0.78562,3.18284 -1.05078,4.79883 -0.23195,1.66132 -0.39566,3.33298 -0.51758,5.00586 -0.005,0.39018 -0.10141,0.76775 -0.16016,1.15039 -0.0119,0.0834 -0.0163,0.16296 -0.0137,0.23828 -3.18003,-0.41365 -6.35944,-0.84048 -9.53125,-1.3125 0.067,-0.12527 0.11453,-0.27341 0.13281,-0.44726 0.0431,-0.40983 0.0897,-0.81932 0.16602,-1.22461 0.25892,-1.42272 0.56078,-2.83915 1.06445,-4.19922 0.45465,-1.25544 0.90524,-2.53736 1.66992,-3.64453 0.64872,-0.64872 0.28296,-1.47209 -0.32812,-1.69727 0.17227,-0.10797 0.29269,-0.25864 0.36523,-0.42773 z m -10.76171,0.57617 c 1.06227,0.15065 2.13387,0.23675 3.20703,0.27344 -0.002,0.0319 -0.004,0.0642 -0.004,0.0977 -0.0916,0.77598 -0.29615,1.53563 -0.49023,2.29102 -0.30075,1.25805 -0.64246,2.50471 -0.91407,3.76953 -0.17244,0.79751 -0.28751,1.60679 -0.40234,2.41406 -0.19915,1.40012 1.77936,1.68137 1.97852,0.28125 0.1083,-0.76137 0.21626,-1.5232 0.3789,-2.27539 0.26416,-1.23898 0.60413,-2.4609 0.89649,-3.69336 0.23452,-0.91611 0.48965,-1.84001 0.55273,-2.78711 0,-0.0293 -2.7e-4,-0.0578 -0.002,-0.0859 0.42253,-0.009 0.84147,-0.0234 1.32422,-0.0371 0.95877,-0.0427 1.91643,-0.11759 2.87304,-0.19336 -0.0291,0.0246 -0.0594,0.0516 -0.0879,0.0801 -1.03018,1.27361 -1.58384,2.85577 -2.13672,4.37695 -0.54188,1.46526 -0.87083,2.98881 -1.15039,4.52148 -0.085,0.45482 -0.13913,0.91516 -0.1875,1.375 -0.0145,0.13741 -0.009,0.26279 0.0137,0.37696 -0.23682,-0.0367 -0.47421,-0.074 -0.71093,-0.11133 -2.48017,-0.37876 -4.95794,-0.76951 -7.4336,-1.17578 0.14542,-0.15666 0.24768,-0.37486 0.27539,-0.65821 0.055,-0.58759 0.15992,-1.16879 0.25,-1.75195 0.26431,-1.60505 0.54275,-3.20853 0.98828,-4.77539 0.22478,-0.77881 0.42907,-1.57906 0.78126,-2.3125 z m 20.84765,1.85937 c 0.0661,0.0374 0.13243,0.0744 0.20117,0.10938 0.69382,0.35291 1.4457,0.51603 2.21094,0.62695 0.22099,0.0309 0.44269,0.0587 0.66406,0.084 -0.33492,1.4648 -0.46029,2.9695 -0.59765,4.46289 -0.11711,1.42618 -0.20233,2.85476 -0.24414,4.28515 -0.0368,0.20275 0.0289,0.42145 -0.0215,0.62305 -5e-4,0.002 -0.002,0.003 -0.002,0.004 v -0.002 c -6.3e-4,-0.0162 0.005,-0.0803 0.01,-0.10546 -0.24252,0.49518 -0.11765,0.93285 0.16211,1.20507 -1.2606,-0.15449 -2.52049,-0.31786 -3.77929,-0.48828 -0.0936,-0.0121 -0.18763,-0.0231 -0.28125,-0.0352 0.0197,-0.0642 0.0363,-0.1336 0.0469,-0.20704 0.0481,-0.42936 0.18084,-0.85186 0.17383,-1.28906 0.11721,-1.61338 0.27677,-3.22366 0.49805,-4.82617 0.24045,-1.47366 0.51653,-2.94338 0.93359,-4.37891 0.009,-0.0227 0.0177,-0.046 0.0254,-0.0684 z m 5.08399,0.99024 c 0.5126,0.0318 1.02537,0.0578 1.53906,0.082 0.4948,0.037 0.98956,0.0833 1.48437,0.125 -0.25032,0.19713 -0.40889,0.52569 -0.35351,0.96875 0.0515,1.37652 -0.12575,2.75613 -0.25586,4.125 -0.13953,1.62412 -0.30086,3.24638 -0.4336,4.87109 -0.0129,-0.018 -0.0267,-0.0317 -0.0351,-0.0371 h -0.002 l -0.002,-0.002 h -0.002 -0.002 -0.002 -0.002 l -0.002,0.002 h -0.002 l -0.002,0.002 v 0.002 l -0.002,0.002 c -0.0383,0.0642 0.0536,0.51786 -0.0176,0.58985 l -0.002,0.002 c -8.6e-4,6e-4 -0.005,0.003 -0.006,0.004 h -0.002 c -0.002,6.1e-4 -0.008,0.002 -0.01,0.002 -0.007,0 -0.0151,-0.002 -0.0234,-0.006 -0.0151,0.0315 -0.0288,0.0628 -0.041,0.0937 -1.09935,-0.12046 -2.19673,-0.24652 -3.29492,-0.37695 0.15717,-0.10026 0.29788,-0.25342 0.4043,-0.4707 0.042,-0.10121 0.0922,-0.20015 0.125,-0.30469 0.10569,-0.33688 0.078,-0.69006 0.0898,-1.03711 0.0403,-1.3888 0.12323,-2.77737 0.23633,-4.16211 0.13488,-1.47227 0.25562,-2.95546 0.60156,-4.39649 0.005,-0.0262 0.01,-0.0527 0.0137,-0.0781 z m 5.40625,0.20508 h 0.002 c 0.0448,-0.001 0.0865,0.0144 0.125,0.0391 -0.0397,-0.007 -0.074,-0.0154 -0.0957,-0.0215 -0.007,-0.002 -0.0229,-0.0109 -0.0293,-0.0156 h -0.002 z"
               transform="translate(1.75,-0.75)" /></g><g
             id="g313"
             transform="translate(2.25,-10.75)"><path
               style="display:inline;fill:#ffffff;fill-opacity:1;stroke:none;stroke-width:2.22182;stroke-linecap:round;stroke-linejoin:round;stroke-miterlimit:2;stroke-dasharray:none;stroke-opacity:1"
               d="m 283.72645,71.171416 c -0.4016,0.02096 -0.80087,0.07427 -1.19769,0.17575 -0.52625,0.150293 -0.90687,0.453028 -1.29318,0.824505 -0.066,0.06345 -0.11756,0.142696 -0.19093,0.197446 -0.0391,0.02914 -0.0956,0.0252 -0.13887,0.04774 -0.11541,0.0602 -0.22418,0.133515 -0.33631,0.199616 -1.0707,0.697705 -1.35243,1.58109 -1.34307,2.805485 0.015,0.800688 0.15393,1.534331 0.77894,2.100316 0.15346,0.13897 0.35484,0.21548 0.53159,0.323293 0.4784,0.182644 0.97679,0.289288 1.48193,0.371026 -0.13895,0.142945 -0.27436,0.293048 -0.40791,0.446969 -0.21979,0.316345 -0.45649,0.643564 -0.72686,0.919973 v 0.0022 h -0.002 -0.002 -0.002 -0.002 l -0.002,-0.0022 h -0.002 c -0.003,-0.0022 -0.009,-0.0083 -0.013,-0.01089 -9e-4,-5.53e-4 -0.006,-0.0018 -0.007,-0.0022 h -0.002 -0.002 -0.002 c -0.0734,0.03484 -0.13734,0.08679 -0.20613,0.130185 -0.5191,0.341635 -1.06829,0.631209 -1.59476,0.961199 -0.24658,0.17323 -0.43133,0.365488 -0.63574,0.572813 -0.079,-0.0099 -0.14033,-0.01033 -0.16273,0 h -0.002 c -0.11288,0.01396 -0.11491,0.08715 -0.0738,0.25169 -0.43675,1.555249 -0.446,1.973907 0.0933,2.004848 l -0.002,0.0022 h -0.002 v 0.0022 0.0022 0.0022 c 3.5e-4,7.32e-4 0.003,0.0057 0.004,0.0066 0.0532,0.06564 0.16153,0.04479 0.24301,0.06727 0.69613,0.169903 1.19058,-0.172749 1.38647,-0.640075 0.11793,-0.09613 0.22748,-0.203679 0.33631,-0.325463 0.56105,-0.334371 1.15195,-0.620469 1.68589,-1.000254 0.56536,-0.391687 1.08423,-0.878799 1.44505,-1.471089 0.0703,-0.0862 0.20734,-0.306009 0.30594,-0.386215 0.11289,-0.09185 0.3278,-0.232899 0.35367,-0.273388 l 0.002,-0.0022 v -0.0022 -0.0022 c -0.006,-0.0066 -0.0121,-0.01055 -0.0195,-0.01302 0.49655,-0.08239 0.97423,-0.123422 1.46458,-0.138864 -0.12573,0.797813 -0.22784,1.598542 -0.38622,2.391062 -0.41393,0.0044 -0.8287,0.02002 -1.2411,0.03255 -1.62119,0 -1.62119,2.291254 0,2.291254 0.83877,0.146644 1.91309,-0.116448 2.72303,0.04339 0.24101,0.0511 0.61523,0.141617 0.78111,0.18226 1.48069,0.621225 2.35944,-1.472583 0.87876,-2.093808 -0.26154,-0.09646 -0.52482,-0.175698 -0.79197,-0.243011 0.22964,-0.948853 0.29121,-1.93302 0.44914,-2.896613 0.0993,-0.468318 0.0908,-0.947612 0.13453,-1.421185 0.017,-0.184488 0.11584,-0.442609 0.15622,-0.60753 0.29403,-0.586906 0.44528,-1.265662 0.57715,-1.907208 0.0961,-0.281008 0.17277,-0.566185 0.2365,-0.854881 0.0214,0.01022 0.0438,0.02202 0.0651,0.03255 1.38894,0.833363 2.5671,-1.132428 1.17817,-1.965791 -0.9728,-0.619083 -2.09252,-0.832171 -3.22425,-0.896107 -0.69313,0.0069 -1.37043,-0.158504 -2.06126,-0.216974 -0.40771,-0.02654 -0.81345,-0.03833 -1.21506,-0.01736 z m 0.026,2.286915 c 0.3449,0.0038 0.69231,0.04366 1.03497,0.03472 0.66276,0.02768 1.30411,0.203672 1.96579,0.221315 -0.0768,0.306417 -0.17866,0.606027 -0.26471,0.911293 -0.13229,0.639695 -0.27902,1.272318 -0.54461,1.870323 -0.0196,0.103071 -0.0448,0.203637 -0.0715,0.303764 -0.0392,-0.0089 -0.0797,-0.01549 -0.12151,-0.0217 -0.11437,-0.0033 -0.0624,-0.0034 -0.15188,-0.0066 -0.26771,-0.103581 -0.49924,-0.283298 -0.76809,-0.394894 -0.32317,-0.134141 -0.68546,-0.182175 -1.02846,-0.234334 -0.73815,-0.129494 -1.47443,-0.247656 -2.21748,-0.340649 -0.0115,0.0022 -0.0232,0.0027 -0.0325,0.0043 -0.0153,-0.147691 -0.0218,-0.35051 -0.026,-0.420931 -0.004,-0.14181 0.0167,-0.286152 -0.0111,-0.425271 -2.4e-4,-0.0011 -0.002,-0.0054 -0.002,-0.0066 l -0.002,-0.0022 c -5.4e-4,-9.07e-4 -10e-4,-0.0057 -0.002,-0.0066 l -0.002,-0.0022 c -0.0111,-0.01011 -0.0296,-0.01658 -0.0391,-0.02604 l -0.002,-0.0022 -0.002,-0.0022 v -0.0022 c -3.2e-4,-9.07e-4 -0.002,-0.0056 -0.002,-0.0066 -10e-5,-0.0011 -4e-5,-0.0053 0,-0.0066 6.9e-4,-0.005 0.003,-0.01055 0.007,-0.01736 0.0614,-0.127494 0.2086,-0.208049 0.31027,-0.286407 0.41216,-0.259481 0.80575,-0.517625 1.11742,-0.880918 0.0549,-0.06394 0.13775,-0.108569 0.2083,-0.151882 0.10287,-0.02716 0.1999,-0.08223 0.30593,-0.09113 0.11414,-0.0096 0.22786,-0.01212 0.34283,-0.01089 z m -5.33324,10.032915 c -0.0189,0.01216 -0.0641,0.0066 -0.10198,0.0022 0.0323,3.63e-4 0.0661,-3.57e-4 0.10198,-0.0022 z"
               id="path362" /><path
               style="display:inline;fill:#ffffff;fill-opacity:1;stroke:none;stroke-width:2.22182;stroke-linecap:round;stroke-linejoin:round;stroke-miterlimit:2;stroke-dasharray:none;stroke-opacity:1"
               d="m 265.78697,70.633319 c -1.62118,0 -1.62118,2.291254 0,2.291254 0.24286,0.01385 0.4851,0.03449 0.72687,0.05858 -0.44244,1.055402 -0.68223,2.192516 -0.9178,3.308866 -0.13803,0.960051 -0.22258,1.917448 -0.3732,2.874917 -0.0398,0.303966 -0.12607,0.593414 -0.20395,0.887427 -0.29921,7.21e-4 -0.59937,0.0067 -0.89828,0.0217 -1.62119,0 -1.62119,2.291254 0,2.291254 0.63465,0.03188 1.26997,0.02164 1.90504,0.01302 0.32575,0 0.58705,-0.09192 0.78327,-0.238672 0.38221,0.07767 0.81381,-0.0425 1.15648,-0.470835 0.90373,-0.897729 1.85515,-1.754151 2.73389,-2.675299 0.50203,-0.538694 1.1168,-0.947526 1.67939,-1.419016 -0.0315,0.423769 -0.0463,0.843002 -0.20613,1.249775 -0.19441,0.675774 -0.34442,1.366613 -0.47517,2.059091 -0.30379,0.003 -0.60769,0.01157 -0.91131,0.02386 -1.62118,0 -1.62118,2.291253 0,2.291253 0.94906,0.03848 1.89951,0.02381 2.84889,0.0066 0.50243,4.22e-4 0.25418,6.45e-4 0.74422,-0.0022 1.6276,0 1.6276,-2.299932 0,-2.299932 -0.1939,-0.0011 -0.27265,-0.0019 -0.32763,-0.0022 0.0939,-0.451769 0.19362,-0.90359 0.30159,-1.351753 0.2045,-0.675218 0.3033,-1.352012 0.34282,-2.054752 0.14799,-0.756871 0.48562,-1.475397 0.72903,-2.204464 0.0851,-0.311246 0.33417,-1.038017 0.26038,-1.514484 0.2022,-0.0024 0.40322,-0.004 0.60536,-0.0066 0.0457,0.009 0.0911,0.01707 0.13669,0.02604 1.60052,0.264719 1.97587,-1.998326 0.37537,-2.263046 -0.17046,-0.02677 -0.34162,-0.0535 -0.51206,-0.08029 -1.00149,-0.01228 -2.00412,-0.02993 -3.00511,0.01302 -1.52118,0 -1.61341,2.018358 -0.27989,2.267387 -0.14731,0.183893 -0.30107,0.361457 -0.43178,0.551115 -0.60072,0.428345 -1.1264,0.924085 -1.61212,1.475429 -0.63354,0.553047 -1.36582,0.982693 -1.94409,1.599105 -0.57862,0.578477 -0.25115,0.258129 -0.23434,0.221313 v -0.0022 h -0.002 -0.002 l -0.002,0.0022 c -0.0322,0.01822 -0.19132,0.152383 -0.66612,0.590172 -0.16107,0.148522 -0.31623,0.304463 -0.46867,0.462157 0.10321,-0.621041 0.20312,-1.242878 0.29944,-1.865984 0.21789,-1.126101 0.42393,-2.265187 0.89176,-3.319714 0.039,-0.0779 0.0697,-0.152688 0.0933,-0.227824 1.53828,-0.01112 1.63948,-2.236111 0.0304,-2.336819 -1.05815,-0.07264 -2.10919,-0.273468 -3.17,-0.24952 z"
               id="path361" /><path
               style="display:inline;fill:#ffffff;fill-opacity:1;stroke:none;stroke-width:2.22182;stroke-linecap:round;stroke-linejoin:round;stroke-miterlimit:2;stroke-dasharray:none;stroke-opacity:1"
               d="m 243.47328,70.28399 c -0.58953,0.01157 -1.17661,0.06462 -1.76617,0.07811 -0.93032,-0.07606 -1.69794,0.296345 -2.41926,0.846202 -0.81983,0.777809 -1.14745,1.834665 -1.33439,2.916141 -0.0112,0.07341 -0.0183,0.144515 -0.0196,0.212635 -0.3566,1.037272 -0.55037,2.11988 -0.61186,3.215568 0.01,0.977954 0.55724,1.667442 1.22806,2.299932 0.90117,0.788863 2.03315,0.899055 3.17869,0.928653 0.88661,-0.01202 1.77148,-0.05683 2.65794,-0.07378 1.08589,0.0139 1.69673,-0.372232 2.39324,-1.182513 0.80856,-0.842963 1.19616,-1.91177 1.29751,-3.055005 0.0236,-0.695568 -0.0514,-1.388382 -0.076,-2.082958 -0.15207,-0.829416 -0.45924,-1.715591 -0.97639,-2.397571 -0.14495,-0.191145 -0.32094,-0.355693 -0.48168,-0.533759 -0.87844,-0.782888 -1.91434,-1.122021 -3.0702,-1.171663 z m -0.0933,2.295593 c 0.55787,0.02076 1.0413,0.140394 1.48844,0.496872 0.42709,0.367655 0.59866,0.887216 0.85055,1.37996 0.0159,0.607036 0.0549,1.213447 0.0715,1.820418 -0.0511,0.675273 -0.35064,1.278688 -0.79412,1.787873 -0.0536,0.07138 -0.12332,0.131524 -0.16056,0.212635 v 0.0022 0.0022 0.0022 0.0022 c 2.3e-4,7.44e-4 0.002,0.0058 0.002,0.0066 0.008,0.01361 0.0314,0.02836 0.0391,0.03906 l 0.002,0.0022 v 0.0022 0.0022 l -0.002,0.0022 -0.002,0.0022 c -0.16278,0.08844 -0.33578,0.06592 -0.51856,0.06076 -0.86424,0.0054 -1.7265,0.03134 -2.59068,0.03906 -0.62401,-0.002 -1.24709,0.06177 -1.75533,-0.358008 -0.16699,-0.01333 -0.31636,-0.337486 -0.34934,-0.373196 h -0.002 v -0.0022 h -0.002 v 0.0022 0.0022 l -0.002,0.0022 c 1.3e-4,0.01703 0.014,0.07158 0.0434,0.182258 -0.0114,-0.02993 -0.0536,-0.161262 -0.0585,-0.186597 0.096,-1.127452 0.41042,-2.211359 0.72253,-3.295847 0.0712,-0.249135 0.0759,-0.473541 0.0303,-0.670453 0.0797,-0.260818 0.18907,-0.511238 0.34065,-0.739883 0.40666,-0.383778 0.45637,-0.376156 1.02846,-0.362348 0.53999,-0.01304 1.07873,-0.05015 1.61863,-0.06292 z"
               id="path360" /><path
               style="display:inline;fill:#ffffff;fill-opacity:1;stroke:none;stroke-width:2.22182;stroke-linecap:round;stroke-linejoin:round;stroke-miterlimit:2;stroke-dasharray:none;stroke-opacity:1"
               d="m 250.16479,69.288075 c -1.35959,0.06161 -1.55193,2.081637 -0.0391,2.297763 0.66383,0.121622 1.33537,0.190986 2.00918,0.225654 -0.0745,0.316741 -0.0933,0.415932 -0.0933,0.43395 h 0.002 l 0.002,-0.0022 v -0.0022 c 0.0151,-0.03219 0.0591,-0.197882 -0.12584,0.462156 -0.29099,1.021298 -0.48046,2.065687 -0.70083,3.10274 -0.20751,1.199842 -0.67198,2.335 -1.1044,3.467257 -0.44069,1.233465 -0.91818,2.461355 -1.22591,3.736306 -0.19379,0.881128 -0.49355,1.732713 -0.6531,2.621056 -0.0756,0.631348 -0.24517,1.252497 -0.39271,1.872492 -0.3332,-0.05296 -0.66785,-0.10417 -1.00242,-0.147543 -1.61375,-0.230535 -1.93921,2.05204 -0.32547,2.282575 1.2382,0.327737 2.51424,0.494129 3.79272,0.540267 0.35646,-0.03301 0.67421,0.07639 1.01978,0.147543 1.59101,0.298307 2.01193,-1.951721 0.42093,-2.250028 -0.43369,-0.06932 -0.85738,-0.213456 -1.30185,-0.203957 -0.10331,-0.0094 -0.20721,-0.01906 -0.31027,-0.03037 0.13396,-0.594541 0.24085,-1.193178 0.34932,-1.792212 0.16687,-0.851622 0.52893,-1.658148 0.69216,-2.512568 0.19639,-0.905534 0.55705,-1.752082 0.88526,-2.614546 0.7776,0.55667 1.64101,0.990926 2.59068,1.171664 0.26679,0.05078 0.53783,0.06906 0.80714,0.104148 1.20895,0.08214 2.43514,0.01722 3.50197,-0.618378 0.20507,-0.122177 0.38642,-0.280333 0.57933,-0.420932 0.94975,-0.818116 1.60867,-1.893995 2.09598,-3.035476 0.37704,-1.035347 0.34368,-2.122113 0.30375,-3.202549 0.01,-0.914975 -0.24369,-1.880672 -0.97205,-2.49738 -0.17765,-0.150439 -0.38476,-0.261635 -0.57715,-0.392725 -0.84241,-0.414672 -1.77883,-0.611221 -2.69699,-0.787618 -0.79367,-0.119674 -1.59628,-0.08004 -2.3954,-0.07378 -0.27715,-0.01022 -0.5481,0.02515 -0.80063,0.104148 -0.0332,-0.481597 -0.19176,-0.937767 -0.57933,-1.330056 -0.15849,-0.16041 -0.396,-0.214164 -0.59451,-0.321122 -0.94399,-0.193377 -1.92013,-0.188835 -2.87491,-0.318953 -0.10087,-0.01441 -0.19578,-0.0193 -0.28642,-0.01519 z m 6.14907,4.168087 c 0.32583,9.99e-4 0.65296,0.01485 0.97638,0.05424 0.6588,0.104637 1.30666,0.311781 1.94193,0.509891 0.4015,-0.0812 0.40557,0.823589 0.39924,0.995914 0.0335,0.745281 0.0584,1.493509 -0.16056,2.217482 -0.29417,0.765285 -0.73816,1.493711 -1.33874,2.056922 -0.10343,0.0836 -0.38659,0.327087 -0.52292,0.388384 -0.59745,0.268642 -1.27449,0.159877 -1.90503,0.169241 -1.1103,-0.06448 -1.89392,-0.547796 -2.78379,-1.191192 -0.012,-0.01 -0.0249,-0.02089 -0.0369,-0.03037 0.2565,-0.76395 0.48023,-1.536522 0.61838,-2.332479 0.13695,-0.637246 0.25858,-1.278633 0.40573,-1.913717 0.47019,0.06564 0.98153,-0.152172 1.23243,-0.774601 -0.0586,-0.08554 -0.18951,-0.12357 -0.21481,-0.136694 h -0.002 v -0.0022 h 0.002 l 0.002,-0.0022 h 0.002 c 0.0282,-0.0024 0.1396,0.0057 0.40792,0.01089 0.32499,-0.0081 0.65056,-0.02053 0.97639,-0.01953 z"
               id="path359" /><path
               style="display:inline;fill:#ffffff;fill-opacity:1;stroke:none;stroke-width:2.22182;stroke-linecap:round;stroke-linejoin:round;stroke-miterlimit:2;stroke-dasharray:none;stroke-opacity:1"
               d="m 227.46706,68.589416 c -0.25744,-0.0039 -0.50024,0.02978 -0.70951,0.123676 -0.22148,0.09937 -0.40337,0.271093 -0.60536,0.405743 -0.12076,0.18168 -0.26432,0.349719 -0.36234,0.544606 -0.33946,0.674838 -0.36359,1.892154 -0.35151,2.627566 0,1.621178 2.29126,1.621179 2.29126,0 0.0194,-0.418811 0.0491,-0.843999 0.10409,-1.262794 0.37259,0.160907 0.87652,0.26384 1.21289,0.377536 0.411,0.148067 0.82824,0.252413 1.25194,0.325462 -0.33505,1.107919 -0.44059,2.270236 -0.69432,3.397826 -0.11961,0.802165 -0.40221,1.562603 -0.53375,2.360686 -0.01,0.111598 -0.0204,0.224712 -0.0303,0.33631 -0.34036,4.61e-4 -0.68229,0.0119 -1.02413,0.02821 -1.62119,0 -1.62119,2.291254 0,2.291254 0.50262,0.02164 1.0046,0.009 1.50364,0.0217 0.22357,0.08623 0.47269,0.104537 0.70734,0.04123 0.129,0.01313 0.25734,0.03057 0.38621,0.05207 0.52238,0.103071 1.0531,0.145683 1.58391,0.17141 1.61847,0.08924 1.74432,-2.19985 0.12586,-2.289084 -0.33334,-0.02131 -0.66593,-0.05387 -0.99592,-0.104147 0.003,-0.06452 0.006,-0.128238 0.007,-0.193108 0.10521,-0.747919 0.46029,-1.441018 0.56413,-2.193616 0.26411,-1.147987 0.41019,-2.315899 0.6683,-3.465087 0.036,-0.108136 0.0584,-0.212838 0.0694,-0.312443 0.522,0.007 1.08861,-0.166153 1.59259,-0.0217 0.0338,-0.0084 0.2581,0.04292 0.50555,0.101981 -0.081,0.202785 -0.15998,0.405527 -0.22999,0.616209 -0.10787,0.198463 -0.0472,0.08037 -0.18009,0.353669 -0.72877,1.437873 1.30645,2.468504 2.03522,1.03063 0.19703,-0.374041 0.0855,-0.156928 0.32763,-0.653094 0.2665,-0.785115 0.69611,-1.587593 0.40574,-2.443136 -0.0738,-0.217396 -0.25174,-0.385101 -0.37753,-0.577153 -0.18172,-0.118669 -0.34954,-0.260669 -0.5446,-0.355839 -0.48359,-0.235946 -1.08904,-0.140443 -1.5861,-0.34065 -0.69147,-0.08582 -1.37654,-0.03826 -2.0721,-0.02604 -0.92607,-0.01322 -1.86024,-0.05635 -2.73389,-0.397064 -0.62405,-0.197608 -1.53847,-0.561299 -2.31078,-0.572813 z m 0.49253,1.798722 h 0.002 v 0.0022 c 1e-4,0.0014 2.5e-4,0.0039 0,0.0066 -0.006,0.05699 -0.0332,0.110146 -0.0499,0.164901 0.01,0.0026 0.0204,0.0072 0.026,0.01089 l 0.002,0.0022 0.002,0.0022 0.002,0.0022 c 5.2e-4,8.78e-4 0.002,0.0056 0.002,0.0066 v 0.0022 c 1.2e-4,9.84e-4 3e-5,0.0054 0,0.0066 -1.4e-4,0.0011 2.8e-4,0.0054 0,0.0066 -0.007,0.01781 -0.0291,0.03941 -0.0585,0.06292 0.009,-0.05054 0.0184,-0.101615 0.0282,-0.151882 0.006,-0.03055 0.033,-0.104282 0.0434,-0.121506 z"
               id="path358" /><path
               style="display:inline;fill:#ffffff;fill-opacity:1;stroke:none;stroke-width:2.22182;stroke-linecap:round;stroke-linejoin:round;stroke-miterlimit:2;stroke-dasharray:none;stroke-opacity:1"
               d="m 220.19407,67.851702 c -1.17196,0.01411 -1.88641,0.480043 -2.83587,1.312697 -0.5004,0.330865 -0.7166,0.90714 -1.08271,1.351753 -0.14055,0.170686 -0.28992,0.333771 -0.43177,0.503382 -0.73084,0.785786 -1.04433,1.766044 -1.2259,2.798976 -0.20953,1.800673 0.29659,2.896589 1.63814,4.053088 0.91919,0.784311 2.00737,1.288806 3.19387,1.484107 0.81365,0.08016 1.63098,-0.0031 2.44532,-0.03037 l 0.32763,-0.0087 c 1.62366,-0.03578 1.5738,-2.33355 -0.0499,-2.297763 l -0.35367,0.0066 c -0.6697,0.02157 -1.33884,0.07635 -2.00919,0.04774 -0.76594,-0.109158 -1.4458,-0.515758 -2.05041,-0.985065 -0.001,-0.0013 -0.42756,-0.339027 -0.46433,-0.384046 -0.35524,-0.434971 -0.41538,-1.013916 -0.36235,-1.549199 0.0607,-0.652047 0.23639,-1.20102 0.70083,-1.683725 0.24763,-0.317444 0.52358,-0.608145 0.75073,-0.94167 0.0786,-0.115296 0.10521,-0.266142 0.19962,-0.368858 0.0832,-0.09056 0.18698,-0.160258 0.2799,-0.240842 0.46393,-0.389287 0.70048,-0.737335 1.35175,-0.770261 0.4038,0.07754 0.73738,0.205119 1.04148,0.381876 -0.0935,0.139904 -0.16329,0.311527 -0.20178,0.5164 -0.0711,0.439503 -0.11826,0.85814 -0.0673,1.304019 0.0828,0.786006 0.0341,1.35569 1.50146,1.492786 0.95176,0.08893 1.04736,-1.596436 1.07403,-2.32163 0.6531,-0.345536 0.95003,-1.315082 0.1367,-1.965792 -0.77895,-0.918455 -1.82616,-1.406323 -2.97256,-1.683724 -0.18812,-0.01671 -0.36634,-0.02372 -0.53376,-0.0217 z"
               id="path357" /><path
               style="display:inline;fill:#ffffff;fill-opacity:1;stroke:none;stroke-width:2.22182;stroke-linecap:round;stroke-linejoin:round;stroke-miterlimit:2;stroke-dasharray:none;stroke-opacity:1"
               d="m 198.29913,58.968754 c -1.62118,0 -1.62118,2.291254 0,2.291254 0.29403,0.05721 0.59107,0.100393 0.88743,0.136694 -0.24385,1.371252 -0.46841,2.745969 -0.70734,4.118181 -0.3093,1.575903 -0.54603,3.152079 -0.60319,4.758258 0.007,0.23072 -0.009,0.605264 0.004,1.002423 -0.22178,0.705739 -0.39287,1.505587 -0.16491,2.217483 -0.0159,0.07675 -0.0299,0.153672 -0.0412,0.232163 -0.0716,0.104248 -0.15644,0.412872 -0.18877,0.731205 -0.0704,-0.01661 -0.14004,-0.03325 -0.21046,-0.0499 -1.54057,-0.51352 -2.26743,1.664907 -0.72687,2.178427 0.96789,0.321573 1.97528,0.521202 2.9769,0.711677 0.54323,0.07611 1.08299,0.0915 1.62079,0.197447 1.59254,0.312174 2.033,-1.940025 0.44047,-2.252198 -0.2478,-0.04838 -0.49443,-0.07864 -0.74206,-0.106314 -8.1e-4,-0.01113 -0.001,-0.02344 -0.002,-0.03472 0.8253,-0.841037 1.49391,-1.814249 2.21532,-2.742561 0.28931,-0.411459 0.72483,-0.639465 1.11092,-0.937331 0.32103,-0.247683 0.41418,-0.354093 0.69648,-0.631397 0.49793,-0.603233 1.12711,-1.066721 1.7141,-1.577406 0.73283,-0.686686 1.47818,-1.348529 2.30644,-1.915887 -0.11009,0.625218 -0.21455,1.252272 -0.4231,1.855134 -0.36455,1.167923 -0.82023,2.310401 -0.83969,3.554047 -0.0141,0.87411 -0.10498,1.774479 0.0976,2.629735 -0.54809,-0.01159 -1.09672,-1.8e-5 -1.64467,0.01953 -1.62119,0 -1.62119,2.291255 0,2.291254 0.85313,0.100582 1.73272,-0.09026 2.57767,0.05858 0.74189,0.214544 1.54376,0.109036 2.28691,0.273388 1.59716,0.291288 2.00941,-1.96742 0.41224,-2.258707 -0.20241,-0.03397 -0.40576,-0.06008 -0.6097,-0.08245 0.10821,-0.16917 0.20057,-0.350591 0.27123,-0.540267 0.18964,-0.794675 0.27977,-1.609514 0.4448,-2.408421 0.22545,-0.884182 0.33786,-1.789305 0.4448,-2.694826 0.0306,-1.427297 0.0841,-2.853389 0.27773,-4.270065 0.008,-0.06382 0.17559,-1.566636 0.20178,-2.026544 0.0291,-0.0871 0.0585,-0.174768 0.0847,-0.26254 0.19638,0.02318 0.39273,0.03663 0.59017,0.0499 1.609,0.106737 1.76088,-2.169333 0.15189,-2.276065 -0.23178,-0.01505 -0.46309,-0.03318 -0.68999,-0.0868 -0.93685,-0.19902 -1.87438,-0.297064 -2.83369,-0.208295 -1.62118,0 -1.62118,2.291253 0,2.291253 0.14318,-0.002 0.28562,-0.0011 0.42528,0 -0.0735,0.197767 -0.1261,0.409659 -0.28207,0.564134 -0.22592,0.227799 -0.53607,0.375404 -0.79847,0.555456 -0.46603,0.319784 -0.91787,0.660566 -1.40166,0.95469 -0.92447,0.651442 -1.74707,1.41088 -2.56898,2.184935 -0.62456,0.540668 -1.2802,1.050473 -1.81174,1.688065 -0.51005,0.506647 -1.15646,0.857172 -1.67721,1.351752 0.16387,-0.712884 0.32639,-1.425439 0.34933,-2.158899 0.15894,-1.031907 0.27587,-2.067519 0.30159,-3.113588 -0.0111,-0.804507 0.15775,-1.597193 0.22348,-2.397571 0.0203,-0.47952 0.0534,-0.800019 -0.0434,-0.982896 0.43006,0.103803 0.86007,0.207077 1.30837,0.25169 0.5014,0.0202 0.25504,0.01615 0.73554,0.01736 1.61997,0.0069 1.63053,-2.284377 0.0111,-2.291253 -0.36432,-0.0023 -0.18445,0.0013 -0.54243,-0.01089 -0.66002,-0.04778 -1.24808,-0.332837 -1.9007,-0.438289 -1.22724,-0.235012 -2.46826,-0.326515 -3.71461,-0.410083 z m 3.20689,2.690487 c 0.0324,0.005 0.0653,0.0099 0.0976,0.01519 0.0242,0.0043 0.0474,0.0084 0.0717,0.01302 -0.0549,0.0073 -0.11332,0.0153 -0.17575,0.02604 0.002,-0.01863 0.004,-0.03562 0.007,-0.05425 z m 7.27951,12.786326 c -0.008,0.03558 -0.0152,0.073 -0.0239,0.108491 -0.0159,0.02385 -0.0252,0.0675 -0.0434,0.0868 l -0.002,0.0022 -0.002,0.0022 c -9e-4,5.4e-4 -0.006,0.0018 -0.007,0.0022 h -0.002 c -0.002,4.44e-4 -0.007,0.0022 -0.009,0.0022 -0.002,-3.6e-5 -0.007,-0.0019 -0.009,-0.0022 h -0.002 l -0.002,-0.0022 h -0.002 l -0.002,-0.0022 h -0.002 l -0.002,-0.0022 v -0.0022 l -0.002,-0.0022 v -0.0022 l -0.002,-0.0022 v -0.0022 c -0.009,-0.03988 0.058,-0.135744 0.115,-0.184428 z"
               id="path327" /></g></g></g><g
         id="g319"
         transform="translate(-62,-6.5)"><path
           style="fill:#7d776c;fill-opacity:1;stroke-width:2;stroke-linecap:round;stroke-linejoin:round;stroke-miterlimit:2;stroke-dasharray:none"
           id="path315"
           d="m 287.87825,188.14031 c -0.007,-2.518 -0.12134,-5.03466 -0.18705,-7.55174 -0.0692,-2.87238 -0.10383,-5.7454 -0.13527,-8.61839 -0.0232,-2.12119 -3.02304,-2.08836 -2.99982,0.0328 v 0 c 0.0316,2.88814 0.0665,5.77632 0.13611,8.66386 0.0651,2.49098 0.17826,4.98157 0.18603,7.47343 0,2.12132 3,2.12132 3,0 z" /><path
           style="fill:#7d776c;fill-opacity:1;stroke-width:2;stroke-linecap:round;stroke-linejoin:round;stroke-miterlimit:2;stroke-dasharray:none"
           id="path316"
           d="m 186.68972,166.56654 c 2.42729,0.18411 4.83989,0.54998 7.24667,0.90879 3.01011,0.44747 6.0183,0.9145 9.01409,1.45031 3.02845,0.58026 6.0669,1.10746 9.12671,1.49175 2.5066,0.2716 5.02306,0.43889 7.52925,0.71256 3.06876,0.32478 6.1338,0.67881 9.20553,0.97556 3.13055,0.3197 6.27277,0.51242 9.41505,0.67225 3.14957,0.10441 6.29765,0.24716 9.44684,0.36116 3.20399,0.13657 6.40725,0.30475 9.60218,0.58408 3.27539,0.30498 6.55313,0.57429 9.83332,0.82073 2.09131,0.13629 4.17891,0.3204 6.26298,0.54016 1.7914,0.18346 3.54335,0.60454 5.2917,1.01884 1.17483,0.24224 2.3074,0.63436 3.45609,0.97068 0.9027,0.24935 1.83348,0.3672 2.76564,0.4308 0.10546,0.005 0.21093,0.01 0.31639,0.0149 1.05951,0.0493 1.1293,-1.44903 0.0698,-1.49838 v 0 c -0.095,-0.004 -0.19005,-0.009 -0.28508,-0.0131 -0.82388,-0.055 -1.647,-0.15646 -2.44556,-0.37386 -1.17372,-0.34312 -2.33113,-0.74309 -3.53141,-0.99061 -1.81046,-0.42901 -3.62528,-0.86156 -5.48033,-1.051 -2.09901,-0.22116 -4.20154,-0.40694 -6.30783,-0.5442 -3.27415,-0.24598 -6.54584,-0.51481 -9.81519,-0.81926 -3.22036,-0.28098 -6.44895,-0.4517 -9.67843,-0.58879 -3.14189,-0.1137 -6.28266,-0.2563 -9.42493,-0.3602 -3.11956,-0.15855 -6.23908,-0.34979 -9.34699,-0.66724 -3.0656,-0.29613 -6.1245,-0.6496 -9.18715,-0.97367 -2.49824,-0.27209 -5.00636,-0.44123 -7.50516,-0.70973 -3.03406,-0.38015 -6.04646,-0.90543 -9.04942,-1.48001 -3.01012,-0.53795 -6.03247,-1.00802 -9.05695,-1.45733 -2.47955,-0.36948 -4.96584,-0.75079 -7.4678,-0.92518 -1.06066,0 -1.06066,1.5 0,1.5 z" /><path
           style="fill:#7d776c;fill-opacity:1;stroke-width:2;stroke-linecap:round;stroke-linejoin:round;stroke-miterlimit:2;stroke-dasharray:none"
           id="path317"
           d="m 186.62629,170.45563 c 2.22848,0.28894 4.4581,0.56717 6.69489,0.79092 3.96258,0.3962 7.92496,0.79369 11.88833,1.18197 3.17173,0.25432 6.34042,0.53916 9.50615,0.85936 3.10563,0.31083 6.20558,0.67511 9.30982,0.99857 2.53448,0.27366 5.07814,0.41488 7.62281,0.5469 2.70931,0.11679 5.41488,0.31117 8.11777,0.52861 4.06603,0.36265 8.12562,0.77119 12.20025,1.02829 2.88169,0.17114 5.76581,0.28336 8.64976,0.40459 2.37878,0.13547 4.75401,0.33525 7.12628,0.55627 1.92314,0.18703 3.83605,0.45672 5.74909,0.72468 1.86901,0.22587 3.73706,0.45109 5.59931,0.72717 1.10496,0.19503 2.21817,0.349 3.31108,0.60584 0.72516,0.21348 1.46021,0.39678 2.18077,0.62514 1.01212,0.31719 1.4607,-1.11416 0.44857,-1.43135 v 0 c -0.75735,-0.23525 -1.52545,-0.43641 -2.288,-0.65444 -1.13368,-0.2636 -2.28619,-0.43031 -3.43245,-0.62898 -1.86622,-0.27666 -3.73815,-0.50314 -5.6112,-0.72888 -1.93597,-0.27117 -3.87187,-0.54366 -5.81808,-0.73271 -2.39761,-0.2232 -4.79817,-0.42534 -7.2024,-0.56142 -2.87347,-0.12069 -5.74709,-0.23256 -8.61831,-0.40294 -4.06603,-0.25631 -8.11693,-0.66521 -12.17442,-1.02644 -2.71706,-0.21846 -5.4368,-0.41394 -8.16031,-0.53141 -2.51871,-0.13067 -5.03646,-0.2698 -7.54509,-0.54085 -3.10574,-0.32349 -6.20717,-0.68819 -9.31431,-0.99903 -3.16729,-0.32034 -6.33753,-0.60565 -9.51084,-0.85982 -3.9624,-0.38818 -7.9238,-0.78558 -11.88541,-1.18169 -2.27627,-0.22728 -1.56271,-0.14108 -3.66678,-0.40386 -0.94044,-0.11745 -1.87994,-0.27481 -2.82289,-0.37152 -0.11776,-0.0121 -0.23626,-0.0153 -0.35439,-0.023 -1.06066,0 -1.06066,1.5 0,1.5 z" /><path
           style="fill:#7d776c;fill-opacity:1;stroke-width:2;stroke-linecap:round;stroke-linejoin:round;stroke-miterlimit:2;stroke-dasharray:none"
           id="path318"
           d="m 186.43012,174.1845 c 2.29885,0.24952 4.6096,0.385 6.9164,0.54183 2.88152,0.16695 5.76541,0.27423 8.64712,0.43898 2.50125,0.15061 4.9988,0.35163 7.49438,0.57626 1.96604,0.17497 3.93135,0.36064 5.89391,0.57149 2.05225,0.23018 4.11361,0.35098 6.17227,0.50539 2.64371,0.18679 5.29157,0.30525 7.93756,0.45322 2.53433,0.13613 5.06799,0.288 7.59988,0.46403 2.54547,0.18773 5.08019,0.49458 7.61076,0.82271 2.46977,0.33378 4.93308,0.70943 7.411,0.97871 2.03095,0.2212 4.05412,0.50298 6.08647,0.71203 2.19878,0.20226 4.3983,0.39404 6.59466,0.62214 1.88275,0.16191 3.74995,0.45465 5.62836,0.6546 1.92878,0.20907 3.86522,0.34251 5.80133,0.4625 1.40941,0.13217 2.82454,0.18719 4.23539,0.29653 0.87532,0.0527 1.74278,0.17871 2.61358,0.27618 0.55848,0.031 1.1035,0.15965 1.65157,0.26186 1.04269,0.19439 1.3176,-1.2802 0.2749,-1.47459 v 0 c -0.58386,-0.1088 -1.16507,-0.24306 -1.75975,-0.27797 -0.88793,-0.0992 -1.77255,-0.22719 -2.66506,-0.28105 -1.41846,-0.10871 -2.84089,-0.16641 -4.25789,-0.29809 -1.91414,-0.11852 -3.82862,-0.2503 -5.73551,-0.45696 -1.87967,-0.19952 -3.74795,-0.49388 -5.63202,-0.65499 -2.19688,-0.22803 -4.39688,-0.42032 -6.59621,-0.6223 -2.02953,-0.2084 -4.04973,-0.49095 -6.0779,-0.71113 -2.46764,-0.26771 -4.92048,-0.6435 -7.38006,-0.97502 -2.5601,-0.33186 -5.12442,-0.64199 -7.69961,-0.83155 -2.53866,-0.17641 -5.07906,-0.32884 -7.62016,-0.46531 -2.63651,-0.14734 -5.27486,-0.26552 -7.90911,-0.45134 -2.04265,-0.15317 -4.08799,-0.27271 -6.12429,-0.50103 -1.97114,-0.2116 -3.94499,-0.39839 -5.91963,-0.57402 -2.51185,-0.226 -5.02565,-0.42836 -7.54321,-0.57986 -2.87634,-0.16443 -5.75482,-0.27188 -8.63099,-0.43796 -2.28547,-0.15535 -4.57488,-0.28925 -6.85249,-0.53612 -1.05417,-0.11713 -1.21982,1.3737 -0.16565,1.49083 z" /><path
           style="fill:#7d776c;fill-opacity:1;stroke-width:2;stroke-linecap:round;stroke-linejoin:round;stroke-miterlimit:2;stroke-dasharray:none"
           id="path319"
           d="m 186.13825,177.34992 c 2.0158,0.12206 4.02767,0.29728 6.04276,0.4313 2.6571,0.19037 5.31777,0.32217 7.97514,0.50864 2.51874,0.15174 5.03209,0.37834 7.54461,0.60873 2.20423,0.20642 4.4131,0.35065 6.62185,0.49674 2.01228,0.13459 4.02588,0.25608 6.03511,0.43174 2.21827,0.23465 4.44129,0.42001 6.66085,0.64144 2.04031,0.19622 4.08052,0.39436 6.1186,0.61267 1.97505,0.2015 3.94653,0.43784 5.91873,0.66562 1.77973,0.17479 3.55047,0.42606 5.32646,0.6334 1.63878,0.21866 3.28848,0.33276 4.93638,0.45627 1.79102,0.17718 3.5898,0.23566 5.38618,0.32807 2.20633,0.10642 4.40892,0.28585 6.6089,0.48192 2.17381,0.1767 4.34638,0.37105 6.52406,0.49425 1.48299,0.11427 2.96745,0.20117 4.45401,0.25 1.09102,0.016 2.1787,0.10985 3.26472,0.20814 1.16012,0.10348 2.29614,0.37689 3.42578,0.6505 0.85686,0.22668 1.72377,0.39352 2.59911,0.52752 1.19449,0.19512 2.4032,0.27518 3.60523,0.40997 1.05406,0.11818 1.22119,-1.37248 0.16714,-1.49066 v 0 c -1.18205,-0.13252 -2.37066,-0.21125 -3.54539,-0.40203 -0.83314,-0.12754 -1.65812,-0.28576 -2.47348,-0.50276 -1.20127,-0.29013 -2.4095,-0.57802 -3.64319,-0.68644 -1.11464,-0.10087 -2.23103,-0.19638 -3.35076,-0.21344 -1.47474,-0.0483 -2.94734,-0.13536 -4.41855,-0.24841 -2.16151,-0.12198 -4.31788,-0.31572 -6.47556,-0.49072 -2.21868,-0.19762 -4.43997,-0.37854 -6.66504,-0.48586 -1.78468,-0.0916 -3.57174,-0.14972 -5.35107,-0.32585 -1.62729,-0.12191 -3.25638,-0.23415 -4.87462,-0.45036 -1.7766,-0.20719 -3.54788,-0.45896 -5.32822,-0.63361 -1.97633,-0.22822 -3.95193,-0.46503 -5.93111,-0.66699 -2.0417,-0.21858 -4.0855,-0.41731 -6.12943,-0.61379 -2.22568,-0.22196 -4.45479,-0.40808 -6.67919,-0.64316 -2.01976,-0.17631 -4.04384,-0.2991 -6.06667,-0.43416 -2.19608,-0.14521 -4.3923,-0.28851 -6.58388,-0.49375 -2.52318,-0.23129 -5.04718,-0.45888 -7.5766,-0.61131 -2.6592,-0.18648 -5.32167,-0.31871 -7.9806,-0.50902 -2.04817,-0.1361 -4.09294,-0.31788 -6.14226,-0.4346 -1.06066,0 -1.06066,1.5 0,1.5 z" /></g><g
         id="g323"
         transform="translate(-62,-6.5)"><path
           style="fill:#000000;fill-opacity:1;stroke-width:2;stroke-linecap:round;stroke-linejoin:round;stroke-miterlimit:2;stroke-dasharray:none"
           id="path320"
           d="m 283.08134,167 c -3.49995,0.0965 -6.98213,-0.27151 -10.44829,-0.71014 -5.31222,-0.77431 -10.64338,-1.35602 -15.99604,-1.75982 -6.26245,-0.44552 -12.52358,-0.857 -18.7757,-1.43678 -5.32119,-0.44488 -10.64526,-0.8701 -15.97273,-1.23454 -4.34952,-0.23763 -8.70469,-0.27521 -13.04749,-0.63205 -3.73427,-0.31807 -7.46207,-0.70439 -11.14518,-1.40629 -2.72415,-0.54167 -5.46915,-0.97362 -8.21104,-1.41588 -0.9683,-0.34283 -2.13424,-0.0264 -3.08968,-0.38663 -0.1746,-0.0658 0.37204,0.0577 0.54507,0.12757 0.10124,0.0529 0.23655,0.25103 0.30372,0.15865 0.11343,-0.15601 -0.004,-0.38584 0.002,-0.57865 0.01,-0.36087 0.0161,-0.72219 0.0438,-1.08212 0.13298,-1.72263 0.37692,-3.44367 0.55703,-5.16188 0.37735,-3.95284 0.94427,-7.87961 1.58203,-11.79764 0.59771,-4.35342 0.99529,-8.73287 1.43298,-13.10493 0.35554,-4.02267 0.83594,-8.03255 1.19046,-12.05527 0.31225,-3.97261 0.62754,-7.94305 0.79871,-11.92473 0.18129,-3.820011 0.48508,-7.62453 0.91686,-11.42359 0.48602,-4.36786 1.01252,-8.726854 1.3447,-13.110109 0.22263,-4.334541 0.49938,-8.666477 0.68745,-13.002886 0.1405,-3.557159 0.18029,-7.117066 0.19962,-10.676596 0.0604,-3.018258 0.45524,-6.01158 0.83657,-9.001586 0.29069,-2.890801 0.59151,-5.777206 1.04093,-8.648192 0.29033,-2.145047 0.64273,-4.280767 0.87843,-6.432992 0.1582,-1.677679 0.20672,-3.3823 0.55869,-5.035059 0.0356,-0.07043 0.0386,-0.251095 0.10671,-0.211288 0.22975,0.134248 -0.42975,0.492224 -0.31633,0.732941 0.0717,0.152178 0.33648,-0.001 0.50466,0.0027 1.11294,0.02454 1.12662,0.03823 2.3616,0.11079 3.39234,0.328562 6.74918,0.925288 10.10878,1.485502 3.81694,0.602847 7.63891,1.172099 11.46084,1.742519 3.65569,0.5453 7.33057,0.896032 11.00843,1.242613 3.74003,0.249807 7.45679,0.728409 11.18564,1.095616 3.87529,0.360531 7.7492,0.695449 11.63764,0.874023 3.36576,0.128973 6.73425,0.152592 10.10208,0.162903 2.96865,0.0033 5.9373,-0.0013 8.90595,-0.0034 2.68569,-0.0017 5.37138,-0.0024 8.05708,-0.0027 2.03178,0.159116 4.06637,0.289518 6.09715,0.460441 2.84434,0.314886 5.71308,0.289923 8.56081,0.536338 0.16609,0.05336 0.33939,0.08804 0.49826,0.160096 0.0743,0.0337 0.21302,0.215037 0.13191,0.206194 -0.14869,-0.01621 -0.28089,-0.338333 -0.38482,-0.230773 -0.0823,0.08517 -0.009,0.236706 -0.0136,0.355059 -0.26812,1.532104 -0.65884,3.040214 -1.07592,4.53819 -0.66694,2.676623 -1.33509,5.352403 -1.90948,8.050647 -0.56965,2.947018 -0.93839,5.92326 -1.16873,8.914334 -0.12358,3.031612 -0.27246,6.062837 -0.53403,9.086167 -0.3095,3.321593 -0.46239,6.653652 -0.71409,9.979594 -0.18729,3.200421 -0.4987,6.390908 -0.69469,9.590746 -0.14161,3.553351 -0.29444,7.107524 -0.58095,10.652651 -0.32233,3.997959 -0.70676,7.991217 -1.08301,11.984647 -0.26378,3.41058 -0.50811,6.82218 -0.75854,10.23394 -0.11087,2.91661 -0.30224,5.81437 -0.64882,8.71199 -0.51231,3.57847 -0.9848,7.16176 -1.31391,10.76208 -0.29898,2.91847 -0.65942,5.832 -1.09062,8.73391 -0.35736,2.3588 -0.6758,4.72293 -1.03173,7.08178 -0.32118,2.39218 -0.67146,4.77821 -1.07543,7.15774 -0.26005,2.26476 -0.62279,4.51588 -0.89812,6.77873 -0.05,0.56932 -0.0801,1.1375 -0.28954,1.67178 -0.0604,0.15399 -0.1431,0.5935 -0.21772,0.44589 -0.0209,-0.0413 0.025,-0.089 0.0374,-0.13357 0.13199,-0.19133 0.0714,-0.11055 0.17721,-0.24561 -3.26783,1.34955 -1.35927,5.97096 1.90856,4.62141 v 0 c 1.1356,-0.54577 0.59136,-0.20982 1.62337,-1.02285 1.20461,-1.51403 1.57986,-2.80827 1.72428,-4.73482 0.26422,-2.18457 0.61979,-4.35699 0.86399,-6.54409 0.40927,-2.41077 0.76539,-4.82801 1.09045,-7.2516 0.35377,-2.36305 0.6768,-4.7303 1.03341,-7.09307 0.44125,-2.99474 0.81919,-5.99992 1.1238,-9.01171 0.32305,-3.55389 0.79662,-7.0899 1.29921,-10.62242 0.35536,-2.97328 0.55941,-5.94721 0.67077,-8.93978 0.24758,-3.37734 0.49037,-6.75446 0.74989,-10.13072 0.3784,-4.01628 0.76454,-8.032442 1.08901,-12.053266 0.28577,-3.57714 0.44901,-7.162619 0.58769,-10.748074 0.1936,-3.175749 0.50485,-6.342092 0.68975,-9.518439 0.25038,-3.309051 0.40312,-6.624101 0.70998,-9.928876 0.2594,-3.038903 0.42066,-6.084972 0.53779,-9.13236 0.21091,-2.770685 0.55264,-5.526864 1.07428,-8.257602 0.5502,-2.598358 1.19928,-5.172974 1.83616,-7.751137 0.55461,-2.001361 1.12996,-4.027932 1.25283,-6.109777 -0.0276,-0.375421 -0.006,-0.757817 -0.0829,-1.126262 -0.54674,-2.611053 -2.24152,-3.65854 -4.72484,-4.113223 -2.85047,-0.233508 -5.71732,-0.235552 -8.56415,-0.536619 -2.16918,-0.179096 -4.34131,-0.333875 -6.51296,-0.477706 -2.68663,3.41e-4 -5.37326,0.001 -8.05989,0.0027 -2.96241,0.002 -5.92482,0.0067 -8.88723,0.0034 -3.29668,-0.01004 -6.59402,-0.03263 -9.88872,-0.157696 -3.80145,-0.173412 -7.58829,-0.503858 -11.37691,-0.855248 -3.73579,-0.366877 -7.45941,-0.847262 -11.2063,-1.097605 -3.58793,-0.337533 -7.173,-0.677518 -10.73925,-1.209882 -3.79387,-0.565929 -7.58766,-1.131447 -11.37662,-1.729219 -3.53846,-0.589603 -7.07447,-1.218725 -10.64958,-1.54563 -2.41526,-0.131198 -4.84441,-0.392821 -6.82319,1.33203 -0.60203,0.524773 -0.78612,1.344349 -1.01935,2.052863 -0.34212,1.803815 -0.49527,3.636017 -0.62472,5.465991 -0.2244,2.075119 -0.57126,4.133231 -0.84775,6.201547 -0.4559,2.917631 -0.76963,5.850123 -1.06081,8.788222 -0.40692,3.19068 -0.82019,6.385988 -0.87666,9.607031 -0.0189,3.496412 -0.0575,6.993201 -0.19501,10.487304 -0.18531,4.282849 -0.46001,8.561176 -0.67791,12.842265 -0.32599,4.320759 -0.84964,8.616937 -1.32696,12.922593 -0.44485,3.915497 -0.7572,7.837035 -0.94425,11.773995 -0.16697,3.90687 -0.47889,7.80246 -0.78403,11.70045 -0.35188,4.00294 -0.83222,7.99281 -1.18486,11.99573 -0.4273,4.27013 -0.81707,8.54719 -1.39297,12.80006 -0.65218,4.01166 -1.23211,8.0324 -1.61968,12.07941 -0.13179,1.25837 -0.27909,2.51508 -0.41075,3.77347 -0.17066,1.63118 -0.46483,3.54562 0.0392,5.15616 0.18876,0.6032 0.54808,1.1391 0.82213,1.70866 0.37518,0.30894 0.70821,0.67777 1.12556,0.92684 1.27292,0.75968 2.8501,0.50849 4.23926,0.81525 2.69661,0.43444 5.39623,0.85908 8.07525,1.39207 3.85794,0.72828 7.75883,1.15036 11.67012,1.47727 4.36508,0.35379 8.74113,0.4097 13.1132,0.63698 5.28728,0.36095 10.57108,0.78423 15.85216,1.22483 6.28079,0.58188 12.57054,0.99709 18.8617,1.444 5.26927,0.39609 10.51665,0.97245 15.74597,1.73466 3.67387,0.4617 7.36469,0.84694 11.07382,0.74942 3.53553,0 3.53553,-5 0,-5 z" /><path
           style="fill:#000000;fill-opacity:1;stroke-width:2;stroke-linecap:round;stroke-linejoin:round;stroke-miterlimit:2;stroke-dasharray:none"
           id="path321"
           d="m 183.73186,181.02343 c 0.90986,0.20354 1.13949,0.27449 2.1333,0.39942 3.57743,0.44971 7.16049,0.84987 10.73601,1.32437 6.23604,0.76597 12.47912,1.47463 18.72099,2.19232 5.26018,0.45411 10.50256,1.05284 15.74729,1.65353 5.26263,0.53468 10.55035,0.74068 15.82361,1.14292 5.52032,0.33838 10.98585,1.2026 16.44237,2.06634 4.05384,0.64887 8.14316,1.0384 12.23361,1.36675 2.68193,0.0624 5.29613,0.58175 7.91613,1.09761 1.00253,0.20435 2.01338,0.35928 3.02586,0.50355 3.50056,0.49601 4.20203,-4.45454 0.70146,-4.95055 v 0 c -0.92419,-0.1301 -1.84653,-0.27224 -2.76142,-0.45882 -2.80639,-0.55254 -5.61192,-1.09539 -8.48243,-1.1758 -3.96262,-0.31732 -7.92431,-0.69313 -11.85147,-1.32125 -5.58983,-0.88484 -11.18941,-1.76488 -16.84433,-2.11338 -5.21028,-0.39637 -10.43436,-0.60411 -15.63464,-1.12492 -5.24396,-0.60018 -10.48546,-1.20031 -15.74491,-1.65326 -6.21297,-0.71435 -12.42713,-1.41985 -18.63439,-2.18159 -4.04883,-0.53724 -8.11715,-0.97862 -12.15344,-1.57486 -3.3995,-0.97129 -4.7731,3.83633 -1.3736,4.80762 z" /><path
           style="fill:#000000;fill-opacity:1;stroke-width:2;stroke-linecap:round;stroke-linejoin:round;stroke-miterlimit:2;stroke-dasharray:none"
           id="path322"
           d="m 290.52343,189.26814 c 0.77291,-2.98178 1.6619,-5.93106 2.44932,-8.90869 0.90696,-3.30114 1.64821,-6.64304 2.45131,-9.96984 0.50651,-2.26283 0.93751,-4.5411 1.41326,-6.81055 0.34117,-1.76635 0.60379,-3.54748 0.95094,-5.31272 0.40918,-1.92673 0.63828,-3.88489 0.91764,-5.83304 0.37768,-2.6338 0.66436,-5.28074 1.06154,-7.91166 0.34633,-2.44075 0.74971,-4.87188 1.0244,-7.32239 0.2714,-1.54135 0.50027,-3.08508 0.61745,-4.64607 0.0511,-1.61732 0.29626,-3.21925 0.56587,-4.81195 0.32901,-1.79351 0.42945,-3.61508 0.49183,-5.43386 -0.0351,-1.55618 0.10421,-3.09466 0.25352,-4.64066 0.21229,-1.86425 0.18505,-3.74266 0.3178,-5.61137 0.20174,-2.25114 0.33312,-4.50703 0.4073,-6.76571 0.0511,-1.75442 0.056,-3.5097 0.0582,-5.26473 1.4e-4,-1.58173 -0.002,-3.163462 -0.003,-4.745194 0.0774,-1.280256 0.3468,-2.529383 0.58939,-3.784628 0.30354,-1.381275 0.50894,-2.7806 0.77462,-4.168702 0.2871,-1.305195 0.42444,-2.632856 0.67918,-3.943259 0.33942,-1.62264 0.58161,-3.258545 0.82463,-4.897775 0.34683,-2.195069 0.48569,-4.4138 0.57662,-6.631808 -0.0574,-1.366444 0.17249,-2.70232 0.34246,-4.050229 0.20991,-1.220272 0.0765,-2.475188 0.25005,-3.695049 0.24435,-1.417596 0.55033,-2.822187 0.7476,-4.24934 0.24318,-1.163207 0.0627,-2.381316 0.25809,-3.543709 0.14087,-0.743125 0.22958,-1.494163 0.31004,-2.245709 0.37226,-3.515882 -4.59995,-4.042326 -4.9722,-0.526444 v 0 c -0.0756,0.723566 -0.17023,1.444461 -0.30029,2.160552 -0.1237,1.156463 -0.0977,2.321556 -0.24937,3.476629 -0.19834,1.463508 -0.5408,2.898048 -0.76114,4.356912 -0.12441,1.212922 -0.10019,2.433461 -0.24411,3.64555 -0.18399,1.485416 -0.42597,2.963101 -0.37698,4.467139 -0.0827,2.041589 -0.20638,4.084239 -0.52706,6.104584 -0.23064,1.565449 -0.45732,3.128003 -0.78687,4.676651 -0.25586,1.321844 -0.40188,2.658947 -0.68542,3.976019 -0.25389,1.380944 -0.46771,2.767618 -0.76913,4.139863 -0.30254,1.567627 -0.62472,3.133911 -0.68011,4.735811 9.6e-4,1.578658 0.003,3.157317 0.003,4.735976 -0.002,1.70263 -0.006,3.40551 -0.0555,5.10757 -0.0715,2.19932 -0.20222,4.39567 -0.39831,6.58763 -0.12093,1.82322 -0.11204,3.65335 -0.30632,5.47225 -0.15913,1.64866 -0.30358,3.29306 -0.27379,4.9518 -0.0534,1.59593 -0.13368,3.1952 -0.42458,4.76881 -0.29575,1.74742 -0.55827,3.50588 -0.62252,5.27958 -0.10746,1.49892 -0.35812,2.97546 -0.6,4.45767 -0.26589,2.38825 -0.66531,4.75656 -0.99994,7.13548 -0.39452,2.64254 -0.69148,5.29903 -1.06634,7.94441 -0.26725,1.86569 -0.48406,3.74138 -0.87599,5.58647 -0.33683,1.74318 -0.60928,3.49829 -0.93687,5.24309 -0.46518,2.22039 -0.8886,4.44894 -1.38014,6.6636 -0.79363,3.29229 -1.52795,6.599 -2.425,9.86573 -0.77675,2.94574 -1.66058,5.86175 -2.42267,8.81171 -0.97129,3.3995 3.83633,4.7731 4.80762,1.3736 z" /><path
           style="fill:#000000;fill-opacity:1;stroke-width:2;stroke-linecap:round;stroke-linejoin:round;stroke-miterlimit:2;stroke-dasharray:none"
           id="path323"
           d="m 185.42512,177.36921 c -0.18349,-2.32145 -0.39208,-4.64006 -0.60136,-6.95964 -0.20145,-2.34913 -0.27067,-4.70655 -0.31078,-7.06308 -0.003,-0.29813 -0.018,-0.59635 -0.01,-0.89439 0.006,-0.20768 0.0165,-0.41626 0.0505,-0.6212 0.014,-0.0841 0.12023,-0.31905 0.0923,-0.23851 -0.34129,0.98418 -0.99228,0.99379 -1.85983,0.74464 0.63555,1.79095 0.84597,3.67308 1.02645,5.55366 0.1612,1.85498 0.18725,3.71771 0.19829,5.5785 0.0514,1.00011 -0.0306,2.28919 0.58,3.16387 0.17344,0.24844 0.40593,0.44992 0.6089,0.67488 0.71489,-0.1196 1.50154,-0.0245 2.14469,-0.35878 0.6614,-0.34375 0.62383,-3.84082 0.638,-4.49372 0.031,-2.04402 0.0248,-4.08837 0.023,-6.13256 -0.001,-1.15811 -6.9e-4,-0.59498 -0.002,-1.68938 -0.003,-2.12132 -3.00276,-2.1174 -2.99999,0.004 v 0 c 0.001,1.09379 7.1e-4,0.53107 0.002,1.68817 0.002,2.02175 0.008,4.04367 -0.0223,6.06525 -0.0176,0.82332 -0.0298,1.64583 -0.093,2.46721 -0.009,0.12175 -0.13732,0.29957 -0.0341,0.36472 0.0937,0.0591 0.1506,-0.16244 0.2259,-0.24367 0.63451,-0.0273 1.26902,-0.0545 1.90352,-0.0818 0.10718,0.154 0.21009,0.31107 0.32154,0.46201 0.0863,0.11684 -0.14054,-0.25797 -0.17499,-0.39908 -0.11999,-0.49152 -0.13703,-1.00687 -0.12122,-1.50898 -0.0118,-1.95114 -0.0411,-3.90426 -0.21216,-5.84915 -0.23023,-2.36692 -0.48832,-4.77463 -1.52851,-6.94723 -0.40212,-0.356 -0.68598,-0.9352 -1.20637,-1.06801 -2.4906,-0.63564 -2.62528,2.27861 -2.55021,3.81083 0.0416,2.42944 0.11399,4.85977 0.32248,7.28152 0.21405,2.37126 0.42157,4.742 0.61937,7.11426 0.3,2.1 3.26985,1.67574 2.96985,-0.42426 z" /></g></g></g></svg>
