<?xml version="1.0" encoding="UTF-8" standalone="no"?>
<!-- Created with Inkscape (http://www.inkscape.org/) -->

<svg
   width="63.687149"
   height="85.995438"
   viewBox="0 0 63.687149 85.995438"
   version="1.1"
   id="svg1"
   xml:space="preserve"
   xmlns="http://www.w3.org/2000/svg"
   xmlns:svg="http://www.w3.org/2000/svg"><defs
     id="defs1" /><g
     id="g10"
     style="display:inline"
     transform="translate(-151.34265,-57.311962)"><g
       id="g172"
       style="display:inline"
       transform="matrix(0.5,0,0,0.5,91.593113,50.15484)"><g
         id="g163"
         transform="translate(-62,-6.5)"><g
           id="g326"><path
             style="fill:#d8d2c3;fill-opacity:1;stroke-width:0.353553;stroke-linecap:round;stroke-linejoin:round;stroke-miterlimit:2;stroke-dasharray:none"
             d="m 187.33427,161.29009 c -1.49206,0.29306 -2.04863,2.07211 -1.33826,3.30835 0.17659,4.03009 0.11152,8.01258 -0.1785,12.06052 0.18449,1.58362 1.88035,1.95574 3.20682,2.02014 15.14524,1.9656 30.29018,3.61026 45.47107,5.10635 8.48407,0.64826 17.00551,0.99224 25.41523,2.37569 6.33541,1.06167 12.73255,1.64727 19.12379,2.24311 1.99002,0.14043 3.92976,0.87648 5.92133,0.82381 1.73821,-0.34011 1.90685,-2.34504 1.79953,-3.78033 -0.0909,-4.30005 -0.0737,-8.62134 -0.40945,-12.90362 -0.49692,-1.93569 -2.83892,-2.53037 -4.62247,-2.45023 -7.69576,-0.1596 -15.23094,-1.76454 -22.91959,-2.27814 -11.66154,-0.85879 -23.31223,-1.86175 -34.97474,-2.70593 -9.3422,-0.58541 -18.74984,-0.64071 -27.94236,-2.49827 -2.82097,-0.40838 -5.62044,-1.12659 -8.4593,-1.32418 z"
             id="path141" /><path
             style="fill:#7d776c;fill-opacity:1;stroke-width:0.353553;stroke-linecap:round;stroke-linejoin:round;stroke-miterlimit:2;stroke-dasharray:none"
             d="m 301.91699,39.726764 c -1.55279,0.981957 -1.37784,3.076739 -1.92917,4.64834 -1.95937,7.895877 -1.83102,16.077693 -2.5572,24.130808 -0.60318,8.252958 -1.16095,16.509022 -1.59711,24.772136 -0.82776,9.863422 -1.68192,19.724812 -2.32757,29.602472 -0.53233,5.66356 -1.36614,11.29533 -1.97264,16.95189 -1.19577,9.22525 -2.53233,18.43336 -3.89708,27.63429 -0.1748,1.22898 -0.5695,2.45323 -1.54006,3.29268 -0.9035,1.52364 -0.33165,3.39456 -0.46249,5.08364 0.18343,1.73173 -0.23429,3.73168 0.84747,5.21878 1.14655,1.13345 3.21119,0.39135 3.44127,-1.17736 2.86025,-10.91186 5.05532,-21.99665 6.45394,-33.19195 0.93625,-6.39728 1.75173,-12.81055 2.5199,-19.2289 0.61807,-4.23548 0.47572,-8.47068 0.91695,-12.71706 0.62271,-7.1437 0.45371,-14.32239 0.83707,-21.4757 1.12395,-6.990102 2.84473,-13.915158 3.19849,-21.011629 0.27186,-4.37876 0.62384,-8.63625 1.35413,-12.958907 0.17369,-1.744697 0.47167,-3.578136 -0.13362,-5.256689 0.18766,-4.25309 -0.12224,-8.525925 -0.36698,-12.763304 -0.16139,-1.319831 -1.58512,-2.032803 -2.7853,-1.553537 z"
             id="path142" /></g><g
           id="g147"><g
             id="g143"><path
               style="fill:#41a63b;fill-opacity:1;stroke-width:1;stroke-linecap:round;stroke-linejoin:round;stroke-miterlimit:2;stroke-dasharray:none"
               d="m 200.69043,24.248047 c -3.98408,0.04173 -3.59056,5.068664 -4.05132,7.818235 -3.09309,20.096108 -2.31982,40.481092 -4.73686,60.583648 -1.47822,20.0803 -3.1977,40.09471 -5.98038,60.06491 -0.17204,2.43289 -1.41012,6.74005 2.24805,7.11231 17.13456,3.99623 34.78989,3.508 52.18555,5.26757 13.18708,0.86002 26.3387,2.50838 39.51953,3.55762 2.39442,0.10971 6.84661,0.6169 6.71756,-2.9773 2.87011,-19.91812 5.74327,-39.8895 6.86659,-59.9751 1.93828,-19.648835 2.18637,-39.412183 4.68708,-58.964136 0.69727,-4.389401 2.64715,-8.666437 2.73463,-13.091273 -1.76275,-2.908738 -5.96046,-1.772325 -8.81152,-2.323242 C 267.8449,30.542444 243.64593,30.61602 219.70191,26.72641 213.4367,25.896113 207.05982,24.532703 200.69043,24.248047 Z"
               id="path143" /></g><path
             style="fill:#349f83;fill-opacity:1;stroke:none;stroke-width:0.5;stroke-linecap:round;stroke-linejoin:round;stroke-miterlimit:2;stroke-dasharray:none;stroke-opacity:1"
             d="m 128.62744,125.74561 c -2.20331,-0.0401 -2.6328,2.44452 -2.72543,4.13997 -0.96591,7.13212 -2.04602,14.26823 -2.53287,21.45036 0.21129,2.34143 2.98892,2.17524 4.69815,2.58554 8.19811,1.57135 16.47803,2.7659 24.83284,3.00419 14.94977,0.77391 29.95776,2.20844 44.90261,3.29503 8.35047,0.67385 16.65509,2.35075 25.04003,2.27979 2.21652,-0.81538 1.74881,-3.69496 2.21433,-5.54622 0.90882,-7.12441 2.17994,-14.27804 2.92923,-21.45378 -0.21787,-2.27268 -2.81185,-2.07688 -4.49337,-2.19665 -12.87498,-0.5737 -25.3621,-4.20235 -38.27811,-5.28675 -18.82514,-1.63251 -37.80737,-1.18777 -56.58741,-2.27148 z"
             id="path237"
             transform="translate(62,6.5)" /><path
             style="fill:#597c6c;fill-opacity:1;stroke:none;stroke-width:1;stroke-linecap:round;stroke-linejoin:round;stroke-miterlimit:2;stroke-dasharray:none;stroke-opacity:1"
             d="m 131.83398,72.264648 c -1.67728,5.100285 -1.443,10.786495 -2.16624,16.144822 -0.77946,12.50267 -2.13249,24.93369 -2.95778,37.42452 1.22806,3.21715 5.55159,1.52896 8.16699,2.16113 17.7224,0.79152 35.6205,0.454 53.17774,2.20215 10.68826,1.23514 21.22959,3.94932 31.96679,4.93652 2.76533,-0.31476 7.01631,1.46074 8.35352,-1.70899 1.56006,-13.83113 2.71741,-27.72083 3.71706,-41.589871 -0.008,-3.255955 1.15076,-6.628757 0.29173,-9.79782 -3.06555,-1.584501 -6.90482,-0.446077 -10.30414,-1.098045 -16.59622,-1.396514 -33.05,-2.320317 -49.41834,-5.372606 -13.09156,-1.812607 -26.23603,-3.89107 -39.48651,-3.816458 -0.44694,0.171549 -0.89388,0.343099 -1.34082,0.514648 z"
             id="path210"
             transform="translate(62,6.5)" /><g
             id="g211"><path
               id="path222"
               style="fill:#ffffff;fill-opacity:1;stroke:none;stroke-width:2;stroke-linecap:round;stroke-linejoin:round;stroke-miterlimit:2;stroke-dasharray:none;stroke-opacity:1"
               d="m 210.6543,34.599609 c -0.75945,-0.02691 -1.23977,0.326598 -1.77149,0.859375 -1.34992,1.542192 -2.3807,3.34279 -3.35156,5.138672 -1.52804,3.038636 0.0965,-0.227987 -1.45898,3.023438 -0.23833,0.498225 -0.50763,0.982725 -0.73438,1.486328 -0.58313,1.295073 -1.0748,2.639588 -1.37695,4.029297 -0.82327,1.811209 1.73726,2.975271 2.56054,1.164062 0.97429,-1.681071 1.71806,-3.479899 2.57813,-5.21875 1.57239,-3.178998 0.0555,0.0852 1.47461,-3.029297 0.63401,-1.455987 1.35937,-2.873442 2.14844,-4.251953 0.0852,0.09188 0.1527,0.165317 0.16601,0.179688 0.56468,0.757942 0.77768,1.644922 0.98047,2.548828 0.40398,1.800694 0.22088,0.97902 0.62109,2.798828 0.53824,2.009741 0.55273,4.096218 0.84375,6.142578 0.1693,0.808175 0.24138,1.635531 0.44336,2.435547 0.40874,1.826222 2.99077,1.248097 2.58204,-0.578125 -0.0233,-0.722629 -0.0502,-1.445482 -0.11524,-2.166016 -0.13918,-2.195879 -0.0781,-4.414617 -0.51562,-6.582031 -0.12616,-0.522839 -0.22913,-1.051792 -0.37891,-1.568359 -0.51368,-1.771508 -1.24312,-3.522517 -2.41797,-4.958985 -0.51199,-0.535536 -1.15289,-1.288681 -1.93359,-1.417968 -0.12087,-0.02002 -0.23526,-0.03131 -0.34375,-0.03516 z m 14.70312,0.529297 c -0.50012,0.01946 -0.9934,0.320044 -1.2168,0.990235 -1.00307,2.111727 -1.39593,4.43185 -1.84765,6.707031 -0.54983,2.676146 -0.86787,5.394863 -1.14063,8.111328 -0.10756,1.055811 -0.53562,2.451581 0.78907,3.126953 0.84701,0.431836 2.10897,-0.328702 2.8164,-0.660156 2.52156,-1.527824 4.75041,-3.498467 6.66016,-5.740235 0.37206,-0.436745 0.71563,-0.895882 1.07422,-1.34375 0.25302,-0.327208 0.51008,-0.650253 0.76172,-0.978515 -0.33544,2.26144 -0.27545,1.221382 -0.57032,3.884765 -0.0807,0.729268 -0.25702,2.961918 -0.32226,3.773438 -0.10139,1.775386 -0.0764,0.95083 -0.0918,2.472656 -0.24102,2.144348 2.79219,2.484193 3.0332,0.339844 0.32007,-1.454991 0.15593,-0.659712 0.47852,-2.386719 0.33559,-1.992883 0.64787,-3.987732 0.79297,-6.005859 0.0507,-0.705063 0.0551,-1.413022 0.0879,-2.119141 0.12874,-2.766014 0.0549,-0.457542 0.125,-3.064453 -0.0174,-0.902147 0.007,-1.015364 -0.0859,-1.804687 -0.0281,-0.237384 0.0851,-0.559682 -0.10156,-0.708985 -1.4108,-1.128334 -1.63451,-1.186538 -2.57227,-0.439453 -1.60203,1.434365 -2.74863,3.28021 -4.14453,4.900391 -1.02428,1.220345 -2.07594,2.423988 -3.24023,3.515625 -0.68304,0.640423 -1.40207,1.241119 -2.11524,1.849609 0.36941,-2.034523 0.65986,-4.083438 0.9668,-6.128906 0.28204,-1.640963 0.56872,-3.283778 0.89844,-4.916016 0.0648,-0.320727 0.14967,-0.636845 0.20703,-0.958984 0.0344,-0.192974 0.0457,-0.3893 0.0684,-0.583984 0.37232,-1.116984 -0.477,-1.864457 -1.31055,-1.832032 z m 19.61133,2.958985 c -1.29939,0.02534 -2.59584,0.112901 -3.88086,0.320312 -1.89625,0 -1.89625,2.683594 0,2.683594 1.43785,0.232079 2.8892,0.313845 4.34375,0.326172 -0.27036,0.849504 -0.4768,1.720815 -0.71875,2.578125 -0.28668,1.015821 -0.357,1.181306 -0.69531,2.177734 -0.719,2.128519 -1.42255,4.276145 -1.69141,6.513672 -0.0374,0.681071 -0.0902,1.368984 0.0586,2.039062 0.14661,1.840599 2.75012,1.633568 2.60351,-0.207031 0.13163,-0.421041 0.0361,-0.901879 0.22852,-1.314453 0.50928,-2.037879 1.10594,-4.048671 1.79101,-6.035156 0.61926,-1.890832 1.12891,-3.828137 1.40821,-5.800781 0.15026,-0.0051 0.30105,-0.01023 0.45117,-0.01563 1.25363,-0.05671 2.50668,-0.134486 3.75781,-0.232422 1.93848,0 1.93848,-2.742188 0,-2.742188 -1.25113,-0.09794 -2.50418,-0.17571 -3.75781,-0.232422 -1.29625,-0.04656 -2.59905,-0.08393 -3.89844,-0.05859 z m 17.4082,0.800781 c -0.31501,0.01344 -0.62619,0.07165 -0.93945,0.107422 -0.2025,0.126839 -0.42615,0.225178 -0.60742,0.380859 -0.54307,0.466413 -0.70589,1.267284 -1.03125,1.867188 -0.8201,1.969168 -1.49179,4.00171 -2.17969,6.019531 -0.49094,1.715118 -0.45289,1.490862 -0.84375,3.21289 -0.10545,0.46462 -0.18213,0.934561 -0.29883,1.396485 -0.20371,0.806301 -0.52947,1.586372 -0.64453,2.416015 -0.0234,0.0703 -0.0406,0.139762 -0.0547,0.207032 -0.31009,0.730098 0.0112,1.722301 1.1211,1.880859 0.22792,0.04977 0.45353,0.109729 0.68359,0.148438 0.70093,0.117941 1.07982,0.11869 1.80078,0.1875 1.06716,0.101852 2.12602,0.202301 3.19727,0.255859 1.06168,0.05134 2.12358,-0.0058 3.18554,0.01172 1.99766,0.163497 2.22813,-2.660721 0.23047,-2.824219 -1.07215,-0.139542 -2.15293,-0.163646 -3.23047,-0.253906 -1.24519,-0.08937 -2.49344,-0.174659 -3.74218,-0.197266 0.33693,-0.741111 0.65724,-1.489346 0.92187,-2.259766 0.16087,-0.46832 0.39516,-1.286561 0.60352,-2.033203 1.57626,0.460442 3.23777,0.570899 4.87305,0.548829 2.03005,0.06446 2.12181,-2.80663 0.0918,-2.871094 -1.41802,-0.116152 -2.83204,-0.258952 -4.25,-0.369141 0.38237,-1.500867 0.76483,-3.000224 1.23438,-4.476562 0.0718,-0.179063 0.11749,-0.366773 0.1582,-0.554688 1.07254,0.286527 1.9931,0.428196 3.12109,0.527344 0.97311,0.06067 1.94675,0.01753 2.91797,-0.04883 0.53,-0.03621 0.26905,-0.04447 0.57813,-0.02539 0.13407,0.09366 0.0476,0.03472 0.26562,0.166016 1.73608,0.810935 2.88256,-1.644143 1.14649,-2.455078 -0.69815,-0.290747 -0.3347,-0.164658 -1.08985,-0.373047 -1.18794,-0.163642 -2.39487,-0.142737 -3.58789,-0.265625 -0.8086,-0.0518 -1.6269,-0.07828 -2.43164,-0.177735 -0.3029,-0.03743 -0.87086,-0.162452 -1.19922,-0.148437 z m 17.92578,2.05664 c -0.11514,-0.0085 -0.19896,0.0027 -0.73046,0.002 -1.25193,-0.0018 -1.96464,0.104431 -2.53711,1.382812 -0.2167,0.619835 -0.36276,1.253536 -0.5625,1.878906 -0.37794,1.183301 -0.85983,2.334815 -1.11914,3.554688 -0.73257,2.813106 -1.48693,5.640244 -1.57618,8.564453 -0.48381,1.935233 2.25253,2.62078 2.73633,0.685547 0.1058,-0.352213 0.22252,-0.70107 0.31641,-1.056641 0.24651,-0.933552 0.43887,-1.881387 0.66406,-2.820312 0.10139,-0.422767 0.20314,-0.844947 0.30469,-1.267578 0.23759,0.05735 0.47232,0.126523 0.71484,0.154297 0.28745,0.03292 1.2178,-0.02846 1.49219,-0.04297 0.74874,-0.08753 0.964,-0.08805 1.7207,-0.28125 1.41729,-0.361865 2.74322,-1.005609 4.01953,-1.707031 0.82841,-0.619375 1.22024,-0.762377 1.69922,-1.726563 0.65116,-1.310784 0.20281,-2.694078 -0.51367,-3.847656 -0.22827,-0.278697 -0.43091,-0.579174 -0.68359,-0.835938 -1.02414,-1.040681 -2.53974,-1.834521 -3.92774,-2.263672 -0.3608,-0.111552 -0.73582,-0.171642 -1.10351,-0.257812 -0.65235,-0.0784 -0.79892,-0.106712 -0.91407,-0.115235 z m -0.67578,2.78711 c 0.76404,0.145397 -0.1163,-0.06913 1.06836,0.240234 1.0648,0.354706 2.17229,0.747823 3.0918,1.414063 0.34502,0.249984 0.59481,0.589836 0.86328,0.912109 0.58237,0.967823 0.36009,0.879595 -0.49609,1.214844 -1.5008,0.620192 -2.98677,1.300336 -4.58399,1.630859 -0.37658,0.03362 -0.75482,0.07863 -1.12695,0.01367 0.0468,-0.200979 0.0925,-0.402367 0.13867,-0.603515 0.34387,-1.62111 0.81904,-3.188199 1.04492,-4.822266 z m -70.91406,12.998047 c -0.73901,0.01107 -1.30068,0.45157 -1.86133,1.125 -1.39636,2.004615 -2.4084,4.231726 -3.38281,6.464843 -1.28699,3.071003 -2.66528,6.117675 -3.62695,9.310547 -0.61408,1.842236 1.99139,2.711377 2.60547,0.869141 0.86422,-1.266856 1.59538,-2.605664 2.24609,-3.984375 0.17456,0.03793 0.36903,0.04438 0.58398,0.01367 1.51823,0.148542 3.04478,0.259807 4.56836,0.363281 0.78705,0.0279 0.67615,0.03121 1.01172,0.02734 0.009,0.08353 0.0171,0.166402 0.0254,0.25 0.15334,1.100561 0.23566,2.228333 0.52539,3.304687 0.12067,1.920293 2.83553,1.748418 2.71485,-0.171875 0.14824,-1.112492 0.061,-2.24543 0.043,-3.363281 -0.15526,-3.550314 -0.53613,-7.146574 -1.89649,-10.462891 C 211.8268,59.592194 210.84372,57.446501 209.8457,57 c -0.42479,-0.190045 -0.79689,-0.274564 -1.13281,-0.269531 z m 13.08984,2.630859 c -0.42203,-5.18e-4 -0.84383,0.01707 -1.26367,0.06055 -1.87789,0 -1.87789,2.65625 0,2.65625 1.53507,0.210669 3.07303,0.400864 4.60742,0.617187 0.008,9.7e-4 0.0158,9.91e-4 0.0234,0.002 -0.0832,0.316513 -0.14991,0.63884 -0.23437,0.955078 -0.23477,0.879037 -0.46848,1.757279 -0.70899,2.634765 -0.58915,1.845335 -0.75997,3.776493 -0.76562,5.703125 0.002,0.614374 -0.0593,1.233897 -0.16211,1.839844 -0.024,0.14126 -0.0662,0.279709 -0.0957,0.419922 -0.0154,0.07319 -0.0998,0.177066 -0.0391,0.220703 10e-4,7.57e-4 0.005,0.0033 0.006,0.0039 10e-4,4.89e-4 0.005,0.0016 0.006,0.002 -0.81926,1.418936 1.15143,2.785991 2.19531,1.367188 0.10582,-0.142407 0.22491,-0.275732 0.31641,-0.427734 0.5698,-0.946598 0.60638,-2.328374 0.7207,-3.392578 0.011,-0.515974 -0.0144,-1.032634 0.0293,-1.546876 0.0983,-1.157977 0.46299,-2.293359 0.71094,-3.421874 0.33858,-1.346264 0.68357,-2.701751 0.84765,-4.082032 0.40307,0.03598 0.80638,0.07387 1.20899,0.119141 0.83064,0.159796 1.66863,0.252534 2.51367,0.271484 1.91374,0.12395 2.08952,-2.583081 0.17578,-2.707031 -0.80037,-0.09447 -1.59753,-0.209826 -2.39258,-0.341797 -1.31213,-0.130026 -2.60765,-0.420785 -3.91601,-0.585937 -1.24593,-0.19212 -2.51711,-0.365634 -3.78321,-0.367188 z m -13.01367,1.035156 c 0.0167,0.0399 0.0323,0.08046 0.0469,0.121094 0.14651,0.408295 0.27078,0.824237 0.40625,1.236328 0.14356,0.488867 0.30581,0.972574 0.42969,1.466797 0.2704,1.078929 0.43657,2.167625 0.60546,3.265625 0.0763,0.49581 0.14938,0.992421 0.21875,1.488281 -0.0995,-0.0094 -0.2327,-0.02116 -0.41797,-0.03906 -1.39338,-0.124789 -2.7951,-0.27387 -4.1914,-0.175781 0.28625,-0.71212 0.56119,-1.429286 0.83203,-2.146485 0.6445,-1.594402 1.08756,-3.281929 1.86328,-4.822265 0.0667,-0.132495 0.1369,-0.26381 0.20703,-0.394532 z M 238.5,60.630859 c -0.66394,0 -1.32812,0.469259 -1.32812,1.408203 -0.13227,1.338311 -0.31219,2.738024 -0.0879,4.078126 0.0523,0.312361 0.14882,0.61585 0.22266,0.923828 0.13167,0.292306 0.22476,0.605005 0.39453,0.876953 0.78742,1.261334 2.20171,1.881877 3.65625,1.929687 0.37724,0.0124 0.75416,-0.04851 1.13086,-0.07227 0.34327,-0.07469 0.69506,-0.114513 1.0293,-0.222657 0.56526,-0.18289 1.11616,-0.429869 1.63281,-0.734375 -0.18062,1.015004 -0.38678,2.023506 -0.6875,3.013672 -0.10436,0.243941 -0.16178,0.514068 -0.3125,0.732422 -0.33538,0.485855 -1.15114,0.969633 -1.60351,1.228516 -1.15302,0.659857 -2.33796,1.071028 -3.60743,1.433593 -0.1291,0.0119 -1.8591,0.420069 -1.9414,0.189454 -4.8e-4,-0.0013 2.5e-4,-0.0047 0,-0.0059 v -0.002 -0.002 -0.002 H 237 v -0.002 h 0.002 0.002 0.002 c 0.0242,0.002 0.0906,0.04295 0.12305,0.05273 -1.43484,-1.309395 -3.28641,0.719903 -1.85157,2.029297 0.26951,0.21952 0.49948,0.499226 0.8086,0.658203 1.15687,0.594988 2.42349,0.371225 3.64844,0.234375 0.51975,-0.118184 1.04949,-0.195564 1.55859,-0.353515 2.81741,-0.874137 4.9064,-2.464304 6.06445,-5.210938 0.13324,-0.363897 0.28171,-0.722897 0.40039,-1.091797 0.69604,-2.163454 0.98563,-4.450013 1.23047,-6.699219 0.005,-0.310714 0.11503,-2.340641 -0.23828,-2.521484 -2.33444,-1.19489 -2.72064,0.371268 -3.34375,1.787109 -0.11541,0.236209 -0.20331,0.487986 -0.3457,0.708985 -0.39278,0.609609 -1.06111,0.983494 -1.66211,1.34375 -0.18573,0.111335 -0.36079,0.248427 -0.56055,0.332031 -0.20191,0.08451 -0.42126,0.111785 -0.63281,0.167969 -0.7094,0.119271 -0.37717,0.101447 -1.12305,0.06055 -0.46756,-0.02563 -0.77772,-0.02912 -0.97265,-0.511719 -0.30987,-1.418573 0.0394,-2.921612 -0.28126,-4.34961 0,-0.938945 -0.66418,-1.408203 -1.32812,-1.408203 z m 17.91992,1.986329 c -0.54979,0.02236 -1.35978,-3.4e-4 -1.85742,0.273437 -1.07356,0.590622 -1.27908,1.650504 -1.39258,2.746094 -0.188,1.969141 -0.32682,3.941844 -0.6289,5.898437 -0.28688,2.283618 -0.61082,4.571864 -0.60157,6.878906 -0.21357,1.92214 2.50518,2.224875 2.71875,0.302735 0.52646,-1.974882 0.7379,-4.020325 0.92969,-6.054688 0.13137,0.02237 0.27328,0.03038 0.42578,0.02148 1.79161,-0.05619 3.58472,-0.198118 5.35938,-0.451172 1.03982,-0.223879 2.19765,-0.432655 2.9414,-1.294922 0.72427,-0.839687 0.82274,-1.794248 0.73243,-2.839844 -0.0467,-0.324064 -0.0687,-0.653252 -0.14063,-0.972656 -0.4187,-1.85798 -1.42992,-3.19155 -3.23047,-3.867188 -0.30018,-0.09318 -0.59571,-0.202077 -0.90039,-0.279296 -1.41988,-0.359856 -2.90484,-0.301239 -4.35547,-0.361328 z m 21.14063,1.923828 c -0.18751,0.0024 -0.35875,0.136032 -0.53907,0.197265 -0.18582,0.09781 -0.38112,0.17768 -0.55664,0.292969 -2.04145,1.34094 -3.3199,3.836489 -4.35546,5.951172 -0.67749,1.720801 -0.98819,2.40095 -1.50977,4.126953 -0.50221,1.661953 -0.79777,3.377949 -1.31641,5.035156 -0.95027,1.710491 1.4677,3.054241 2.41797,1.34375 0.17061,-0.290227 0.36152,-0.569804 0.51172,-0.871093 0.46147,-0.925645 0.71171,-1.738689 1.07422,-2.716797 0.0913,-0.246202 0.1822,-0.493231 0.27148,-0.740235 0.19971,0.105851 0.44235,0.167969 0.73047,0.167969 0.70634,0.135143 1.43408,0.08218 2.14453,0.160156 0.72111,0.07914 1.43152,0.230965 2.14844,0.341797 0.50427,0.07355 0.91829,-0.03432 1.22852,-0.246094 0.0522,0.231253 0.1081,0.463568 0.16797,0.69336 0.19273,0.739893 0.32326,1.09111 0.5371,1.65039 -0.39002,0.615876 -0.292,1.537221 0.6504,1.955078 0.77891,0.220927 1.15614,0.484896 1.9746,-0.267578 0.56451,-0.518993 0.42647,-1.408141 0.35938,-2.058593 -0.38284,-3.02857 -0.73401,-6.080078 -1.51172,-9.03711 -0.51317,-1.588798 -0.99254,-3.283838 -1.98242,-4.664062 -0.24748,-0.34507 -0.49049,-0.734166 -0.86328,-0.9375 -0.46495,-0.253597 -1.01524,-0.330493 -1.54297,-0.375 -0.0127,-0.0011 -0.0266,-0.0021 -0.0391,-0.002 z m -21.42578,0.929687 c 0.0628,0.0034 0.1266,0.0063 0.1875,0.01563 1.29918,0.249119 2.663,0.05522 3.95312,0.357422 0.17626,0.04129 0.34228,0.117493 0.51367,0.175781 0.27772,0.118188 0.59222,0.19017 0.78321,0.449219 0.35278,0.47851 0.48556,1.485096 0.57226,2.056641 -0.17575,0.134876 0.19458,0.655694 -0.004,0.865234 -0.001,0.0012 -0.003,0.005 -0.004,0.0059 h -0.002 -0.002 l -0.002,0.002 h -0.002 -0.002 -0.002 v -0.002 h -0.002 l -0.002,-0.002 c -0.0207,-0.01987 -0.0319,-0.111107 -0.0625,-0.138672 -0.0307,-0.02767 -0.0739,-0.04338 -0.11523,-0.04297 -0.12714,0.0012 -0.25217,0.03874 -0.37891,0.04883 -0.21462,0.0171 -0.4295,0.02235 -0.64453,0.0332 -1.68886,0.09749 -3.35776,0.359857 -5.04101,0.509766 0.10328,-1.307047 0.15713,-2.617546 0.24609,-3.925782 0.003,-0.135875 0.007,-0.272324 0.01,-0.408203 z m 21.57421,2.507813 c 0.1665,0.614437 0.38528,1.215403 0.54493,1.832031 0.14173,0.54742 0.25917,1.101902 0.38867,1.652344 0.2772,1.088639 0.46122,2.194145 0.64453,3.300781 -0.0793,-0.02122 -0.1624,-0.038 -0.25,-0.05078 -0.43179,-0.05978 -0.86031,-0.14609 -1.29492,-0.179688 -1.07938,-0.08344 -2.16979,-8.95e-4 -3.24414,0.115235 0.0394,-0.09654 0.0786,-0.192977 0.11914,-0.289063 0.27476,-0.651428 0.59823,-1.28086 0.89648,-1.921875 0.6389,-1.387453 0.88267,-1.954882 1.54102,-3.257812 0.2178,-0.431038 0.41569,-0.830392 0.65429,-1.201173 z" /></g></g></g><g
         id="g167"
         transform="translate(-62,-6.5)"><path
           style="fill:#7d776c;fill-opacity:1;stroke-width:2;stroke-linecap:round;stroke-linejoin:round;stroke-miterlimit:2;stroke-dasharray:none"
           id="path163"
           d="m 287.87825,188.14031 c -0.007,-2.518 -0.12134,-5.03466 -0.18705,-7.55174 -0.0692,-2.87238 -0.10383,-5.7454 -0.13527,-8.61839 -0.0232,-2.12119 -3.02304,-2.08836 -2.99982,0.0328 v 0 c 0.0316,2.88814 0.0665,5.77632 0.13611,8.66386 0.0651,2.49098 0.17826,4.98157 0.18603,7.47343 0,2.12132 3,2.12132 3,0 z" /><path
           style="fill:#7d776c;fill-opacity:1;stroke-width:2;stroke-linecap:round;stroke-linejoin:round;stroke-miterlimit:2;stroke-dasharray:none"
           id="path164"
           d="m 186.68972,166.56654 c 2.42729,0.18411 4.83989,0.54998 7.24667,0.90879 3.01011,0.44747 6.0183,0.9145 9.01409,1.45031 3.02845,0.58026 6.0669,1.10746 9.12671,1.49175 2.5066,0.2716 5.02306,0.43889 7.52925,0.71256 3.06876,0.32478 6.1338,0.67881 9.20553,0.97556 3.13055,0.3197 6.27277,0.51242 9.41505,0.67225 3.14957,0.10441 6.29765,0.24716 9.44684,0.36116 3.20399,0.13657 6.40725,0.30475 9.60218,0.58408 3.27539,0.30498 6.55313,0.57429 9.83332,0.82073 2.09131,0.13629 4.17891,0.3204 6.26298,0.54016 1.7914,0.18346 3.54335,0.60454 5.2917,1.01884 1.17483,0.24224 2.3074,0.63436 3.45609,0.97068 0.9027,0.24935 1.83348,0.3672 2.76564,0.4308 0.10546,0.005 0.21093,0.01 0.31639,0.0149 1.05951,0.0493 1.1293,-1.44903 0.0698,-1.49838 v 0 c -0.095,-0.004 -0.19005,-0.009 -0.28508,-0.0131 -0.82388,-0.055 -1.647,-0.15646 -2.44556,-0.37386 -1.17372,-0.34312 -2.33113,-0.74309 -3.53141,-0.99061 -1.81046,-0.42901 -3.62528,-0.86156 -5.48033,-1.051 -2.09901,-0.22116 -4.20154,-0.40694 -6.30783,-0.5442 -3.27415,-0.24598 -6.54584,-0.51481 -9.81519,-0.81926 -3.22036,-0.28098 -6.44895,-0.4517 -9.67843,-0.58879 -3.14189,-0.1137 -6.28266,-0.2563 -9.42493,-0.3602 -3.11956,-0.15855 -6.23908,-0.34979 -9.34699,-0.66724 -3.0656,-0.29613 -6.1245,-0.6496 -9.18715,-0.97367 -2.49824,-0.27209 -5.00636,-0.44123 -7.50516,-0.70973 -3.03406,-0.38015 -6.04646,-0.90543 -9.04942,-1.48001 -3.01012,-0.53795 -6.03247,-1.00802 -9.05695,-1.45733 -2.47955,-0.36948 -4.96584,-0.75079 -7.4678,-0.92518 -1.06066,0 -1.06066,1.5 0,1.5 z" /><path
           style="fill:#7d776c;fill-opacity:1;stroke-width:2;stroke-linecap:round;stroke-linejoin:round;stroke-miterlimit:2;stroke-dasharray:none"
           id="path165"
           d="m 186.62629,170.45563 c 2.22848,0.28894 4.4581,0.56717 6.69489,0.79092 3.96258,0.3962 7.92496,0.79369 11.88833,1.18197 3.17173,0.25432 6.34042,0.53916 9.50615,0.85936 3.10563,0.31083 6.20558,0.67511 9.30982,0.99857 2.53448,0.27366 5.07814,0.41488 7.62281,0.5469 2.70931,0.11679 5.41488,0.31117 8.11777,0.52861 4.06603,0.36265 8.12562,0.77119 12.20025,1.02829 2.88169,0.17114 5.76581,0.28336 8.64976,0.40459 2.37878,0.13547 4.75401,0.33525 7.12628,0.55627 1.92314,0.18703 3.83605,0.45672 5.74909,0.72468 1.86901,0.22587 3.73706,0.45109 5.59931,0.72717 1.10496,0.19503 2.21817,0.349 3.31108,0.60584 0.72516,0.21348 1.46021,0.39678 2.18077,0.62514 1.01212,0.31719 1.4607,-1.11416 0.44857,-1.43135 v 0 c -0.75735,-0.23525 -1.52545,-0.43641 -2.288,-0.65444 -1.13368,-0.2636 -2.28619,-0.43031 -3.43245,-0.62898 -1.86622,-0.27666 -3.73815,-0.50314 -5.6112,-0.72888 -1.93597,-0.27117 -3.87187,-0.54366 -5.81808,-0.73271 -2.39761,-0.2232 -4.79817,-0.42534 -7.2024,-0.56142 -2.87347,-0.12069 -5.74709,-0.23256 -8.61831,-0.40294 -4.06603,-0.25631 -8.11693,-0.66521 -12.17442,-1.02644 -2.71706,-0.21846 -5.4368,-0.41394 -8.16031,-0.53141 -2.51871,-0.13067 -5.03646,-0.2698 -7.54509,-0.54085 -3.10574,-0.32349 -6.20717,-0.68819 -9.31431,-0.99903 -3.16729,-0.32034 -6.33753,-0.60565 -9.51084,-0.85982 -3.9624,-0.38818 -7.9238,-0.78558 -11.88541,-1.18169 -2.27627,-0.22728 -1.56271,-0.14108 -3.66678,-0.40386 -0.94044,-0.11745 -1.87994,-0.27481 -2.82289,-0.37152 -0.11776,-0.0121 -0.23626,-0.0153 -0.35439,-0.023 -1.06066,0 -1.06066,1.5 0,1.5 z" /><path
           style="fill:#7d776c;fill-opacity:1;stroke-width:2;stroke-linecap:round;stroke-linejoin:round;stroke-miterlimit:2;stroke-dasharray:none"
           id="path166"
           d="m 186.43012,174.1845 c 2.29885,0.24952 4.6096,0.385 6.9164,0.54183 2.88152,0.16695 5.76541,0.27423 8.64712,0.43898 2.50125,0.15061 4.9988,0.35163 7.49438,0.57626 1.96604,0.17497 3.93135,0.36064 5.89391,0.57149 2.05225,0.23018 4.11361,0.35098 6.17227,0.50539 2.64371,0.18679 5.29157,0.30525 7.93756,0.45322 2.53433,0.13613 5.06799,0.288 7.59988,0.46403 2.54547,0.18773 5.08019,0.49458 7.61076,0.82271 2.46977,0.33378 4.93308,0.70943 7.411,0.97871 2.03095,0.2212 4.05412,0.50298 6.08647,0.71203 2.19878,0.20226 4.3983,0.39404 6.59466,0.62214 1.88275,0.16191 3.74995,0.45465 5.62836,0.6546 1.92878,0.20907 3.86522,0.34251 5.80133,0.4625 1.40941,0.13217 2.82454,0.18719 4.23539,0.29653 0.87532,0.0527 1.74278,0.17871 2.61358,0.27618 0.55848,0.031 1.1035,0.15965 1.65157,0.26186 1.04269,0.19439 1.3176,-1.2802 0.2749,-1.47459 v 0 c -0.58386,-0.1088 -1.16507,-0.24306 -1.75975,-0.27797 -0.88793,-0.0992 -1.77255,-0.22719 -2.66506,-0.28105 -1.41846,-0.10871 -2.84089,-0.16641 -4.25789,-0.29809 -1.91414,-0.11852 -3.82862,-0.2503 -5.73551,-0.45696 -1.87967,-0.19952 -3.74795,-0.49388 -5.63202,-0.65499 -2.19688,-0.22803 -4.39688,-0.42032 -6.59621,-0.6223 -2.02953,-0.2084 -4.04973,-0.49095 -6.0779,-0.71113 -2.46764,-0.26771 -4.92048,-0.6435 -7.38006,-0.97502 -2.5601,-0.33186 -5.12442,-0.64199 -7.69961,-0.83155 -2.53866,-0.17641 -5.07906,-0.32884 -7.62016,-0.46531 -2.63651,-0.14734 -5.27486,-0.26552 -7.90911,-0.45134 -2.04265,-0.15317 -4.08799,-0.27271 -6.12429,-0.50103 -1.97114,-0.2116 -3.94499,-0.39839 -5.91963,-0.57402 -2.51185,-0.226 -5.02565,-0.42836 -7.54321,-0.57986 -2.87634,-0.16443 -5.75482,-0.27188 -8.63099,-0.43796 -2.28547,-0.15535 -4.57488,-0.28925 -6.85249,-0.53612 -1.05417,-0.11713 -1.21982,1.3737 -0.16565,1.49083 z" /><path
           style="fill:#7d776c;fill-opacity:1;stroke-width:2;stroke-linecap:round;stroke-linejoin:round;stroke-miterlimit:2;stroke-dasharray:none"
           id="path167"
           d="m 186.13825,177.34992 c 2.0158,0.12206 4.02767,0.29728 6.04276,0.4313 2.6571,0.19037 5.31777,0.32217 7.97514,0.50864 2.51874,0.15174 5.03209,0.37834 7.54461,0.60873 2.20423,0.20642 4.4131,0.35065 6.62185,0.49674 2.01228,0.13459 4.02588,0.25608 6.03511,0.43174 2.21827,0.23465 4.44129,0.42001 6.66085,0.64144 2.04031,0.19622 4.08052,0.39436 6.1186,0.61267 1.97505,0.2015 3.94653,0.43784 5.91873,0.66562 1.77973,0.17479 3.55047,0.42606 5.32646,0.6334 1.63878,0.21866 3.28848,0.33276 4.93638,0.45627 1.79102,0.17718 3.5898,0.23566 5.38618,0.32807 2.20633,0.10642 4.40892,0.28585 6.6089,0.48192 2.17381,0.1767 4.34638,0.37105 6.52406,0.49425 1.48299,0.11427 2.96745,0.20117 4.45401,0.25 1.09102,0.016 2.1787,0.10985 3.26472,0.20814 1.16012,0.10348 2.29614,0.37689 3.42578,0.6505 0.85686,0.22668 1.72377,0.39352 2.59911,0.52752 1.19449,0.19512 2.4032,0.27518 3.60523,0.40997 1.05406,0.11818 1.22119,-1.37248 0.16714,-1.49066 v 0 c -1.18205,-0.13252 -2.37066,-0.21125 -3.54539,-0.40203 -0.83314,-0.12754 -1.65812,-0.28576 -2.47348,-0.50276 -1.20127,-0.29013 -2.4095,-0.57802 -3.64319,-0.68644 -1.11464,-0.10087 -2.23103,-0.19638 -3.35076,-0.21344 -1.47474,-0.0483 -2.94734,-0.13536 -4.41855,-0.24841 -2.16151,-0.12198 -4.31788,-0.31572 -6.47556,-0.49072 -2.21868,-0.19762 -4.43997,-0.37854 -6.66504,-0.48586 -1.78468,-0.0916 -3.57174,-0.14972 -5.35107,-0.32585 -1.62729,-0.12191 -3.25638,-0.23415 -4.87462,-0.45036 -1.7766,-0.20719 -3.54788,-0.45896 -5.32822,-0.63361 -1.97633,-0.22822 -3.95193,-0.46503 -5.93111,-0.66699 -2.0417,-0.21858 -4.0855,-0.41731 -6.12943,-0.61379 -2.22568,-0.22196 -4.45479,-0.40808 -6.67919,-0.64316 -2.01976,-0.17631 -4.04384,-0.2991 -6.06667,-0.43416 -2.19608,-0.14521 -4.3923,-0.28851 -6.58388,-0.49375 -2.52318,-0.23129 -5.04718,-0.45888 -7.5766,-0.61131 -2.6592,-0.18648 -5.32167,-0.31871 -7.9806,-0.50902 -2.04817,-0.1361 -4.09294,-0.31788 -6.14226,-0.4346 -1.06066,0 -1.06066,1.5 0,1.5 z" /></g><g
         id="g171"
         transform="translate(-62,-6.5)"><path
           style="fill:#000000;fill-opacity:1;stroke-width:2;stroke-linecap:round;stroke-linejoin:round;stroke-miterlimit:2;stroke-dasharray:none"
           id="path168"
           d="m 283.08134,167 c -3.49995,0.0965 -6.98213,-0.27151 -10.44829,-0.71014 -5.31222,-0.77431 -10.64338,-1.35602 -15.99604,-1.75982 -6.26245,-0.44552 -12.52358,-0.857 -18.7757,-1.43678 -5.32119,-0.44488 -10.64526,-0.8701 -15.97273,-1.23454 -4.34952,-0.23763 -8.70469,-0.27521 -13.04749,-0.63205 -3.73427,-0.31807 -7.46207,-0.70439 -11.14518,-1.40629 -2.72415,-0.54167 -5.46915,-0.97362 -8.21104,-1.41588 -0.9683,-0.34283 -2.13424,-0.0264 -3.08968,-0.38663 -0.1746,-0.0658 0.37204,0.0577 0.54507,0.12757 0.10124,0.0529 0.23655,0.25103 0.30372,0.15865 0.11343,-0.15601 -0.004,-0.38584 0.002,-0.57865 0.01,-0.36087 0.0161,-0.72219 0.0438,-1.08212 0.13298,-1.72263 0.37692,-3.44367 0.55703,-5.16188 0.37735,-3.95284 0.94427,-7.87961 1.58203,-11.79764 0.59771,-4.35342 0.99529,-8.73287 1.43298,-13.10493 0.35554,-4.02267 0.83594,-8.03255 1.19046,-12.05527 0.31225,-3.97261 0.62754,-7.94305 0.79871,-11.92473 0.18129,-3.820011 0.48508,-7.62453 0.91686,-11.42359 0.48602,-4.36786 1.01252,-8.726854 1.3447,-13.110109 0.22263,-4.334541 0.49938,-8.666477 0.68745,-13.002886 0.1405,-3.557159 0.18029,-7.117066 0.19962,-10.676596 0.0604,-3.018258 0.45524,-6.01158 0.83657,-9.001586 0.29069,-2.890801 0.59151,-5.777206 1.04093,-8.648192 0.29033,-2.145047 0.64273,-4.280767 0.87843,-6.432992 0.1582,-1.677679 0.20672,-3.3823 0.55869,-5.035059 0.0356,-0.07043 0.0386,-0.251095 0.10671,-0.211288 0.22975,0.134248 -0.42975,0.492224 -0.31633,0.732941 0.0717,0.152178 0.33648,-0.001 0.50466,0.0027 1.11294,0.02454 1.12662,0.03823 2.3616,0.11079 3.39234,0.328562 6.74918,0.925288 10.10878,1.485502 3.81694,0.602847 7.63891,1.172099 11.46084,1.742519 3.65569,0.5453 7.33057,0.896032 11.00843,1.242613 3.74003,0.249807 7.45679,0.728409 11.18564,1.095616 3.87529,0.360531 7.7492,0.695449 11.63764,0.874023 3.36576,0.128973 6.73425,0.152592 10.10208,0.162903 2.96865,0.0033 5.9373,-0.0013 8.90595,-0.0034 2.68569,-0.0017 5.37138,-0.0024 8.05708,-0.0027 2.03178,0.159116 4.06637,0.289518 6.09715,0.460441 2.84434,0.314886 5.71308,0.289923 8.56081,0.536338 0.16609,0.05336 0.33939,0.08804 0.49826,0.160096 0.0743,0.0337 0.21302,0.215037 0.13191,0.206194 -0.14869,-0.01621 -0.28089,-0.338333 -0.38482,-0.230773 -0.0823,0.08517 -0.009,0.236706 -0.0136,0.355059 -0.26812,1.532104 -0.65884,3.040214 -1.07592,4.53819 -0.66694,2.676623 -1.33509,5.352403 -1.90948,8.050647 -0.56965,2.947018 -0.93839,5.92326 -1.16873,8.914334 -0.12358,3.031612 -0.27246,6.062837 -0.53403,9.086167 -0.3095,3.321593 -0.46239,6.653652 -0.71409,9.979594 -0.18729,3.200421 -0.4987,6.390908 -0.69469,9.590746 -0.14161,3.553351 -0.29444,7.107524 -0.58095,10.652651 -0.32233,3.997959 -0.70676,7.991217 -1.08301,11.984647 -0.26378,3.41058 -0.50811,6.82218 -0.75854,10.23394 -0.11087,2.91661 -0.30224,5.81437 -0.64882,8.71199 -0.51231,3.57847 -0.9848,7.16176 -1.31391,10.76208 -0.29898,2.91847 -0.65942,5.832 -1.09062,8.73391 -0.35736,2.3588 -0.6758,4.72293 -1.03173,7.08178 -0.32118,2.39218 -0.67146,4.77821 -1.07543,7.15774 -0.26005,2.26476 -0.62279,4.51588 -0.89812,6.77873 -0.05,0.56932 -0.0801,1.1375 -0.28954,1.67178 -0.0604,0.15399 -0.1431,0.5935 -0.21772,0.44589 -0.0209,-0.0413 0.025,-0.089 0.0374,-0.13357 0.13199,-0.19133 0.0714,-0.11055 0.17721,-0.24561 -3.26783,1.34955 -1.35927,5.97096 1.90856,4.62141 v 0 c 1.1356,-0.54577 0.59136,-0.20982 1.62337,-1.02285 1.20461,-1.51403 1.57986,-2.80827 1.72428,-4.73482 0.26422,-2.18457 0.61979,-4.35699 0.86399,-6.54409 0.40927,-2.41077 0.76539,-4.82801 1.09045,-7.2516 0.35377,-2.36305 0.6768,-4.7303 1.03341,-7.09307 0.44125,-2.99474 0.81919,-5.99992 1.1238,-9.01171 0.32305,-3.55389 0.79662,-7.0899 1.29921,-10.62242 0.35536,-2.97328 0.55941,-5.94721 0.67077,-8.93978 0.24758,-3.37734 0.49037,-6.75446 0.74989,-10.13072 0.3784,-4.01628 0.76454,-8.032442 1.08901,-12.053266 0.28577,-3.57714 0.44901,-7.162619 0.58769,-10.748074 0.1936,-3.175749 0.50485,-6.342092 0.68975,-9.518439 0.25038,-3.309051 0.40312,-6.624101 0.70998,-9.928876 0.2594,-3.038903 0.42066,-6.084972 0.53779,-9.13236 0.21091,-2.770685 0.55264,-5.526864 1.07428,-8.257602 0.5502,-2.598358 1.19928,-5.172974 1.83616,-7.751137 0.55461,-2.001361 1.12996,-4.027932 1.25283,-6.109777 -0.0276,-0.375421 -0.006,-0.757817 -0.0829,-1.126262 -0.54674,-2.611053 -2.24152,-3.65854 -4.72484,-4.113223 -2.85047,-0.233508 -5.71732,-0.235552 -8.56415,-0.536619 -2.16918,-0.179096 -4.34131,-0.333875 -6.51296,-0.477706 -2.68663,3.41e-4 -5.37326,0.001 -8.05989,0.0027 -2.96241,0.002 -5.92482,0.0067 -8.88723,0.0034 -3.29668,-0.01004 -6.59402,-0.03263 -9.88872,-0.157696 -3.80145,-0.173412 -7.58829,-0.503858 -11.37691,-0.855248 -3.73579,-0.366877 -7.45941,-0.847262 -11.2063,-1.097605 -3.58793,-0.337533 -7.173,-0.677518 -10.73925,-1.209882 -3.79387,-0.565929 -7.58766,-1.131447 -11.37662,-1.729219 -3.53846,-0.589603 -7.07447,-1.218725 -10.64958,-1.54563 -2.41526,-0.131198 -4.84441,-0.392821 -6.82319,1.33203 -0.60203,0.524773 -0.78612,1.344349 -1.01935,2.052863 -0.34212,1.803815 -0.49527,3.636017 -0.62472,5.465991 -0.2244,2.075119 -0.57126,4.133231 -0.84775,6.201547 -0.4559,2.917631 -0.76963,5.850123 -1.06081,8.788222 -0.40692,3.19068 -0.82019,6.385988 -0.87666,9.607031 -0.0189,3.496412 -0.0575,6.993201 -0.19501,10.487304 -0.18531,4.282849 -0.46001,8.561176 -0.67791,12.842265 -0.32599,4.320759 -0.84964,8.616937 -1.32696,12.922593 -0.44485,3.915497 -0.7572,7.837035 -0.94425,11.773995 -0.16697,3.90687 -0.47889,7.80246 -0.78403,11.70045 -0.35188,4.00294 -0.83222,7.99281 -1.18486,11.99573 -0.4273,4.27013 -0.81707,8.54719 -1.39297,12.80006 -0.65218,4.01166 -1.23211,8.0324 -1.61968,12.07941 -0.13179,1.25837 -0.27909,2.51508 -0.41075,3.77347 -0.17066,1.63118 -0.46483,3.54562 0.0392,5.15616 0.18876,0.6032 0.54808,1.1391 0.82213,1.70866 0.37518,0.30894 0.70821,0.67777 1.12556,0.92684 1.27292,0.75968 2.8501,0.50849 4.23926,0.81525 2.69661,0.43444 5.39623,0.85908 8.07525,1.39207 3.85794,0.72828 7.75883,1.15036 11.67012,1.47727 4.36508,0.35379 8.74113,0.4097 13.1132,0.63698 5.28728,0.36095 10.57108,0.78423 15.85216,1.22483 6.28079,0.58188 12.57054,0.99709 18.8617,1.444 5.26927,0.39609 10.51665,0.97245 15.74597,1.73466 3.67387,0.4617 7.36469,0.84694 11.07382,0.74942 3.53553,0 3.53553,-5 0,-5 z" /><path
           style="fill:#000000;fill-opacity:1;stroke-width:2;stroke-linecap:round;stroke-linejoin:round;stroke-miterlimit:2;stroke-dasharray:none"
           id="path169"
           d="m 183.73186,181.02343 c 0.90986,0.20354 1.13949,0.27449 2.1333,0.39942 3.57743,0.44971 7.16049,0.84987 10.73601,1.32437 6.23604,0.76597 12.47912,1.47463 18.72099,2.19232 5.26018,0.45411 10.50256,1.05284 15.74729,1.65353 5.26263,0.53468 10.55035,0.74068 15.82361,1.14292 5.52032,0.33838 10.98585,1.2026 16.44237,2.06634 4.05384,0.64887 8.14316,1.0384 12.23361,1.36675 2.68193,0.0624 5.29613,0.58175 7.91613,1.09761 1.00253,0.20435 2.01338,0.35928 3.02586,0.50355 3.50056,0.49601 4.20203,-4.45454 0.70146,-4.95055 v 0 c -0.92419,-0.1301 -1.84653,-0.27224 -2.76142,-0.45882 -2.80639,-0.55254 -5.61192,-1.09539 -8.48243,-1.1758 -3.96262,-0.31732 -7.92431,-0.69313 -11.85147,-1.32125 -5.58983,-0.88484 -11.18941,-1.76488 -16.84433,-2.11338 -5.21028,-0.39637 -10.43436,-0.60411 -15.63464,-1.12492 -5.24396,-0.60018 -10.48546,-1.20031 -15.74491,-1.65326 -6.21297,-0.71435 -12.42713,-1.41985 -18.63439,-2.18159 -4.04883,-0.53724 -8.11715,-0.97862 -12.15344,-1.57486 -3.3995,-0.97129 -4.7731,3.83633 -1.3736,4.80762 z" /><path
           style="fill:#000000;fill-opacity:1;stroke-width:2;stroke-linecap:round;stroke-linejoin:round;stroke-miterlimit:2;stroke-dasharray:none"
           id="path170"
           d="m 290.52343,189.26814 c 0.77291,-2.98178 1.6619,-5.93106 2.44932,-8.90869 0.90696,-3.30114 1.64821,-6.64304 2.45131,-9.96984 0.50651,-2.26283 0.93751,-4.5411 1.41326,-6.81055 0.34117,-1.76635 0.60379,-3.54748 0.95094,-5.31272 0.40918,-1.92673 0.63828,-3.88489 0.91764,-5.83304 0.37768,-2.6338 0.66436,-5.28074 1.06154,-7.91166 0.34633,-2.44075 0.74971,-4.87188 1.0244,-7.32239 0.2714,-1.54135 0.50027,-3.08508 0.61745,-4.64607 0.0511,-1.61732 0.29626,-3.21925 0.56587,-4.81195 0.32901,-1.79351 0.42945,-3.61508 0.49183,-5.43386 -0.0351,-1.55618 0.10421,-3.09466 0.25352,-4.64066 0.21229,-1.86425 0.18505,-3.74266 0.3178,-5.61137 0.20174,-2.25114 0.33312,-4.50703 0.4073,-6.76571 0.0511,-1.75442 0.056,-3.5097 0.0582,-5.26473 1.4e-4,-1.58173 -0.002,-3.163462 -0.003,-4.745194 0.0774,-1.280256 0.3468,-2.529383 0.58939,-3.784628 0.30354,-1.381275 0.50894,-2.7806 0.77462,-4.168702 0.2871,-1.305195 0.42444,-2.632856 0.67918,-3.943259 0.33942,-1.62264 0.58161,-3.258545 0.82463,-4.897775 0.34683,-2.195069 0.48569,-4.4138 0.57662,-6.631808 -0.0574,-1.366444 0.17249,-2.70232 0.34246,-4.050229 0.20991,-1.220272 0.0765,-2.475188 0.25005,-3.695049 0.24435,-1.417596 0.55033,-2.822187 0.7476,-4.24934 0.24318,-1.163207 0.0627,-2.381316 0.25809,-3.543709 0.14087,-0.743125 0.22958,-1.494163 0.31004,-2.245709 0.37226,-3.515882 -4.59995,-4.042326 -4.9722,-0.526444 v 0 c -0.0756,0.723566 -0.17023,1.444461 -0.30029,2.160552 -0.1237,1.156463 -0.0977,2.321556 -0.24937,3.476629 -0.19834,1.463508 -0.5408,2.898048 -0.76114,4.356912 -0.12441,1.212922 -0.10019,2.433461 -0.24411,3.64555 -0.18399,1.485416 -0.42597,2.963101 -0.37698,4.467139 -0.0827,2.041589 -0.20638,4.084239 -0.52706,6.104584 -0.23064,1.565449 -0.45732,3.128003 -0.78687,4.676651 -0.25586,1.321844 -0.40188,2.658947 -0.68542,3.976019 -0.25389,1.380944 -0.46771,2.767618 -0.76913,4.139863 -0.30254,1.567627 -0.62472,3.133911 -0.68011,4.735811 9.6e-4,1.578658 0.003,3.157317 0.003,4.735976 -0.002,1.70263 -0.006,3.40551 -0.0555,5.10757 -0.0715,2.19932 -0.20222,4.39567 -0.39831,6.58763 -0.12093,1.82322 -0.11204,3.65335 -0.30632,5.47225 -0.15913,1.64866 -0.30358,3.29306 -0.27379,4.9518 -0.0534,1.59593 -0.13368,3.1952 -0.42458,4.76881 -0.29575,1.74742 -0.55827,3.50588 -0.62252,5.27958 -0.10746,1.49892 -0.35812,2.97546 -0.6,4.45767 -0.26589,2.38825 -0.66531,4.75656 -0.99994,7.13548 -0.39452,2.64254 -0.69148,5.29903 -1.06634,7.94441 -0.26725,1.86569 -0.48406,3.74138 -0.87599,5.58647 -0.33683,1.74318 -0.60928,3.49829 -0.93687,5.24309 -0.46518,2.22039 -0.8886,4.44894 -1.38014,6.6636 -0.79363,3.29229 -1.52795,6.599 -2.425,9.86573 -0.77675,2.94574 -1.66058,5.86175 -2.42267,8.81171 -0.97129,3.3995 3.83633,4.7731 4.80762,1.3736 z" /><path
           style="fill:#000000;fill-opacity:1;stroke-width:2;stroke-linecap:round;stroke-linejoin:round;stroke-miterlimit:2;stroke-dasharray:none"
           id="path171"
           d="m 185.42512,177.36921 c -0.18349,-2.32145 -0.39208,-4.64006 -0.60136,-6.95964 -0.20145,-2.34913 -0.27067,-4.70655 -0.31078,-7.06308 -0.003,-0.29813 -0.018,-0.59635 -0.01,-0.89439 0.006,-0.20768 0.0165,-0.41626 0.0505,-0.6212 0.014,-0.0841 0.12023,-0.31905 0.0923,-0.23851 -0.34129,0.98418 -0.99228,0.99379 -1.85983,0.74464 0.63555,1.79095 0.84597,3.67308 1.02645,5.55366 0.1612,1.85498 0.18725,3.71771 0.19829,5.5785 0.0514,1.00011 -0.0306,2.28919 0.58,3.16387 0.17344,0.24844 0.40593,0.44992 0.6089,0.67488 0.71489,-0.1196 1.50154,-0.0245 2.14469,-0.35878 0.6614,-0.34375 0.62383,-3.84082 0.638,-4.49372 0.031,-2.04402 0.0248,-4.08837 0.023,-6.13256 -0.001,-1.15811 -6.9e-4,-0.59498 -0.002,-1.68938 -0.003,-2.12132 -3.00276,-2.1174 -2.99999,0.004 v 0 c 0.001,1.09379 7.1e-4,0.53107 0.002,1.68817 0.002,2.02175 0.008,4.04367 -0.0223,6.06525 -0.0176,0.82332 -0.0298,1.64583 -0.093,2.46721 -0.009,0.12175 -0.13732,0.29957 -0.0341,0.36472 0.0937,0.0591 0.1506,-0.16244 0.2259,-0.24367 0.63451,-0.0273 1.26902,-0.0545 1.90352,-0.0818 0.10718,0.154 0.21009,0.31107 0.32154,0.46201 0.0863,0.11684 -0.14054,-0.25797 -0.17499,-0.39908 -0.11999,-0.49152 -0.13703,-1.00687 -0.12122,-1.50898 -0.0118,-1.95114 -0.0411,-3.90426 -0.21216,-5.84915 -0.23023,-2.36692 -0.48832,-4.77463 -1.52851,-6.94723 -0.40212,-0.356 -0.68598,-0.9352 -1.20637,-1.06801 -2.4906,-0.63564 -2.62528,2.27861 -2.55021,3.81083 0.0416,2.42944 0.11399,4.85977 0.32248,7.28152 0.21405,2.37126 0.42157,4.742 0.61937,7.11426 0.3,2.1 3.26985,1.67574 2.96985,-0.42426 z" /></g></g></g></svg>
