<?xml version="1.0" encoding="UTF-8" standalone="no"?>
<!-- Created with Inkscape (http://www.inkscape.org/) -->

<svg
   width="46.528564"
   height="46.413532"
   viewBox="0 0 46.528564 46.413532"
   version="1.1"
   id="svg1"
   xml:space="preserve"
   xmlns="http://www.w3.org/2000/svg"
   xmlns:svg="http://www.w3.org/2000/svg"><defs
     id="defs1" /><g
     id="g10"
     style="display:inline"
     transform="translate(-193.23532,-57.19669)"><g
       id="layer11"
       style="display:inline"
       transform="matrix(0.5,0,0,0.5,108.2498,40.201728)"><g
         id="g184"
         style="fill:#e5e5e5;fill-opacity:1"><path
           style="fill:#e5e5e5;fill-opacity:1;stroke:none;stroke-width:0.5;stroke-dasharray:none;stroke-opacity:1;paint-order:normal"
           d="m 257.334,75.376469 c -2.22528,0.377699 -3.39268,2.718503 -5.40495,3.596646 -3.47006,2.12538 -7.76895,1.548204 -11.54929,2.746043 -6.30017,1.444904 -12.85308,0.973839 -19.18814,2.251811 -6.37462,0.672103 -12.84545,0.333482 -19.23897,0.359602 -5.58379,0.149066 -10.46975,-2.924887 -15.67494,-4.455192 -3.15319,-0.877633 -6.26603,-2.074596 -9.46618,-2.689828 -1.74646,0.556217 -0.79744,2.843586 -0.91943,4.161621 0.4116,10.329756 -0.0259,20.719918 0.44092,31.062498 0.32458,2.23898 2.80874,3.22135 4.49795,4.31181 6.66238,3.72593 14.48188,4.00555 21.87363,5.00753 9.84963,1.33212 19.80631,0.6806 29.70886,0.69722 4.89916,-0.2105 9.90067,0.0865 14.7135,-0.97798 3.97846,-1.55266 7.92214,-4.54176 8.68521,-9.00143 0.71654,-3.89517 1.62872,-7.72381 2.31529,-11.63041 0.87021,-8.108266 0.69416,-16.282583 0.92138,-24.423828 -0.0978,-0.889042 -0.94347,-1.124501 -1.71484,-1.016113 z"
           id="path184" /><path
           style="fill:#abbcc3;fill-opacity:1;stroke:none;stroke-width:0.5;stroke-dasharray:none;stroke-opacity:1;paint-order:normal"
           d="m 203.0547,38.225588 c -4.6821,-0.02634 -9.61208,0.02262 -13.801,2.412561 -2.59869,1.03311 -4.83536,2.735728 -6.55228,4.941177 -2.74697,2.913255 -5.36424,6.008194 -6.94631,9.730211 -0.37099,1.220769 -2.31939,3.026498 -0.73251,3.977199 2.37188,0.144894 4.84554,0.149781 7.21073,-0.0015 1.44489,-0.733293 0.4926,-2.828753 0.76668,-4.16021 0.0927,-1.860433 -0.17617,-3.901402 0.27832,-5.66504 2.09589,-0.74204 4.4759,-0.430155 6.63456,-0.36615 4.32942,1.825649 9.44942,3.207363 12.02218,7.51703 0.95332,1.461084 1.81596,3.534435 3.92187,3.355957 7.32894,0.332938 14.66945,0.313322 22.00391,0.45166 1.59268,-0.616383 1.79689,-2.751089 2.91504,-3.958984 1.59357,-2.490913 3.89528,-4.407192 6.65103,-5.404879 2.11098,-0.799593 4.15096,-2.046815 6.39047,-2.304595 1.89345,0.186465 3.99498,-0.409415 5.70411,0.571778 0.57027,3.513523 0.005,7.134952 0.5388,10.654832 1.18805,1.083514 3.21832,0.430248 4.74986,0.769564 1.08959,0.03566 3.27005,0.589576 3.0839,-1.173419 -1.80892,-6.401864 -4.5451,-12.989708 -9.85303,-17.281251 -2.46079,-1.824202 -5.48761,-2.763225 -8.42041,-3.43636 -8.51215,0.105761 -16.9875,0.05696 -25.48084,-0.46103 -3.69367,-0.118843 -7.38948,-0.175757 -11.08508,-0.168528 z"
           id="path185" /><path
           id="path188"
           style="fill:#4c6974;fill-opacity:1;stroke:none;stroke-width:0.5;stroke-dasharray:none;stroke-opacity:1;paint-order:normal"
           d="m 209.30859,63.921875 c -1.3472,0.09845 -3.86622,-0.327176 -4,1.601563 0.48137,4.868306 0.003,9.91692 0.28516,14.832031 0.72965,1.44921 2.82858,0.494947 4.16016,0.769531 5.45904,0.07868 10.97169,0.0038 16.3164,-1.203125 1.4401,-1.073895 0.70519,-3.235173 0.9668,-4.771484 0.005,-3.310701 0.23402,-6.662019 0.0801,-9.947266 -0.70898,-1.37743 -2.74731,-0.786997 -4.07031,-1.042969 -4.5769,-0.167864 -9.15829,-0.246828 -13.73829,-0.238281 z m 31.43555,2.736328 c -0.28009,-0.0041 -0.51115,0.195077 -0.77734,0.351563 -0.49824,3.060061 -0.0765,6.275833 -0.2168,9.396484 -0.37148,1.433573 1.05413,2.117953 2.22852,1.580078 3.46631,-0.540132 7.48884,-0.46507 10.13867,-3.207031 0.83853,-0.880401 1.91537,-1.493539 2.79492,-2.251953 0.52686,-1.622398 -1.63956,-2.14815 -2.69336,-2.78125 -1.17239,-0.712447 -2.57199,-1.054237 -3.8457,-0.416016 -2.71671,0.286403 -5.11769,-1.304318 -7.33008,-2.591797 -0.1074,-0.05553 -0.20546,-0.07871 -0.29883,-0.08008 z m -48.70703,0.248047 c -0.20178,-0.0096 -0.40745,0.02964 -0.57617,0.111328 -2.27569,1.699945 -5.05775,2.927894 -7.95117,2.50586 -2.31257,0.08472 -4.26606,1.856497 -5.56641,3.572265 0.34411,1.667151 2.59158,1.445341 3.89453,2.082031 3.30589,0.90575 6.58494,1.833251 9.75391,3.166016 1.85361,0.0011 1.20396,-2.359178 1.38672,-3.550781 -0.0691,-2.457065 0.25034,-5.000012 -0.15821,-7.400391 -0.12149,-0.318936 -0.44689,-0.470289 -0.7832,-0.486328 z" /><path
           style="fill:#ffffff;fill-opacity:1;stroke:none;stroke-width:0.5;stroke-dasharray:none;stroke-opacity:1;paint-order:normal"
           d="m 184.33009,50.382815 c -0.74318,1.931057 -0.13038,4.182917 -0.33008,6.242188 0.0598,3.676869 -0.12031,7.398328 0.0898,11.047284 0.69133,1.419366 2.659,0.455841 3.81841,0.02596 1.66791,-0.662438 2.71022,-2.307343 4.27491,-3.058106 1.03353,-0.271559 2.12884,0.646402 1.81933,1.75 0.0947,4.203653 0.073,8.454526 0.47314,12.619926 0.79779,1.206366 2.62293,1.260986 3.94776,1.777048 1.76249,0.354595 3.69824,0.573365 5.4248,0.08203 0.98504,-2.830538 0.53396,-5.989106 0.5965,-8.965178 -0.054,-5.341698 -0.49351,-11.176293 -4.19103,-15.382763 -2.49822,-3.473601 -6.78087,-4.746643 -10.61836,-6.118857 -1.70373,-0.325496 -3.65123,-0.49027 -5.30517,-0.01953 z"
           id="path192" /><path
           style="fill:#ffffff;fill-opacity:1;stroke:none;stroke-width:0.5;stroke-dasharray:none;stroke-opacity:1;paint-order:normal"
           d="m 245.36769,49.876956 c -3.27552,0.100422 -6.23399,1.795268 -9.14942,3.125 -3.59488,1.9872 -5.90293,5.807387 -7.00976,9.666992 -1.23806,5.245402 -0.8709,10.68655 -0.9585,16.029786 0.50374,1.772525 2.75943,0.647045 4.08985,0.828125 1.96551,-0.24558 4.10895,0.01605 5.9248,-0.825195 0.53696,-2.86957 0.0832,-5.909637 0.24891,-8.848583 0.21824,-1.657105 -0.331,-3.595603 0.53185,-5.074758 0.90837,-0.833497 2.28954,-0.332869 2.88623,0.629883 1.71705,1.584877 4.02507,3.043106 6.4419,2.632325 0.95709,-1.251872 -0.0272,-2.978552 0.19873,-4.453614 -0.16574,-4.286948 0.0556,-8.665292 -0.16206,-12.945233 -0.40304,-1.248957 -2.05101,-0.618628 -3.04253,-0.764728 z"
           id="path194" /><path
           style="fill:#808080;fill-opacity:1;stroke:none;stroke-width:2;stroke-dasharray:none;stroke-opacity:1;paint-order:normal"
           id="path196"
           d="m 184.79393,66.000003 c 1.03823,-0.09208 1.89835,-0.551657 2.71161,-1.174079 0.68528,-0.629272 1.24408,-1.296195 1.71165,-2.100439 0.4618,-0.889475 0.57223,-1.868127 0.57732,-2.854112 -0.0437,-0.511699 0.0131,-1.03836 -0.0719,-1.546866 -0.0269,-0.16071 -0.0721,-0.317809 -0.10813,-0.476713 -0.0339,-0.119471 -0.0625,-0.240576 -0.10174,-0.358415 -0.006,-0.01794 -0.2487,-0.66358 -0.27688,-0.736764 -0.0371,-0.0963 -0.20355,-0.523398 -0.25117,-0.618903 -0.0624,-0.12523 -0.13755,-0.243723 -0.20633,-0.365585 -0.25728,-0.451685 -0.62596,-0.816511 -0.9984,-1.172221 -0.47987,-0.450619 -1.04178,-0.786152 -1.59702,-1.132027 -0.23708,-0.132614 -0.4829,-0.244778 -0.73321,-0.349085 -1.31008,-0.532619 -2.06332,1.320119 -0.75323,1.852737 v 0 c 0.14712,0.05666 0.28619,0.129126 0.42964,0.19434 0.43966,0.273421 0.88956,0.527973 1.27314,0.880999 0.24132,0.230023 0.49305,0.455157 0.66033,0.74795 0.14029,0.203292 0.21673,0.438548 0.30516,0.668214 0.0744,0.193256 0.15814,0.383099 0.22475,0.579181 0.033,0.09726 0.0567,0.197451 0.0851,0.296177 0.15418,0.49194 0.0751,1.023754 0.11993,1.53203 6.8e-4,0.641148 -0.0374,1.283878 -0.31755,1.873358 -0.30929,0.572548 -0.75129,1.048304 -1.20385,1.510973 -0.43102,0.350286 -0.93204,0.631864 -1.47919,0.74925 -1.41422,0 -1.41422,2 0,2 z" /><path
           style="fill:#808080;fill-opacity:1;stroke:none;stroke-width:2;stroke-dasharray:none;stroke-opacity:1;paint-order:normal"
           id="path198"
           d="m 247.72406,64.228926 c -0.64274,-0.180934 -1.14407,-0.594561 -1.58344,-1.081623 -0.35063,-0.36411 -0.48998,-0.855418 -0.66647,-1.317266 -0.15712,-0.630011 -0.20143,-1.285909 -0.23076,-1.93323 0.0101,-0.362978 -0.0351,-0.731551 -0.006,-1.094243 0.0137,-0.172491 0.10769,-0.439737 0.16083,-0.607432 0.16553,-0.535092 0.45735,-1.008169 0.79118,-1.452839 0.1784,-0.254772 0.38661,-0.485812 0.56584,-0.739974 0.11868,-0.168291 0.1995,-0.328226 0.35851,-0.456656 0.3194,-0.187537 0.72019,-0.18976 1.07947,-0.24222 1.39919,-0.205589 1.10844,-2.184343 -0.29075,-1.978753 v 0 c -0.78223,0.115795 -1.57815,0.226896 -2.18557,0.789602 -0.0882,0.0906 -0.18173,0.176386 -0.26474,0.271811 -0.20574,0.236514 -0.15339,0.209745 -0.30114,0.421867 -0.13852,0.198862 -0.20962,0.270586 -0.36923,0.47704 -0.0681,0.08813 -0.13341,0.178435 -0.20011,0.267653 -0.46352,0.632758 -0.86843,1.306089 -1.09744,2.062226 -0.11446,0.387955 -0.21438,0.769843 -0.24682,1.175639 -0.0318,0.397446 0.0191,0.801475 0.008,1.199162 0.0408,0.85808 0.1046,1.729896 0.36037,2.554285 0.26809,0.701536 0.52999,1.417434 1.06918,1.964304 0.67883,0.718058 1.45131,1.336173 2.4165,1.618014 1.34164,0.447213 1.9741,-1.450153 0.63246,-1.897367 z" /><path
           id="path199"
           style="fill:#808080;fill-opacity:1;stroke:none;stroke-width:0.25;stroke-dasharray:none;stroke-opacity:1;paint-order:normal"
           d="m 184.98047,54.203125 c -0.19234,0.0049 -0.3829,0.06046 -0.57617,0.166016 -0.75261,0.820309 -0.26511,2.045776 -0.4043,3.052734 0.065,2.195918 -0.13909,4.417364 0.14844,6.597656 0.27957,1.032608 1.60996,0.916376 2.23828,0.285157 1.50852,-1.025602 2.52098,-2.790548 2.34375,-4.644532 0.0199,-2.177553 -1.11858,-4.411282 -3.16602,-5.318359 -0.19725,-0.09761 -0.39164,-0.143572 -0.58398,-0.138672 z m 62.49414,0.240234 c -1.28766,0.304195 -1.94741,1.65454 -2.625,2.673829 -0.79909,1.314562 -0.51134,2.93457 -0.39453,4.388671 0.21319,1.541073 1.34541,2.92462 2.75586,3.527344 0.99315,0.229064 1.47657,-0.889619 1.38086,-1.708984 0.0423,-2.67848 0.0694,-5.362453 -0.0293,-8.039063 -0.0963,-0.51291 -0.58525,-0.839967 -1.08789,-0.841797 z" /></g><g
         id="layer12"><path
           id="path208"
           style="fill:#c3c3c3;fill-opacity:1;stroke:none;stroke-width:2;stroke-dasharray:none;stroke-opacity:1;paint-order:normal"
           d="m 195.16797,77.375 c -1.41421,0 -1.41421,2 0,2 0.83616,0.120301 1.67859,0.183325 2.51953,0.257812 -0.0594,0.278872 -0.10661,0.559435 -0.11914,0.84375 -4.4e-4,0.01057 0.004,0.02182 0.008,0.0293 0.0351,0.05663 0.1918,0.0256 0.27539,0.03906 0.94436,0.151975 1.90844,0.214376 2.86133,0.285156 0.76007,0.03503 1.5247,0.110322 2.2832,0.02539 0.60958,-0.08607 0.90091,-0.508402 0.91993,-0.94336 0.0147,-0.011 0.0303,-0.02371 0.0449,-0.03516 -0.0163,-0.03602 -0.0336,-0.07092 -0.0488,-0.105469 -0.0182,-0.204441 -0.0943,-0.402914 -0.22656,-0.5625 -0.46202,-1.260756 -0.0241,-1.055055 -1.0586,-1.076172 -0.61812,-0.03027 -1.22783,-0.132446 -1.84375,-0.1875 -0.92067,-0.100667 -1.84208,-0.200305 -2.76367,-0.291015 -0.50624,-0.04547 -1.01429,-0.07492 -1.51953,-0.130859 -0.31933,-0.03535 -0.63556,-0.08759 -0.95508,-0.121094 -0.12472,-0.01308 -0.25189,-0.01818 -0.37695,-0.02734 z" /><path
           id="path209"
           style="fill:#c3c3c3;fill-opacity:1;stroke:none;stroke-width:2;stroke-dasharray:none;stroke-opacity:1;paint-order:normal"
           d="m 237.25391,76.457031 c -0.37022,-0.01228 -0.74604,0.01083 -1.05274,0.01758 -0.77099,0.02291 -1.54318,0.02646 -2.31445,0.02734 -0.63474,-0.01 -1.26538,-0.01068 -1.89649,0.06055 -0.44781,0.03548 -0.88978,0.09202 -1.33203,0.169922 -0.285,0.0038 -0.54983,0.131207 -0.83203,0.15039 -0.0817,0.0032 -0.16439,9.96e-4 -0.24609,0 -0.93806,-0.0099 -1.26309,0.86714 -0.96289,1.462891 C 228.12773,78.91814 228.40344,80 229.44336,80 c 1.28913,-0.07099 2.55954,-0.309342 3.8418,-0.449219 1.02159,-0.156232 2.05434,-0.192604 3.08593,-0.195312 0.56705,0.03385 1.12553,-0.0095 1.67579,-0.146485 0.15131,-0.04618 0.35273,-0.09831 0.4746,-0.193359 0.47525,-0.370672 0.75912,-0.863244 0.56836,-1.490234 -0.0647,-0.212688 -0.23278,-0.379219 -0.34961,-0.56836 -0.15742,-0.102075 -0.30346,-0.223611 -0.47265,-0.304687 -0.27924,-0.133807 -0.64346,-0.18303 -1.01367,-0.195313 z m 0.38281,0.783203 h 0.002 v 0.002 c -7.1e-4,4.52e-4 -0.002,-6.33e-4 -0.004,0 -0.0297,0.01296 -0.0605,0.02066 -0.0918,0.0293 0.006,-0.0041 0.0113,-0.0077 0.0176,-0.01172 0.0159,-0.01031 0.0636,-0.01932 0.0762,-0.01953 z" /><path
           id="path212"
           style="fill:#373b3e;fill-opacity:1;stroke:none;stroke-width:2;stroke-dasharray:none;stroke-opacity:1;paint-order:normal"
           d="m 247.36133,69.117188 c -0.52885,-0.01767 -1.04924,0.03799 -1.56641,0.146484 -0.17348,0.0048 -0.39624,0.150929 -0.54101,0.134766 h -0.002 v -0.002 l 0.002,-0.002 h 0.002 c 0.008,-0.0033 0.0227,-0.0086 0.0293,-0.01172 h -0.0371 c -0.0188,4.94e-4 -0.0378,0.0014 -0.0566,0.002 -0.35228,-0.01997 -0.68798,0.110545 -1.03711,0.11914 -0.53587,0.03179 -1.04241,0.23271 -1.57813,0.25586 -0.60328,0.05255 -1.199,0.13646 -1.78711,0.28125 -1.54486,0.380491 -2.15292,1.571901 -2.04101,2.691406 -1.20878,0.861785 -1.32663,2.672336 -0.35547,3.720703 -0.72455,1.799949 0.93712,4.182962 3.40625,3.195313 0.13019,-0.06072 0.25687,-0.131164 0.39062,-0.183594 0.0442,-0.01734 0.0949,-0.01259 0.14063,-0.02539 0.17896,-0.05008 0.35444,-0.111314 0.5332,-0.162109 0.70917,-0.201518 1.43311,-0.350389 2.15039,-0.519532 1.27476,-0.30813 2.55752,-0.58135 3.83008,-0.898437 0.94224,-0.192258 1.76038,-0.69032 2.61719,-1.095703 0.7627,-0.347769 1.48492,-0.77393 2.20508,-1.201172 0.36617,-0.244944 0.80208,-0.474581 1.09179,-0.818359 0.15226,-0.180686 0.30256,-0.364776 0.45313,-0.546875 0.23404,-0.319884 0.37359,-0.684229 0.51367,-1.050782 0.93113,-2.778023 -2.16506,-4.345034 -3.89258,-2.892578 -0.4607,-0.396361 -1.06292,-0.656048 -1.61328,-0.783203 -0.15947,-0.03684 -0.3227,-0.05267 -0.48437,-0.07813 -0.32596,-0.08468 -0.66763,-0.100763 -0.9961,-0.164062 -0.45309,-0.09584 -0.91555,-0.113895 -1.37695,-0.111328 z m -65.82617,0.53125 c -0.96976,-0.0153 -1.72653,0.508055 -2.14063,1.226562 -2.42109,0.143347 -3.4033,3.739071 -0.57812,4.869141 0.63509,0.270096 1.30162,0.44779 1.95898,0.652343 0.40756,0.126822 0.9448,0.313702 1.34766,0.451172 1.14694,0.359426 2.27453,0.773936 3.42578,1.119141 1.14355,0.364406 2.30257,0.671357 3.48828,0.859375 0.4225,0.04114 0.83924,0.118363 1.25586,0.195312 -2.9e-4,0.003 2.9e-4,0.0048 0,0.0078 0.0491,0.01434 0.0974,0.02862 0.14648,0.04297 3.04439,0.882698 4.4798,-2.886047 2.29688,-4.384766 0.40577,-0.951007 0.24109,-2.149876 -0.92188,-3.035156 -0.13258,-0.08967 -0.21917,-0.146035 -0.2832,-0.189453 -0.4823,-0.337044 -1.0037,-0.552047 -1.56055,-0.734375 -0.45331,-0.103848 -0.91027,-0.209991 -1.375,-0.246094 -0.4475,-0.04632 -0.89271,-0.09719 -1.34179,-0.123047 -0.79927,-0.105351 -1.59498,-0.243731 -2.40625,-0.210937 -0.76636,-0.02969 -1.5315,-0.105088 -2.27735,-0.291016 -0.36601,-0.137254 -0.7119,-0.203884 -1.03515,-0.208984 z m 67.68554,0.396484 c -0.001,0.001 -0.005,0.004 -0.0137,0.0078 -0.11188,0.04737 -0.18719,0.0787 -0.24414,0.101563 v -0.002 c 0.0602,-0.03803 0.23715,-0.102795 0.25781,-0.107422 z m -24.19531,3.99414 c -0.25158,0.0092 -0.51889,0.0544 -0.79687,0.140626 -0.27906,0.0546 -0.55103,0.161578 -0.8086,0.273437 -0.56304,0.213927 -1.11344,0.458071 -1.68945,0.638672 -0.60844,0.230265 -1.25003,0.377383 -1.89649,0.449219 -0.86234,0.07434 -1.72305,0.16492 -2.58789,0.208984 -0.58163,0.02578 -1.15773,0.06231 -1.73632,0.128906 -0.27575,0.03174 -0.54981,0.0797 -0.82618,0.105469 -0.14523,0.01354 -0.28995,0.0185 -0.43554,0.02734 -1.15675,0.01548 -2.3153,0.04898 -3.47071,-0.02734 -1.14909,-0.09158 -2.29202,-0.233934 -3.42187,-0.464844 -2.44788,-0.699395 -3.84469,1.597356 -3.16602,3.300781 -0.3485,1.265842 0.24569,2.790155 2.06641,3.154297 v 0.002 c 1.41496,0.305081 2.86734,0.346492 4.30859,0.392579 2.42386,0.07115 4.84856,-0.0029 7.26758,-0.15625 1.16683,-0.06153 2.33078,-0.151814 3.48828,-0.3125 0.36808,-0.07424 0.74504,-0.0991 1.11524,-0.158203 0.22741,-0.0363 0.45792,-0.10163 0.6875,-0.128907 0.62036,-0.0577 1.2435,-0.130094 1.85742,-0.24414 0.36113,-0.08433 0.73787,-0.156993 1.07812,-0.310547 0.18382,-0.08296 0.36043,-0.179759 0.54102,-0.269532 1.6058,-0.943727 1.66168,-2.586381 0.91016,-3.667968 0.33896,-1.461797 -0.72328,-3.146148 -2.48438,-3.082032 z" /><path
           id="path272"
           style="fill:#abbcc3;fill-opacity:1;stroke:none;stroke-width:2;stroke-dasharray:none;stroke-opacity:1;paint-order:normal"
           d="m 229.05273,82.4375 c -0.37532,7.32e-4 -0.75047,0.201335 -0.91601,0.632812 -0.4211,-0.06726 -0.92754,0.01929 -1.3125,0.04883 -3.50446,0.367761 -6.85324,1.216379 -10.33984,1.173828 -3.87583,0.07223 -7.76492,-0.0349 -11.63282,0.04883 -0.22107,-1.158376 -1.97656,-1.075199 -1.97656,0.25 v 3.152344 c 0.0137,0.585755 0.0945,1.147186 0.60938,1.537109 0.53076,0.401966 1.42885,0.355881 2.05273,0.392578 0.34604,0.01207 0.69316,0.02159 1.03906,0.03711 3.02768,0.135844 -0.38495,0.009 3.05469,0.15039 1.85869,0.07641 3.71627,0.113939 5.57617,0.142578 2.28,0.02781 4.55982,0.01516 6.83985,0 1.14547,-0.0073 2.292,-0.0045 3.4375,-0.0039 0.53471,0.0015 1.06552,-0.06435 1.59179,-0.152344 0.16286,-0.02723 0.464,-0.07747 0.61524,-0.144531 0.15598,-0.06917 0.29796,-0.165438 0.44726,-0.248047 0.29911,-0.217662 0.60695,-0.418608 0.92774,-0.601562 0.74765,-0.44351 0.87574,-1.097396 0.94531,-1.900391 0.026,-0.763638 5.3e-4,-1.529169 -0.008,-2.292969 -0.0164,-0.346125 -0.009,-0.685093 0.041,-1.027344 0.10497,-0.768597 -0.44364,-1.196382 -0.99219,-1.195312 z" /></g><g
         id="g140"><path
           style="fill:#000000;fill-opacity:1;stroke:none;stroke-width:2;stroke-dasharray:none;stroke-opacity:1;paint-order:normal"
           id="path111"
           d="m 171.95204,73.242341 c -0.54695,3.721638 -0.18836,7.501128 -0.0528,11.241848 0.14164,3.86091 0.12559,7.72483 0.11727,11.58758 -0.0128,3.38137 -0.0169,6.762761 -0.0178,10.144161 0.18683,2.04857 -0.28538,4.46603 0.10853,6.47943 0.10096,0.51603 0.29109,1.01054 0.43664,1.51581 1.18929,3.43587 4.43306,5.25031 7.49742,6.79276 3.02482,1.73204 6.44226,2.4192 9.80731,3.14351 3.60544,0.57851 7.20942,1.18886 10.84933,1.49485 4.15594,0.38395 8.28966,0.93944 12.461,1.14145 2.85626,0.0747 5.71393,0.004 8.57049,-0.0231 2.77726,-0.0209 5.55463,-0.0151 8.33194,-0.0131 3.38726,0.10394 6.75929,-0.25099 10.13763,-0.42939 2.40168,0.003 4.78124,-0.26282 7.1487,-0.64326 0.43975,-0.10365 0.8959,-0.15314 1.31924,-0.31094 2.51508,-0.93752 5.01844,-2.52651 6.98446,-4.3494 0.43992,-0.40789 0.82926,-0.86715 1.2439,-1.30072 2.01963,-2.25744 2.7009,-5.14196 3.32164,-8.01755 0.33413,-2.684 0.935,-5.31794 1.60627,-7.93452 0.69915,-2.62798 0.77704,-5.344771 0.75522,-8.046181 -0.0244,-1.80234 0.28982,-3.58904 0.3997,-5.38919 0.0787,-1.81165 0.0442,-3.62552 0.0315,-5.43812 -0.0105,-1.77357 -0.0118,-3.54717 -0.011,-5.32077 8.8e-4,-1.01733 0.001,-2.03466 0.002,-3.05199 -0.046,-1.191908 0.22238,-2.724508 -0.6427,-3.714208 -0.45695,-0.52278 -1.0944,-0.85482 -1.6416,-1.28222 -2.13149,-0.59322 -4.55828,-0.5932 -6.55064,0.51268 -0.49587,0.27524 -0.93206,0.6464 -1.39809,0.96961 -1.2732,1.34324 -3.72411,3.178418 -5.50654,3.758186 -1.74539,0.45722 -3.3655,0.461742 -5.14413,0.695182 -1.7768,0.0846 -3.93176,0.893168 -5.64002,1.283658 -2.20501,0.29727 -3.88991,0.754446 -6.11258,0.869666 -2.94569,0.0885 -4.64785,-0.231419 -7.55225,0.262431 -2.34778,0.48687 -4.9904,0.439675 -7.38384,0.449965 -1.93995,-0.029 -3.87971,-0.0619 -5.81989,-0.0722 -2.55835,-0.005 -5.11672,-7e-4 -7.67507,9.3e-4 -1.95832,0.18885 -3.68861,-0.28907 -5.48879,-1.01144 -2.18941,-0.94805 -4.51469,-1.53154 -6.67664,-2.53937 -1.69922,-0.82708 -3.53164,-1.274408 -5.37388,-1.645808 -0.2841,-0.0731 -0.57243,-0.13141 -0.85229,-0.21938 -0.49991,-0.15714 -0.97661,-0.38184 -1.47458,-0.54502 -1.0766,-0.35278 -2.1753,-0.62161 -3.26499,-0.92929 -1.22489,-0.54089 -2.5032,-1.07538 -3.645,-1.7825 -3.0518,-1.78509 -5.5763,2.5308 -2.5245,4.315888 v 0 c 1.5391,0.87512 3.14931,1.67587 4.81318,2.27913 0.98668,0.27761 1.98604,0.51511 2.96088,0.83302 0.20048,0.0654 1.88563,0.66913 1.90707,0.67564 0.36331,0.11022 0.73661,0.18431 1.10492,0.27647 1.45957,0.28526 2.91187,0.62477 4.25552,1.2824 2.26151,1.03412 4.65674,1.70008 6.95163,2.65633 2.36855,0.90663 4.74771,1.56501 7.31066,1.35393 2.54851,-0.002 5.09703,-0.006 7.64554,-0.001 1.95791,0.0103 3.91536,0.0451 5.87308,0.0722 2.66731,-0.0168 5.58503,0.01469 8.20252,-0.521895 2.70942,-0.46969 4.21861,-0.112791 6.96724,-0.197211 2.52483,-0.13252 4.51716,-0.607996 7.01499,-0.999996 1.54759,-0.38084 3.54261,-1.098608 5.15263,-1.192388 2.12152,-0.30494 4.10641,-0.292392 6.17028,-0.947822 2.31239,-0.8809 5.19655,-2.611358 6.84081,-4.486918 0.84974,-0.91584 1.70536,-0.71876 2.77808,-0.93367 -0.4013,-0.542278 -0.62909,-0.597658 -0.63676,-1.165168 -4.3e-4,-0.0318 0.0531,0.0459 0.0557,0.0776 0,5e-5 4e-5,1.017428 4e-5,1.079528 10e-6,0.16084 0,0.32167 0,0.4825 -1.1e-4,1.01681 -6.5e-4,2.03362 -0.002,3.05043 -7.5e-4,1.786 5.8e-4,3.57201 0.0111,5.35798 0.0119,1.70103 0.0447,3.40316 -0.0226,5.10347 -0.11254,1.91376 -0.46015,3.81255 -0.40849,5.73183 0.0209,2.26956 -0.012,4.555121 -0.59962,6.764661 -0.68356,2.68224 -1.31986,5.38099 -1.6527,8.13293 -0.35303,1.69257 -0.0601,0.39345 -0.53776,2.21227 -0.0524,0.19969 -0.34324,1.44795 -0.47322,1.74186 -0.27094,0.61263 -0.68545,1.14105 -1.06741,1.6834 -1.4341,1.57513 -2.92022,2.58132 -4.75923,3.64801 -0.32918,0.19093 -0.64194,0.41706 -0.994,0.5615 -0.30248,0.12409 -0.63454,0.15785 -0.95181,0.23678 -2.18829,0.36342 -4.38705,0.58776 -6.60811,0.58505 -3.28931,0.17444 -6.57194,0.52358 -9.86985,0.4224 -2.79432,-0.002 -5.58869,-0.008 -8.38294,0.0133 -2.76097,0.0262 -5.5229,0.0934 -8.28365,0.0286 -4.11457,-0.19499 -8.19022,-0.76288 -12.29037,-1.13034 -3.42544,-0.2748 -6.81217,-0.87924 -10.2073,-1.39976 -2.95845,-0.63668 -5.97885,-1.18963 -8.63179,-2.73182 -1.61177,-0.79038 -3.04418,-1.60055 -4.35894,-2.82886 -0.0989,-0.0924 -0.23365,-0.15482 -0.30181,-0.27179 -0.14406,-0.24717 -0.21371,-0.53076 -0.32057,-0.79614 -0.38123,-0.75714 -0.28801,-1.53721 -0.28823,-2.3743 -3.6e-4,-1.34637 -7.9e-4,-2.69275 -6e-4,-4.03912 9.5e-4,-3.37829 0.005,-6.756571 0.0178,-10.134831 0.008,-3.92671 0.0238,-7.85462 -0.12054,-11.77946 -0.1216,-3.35352 -0.44351,-6.73744 -0.041,-10.080128 0.69337,-3.46688 -4.20953,-4.44746 -4.9029,-0.98058 z" /><path
           style="fill:#000000;fill-opacity:1;stroke:none;stroke-width:2;stroke-dasharray:none;stroke-opacity:1;paint-order:normal"
           id="path114"
           d="m 195.25001,79.267378 c -0.16599,-2.672572 -0.22709,-5.349409 -0.2595,-8.026458 -0.0152,-1.178775 -0.002,-2.35756 0.007,-3.536305 0.003,-0.514271 0.003,-1.028555 0.003,-1.542835 -3e-5,-0.127606 0.0277,-0.258305 -1.8e-4,-0.382817 -0.0732,-0.32639 -0.2003,-0.638311 -0.30045,-0.957467 -0.21299,-0.231211 -0.38976,-0.502027 -0.63898,-0.693633 -0.55004,-0.422871 -1.40096,-0.57118 -2.06848,-0.413374 -0.50917,0.120373 -0.68834,0.270339 -1.07209,0.521773 -0.4522,0.305901 -0.73893,0.860701 -1.07879,1.221899 -0.22141,0.25308 -0.56381,0.505169 -0.84276,0.624747 -0.4729,0.202407 -0.84203,0.530292 -1.27402,0.769946 0.0151,-0.01363 0.0645,-0.04788 0.0454,-0.04089 -0.34588,0.1265 -0.26002,0.152463 -0.63746,0.334255 -0.0906,0.04361 -0.72021,0.175638 -0.75411,0.185038 -0.53062,0.170671 -1.07445,0.200977 -1.62584,0.196246 -0.0928,-0.002 -0.18624,0.0043 -0.27854,-0.006 -0.0131,-0.0015 -0.0412,-0.0282 -0.028,-0.02801 0.0661,9.22e-4 0.13543,0.004 0.19609,0.03036 0.15439,0.0671 0.35515,0.236451 0.36664,0.226114 0.024,-0.02159 -0.008,-0.0641 -0.0118,-0.09615 -0.0622,-0.628032 -0.0319,-1.263214 -0.0163,-1.893355 0.0188,-0.688311 0.0211,-1.376865 0.0209,-2.065379 -0.001,-0.724809 -0.002,-1.449617 -0.002,-2.174426 -1.1e-4,-0.650745 3e-5,-1.301489 8e-5,-1.952233 4e-5,-0.80137 3e-5,-1.602741 2e-5,-2.404111 0,-0.548008 0,-1.096017 0,-1.644025 0,-0.754452 0,-1.508904 0,-2.263356 0,-0.545135 0,-1.09027 0,-1.635405 0.0212,-0.405606 -0.0283,-0.816145 0,-1.221258 0.003,-0.04908 0.005,0.09828 0.007,0.147425 0.0811,-0.196597 -0.0378,0.150457 -0.083,0.211058 -0.36529,0.489793 -0.78583,0.504061 0.0882,0.37276 0.52876,-0.117304 1.07017,-0.140661 1.60971,-0.145339 0.49245,0.0034 0.98484,0.01127 1.47731,0.01382 0.58719,-0.02734 1.17339,0.09687 1.71249,0.332324 0.5585,0.292814 1.12584,0.548044 1.72891,0.741243 0.33245,0.16135 0.69784,0.231 1.03789,0.370026 1.98578,0.746115 3.04095,-2.062199 1.05517,-2.808314 v 0 c -0.39951,-0.144789 -0.80732,-0.260275 -1.1998,-0.425642 -0.54748,-0.161955 -1.02391,-0.446936 -1.54472,-0.677153 -0.88994,-0.324307 -1.81797,-0.578376 -2.77447,-0.532444 -0.50793,-0.0026 -1.01577,-0.01145 -1.5237,-0.0137 -0.69333,0.008 -1.38894,0.04259 -2.06952,0.18559 -0.30891,0.06487 -0.10151,0.02732 -0.62761,0.07711 -0.88114,0.169606 -1.59526,0.701341 -1.80449,1.600462 -0.0959,0.59055 -0.107,1.17375 -0.0894,1.772038 0,0.545135 0,1.09027 0,1.635405 0,0.754452 0,1.508904 0,2.263356 0,0.548015 0,1.096029 0,1.644044 1e-5,0.801288 2e-5,1.602576 -2e-5,2.403863 -5e-5,0.651172 -1.9e-4,1.302344 -8e-5,1.953515 2.5e-4,0.724802 0.001,1.449603 0.002,2.174404 2.3e-4,0.663591 -0.002,1.327222 -0.02,1.990618 -0.0234,0.953709 -0.0791,1.925523 0.15133,2.859837 0.46912,1.353396 1.11406,1.978356 2.60139,1.980851 0.82765,0.0035 1.64906,-0.06277 2.44597,-0.30534 0.1225,-0.03399 0.86249,-0.238138 0.93101,-0.262822 0.42017,-0.151369 0.77403,-0.379633 1.18382,-0.550367 0.32647,-0.20628 0.71606,-0.481004 0.89319,-0.571989 0.63462,-0.303865 1.25044,-0.69859 1.73281,-1.216654 0.11793,-0.123405 0.2423,-0.240966 0.3538,-0.370214 0.0702,-0.08134 0.12673,-0.173507 0.19009,-0.260261 0.0356,-0.05313 0.0771,-0.102755 0.10686,-0.159397 0.005,-0.0094 -0.0364,0.02005 -0.0295,0.01197 0.0551,-0.06477 0.13481,-0.110167 0.17613,-0.184466 0.0189,-0.03393 -0.0689,0.03578 -0.10339,0.05366 0.0259,-0.0212 0.11047,-0.05663 0.0777,-0.06361 -0.0772,-0.01645 -0.1559,0.03282 -0.23474,0.03014 -0.22871,-0.0078 -0.36283,-0.382447 -0.44755,-0.526811 -0.003,-0.12363 0.0761,-0.459317 -0.0104,-0.370889 -0.0889,0.09088 1.5e-4,0.254213 1.8e-4,0.38132 1.1e-4,0.506744 9e-5,1.013493 -0.003,1.520229 -0.009,1.198436 -0.0226,2.396912 -0.007,3.595378 0.0324,2.664771 0.0874,5.33003 0.25928,7.990049 0,2.121321 3,2.121321 3,0 z" /><path
           style="fill:#000000;fill-opacity:1;stroke:none;stroke-width:2;stroke-dasharray:none;stroke-opacity:1;paint-order:normal"
           id="path115"
           d="m 194.04299,53.027856 c 0.0493,0.02832 0.0952,0.06344 0.14784,0.08496 2.14715,0.878121 -1.1071,-0.505574 1.049,0.390441 0.45351,0.188467 0.88683,0.425473 1.32111,0.653321 0.97182,0.547057 1.74593,1.33508 2.50253,2.140018 0.84031,1.169702 1.72003,2.315519 2.41646,3.579459 0.68337,1.417889 1.17048,2.916025 1.57949,4.432296 0.27535,1.584525 0.3115,3.205316 0.40525,4.810027 0.0677,1.107542 0.0525,2.217633 0.0443,3.326522 -0.01,1.040141 -0.01,2.080336 -0.01,3.120512 4.8e-4,0.861576 9e-4,1.723153 10e-4,2.584729 -0.005,0.760346 -0.17325,1.508168 -0.23831,2.267144 -0.0312,0.560955 -0.0417,1.125007 -0.0142,1.686454 0.12396,2.117696 3.11883,1.942387 2.99487,-0.175308 v 0 c -0.0111,-0.419558 -0.0164,-0.840976 0.009,-1.260529 0.0685,-0.841816 0.2703,-1.670759 0.2488,-2.518162 -1.1e-4,-0.861396 -5.3e-4,-1.722791 -0.001,-2.584186 5e-5,-1.032854 1.2e-4,-2.065726 0.01,-3.098544 0.009,-1.174685 0.0229,-2.350575 -0.0493,-3.523796 -0.10591,-1.808964 -0.14056,-3.638883 -0.50406,-5.417674 -0.47433,-1.75153 -1.04397,-3.482537 -1.8554,-5.110567 -0.828,-1.47133 -1.82739,-2.83701 -2.85291,-4.175417 -0.98675,-1.045501 -2.02116,-2.044888 -3.2941,-2.74041 -1.09777,-0.574312 -2.2237,-1.084012 -3.4169,-1.43047 -2.09245,-0.348743 -2.58565,2.610439 -0.49319,2.959182 z" /><path
           style="fill:#000000;fill-opacity:1;stroke:none;stroke-width:2;stroke-dasharray:none;stroke-opacity:1;paint-order:normal"
           id="path119"
           d="m 237.475,79.017378 c 0.16599,-2.672572 0.22709,-5.349409 0.2595,-8.026458 0.0152,-1.178775 0.002,-2.35756 -0.007,-3.536305 -0.003,-0.514271 -0.003,-1.028555 -0.003,-1.542835 3e-5,-0.127606 -0.0277,-0.258305 1.8e-4,-0.382817 0.0732,-0.32639 0.2003,-0.638311 0.30045,-0.957467 0.21299,-0.231211 0.38976,-0.502027 0.63898,-0.693633 0.55004,-0.422871 1.40096,-0.57118 2.06848,-0.413374 0.50917,0.120373 0.68834,0.270339 1.07209,0.521773 0.4522,0.305901 0.73893,0.860701 1.07879,1.221899 0.22141,0.25308 0.56381,0.505169 0.84276,0.624747 0.4729,0.202407 0.84203,0.530292 1.27402,0.769946 -0.0151,-0.01363 -0.0645,-0.04788 -0.0454,-0.04089 0.34588,0.1265 0.26002,0.152463 0.63746,0.334255 0.0906,0.04361 0.72021,0.175638 0.75411,0.185038 0.53062,0.170671 1.07445,0.200977 1.62584,0.196246 0.0928,-0.002 0.18624,0.0043 0.27854,-0.006 0.0131,-0.0015 0.0412,-0.0282 0.028,-0.02801 -0.0661,9.22e-4 -0.13543,0.004 -0.19609,0.03036 -0.15439,0.0671 -0.35515,0.236451 -0.36664,0.226114 -0.024,-0.02159 0.008,-0.0641 0.0118,-0.09615 0.0622,-0.628032 0.0319,-1.263214 0.0163,-1.893355 -0.0188,-0.688311 -0.0211,-1.376865 -0.0209,-2.065379 10e-4,-0.724809 0.002,-1.449617 0.002,-2.174426 1.1e-4,-0.650745 -3e-5,-1.301489 -8e-5,-1.952233 -4e-5,-0.80137 -3e-5,-1.602741 -2e-5,-2.404111 0,-0.548008 0,-1.096017 0,-1.644025 0,-0.754452 0,-1.508904 0,-2.263356 0,-0.545135 0,-1.09027 0,-1.635405 -0.0212,-0.405606 0.0283,-0.816145 0,-1.221258 -0.003,-0.04908 -0.005,0.09828 -0.007,0.147425 -0.0811,-0.196597 0.0378,0.150457 0.083,0.211058 0.36529,0.489793 0.78583,0.504061 -0.0882,0.37276 -0.52876,-0.117304 -1.07017,-0.140661 -1.60971,-0.145339 -0.49245,0.0034 -0.98484,0.01127 -1.47731,0.01382 -0.58719,-0.02734 -1.17339,0.09687 -1.71249,0.332324 -0.5585,0.292814 -1.12584,0.548044 -1.72891,0.741243 -0.33245,0.16135 -0.69784,0.231 -1.03789,0.370026 -1.98578,0.746115 -3.04095,-2.062199 -1.05517,-2.808314 v 0 c 0.39951,-0.144789 0.80732,-0.260275 1.1998,-0.425642 0.54748,-0.161955 1.02391,-0.446936 1.54472,-0.677153 0.88994,-0.324307 1.81797,-0.578376 2.77447,-0.532444 0.50793,-0.0026 1.01577,-0.01145 1.5237,-0.0137 0.69333,0.008 1.38894,0.04259 2.06952,0.18559 0.30891,0.06487 0.10151,0.02732 0.62761,0.07711 0.88114,0.169606 1.59526,0.701341 1.80449,1.600462 0.0959,0.59055 0.107,1.17375 0.0894,1.772038 0,0.545135 0,1.09027 0,1.635405 0,0.754452 0,1.508904 0,2.263356 0,0.548015 0,1.096029 0,1.644044 -1e-5,0.801288 -2e-5,1.602576 2e-5,2.403863 5e-5,0.651172 1.9e-4,1.302344 8e-5,1.953515 -2.5e-4,0.724802 -0.001,1.449603 -0.002,2.174404 -2.3e-4,0.663591 0.002,1.327222 0.02,1.990618 0.0234,0.953709 0.0791,1.925523 -0.15133,2.859837 -0.46912,1.353396 -1.11406,1.978356 -2.60139,1.980851 -0.82765,0.0035 -1.64906,-0.06277 -2.44597,-0.30534 -0.1225,-0.03399 -0.86249,-0.238138 -0.93101,-0.262822 -0.42017,-0.151369 -0.77403,-0.379633 -1.18382,-0.550367 -0.32647,-0.20628 -0.71606,-0.481004 -0.89319,-0.571989 -0.63462,-0.303865 -1.25044,-0.69859 -1.73281,-1.216654 -0.11793,-0.123405 -0.2423,-0.240966 -0.3538,-0.370214 -0.0702,-0.08134 -0.12673,-0.173507 -0.19009,-0.260261 -0.0356,-0.05313 -0.0771,-0.102755 -0.10686,-0.159397 -0.005,-0.0094 0.0364,0.02005 0.0295,0.01197 -0.0551,-0.06477 -0.13481,-0.110167 -0.17613,-0.184466 -0.0189,-0.03393 0.0689,0.03578 0.10339,0.05366 -0.0259,-0.0212 -0.11047,-0.05663 -0.0777,-0.06361 0.0772,-0.01645 0.1559,0.03282 0.23474,0.03014 0.22871,-0.0078 0.36283,-0.382447 0.44755,-0.526811 0.003,-0.12363 -0.0761,-0.459317 0.0104,-0.370889 0.0889,0.09088 -1.5e-4,0.254213 -1.8e-4,0.38132 -1.1e-4,0.506744 -9e-5,1.013493 0.003,1.520229 0.009,1.198436 0.0226,2.396912 0.007,3.595378 -0.0324,2.664771 -0.0874,5.33003 -0.25928,7.990049 0,2.121321 -3,2.121321 -3,0 z" /><path
           style="fill:#000000;fill-opacity:1;stroke:none;stroke-width:2;stroke-dasharray:none;stroke-opacity:1;paint-order:normal"
           id="path120"
           d="m 238.68202,52.777856 c -0.0493,0.02832 -0.0952,0.06344 -0.14784,0.08496 -2.14715,0.878121 1.1071,-0.505574 -1.049,0.390441 -0.45351,0.188467 -0.88683,0.425473 -1.32111,0.653321 -0.97182,0.547057 -1.74593,1.33508 -2.50253,2.140018 -0.84031,1.169702 -1.72003,2.315519 -2.41646,3.579459 -0.68337,1.417889 -1.17048,2.916025 -1.57949,4.432296 -0.27535,1.584525 -0.3115,3.205316 -0.40525,4.810027 -0.0677,1.107542 -0.0525,2.217633 -0.0443,3.326522 0.01,1.040141 0.01,2.080336 0.01,3.120512 -4.8e-4,0.861576 -9e-4,1.723153 -0.001,2.584729 0.005,0.760346 0.17325,1.508168 0.23831,2.267144 0.0312,0.560955 0.0417,1.125007 0.0142,1.686454 -0.12396,2.117696 -3.11883,1.942387 -2.99487,-0.175308 v 0 c 0.0111,-0.419558 0.0164,-0.840976 -0.009,-1.260529 -0.0685,-0.841816 -0.2703,-1.670759 -0.2488,-2.518162 1.1e-4,-0.861396 5.3e-4,-1.722791 10e-4,-2.584186 -5e-5,-1.032854 -1.2e-4,-2.065726 -0.01,-3.098544 -0.009,-1.174685 -0.0229,-2.350575 0.0493,-3.523796 0.10591,-1.808964 0.14056,-3.638883 0.50406,-5.417674 0.47433,-1.75153 1.04397,-3.482537 1.8554,-5.110567 0.828,-1.47133 1.82739,-2.83701 2.85291,-4.175417 0.98675,-1.045501 2.02116,-2.044888 3.2941,-2.74041 1.09777,-0.574312 2.2237,-1.084012 3.4169,-1.43047 2.09245,-0.348743 2.58565,2.610439 0.49319,2.959182 z" /><path
           id="path125"
           style="fill:#000000;fill-opacity:1;stroke:none;stroke-width:2;stroke-dasharray:none;stroke-opacity:1;paint-order:normal"
           d="m 211.63281,59.736328 c -1.92918,0.01644 -3.85845,0.07159 -5.7832,0.208984 -0.40787,0.0203 -0.81643,0.03105 -1.22461,0.03516 0.007,0.02619 0.0144,0.05194 0.0215,0.07813 0.26472,0.998674 0.60226,1.973515 0.86524,2.972656 0.15191,0.631938 0.27651,1.273227 0.3125,1.919922 0.0846,-0.0029 0.16931,-0.0062 0.2539,-0.0098 1.86271,-0.133174 3.72868,-0.189711 5.59571,-0.205078 1.59725,0.0012 3.19572,0.01053 4.79297,0.01367 2.22588,-0.05377 4.44365,0.144133 6.66015,0.318359 1.28167,0.113626 2.56657,0.168177 3.85157,0.191407 0.0202,-0.444568 0.0678,-0.889041 0.11718,-1.328125 0.15645,-1.130497 0.36581,-2.258516 0.81641,-3.314453 0.046,-0.115112 0.0934,-0.229109 0.14062,-0.34375 -1.51253,-0.0095 -3.02469,-0.0543 -4.5332,-0.189454 -2.3435,-0.184206 -4.68966,-0.387022 -7.04297,-0.333984 -1.61449,-0.0032 -3.22927,-0.01301 -4.84375,-0.01367 z m 23.15625,1.060547 c -0.0188,1.84e-4 -0.0377,1.99e-4 -0.0566,0.002 -0.01,0.01742 -0.0205,0.03539 -0.0312,0.05469 0.0483,-0.0172 0.0953,-0.03478 0.14258,-0.05469 -0.0186,-0.0017 -0.0359,-0.0021 -0.0547,-0.002 z m 15.30469,3.419922 c -0.17141,0.986897 -0.32755,1.975011 -0.4707,2.966797 -0.11463,0.666724 -0.19824,1.391138 -0.39453,2.068359 1.44851,0.61472 2.83333,1.366572 4.20898,2.134766 0.5812,0.25062 1.12151,0.571297 1.63867,0.93164 0.33897,0.765131 0.76329,1.522124 1.23438,2.222657 0.71385,0.797092 0.30729,0.423315 1.24023,1.103515 2.99133,1.81735 5.56597,-2.353902 2.68555,-4.21875 -0.37796,-0.59123 -0.62206,-1.263722 -0.98633,-1.863281 -0.11445,-0.15964 -0.21501,-0.330148 -0.34375,-0.478516 -0.80929,-0.932731 -1.95238,-1.510527 -3.03125,-2.064453 -1.87378,-1.045399 -3.77065,-2.046925 -5.78125,-2.802734 z m -67.04102,0.279297 c -0.8586,0.527748 -1.73061,1.031713 -2.6582,1.429687 -1.6201,0.79424 -3.09643,1.851748 -4.45508,3.03711 -0.27847,0.269437 -0.5678,0.526908 -0.83593,0.80664 -0.87185,0.90957 -1.55313,1.967549 -2.36329,2.927735 -2.20863,2.760789 1.69567,5.883836 3.9043,3.123046 0.61066,-0.683164 1.09634,-1.466577 1.68359,-2.167968 0.40533,-0.484105 0.59964,-0.63849 1.06446,-1.074219 0.99001,-0.761308 1.97031,-1.635645 3.13281,-2.128906 0.9007,-0.391782 1.76088,-0.86486 2.60352,-1.367188 -0.37605,-0.573291 -0.6849,-1.194031 -0.97852,-1.80664 -0.40119,-0.910893 -0.8025,-1.828404 -1.09766,-2.779297 z m 77.22852,6.998047 c 0.10542,0.09104 0.08,0.0503 0.14063,0.199218 -0.0492,-0.06507 -0.0956,-0.131538 -0.14063,-0.199218 z m -5.18164,0.839843 c 0.0207,0.01449 0.0419,0.03031 0.0625,0.04492 0.0449,0.03184 0.16135,0.08894 0.18555,0.119141 l 0.002,0.002 v 0.002 0.002 0.002 0.002 l -0.002,0.002 -0.002,0.002 h -0.002 l -0.002,0.002 h -0.002 -0.002 l -0.002,0.002 h -0.002 -0.002 -0.002 c -0.0411,-0.0022 -0.1638,-0.118051 -0.23047,-0.181641 z" /><path
           id="path129"
           style="fill:#000000;fill-opacity:1;stroke:none;stroke-width:2;stroke-dasharray:none;stroke-opacity:1;paint-order:normal"
           d="m 201.01758,34.029297 c -1.23931,0.05384 -2.47916,0.127627 -3.71485,0.236328 -0.87167,0.08299 -1.74461,0.09717 -2.61523,0.1875 -0.96554,0.14514 -1.9403,0.294281 -2.85938,0.636719 -1.0087,0.35758 -2.01499,0.726719 -3.00195,1.140625 -0.80512,0.382982 -1.58677,0.807048 -2.37109,1.230469 -1.04253,0.453119 -2.0689,0.947793 -3.01563,1.582031 -0.92918,0.676267 -1.80965,1.420713 -2.51562,2.335937 -0.58031,0.655974 -1.19116,1.279974 -1.76953,1.9375 -0.54322,0.593796 -1.05394,1.214703 -1.56055,1.839844 -0.43076,0.5403 -0.92155,1.031092 -1.38281,1.544922 -0.68967,0.732003 -1.36353,1.4897 -1.92774,2.324219 -0.38099,0.632922 -0.72586,1.28604 -1.07031,1.939453 -0.28234,0.605832 -0.50042,1.237669 -0.8125,1.830078 -0.59618,1.154273 -1.20674,2.302395 -1.75,3.482422 -0.12247,0.33113 -0.26271,0.655557 -0.36914,0.992187 -0.30632,0.968869 -0.34196,2.003896 -0.29102,3.009766 0.0911,0.724301 0.0949,1.192075 0.65821,1.878906 0.77715,0.947631 1.82611,1.13518 2.9414,1.189453 1.06092,0.04705 2.12378,0.02112 3.18555,0.02734 0.97579,2.5e-5 1.95196,-6.6e-4 2.92773,0 0.91167,3.89e-4 1.82274,0.0014 2.73438,0 -0.0116,-0.06446 -0.0225,-0.12914 -0.0332,-0.193359 -0.13419,-0.842053 -0.23161,-1.688719 -0.22461,-2.542969 -6.5e-4,-0.762899 0.055,-1.522082 0.24023,-2.263672 -0.90476,0.0014 -1.81008,3.96e-4 -2.71484,0 -0.97646,-6.6e-4 -1.95324,2.5e-5 -2.92969,0 -0.53519,-0.01114 -1.07167,3.36e-4 -1.60742,0.0039 0.0388,-0.08862 0.0892,-0.172316 0.13086,-0.259765 0.50033,-1.015201 1.02146,-2.02251 1.54297,-3.027344 0.2563,-0.491942 0.48054,-0.997804 0.68359,-1.513672 0.14671,-0.372728 0.0658,-0.217562 0.1875,-0.431641 0.28328,-0.501024 0.52731,-1.025377 0.83594,-1.511718 0.40615,-0.511023 0.82763,-1.014539 1.2832,-1.482422 0.55723,-0.602723 1.11681,-1.204093 1.63867,-1.837891 0.44665,-0.545657 0.88646,-1.097155 1.36524,-1.615234 0.5991,-0.680871 1.23281,-1.328369 1.83398,-2.007813 0.46965,-0.629002 1.04907,-1.13943 1.6875,-1.58789 0.66274,-0.412157 1.3662,-0.745041 2.08203,-1.052735 0.85166,-0.415639 1.66752,-0.897778 2.52539,-1.300781 0.83784,-0.331818 1.68361,-0.646584 2.53321,-0.947266 0.61473,-0.223384 1.27065,-0.31063 1.91601,-0.402343 0.78519,-0.04519 1.57163,-0.08413 2.35547,-0.15625 1.15253,-0.100717 2.30697,-0.169498 3.46289,-0.21875 1.22685,-0.04646 2.45432,-0.05474 3.67969,0.01953 1.11759,0.05117 2.23414,0.11448 3.35156,0.169922 1.27875,0.05615 2.55829,0.0446 3.83789,0.04102 1.49273,-0.01922 2.98293,-0.0074 4.47461,0.04687 1.59247,0.103246 3.19477,0.145218 4.78125,0.326172 1.19537,0.236991 2.41708,0.250504 3.63086,0.263672 0.79481,0.0066 1.58807,-0.01288 2.38281,-0.01758 1.24757,-0.0029 2.49657,-4.73e-4 3.74414,0 0.88699,-0.0078 1.77277,0.02455 2.65821,-0.0332 0.79713,-0.108715 1.60376,-0.09618 2.40625,-0.09961 1.09885,-0.0013 2.19803,0.0055 3.29687,0.0078 0.70977,0.0823 1.38231,0.312347 2.06446,0.513672 0.74646,0.172776 1.46799,0.431285 2.19531,0.667969 0.44679,0.147904 0.90249,0.277547 1.32812,0.482421 0.16639,0.08009 0.31568,0.193092 0.47461,0.28711 0.11664,0.07298 0.23195,0.147422 0.34961,0.21875 0.36564,0.221656 0.7416,0.429302 1.0918,0.675781 0.32925,0.231731 0.64625,0.48162 0.96875,0.722656 0.5477,0.382894 1.06908,0.800042 1.51172,1.302735 0.156,0.177163 0.30114,0.364014 0.45508,0.542968 0.46205,0.516346 0.8214,1.108866 1.22265,1.671876 0.47943,0.599812 0.95375,1.200997 1.36914,1.847656 0.40164,0.668557 0.81076,1.332301 1.1836,2.017578 0.34512,0.677413 0.71278,1.339993 1.0039,2.042969 0.25404,0.638393 0.53109,1.266922 0.73438,1.923828 0.16268,0.438748 0.23473,0.904658 0.37695,1.349609 0.10076,0.315246 0.22104,0.625808 0.33789,0.935547 0.23866,0.777672 0.51693,1.541967 0.77149,2.314453 0.0581,0.16757 0.11777,0.335654 0.17382,0.503906 0.0235,0.07049 0.0464,0.139964 0.0684,0.210938 -2.10964,-0.108893 -4.21805,-0.241405 -6.32617,-0.375 -0.76152,-0.05401 -1.52291,-0.09813 -2.28515,-0.132813 -0.006,0.667518 0.0333,1.33482 0.0937,2 0.0663,0.631628 0.18521,1.255771 0.28321,1.882813 0.0294,0.38842 0.1224,0.764047 0.2207,1.138672 0.002,0.0053 0.004,0.01033 0.006,0.01563 0.4555,0.02485 0.91,0.05352 1.36523,0.08594 3.27127,0.207258 6.54413,0.416885 9.82032,0.527344 2.59934,0 3.28721,-2.701529 2.06445,-4.132812 0.0128,-0.337551 0.0159,-0.676005 -0.0391,-1.011719 -0.1619,-0.779615 -0.44346,-1.523565 -0.69727,-2.277344 -0.27684,-0.840085 -0.57464,-1.67235 -0.84179,-2.515625 -0.0637,-0.168689 -0.14133,-0.33247 -0.19727,-0.503906 -0.16387,-0.502159 -0.24163,-1.030286 -0.42969,-1.525391 -0.25699,-0.799574 -0.56975,-1.577574 -0.89062,-2.353515 -0.36522,-0.859505 -0.79657,-1.683337 -1.23047,-2.509766 -0.43807,-0.793424 -0.90516,-1.569201 -1.37891,-2.341797 -0.45999,-0.699149 -0.94999,-1.376641 -1.48633,-2.019531 -0.48964,-0.68627 -0.93688,-1.403682 -1.5039,-2.03125 -0.21166,-0.245505 -0.41472,-0.498471 -0.63281,-0.738282 -0.6354,-0.698678 -1.36232,-1.305189 -2.13086,-1.851562 -0.36441,-0.272146 -0.85704,-0.645838 -1.22852,-0.904297 -0.38107,-0.265136 -0.7851,-0.494108 -1.18164,-0.734375 -0.15671,-0.09495 -0.31108,-0.192491 -0.4668,-0.289062 -0.44182,-0.25669 -0.60799,-0.364742 -1.08984,-0.591797 -0.5433,-0.256011 -1.12244,-0.429934 -1.69141,-0.617188 -0.77092,-0.250798 -1.53579,-0.521438 -2.32617,-0.707031 -1.13659,-0.335444 -2.27535,-0.681833 -3.4707,-0.71875 -1.10973,-0.0023 -2.22035,-0.0093 -3.33008,-0.0078 -0.9313,0.0043 -1.86558,-0.0033 -2.79102,0.117187 -0.19095,0.03356 -0.0597,0.01564 -0.39843,0.01563 -0.61689,-2.8e-5 -1.23467,2.48e-4 -1.85157,0 -1.25831,-5e-4 -2.51512,-0.003 -3.77343,0 -0.76737,0.0047 -1.53532,0.02269 -2.30274,0.01758 -1.05097,-0.01035 -2.10457,-0.02117 -3.13867,-0.234375 -1.70866,-0.18189 -3.42764,-0.254008 -5.14258,-0.351562 -1.55686,-0.05649 -3.11202,-0.07064 -4.66992,-0.05078 -1.19273,0.0034 -2.38611,0.01503 -3.57812,-0.03516 -1.09989,-0.05396 -2.19882,-0.115656 -3.29883,-0.166015 -1.39665,-0.08286 -2.79521,-0.08042 -4.19336,-0.02539 z m -27.74219,24.265625 h 0.002 0.002 c 8.7e-4,5e-5 0.005,-1.8e-5 0.006,0 0.0708,-0.0065 0.15606,0.0096 0.24609,0.04102 -0.13014,-0.01351 -0.24028,-0.0269 -0.25977,-0.03516 v -0.002 -0.002 h 0.002 z m 31.08008,0.71875 c 0.13005,0.889825 0.26435,1.779576 0.39062,2.669922 0.10042,0.79487 0.27772,1.575567 0.44922,2.357422 0.1309,0.0039 0.26168,0.0077 0.39258,0.01172 2.29338,0.12779 4.58532,0.280245 6.88086,0.365235 2.86038,0.102082 5.72209,0.08815 8.58398,0.08203 2.08995,2.87e-4 4.17959,-6.4e-5 6.26954,0.0059 0.31301,6.03e-4 0.62643,0.0016 0.93945,0.002 0.10189,-0.442992 0.20738,-0.885435 0.29297,-1.332031 0.17758,-0.94688 0.33124,-1.898435 0.51758,-2.84375 0.0568,-0.275147 0.11492,-0.549851 0.17578,-0.824219 -0.63888,7.91e-4 -1.27732,-6.19e-4 -1.91602,-0.002 -2.09294,-0.0058 -4.18635,-0.0056 -6.2793,-0.0059 -2.80207,0.0037 -5.60177,0.02374 -8.40234,-0.07813 -2.26259,-0.08464 -4.5227,-0.234972 -6.7832,-0.361328 -0.50408,-0.01623 -1.00762,-0.03191 -1.51172,-0.04687 z" /></g></g></g></svg>
