<?xml version="1.0" encoding="UTF-8" standalone="no"?>
<!-- Created with Inkscape (http://www.inkscape.org/) -->

<svg
   width="49.83136"
   height="76.328941"
   viewBox="0 0 49.83136 76.328941"
   version="1.1"
   id="svg1"
   xml:space="preserve"
   xmlns="http://www.w3.org/2000/svg"
   xmlns:svg="http://www.w3.org/2000/svg"><defs
     id="defs1" /><g
     id="g10"
     style="display:inline"
     transform="translate(-107.9359,-126.12783)"><g
       id="layer9"
       style="display:inline"
       transform="matrix(0.5,0,0,0.5,66.425791,82.14615)"><g
         id="path45"
         style="opacity:1"
         transform="matrix(0.90835,0.29736302,-0.41821081,0.64586972,74.274859,14.177578)"><path
           style="baseline-shift:baseline;display:inline;overflow:visible;vector-effect:none;fill:#c3c3c3;enable-background:accumulate;stop-color:#000000;stop-opacity:1"
           d="m 124.92836,139.29678 c -0.0178,-2.52699 -0.0894,-5.05554 -0.0628,-7.58047 -0.0447,-2.5589 -0.0887,-5.12217 -0.34344,-7.68326 -0.17354,-1.74492 -0.25232,-2.07869 -0.52706,-3.80217 -0.87656,-4.35923 -2.26912,-8.63412 -3.51812,-12.92582 -0.83011,-2.91834 -1.5495,-5.85704 -2.2791,-8.793746 -0.0931,-0.35932 -0.18237,-0.719351 -0.27924,-1.077971 -0.18308,-0.677827 -0.27219,-0.87497 -0.38753,-1.494026 -0.0941,-0.504858 -0.15203,-1.013245 -0.2275,-1.519918 -0.61476,-4.121191 -6.71807,-3.628455 -6.1033,0.49274 v 0 c 0.23443,1.569431 0.52498,3.093716 1.00095,4.629356 0.7484,3.011295 1.48651,6.024625 2.33927,9.016835 1.18229,4.06208 2.49644,8.10799 3.36103,12.22838 0.24581,1.51662 0.31808,1.8224 0.47401,3.36315 0.24212,2.39224 0.27821,4.78658 0.32538,7.17701 -0.0252,2.64303 0.0426,5.28938 0.0706,7.93496 0.22301,4.13582 6.37986,4.17077 6.15685,0.035 z"
           id="path97" /><path
           style="baseline-shift:baseline;display:inline;overflow:visible;vector-effect:none;fill:#404040;enable-background:accumulate;stop-color:#000000;stop-opacity:1"
           d="m 115.1674,90.739595 c -0.50207,-0.133377 -1.02102,-0.175892 -1.52236,-0.135418 -1.00268,0.08095 -1.96682,0.500649 -2.63983,1.263341 -0.67302,0.762691 -1.01035,1.868222 -0.82251,3.127476 0.23809,1.593909 0.53739,3.16889 1.03424,4.771912 0.74334,2.991444 1.47788,5.997314 2.33217,8.994864 l 0.002,0.002 -3.7e-4,0.004 c 1.18653,4.07667 2.48843,8.09449 3.33888,12.14241 0.24197,1.49046 0.31057,1.76659 0.46348,3.27743 0.23583,2.33026 0.27273,4.69066 0.3197,7.07471 -0.0254,2.66462 0.0428,5.31771 0.0708,7.95405 l 2.4e-4,0.0191 0.002,0.0213 c 0.0681,1.26372 0.6263,2.3347 1.44842,3.04157 0.82212,0.70686 1.86405,1.05256 2.87552,1.0583 1.01146,0.006 2.01845,-0.32834 2.76481,-1.02629 0.74557,-0.69721 1.18744,-1.76264 1.12048,-3.02458 -0.0184,-2.52641 -0.0879,-5.03551 -0.0617,-7.5233 l -7.7e-4,-0.0135 0.001,-0.0132 c -0.0447,-2.55872 -0.0891,-5.14647 -0.34892,-7.75831 -0.17515,-1.76102 -0.25973,-2.14346 -0.53303,-3.85791 l -0.004,-0.0197 -0.004,-0.0178 c -0.89094,-4.43074 -2.29282,-8.73044 -3.53561,-13.00031 l -0.001,-0.006 c -0.82285,-2.89336 -1.53839,-5.81995 -2.26804,-8.756815 l -0.002,-0.0041 -0.002,-0.0041 c -0.0914,-0.35286 -0.18156,-0.715924 -0.28192,-1.087465 -0.1914,-0.708646 -0.26347,-0.852481 -0.36929,-1.420389 -0.0859,-0.460813 -0.14454,-0.957666 -0.22321,-1.485774 -0.18784,-1.259253 -0.84149,-2.284571 -1.72332,-2.921735 -0.44092,-0.318582 -0.92759,-0.542567 -1.42967,-0.675941 z m -1.23178,1.806456 c 0.52316,-0.04224 1.0607,0.09552 1.47693,0.396265 0.41622,0.300745 0.75483,0.758654 0.87437,1.559996 0.0723,0.485236 0.13055,1.005034 0.23283,1.553936 0.12488,0.670205 0.22886,0.921348 0.40362,1.568357 0.0934,0.34571 0.18299,0.702003 0.27774,1.067793 0.72822,2.931242 1.44885,5.878342 2.28456,8.816392 l 0.002,0.002 -3.8e-4,0.004 c 1.25266,4.30427 2.63176,8.54628 3.49383,12.82457 0.273,1.71104 0.3479,2.00923 0.51904,3.72997 0.2488,2.50144 0.29313,5.03125 0.33767,7.58112 -0.0268,2.54879 0.0448,5.08396 0.0626,7.59788 l 5e-5,0.021 0.002,0.0213 c 0.0434,0.80418 -0.20051,1.28409 -0.55279,1.61353 -0.35229,0.32945 -0.85767,0.50522 -1.38541,0.50224 -0.52774,-0.003 -1.0509,-0.18328 -1.43894,-0.51692 -0.38805,-0.33364 -0.6833,-0.81715 -0.72666,-1.62134 -0.0284,-2.64122 -0.0949,-5.26942 -0.07,-7.87759 l -7.7e-4,-0.0135 0.001,-0.0132 c -0.0471,-2.38756 -0.0835,-4.80653 -0.33097,-7.2519 -0.15761,-1.55727 -0.23583,-1.91161 -0.48018,-3.41912 l -0.004,-0.0216 -0.006,-0.0219 c -0.87837,-4.18604 -2.20063,-8.25389 -3.37686,-12.29471 l -0.001,-0.006 c -0.84543,-2.967 -1.5812,-5.96782 -2.32963,-8.979229 l -0.006,-0.02747 -0.01,-0.02617 c -0.45508,-1.468257 -0.73589,-2.940708 -0.96666,-4.485664 -0.11954,-0.801343 0.0758,-1.302635 0.39344,-1.662629 0.31767,-0.359994 0.80085,-0.579316 1.324,-0.621552 z"
           id="path98" /></g><g
         id="g14"
         transform="rotate(31.140179,131.51011,177.0212)"><g
           id="g18"><path
             style="fill:#e5e5e5;fill-opacity:1;stroke-width:0.75;paint-order:stroke fill markers"
             d="m 128.43995,149.6294 c -5.98294,0.12358 -11.99937,-0.16718 -17.96095,0.37906 -4.14037,0.87374 -8.44063,1.35649 -12.364249,3.00522 -2.769543,1.39747 -2.898275,4.97982 -3.079102,7.69043 -0.190981,3.83594 1.595942,7.39808 1.998047,11.13916 0.688551,3.12015 0.727806,6.31574 -0.152344,9.33252 -0.544929,2.8861 -0.515541,5.92223 -0.0029,8.80322 1.033006,2.11488 2.781525,3.94307 4.616708,5.33836 7.97293,0.15658 16.02919,-0.0691 24.03452,-0.0854 11.75298,-0.21512 23.52709,-0.11533 35.25844,-0.92879 2.56061,-1.62666 4.66536,-4.4469 4.66651,-7.6206 0.1016,-8.09724 -1.31684,-16.11184 -1.73548,-24.18384 -0.35273,-2.46719 -0.0531,-5.26754 -1.43981,-7.4397 -2.86953,-2.90904 -6.59146,-5.43189 -10.85157,-5.28174 -7.65821,-0.25566 -15.32645,-0.11317 -22.98779,-0.14795 z"
             id="path14" /><path
             style="fill:#e5e5e5;fill-opacity:1;stroke-width:0.75;paint-order:stroke fill markers"
             d="m 142.75294,198.22706 c -10.93765,0.21706 -21.89479,0.31733 -32.84034,0.44629 -1.77529,0.56978 -0.64954,2.8931 -0.89213,4.27836 0.19107,3.08688 -0.0179,6.24895 0.5186,9.28951 1.32062,1.60807 3.77028,0.79672 5.56689,1.01123 11.26301,-0.2242 22.53806,-0.2947 33.78879,-0.86423 2.09754,0.19667 1.57581,-2.21718 1.60526,-3.55569 -0.1185,-3.35697 0.26925,-6.82279 -0.45357,-10.10573 -0.95659,-1.27252 -2.98192,-0.33158 -4.39173,-0.56548 -0.96726,0.0219 -1.93452,0.0438 -2.90177,0.0657 z"
             id="path18" /><path
             style="fill:#e5e5e5;fill-opacity:1;stroke-width:0.75;paint-order:stroke fill markers"
             d="m 132.75635,139.18018 c -4.31105,0.1132 -8.65474,-0.0477 -12.93896,0.50586 -1.57776,0.78585 -0.51877,2.95133 -0.73846,4.37148 -0.42495,1.70601 0.93331,2.76502 2.54608,2.31478 6.05347,-0.0591 12.15148,0.12167 18.17716,-0.0871 1.43733,-0.72214 0.40587,-2.70593 0.40243,-4.01666 -0.19749,-1.35847 -0.5376,-3.25998 -2.35924,-2.93893 -1.68758,-0.20544 -3.39315,-0.13665 -5.08901,-0.14945 z"
             id="path22" /></g><g
           id="g13"><path
             style="fill:#808080;fill-opacity:1;stroke-width:3;paint-order:stroke fill markers"
             id="path12"
             d="m 114.25001,217.13611 c 0.035,3.62412 -0.16824,7.24445 -0.32292,10.86385 -0.15553,3.92919 -0.21591,7.86157 -0.20132,11.79364 0.002,0.19306 0.005,0.38611 0.007,0.57917 0.0506,4.24234 6.05012,4.17085 5.99957,-0.0715 v 0 c -0.002,-0.17675 -0.004,-0.35349 -0.006,-0.53024 -0.0146,-3.83915 0.0445,-7.6786 0.19589,-11.51495 0.15826,-3.70473 0.36388,-7.41043 0.32839,-11.11998 0,-4.24264 -6,-4.24264 -6,0 z" /><path
             style="fill:#808080;fill-opacity:1;stroke-width:3;paint-order:stroke fill markers"
             id="path13"
             d="m 141.00001,216.68437 c 0.19204,2.78189 0.23388,5.56984 0.25952,8.35726 0.0148,2.66143 2.7e-4,5.3229 -0.007,7.98433 -0.004,1.33216 -0.004,2.66433 -0.003,3.9965 5.4e-4,0.96741 6e-4,1.93481 6.1e-4,2.90222 1e-5,4.24264 6.00001,4.24262 6,-2e-5 v 0 c -10e-6,-0.96846 -8e-5,-1.93693 -6.1e-4,-2.90539 -7e-4,-1.32545 -9e-4,-2.65089 0.003,-3.97634 0.008,-2.68559 0.0223,-5.37122 0.007,-8.05682 -0.0258,-2.76844 -0.0539,-5.53952 -0.25926,-8.30174 0,-4.24264 -6,-4.24264 -6,0 z" /><path
             style="fill:#000000;stroke-width:3;paint-order:stroke fill markers"
             id="path6"
             d="m 105.00001,200.77221 c -8e-4,3.60673 -0.0905,7.2091 0.23299,10.80459 0.21334,1.76277 0.0886,3.29001 1.61081,4.56268 0.30898,0.25834 0.72907,0.34246 1.09361,0.51369 3.4998,0.97224 7.22023,0.85985 10.82544,0.89879 3.85361,-0.21355 7.69765,-0.49546 11.5575,-0.56946 2.76582,-0.0364 5.53187,-0.002 8.29774,0.0119 1.8699,0.009 3.73984,0.008 5.60976,0.007 1.23654,-0.1138 2.4293,-0.45684 3.67039,-0.52495 1.14941,0.0302 2.25017,0.0136 3.35998,-0.32673 2.8327,-0.71859 3.14167,-3.37733 3.32241,-5.81879 0.0599,-1.9966 -0.0327,-3.99351 -0.0726,-5.98971 -0.0221,-1.2102 -0.0133,-2.42066 -0.0109,-3.63098 -0.0386,-0.35421 -0.0771,-0.70843 -0.11571,-1.06264 -0.45223,-3.50649 -5.41116,-2.86695 -4.95893,0.63954 v 0 c 0.0249,0.1378 0.0498,0.2756 0.0747,0.41339 -0.002,1.2469 -0.0113,2.49395 0.0119,3.74072 0.0371,1.85368 0.11871,3.70767 0.0823,5.56184 -0.0152,0.2865 -0.022,0.57356 -0.0454,0.8595 -0.0721,0.8796 -0.14028,0.7392 0.70475,0.33256 0.0355,-0.0171 -0.0646,0.0453 -0.0969,0.0679 -0.1487,0.0444 -0.29739,0.0888 -0.44609,0.13316 -0.0476,0.0194 -0.16793,0.0134 -0.14277,0.0582 0.0316,0.0563 0.25596,0.0244 0.19155,0.0287 -0.7183,0.048 -1.44814,-0.0761 -2.167,0.003 -1.13503,0.0752 -2.26019,0.23859 -3.36482,0.51541 -1.86063,0.001 -3.72126,0.003 -5.58187,-0.007 -2.80632,-0.0139 -5.61283,-0.049 -8.4191,-0.011 -3.80968,0.0743 -7.60541,0.33022 -11.40751,0.56882 -3.05154,-0.0321 -6.19073,0.0638 -9.18126,-0.6021 0.43402,0.38953 0.40879,0.33109 0.82119,1.13894 0.0405,0.0793 0.0296,0.35446 0.0164,0.26645 -0.11081,-0.74009 -0.14741,-1.49261 -0.26014,-2.23255 -0.31842,-3.44352 -0.19921,-6.89622 -0.21236,-10.35078 0,-3.53553 -5,-3.53553 -5,0 z" /><path
             style="fill:#000000;stroke-width:3;paint-order:stroke fill markers"
             id="path7"
             d="m 159.82433,193.50001 c -4.70245,0.36581 -9.41882,0.46174 -14.13327,0.51897 -3.8505,-0.0723 -7.68209,0.0275 -11.51918,0.3327 -3.54903,0.2192 -7.10773,0.18303 -10.66171,0.17245 -2.81192,-0.0144 -5.62385,-0.024 -8.43581,-0.0259 -2.33304,1.2e-4 -4.66608,0.001 -6.99912,0.002 -1.89157,2.8e-4 -3.78314,1.5e-4 -5.67471,1e-4 -0.22273,-0.0277 -0.45241,-0.0213 -0.66818,-0.0831 -0.0892,-0.0256 -0.14241,-0.11953 -0.21949,-0.17117 -0.92574,-0.62021 -1.45615,-1.12391 -2.128375,-2.0246 -0.617084,-1.01407 -1.636015,-1.78752 -1.84696,-2.99718 -0.173005,-2.09225 -0.09865,-4.19678 -0.07099,-6.29358 0.05651,-1.57259 0.647477,-3.02542 0.942574,-4.55438 0.282838,-1.67864 0.13527,-3.35578 -0.145713,-5.02115 -0.312516,-1.74451 -0.715906,-3.47222 -1.053374,-5.21386 -0.07366,-1.60334 -0.887421,-3.0185 -1.241596,-4.54916 -0.08599,-1.163 -0.0188,-2.33654 0.0066,-3.50206 0.05131,-1.72663 0.268866,-3.5972 1.110255,-5.13207 0.203815,-0.28921 0.384447,-0.63943 0.70518,-0.82914 0.08555,-0.0506 0.197325,-0.0386 0.286625,-0.0822 0.283472,-0.13854 0.539908,-0.32931 0.826303,-0.46171 0.181579,-0.0839 1.825501,-0.64044 1.863491,-0.65345 1.94672,-0.50898 3.92826,-0.84952 5.8899,-1.28926 2.00296,-0.58414 4.09789,-0.84062 6.17079,-1.04748 2.7327,-0.21412 5.47703,-0.14119 8.21507,-0.12131 2.1782,0.0209 4.35643,0.0299 6.53472,0.0299 2.18393,-0.002 4.36786,-0.003 6.5518,-0.003 2.49445,-1.8e-4 4.98889,3e-5 7.48334,9e-5 2.00446,4e-5 4.00892,4e-5 6.01338,3e-5 1.39221,0 2.78441,0 4.17662,0 1.72929,0.16197 3.43062,0.61609 4.97768,1.40734 1.40771,0.6808 2.54073,1.74044 3.79624,2.643 0.28693,0.29206 0.65758,0.48485 0.95401,0.76446 0.34693,0.32725 0.63916,1.51966 0.76527,1.94367 0.37654,2.37338 0.59226,4.77387 0.70295,7.17458 -0.029,2.24975 0.35963,4.47279 0.50456,6.7119 0.30422,1.6427 0.47345,3.29533 0.52521,4.96391 0.10536,1.8545 0.3712,3.69288 0.46504,5.55292 0.0611,2.08061 0.0321,4.16242 0.0158,6.24347 -0.19843,0.9592 -0.63634,1.84673 -1.03151,2.73334 -0.30338,0.64849 -0.86507,0.99213 -1.385,1.50072 -0.5281,0.46175 -0.97384,0.99271 -1.51019,1.42669 -0.55893,0.62816 -1.20109,1.15204 -1.91217,1.59514 -0.43006,0.22655 -1.00254,0.35359 -1.55013,0.38432 -0.92896,0.0143 -1.85786,-0.0245 -2.78668,-0.0396 -0.17173,-0.002 -0.34346,-0.004 -0.51519,-0.005 -3.53534,-0.0363 -3.58663,4.96347 -0.0513,4.99973 v 0 c 0.16176,0.002 0.32352,0.003 0.48528,0.005 1.09343,0.0177 2.18769,0.0722 3.28091,0.0232 1.40363,-0.13261 2.71572,-0.50247 3.93689,-1.22463 0.77486,-0.53876 1.74464,-1.0931 2.27988,-1.86903 0.69061,-0.56964 1.26447,-1.22014 1.93039,-1.81282 0.24616,-0.33675 -0.088,0.0997 0.60212,-0.53902 0.74366,-0.68837 1.36109,-1.52574 1.77981,-2.44903 0.62811,-1.51478 1.37932,-3.01049 1.44671,-4.68952 0.017,-2.1791 0.0475,-4.3591 -0.0222,-6.53764 -0.0589,-1.1403 -0.12729,-2.27607 -0.26515,-3.4102 -0.0498,-0.40946 -0.16062,-0.81154 -0.18752,-1.22314 -0.018,-0.27451 -0.006,-0.55017 -0.008,-0.82526 -0.0571,-1.72249 -0.18504,-3.44334 -0.53363,-5.13481 -0.14985,-2.20653 -0.51852,-4.39777 -0.49904,-6.61436 -0.13489,-2.83542 -0.36347,-5.68698 -0.93695,-8.46934 -0.74174,-2.21409 -1.61291,-3.92821 -3.59309,-5.26175 -1.48643,-1.02209 -2.80095,-2.29992 -4.4748,-3.04647 -2.25608,-1.08447 -4.67344,-1.79021 -7.18582,-1.92135 -1.39222,0 -2.78443,0 -4.17664,0 -2.00441,1e-5 -4.00882,1e-5 -6.01323,-3e-5 -2.49474,-6e-5 -4.98949,-2.7e-4 -7.48424,-9e-5 -2.1837,3.3e-4 -4.36739,0.002 -6.55109,0.003 -2.16617,3e-5 -4.33228,-0.009 -6.49835,-0.0297 -2.91873,-0.0212 -5.84422,-0.0954 -8.75649,0.14675 -2.26816,0.23371 -4.56384,0.5166 -6.75942,1.14299 -2.14242,0.48029 -4.31083,0.84025 -6.426271,1.44136 -2.70807,0.93906 -5.120155,1.91085 -6.551905,4.57474 -0.204632,0.44837 -0.440009,0.88395 -0.613897,1.34512 -0.695541,1.84464 -0.929674,3.90471 -0.994758,5.85678 -0.03502,1.60956 -0.157824,3.24344 0.144259,4.83431 0.377908,1.43807 1.060601,2.77948 1.18166,4.28077 0.332728,1.70331 0.7287,3.39363 1.032538,5.09974 0.187378,1.08303 0.324706,2.16556 0.159082,3.26427 -0.316869,1.80735 -1.076993,3.52966 -1.026742,5.40438 -0.03348,2.54082 -0.164625,5.10888 0.234077,7.62772 0.591923,2.04232 1.465472,3.15255 2.745163,4.80951 1.841039,2.29107 3.871841,4.06148 6.954174,4.1983 1.8919,5e-5 3.7838,1.8e-4 5.67571,-1e-4 2.33163,-3.9e-4 4.66327,-0.002 6.9949,-0.002 2.80813,0.002 5.61624,0.0115 8.42434,0.0259 3.69116,0.0109 7.38731,0.0466 11.07301,-0.18817 3.72559,-0.29636 7.44459,-0.38836 11.1836,-0.31733 4.69365,-0.0573 9.39165,-0.13877 14.07239,-0.5186 3.53554,0 3.53554,-5 0,-5 z" /><path
             style="fill:#000000;stroke-width:3;paint-order:stroke fill markers"
             id="path8"
             d="m 97.500005,181.13128 c 0.0132,-2.96799 0.07586,-5.92677 -0.236859,-8.88109 -0.172661,-2.44768 -0.706412,-4.86712 -1.420804,-7.21097 -1.056808,-3.37389 -5.828213,-1.87934 -4.771406,1.49455 v 0 c 0.659242,2.01521 1.053269,4.13779 1.220571,6.24822 0.300537,2.77635 0.206323,5.55957 0.208498,8.34929 0,3.53554 5,3.53554 5,0 z" /><path
             style="fill:#000000;stroke-width:3;paint-order:stroke fill markers"
             id="path11"
             d="m 120.00001,145.42086 c 0.13634,-1.72171 -0.22173,-3.51147 0.0812,-5.21612 0.19162,0.39147 0.49161,0.20688 0.89696,0.17901 0.37308,-0.0256 0.74664,-0.0469 1.1205,-0.0555 5.5001,-0.12645 -3.06656,0.15839 3.43663,-0.0732 2.92697,-0.13768 5.85515,-0.25225 8.78546,-0.27567 1.55791,-0.12021 3.0724,0.2282 4.60527,0.43543 0.0896,0.0345 0.24464,0.0106 0.26893,0.10358 0.0198,0.0757 -0.18407,-0.0208 -0.23094,0.0418 -0.0514,0.0686 -0.0118,0.17344 0.007,0.25697 0.19065,0.83329 0.39655,1.61658 0.5145,2.46922 0.10183,0.83116 0.0958,1.66784 0.0735,2.50289 -0.0545,2.12062 2.94448,2.19773 2.99901,0.0771 v 0 c 0.0249,-1.00182 0.0252,-2.00546 -0.10235,-3.00185 -0.31334,-2.16013 -0.6078,-4.83285 -3.12973,-5.42288 -1.67215,-0.22412 -3.33081,-0.58673 -5.02976,-0.46216 -2.95821,0.024 -5.91431,0.13795 -8.86915,0.27751 -0.60113,0.0219 -1.202,0.0524 -1.80338,0.0656 -1.82477,0.04 -4.37198,-0.27681 -5.78922,1.21243 -0.33031,0.3471 -0.48201,0.82825 -0.72302,1.24238 -0.23634,1.86914 -0.0569,3.76303 -0.11182,5.64345 0,2.12132 3,2.12132 3,0 z" /></g></g><g
         id="g23"
         transform="rotate(31.140179,132.13511,174.77819)"><g
           id="path41"
           style="opacity:1"><path
             style="baseline-shift:baseline;display:inline;overflow:visible;vector-effect:none;fill:#c3c3c3;enable-background:accumulate;stop-color:#000000;stop-opacity:1"
             d="m 159.25001,144.11391 c -0.1692,-1.92455 -0.5536,-3.87309 -1.30753,-5.66194 -0.53801,-1.27656 -0.84053,-1.64783 -1.5622,-2.76765 -0.36508,-0.39809 -0.70096,-0.8251 -1.09526,-1.19428 -1.31353,-1.22986 -3.03288,-2.07109 -4.74003,-2.58815 -0.38173,-0.11562 -0.77457,-0.1908 -1.16185,-0.2862 -2.31787,-0.41082 -3.84364,-0.18647 -5.48799,1.69594 -0.55335,0.63347 -1.01868,1.76179 -1.37005,2.51476 -0.82784,1.90701 -1.58038,3.85284 -2.06332,5.87929 -0.38334,1.60857 -0.56813,2.93094 -0.83837,4.57443 -0.74976,5.84101 -0.85512,11.73445 -1.31979,17.59943 -0.32372,3.31469 -0.8173,6.61216 -1.10783,9.9302 -0.15924,1.81851 -0.15652,2.19255 -0.23459,3.98414 -0.1832,4.26929 0.1095,8.52836 0.3724,12.78647 0.11374,3.45039 0.31736,6.89776 0.40966,10.34887 0.10394,2.76062 -0.0754,5.51757 -0.19813,8.27407 -0.0112,0.29891 -0.0242,0.59775 -0.0337,0.89672 -0.0171,0.53775 -0.005,0.87159 -0.068,1.39266 -0.0696,0.57758 -0.23815,1.14165 -0.39252,1.70012 -0.19176,0.47473 -0.3419,0.9667 -0.53089,1.44225 -0.008,0.0194 -0.005,-0.0442 0.005,-0.0623 0.3792,-0.66114 0.25858,-0.48472 0.77204,-0.9469 -0.66272,0.25682 -1.24999,0.66336 -1.85349,1.03073 -3.62154,2.21008 -0.49602,7.33171 3.12552,5.12163 v 0 c 0.47023,-0.28753 0.91279,-0.61413 1.4384,-0.79946 0.36612,-0.23915 0.77483,-0.42323 1.09836,-0.71746 1.00394,-0.91304 1.29182,-2.28541 1.73685,-3.50139 0.19958,-0.74874 0.30982,-1.09937 0.44608,-1.86573 0.20145,-1.13308 0.21676,-2.27743 0.2505,-3.42411 0.12902,-2.89918 0.31123,-5.79906 0.20189,-8.70251 -0.0956,-3.52049 -0.29959,-7.0373 -0.41888,-10.55697 -0.25003,-4.04953 -0.5385,-8.09915 -0.36651,-12.1596 0.0682,-1.61899 0.0665,-1.99235 0.20991,-3.64012 0.29245,-3.36115 0.80043,-6.70059 1.11941,-10.05916 0.0787,-1.00015 0.16878,-1.99947 0.23604,-3.00045 0.31599,-4.70227 0.40128,-9.4244 1.02366,-14.10251 0.21322,-1.31081 0.40787,-2.66582 0.7057,-3.96451 0.39359,-1.71633 1.04149,-3.35691 1.7349,-4.97067 0.11132,-0.25462 0.22685,-0.50744 0.33396,-0.76386 0.0435,-0.10409 0.22725,-0.29069 0.11763,-0.31731 -0.18245,-0.0443 -0.33562,0.17765 -0.51855,0.21995 -0.15986,0.037 -0.32928,0.0345 -0.49203,0.0137 -0.0259,-0.003 0.002,-0.0725 0.0282,-0.073 0.18425,-0.004 0.36625,0.0413 0.54938,0.0619 0.36841,0.0804 0.94282,0.19078 1.29756,0.32779 0.74279,0.28689 1.4559,0.701 2.0703,1.20531 0.31418,0.45787 0.68621,0.95635 0.91496,1.46705 0.51738,1.15511 0.76155,2.41766 0.96324,3.65873 0,4.24264 6,4.24264 6,0 z"
             id="path103" /><path
             style="baseline-shift:baseline;display:inline;overflow:visible;vector-effect:none;fill:#404040;enable-background:accumulate;stop-color:#000000;stop-opacity:1"
             d="m 149.55859,130.63086 c -1.22686,-0.21745 -2.34752,-0.29008 -3.43554,0.008 -1.08803,0.29789 -2.07043,0.97383 -2.98047,2.01563 -0.75767,0.86737 -1.19088,2.03735 -1.52344,2.75 l -0.006,0.0117 -0.006,0.0117 c -0.83863,1.93188 -1.61536,3.93297 -2.11914,6.04688 -0.39519,1.65829 -0.58341,3.01181 -0.85156,4.64258 l -0.002,0.0176 -0.004,0.0176 c -0.75907,5.91353 -0.86278,11.82418 -1.32422,17.64844 -0.32044,3.27495 -0.81385,6.56909 -1.10742,9.92188 -0.16037,1.83136 -0.15857,2.24281 -0.23633,4.02734 v 0.002 c -0.18638,4.34333 0.11043,8.63715 0.37305,12.89063 0.11449,3.45778 0.31674,6.89261 0.4082,10.3125 v 0.006 0.006 c 0.10137,2.69239 -0.0739,5.42126 -0.19727,8.1914 v 0.004 l -0.002,0.004 c -0.011,0.29489 -0.0234,0.59557 -0.0332,0.90234 -0.018,0.56587 -0.005,0.84929 -0.0606,1.30469 -0.0547,0.45404 -0.20114,0.96207 -0.35547,1.51953 -0.0475,0.12039 -0.0788,0.21593 -0.12109,0.33203 -0.34809,0.20286 -0.75335,0.39707 -1.05078,0.57812 h -0.002 c -1.10658,0.67531 -1.78891,1.66368 -2.00585,2.69141 -0.21695,1.02773 0.008,2.06094 0.52148,2.90234 0.51347,0.8414 1.32861,1.51204 2.3418,1.78907 1.01319,0.27702 2.20396,0.12061 3.31054,-0.55469 0.51953,-0.31767 0.90585,-0.58764 1.25,-0.70899 l 0.11328,-0.041 0.10157,-0.0645 c 0.27754,-0.1813 0.74454,-0.37786 1.22461,-0.81446 1.30254,-1.1846 1.59254,-2.77979 2.00195,-3.89843 l 0.0156,-0.043 0.0117,-0.043 c 0.19599,-0.73526 0.32152,-1.14309 0.46485,-1.94922 0.21939,-1.23401 0.23248,-2.42255 0.26562,-3.55469 V 209.5 c 0.12831,-2.87942 0.31207,-5.79756 0.20117,-8.75977 v -0.004 c -0.0962,-3.53969 -0.29926,-7.05821 -0.41796,-10.56055 l -0.002,-0.0137 v -0.0137 c -0.25042,-4.05582 -0.53403,-8.06956 -0.36523,-12.05469 0.0685,-1.62615 0.0648,-1.96161 0.20703,-3.5957 0.28874,-3.31851 0.79661,-6.6568 1.11914,-10.05274 v -0.008 -0.008 c 0.0781,-0.99259 0.17,-1.99557 0.23828,-3.01172 0.31792,-4.73101 0.40465,-9.42631 1.01563,-14.02539 0.21409,-1.3175 0.40557,-2.64691 0.68945,-3.88477 0.37073,-1.61664 0.99316,-3.19944 1.67773,-4.79297 l 0.002,-0.006 c 3.2e-4,-7.4e-4 0.002,-0.001 0.002,-0.002 0.006,0.002 0.0295,0.006 0.0352,0.008 0.60743,0.23461 1.19122,0.58679 1.70117,0.99024 0.29131,0.42222 0.5885,0.8369 0.73242,1.1582 0.45424,1.01414 0.69026,2.18923 0.88867,3.41016 l -0.0137,-0.16016 c 0,1.29636 0.48769,2.39468 1.25195,3.11524 0.76427,0.72055 1.76235,1.0664 2.74805,1.0664 0.9857,0 1.98378,-0.34585 2.74805,-1.0664 0.68425,-0.64513 1.09041,-1.62257 1.17968,-2.74415 0.0104,-0.13114 0.0723,-0.23538 0.0723,-0.37109 l -1.92773,-0.37109 1.92382,0.2832 c -0.17561,-1.99752 -0.57519,-4.0447 -1.38281,-5.96094 -0.56316,-1.33624 -0.93532,-1.82442 -1.64258,-2.92187 l -0.0469,-0.0723 -0.0566,-0.0625 c -0.33082,-0.36073 -0.68013,-0.80957 -1.14844,-1.24804 -1.46527,-1.37194 -3.3179,-2.26417 -5.13477,-2.81446 -0.44879,-0.13593 -0.85767,-0.21376 -1.21093,-0.30078 l -0.0332,-0.008 z m -2.9082,1.9375 c 0.66288,-0.18149 1.46418,-0.16007 2.54883,0.0312 0.3962,0.0959 0.75747,0.16915 1.05664,0.25976 1.59744,0.48384 3.18391,1.27354 4.3457,2.36133 0.29733,0.27839 0.60602,0.65685 0.9668,1.05664 0.70274,1.08665 0.95028,1.36937 1.45312,2.5625 0.69234,1.64272 1.05317,3.47019 1.21875,5.30078 -0.008,0.80084 -0.25845,1.29828 -0.61328,1.63282 -0.36073,0.3401 -0.86265,0.52148 -1.37695,0.52148 -0.5143,0 -1.01622,-0.18138 -1.37695,-0.52148 -0.36074,-0.34011 -0.62305,-0.8352 -0.62305,-1.66016 v -0.0801 l -0.0137,-0.0801 c -0.20497,-1.26121 -0.45659,-2.61016 -1.03711,-3.90625 -0.29487,-0.6583 -0.70457,-1.1916 -1.00195,-1.625 l -0.082,-0.11718 -0.10937,-0.0898 c -0.7002,-0.57473 -1.49992,-1.03932 -2.34375,-1.36523 -0.12762,-0.0493 -0.22191,-0.0521 -0.35156,-0.0898 -0.0153,-0.0279 -7.8e-4,-0.0488 -0.0195,-0.0762 -0.17275,-0.25207 -0.44219,-0.38133 -0.61719,-0.42382 -0.42263,-0.10262 -0.65644,0.0678 -0.83985,0.17382 -0.11917,-0.0198 -0.18704,-0.0454 -0.39843,-0.041 h -0.002 c -0.44301,0.009 -0.63925,0.22745 -0.74609,0.34765 -0.10707,0.12047 -0.15438,0.21333 -0.19727,0.32227 -0.0429,0.10894 -0.0935,0.21767 -0.0703,0.47852 0.0116,0.13042 0.0471,0.32221 0.20313,0.52734 0.074,0.0973 0.20998,0.11796 0.32617,0.18555 -0.65115,1.53341 -1.28501,3.11111 -1.67383,4.80664 -0.31049,1.35387 -0.50563,2.72913 -0.7168,4.02734 l -0.004,0.0137 -0.002,0.0156 c -0.6324,4.75347 -0.7155,9.49837 -1.02929,14.16797 -0.0662,0.98581 -0.15508,1.98057 -0.23438,2.98828 v -0.0156 c -0.31543,3.3212 -0.82298,6.66262 -1.11914,10.06641 -0.14452,1.66057 -0.1451,2.07388 -0.21289,3.68359 -0.17518,4.13578 0.11755,8.22044 0.36719,12.26367 0.11995,3.52642 0.32317,7.03256 0.41797,10.52344 v 0.006 0.004 c 0.10682,2.83668 -0.0716,5.70972 -0.20117,8.62109 l -0.002,0.008 v 0.008 c -0.0341,1.15734 -0.0517,2.24991 -0.23437,3.27734 -0.12692,0.71383 -0.224,1.019 -0.41992,1.75195 -0.46768,1.28852 -0.75651,2.41902 -1.45118,3.05078 -0.16698,0.15187 -0.51796,0.32214 -0.97265,0.61914 l 0.21484,-0.10546 c -0.70605,0.24895 -1.20639,0.63129 -1.62695,0.88867 -0.70419,0.42974 -1.26396,0.46279 -1.74219,0.33203 -0.47823,-0.13076 -0.8942,-0.46334 -1.16211,-0.90234 -0.26791,-0.43901 -0.37388,-0.96217 -0.27148,-1.44727 0.1024,-0.4851 0.38761,-0.96675 1.09179,-1.39648 0.016,-0.01 0.0271,-0.0137 0.043,-0.0234 0.0899,0.0437 0.23823,0.11522 0.23828,0.11523 8e-5,2e-5 0.39445,0.0293 0.39453,0.0293 9e-5,-1e-5 0.31828,-0.0957 0.31836,-0.0957 9e-5,-5e-5 0.19913,-0.12688 0.19922,-0.12696 1.9e-4,-1.5e-4 0.18144,-0.19892 0.18164,-0.19922 4.2e-4,-5.9e-4 0.0887,-0.15273 0.10547,-0.19336 l 0.002,-0.006 0.002,-0.006 c 8.4e-4,-0.002 0.001,-0.004 0.002,-0.006 0.22456,-0.41436 0.0224,-0.18496 0.51563,-0.62891 l -0.17774,-0.28906 c 0.0592,-0.16654 0.12877,-0.36344 0.18946,-0.51367 l 0.0215,-0.0527 0.0156,-0.0547 c 0.15064,-0.54496 0.33664,-1.15451 0.41993,-1.8457 0.0709,-0.58675 0.06,-0.97279 0.0762,-1.48242 0.009,-0.28862 0.0219,-0.58265 0.0332,-0.88281 v -0.008 c 0.12195,-2.73652 0.30272,-5.51577 0.19727,-8.33789 v -0.004 c -0.0929,-3.47129 -0.29508,-6.91983 -0.40821,-10.35157 l -0.002,-0.0137 v -0.0137 c -0.26318,-4.26274 -0.55112,-8.48834 -0.37109,-12.68359 0.0782,-1.79632 0.0724,-2.13469 0.23047,-3.93946 0.28696,-3.27735 0.78038,-6.57121 1.10742,-9.91992 v -0.01 l 0.002,-0.008 c 0.46785,-5.90504 0.57423,-11.78095 1.31445,-17.54882 9e-5,-6.4e-4 -8e-5,-0.001 0,-0.002 0.269,-1.63869 0.44961,-2.92333 0.81836,-4.4707 0.4613,-1.93563 1.19054,-3.82421 2.00586,-5.70313 0.36939,-0.79182 0.86231,-1.86875 1.20899,-2.26562 0.73431,-0.84062 1.33653,-1.21821 2.00195,-1.40039 z m 0.64844,5.88867 c 0.002,2.8e-4 0.006,-2.8e-4 0.008,0 0.001,1.6e-4 0.003,0.002 0.004,0.002 z"
             id="path109" /></g><g
           id="path23"
           style="opacity:1"><path
             style="baseline-shift:baseline;display:inline;overflow:visible;vector-effect:none;fill:#c3c3c3;enable-background:accumulate;stop-color:#000000;stop-opacity:1"
             d="m 145.88281,109.39844 c -2.08917,0.0292 -4.1235,0.6646 -6.04687,1.42578 -0.46871,0.22075 -0.94787,0.42067 -1.40625,0.66211 -1.84817,0.97347 -3.61236,2.28539 -4.95117,3.90234 -0.32979,0.3983 -0.59352,0.8463 -0.89063,1.26953 -0.25381,0.48851 -0.53842,0.96166 -0.76172,1.46485 -0.20092,0.45278 -0.35585,0.92564 -0.50976,1.39648 -0.66958,2.04834 -1.035,4.17512 -1.24219,6.31641 -0.1944,1.57735 -0.39392,3.15859 -0.70313,4.71875 -0.23248,1.17302 -0.31915,1.23482 -0.48828,2.32422 -0.0557,0.35886 -0.0888,0.72155 -0.13281,1.08203 0,4.24263 5.99997,4.24261 6,0 0.63043,-2.41588 0.97007,-4.90805 1.2793,-7.38477 0.26159,-2.1449 0.50418,-4.38662 1.42578,-6.375 0.11041,-0.23821 0.26784,-0.45029 0.40234,-0.67578 1.12534,-1.52664 2.79573,-2.49133 4.4961,-3.25391 1.34695,-0.474 2.80608,-1.02905 4.26171,-0.84179 -0.018,0.0208 -0.12972,0.13944 -0.1289,0.1914 v 0.002 0.002 c 2.2e-4,7.8e-4 0.002,0.005 0.002,0.006 l 0.002,0.002 c 0.13306,0.18882 0.32941,0.32266 0.48633,0.49219 0.22441,0.24243 0.44263,0.4902 0.65625,0.74219 0.7042,0.8307 0.88756,1.09356 1.55078,1.96093 0.20577,0.31576 0.43327,0.61829 0.61719,0.94727 0.40748,0.72888 0.66237,1.48206 0.89649,2.2832 0.58101,1.98814 0.89585,4.0023 1.19921,6.04688 0.63737,5.18648 0.90011,10.40973 1.28516,15.61914 0.28866,3.91865 0.3603,7.85048 0.70508,11.76562 0.0762,0.86578 0.17546,1.72911 0.26367,2.59375 0.55045,4.87826 1.39095,9.71745 2.04492,14.58204 0.52041,4.14455 1.01055,8.29431 1.25977,12.46484 0.28677,4.21666 0.32306,8.44527 0.32617,12.66992 -0.0123,4.20957 -0.0257,8.41932 -0.0312,12.62891 -0.0381,1.56235 0.0446,3.12741 -0.002,4.68945 -0.0459,1.54241 -0.2193,3.09019 -0.33008,4.62891 -0.0864,1.44909 -0.29209,2.8902 -0.58008,4.3125 -0.1706,0.84258 -0.36561,1.54513 -0.76562,2.29492 -0.98236,1.23539 -1.8501,2.51848 -3.05079,3.53711 -0.39619,0.32512 -2.08999,2.28302 -4.07421,2.91912 -2.33052,0.74712 -5.2793,-0.0617 -5.2793,-0.0617 -0.36171,-0.0207 -0.7261,0.0178 -1.08789,0 -0.0374,-0.001 -0.1299,-0.0162 -0.15235,-0.0254 l -0.002,-0.002 v -0.002 h 0.002 v -0.002 c 0.002,-4.6e-4 0.005,3.2e-4 0.008,0 0.24902,-0.0259 0.42593,0.0383 0.47265,0.0234 h 0.002 l 0.002,-0.002 h 0.002 v -0.002 l 0.002,-0.002 v -0.002 l 0.002,-0.002 v -0.002 -0.002 c 8.3e-4,-0.0315 -0.0585,-0.11019 -0.19141,-0.28711 -0.97733,-1.26692 -1.92926,-2.58879 -2.50195,-4.0918 -0.76605,-2.29926 -1.21206,-4.69365 -1.4668,-7.09961 -0.14285,-1.17863 0.0151,-2.36087 0.26172,-3.51367 0.82504,-4.16164 -5.06168,-5.32767 -5.88672,-1.16602 -0.33211,1.7551 -0.55985,3.54068 -0.33984,5.32813 0.32869,2.95785 0.8755,5.90421 1.87695,8.71484 0.16706,0.39588 0.31556,0.80135 0.5,1.18945 0.81437,1.7135 2.01997,3.28109 3.19336,4.75586 0.75436,0.75295 1.10568,1.22604 2.10156,1.70118 1.03675,0.49464 2.09313,0.51924 3.20313,0.49023 h 4.54297 c 0.35229,0 0.67496,-0.0413 0.96875,-0.11719 0.69592,3.8e-4 1.39701,-0.20658 2.08594,-0.50781 0.28967,-0.16761 0.58862,-0.31945 0.86914,-0.50195 0.60467,-0.39338 0.88804,-0.68579 1.45703,-1.1211 0.99712,-0.76286 2.04711,-1.45558 3.00976,-2.26367 1.82206,-1.5607 3.6462,-3.19457 4.87696,-5.28125 0.1776,-0.38631 0.37913,-0.76192 0.5332,-1.1582 0.92223,-2.37205 1.13921,-5.112 1.39062,-7.6211 0.12116,-1.68406 0.2954,-3.3724 0.34571,-5.06054 0.0465,-1.55899 -0.0361,-3.12039 0.002,-4.67969 0.006,-4.21376 0.019,-8.42884 0.0312,-12.64258 -0.003,-4.34358 -0.0438,-8.69001 -0.33789,-13.02539 -0.2625,-4.31717 -0.75723,-8.61414 -1.30078,-12.9043 -0.64718,-4.80163 -1.47217,-9.57831 -2.02344,-14.39257 -0.48618,-4.71961 -0.6681,-9.45716 -0.95508,-14.19141 -0.39646,-5.35933 -0.6638,-10.73406 -1.33398,-16.06836 -0.63896,-4.21113 -1.30886,-8.51248 -3.88477,-12.03711 -1.47823,-1.92284 -3.23183,-4.36977 -5.52148,-5.36133 -0.45721,-0.198 -0.96477,-0.24877 -1.44727,-0.37304 -0.36448,-0.0142 -0.72902,-0.0481 -1.09375,-0.043 z"
             id="path101" /><path
             style="baseline-shift:baseline;display:inline;overflow:visible;vector-effect:none;fill:#404040;enable-background:accumulate;stop-color:#000000;stop-opacity:1"
             d="m 145.86914,108.39844 -0.24023,0.004 -0.0781,0.041 c -2.16083,0.0887 -4.20591,0.70869 -6.08203,1.45117 l -0.0293,0.0117 -0.0293,0.0137 c -0.44159,0.20798 -0.93604,0.41237 -1.44727,0.68164 -1.94378,1.02383 -3.80934,2.40376 -5.25391,4.14844 -0.39768,0.4803 -0.67312,0.9546 -0.93945,1.33398 l -0.0391,0.0547 -0.0293,0.0586 c -0.23459,0.45153 -0.53225,0.94082 -0.78906,1.51953 -0.22831,0.51451 -0.39282,1.02091 -0.54688,1.49218 -0.69971,2.14052 -1.07517,4.34095 -1.28711,6.53125 -0.19306,1.56596 -0.38915,3.11381 -0.6875,4.61914 -0.22456,1.1331 -0.31989,1.23033 -0.49609,2.36524 -0.0622,0.40044 -0.0952,0.77498 -0.13672,1.11523 l -0.008,0.0605 v 0.0606 c 0,1.29636 0.48769,2.39273 1.25195,3.11328 0.76426,0.72055 1.76235,1.06836 2.74805,1.06836 0.9857,0 1.98378,-0.34781 2.74805,-1.06836 0.76426,-0.72055 1.25194,-1.81693 1.25195,-3.11328 l -0.0332,0.25195 c 0.6507,-2.49355 0.99452,-5.02946 1.30468,-7.51367 v -0.002 c 0.26274,-2.15427 0.51263,-4.28722 1.3418,-6.07618 0.0467,-0.10078 0.17036,-0.28481 0.31055,-0.51367 0.9585,-1.29271 2.44196,-2.17952 4.06054,-2.9082 1.13473,-0.39916 2.20946,-0.70291 3.19141,-0.72656 0.12021,0.11492 0.28707,0.30033 0.31641,0.33203 0.21321,0.23033 0.42342,0.46659 0.6289,0.70898 0.68323,0.80596 0.85137,1.05016 1.49805,1.89649 0.21968,0.33424 0.42421,0.61314 0.55859,0.85351 0.35098,0.62781 0.58391,1.30063 0.81055,2.07617 0.55562,1.90126 0.86426,3.86153 1.16602,5.89453 0.631,5.13696 0.89323,10.34135 1.27929,15.56446 0.28595,3.88186 0.35818,7.81793 0.70703,11.77929 0.0778,0.8835 0.17829,1.75128 0.26563,2.60743 v 0.006 0.006 c 0.5546,4.91507 1.39646,9.75712 2.04687,14.59375 0.5198,4.13969 1.00699,8.26836 1.25391,12.40039 v 0.004 0.004 c 0.28409,4.1772 0.32111,8.3841 0.32422,12.60351 -0.0123,4.2081 -0.0257,8.41547 -0.0312,12.625 -0.0381,1.60602 0.0428,3.16214 -0.002,4.66211 -0.0443,1.48745 -0.21543,3.02058 -0.32813,4.58594 v 0.008 0.006 c -0.0831,1.39429 -0.2822,2.78953 -0.5625,4.17383 -0.15792,0.77997 -0.32677,1.34465 -0.64844,1.96289 -0.97656,1.2365 -1.7973,2.4252 -2.83398,3.30469 -0.20248,0.16779 -0.34329,0.32192 -0.57617,0.54883 -0.23773,0.23162 -0.53129,0.5106 -0.86524,0.79297 -0.6679,0.56473 -1.50415,1.13446 -2.29101,1.38671 -1.89722,0.60822 -4.71094,-0.0742 -4.71094,-0.0742 l -0.10156,-0.0273 -0.10547,-0.006 c -0.10905,-0.006 -0.15604,6.1e-4 -0.25391,0 -0.93731,-1.21924 -1.80155,-2.43612 -2.30273,-3.74414 -0.73208,-2.20479 -1.16775,-4.51849 -1.41602,-6.86328 v -0.008 -0.008 c -0.12264,-1.01193 0.0105,-2.08215 0.2461,-3.1836 l 0.002,-0.008 v -0.008 c 0.2521,-1.27166 -0.0114,-2.44152 -0.62109,-3.29688 -0.60974,-0.85535 -1.52128,-1.39049 -2.48829,-1.58203 -0.967,-0.19154 -2.01442,-0.0446 -2.90429,0.51367 -0.88987,0.55822 -1.58188,1.53889 -1.83399,2.81055 v 0.004 l -0.002,0.006 c -0.33962,1.79478 -0.58971,3.68412 -0.34961,5.63476 0.33423,3.00253 0.8921,6.02312 1.92774,8.92969 l 0.01,0.0254 0.0117,0.0273 c 0.1545,0.36611 0.30656,0.78644 0.51758,1.23047 0.87712,1.84553 2.13388,3.46543 3.31445,4.94922 l 0.0352,0.0449 0.041,0.0391 c 0.716,0.71467 1.23074,1.34962 2.37696,1.89649 1.25372,0.59816 2.49849,0.61679 3.63281,0.58789 h 4.54297 c 0.34211,0 0.65758,-0.0547 0.96875,-0.11719 l 0.008,-0.002 c 0.89132,-0.001 1.71786,-0.25725 2.47852,-0.58984 l 0.0527,-0.0234 0.0488,-0.0274 c 0.25812,-0.14935 0.57189,-0.30796 0.91211,-0.52929 0.67483,-0.43903 0.99492,-0.76271 1.51953,-1.16407 0.96008,-0.73452 2.02356,-1.43559 3.04492,-2.29296 l 0.004,-0.004 0.004,-0.002 c 1.83351,-1.5705 3.75352,-3.27085 5.08789,-5.53321 l 0.0273,-0.0449 0.0195,-0.0449 c 0.16043,-0.34897 0.37318,-0.74297 0.55664,-1.21484 0.99728,-2.56508 1.20518,-5.38878 1.45508,-7.88282 v -0.0137 l 0.002,-0.0137 c 0.11967,-1.66333 0.29589,-3.3665 0.34766,-5.10352 0.0481,-1.61415 -0.0349,-3.17782 0.002,-4.68554 v -0.0117 -0.01 c 0.006,-4.21265 0.019,-8.42871 0.0312,-12.64258 v -0.002 c -0.003,-4.34679 -0.0436,-8.71437 -0.33984,-13.08594 v -0.008 c -0.2648,-4.35038 -0.76246,-8.6658 -1.30664,-12.96094 v -0.004 -0.006 c -0.65004,-4.82281 -1.47259,-9.58811 -2.01954,-14.36133 -0.48179,-4.67705 -0.66525,-9.39945 -0.95312,-14.14844 v -0.008 -0.006 c -0.39527,-5.34326 -0.66341,-10.73504 -1.33984,-16.11914 l -0.002,-0.0117 -0.002,-0.0137 c -0.63936,-4.21377 -1.30859,-8.7057 -4.06445,-12.47656 l -0.008,-0.01 -0.008,-0.01 c -1.46129,-1.90081 -3.24669,-4.51394 -5.91601,-5.66993 -0.64767,-0.28047 -1.21353,-0.32539 -1.59571,-0.42382 l -0.10351,-0.0273 -0.10743,-0.004 c -0.32853,-0.0128 -0.71049,-0.0491 -1.14648,-0.043 z m 0.0273,2 c 0.2632,-0.004 0.58438,0.0208 0.9336,0.0371 0.51775,0.12575 0.95138,0.19039 1.19726,0.29687 1.90684,0.82578 3.62374,3.1002 5.11719,5.04297 2.38551,3.27014 3.05658,7.36703 3.69336,11.5625 4.9e-4,0.003 -4.9e-4,0.007 0,0.01 0.66304,5.28139 0.93267,10.63566 1.33008,16.00781 0.28561,4.71501 0.46694,9.46118 0.95703,14.21875 v 0.006 l 0.002,0.006 c 0.55529,4.84934 1.37971,9.62977 2.02344,14.40429 0.5426,4.28263 1.0346,8.55853 1.29492,12.83985 v 0.004 0.004 c 0.29146,4.29658 0.33294,8.61925 0.33594,12.95703 -0.0122,4.21232 -0.0252,8.42706 -0.0312,12.64063 -0.038,1.60229 0.0427,3.15605 -0.002,4.65234 -0.0486,1.63097 -0.21732,3.29634 -0.33985,4.99219 -0.25284,2.52359 -0.48115,5.177 -1.32812,7.35547 -0.11653,0.29971 -0.29533,0.64317 -0.47656,1.03125 -1.12738,1.90243 -2.84772,3.46595 -4.65235,5.01172 -0.90226,0.75643 -1.93535,1.43939 -2.9668,2.22851 -0.61337,0.46927 -0.86002,0.73039 -1.39453,1.07813 -0.1995,0.12979 -0.46086,0.26854 -0.74414,0.42968 -0.60661,0.26303 -1.1726,0.41824 -1.66406,0.41797 h -0.12891 l -0.12304,0.0312 c -0.20718,0.0535 -0.44462,0.0859 -0.71875,0.0859 h -4.55469 -0.0137 c -1.07868,0.0282 -1.93599,-0.006 -2.7461,-0.39258 -0.8267,-0.39442 -1.03585,-0.72161 -1.78515,-1.47461 -1.15247,-1.44999 -2.29415,-2.94651 -3.03711,-4.50976 -0.15064,-0.31699 -0.2925,-0.69257 -0.46094,-1.09571 l -0.002,-0.004 c -0.96501,-2.70972 -1.50109,-5.57847 -1.82422,-8.48633 v -0.006 l -0.002,-0.006 c -0.1997,-1.62237 0.006,-3.30033 0.33007,-5.01367 0.16076,-0.8068 0.51409,-1.24075 0.9336,-1.50391 0.42015,-0.26356 0.94845,-0.3441 1.45312,-0.24414 0.50468,0.1 0.96028,0.37561 1.24805,0.7793 0.28777,0.40368 0.44948,0.93888 0.28906,1.74805 l 0.004,-0.0137 c -0.25735,1.20294 -0.43954,2.49403 -0.27735,3.83789 1.7e-4,0.001 -1.6e-4,0.003 0,0.004 0.26054,2.4539 0.71813,4.91493 1.51172,7.29688 l 0.006,0.0195 0.008,0.0195 c 0.51221,1.3443 1.33839,2.43317 2.13476,3.50976 v 0.92188 l 0.4375,0.4375 0.18555,0.0762 c 0.27833,0.11406 0.22663,0.0665 0.28515,0.0762 0.0585,0.01 0.0867,0.0199 0.21875,0.0234 0.43875,0.0195 0.78086,-0.0129 1.02735,-0.002 0.26698,0.0774 3.03679,0.86038 5.67187,0.0156 1.19737,-0.38385 2.20051,-1.10915 2.97461,-1.76367 0.38705,-0.32726 0.71546,-0.63992 0.96875,-0.88672 0.2533,-0.2468 0.47226,-0.45655 0.46094,-0.44726 l 0.006,-0.006 0.006,-0.004 c 1.33534,-1.13287 2.23653,-2.48182 3.1875,-3.67773 l 0.0566,-0.0723 0.043,-0.0801 c 0.45858,-0.85959 0.68472,-1.68452 0.86328,-2.5664 0.29568,-1.4603 0.50799,-2.94728 0.59766,-4.45118 0.10892,-1.50855 0.28461,-3.06676 0.33203,-4.66015 0.0482,-1.61719 -0.0349,-3.18254 0.002,-4.69336 v -0.0117 -0.0117 c 0.006,-4.20834 0.0189,-8.41721 0.0312,-12.62695 v -0.002 -0.002 c -0.003,-4.22664 -0.0393,-8.47567 -0.32813,-12.72851 v -0.01 c -0.25169,-4.20573 -0.745,-8.37528 -1.26562,-12.52148 v -0.004 l -0.002,-0.004 c -0.65738,-4.88993 -1.49502,-9.72177 -2.04102,-14.56054 -0.0888,-0.86976 -0.18736,-1.72543 -0.26172,-2.57032 -0.34071,-3.86891 -0.41175,-7.79456 -0.70312,-11.75 v -0.002 c -0.3839,-5.19375 -0.64779,-10.43188 -1.29102,-15.66601 l -0.002,-0.0137 v -0.0117 c -0.30411,-2.04962 -0.62574,-4.11036 -1.23047,-6.17968 -0.2416,-0.82674 -0.51843,-1.66223 -0.98242,-2.49219 -0.2279,-0.40764 -0.47113,-0.72583 -0.65235,-1.00391 L 150,118.25 l -0.0215,-0.0293 c -0.65803,-0.86057 -0.86592,-1.15524 -1.58204,-2 -0.18707,-0.22068 -0.38138,-0.43849 -0.57812,-0.65429 l 0.77148,-0.89063 -1.84765,-0.23828 c -1.78754,-0.22996 -3.39103,0.4227 -4.72071,0.89063 l -0.0391,0.0137 -0.0391,0.0176 c -1.76457,0.79137 -3.60424,1.82714 -4.89063,3.57226 l -0.0293,0.0391 -0.0254,0.043 c -0.1,0.16757 -0.28348,0.40578 -0.45118,0.76758 -1.01403,2.18781 -1.24931,4.53829 -1.50976,6.67383 -0.30823,2.46857 -0.6439,4.91631 -1.25391,7.2539 l -0.0332,0.12305 v 0.12891 c -1e-5,0.82495 -0.26231,1.31809 -0.62305,1.6582 -0.36074,0.34011 -0.86265,0.52344 -1.37695,0.52344 -0.5143,0 -1.01622,-0.18334 -1.37695,-0.52344 -0.35771,-0.33725 -0.61283,-0.83199 -0.61719,-1.64453 0.0394,-0.33633 0.071,-0.65664 0.11523,-0.94141 0.16207,-1.04389 0.24008,-1.07026 0.48047,-2.2832 0.31831,-1.60608 0.52021,-3.21175 0.71485,-4.79102 l 0.002,-0.0137 0.002,-0.0137 c 0.20245,-2.09228 0.55782,-4.1454 1.19727,-6.10156 0.15377,-0.4704 0.29913,-0.90973 0.47265,-1.30078 0.18166,-0.40935 0.44201,-0.85225 0.70313,-1.34961 0.30735,-0.44277 0.55428,-0.84992 0.80469,-1.15235 1.23305,-1.48922 2.89587,-2.73314 4.64843,-3.65625 0.39285,-0.20692 0.84385,-0.3991 1.32227,-0.62304 1.87111,-0.73953 3.78747,-1.32319 5.67773,-1.34961 z m -3.46484,123.3164 -0.004,0.004 c -8.2e-4,1e-5 -0.003,0 -0.004,0 -0.0439,-2.5e-4 -0.0611,-0.002 -0.0625,-0.002 -0.001,-8e-5 0.0518,-0.003 0.0703,-0.002 z"
             id="path102" /></g><g
           id="path42"
           style="opacity:1"><path
             style="baseline-shift:baseline;display:inline;overflow:visible;vector-effect:none;fill:#c3c3c3;enable-background:accumulate;stop-color:#000000;stop-opacity:1"
             d="m 149.67858,142.2418 c -0.30574,-2.35062 -1.00887,-4.61899 -1.79952,-6.84528 -0.49347,-1.35376 -1.20124,-2.65825 -2.35046,-3.57026 -0.69767,-0.55366 -1.05232,-0.67727 -1.81158,-1.03954 -0.91691,-0.27851 -1.80067,-0.71046 -2.74478,-0.90035 -0.25343,-0.051 -0.51079,-0.08 -0.76618,-0.12005 -1.47841,-0.10627 -2.75818,0.36759 -3.83883,1.37605 -0.31831,0.29705 -0.83317,0.98175 -1.12199,1.35326 -1.34235,1.79056 -1.99263,3.91962 -2.54803,6.05396 -0.64957,2.42789 -0.95122,4.91769 -1.20759,7.41104 -0.37627,3.21887 -0.63349,6.44782 -0.74283,9.68647 -0.0935,4.09134 0.0332,8.18377 -0.0534,12.27483 -0.16298,3.44549 -0.4937,6.87969 -0.82659,10.31205 -0.38128,2.6641 -0.61793,5.3461 -1.00857,8.00896 -0.30235,2.06103 -0.3658,2.30113 -0.74318,4.35234 -0.63917,3.49637 -1.42032,6.96544 -2.18368,10.43644 -0.46265,2.23569 -1.07149,4.43883 -1.79681,6.60288 -0.47812,1.40744 -0.90613,2.8326 -1.50453,4.19504 -0.26063,0.71641 -0.67786,1.33375 -1.05443,1.98713 -0.24176,0.44632 -0.42735,0.91933 -0.71216,1.34085 -2.25654,3.59277 2.82441,6.78401 5.08095,3.19123 v 0 c 0.31596,-0.51601 0.61554,-1.03869 0.86169,-1.59234 0.19008,-0.36797 0.43972,-0.70098 0.63757,-1.06616 0.25793,-0.47606 0.43947,-0.98728 0.68851,-1.46769 0.65991,-1.52791 1.17314,-3.10841 1.69365,-4.68816 0.78724,-2.36632 1.46058,-4.77085 1.96555,-7.21413 0.77825,-3.53932 1.57393,-7.07678 2.22513,-10.64205 0.40028,-2.18622 0.46752,-2.44192 0.78773,-4.63211 0.40022,-2.73746 0.64714,-5.49394 1.03456,-8.23309 0.34749,-3.58363 0.69224,-7.16946 0.85333,-10.76732 0.082,-4.06592 -0.0318,-8.13276 0.0513,-12.19896 0.10177,-3.10073 0.35544,-6.19149 0.71476,-9.27314 0.22507,-2.19352 0.47385,-4.38577 1.04787,-6.5218 0.34457,-1.34245 0.68077,-2.72053 1.47943,-3.878 0.12735,-0.16448 0.26218,-0.32344 0.38204,-0.49346 0.0198,-0.0281 0.0687,-0.0977 0.0343,-0.0972 -0.0875,0.001 -0.1594,0.073 -0.24242,0.10059 -0.22723,0.0755 -0.50675,0.12896 -0.73185,0.0317 0.53631,-0.0453 1.24639,0.46425 1.80282,0.5316 0.0906,0.0353 0.17665,0.0863 0.27194,0.10582 0.14094,0.0289 -0.0822,-0.15138 0.11259,-0.0387 0.35645,0.20615 0.46482,0.8049 0.61408,1.10145 0.65226,1.81087 1.23496,3.65705 1.49587,5.57025 0.52624,4.20988 6.4799,3.46567 5.95367,-0.74421 z"
             id="path99" /><path
             style="baseline-shift:baseline;display:inline;overflow:visible;vector-effect:none;fill:#404040;enable-background:accumulate;stop-color:#000000;stop-opacity:1"
             d="m 140.27734,128.76953 c -1.7316,-0.12447 -3.33746,0.47204 -4.59179,1.64258 -0.48546,0.45303 -0.95362,1.11459 -1.23047,1.4707 l -0.004,0.006 -0.006,0.008 c -1.47758,1.97095 -2.1543,4.2388 -2.71679,6.40039 -0.67138,2.51162 -0.97532,5.04788 -1.23243,7.54688 -1.5e-4,0.001 1.5e-4,0.003 0,0.004 -3.3e-4,0.003 -0.002,0.007 -0.002,0.01 -0.37825,3.23875 -0.63588,6.49135 -0.74609,9.75586 v 0.006 l -0.002,0.006 c -0.0943,4.12654 0.0331,8.21775 -0.0527,12.27344 -1e-5,6.4e-4 1e-5,0.001 0,0.002 -0.16187,3.40462 -0.49024,6.81291 -0.82227,10.23633 -0.38256,2.68446 -0.61905,5.35083 -1.00195,7.96094 -0.30105,2.05218 -0.3598,2.25923 -0.73828,4.3164 v 0.002 c -0.63429,3.46969 -1.41171,6.92613 -2.17578,10.40039 l -0.002,0.006 -0.002,0.006 c -0.45379,2.19287 -1.05171,4.35826 -1.76562,6.48829 -0.48518,1.42852 -0.90552,2.8245 -1.47071,4.11132 l -0.0137,0.0293 -0.0117,0.0312 c -0.2065,0.56764 -0.5804,1.13593 -0.98047,1.83008 l -0.006,0.01 -0.006,0.0117 c -0.28061,0.51804 -0.45877,0.95687 -0.66211,1.25782 l -0.01,0.0137 -0.008,0.0137 c -0.6895,1.09779 -0.86161,2.28606 -0.59766,3.30273 0.26396,1.01668 0.92505,1.84292 1.75977,2.36719 0.83471,0.52427 1.86409,0.76034 2.89453,0.55664 1.03044,-0.20369 2.0273,-0.87291 2.7168,-1.9707 l 0.004,-0.006 0.002,-0.004 c 0.326,-0.53241 0.65023,-1.0936 0.92382,-1.70898 l -0.0254,0.0527 c 0.13914,-0.26934 0.38257,-0.59775 0.62696,-1.04882 0.30715,-0.56691 0.49024,-1.08307 0.69726,-1.48243 l 0.0176,-0.0312 0.0137,-0.0332 c 0.68436,-1.58452 1.20518,-3.19305 1.72461,-4.76953 v -0.002 c 0.79583,-2.39233 1.47829,-4.82883 1.99219,-7.3125 0.77742,-3.53557 1.57642,-7.08454 2.23242,-10.67579 v -0.002 c 0.39877,-2.17787 0.4716,-2.46791 0.79297,-4.66601 0.4056,-2.77429 0.65251,-5.53291 1.03515,-8.23829 l 0.004,-0.0215 0.002,-0.0215 c 0.34755,-3.58418 0.69481,-7.18843 0.85743,-10.82032 v -0.0117 -0.0117 c 0.0826,-4.09801 -0.0297,-8.16529 0.0527,-12.19922 0.10095,-3.0641 0.35081,-6.12264 0.70703,-9.17774 l 0.002,-0.006 v -0.008 c 0.22434,-2.18639 0.47123,-4.32488 1.01954,-6.36523 v -0.004 l 0.002,-0.006 c 0.31176,-1.21463 0.66113,-2.28719 1.19922,-3.20117 0.1448,0.0462 0.2281,0.10855 0.41015,0.13281 1.6e-4,3.7e-4 -1.5e-4,0.002 0,0.002 l -0.21679,-0.0547 c -0.007,-0.003 0.14914,0.0464 0.22851,0.0801 0.054,0.13672 0.0967,0.32021 0.24024,0.60546 l -0.0469,-0.11132 c 0.64181,1.78184 1.19695,3.55836 1.44336,5.35546 0.1608,1.28636 0.78117,2.31536 1.62891,2.93555 0.84773,0.6202 1.88128,0.84101 2.85937,0.71875 0.97809,-0.12226 1.92477,-0.5906 2.59375,-1.40039 0.27163,-0.3288 0.44846,-0.74471 0.60157,-1.17187 l 0.58984,0.50586 -0.33594,-2.58008 v -0.004 c -0.32042,-2.46348 -1.04789,-4.79881 -1.84765,-7.05078 l -0.002,-0.004 -0.002,-0.004 c -0.52805,-1.44862 -1.31165,-2.93536 -2.66797,-4.01172 -0.77016,-0.61119 -1.27213,-0.80998 -2.00195,-1.1582 l -0.0684,-0.0332 -0.0723,-0.0215 c -0.81276,-0.24688 -1.72465,-0.69992 -2.83789,-0.92383 -0.30992,-0.0624 -0.58179,-0.0914 -0.80859,-0.12695 l -0.041,-0.008 z m -0.15429,1.99609 c 0.2482,0.0374 0.47506,0.0659 0.65234,0.10157 0.74532,0.1499 1.57894,0.53857 2.54883,0.84375 0.74487,0.35327 0.97124,0.41372 1.58203,0.89843 0.94212,0.74766 1.57431,1.87001 2.0332,3.12891 0.77924,2.19485 1.45468,4.39126 1.7461,6.62305 v 0.004 c 0.10232,0.81859 -0.0964,1.34239 -0.41211,1.72461 -0.31577,0.38223 -0.79046,0.62567 -1.30078,0.68946 -0.51033,0.0638 -1.03151,-0.0569 -1.43164,-0.34961 -0.40014,-0.29274 -0.7219,-0.74977 -0.82422,-1.56836 v -0.006 l -0.002,-0.004 c -0.2762,-2.02537 -0.88357,-3.93929 -1.54492,-5.77539 l -0.0215,-0.0566 -0.0254,-0.0527 c 0.003,0.006 -0.0809,-0.23974 -0.20313,-0.52735 -0.12221,-0.2876 -0.30127,-0.69908 -0.80469,-0.99023 -0.0385,-0.0223 -0.0737,-0.0432 -0.13671,-0.0723 -0.0315,-0.0145 -0.0696,-0.0318 -0.13672,-0.0527 -0.0336,-0.0105 -0.0746,-0.0231 -0.13282,-0.0332 -0.048,-0.008 -0.15498,-0.009 -0.20117,-0.01 l -0.0312,-0.0117 -0.125,-0.0156 c -0.0277,-0.0699 -0.0798,-0.17723 -0.0801,-0.17774 -3.4e-4,-5.8e-4 -0.15381,-0.19874 -0.15429,-0.19922 -4.8e-4,-4.7e-4 -0.1986,-0.15393 -0.19922,-0.15429 -6.2e-4,-3.7e-4 -0.13982,-0.0709 -0.20508,-0.0918 -0.12899,-0.0413 -0.23716,-0.0479 -0.32227,-0.0469 h -0.004 c -0.28689,0.005 -0.45229,0.10057 -0.54297,0.15039 -0.1284,0.0427 -0.1936,-0.0127 -0.0195,0.0625 l -0.004,0.0254 c -0.17058,-0.0316 -0.26012,-0.1218 -0.47656,-0.10352 l -0.13477,0.82617 c -0.006,0.007 -0.008,0.0104 -0.0137,0.0176 l -0.0176,0.0215 -0.0156,0.0215 c -0.93262,1.35162 -1.27935,2.85534 -1.62109,4.1875 -0.59851,2.22715 -0.85073,4.46771 -1.07618,6.66406 -1.5e-4,0.001 1.5e-4,0.003 0,0.004 -3.3e-4,0.003 -0.002,0.007 -0.002,0.01 -0.36112,3.09976 -0.61606,6.21495 -0.71875,9.34375 v 0.006 0.006 c -0.0838,4.09847 0.0286,8.16539 -0.0527,12.19922 -0.16002,3.55605 -0.50098,7.11616 -0.84766,10.69141 -0.38864,2.75823 -0.63653,5.49903 -1.0293,8.18554 -0.31892,2.18139 -0.37988,2.40356 -0.78125,4.59571 -0.64633,3.53864 -1.43981,7.06497 -2.21875,10.60742 l -0.002,0.006 v 0.006 c -0.49563,2.39808 -1.15845,4.76571 -1.93555,7.10156 v 0.002 c -0.52055,1.57989 -1.02641,3.12908 -1.66015,4.59766 -10e-4,0.002 -9.2e-4,0.005 -0.002,0.008 -0.26912,0.5318 -0.45089,1.02046 -0.65039,1.38867 -0.15131,0.27929 -0.40546,0.61544 -0.64648,1.08203 l -0.0137,0.0273 -0.0117,0.0254 c -0.21722,0.48858 -0.49148,0.97077 -0.79492,1.4668 -0.43878,0.69859 -0.92379,0.97807 -1.41016,1.07421 -0.48637,0.0961 -1.00784,-0.0155 -1.44336,-0.28906 -0.43552,-0.27354 -0.76408,-0.6959 -0.88867,-1.17578 -0.12459,-0.47988 -0.0833,-1.03773 0.35547,-1.73633 l -0.0195,0.0274 c 0.36013,-0.533 0.55074,-1.02771 0.75,-1.40039 l 0.0137,-0.0234 c 0.34787,-0.60078 0.79261,-1.25675 1.10351,-2.09961 0.62177,-1.42399 1.05727,-2.86407 1.52344,-4.23633 v -0.002 -0.002 c 0.73548,-2.19434 1.35496,-4.43251 1.82617,-6.70703 l 0.002,-0.0117 c 0.76184,-3.46392 1.54612,-6.93984 2.18945,-10.45898 h -0.002 c 0.37628,-2.04525 0.44635,-2.31684 0.75,-4.38672 0.39621,-2.70088 0.6336,-5.3853 1.00976,-8.01367 l 0.002,-0.0215 0.002,-0.0234 c 0.33293,-3.43281 0.66556,-6.88339 0.83008,-10.36133 l 0.002,-0.0117 v -0.0137 c 0.0872,-4.12186 -0.0394,-8.21004 0.0527,-12.26172 v -0.0117 c 0.10854,-3.20428 0.36337,-6.40315 0.73633,-9.59375 l 0.002,-0.006 v -0.008 c 0.25514,-2.48134 0.55426,-4.91624 1.17969,-7.25391 v -0.004 -0.004 c 0.54776,-2.10497 1.17417,-4.0899 2.37891,-5.69922 0.001,-0.002 7.4e-4,-0.004 0.002,-0.006 0.303,-0.38942 0.85433,-1.08307 1.00391,-1.22265 0.90376,-0.84339 1.85527,-1.19208 3.07422,-1.10743 z m 2.36132,5.23243 c 0.01,0.0292 0.006,-0.001 0.0195,0.0547 0.0122,0.0514 0.0273,0.22553 0.0273,0.22461 0,-1.2e-4 -0.009,0.0436 -0.0117,0.0566 -0.008,-0.13374 -0.0126,-0.28194 -0.0352,-0.33593 z m -0.0234,0.59961 c -0.008,0.0383 -0.0235,0.10368 -0.0234,0.10351 3.1e-4,-6.7e-4 -0.40692,0.44375 -0.40625,0.44336 1.8e-4,-1e-4 -0.0686,0.0202 -0.11133,0.0332 0.22155,-0.12686 0.4492,-0.33237 0.54102,-0.58007 z"
             id="path100" /></g></g><g
         id="g111"
         transform="rotate(6.4184987,-24.001151,201.1739)"><g
           id="g95"
           transform="rotate(24.72168,129.07972,157.68292)"><path
             style="fill:#e5e5e5;fill-opacity:1;stroke:none;stroke-width:0.25;stroke-dasharray:none;stroke-opacity:1;paint-order:normal"
             d="m 100.10206,82.921147 c -1.203439,0.224941 -2.356674,0.56568 -3.54554,0.828915 -1.939363,0.524314 -3.757154,1.512247 -5.803386,1.59816 -0.804196,0.04471 -2.022405,0.190382 -1.991899,1.253833 0.292734,2.388277 1.178066,4.665277 1.888471,6.95426 0.656416,1.760799 1.168434,3.662202 2.320269,5.169276 0.972539,0.576009 1.853724,-0.428141 2.7927,-0.62518 1.033991,-0.29051 1.936511,-0.973822 2.982203,-1.185122 1.293242,0.02475 2.618642,0.05637 3.823922,-0.489869 0.86836,-0.302795 2.2904,-0.135961 2.37575,-1.354664 0.15987,-2.245366 -0.81385,-4.3752 -1.42095,-6.491531 -0.39336,-0.868204 -0.33523,-1.860927 -0.9484,-2.608029 -0.5257,-0.271177 -0.63125,-0.812418 -0.72925,-1.358399 -0.15184,-0.870874 -0.76585,-1.739114 -1.74389,-1.69165 z"
             id="path95"
             transform="translate(1.2500001)" /><path
             style="fill:#c3c3c3;fill-opacity:1;stroke:none;stroke-width:0.25;stroke-dasharray:none;stroke-opacity:1;paint-order:normal"
             d="m 96.298589,78.783451 c -1.929724,0.288117 -3.765616,0.752894 -5.701416,1.082032 -0.983891,0.394165 -0.674532,1.538459 -0.350098,2.281738 0.423032,0.916007 0.562119,2.10483 1.421387,2.728516 1.081991,0.42342 2.127639,-0.459456 3.156608,-0.702411 1.007757,-0.433309 2.10158,-0.616982 3.131379,-0.929231 0.943692,-0.593842 0.217135,-1.793571 0.179029,-2.672543 -0.04387,-0.812011 -0.317515,-2.003627 -1.376067,-1.834048 -0.153608,0.01532 -0.307215,0.03063 -0.460822,0.04595 z"
             id="path93"
             transform="translate(1.2500001)" /></g><g
           id="g96"
           transform="rotate(24.72168,129.07972,157.68292)"><path
             id="path60"
             style="fill:#000000;fill-opacity:1;stroke:none;stroke-width:2;stroke-dasharray:none;stroke-opacity:1;paint-order:normal"
             d="m 98.757813,77.550781 c -0.122524,-0.0013 -0.211521,0.02968 -0.337891,0.07227 -0.03052,0.01908 -0.04399,0.02709 -0.05469,0.0293 -0.01977,0.0025 -0.04519,-0.0085 -0.197265,0.0059 -0.332553,0.03138 -0.66301,0.0887 -0.998047,0.08789 -0.678387,0.06654 -1.327956,0.246734 -1.988281,0.410156 -1.126124,0.220338 -2.253677,0.439055 -3.384766,0.632812 -0.23521,0.04662 -0.770478,0.137355 -0.984375,0.25 -0.620914,0.326995 -0.872183,0.787048 -0.826172,1.464844 0.05493,0.6077 0.211614,1.203572 0.404297,1.78125 0.26431,0.709286 0.540092,1.411392 0.853516,2.09961 -0.473648,0.03971 -1.002184,0.09135 -1.326172,0.201172 -0.298214,0.101088 -0.568981,0.269426 -0.853516,0.404296 -0.144255,0.359369 -0.351564,0.699672 -0.433594,1.078125 -0.02738,0.126331 0.23722,0.87717 0.263672,0.960938 0.22951,0.726816 0.403037,1.466957 0.56836,2.210937 0.537737,1.91739 1.128395,3.824525 1.753906,5.714844 0.451209,1.322031 0.993416,2.59639 1.705078,3.794922 -0.856431,0.825301 0.190611,2.251173 1.296875,1.513673 1.267296,-0.759903 2.661933,-1.285617 4.060547,-1.750001 0.936665,-0.293995 1.913265,-0.39176 2.876955,-0.552734 0.75184,-0.02862 1.43497,-0.242418 2.13281,-0.50586 0.47497,-0.187406 0.93265,-0.315952 1.44141,-0.349609 0.70536,-0.126506 1.44659,-0.184674 1.90039,-0.835938 0.13058,-0.187413 0.16408,-0.427435 0.24609,-0.640625 0.21207,-1.522771 -0.13157,-3.04501 -0.50195,-4.515625 -0.41947,-1.474033 -0.99688,-2.893697 -1.42383,-4.365234 -0.0645,-0.460479 -0.20105,-0.897765 -0.35547,-1.333985 -0.084,-0.227116 -0.20909,-0.394127 -0.35547,-0.509765 -0.0215,-0.110553 -0.0429,-0.221478 -0.0644,-0.332031 -0.29652,-1.18512 -0.55507,-1.929638 -1.70898,-2.486328 -0.20709,-0.07284 -0.40726,-0.178434 -0.62305,-0.21875 -0.39077,-0.07301 -0.76672,-0.02601 -1.13867,0.06445 -0.007,-0.07121 -0.022,-0.144024 -0.043,-0.220703 -0.12077,-0.411952 -0.16317,-0.841438 -0.20508,-1.267579 -0.0842,-0.513259 -0.21271,-1.016885 -0.30273,-1.529297 -0.192076,-0.602142 -0.441112,-1.135606 -1.125005,-1.320312 -0.112653,-0.03043 -0.19797,-0.04217 -0.271484,-0.04297 z m -0.525391,1.914063 c 4.78e-4,0.0027 0.0015,0.0051 0.002,0.0078 9.79e-4,0.0073 9.38e-4,0.0142 0.002,0.02148 -0.01109,-0.0032 -0.02074,-0.0071 -0.02539,-0.0098 l -0.002,-0.002 v -0.002 l -0.002,-0.002 0.002,-0.002 v -0.002 h 0.002 l 0.002,-0.002 0.002,-0.002 c 0.0043,-0.0023 0.0107,-0.0035 0.01758,-0.0059 z m 0.03125,0.199218 c 0.06362,0.366457 0.160623,0.725792 0.216797,1.09375 0.0348,0.50128 0.124314,0.995354 0.251953,1.480469 0.02102,0.07681 0.04793,0.147891 0.07813,0.212891 -0.402215,0.06806 -0.810829,0.109876 -1.201172,0.216797 -0.808163,0.219224 -1.616928,0.452299 -2.367187,0.832031 -0.348409,0.180683 -0.05756,0.04406 -0.56836,0.207031 -0.449921,0.143546 -0.882009,0.334212 -1.349609,0.416016 -0.393698,-0.829156 -0.740109,-1.677069 -1.060547,-2.537109 -0.07773,-0.265124 -0.163053,-0.533588 -0.220703,-0.806641 0.04538,-0.0091 0.09126,-0.0168 0.136719,-0.02539 1.131986,-0.193448 2.257781,-0.414523 3.384765,-0.634765 0.598243,-0.120181 1.174628,-0.333408 1.785156,-0.38086 0.304131,-0.01845 0.610102,-0.03961 0.914063,-0.07422 z m -6.28125,0.574219 h 0.002 0.002 v 0.002 l 0.002,0.002 c 0.0053,0.01407 0.0028,0.06482 -0.002,0.08594 -0.002,0.0089 -0.0039,0.01883 -0.0059,0.02734 -2.92e-4,-0.0044 2.68e-4,-0.0093 0,-0.01367 -5.3e-5,-0.03309 -0.01527,-0.07026 0,-0.09961 l 0.002,-0.002 z m 9.582028,3.5625 h 0.002 0.002 0.002 c 0.0348,0.01077 0.0953,0.105981 0.10742,0.123047 0.13572,0.08179 0.34451,0.219554 0.43555,0.357422 v 0.002 0.002 0.002 h -0.002 v -0.002 c -0.0121,-0.0032 -0.054,-0.02749 -0.0742,-0.03125 -9.6e-4,-7.5e-5 -0.003,-5.9e-5 -0.004,0 h -0.002 -0.002 v 0.002 h -0.002 v 0.002 0.002 0.002 c -4.2e-4,0.0896 0.0612,0.167256 0.084,0.253906 0.0458,0.173987 0.0808,0.350052 0.12109,0.525391 0.0412,0.215136 0.0818,0.431349 0.12305,0.646484 0.0685,0.354821 0.24824,0.593844 0.47266,0.730469 0.0879,0.290764 0.14487,0.589563 0.20312,0.890625 0.42518,1.448076 0.97881,2.851508 1.40625,4.298828 0.28865,1.116894 0.54188,2.262073 0.50781,3.421875 -0.1227,0.02223 -0.24451,0.04386 -0.36328,0.08008 -0.69683,0.05617 -1.34965,0.221993 -2,0.474609 -0.0824,0.03127 -0.46967,0.176087 -0.57031,0.226563 -0.0261,0.0131 -0.0397,0.04909 -0.0684,0.05469 -0.36409,0.07111 -0.75605,0.01849 -1.11719,0.123047 -1.066518,0.178232 -2.145793,0.292413 -3.179686,0.628907 -1.007986,0.338437 -2.014759,0.703179 -2.980468,1.152343 -0.651499,-1.091224 -1.14736,-2.251775 -1.554688,-3.458984 C 92.500097,92.454226 91.912672,90.5843 91.388672,88.701172 91.329722,88.446657 91.273293,88.191674 91.212891,87.9375 91.019588,87.124081 91.049408,87.223993 90.8125,86.464844 c 0.01836,-0.0038 0.03651,-0.0075 0.05469,-0.0098 0.19448,-0.02393 0.38929,-0.05405 0.583984,-0.07617 0.668409,-0.07592 1.331723,-0.159424 1.998047,-0.253906 0.899074,-0.169197 1.77945,-0.444899 2.61914,-0.804688 0.651893,-0.334585 1.358227,-0.531287 2.0625,-0.720703 0.688396,-0.127042 1.380321,-0.231638 2.052729,-0.43164 0.46122,-0.08634 0.90516,-0.348569 1.38086,-0.367188 z" /></g></g></g></g></svg>
