<?xml version="1.0" encoding="UTF-8" standalone="no"?>
<!-- Created with Inkscape (http://www.inkscape.org/) -->

<svg
   width="13.782536"
   height="55.393505"
   viewBox="0 0 13.782536 55.393505"
   version="1.1"
   id="svg1"
   xml:space="preserve"
   xmlns:xlink="http://www.w3.org/1999/xlink"
   xmlns="http://www.w3.org/2000/svg"
   xmlns:svg="http://www.w3.org/2000/svg"><defs
     id="defs1"><linearGradient
       id="linearGradient41"><stop
         style="stop-color:#334c66;stop-opacity:1;"
         offset="0"
         id="stop41" /><stop
         style="stop-color:#767676;stop-opacity:1;"
         offset="1"
         id="stop42" /></linearGradient><linearGradient
       xlink:href="#linearGradient41"
       id="linearGradient42"
       x1="66.62722"
       y1="175.48076"
       x2="77.532028"
       y2="175.48076"
       gradientUnits="userSpaceOnUse" /></defs><g
     id="g10"
     style="display:inline"
     transform="translate(-49.350115,-63.168949)"><g
       id="layer1"
       style="display:inline"
       transform="matrix(0.5,0,0,0.5,28.120692,45.43285)"><g
         id="g40"
         transform="matrix(0.6475984,0,0,0.6475984,14.314967,23.509631)"><path
           style="fill:url(#linearGradient42);stroke-width:0.5;stroke-linecap:round;stroke-linejoin:round;stroke-miterlimit:2;stroke-dasharray:none"
           d="m 67.486328,168.94727 c -1.73545,1.59068 -0.333697,4.07638 -0.160482,6.04633 0.707042,2.3347 0.871662,5.25584 2.91162,6.86954 2.088925,1.05067 5.55058,0.54161 6.112144,-2.11119 0.919657,-3.13745 1.379451,-6.50353 1.102302,-9.74107 -0.806027,-2.1433 -3.579114,-1.16531 -5.351814,-1.38588 -1.534278,0.10346 -3.155454,-0.27025 -4.61377,0.32227 z"
           id="path38" /><path
           style="fill:#569ad3;fill-opacity:1;stroke-width:0.5;stroke-linecap:round;stroke-linejoin:round;stroke-miterlimit:2;stroke-dasharray:none"
           d="m 78.671387,32.129883 c -6.30213,0.934979 -12.589257,2.172601 -18.687989,4.012207 -1.868001,1.220249 -1.205362,3.826004 -1.572384,5.718027 -1.542236,22.325323 -0.642126,44.724508 0.648961,67.037223 1.064051,18.49077 5.327903,36.65887 7.813109,54.8981 -0.05593,1.64912 0.652015,3.88413 2.704065,3.57956 2.478833,-0.21062 5.186967,0.46871 7.519531,-0.57324 1.539191,-1.33759 0.816328,-3.68337 1.280835,-5.47121 1.569511,-15.41466 3.760149,-30.81243 4.141135,-46.34037 C 83.122738,96.35667 83.308893,77.66827 81.913082,59.06488 81.093264,50.770862 80.912396,42.432755 81,34.103516 80.860541,32.850848 79.936392,32.062972 78.671387,32.129883 Z"
           id="path39" /><path
           style="fill:#abc0d3;fill-opacity:1;stroke-width:0.5;stroke-linecap:round;stroke-linejoin:round;stroke-miterlimit:2;stroke-dasharray:none"
           d="m 71.73584,21.56543 c -2.627629,0.375532 -6.043375,-0.09904 -7.864746,2.258789 -0.95104,2.215936 -0.575621,4.785639 -0.519043,7.143066 0.128939,2.064926 2.556914,2.586784 4.170184,1.881431 2.145417,-0.692307 4.520688,-0.600018 6.546613,-1.592368 1.201406,-1.681532 0.450351,-3.908017 0.454222,-5.843564 -0.158889,-1.626125 -0.837975,-3.806859 -2.78723,-3.847354 z"
           id="path40" /></g><g
         id="g41"
         transform="matrix(0.6475984,0,0,0.6475984,20.790951,26.747623)"><path
           style="fill:#305676;fill-opacity:1;stroke-width:2;stroke-linecap:round;stroke-linejoin:round;stroke-miterlimit:2;stroke-dasharray:none"
           id="path33"
           d="m 47.23015,33.59382 c -2.14892,0.39126 -4.3466,0.91974 -6.26784,2.00082 -0.52272,0.29414 -1.00217,0.65929 -1.50326,0.98894 -1.76087,1.45909 -3.24492,3.18894 -4.08456,5.33904 -0.57613,1.4753 -0.70625,2.43524 -1.03164,3.9913 -0.69832,4.21018 -0.78958,8.48599 -0.8491,12.74333 -0.10299,5.19912 0.0372,10.39414 0.22146,15.58926 0.14417,4.06438 0.37934,8.12855 0.69742,12.18327 0.33968,3.33797 0.39067,6.69382 0.59831,10.03971 0.15238,2.79722 0.38933,5.58551 0.77424,8.3601 0.49091,3.50128 5.44247,2.80703 4.95156,-0.69426 v 0 C 40.36116,101.48849 40.15255,98.82558 40.00115,96.15674 39.78756,92.78468 39.7433,89.40157 39.39721,86.03739 39.08252,82.05449 38.85505,78.0617 38.71206,74.06925 38.53066,68.9563 38.39097,63.84358 38.49327,58.72667 c 0.0544,-3.9455 0.13009,-7.90775 0.74869,-11.81341 0.24325,-1.23183 0.4172,-2.66829 1.02627,-3.79954 0.49324,-0.91612 1.27059,-1.67647 2.0027,-2.39573 1.77146,-1.27382 3.64177,-1.85247 5.78122,-2.1922 3.48742,-0.58123 2.66543,-5.5132 -0.822,-4.93197 z" /><path
           style="fill:#a1a1a1;fill-opacity:1;stroke-width:2;stroke-linecap:round;stroke-linejoin:round;stroke-miterlimit:2;stroke-dasharray:none"
           id="path37"
           d="m 59.460995,178.05021 c 0.401926,0.7756 0.697812,1.59578 1.011691,2.40887 0.386321,0.91958 0.634712,1.8835 1.033058,2.7983 0.438028,0.86503 1.013496,1.53194 2.253275,1.20291 0.904616,-0.24008 1.08045,-1.24117 1.237636,-1.96326 0.180144,-1.14004 0.331179,-2.28238 0.420814,-3.43319 0.13524,-0.87875 0.201354,-1.82882 -0.424978,-2.55676 -0.152962,-0.17777 -0.364532,-0.29516 -0.546799,-0.44275 -0.656075,-0.33703 -1.347805,-0.36029 -2.062851,-0.29372 -2.101684,0.28796 -1.694437,3.26019 0.407247,2.97223 v 0 c -0.103226,-0.0554 0.558602,0.0555 0.08639,-0.12164 -0.183028,-0.19535 -0.443378,-0.43949 -0.375306,-0.74674 0.0064,-0.0291 0.01917,0.0576 0.01866,0.0874 -0.0036,0.20706 -0.07571,0.72707 -0.09346,0.871 -0.07858,1.02752 -0.215822,2.04654 -0.369332,3.06528 -0.152489,0.87859 -0.03899,-0.18687 0.747408,-0.28192 1.543616,-0.18658 1.120684,0.075 1.553578,0.6183 0.04573,0.0574 -0.07265,-0.12754 -0.108972,-0.19131 -0.392108,-0.86365 -0.585379,-1.79997 -0.977762,-2.66477 -0.327033,-0.84669 -0.635027,-1.70204 -1.052863,-2.50998 -0.83563,-1.9498 -3.593065,-0.76804 -2.757436,1.18176 z" /><path
           style="fill:#000000;stroke-width:2;stroke-linecap:round;stroke-linejoin:round;stroke-miterlimit:2;stroke-dasharray:none"
           id="path29"
           d="m 58.41866,165.5 c 1.51929,0 3.03858,0 4.55786,0 0.71506,0 1.43012,0 2.14517,0 3.53553,0 3.53553,-5 0,-5 v 0 c -0.71505,0 -1.43011,0 -2.14517,0 -1.51928,0 -3.03857,0 -4.55786,0 -3.53553,0 -3.53553,5 0,5 z" /><path
           style="fill:#000000;stroke-width:2;stroke-linecap:round;stroke-linejoin:round;stroke-miterlimit:2;stroke-dasharray:none"
           id="path31"
           d="m 59,161.64115 c -0.17405,-3.31922 -0.66654,-6.60627 -1.23629,-9.87698 -1.01266,-6.71807 -2.26821,-13.39503 -3.41044,-20.0913 -1.09142,-6.03777 -1.92852,-12.11378 -2.55227,-18.21617 -0.61202,-4.9083 -0.97826,-9.83823 -1.17577,-14.779 -0.261,-4.22139 -0.44963,-8.44515 -0.54777,-12.67336 -0.20168,-4.02382 -0.39988,-8.04663 -0.49237,-12.07465 -0.0796,-4.53359 -0.0839,-9.06806 -0.0887,-13.60221 -0.0776,-3.88092 0.0534,-7.75464 0.22599,-11.63051 0.15731,-3.58605 0.16904,-7.17419 0.39835,-10.75668 0.16463,-1.5784 0.38913,-3.14946 0.57587,-4.72525 0.41543,-3.51104 -4.54993,-4.09855 -4.96537,-0.58751 v 0 c -0.19671,1.66522 -0.43935,3.32483 -0.60035,4.99422 -0.23017,3.61465 -0.24948,7.23448 -0.40355,10.85278 -0.17597,3.9517 -0.30797,7.90153 -0.23094,11.85829 0.005,4.57074 0.009,9.14181 0.09,13.71198 0.093,4.02836 0.28669,8.05178 0.49239,12.07579 0.0992,4.25621 0.28651,8.50813 0.55044,12.75744 0.20283,5.04366 0.57376,10.07671 1.1977,15.08739 0.63585,6.2135 1.48689,12.40047 2.59754,18.54836 1.14383,6.70281 2.39944,13.38652 3.41385,20.11109 0.52372,2.98691 0.97071,5.98727 1.16166,9.01628 0,3.53553 5,3.53553 5,0 z" /><path
           style="fill:#000000;stroke-width:2;stroke-linecap:round;stroke-linejoin:round;stroke-miterlimit:2;stroke-dasharray:none"
           id="path32"
           d="m 70.59134,163.4999 c 0.86958,-4.96778 1.20166,-10.01528 1.72952,-15.02812 0.62664,-5.9568 1.40151,-11.89718 2.01762,-17.8549 0.49749,-4.96384 0.78041,-9.94194 1.07116,-14.92066 0.30246,-4.67183 0.45929,-9.35058 0.54243,-14.03087 0.0514,-3.6211 0.054,-7.24263 0.0541,-10.86401 -0.002,-4.20016 -0.004,-8.40032 -0.005,-12.60048 0.0773,-3.47436 -0.053,-6.94009 -0.23086,-10.40848 -0.14681,-3.18365 -0.19872,-6.3677 -0.4012,-9.54858 -0.14959,-2.59314 -0.49741,-5.16843 -0.71078,-7.75664 -0.14449,-1.79328 -0.10366,-3.59354 -0.22795,-5.38704 -0.20604,-2.00945 -0.30806,-4.02639 -0.37842,-6.04444 -0.0475,-1.43912 -0.0531,-2.87908 -0.0554,-4.31883 -1.1e-4,-1.4902 0.002,-2.98039 0.002,-4.47059 4.6e-4,-1.19829 2.6e-4,-0.60833 6.1e-4,-1.76988 10e-4,-3.53553 -4.99893,-3.53705 -5,-0.002 v 0 c -3.5e-4,1.16095 -1.5e-4,0.5713 -6.1e-4,1.76894 -7.4e-4,1.49368 -0.003,2.98737 -0.002,4.48105 0.002,1.49533 0.009,2.99088 0.0584,4.48555 0.073,2.08213 0.17699,4.16337 0.38884,6.23671 0.14381,1.80614 0.0575,3.62565 0.23144,5.43166 0.21161,2.557 0.5516,5.10153 0.70393,7.66301 0.20163,3.16016 0.24836,6.32379 0.39764,9.48666 0.17352,3.38367 0.30249,6.76421 0.2243,10.15385 0.001,4.19964 0.003,8.39927 0.005,12.5989 -9e-5,3.59189 -0.003,7.18392 -0.0533,10.77552 -0.0816,4.61266 -0.23633,9.22379 -0.53471,13.82809 -0.28624,4.90445 -0.56338,9.80833 -1.05318,14.69816 -0.61477,5.95461 -1.39141,11.8916 -2.01662,17.84532 -0.49968,4.74728 -0.84557,9.51813 -1.58082,14.23602 -0.93026,3.41096 3.89355,4.72654 4.82382,1.31559 z" /><path
           style="fill:#000000;stroke-width:2;stroke-linecap:round;stroke-linejoin:round;stroke-miterlimit:2;stroke-dasharray:none"
           id="path34"
           d="m 49.35885,33 c 3.02151,-0.45437 5.9591,-1.38317 8.91527,-2.14975 2.82477,-0.71335 5.71682,-1.11167 8.59844,-1.5185 0.32099,-0.0401 0.64199,-0.0802 0.96298,-0.12025 3.50815,-0.43922 2.887,-5.40049 -0.62115,-4.96127 v 0 c -0.34716,0.0436 -0.69432,0.0871 -1.04148,0.13071 -3.06854,0.43405 -6.14711,0.8641 -9.15396,1.62941 -2.55384,0.66237 -5.09997,1.3548 -7.6601,1.98965 -3.53553,0 -3.53553,5 0,5 z" /><path
           style="fill:#000000;stroke-width:2;stroke-linecap:round;stroke-linejoin:round;stroke-miterlimit:2;stroke-dasharray:none"
           id="path35"
           d="m 55.40618,27.23015 c -0.20627,-1.72613 -0.34644,-3.47155 -0.2909,-5.21039 0.11714,-0.62332 -0.0205,-2.0578 0.42978,-2.55943 0.0924,-0.10294 0.24045,-0.13729 0.35541,-0.21423 1.42285,-0.3924 2.88117,-0.58248 4.3502,-0.70009 0.69676,0.0503 1.45318,-0.18777 2.14699,-0.0685 0.003,4.9e-4 -0.28637,0.1477 -0.28685,0.19501 -9.7e-4,0.0969 0.0734,0.17936 0.11016,0.26905 0.51653,1.15107 0.66714,2.37464 0.61532,3.61957 -0.0632,0.86077 -0.0285,0.43103 -0.10414,1.2892 -0.30845,3.52205 4.67249,3.95827 4.98094,0.43622 v 0 c 0.0879,-1.00893 0.0469,-0.48503 0.12084,-1.57189 0.0571,-2.38935 -0.34747,-4.725 -1.62561,-6.78989 -0.83254,-0.99332 -1.08492,-1.51093 -2.34277,-2.07171 -1.28781,-0.57413 -2.67523,-0.34329 -4.02298,-0.29039 -2.59273,0.21626 -5.2613,0.51178 -7.42311,2.09419 -0.28894,0.30302 -0.61245,0.5765 -0.86683,0.90907 -1.17155,1.53169 -1.34393,3.47141 -1.43579,5.32874 -0.0413,2.05636 0.0816,4.11863 0.35737,6.15746 0.58123,3.48742 5.5132,2.66543 4.93197,-0.822 z" /><path
           style="fill:#000000;stroke-width:2;stroke-linecap:round;stroke-linejoin:round;stroke-miterlimit:2;stroke-dasharray:none"
           id="path36"
           d="m 55.5,164.70933 c -0.05327,1.15733 0.05485,2.29376 0.272903,3.42916 0.350615,1.44205 0.622069,2.90244 0.971121,4.34476 0.298943,1.08321 0.599143,2.16758 1.061682,3.19374 0.388692,0.83297 0.931104,1.51066 1.655579,2.07045 0.728203,0.50394 1.568942,0.67294 2.433718,0.7382 0.865406,-0.0218 1.729738,-0.10968 2.576981,-0.28786 1.18031,-0.30125 1.677834,-0.67315 2.365869,-1.69354 0.603702,-1.17353 0.926795,-2.44727 1.200199,-3.72941 0.396522,-1.54936 0.543832,-3.14001 0.640099,-4.73128 0.05491,-1.02911 0.06434,-2.05982 0.07411,-3.09009 0.02001,-2.12123 -2.979853,-2.14953 -2.999867,-0.0283 v 0 c -0.0092,0.97977 -0.01756,1.95996 -0.06885,2.93865 -0.08581,1.44197 -0.214681,2.88322 -0.579695,4.28619 -0.199633,0.93884 -0.424887,1.86235 -0.800778,2.74962 -0.198679,0.40902 -0.05842,0.0568 -0.01745,0.18891 0.01748,0.0564 -0.37375,0.13534 -0.438055,0.17496 -0.57771,0.12494 -1.162886,0.1682 -1.750387,0.22898 -0.291211,-0.0153 -0.59071,-0.0321 -0.857747,-0.16126 -0.347113,-0.20849 -0.515431,-0.56346 -0.708472,-0.90841 -0.401306,-0.84124 -0.600621,-1.7607 -0.871834,-2.6482 -0.342138,-1.40013 -0.600066,-2.82018 -0.943614,-4.22011 -0.195373,-0.94124 -0.256696,-1.8841 -0.215508,-2.84515 0,-2.12132 -3,-2.12132 -3,0 z" /></g></g></g></svg>
