<?xml version="1.0" encoding="UTF-8" standalone="no"?>
<!-- Created with Inkscape (http://www.inkscape.org/) -->

<svg
   width="180"
   height="180"
   viewBox="0 0 180 180"
   version="1.1"
   id="svg1"
   xml:space="preserve"
   xmlns="http://www.w3.org/2000/svg"
   xmlns:svg="http://www.w3.org/2000/svg"><defs
     id="defs1" /><g
     id="g270"
     style="display:inline"
     transform="translate(-6,-116)"><g
       id="layer4"
       style="display:inline;opacity:1"><g
         id="g62"
         style="fill:#ff9966"
         transform="matrix(1.3220834,0,0,1.3220834,-40.319566,-148.58908)"><path
           style="fill:#ff9966;fill-opacity:1;stroke-width:1.25;stroke-linecap:round;stroke-linejoin:round;stroke-miterlimit:2"
           d="m 90.214355,235.47852 c -4.090785,0.0402 -8.20521,1.19545 -11.756347,3.21337 -4.20737,2.8743 -6.998253,7.31888 -9.753873,11.50302 -3.9944,6.30078 -6.067078,13.64645 -6.493938,21.06333 -0.968125,10.47673 -1.236763,21.08459 -1.336173,31.54694 0.01005,2.71855 -1.001722,5.3972 -0.901368,8.06689 3.111015,2.96183 7.002998,4.96632 11.138672,6.06983 6.62842,2.1488 13.448704,3.65481 20.376305,4.41784 7.703387,1.11524 15.438997,2.14712 23.239467,2.11514 1.63046,-0.0741 3.39706,0.33113 4.87886,0.007 0.77729,-1.57734 0.17897,-3.55076 0.41088,-5.28268 0.23186,-11.31442 1.38483,-22.62601 0.93325,-33.96178 -0.16302,-10.12378 -0.7334,-20.34944 -3.21571,-30.20232 -1.59716,-6.13656 -4.59193,-12.64222 -10.47608,-15.69824 -3.68266,-1.35195 -7.614905,-1.94949 -11.46289,-2.66651 -1.848847,-0.25572 -3.72019,-0.1977 -5.581055,-0.1914 z m -15.746581,23.75146 c 6.980628,0.52707 14.001759,1.28176 20.951354,1.68278 4.893112,0.51048 9.819882,0.82035 14.626772,1.86312 0.58072,0.96968 -0.73751,1.57636 -1.53418,1.21631 -6.93903,-0.83843 -13.89121,-1.63053 -20.862795,-1.99805 -4.61083,-0.43842 -9.284902,-0.71249 -13.870605,-1.34668 -0.97461,-0.33855 -0.222748,-1.79399 0.689454,-1.41748 z m -5.3125,31.20654 c 7.501925,0.65953 15.072572,2.0186 22.665109,2.53554 5.381047,0.58293 10.865877,0.59893 16.124447,1.70958 0.65554,0.50856 0.0601,1.69533 -0.83252,1.38526 -9.685032,-1.17382 -19.540327,-1.59078 -29.227544,-2.98194 -3.069233,-0.46516 -6.192553,-0.79512 -9.258789,-1.12353 -0.729067,-0.39849 -0.513969,-1.19994 0.127929,-1.51758 0.133275,-0.0144 0.267669,-0.0104 0.401368,-0.007 z m 37.238286,5.646 c 0.0521,0.0337 -0.049,-0.0268 0,0 z"
           id="path62" /><path
           style="fill:#ff9966;fill-opacity:1;stroke-width:1.25;stroke-linecap:round;stroke-linejoin:round;stroke-miterlimit:2"
           d="m 90.701173,229.09082 c -1.27792,-0.033 -2.593381,0.0841 -3.68213,0.73291 -5.082546,0.79855 -9.865996,3.25631 -13.586357,6.80826 -3.453043,3.03866 -6.172234,6.77744 -8.543037,10.68783 -1.224493,1.2581 -0.840351,3.31218 -0.886951,4.87765 0.8757,1.54769 1.958026,-0.5734 2.384633,-1.43725 1.664919,-3.63071 5.548241,-5.68962 6.932005,-9.47213 3.375866,-5.04035 9.759329,-6.74008 15.419922,-7.40674 5.4579,-0.5879 10.857402,0.89783 16.139652,1.95117 5.89368,1.11159 9.84944,6.28117 12.24853,11.40674 3.3977,7.97353 4.22382,16.71788 4.99756,25.26074 0.53216,10.39377 0.45701,20.86937 0.18799,31.26807 -0.37598,6.48153 -0.90458,12.98821 -0.63843,19.48025 -0.27748,2.1593 1.87336,1.64783 2.77428,0.44249 1.52326,-1.30378 3.46268,-2.12443 4.87831,-3.49061 -0.32484,-5.12221 -0.0184,-10.25805 0.38623,-15.38037 0.12898,-9.25236 -0.51379,-18.49958 -0.45011,-27.75427 -0.35719,-8.81079 -0.63504,-17.71648 -2.67977,-26.33265 -1.36313,-4.01482 -3.04828,-8.07992 -5.8208,-11.34131 -2.60231,-2.73497 -6.33558,-3.90639 -9.33571,-6.11553 -5.68964,-3.53233 -12.53041,-4.16566 -19.07291,-4.17987 -0.55089,-0.0107 -1.101957,-0.0113 -1.652907,-0.005 z"
           id="path63" /><path
           style="fill:#ff9966;fill-opacity:1;stroke-width:1.25;stroke-linecap:round;stroke-linejoin:round;stroke-miterlimit:2"
           d="m 90.054199,223.5625 c -1.28492,0.10082 -2.513978,0.70046 -3.697265,1.21484 -1.830134,1.2228 -4.584258,1.26134 -5.836426,3.2378 -0.49428,1.29715 1.070033,1.9183 2.089844,1.51025 3.549499,-0.68765 7.139924,-1.39864 10.760254,-0.99707 4.304819,0.20645 8.726614,0.076 12.803834,1.72135 4.63661,1.30597 8.37192,4.4606 12.61072,6.59847 4.11057,2.81969 6.1802,7.6138 7.87537,12.11594 2.74599,9.29485 2.84596,19.0681 3.11415,28.67052 0.072,12.01071 0.87171,24.0395 -0.0314,36.03667 0.0686,1.7943 -0.30869,3.73393 0.30706,5.44397 1.13241,0.79806 2.36599,-0.59427 3.36231,-1.10743 1.35266,-0.89558 2.08597,-2.35413 2.82471,-3.71289 0.88668,-0.41791 1.53094,-1.17868 1.42065,-2.22167 1.05872,-6.83125 1.91326,-13.71287 1.73705,-20.64112 0.0908,-7.87268 -0.0553,-15.77354 -0.92325,-23.58586 -0.79155,-10.31247 -1.46846,-21.24505 -7.05858,-30.27325 -3.6733,-4.70999 -8.9068,-7.948 -14.4052,-10.12856 -2.62386,-1.21589 -5.22452,-2.71482 -8.20287,-2.76153 -5.59735,-1.11176 -11.335282,-0.69157 -16.996028,-1.10188 -0.58481,-0.0155 -1.169852,-0.0275 -1.754883,-0.0186 z"
           id="path73" /><path
           style="fill:#ffc666;fill-opacity:1;stroke-width:1.25;stroke-linecap:round;stroke-linejoin:round;stroke-miterlimit:2"
           d="m 107.88184,205.09717 c -4.86515,0.0841 -10.310713,0.15087 -14.112309,3.6626 -3.679766,3.11943 -5.430784,7.98197 -6.171386,12.62255 -0.141023,1.52918 1.981623,2.11402 2.700195,0.79737 1.24615,-0.49666 3.486707,0.31357 3.531784,-1.64501 0.737705,-4.12446 3.195931,-8.51607 7.515086,-9.62501 2.99334,-0.36358 6.39557,-0.66201 9.07276,0.99316 2.89383,2.52535 3.34044,6.67525 3.90163,10.25346 -0.0191,1.37048 0.34935,3.02432 1.94944,3.25728 2.07116,0.76199 4.02412,1.93455 6.15674,2.47998 1.49966,-0.48244 0.72924,-2.53716 0.81312,-3.69635 -0.50962,-4.67839 -1.23161,-9.69007 -4.09779,-13.57415 -1.95815,-2.20914 -4.5342,-3.8549 -7.19043,-5.09864 -1.2999,-0.47558 -2.70606,-0.44413 -4.06884,-0.42724 z"
           id="path80" /><path
           style="fill:#644d42;fill-opacity:1;stroke-width:1.25;stroke-linecap:round;stroke-linejoin:round;stroke-miterlimit:2"
           d="m 140.57959,265.09473 c -1.17079,0.8757 -0.28035,2.64501 -0.40381,3.8667 1.08967,9.89576 0.96814,19.89682 0.68845,29.84742 -0.20086,4.84733 -1.19064,9.5611 -1.65183,14.39818 0.57281,1.63953 2.70686,0.74277 3.88291,0.40703 3.749,-1.37064 7.28631,-3.98427 9.07315,-7.62089 1.41815,-4.0576 -0.0825,-8.38274 -0.8335,-12.42383 -1.85603,-8.88014 -5.46816,-17.24085 -8.62793,-25.70606 -0.56539,-0.84676 -0.65982,-3.10011 -2.12744,-2.76855 z"
           id="path81" /><path
           style="fill:#644d42;fill-opacity:1;stroke-width:1.25;stroke-linecap:round;stroke-linejoin:round;stroke-miterlimit:2"
           d="m 149.01318,312.45606 c -1.40574,0.73526 -2.69839,1.823 -4.27197,2.30371 -1.77563,0.83646 -3.72388,0.79454 -5.55273,1.39306 -2.18442,1.70743 -1.20204,4.79172 -1.75338,7.15277 -0.58822,2.81924 -0.56888,5.8413 0.92999,8.39463 0.57425,1.82515 2.85501,0.69148 4.24287,0.94473 3.03462,-0.0193 6.20453,10e-4 8.9228,-1.55902 1.5538,-0.50372 0.6538,-2.20739 -0.0498,-3.04688 -1.51494,-2.98055 -1.08072,-6.49523 -1.42121,-9.70974 -0.27288,-1.82027 0.27205,-3.77814 -0.27166,-5.5261 -0.17544,-0.23978 -0.47925,-0.37529 -0.77491,-0.34716 z"
           id="path82" /><path
           style="fill:#644d42;fill-opacity:1;stroke-width:1.25;stroke-linecap:round;stroke-linejoin:round;stroke-miterlimit:2"
           d="m 93.820801,226.35303 c -0.97501,0.0223 -2.954212,-0.18907 -2.711914,1.33886 0.798766,1.35678 2.784899,0.4983 4.039764,0.82179 3.432908,0.17748 6.877669,0.28775 10.153039,1.48852 5.00639,1.1736 8.99139,4.59338 13.49909,6.85766 4.17995,2.83448 6.19504,7.81774 7.9375,12.32569 2.85639,9.42768 2.54635,19.46757 3.02114,29.24737 0.39628,13.202 0.43579,26.42967 -0.018,39.61195 -0.2818,1.23031 1.14485,1.72315 1.98515,0.98296 0.93637,-0.31591 2.17223,-1.21032 1.45606,-2.3125 -0.69247,-7.28772 0.7631,-14.49538 0.27044,-21.80703 -0.41084,-8.85594 -0.24129,-17.72807 -0.66901,-26.58101 -0.54442,-7.41793 -0.74462,-15.01653 -3.02868,-22.15981 -1.97039,-4.73124 -4.19914,-10.19835 -9.19824,-12.43164 -3.75841,-2.07061 -7.22999,-4.78528 -11.48096,-5.81592 -4.89492,-1.82319 -10.134262,-1.40114 -15.255369,-1.56689 z"
           id="path91" /><path
           id="path92"
           style="fill:#644d42;fill-opacity:1;stroke-width:0.110485;stroke-linecap:round;stroke-linejoin:round;stroke-miterlimit:2"
           d="m 75.398438,232.43164 c -0.28099,0.0283 -0.523228,0.19941 -0.806641,0.2168 -0.337681,0.05 -0.587618,0.31477 -0.730469,0.60937 -0.08731,0.14726 -0.173062,0.30963 -0.21875,0.47852 -0.07571,-0.008 -0.151981,-0.007 -0.228516,0.002 -0.393604,0.0747 -0.655986,0.40625 -0.945312,0.6543 -0.113351,0.0971 -0.193026,0.22715 -0.236328,0.36719 -0.356287,0.0761 -0.597065,0.38387 -0.875,0.59765 -0.570246,0.50968 -1.139702,1.0277 -1.626953,1.61914 -0.216244,0.30752 -0.527747,0.5989 -0.527344,1.00196 0.0027,0.41904 0.371125,0.79406 0.792969,0.78515 0.34504,0.0216 0.608735,-0.23734 0.820312,-0.47656 0.718757,-0.76181 1.483665,-1.47994 2.195313,-2.24805 0.05765,-0.0714 0.09937,-0.15284 0.126953,-0.23828 0.132588,-0.0189 0.260221,-0.0667 0.371094,-0.14258 0.280427,-0.19073 0.599422,-0.35661 0.794922,-0.64258 0.05132,-0.0772 0.08607,-0.16259 0.105468,-0.25 0.100229,9.6e-4 0.200539,-0.0176 0.294922,-0.0586 0.362521,-0.1673 0.677647,-0.42592 1.007813,-0.64844 0.262212,-0.17124 0.522208,-0.40242 0.554687,-0.73437 0.05088,-0.39543 -0.229328,-0.79175 -0.61914,-0.875 -0.08133,-0.0228 -0.166494,-0.0181 -0.25,-0.0176 z" /><path
           id="path94"
           style="fill:#cc6633;fill-opacity:1;stroke-width:1.25;stroke-linecap:round;stroke-linejoin:round;stroke-miterlimit:2"
           d="m 89.513672,223.12891 c -0.09679,-0.003 -0.196452,0.007 -0.296875,0.0332 -0.361213,0.0906 -0.394892,0.54041 -0.669922,0.67969 -0.812306,0.23489 -1.713805,0.36557 -2.339844,0.98828 -0.697144,0.37952 -1.51056,0.52176 -2.1875,0.92969 -0.590138,0.39009 -0.278583,1.41997 0.423828,1.4375 0.743138,-0.0398 1.483759,-0.30922 2.212891,-0.38477 1.793366,-0.24902 3.575309,-0.60179 5.333984,-0.97852 1.364821,-0.17609 2.722373,-0.0489 4.101563,-0.0644 0.852424,-0.028 1.73636,0.1319 2.587891,0.0137 0.08932,-0.0382 0.172604,-0.0914 0.246093,-0.1582 0.786613,0.52729 2.279379,0.0807 3.154299,0.32812 3.2838,-0.0361 6.32854,1.09197 9.42773,2.07813 3.94887,1.51258 7.27804,4.20277 11.04297,6.07813 4.17995,2.83448 6.19504,7.81822 7.9375,12.32617 2.82853,9.32144 2.54252,19.22822 3.00977,28.89648 0.40363,13.31777 0.45165,26.66531 0,39.96289 -0.19999,1.25068 1.5702,1.67421 1.96484,0.46289 0.32997,-0.89408 0.79193,-1.69291 1.69727,-2.09375 0.859,-1.24324 0.47786,-3.00255 0.89257,-4.43164 1.22818,-7.0113 1.4561,-14.13218 1.34571,-21.23437 0.14582,-7.59449 -0.38865,-15.16942 -1.12305,-22.72266 -0.35918,-6.48866 -1.06102,-13.00374 -3.10937,-19.20508 -1.37795,-4.37178 -3.14848,-8.92538 -6.89844,-11.82031 -3.52287,-3.31233 -7.87308,-5.50648 -12.32227,-7.28516 -2.27665,-1.19377 -4.72201,-2.22676 -7.30664,-2.29882 -2.24044,-0.34876 -4.46326,-0.86024 -6.75976,-0.77149 -0.80646,0.16054 -1.966767,-0.0769 -2.742191,0.27539 -0.06633,-0.0843 -0.153812,-0.15579 -0.261719,-0.21094 -0.588991,-0.20521 -1.245377,-0.14349 -1.861328,-0.24023 -2.05778,-0.18669 -4.145131,-0.27102 -6.197266,-0.21094 -0.276675,0.0342 -0.608152,-0.017 -0.835937,-0.24023 -0.148943,-0.0889 -0.305475,-0.13379 -0.466797,-0.13867 z" /></g><g
         id="g83"
         transform="matrix(1.3220834,0,0,1.3220834,-40.319566,-148.58908)"><path
           style="fill:#cc6633;fill-opacity:1;stroke-width:5;stroke-linecap:round;stroke-linejoin:round;stroke-miterlimit:2"
           id="path84"
           d="m 120.5251,322.486 c 0.20896,-2.23432 0.22646,-4.48158 0.24035,-6.72402 0.002,-1.41689 -0.011,-2.83375 -0.015,-4.25064 0.0526,-1.42512 -0.0597,-2.84076 -0.18136,-4.25887 -0.11247,-1.22843 -0.0864,-2.4639 -0.0816,-3.69592 0.007,-1.33498 0.0126,-2.66997 0.0135,-4.00497 -2e-5,-1.04205 -7.2e-4,-2.0841 -9.3e-4,-3.12615 -0.009,-1.25482 -0.0276,-2.50439 0.0971,-3.75355 0.25164,-1.08563 0.37011,-2.19429 0.51405,-3.29766 0.16452,-1.3356 0.16349,-2.68199 0.15602,-4.02509 -0.013,-1.26241 -0.0172,-2.52487 -0.0185,-3.78734 0,-1.23493 8.9e-4,-2.46986 0.001,-3.70478 -0.008,-1.2611 0.0396,-2.52177 -0.0638,-3.77921 -0.0209,-0.86058 -0.36743,-1.67602 -0.44098,-2.52463 0.007,-0.89991 -0.16105,-1.78668 -0.22837,-2.68135 0.005,-0.98601 -0.1659,-1.95813 -0.25044,-2.93762 -0.0498,-1.11667 -0.3709,-2.19468 -0.50674,-3.30138 -0.20387,-0.91816 -0.28013,-1.85316 -0.43399,-2.77936 -0.15732,-0.93374 -0.27868,-1.87249 -0.42123,-2.80842 -0.3083,-1.09418 -0.5321,-2.20493 -0.75575,-3.31787 -0.14177,-1.01711 -0.59095,-1.94729 -0.88121,-2.92272 -0.24037,-0.44057 -0.26874,-0.95214 -0.44437,-1.41202 -0.0696,-0.18228 -0.29398,-0.67281 -0.42449,-0.95934 -0.23788,-0.71841 -0.6238,-1.40577 -0.93907,-2.09736 -0.22662,-0.63408 -0.49857,-1.25119 -0.7981,-1.85404 -0.42204,-0.89635 -1.09604,-1.61393 -1.70886,-2.37755 -0.23449,-0.22532 -0.45235,-0.46934 -0.70347,-0.67596 -0.23071,-0.18981 -0.4924,-0.33846 -0.73735,-0.50949 -0.58128,-0.40587 -1.15334,-0.8006 -1.76605,-1.16004 -0.77296,-0.35032 -1.54363,-0.68731 -2.3072,-1.05785 -0.44214,-0.19553 -0.91186,-0.31142 -1.36723,-0.46763 -0.0179,-0.006 -0.0649,-0.0229 -0.0477,-0.0306 0.0251,-0.0111 0.10343,0.0314 0.0807,0.016 -0.0912,-0.0618 -0.19359,-0.10531 -0.29038,-0.15797 -1.02281,-0.61793 -2.20916,-0.75695 -3.34339,-1.03618 -1.00734,-0.35499 -2.0774,-0.53525 -3.131631,-0.69506 -0.850919,-0.15105 -1.662701,-0.44356 -2.500002,-0.65142 -0.833216,-0.15733 -1.671822,-0.28628 -2.515939,-0.36852 -0.622862,-0.0607 -0.36421,0.0108 -0.650386,-0.0772 -1.049957,-0.2369 -2.126477,-0.24546 -3.196824,-0.25035 -0.907114,0.0689 -1.796351,-0.0808 -2.694385,-0.17845 -1.263411,-0.1217 -2.527222,0.08 -3.750921,0.38147 -0.759726,0.24952 -1.505733,0.53563 -2.252816,0.81754 -0.557225,0.17371 -1.088779,0.41168 -1.627091,0.64397 -1.266076,0.59255 -2.424112,1.37897 -3.597887,2.13012 -0.828441,0.48224 -1.587613,1.0659 -2.345203,1.64947 -3.352181,2.60055 0.325557,7.34125 3.677738,4.7407 v 0 c 0.612598,-0.47995 1.229512,-0.9548 1.908155,-1.34062 0.901316,-0.57982 1.788262,-1.18358 2.743284,-1.67452 0.9643,-0.41933 0.494143,-0.2545 1.440834,-0.56694 0.470898,-0.23698 1.039901,-0.32945 1.499228,-0.57663 0.541288,-0.136 1.100364,-0.27088 1.658768,-0.23943 1.102743,0.11884 2.203957,0.27756 3.316726,0.21328 0.728784,0.002 1.461742,-0.0166 2.175338,0.15867 0.928155,0.14527 1.86718,0.20278 2.79325,0.36747 1.015805,0.23815 1.995685,0.62083 3.036576,0.75631 0.903388,0.12997 1.799738,0.30401 2.662658,0.6062 0.61076,0.13667 1.27978,0.18904 1.82993,0.46249 0.62402,0.33835 1.27661,0.66604 1.97228,0.8339 0.0332,0.008 -0.056,-0.0392 -0.084,-0.0588 0.62654,0.29628 1.24314,0.62483 1.89977,0.84229 0.54717,0.30981 1.02455,0.71014 1.56017,1.03518 0.0345,0.021 -0.0634,-0.19915 -0.0199,-0.11958 0.12757,0.15817 0.57006,0.71334 0.68196,0.81944 0.0406,0.0385 -0.10249,-0.19768 -0.0681,-0.15353 0.1693,0.21712 0.29946,0.47937 0.44388,0.71402 0.10741,0.12865 -10e-4,-0.007 0.17194,0.3697 0.18258,0.39794 0.32996,0.81921 0.49899,1.22416 0.32724,0.70889 0.68882,1.4035 0.95772,2.13757 0.059,0.12437 0.0867,0.26917 0.17693,0.37312 0.0568,0.0655 -0.0577,-0.16469 -0.0705,-0.25047 -0.0102,-0.0685 0.0441,0.13129 0.0626,0.19799 0.12188,0.43912 0.2251,0.88197 0.40838,1.30134 0.24891,0.77505 0.58799,1.51757 0.72616,2.32044 0.21095,1.02747 0.37814,2.07975 0.71144,3.07346 0.1666,0.94361 0.26155,1.90262 0.42753,2.84703 0.14291,0.85321 0.2023,1.7179 0.40179,2.56173 0.1371,1.02826 0.40577,2.035 0.48113,3.06712 0.0884,0.96386 0.25058,1.91684 0.24615,2.88731 0.0839,0.99173 0.23941,1.97327 0.2588,2.96994 0.11378,0.79681 0.33518,1.56334 0.4222,2.3631 0.0659,0.33409 0.0327,0.10926 0.0327,0.68116 2e-5,0.82827 4e-5,1.65654 -1.2e-4,2.48481 -3.2e-4,1.2374 -0.001,2.47479 -0.001,3.71219 0.001,1.27185 0.005,2.54369 0.0186,3.81548 0.006,1.07274 0.017,2.14849 -0.10586,3.2162 -0.15193,1.16853 -0.30033,2.33413 -0.53593,3.48973 -0.13849,1.44403 -0.14564,2.88775 -0.12548,4.33764 2.1e-4,1.04023 9.1e-4,2.08045 9.3e-4,3.12068 -9.4e-4,1.32879 -0.006,2.65756 -0.0135,3.98633 -0.005,1.41088 -0.0275,2.82518 0.10355,4.23175 0.10764,1.25403 0.21643,2.50213 0.15941,3.7631 0.004,1.39895 0.0162,2.79787 0.0151,4.19683 -0.0121,2.00625 -0.0272,4.01601 -0.19414,6.01645 -0.52624,4.20987 5.42743,4.95408 5.95367,0.7442 z" /><path
           style="fill:#ffc666;fill-opacity:1;stroke-width:5;stroke-linecap:round;stroke-linejoin:round;stroke-miterlimit:2"
           id="path85"
           d="m 75.789575,266.5 c 2.220303,0.0377 4.415648,0.46217 6.623104,0.68632 3.02036,0.30471 6.051598,0.50027 9.076231,0.76285 3.132758,0.34239 6.270115,0.64365 9.41007,0.91156 1.52762,0.10158 3.05944,0.21168 4.59135,0.16205 0.0828,-0.003 0.16555,-0.006 0.24834,-0.009 0.16057,-0.006 0.27666,-0.009 0.4368,-0.0115 0.0727,-10e-4 0.29083,0.002 0.21822,-0.003 -0.44008,-0.0269 -0.44653,-0.037 -0.27675,0.0187 4.11393,1.03712 5.58064,-4.78084 1.46672,-5.81797 v 0 c -0.7601,-0.18167 -1.52478,-0.23666 -2.30247,-0.1736 -1.29188,0.0507 -2.58476,-0.0734 -3.87317,-0.14407 -3.136957,-0.26652 -6.270878,-0.57077 -9.40076,-0.91076 -2.997307,-0.25964 -6.001184,-0.45344 -8.994151,-0.75516 -2.407177,-0.23939 -4.798726,-0.71472 -7.223534,-0.71644 -4.24264,0 -4.24264,6 0,6 z" /><path
           style="fill:#ffc666;fill-opacity:1;stroke-width:5;stroke-linecap:round;stroke-linejoin:round;stroke-miterlimit:2"
           id="path86"
           d="m 70.603068,298.02991 c 3.596066,0.49832 7.176227,1.0909 10.777047,1.55894 1.98187,0.23146 3.971935,0.37837 5.958113,0.5633 1.018957,0.0949 2.032591,0.22532 3.052393,0.31257 2.820126,0.17521 5.647503,0.40897 8.450576,0.77333 1.395923,0.31079 2.811923,0.48389 4.230803,0.64592 0.68226,0.0788 1.36748,0.11922 2.05372,0.13585 4.24166,0.0913 4.37076,-5.90732 0.12911,-5.99861 v 0 c -0.50315,-0.009 -1.00517,-0.0429 -1.50537,-0.0989 -1.39178,-0.15725 -2.77431,-0.34018 -4.145623,-0.63563 -2.890497,-0.366 -5.801938,-0.62277 -8.709046,-0.80077 -1.02304,-0.0847 -2.039541,-0.21799 -3.061618,-0.31334 -1.893374,-0.17664 -3.790507,-0.31663 -5.680173,-0.53377 -1.385631,-0.17987 -3.004226,-0.3819 -4.385899,-0.59346 -2.165905,-0.33163 -4.323677,-0.72761 -6.501443,-0.97876 -4.216692,-0.46852 -4.879281,5.49478 -0.66259,5.9633 z" /></g><g
         id="g61"
         transform="matrix(1.3220834,0,0,1.3220834,-40.319566,-148.58908)"><path
           style="fill:#000000;fill-opacity:1;stroke-width:5;stroke-linecap:round;stroke-linejoin:round;stroke-miterlimit:2"
           id="path49"
           d="m 88.028843,222.4548 c 0.263254,-1.25998 0.442674,-2.53618 0.779412,-3.78042 0.177203,-0.65476 0.52537,-1.69446 0.735509,-2.33879 0.726309,-1.96298 1.738342,-3.78148 2.936775,-5.48991 1.257653,-1.45817 2.863482,-2.5118 4.507596,-3.47899 2.482696,-1.11966 5.213755,-1.42941 7.901195,-1.6226 1.78402,0.004 3.60399,-0.22891 5.38454,-0.005 0.67226,0.0847 0.85647,0.19214 1.47769,0.42204 1.02522,0.39055 1.93238,1.00325 2.8516,1.58773 1.09392,0.69556 2.14137,1.40643 3.17009,2.1949 0.71038,0.57622 1.12597,1.32976 1.54114,2.12148 0.80364,1.5325 0.0798,0.11124 0.86062,1.66146 0.88869,1.82019 1.33139,3.79535 1.79308,5.7537 0.50445,1.99416 0.61297,4.03746 0.60074,6.08366 -0.008,0.59875 -0.0287,1.19718 -0.0491,1.79559 -0.004,0.11596 4.9e-4,0.2325 -0.0116,0.3479 -10e-4,0.0102 -0.0299,0.0254 -0.0266,0.0156 0.0397,-0.11464 0.092,-0.22458 0.13795,-0.33687 -0.98509,1.0147 0.4499,2.40782 1.43499,1.39313 v 0 c 0.12267,-0.19128 0.27472,-0.36664 0.36801,-0.57385 0.0957,-0.21264 0.0882,-0.54632 0.0961,-0.77729 0.021,-0.61756 0.0425,-1.23514 0.0502,-1.85306 0.0115,-2.20429 -0.11361,-4.40571 -0.6541,-6.55386 -0.49791,-2.11114 -0.98853,-4.23623 -1.95371,-6.19486 -0.81215,-1.61032 -1.55113,-3.2926 -2.97233,-4.4711 -1.07398,-0.82057 -2.16679,-1.56831 -3.3085,-2.29182 -1.04878,-0.66462 -2.08912,-1.35144 -3.26097,-1.78776 -0.32723,-0.11215 -0.6472,-0.24833 -0.9817,-0.33647 -2.08563,-0.54952 -4.56345,-0.1701 -6.69327,-0.19049 -2.99344,0.22018 -6.030792,0.5864 -8.771874,1.89449 -1.887481,1.11517 -3.723035,2.34384 -5.13008,4.05464 -1.308741,1.87201 -2.414649,3.86525 -3.200063,6.01737 -0.246082,0.75557 -0.57466,1.73232 -0.779745,2.49605 -0.34052,1.2681 -0.529215,2.56662 -0.794776,3.85066 -0.27735,1.38675 1.683811,1.77898 1.961161,0.39223 z" /><path
           style="fill:#000000;fill-opacity:1;stroke-width:5;stroke-linecap:round;stroke-linejoin:round;stroke-miterlimit:2"
           id="path50"
           d="m 94.790541,222.23793 c 0.279678,-1.57513 0.677092,-3.11842 1.216919,-4.624 0.427291,-0.83708 0.741485,-1.75371 1.329961,-2.50091 0.627669,-0.79696 1.458441,-1.42813 2.259937,-2.03383 1.561262,-1.09987 3.022422,-1.22634 4.863522,-1.22348 1.19637,0.0473 2.42793,0.0437 3.59105,0.36581 0.54604,0.15122 0.72682,0.24245 1.24062,0.45318 1.1054,0.51324 1.54236,1.60922 2.07433,2.62391 0.70973,1.23503 0.89103,2.67633 1.17014,4.05261 0.33186,1.21776 0.49786,2.43885 0.50985,3.69648 -0.008,0.80234 -0.002,0.40959 -0.0165,1.17824 -0.0267,1.41397 1.97298,1.45167 1.99964,0.0377 v 0 c 0.0151,-0.8013 0.009,-0.38886 0.0167,-1.23732 -0.0162,-1.38319 -0.18845,-2.73355 -0.5497,-4.07296 -0.3173,-1.56183 -0.54955,-3.1835 -1.35888,-4.5835 -0.81451,-1.55322 -1.40611,-2.76922 -3.09518,-3.54905 -0.63214,-0.25317 -0.88345,-0.37558 -1.55727,-0.55169 -1.30997,-0.34239 -2.68078,-0.37405 -4.026,-0.41342 -2.37545,0.006 -4.06197,0.23458 -6.075387,1.63334 -0.993976,0.76425 -1.968269,1.5468 -2.736026,2.55304 -0.666439,0.87346 -1.047586,1.92326 -1.524577,2.89986 -0.583743,1.64388 -1.024027,3.32744 -1.317745,5.04792 -0.175412,1.40329 1.809144,1.65136 1.984556,0.24806 z" /><path
           id="path30"
           style="fill:#000000;fill-opacity:1;stroke-width:5;stroke-linecap:round;stroke-linejoin:round;stroke-miterlimit:2"
           d="m 88.669922,227.73828 c -1.303054,0.14663 -2.53515,0.57544 -3.832031,0.74805 -1.681487,0.24631 -3.391162,0.41268 -4.990235,1.02929 -1.813213,0.58503 -3.614674,1.2087 -5.375,1.93946 -1.341641,0.44722 -0.708828,2.34369 0.632813,1.89648 0.174996,-0.0721 0.351646,-0.14265 0.527343,-0.21289 -0.396697,0.30316 -0.804901,0.59222 -1.234374,0.85352 -0.34124,0.26744 -0.669062,0.56427 -1.023438,0.81445 -0.381132,0.26907 -0.287626,0.14891 -0.689453,0.49024 -0.126283,0.10726 -0.241187,0.22768 -0.361328,0.34179 -0.968055,1.00339 -2.020455,1.92973 -2.871094,3.04297 -0.957658,1.30256 -1.973597,2.55709 -3.001953,3.80469 -0.344414,0.48564 -0.709004,0.95503 -1.035156,1.45312 -0.562279,0.85869 -1.046031,1.77734 -1.498047,2.69727 -0.525225,1.31306 1.332196,2.0572 1.857422,0.74414 0.420367,-0.82141 0.854982,-1.6491 1.361328,-2.42188 0.296327,-0.45225 0.634451,-0.87539 0.947265,-1.3164 1.028567,-1.23263 2.029571,-2.48209 2.980469,-3.77539 0.808193,-1.0301 1.785644,-1.90138 2.695313,-2.83594 0.09969,-0.0939 0.193918,-0.19518 0.298828,-0.2832 0.08466,-0.071 0.310089,-0.19667 0.396484,-0.25782 0.407132,-0.28814 0.782923,-0.61702 1.175781,-0.92382 0.896958,-0.54364 1.698836,-1.21147 2.507813,-1.875 0.634295,-0.38681 1.329681,-0.64872 1.984375,-0.99414 0.699431,-0.25893 1.361091,-0.60155 2.052734,-0.88086 0.700296,-0.18909 1.377668,-0.44779 2.06836,-0.66602 0.713973,-0.25935 1.452045,-0.45727 2.189453,-0.64062 0.269915,-0.0303 0.541301,-0.033 0.8125,-0.0371 0.529723,-0.009 0.855772,-0.29704 0.982422,-0.65039 0.217431,-0.0396 0.437018,-0.0728 0.658203,-0.0957 0.997248,-0.0482 1.996464,-0.002 2.99414,0.0156 1.288199,-0.033 2.568266,0.0858 3.851563,0.17578 1.457381,0.14268 2.925925,0.0258 4.382808,0.14062 1.18082,0.0314 2.27024,0.46677 3.375,0.83203 1.04198,0.32757 2.15859,0.44037 3.17383,0.84766 1.09853,0.50961 2.26134,0.86998 3.35156,1.39649 0.10524,0.0581 0.2131,0.10918 0.31446,0.17382 0.46654,0.29753 0.90087,0.65021 1.36914,0.94727 0.46359,0.29411 0.94,0.56949 1.40625,0.85937 1.24179,0.78535 2.41889,1.66115 3.78711,2.21485 1.23253,0.32125 2.09157,1.28354 3.01172,2.10351 1.19894,1.14762 2.12908,2.55649 2.91992,4.00782 0.76004,1.50204 1.41989,3.05069 2.16406,4.56054 0.47338,0.97973 0.64848,2.05416 0.99414,3.07617 0.30919,1.02619 0.45127,2.09305 0.65039,3.14454 0.27205,1.02966 0.36918,2.08991 0.52149,3.14062 0.24106,1.26631 0.41578,2.54889 0.54492,3.83203 0.19388,1.69485 0.29897,3.40012 0.32422,5.10547 -0.0556,1.18081 0.0904,2.35196 0.19531,3.52539 0.0285,0.97315 0.18155,1.93437 0.25586,2.9043 0.0627,1.8048 0.0411,3.61243 0.0332,5.41797 -0.006,1.21453 -0.01,2.42803 -0.01,3.64258 5.6e-4,1.05028 0.002,2.10011 0.002,3.15039 -0.0328,1.17704 0.14126,2.34466 0.2168,3.51757 0.0599,1.22832 0.0514,2.4582 0.041,3.6875 -0.0638,0.99796 0.0544,1.98369 0.16797,2.97266 0.10145,0.9859 0.0918,1.97716 0.0859,2.9668 -0.0119,1.42675 -0.0131,2.8525 -0.0137,4.27929 -0.0452,1.45617 0.08,2.92226 -0.043,4.375 -0.11905,1.18949 -0.27308,2.37435 -0.38672,3.56446 -0.10613,1.29006 -0.0929,2.58582 -0.082,3.8789 0.008,0.78635 0.0152,1.57299 0.0156,2.35938 -4.7e-4,0.59556 -0.002,1.1896 -0.002,1.78515 -7e-5,0.26344 -1e-5,0.52758 0,0.79102 6e-5,1.41421 2.00006,1.41421 2,0 -1e-5,-0.26317 -7e-5,-0.5259 0,-0.78906 2.1e-4,-0.59615 0.002,-1.19292 0.002,-1.78906 -4.1e-4,-0.79168 -0.007,-1.58336 -0.0156,-2.375 -0.0104,-1.22423 -0.0235,-2.45032 0.0742,-3.67188 0.11376,-1.20093 0.26963,-2.3973 0.38867,-3.59766 0.11185,-1.50664 0.0195,-3.01961 0.0488,-4.52929 6.5e-4,-1.42315 0.002,-2.84641 0.0137,-4.26953 0.006,-1.06984 0.0129,-2.14151 -0.0996,-3.20704 -0.1044,-0.90845 -0.21984,-1.80926 -0.1543,-2.72656 0.0108,-1.27801 0.0191,-2.55705 -0.0449,-3.83398 -0.0735,-1.13032 -0.24247,-2.25478 -0.21289,-3.38867 -1e-4,-1.05029 -0.001,-2.1001 -0.002,-3.15039 -1.3e-4,-1.21155 0.003,-2.42323 0.01,-3.63477 0.008,-1.85987 0.0318,-3.72112 -0.0391,-5.58008 -0.0763,-0.97802 -0.22817,-1.94651 -0.25781,-2.92773 -0.10059,-1.12455 -0.24473,-2.24715 -0.1875,-3.37891 -0.027,-1.76277 -0.13374,-3.52341 -0.33399,-5.27539 -0.13426,-1.31114 -0.31115,-2.62372 -0.55664,-3.91797 -0.15646,-1.07904 -0.25724,-2.16693 -0.53515,-3.22461 -0.21714,-1.14663 -0.37205,-2.31239 -0.72461,-3.42773 -0.38893,-1.09293 -0.5499,-2.26418 -1.0918,-3.30664 -0.75745,-1.53597 -1.42527,-3.11364 -2.20508,-4.63867 -0.90944,-1.64639 -1.96149,-3.24292 -3.33984,-4.53711 -1.09325,-0.97413 -2.15637,-2.07413 -3.61328,-2.47071 -1.26628,-0.47631 -2.30219,-1.37653 -3.46094,-2.05468 -0.44508,-0.2765 -0.90117,-0.53786 -1.34375,-0.81836 -0.5207,-0.33002 -1.00571,-0.71828 -1.5293,-1.04297 -0.13433,-0.0833 -0.27707,-0.15123 -0.41601,-0.22657 -1.14639,-0.5379 -2.34865,-0.94408 -3.50391,-1.46289 -1.05651,-0.3831 -2.16383,-0.58998 -3.25,-0.875 -1.25986,-0.41653 -2.51051,-0.88905 -3.85547,-0.92773 -1.461099,-0.10203 -2.931291,-0.0128 -4.392576,-0.13867 -1.317498,-0.0922 -2.630696,-0.21331 -3.953125,-0.18164 -1.081793,-0.0197 -2.167168,-0.0706 -3.248047,-0.004 z" /><path
           style="fill:#000000;stroke-width:5;stroke-linecap:round;stroke-linejoin:round;stroke-miterlimit:2"
           id="path15"
           d="m 57.271747,311.42836 c 1.650196,1.75329 3.53469,3.2617 5.543171,4.58069 2.527844,1.5773 5.389784,2.48735 8.209933,3.38618 2.963355,0.94922 5.97687,1.70589 8.999764,2.43485 3.422228,0.81187 6.909306,1.28444 10.394722,1.72325 3.666064,0.47248 7.330758,0.9495 10.995623,1.42897 2.92527,0.42165 5.86051,0.72632 8.81497,0.81422 1.92614,0.0179 3.85217,-0.0269 5.77822,-0.0431 0.75292,-0.006 1.50586,-0.008 2.25881,-0.006 2.12131,0.007 2.1307,-2.99334 0.009,-2.99998 v 0 c -0.7645,-0.002 -1.529,-3.7e-4 -2.29348,0.006 -1.8883,0.0159 -3.77656,0.0589 -5.66495,0.0443 -2.85397,-0.0825 -5.68831,-0.38429 -8.51402,-0.79019 -3.669686,-0.47953 -7.33901,-0.95812 -11.009867,-1.4308 -3.374904,-0.42481 -6.752009,-0.87857 -10.066139,-1.66314 -2.95328,-0.71217 -5.897715,-1.44906 -8.792731,-2.37701 -2.561836,-0.81511 -5.171658,-1.62447 -7.478076,-3.03826 -0.754517,-0.49126 -1.214331,-0.76399 -1.915243,-1.32358 -1.021854,-0.81581 -1.994266,-1.70592 -2.927491,-2.62056 -1.325178,-1.65647 -3.667784,0.21761 -2.342606,1.87409 z" /><path
           id="path16"
           style="fill:#000000;stroke-width:5;stroke-linecap:round;stroke-linejoin:round;stroke-miterlimit:2"
           d="m 90.304688,232.94727 c -1.996353,0.13311 -3.974869,0.52146 -5.921876,0.97265 -1.707599,0.46779 -3.42202,0.92788 -5.070312,1.57813 -1.006835,0.53088 -2.035378,1.05072 -2.970703,1.70507 -0.697191,0.48778 -0.892633,0.69431 -1.529297,1.26172 -0.563602,0.52906 -1.09461,1.08964 -1.605469,1.66797 -0.06048,0.1097 -0.130728,0.22223 -0.21289,0.33594 -0.28118,0.38916 -0.54167,0.77421 -0.658203,1.25 -0.306062,0.84169 -0.621845,1.67857 -1.263672,2.33203 -0.334528,0.30323 -0.687347,0.59221 -1.074219,0.82227 -0.05508,0.10172 -0.112245,0.2023 -0.173828,0.30078 -0.391201,0.59259 -0.822285,1.32751 -1.523438,1.5957 -0.06417,0.0246 -0.129614,0.0409 -0.197265,0.0527 -0.08541,0.12862 -0.172404,0.25758 -0.259766,0.38476 -0.03965,0.0577 -0.933226,1.30071 -1.001953,1.39649 -0.904891,1.5312 -1.754158,3.09269 -2.517578,4.69921 -0.908036,1.90489 -1.66844,3.87894 -2.355469,5.87305 -0.691724,2.04759 -1.105752,4.16448 -1.449219,6.29297 -0.411494,2.51214 -0.663734,5.04762 -0.779297,7.58984 -0.303028,3.07293 -0.520884,6.15478 -0.683593,9.23829 -0.04601,2.48662 -0.199043,4.96789 -0.285157,7.45312 -0.0506,1.60538 -0.03573,3.21252 -0.02734,4.81836 0.008,1.34864 0.008,2.69626 0.0078,4.04492 -4.62e-4,1.18338 -0.0019,2.36739 -0.002,3.55078 -0.02753,1.42569 -0.370129,2.80773 -0.619141,4.20313 -0.162239,0.91431 -0.34684,1.81215 -0.396484,2.74219 -0.01696,0.59964 -0.0042,1.19915 0.0039,1.79882 0.02889,2.12112 3.02889,2.08015 3,-0.041 -0.0073,-0.53579 -0.01882,-1.0716 -0.0078,-1.60742 0.03707,-0.80453 0.2245,-1.57605 0.353515,-2.36915 0.277819,-1.56862 0.653111,-3.12302 0.666016,-4.72656 8.4e-5,-1.18332 0.0015,-2.36745 0.002,-3.55078 1.79e-4,-1.35401 1.91e-4,-2.70656 -0.0078,-4.06055 -0.0082,-1.56606 -0.0234,-3.13359 0.02539,-4.69921 0.08514,-2.46717 0.23642,-4.93182 0.28125,-7.4004 0.162596,-3.09127 0.386673,-6.17869 0.685547,-9.25976 0.108062,-2.42755 0.352112,-4.84737 0.744141,-7.24609 0.315701,-1.9594 0.691213,-3.91107 1.326172,-5.79688 0.648365,-1.88899 1.367799,-3.75643 2.226562,-5.56055 0.685739,-1.44622 1.457337,-2.8458 2.246094,-4.23828 0.15684,-0.21858 0.955273,-1.32923 1.064453,-1.48828 0.830226,-1.20938 1.542663,-2.50669 2.525391,-3.60547 1.267986,-1.55971 2.488471,-3.17008 3.947265,-4.56054 0.390392,-0.3543 0.697585,-0.65485 1.126953,-0.95704 0.784334,-0.55202 1.64955,-0.98434 2.482422,-1.45507 1.502042,-0.60824 3.080723,-0.99869 4.636719,-1.44336 1.735624,-0.40566 3.499827,-0.74881 5.277344,-0.89453 1.829931,-0.0225 3.657396,0.0816 5.460937,0.41406 2.454629,0.46242 4.9075,0.9423 7.35547,1.4375 1.72026,0.38267 3.5022,0.70474 4.98242,1.72265 1.28292,0.91989 2.55802,1.88813 3.53321,3.14454 1.13746,1.56366 2.22816,3.15815 3.0625,4.91015 1.14409,2.39084 1.95303,4.93371 2.5664,7.50977 0.5089,2.04312 0.9936,4.0906 1.35547,6.16601 0.20857,1.75658 0.38184,3.5152 0.55469,5.27539 0.005,0.0315 0.25538,1.78145 0.25976,1.81836 0.16836,1.41737 0.19186,2.84928 0.35352,4.26758 0.15641,2.58206 0.36634,5.16079 0.42578,7.74805 -8.3e-4,2.14399 -0.004,4.28766 0.002,6.43164 0.0113,3.11529 0.0365,6.23038 0.0293,9.3457 -0.0315,3.1127 -0.178,6.21652 -0.47266,9.31641 -0.0871,1.85417 -0.14026,3.70885 -0.23828,5.5625 -0.0512,0.96857 -0.18477,3.04246 -0.22461,3.99023 -0.0294,0.69914 -0.0414,1.40017 -0.0625,2.09961 -0.0536,2.81083 -0.13697,5.64889 0.19727,8.44531 0.41602,2.08013 3.35741,1.49224 2.94141,-0.58789 -0.2554,-2.58746 -0.18953,-5.20439 -0.13868,-7.80078 0.0209,-0.68851 0.0335,-1.37623 0.0625,-2.06445 0.0343,-0.81214 0.17515,-3.08341 0.21875,-3.9082 0.0986,-1.86437 0.15238,-3.73085 0.24024,-5.59571 0.29996,-3.13627 0.44413,-6.27644 0.47656,-9.42578 0.008,-3.12913 -0.018,-6.25957 -0.0293,-9.38867 -0.006,-2.13999 -0.003,-4.27993 -0.002,-6.41992 -0.0561,-2.64823 -0.27192,-5.28694 -0.43164,-7.92969 -0.163,-1.45315 -0.191,-2.91887 -0.36133,-4.37109 -0.0235,-0.20029 -0.24134,-1.70807 -0.27734,-1.95899 -0.16493,-1.73652 -0.3393,-3.47069 -0.54492,-5.20312 -0.37061,-2.20171 -0.88461,-4.37201 -1.42383,-6.53711 -0.57332,-2.30111 -1.23182,-4.60658 -2.16406,-6.79297 -0.18453,-0.43272 -0.40144,-0.85162 -0.60157,-1.27734 -0.91245,-1.92057 -2.10118,-3.6735 -3.3457,-5.38868 -1.15545,-1.52522 -2.67006,-2.70874 -4.21094,-3.81836 -1.80376,-1.28193 -3.96153,-1.74255 -6.08008,-2.21484 -2.47973,-0.5034 -4.96454,-0.98764 -7.451169,-1.45703 -1.998458,-0.36942 -4.024595,-0.48773 -6.052734,-0.46484 z" /><path
           id="path17"
           style="fill:#000000;stroke-width:5;stroke-linecap:round;stroke-linejoin:round;stroke-miterlimit:2"
           d="m 102.97656,221.58203 c -1.20152,-0.0336 -2.40537,0.0133 -3.60156,0.13477 -2.1,0.3 -1.674219,3.2707 0.425781,2.9707 2.120409,-0.20028 4.264709,-0.14958 6.365239,0.21484 0.67678,0.11742 1.34665,0.27605 2.01953,0.41407 0.30137,0.0678 0.60096,0.13963 0.90039,0.21484 0.30191,-0.10896 0.67081,-0.11547 1.00195,-0.0996 0.16072,0.008 0.31257,0.0196 0.44336,0.0293 1.02745,0.17972 1.99022,0.6022 2.92578,1.04883 0.72837,0.32478 1.41193,0.73482 2.10352,1.1289 0.2144,0.0818 0.42876,0.16313 0.64257,0.2461 1.82082,0.70651 3.72452,1.4876 5.45118,2.41211 0.77845,0.41679 1.51587,0.90767 2.27343,1.36132 2.78325,1.8912 5.28509,4.17127 7.5586,6.64649 0.57138,0.62207 1.45094,1.6829 2.02929,2.37304 1.36281,1.62565 3.66164,-0.30207 2.29883,-1.92773 -0.65237,-0.7779 -1.50681,-1.80986 -2.16601,-2.52539 -2.45844,-2.66852 -5.16828,-5.12084 -8.18555,-7.14453 -0.83741,-0.49643 -1.65444,-1.03067 -2.51367,-1.48828 -1.80134,-0.95935 -3.81241,-1.78639 -5.71094,-2.52149 -2.75917,-1.06833 -5.56327,-2.04763 -8.45508,-2.69336 -0.7394,-0.14923 -1.47493,-0.32191 -2.21875,-0.44726 -1.18652,-0.19995 -2.38636,-0.31407 -3.58789,-0.34766 z" /><path
           style="fill:#000000;stroke-width:5;stroke-linecap:round;stroke-linejoin:round;stroke-miterlimit:2"
           id="path19"
           d="m 99.481284,221.71091 c -2.131683,-0.21179 -4.262655,-0.39603 -6.404204,-0.4691 -0.826913,-0.0612 -1.650785,0.02 -2.472167,0.1032 -2.110107,0.21782 -1.802064,3.20197 0.308044,2.98415 v 0 c 0.685698,-0.0724 1.371587,-0.14952 2.06277,-0.0891 2.064764,0.0691 4.119013,0.24908 6.174263,0.45246 2.10835,0.23426 2.43964,-2.74739 0.331294,-2.98165 z" /><path
           id="path20"
           style="fill:#000000;stroke-width:5;stroke-linecap:round;stroke-linejoin:round;stroke-miterlimit:2"
           d="m 88.042969,221.9707 c -0.190037,2.4e-4 -0.393202,0.034 -0.609375,0.10938 -3.39655,1.18493 -6.809519,2.42674 -9.878906,4.33594 -1.149857,0.81245 -1.935141,1.30541 -2.960938,2.28125 -1.637648,1.55789 -2.780619,3.4941 -3.669922,5.54882 0.400707,-0.0217 0.802932,-0.0208 1.207031,0.0137 0.602065,0.0456 1.329083,0.12912 1.867188,0.47265 0.488988,-1.04428 1.052968,-2.05818 1.783203,-2.95117 0.972621,-1.18941 2.253588,-2.04079 3.498047,-2.91016 2.290916,-1.39008 4.776152,-2.39626 7.291015,-3.30468 0.241239,-0.3274 0.677873,-0.61222 1.330079,-0.75782 0.394695,-0.0881 0.782185,-0.20358 1.177734,-0.28711 0.923676,-0.88828 0.295099,-2.55241 -1.035156,-2.55078 z m -16.47461,21.45118 c -0.141891,0.22298 -0.304518,0.43385 -0.496093,0.6289 -0.334522,0.30323 -0.687356,0.59221 -1.074219,0.82227 -0.05509,0.10174 -0.112236,0.20228 -0.173828,0.30078 -0.391201,0.59259 -0.822285,1.32751 -1.523438,1.5957 -0.02142,0.008 -0.04257,0.015 -0.06445,0.0215 0.559657,1.14063 2.500087,1.1812 2.832031,-0.47852 0.175155,-0.96194 0.333868,-1.92674 0.5,-2.89062 z" /><path
           style="fill:#000000;stroke-width:5;stroke-linecap:round;stroke-linejoin:round;stroke-miterlimit:2"
           id="path21"
           d="m 124.67836,326.47825 c 2.01123,-1.81939 4.38255,-3.17394 6.69408,-4.56787 1.30105,-0.80389 2.73378,-1.42783 3.96031,-2.35283 0.24124,-0.18193 0.45707,-0.39556 0.69348,-0.5837 0.57618,-0.55994 0.84598,-1.33089 1.39813,-1.90887 0.83461,-0.59193 1.51752,-1.27096 1.93183,-2.22831 0.12267,-0.28345 0.19981,-0.5845 0.29972,-0.87675 0.0709,-0.35417 0.15242,-0.70636 0.21255,-1.06251 0.14376,-0.85135 0.2437,-1.70954 0.37199,-2.56335 0.28635,-1.90575 0.55357,-3.81053 0.79616,-5.72246 0.74714,-5.59532 0.77255,-11.24673 0.7848,-16.88077 0.0433,-5.08557 -0.16695,-10.16591 -0.65268,-15.22731 -0.4326,-4.17766 -0.6312,-8.37389 -0.98331,-12.55764 -0.16457,-3.72201 -0.87249,-7.36988 -1.77161,-10.97383 -0.53291,-2.08881 -1.14548,-4.16113 -1.86321,-6.19461 -0.63911,-2.03933 -1.63973,-3.92718 -2.73763,-5.75072 -1.09697,-1.81567 -3.66471,-0.26431 -2.56774,1.55135 v 0 c 0.99872,1.6464 1.90303,3.3542 2.4773,5.20038 0.68957,1.94209 1.26937,3.92472 1.7806,5.92018 0.8613,3.44825 1.54242,6.93701 1.69292,10.49949 0.35493,4.19517 0.55068,8.40338 0.98644,12.59246 0.47796,4.96373 0.68091,9.94631 0.63893,14.93382 -0.0117,5.51002 -0.0309,11.0375 -0.76099,16.50983 -0.37235,2.93869 -0.80328,5.8696 -1.257,8.7965 -0.0759,0.25499 -0.12316,0.52133 -0.23478,0.76284 -0.2675,0.57882 -1.03621,0.76607 -1.3883,1.28032 -0.36257,0.42269 -0.67066,0.83244 -0.96186,1.30542 -0.0876,0.14233 -0.19047,0.31273 -0.17655,0.31711 0.0356,0.0112 0.065,-0.0366 0.0974,-0.0549 -0.16693,0.13642 -0.31255,0.2983 -0.4841,0.42886 -1.18203,0.89955 -2.58219,1.4822 -3.83226,2.27111 -2.42411,1.46233 -4.90556,2.89114 -7.01876,4.79418 -1.65647,1.32518 0.21761,3.66778 1.87409,2.3426 z" /><path
           style="fill:#000000;fill-opacity:1;stroke-width:5;stroke-linecap:round;stroke-linejoin:round;stroke-miterlimit:2"
           id="path25"
           d="m 135.80744,245.10001 c 0.5513,3.06073 0.93656,6.15294 1.56996,9.1987 0.15228,0.73222 0.33044,1.45881 0.49566,2.18822 0.73963,3.46804 2.15779,6.70761 3.53174,9.95525 1.9664,4.88467 3.81438,9.81621 5.63905,14.75552 1.63133,4.26864 2.76552,8.68714 3.8155,13.12554 0.42784,1.66926 0.68854,3.37295 0.94437,5.07469 0.12114,0.80578 0.31354,2.00938 0.35538,2.82725 0.0219,0.42869 -0.006,0.85848 -0.009,1.28772 -0.0683,0.40527 -0.0998,0.81847 -0.20482,1.21581 -0.48335,1.82925 -1.74756,3.45398 -3.10803,4.72103 -0.44918,0.41833 -0.94035,0.78918 -1.41053,1.18377 -1.46796,1.04248 -3.03332,1.9783 -4.77546,2.4841 -1.24031,0.36011 -2.50283,0.425 -3.78226,0.44198 -0.62318,-0.009 -1.24008,-0.0895 -1.85511,-0.18105 -2.09896,-0.30714 -2.53332,2.66125 -0.43435,2.96839 v 0 c 0.7777,0.11227 1.55783,0.20938 2.34559,0.21213 1.63051,-0.0376 3.20942,-0.15299 4.78428,-0.63425 2.0636,-0.63062 3.92424,-1.74164 5.65757,-3.0032 0.55138,-0.47167 1.12946,-0.9138 1.65414,-1.415 1.79643,-1.71607 3.31155,-3.8726 3.88922,-6.32138 0.12925,-0.54787 0.15984,-1.11442 0.23976,-1.67163 -0.003,-0.53388 0.021,-1.06854 -0.008,-1.60164 -0.0466,-0.86029 -0.24456,-2.11201 -0.37374,-2.96939 -0.26829,-1.78068 -0.54526,-3.56273 -0.9902,-5.31001 -1.07809,-4.55668 -2.24777,-9.09168 -3.9208,-13.47448 -1.84081,-4.98274 -3.70507,-9.95771 -5.69024,-14.88479 -1.30495,-3.08449 -2.66572,-6.15606 -3.36905,-9.45029 -0.15812,-0.69539 -0.32867,-1.38807 -0.47435,-2.08617 -0.61969,-2.96942 -0.98806,-5.98531 -1.53523,-8.96811 -0.23426,-2.10835 -3.21591,-1.77706 -2.98165,0.33129 z" /><path
           style="fill:#000000;fill-opacity:1;stroke-width:5;stroke-linecap:round;stroke-linejoin:round;stroke-miterlimit:2"
           id="path26"
           d="m 74.184363,261.5 c 4.399312,0.27539 8.776039,0.82657 13.167383,1.20695 0.921737,0.0619 1.842934,0.1324 2.765211,0.18562 1.51759,0.0876 3.038379,0.11642 4.555223,0.21609 2.107959,0.13852 4.206836,0.40198 6.30412,0.64723 2.73263,0.34496 5.45668,0.74984 8.19928,1.0101 2.11189,0.19989 2.39457,-2.78677 0.28269,-2.98665 v 0 c -2.72085,-0.25682 -5.42249,-0.66402 -8.13366,-1.00316 -2.165593,-0.25305 -4.332037,-0.52107 -6.508597,-0.66407 -0.287396,-0.0189 -4.333667,-0.20335 -4.49843,-0.21282 -0.902909,-0.0519 -1.804765,-0.12078 -2.707148,-0.18117 -4.477184,-0.3872 -8.939183,-0.96015 -13.426072,-1.21812 -2.12132,0 -2.12132,3 0,3 z" /><path
           style="fill:#000000;fill-opacity:1;stroke-width:5;stroke-linecap:round;stroke-linejoin:round;stroke-miterlimit:2"
           id="path28"
           d="m 69.039575,292.75 c 0.206591,0 0.413501,-0.0115 0.619773,0 2.052064,0.11404 4.114067,0.48073 6.14568,0.75606 3.779304,0.51219 2.748319,0.37304 6.536877,0.86057 5.268223,0.64966 10.564226,1.0581 15.855176,1.47582 2.398939,0.23478 4.807209,0.3332 7.201939,0.60928 0.63378,0.24072 1.30247,0.29738 1.97384,0.31858 2.12047,0.0598 2.20509,-2.93897 0.0846,-2.99881 v 0 c -0.59468,-0.0139 -1.14041,-0.13206 -1.71518,-0.30006 -2.43053,-0.27971 -4.87426,-0.38406 -7.309206,-0.61969 -5.241906,-0.41348 -10.488827,-0.81818 -15.70831,-1.46058 -3.803426,-0.48939 -2.714056,-0.34276 -6.514129,-0.85756 -2.171709,-0.2942 -4.358956,-0.66573 -6.551307,-0.78361 -0.206293,-0.0111 -0.413182,0 -0.619773,0 -2.12132,0 -2.12132,3 0,3 z" /><path
           style="fill:#000000;fill-opacity:1;stroke-width:5;stroke-linecap:round;stroke-linejoin:round;stroke-miterlimit:2"
           id="path44"
           d="m 64.25,259.6139 c 0.03598,-1.81914 0.190963,-3.63369 0.242934,-5.4535 0.04797,-1.55012 -0.04208,-3.09951 0.115836,-4.64344 0.180255,-1.18189 0.635746,-2.29382 1.013508,-3.42159 0.362373,-1.13736 0.69048,-2.3103 1.19806,-3.39348 0.515641,-1.05766 1.22436,-2.00365 1.924754,-2.94406 0.60458,-0.74115 1.050515,-1.60409 1.647055,-2.34991 0.211448,-0.26436 0.466715,-0.49067 0.69117,-0.74408 0.739231,-0.69555 1.540974,-1.32239 2.277202,-2.01986 0.375363,-0.30421 0.639939,-0.77659 1.043646,-1.04754 0.03138,-0.0211 0.07204,-0.0229 0.10806,-0.0343 0.145453,-0.10066 0.290906,-0.20132 0.43636,-0.30198 1.057503,-0.78968 2.182978,-1.48003 3.220419,-2.29724 0.715396,-0.57517 1.504233,-1.0674 2.289276,-1.54409 1.804059,-1.11597 0.225851,-3.66729 -1.578208,-2.55133 v 0 c -0.879699,0.55034 -1.77638,1.08997 -2.579621,1.7484 -0.977745,0.78989 -2.070957,1.42248 -3.069678,2.18476 -0.285667,0.2022 -0.588233,0.38088 -0.86521,0.59482 -0.403985,0.31205 -0.711382,0.75077 -1.089266,1.09069 -0.770651,0.77074 -1.685478,1.39814 -2.44023,2.19021 -0.299004,0.33868 -0.619868,0.65877 -0.901981,1.01165 -0.578638,0.72378 -1.011768,1.56039 -1.596997,2.28049 -0.826845,1.11502 -1.65722,2.23992 -2.251795,3.50065 -0.522527,1.18834 -0.933075,2.43161 -1.3077,3.6734 -0.448224,1.3384 -0.978699,2.66161 -1.153596,4.07247 -0.161964,1.61711 -0.09434,3.23711 -0.129863,4.86045 -0.05181,1.84809 -0.21445,3.69057 -0.244135,5.53838 0,2.12132 3,2.12132 3,0 z" /><path
           style="fill:#000000;fill-opacity:1;stroke-width:5;stroke-linecap:round;stroke-linejoin:round;stroke-miterlimit:2"
           id="path58"
           d="m 149.69195,310.31312 c -0.36516,1.67416 -0.44363,3.38928 -0.47283,5.09682 -0.0153,1.19788 0.21691,2.3758 0.2748,3.57112 0.0581,1.54703 -0.0246,3.09519 0.0617,4.64072 0.17405,1.25931 0.35207,2.52379 0.73471,3.73903 0.25831,0.88085 0.97056,1.4785 1.4408,2.23553 0.0715,0.15499 0.16307,0.63295 0.0421,0.76358 -0.007,-0.0273 0.004,-0.0695 -0.0218,-0.0819 -0.0341,-0.0166 -0.0772,0.003 -0.11268,0.0164 -0.12299,0.0462 -0.24042,0.10616 -0.35972,0.16124 -0.20596,0.0951 -0.40922,0.19603 -0.61604,0.28924 -0.74397,0.33531 -0.60765,0.27017 -1.35394,0.53713 -1.23945,0.51202 -2.56234,0.67967 -3.89031,0.74615 -1.62408,0.0343 -3.24857,-0.009 -4.87274,-0.0223 -0.23383,-10e-4 -1.07244,0.041 -1.38641,-0.093 -0.12895,-0.055 -0.076,-0.27109 -0.13416,-0.39864 -1.10952,-2.43162 0.59096,1.55487 -0.60422,-1.28843 -0.46219,-1.11549 -0.76021,-2.27615 -0.75511,-3.48355 0.1174,-1.24198 0.41311,-2.45442 0.55438,-3.69289 0.0991,-1.24588 0.0579,-2.4975 0.0411,-3.74576 -0.086,-0.67852 0.22224,-1.14045 0.55855,-1.70009 0.5537,-0.92142 0.31576,-0.51517 0.83405,-1.42868 0.10277,-0.20545 0.20554,-0.41091 0.3083,-0.61636 0.62999,-1.26614 -1.1606,-2.15708 -1.79059,-0.89094 v 0 c -0.0859,0.17367 -0.17173,0.34733 -0.2576,0.521 -0.73689,1.30109 -1.76239,2.56376 -1.65253,4.1419 0.0156,1.16513 0.0545,2.33317 -0.0289,3.49652 -0.14355,1.31316 -0.48884,2.59616 -0.56678,3.91838 0.009,1.47669 0.34137,2.90127 0.91546,4.26516 0.34423,0.79757 0.70481,1.81811 1.39505,2.4012 0.74694,0.63101 1.64294,0.60944 2.55349,0.59412 1.66404,0.0132 3.32849,0.059 4.9924,0.0196 1.52351,-0.0817 3.04109,-0.2826 4.46556,-0.86226 0.89801,-0.32662 2.7731,-1.00173 3.39141,-1.72355 0.14314,-0.16711 0.21891,-0.38175 0.32837,-0.57263 0.1715,-0.81306 0.13632,-1.60867 -0.29155,-2.34782 -0.39524,-0.6076 -0.9332,-1.10984 -1.22283,-1.77324 -0.35138,-1.04713 -0.45946,-2.15621 -0.64127,-3.24075 -0.0944,-1.53895 0.0106,-3.08289 -0.0608,-4.62354 -0.0586,-1.15139 -0.26725,-2.28629 -0.27262,-3.43813 0.0254,-1.53388 0.0919,-3.07285 0.39616,-4.58103 0.38851,-1.3598 -1.53453,-1.90924 -1.92305,-0.54944 z" /><path
           id="path90"
           style="fill:#000000;fill-opacity:1;stroke-width:5;stroke-linecap:round;stroke-linejoin:round;stroke-miterlimit:2"
           d="m 92.419922,224.98828 c -1.303054,0.14663 -2.53515,0.57544 -3.832031,0.74805 -1.681487,0.24631 -3.391162,0.41268 -4.990235,1.02929 -1.813213,0.58503 -3.614674,1.2087 -5.375,1.93946 -1.341641,0.44722 -0.708828,2.34369 0.632813,1.89648 0.174996,-0.0721 0.351646,-0.14265 0.527343,-0.21289 -0.396697,0.30316 -0.804901,0.59222 -1.234374,0.85352 -0.34124,0.26744 -0.669062,0.56427 -1.023438,0.81445 -0.381132,0.26907 -0.287626,0.14891 -0.689453,0.49024 -0.126283,0.10726 -0.241187,0.22768 -0.361328,0.34179 -0.968055,1.00339 -2.020455,1.92973 -2.871094,3.04297 -0.957658,1.30256 -1.973597,2.55709 -3.001953,3.80469 -0.344414,0.48564 -0.709004,0.95503 -1.035156,1.45312 -0.562279,0.85869 -1.046031,1.77734 -1.498047,2.69727 -0.525225,1.31306 1.332196,2.0572 1.857422,0.74414 0.420367,-0.82141 0.854982,-1.6491 1.361328,-2.42188 0.296327,-0.45225 0.634451,-0.87539 0.947265,-1.3164 1.028567,-1.23263 2.029571,-2.48209 2.980469,-3.77539 0.808193,-1.0301 1.785644,-1.90138 2.695313,-2.83594 0.09969,-0.0939 0.193918,-0.19518 0.298828,-0.2832 0.08466,-0.071 0.310089,-0.19667 0.396484,-0.25782 0.407132,-0.28814 0.782923,-0.61702 1.175781,-0.92382 0.896958,-0.54364 1.698836,-1.21147 2.507813,-1.875 0.634295,-0.38681 1.329681,-0.64872 1.984375,-0.99414 0.699431,-0.25893 1.361091,-0.60155 2.052734,-0.88086 0.700296,-0.18909 1.377668,-0.44779 2.06836,-0.66602 0.713973,-0.25935 1.452045,-0.45727 2.189453,-0.64062 0.269915,-0.0303 0.541301,-0.033 0.8125,-0.0371 0.529723,-0.009 0.855772,-0.29704 0.982422,-0.65039 0.217431,-0.0396 0.437018,-0.0728 0.658203,-0.0957 0.997248,-0.0482 1.996464,-0.002 2.99414,0.0156 1.288199,-0.033 2.568266,0.0858 3.851563,0.17578 1.457378,0.14268 2.925928,0.0258 4.382808,0.14062 1.18082,0.0314 2.27024,0.46677 3.375,0.83203 1.04198,0.32757 2.15859,0.44037 3.17383,0.84766 1.09853,0.50961 2.26134,0.86998 3.35156,1.39649 0.10524,0.0581 0.2131,0.10918 0.31446,0.17382 0.46654,0.29753 0.90087,0.65021 1.36914,0.94727 0.46359,0.29411 0.94,0.56949 1.40625,0.85937 1.24179,0.78535 2.41889,1.66115 3.78711,2.21485 1.23253,0.32125 2.09157,1.28354 3.01172,2.10351 1.19894,1.14762 2.12908,2.55649 2.91992,4.00782 0.76004,1.50204 1.41989,3.05069 2.16406,4.56054 0.47338,0.97973 0.64848,2.05416 0.99414,3.07617 0.30919,1.02619 0.45127,2.09305 0.65039,3.14454 0.27205,1.02966 0.36918,2.08991 0.52149,3.14062 0.24106,1.26631 0.41578,2.54889 0.54492,3.83203 0.19388,1.69485 0.29897,3.40012 0.32422,5.10547 -0.0556,1.18081 0.0904,2.35196 0.19531,3.52539 0.0285,0.97315 0.18155,1.93437 0.25586,2.9043 0.0627,1.8048 0.0411,3.61243 0.0332,5.41797 -0.006,1.21453 -0.01,2.42803 -0.01,3.64258 5.6e-4,1.05028 0.002,2.10011 0.002,3.15039 -0.0328,1.17704 0.14126,2.34466 0.2168,3.51757 0.0599,1.22832 0.0514,2.4582 0.041,3.6875 -0.0638,0.99796 0.0544,1.98369 0.16797,2.97266 0.10145,0.9859 0.0918,1.97716 0.0859,2.9668 -0.0119,1.42675 -0.0131,2.8525 -0.0137,4.27929 -0.0452,1.45617 0.08,2.92226 -0.043,4.375 -0.11905,1.18949 -0.27308,2.37435 -0.38672,3.56446 -0.10613,1.29006 -0.0929,2.58582 -0.082,3.8789 0.008,0.78635 0.0152,1.57299 0.0156,2.35938 -4.7e-4,0.59556 -0.002,1.1896 -0.002,1.78515 -7e-5,0.26344 -1e-5,0.52758 0,0.79102 6e-5,1.41421 2.00006,1.41421 2,0 -1e-5,-0.26317 -7e-5,-0.5259 0,-0.78906 2.1e-4,-0.59615 0.002,-1.19292 0.002,-1.78906 -4.1e-4,-0.79168 -0.007,-1.58336 -0.0156,-2.375 -0.0104,-1.22423 -0.0235,-2.45032 0.0742,-3.67188 0.11376,-1.20093 0.26963,-2.3973 0.38867,-3.59766 0.11185,-1.50664 0.0195,-3.01961 0.0488,-4.52929 6.5e-4,-1.42315 0.002,-2.84641 0.0137,-4.26953 0.006,-1.06984 0.0129,-2.14151 -0.0996,-3.20704 -0.1044,-0.90845 -0.21984,-1.80926 -0.1543,-2.72656 0.0108,-1.27801 0.0191,-2.55705 -0.0449,-3.83398 -0.0735,-1.13032 -0.24247,-2.25478 -0.21289,-3.38867 -1e-4,-1.05029 -0.001,-2.1001 -0.002,-3.15039 -1.3e-4,-1.21155 0.003,-2.42323 0.01,-3.63477 0.008,-1.85987 0.0318,-3.72112 -0.0391,-5.58008 -0.0763,-0.97802 -0.22817,-1.94651 -0.25781,-2.92773 -0.10059,-1.12455 -0.24473,-2.24715 -0.1875,-3.37891 -0.027,-1.76277 -0.13374,-3.52341 -0.33399,-5.27539 -0.13426,-1.31114 -0.31115,-2.62372 -0.55664,-3.91797 -0.15646,-1.07904 -0.25724,-2.16693 -0.53515,-3.22461 -0.21714,-1.14663 -0.37205,-2.31239 -0.72461,-3.42773 -0.38893,-1.09293 -0.5499,-2.26418 -1.0918,-3.30664 -0.75745,-1.53597 -1.42527,-3.11364 -2.20508,-4.63867 -0.90944,-1.64639 -1.96149,-3.24292 -3.33984,-4.53711 -1.09325,-0.97413 -2.15637,-2.07413 -3.61328,-2.47071 -1.26628,-0.47631 -2.30219,-1.37653 -3.46094,-2.05468 -0.44508,-0.2765 -0.90117,-0.53786 -1.34375,-0.81836 -0.5207,-0.33002 -1.00571,-0.71828 -1.5293,-1.04297 -0.13433,-0.0833 -0.27707,-0.15123 -0.41601,-0.22657 -1.14639,-0.5379 -2.34865,-0.94408 -3.50391,-1.46289 -1.05651,-0.3831 -2.16383,-0.58998 -3.25,-0.875 -1.25986,-0.41653 -2.51051,-0.88905 -3.85547,-0.92773 -1.4611,-0.10203 -2.93129,-0.0128 -4.392576,-0.13867 -1.317498,-0.0922 -2.630696,-0.21331 -3.953125,-0.18164 -1.081793,-0.0197 -2.167168,-0.0706 -3.248047,-0.004 z" /></g></g></g></svg>
