<?xml version="1.0" encoding="UTF-8" standalone="no"?>
<!-- Created with Inkscape (http://www.inkscape.org/) -->

<svg
   width="63.687153"
   height="85.995438"
   viewBox="0 0 63.687153 85.995438"
   version="1.1"
   id="svg1"
   xml:space="preserve"
   xmlns="http://www.w3.org/2000/svg"
   xmlns:svg="http://www.w3.org/2000/svg"><defs
     id="defs1" /><g
     id="g10"
     style="display:inline"
     transform="translate(-59.34251,-205.31187)"><g
       id="layer2"
       style="display:inline"
       transform="matrix(0.5,0,0,0.5,-0.40702712,198.15476)"><g
         id="g53"
         transform="translate(-62,-6.5)"><g
           id="g325"><path
             style="fill:#d8d2c3;fill-opacity:1;stroke-width:0.353553;stroke-linecap:round;stroke-linejoin:round;stroke-miterlimit:2;stroke-dasharray:none"
             d="m 187.33427,161.29009 c -1.49206,0.29306 -2.04863,2.07211 -1.33826,3.30835 0.17659,4.03009 0.11152,8.01258 -0.1785,12.06052 0.18449,1.58362 1.88035,1.95574 3.20682,2.02014 15.14524,1.9656 30.29018,3.61026 45.47107,5.10635 8.48407,0.64826 17.00551,0.99224 25.41523,2.37569 6.33541,1.06167 12.73255,1.64727 19.12379,2.24311 1.99002,0.14043 3.92976,0.87648 5.92133,0.82381 1.73821,-0.34011 1.90685,-2.34504 1.79953,-3.78033 -0.0909,-4.30005 -0.0737,-8.62134 -0.40945,-12.90362 -0.49692,-1.93569 -2.83892,-2.53037 -4.62247,-2.45023 -7.69576,-0.1596 -15.23094,-1.76454 -22.91959,-2.27814 -11.66154,-0.85879 -23.31223,-1.86175 -34.97474,-2.70593 -9.3422,-0.58541 -18.74984,-0.64071 -27.94236,-2.49827 -2.82097,-0.40838 -5.62044,-1.12659 -8.4593,-1.32418 z"
             id="path52" /><path
             style="fill:#7d776c;fill-opacity:1;stroke-width:0.353553;stroke-linecap:round;stroke-linejoin:round;stroke-miterlimit:2;stroke-dasharray:none"
             d="m 301.91699,39.726764 c -1.55279,0.981957 -1.37784,3.076739 -1.92917,4.64834 -1.95937,7.895877 -1.83102,16.077693 -2.5572,24.130808 -0.60318,8.252958 -1.16095,16.509022 -1.59711,24.772136 -0.82776,9.863422 -1.68192,19.724812 -2.32757,29.602472 -0.53233,5.66356 -1.36614,11.29533 -1.97264,16.95189 -1.19577,9.22525 -2.53233,18.43336 -3.89708,27.63429 -0.1748,1.22898 -0.5695,2.45323 -1.54006,3.29268 -0.9035,1.52364 -0.33165,3.39456 -0.46249,5.08364 0.18343,1.73173 -0.23429,3.73168 0.84747,5.21878 1.14655,1.13345 3.21119,0.39135 3.44127,-1.17736 2.86025,-10.91186 5.05532,-21.99665 6.45394,-33.19195 0.93625,-6.39728 1.75173,-12.81055 2.5199,-19.2289 0.61807,-4.23548 0.47572,-8.47068 0.91695,-12.71706 0.62271,-7.1437 0.45371,-14.32239 0.83707,-21.4757 1.12395,-6.990102 2.84473,-13.915158 3.19849,-21.011629 0.27186,-4.37876 0.62384,-8.63625 1.35413,-12.958907 0.17369,-1.744697 0.47167,-3.578136 -0.13362,-5.256689 0.18766,-4.25309 -0.12224,-8.525925 -0.36698,-12.763304 -0.16139,-1.319831 -1.58512,-2.032803 -2.7853,-1.553537 z"
             id="path53" /></g><g
           id="g59"><g
             id="g60"><path
               style="fill:#a9ffa9;fill-opacity:1;stroke-width:1;stroke-linecap:round;stroke-linejoin:round;stroke-miterlimit:2;stroke-dasharray:none"
               d="m 200.69043,24.248047 c -3.98408,0.04173 -3.59056,5.068664 -4.05132,7.818235 -3.09309,20.096108 -2.31982,40.481092 -4.73686,60.583648 -1.47822,20.0803 -3.1977,40.09471 -5.98038,60.06491 -0.17204,2.43289 -1.41012,6.74005 2.24805,7.11231 17.13456,3.99623 34.78989,3.508 52.18555,5.26757 13.18708,0.86002 26.3387,2.50838 39.51953,3.55762 2.39442,0.10971 6.84661,0.6169 6.71756,-2.9773 2.87011,-19.91812 5.74327,-39.8895 6.86659,-59.9751 1.93828,-19.648835 2.18637,-39.412183 4.68708,-58.964136 0.69727,-4.389401 2.64715,-8.666437 2.73463,-13.091273 -1.76275,-2.908738 -5.96046,-1.772325 -8.81152,-2.323242 C 267.8449,30.542444 243.64593,30.61602 219.70191,26.72641 213.4367,25.896113 207.05982,24.532703 200.69043,24.248047 Z"
               id="path59" /></g><path
             style="fill:#449933;fill-opacity:1;stroke-width:2;stroke-linecap:round;stroke-linejoin:round;stroke-miterlimit:2;stroke-dasharray:none"
             id="path64"
             d="m 193.43522,150.26592 c 0.65673,1.71066 2.20193,2.5492 4.04674,2.19704 0.59624,-0.11382 1.14218,-0.41142 1.71327,-0.61713 2.68667,-1.4938 4.69932,-3.76592 6.0985,-6.48759 0.84364,-1.64104 1.12054,-2.66034 1.70019,-4.37688 0.0611,-0.17902 0.63954,-2.05432 0.94299,-2.43999 0.074,-0.094 -0.0416,0.24636 -9.9e-4,0.35886 0.0317,0.0877 0.10952,0.17647 0.201,0.1947 0.39958,0.0797 0.81172,0.0934 1.21913,0.0884 0.62905,-0.008 1.25536,-0.0844 1.88304,-0.1266 0.7428,-0.17612 1.50481,-0.28509 2.22841,-0.52836 3.14016,-1.0557 5.95147,-3.06181 8.24508,-5.41984 0.43716,-0.44944 0.828,-0.94173 1.24201,-1.4126 0.84159,-1.19822 1.96634,-2.42939 2.21922,-3.9356 0.0414,-0.24679 0.16951,-0.54656 0.0243,-0.75036 -0.40624,-0.57004 -1.04032,-0.93683 -1.56048,-1.40525 -0.49541,0.32275 -1.1186,0.50518 -1.48624,0.96826 -0.38065,0.47945 -0.20564,1.7076 0.0871,2.17879 0.25775,0.41488 0.59039,0.8083 1.00527,1.06605 1.19355,0.7415 2.32016,0.61921 3.65921,0.69638 3.8436,-0.21474 7.38428,-1.37784 10.54094,-3.60661 1.75207,-1.23705 2.36213,-1.99197 3.80476,-3.47851 1.47161,-1.52785 -0.68911,-3.60903 -2.16072,-2.08117 v 0 c -1.22232,1.28015 -1.74453,1.93336 -3.22088,3.00751 -2.63364,1.91615 -5.61406,2.92588 -8.8486,3.16101 -0.44765,-0.004 -0.89532,-0.007 -1.34294,-0.0133 -0.18003,-0.003 -0.36458,-0.0544 -0.53996,-0.0137 -0.0632,0.0147 -0.0654,0.11254 -0.10554,0.16349 -0.54137,0.6869 -0.1281,0.523 -1.51115,0.94937 -0.43809,-0.46517 -0.9173,-0.8948 -1.31429,-1.39551 -0.0403,-0.0508 0.0333,-0.24308 0.0615,-0.18464 0.0728,0.15119 -0.26618,0.76139 -0.30708,0.83543 -0.44307,0.80207 -0.69484,1.08662 -1.26416,1.86513 -0.34971,0.4038 -0.67946,0.82578 -1.04913,1.21139 -1.91699,1.99963 -4.27113,3.73767 -6.89657,4.68149 -0.56279,0.20231 -1.15792,0.29977 -1.73687,0.44966 -0.48086,0.0419 -0.95993,0.12029 -1.44258,0.12562 -0.92329,0.0102 -2.11479,-0.31157 -3.01591,0.0467 -1.64596,0.65435 -1.89241,2.34208 -2.40435,3.79055 -0.20892,0.62888 -0.39215,1.26688 -0.62674,1.88664 -1.13688,3.00347 -2.68827,5.42832 -5.45552,7.15122 -0.0991,0.0498 -1.28661,0.72932 -1.57676,0.56657 -0.13963,-0.0783 -0.19588,-0.30377 -0.24615,-0.42004 -0.74485,-1.98625 -3.55384,-0.93288 -2.80899,1.05337 z" /><path
             style="fill:#449933;fill-opacity:1;stroke-width:2;stroke-linecap:round;stroke-linejoin:round;stroke-miterlimit:2;stroke-dasharray:none"
             id="path65"
             d="m 219.88678,150.65377 c 0.622,1.47931 1.63061,2.80292 3.07194,3.57095 0.4583,0.24421 0.96222,0.39094 1.44333,0.5864 0.56152,0.10364 1.11619,0.25614 1.68455,0.31091 2.5915,0.24972 5.55488,-0.40328 7.89944,-1.50129 0.68236,-0.31957 1.3145,-0.73694 1.97176,-1.1054 0.59628,-0.48502 1.23553,-0.92155 1.78884,-1.45507 1.59597,-1.53891 2.83524,-3.494 3.64166,-5.55374 0.63523,-1.62246 0.62397,-2.07924 0.89935,-3.75143 0.13288,-1.44216 0.0145,-2.88453 -0.34218,-4.28683 -0.0845,-0.33219 -0.40772,-1.37492 -0.64311,-1.69219 -0.2251,-0.30338 -0.53652,-0.53195 -0.80478,-0.79793 -0.5085,-0.0509 -1.02697,-0.26507 -1.52551,-0.1527 -0.40986,0.0924 -0.73228,0.43062 -1.02865,0.72843 -0.67006,0.67331 -0.82902,1.91263 -0.51243,2.77442 0.1345,0.36612 0.39565,0.67231 0.59347,1.00847 0.30583,0.24472 0.58124,0.53327 0.91748,0.73418 1.50121,0.89702 3.44848,0.92386 5.12413,0.70811 0.47876,-0.0616 0.95009,-0.17134 1.42514,-0.25701 2.25616,-0.54268 4.46129,-1.45706 6.30543,-2.89126 0.41557,-0.3232 0.79433,-0.69114 1.1915,-1.03671 2.55138,-2.55242 4.17985,-5.82011 6.06289,-8.85908 1.04136,-1.5679 2.16417,-3.16811 3.672,-4.33251 0.59835,-0.46207 0.92648,-0.57219 1.6008,-0.88935 1.21543,-0.43283 0.59621,-0.22905 1.85833,-0.60936 2.02969,-0.61674 1.15749,-3.48715 -0.8722,-2.87042 v 0 c -1.51918,0.46492 -0.75068,0.20537 -2.30351,0.78451 -1.04983,0.5267 -1.35298,0.61293 -2.28949,1.35399 -1.71662,1.35838 -3.02304,3.17425 -4.21627,4.98335 -1.43091,2.31068 -0.52645,0.829 -1.89702,3.1249 -1.06201,1.779 -2.11289,3.5958 -3.59935,5.06353 -0.30523,0.27361 -0.59507,0.56543 -0.91569,0.82083 -1.49553,1.19131 -3.30322,1.94684 -5.14387,2.40777 -1.5951,0.30527 -2.928,0.50113 -4.50287,-0.012 -0.061,0.0504 -0.1945,0.12498 -0.28125,0.11537 -0.023,-0.003 -0.0212,-0.0567 -0.0441,-0.0535 -0.95726,0.13273 0.10485,0.31466 -1.33458,-0.18296 -0.0615,-0.12183 -0.26769,-0.4736 -0.18443,-0.36548 0.16829,0.21854 0.35597,0.80277 0.41235,1.0128 0.28077,1.04604 0.39572,2.12241 0.31396,3.20416 -0.0695,0.47477 -0.10459,0.95587 -0.2086,1.42429 -0.4958,2.23289 -1.67162,4.4115 -3.28442,6.03674 -0.41947,0.4227 -0.90681,0.77216 -1.36021,1.15824 -0.51933,0.30315 -1.01655,0.64784 -1.558,0.90944 -1.8779,0.9073 -4.2408,1.46439 -6.33284,1.34348 -0.3722,-0.0215 -0.73851,-0.10296 -1.10776,-0.15444 -0.29384,-0.10036 -0.59697,-0.1768 -0.88152,-0.3011 -0.87954,-0.38421 -1.44498,-1.16731 -1.85764,-2.00222 -0.67082,-2.01246 -3.51687,-1.06377 -2.84605,0.94869 z" /><path
             style="fill:#449933;fill-opacity:1;stroke-width:2;stroke-linecap:round;stroke-linejoin:round;stroke-miterlimit:2;stroke-dasharray:none"
             id="path66"
             d="m 250.25,151.92943 c 0.0499,0.24253 0.0599,0.49684 0.14975,0.72761 0.65058,1.67185 2.46348,2.16203 4.1053,2.04212 0.59953,-0.0438 1.18351,-0.21138 1.77527,-0.31707 2.82447,-0.82576 5.33349,-2.34721 7.4471,-4.38519 1.10436,-1.06484 1.45115,-1.58063 2.35828,-2.73725 0.22523,-0.34973 0.45542,-0.69632 0.6757,-1.0492 0.1327,-0.21259 0.24826,-0.43565 0.38305,-0.64692 0.0208,-0.0326 0.12051,-0.0861 0.082,-0.0821 -0.6897,0.0724 -1.36674,0.2922 -2.06022,0.28955 -0.14437,-5.5e-4 -0.35036,-0.43826 -0.31368,-0.29863 0.0702,0.26714 0.28167,0.47522 0.42251,0.71284 0.30655,0.26241 0.56592,0.59305 0.91965,0.78725 2.02675,1.11265 4.48653,0.42733 6.18074,-0.95389 0.54604,-0.44516 0.97667,-1.01558 1.465,-1.52337 0.39902,-0.63211 0.84288,-1.23805 1.19705,-1.89633 1.20826,-2.24577 1.97032,-4.82456 1.9707,-7.38395 6e-5,-0.44113 -0.0598,-0.88022 -0.0897,-1.32033 -0.23239,-1.26615 -0.13469,-0.92393 -0.4769,-2.09554 -0.13286,-0.45485 -0.32731,-0.88337 -0.32133,-1.36676 0.005,-0.44382 0.15758,-0.65051 0.34165,-1.05281 1.89763,-2.46297 4.48283,-4.29568 7.06683,-5.97457 0.38879,-0.22812 0.77758,-0.45623 1.16637,-0.68434 1.82841,-1.07561 0.30726,-3.66137 -1.52114,-2.58576 v 0 c -0.42758,0.25214 -0.85516,0.50428 -1.28274,0.75642 -1.62442,1.06076 -3.19243,2.15529 -4.66836,3.42008 -0.88205,0.75587 -1.94935,1.72154 -2.67173,2.64952 -0.3421,0.43948 -0.60744,0.93365 -0.91116,1.40047 -0.38219,1.19474 -0.54472,1.31115 -0.4833,2.53707 0.0561,1.12024 0.64884,2.1184 0.77063,3.22615 0.0282,0.31515 0.0786,0.6291 0.0844,0.94545 0.0491,2.64845 -0.98749,5.17997 -2.37333,7.38786 -1.23692,1.41653 -1.86708,2.23183 -3.85812,2.07691 -0.30912,-0.27292 -0.26818,-0.92862 -0.66417,-1.04367 -2.03382,-0.59088 -2.18197,-0.0428 -2.88573,1.10877 -0.16737,0.27385 -0.34077,0.54395 -0.51115,0.81592 -0.77477,1.00209 -1.03756,1.40384 -1.98082,2.33526 -1.70705,1.68563 -3.74408,2.95819 -6.03437,3.68692 -0.39314,0.0871 -0.78215,0.19556 -1.17942,0.26126 -0.24424,0.0404 -0.49323,0.0453 -0.74054,0.0563 -0.22272,0.01 -0.48316,-0.10044 -0.53409,0.17391 0,-2.12132 -3,-2.12132 -3,0 z" /><path
             style="fill:#449933;fill-opacity:1;stroke-width:0.5;stroke-linecap:round;stroke-linejoin:round;stroke-miterlimit:2;stroke-dasharray:none"
             d="m 195.29492,48.337402 c -1.6471,1.466973 -0.85127,3.939038 -1.18081,5.902933 -0.13193,11.458864 -0.64284,22.88248 -1.95255,34.244328 -0.60825,5.667712 -1.14223,11.48361 -1.31644,17.093467 0.40153,2.37152 3.35826,1.60834 5.09673,1.79937 15.15534,0.42032 30.33401,1.0595 45.523,1.42313 12.43972,0.24031 24.81753,1.47529 37.28357,2.08734 3.94075,0.36217 7.97564,0.37634 11.7633,1.65598 1.85975,0.38375 2.76501,-1.5247 2.68555,-3.08643 1.79598,-17.17091 2.37051,-34.440325 3.83984,-51.595215 -0.0875,-2.465396 -3.04777,-2.472723 -4.83105,-3.112305 -11.33506,-1.625489 -22.79939,-1.981794 -34.18814,-3.047262 -17.75138,-1.532289 -35.51954,-2.372143 -53.30228,-3.371785 -3.00801,-0.0067 -6.0799,-0.482048 -9.04841,-0.09143 l -0.24179,0.06357 z"
             id="path67" /><g
             id="g103"
             transform="translate(3.59099,-1.3587572)"
             style="display:inline;fill:#000000;fill-opacity:1"><path
               id="path104"
               style="baseline-shift:baseline;display:inline;overflow:visible;opacity:1;vector-effect:none;fill:#33293c;fill-opacity:1;stroke-linecap:round;stroke-linejoin:round;stroke-miterlimit:2;enable-background:accumulate;stop-color:#000000;stop-opacity:1"
               d="m 282.98693,60.93058 c -1.12657,0.01808 -2.28384,0.09202 -3.44726,0.287109 h -0.002 v 0.002 h -0.002 c -0.5986,0.0013 -1.17145,0.238712 -1.54297,0.632813 -0.3725,0.39513 -0.54687,0.902991 -0.54687,1.396484 0,0.493493 0.17437,0.999401 0.54687,1.394531 0.37249,0.395131 0.94659,0.636719 1.54688,0.636719 a 1.0001,1.0001 0 0 0 0.0742,-0.0039 c 1.17716,-0.08702 2.33726,-0.179731 3.48828,-0.228516 0.6102,-0.01739 1.18465,-0.278603 1.55078,-0.689453 0.36613,-0.41085 0.52946,-0.927243 0.51563,-1.427734 -0.0138,-0.500491 -0.205,-1.010534 -0.59375,-1.400391 -0.38833,-0.389437 -0.97643,-0.616447 -1.58594,-0.599609 z m -81.18554,2.023437 c -0.82546,0.0365 -1.74716,0.207866 -2.53321,0.792969 -0.35083,0.261124 -0.4833,0.4969 -0.5332,0.550781 a 1.0001,1.0001 0 0 0 -0.14062,0.195313 c -0.0678,0.122397 -0.21132,0.319606 -0.34571,0.632812 -0.2675,0.623388 -0.3603,1.230053 -0.4375,1.751953 -0.20239,1.368307 -0.24663,2.731848 -0.21289,4.078125 l -0.002,-0.02148 c 0.0101,2.157098 0.0138,4.335943 0.12305,6.525391 v 0.002 h 0.002 c 7.4e-4,0.599299 0.24024,1.172994 0.63477,1.544922 0.39513,0.372496 0.90104,0.546875 1.39453,0.546875 0.49349,0 1.00135,-0.174379 1.39648,-0.546875 0.39514,-0.372495 0.63477,-0.946583 0.63477,-1.546875 v 0.05078 c 0.0502,-0.991207 0.0638,-1.976386 0.0801,-2.960938 0.24552,-0.01347 0.49675,-0.01799 0.82813,-0.07031 1.93457,-0.305437 3.89605,-1.294602 4.95703,-3.1875 0.33119,-0.590859 0.43677,-1.123612 0.57031,-1.478516 a 1.0001,1.0001 0 0 0 0.0606,-0.271484 c 0.043,-0.53241 0.1157,-0.942278 0.11328,-1.451172 -0.002,-0.508894 -0.11046,-1.070687 -0.36914,-1.708984 -0.78193,-1.929474 -2.63764,-2.799571 -4.23828,-3.240235 a 1.0001,1.0001 0 0 0 -0.12305,-0.02539 c -0.28643,-0.04122 -0.63949,-0.119548 -1.0664,-0.150391 -0.2521,-0.01821 -0.51767,-0.02389 -0.79297,-0.01172 z m 10.58594,0.990235 c -0.70952,-0.0058 -1.48241,0.447237 -1.85157,1.185547 a 1.0001,1.0001 0 0 0 -0.0254,0.05859 c -0.64506,1.528281 -1.04422,3.43459 -0.25,5.232422 0.21339,0.483082 0.47392,0.791057 0.60938,1.013672 a 1.0001,1.0001 0 0 0 0.24023,0.267578 c 0.24382,0.190188 0.5597,0.536485 1.08399,0.833985 1.50113,0.851778 3.266,0.786468 4.80468,0.375 -0.24545,0.667948 -0.56332,1.270257 -1.05859,1.703125 -0.0932,0.08143 -0.2973,0.208106 -0.54297,0.376953 -0.65052,0.381437 -1.41903,0.651035 -2.25195,0.927734 -0.59511,0.185797 -1.08692,0.600079 -1.33203,1.103516 -0.24511,0.503438 -0.25951,1.05633 -0.10743,1.542968 0.15207,0.486638 0.47879,0.932651 0.9668,1.207032 0.48802,0.274382 1.12755,0.334233 1.72266,0.148437 1.12471,-0.333525 2.31013,-0.722506 3.41797,-1.464844 a 1.0001,1.0001 0 0 0 0.0664,-0.04687 c 0.28707,-0.22812 0.67181,-0.479387 1.06446,-0.853515 1.58235,-1.507704 2.2985,-3.528749 2.66211,-5.451172 a 1.0001,1.0001 0 0 0 0.008,-0.04687 c 0.0535,-0.382075 0.13646,-0.812713 0.17969,-1.294922 0.16036,-1.788774 -0.0281,-3.606728 -0.50196,-5.318359 a 1.0001,1.0001 0 0 0 -0.0156,-0.04883 c -0.19007,-0.570196 -0.60049,-1.041106 -1.09375,-1.269532 -0.49326,-0.228426 -1.02951,-0.232507 -1.49805,-0.07617 -0.46853,0.156334 -0.89498,0.482234 -1.15234,0.960938 -0.24164,0.449453 -0.29794,1.027639 -0.14649,1.568359 0.0394,0.309842 0.0763,0.610836 0.11133,0.914063 -0.0456,0.06552 -0.11067,0.111406 -0.15039,0.18164 a 1.0001,1.0001 0 0 0 -0.0508,0.101563 c -0.19696,0.465864 -0.20452,0.562928 -0.2207,0.591797 l -0.002,0.002 -0.002,0.002 -0.002,0.002 -0.002,0.002 c -0.0225,0.01421 -0.08,0.01489 -0.32226,0.228516 -0.13822,0.0792 -0.29591,0.173615 -0.34571,0.193359 -0.68874,0.273037 -1.5484,0.218006 -2.26562,-0.0039 -0.19404,-0.453879 -0.1,-1.101933 0.0996,-1.970703 0.28543,-0.678588 0.20245,-1.459127 -0.16211,-1.988281 -0.38752,-0.562496 -1.00604,-0.885058 -1.68359,-0.890625 z m 16.9746,1.714843 c -0.4662,-0.01121 -0.85143,0.0435 -1.15625,0.06055 a 1.0001,1.0001 0 0 0 -0.0977,0.01172 c -1.7466,0.272086 -3.71043,0.918803 -4.90625,2.669922 -0.66637,0.975815 -0.75313,1.697133 -0.95703,2.59375 a 1.0001,1.0001 0 0 0 -0.0156,0.0918 c -0.24988,1.890177 0.1611,3.848833 1.33203,5.441406 0.67192,0.913862 1.17692,1.217961 1.92578,1.775391 a 1.0001,1.0001 0 0 0 0.13477,0.08594 c 1.8575,0.964587 3.87653,1.221419 5.73633,1.40625 a 1.0001,1.0001 0 0 0 0.0391,0.0039 c 0.93996,0.05653 0.54653,0.04358 1.4082,0.05469 l -0.0176,-0.002 c 0.61122,0.01875 1.20152,-0.206565 1.59179,-0.595703 0.39027,-0.389137 0.582,-0.899223 0.59766,-1.400391 0.0157,-0.501168 -0.14424,-1.020923 -0.50977,-1.433594 -0.36554,-0.41267 -0.94151,-0.674604 -1.55273,-0.693359 h 0.0195 c -0.73883,-0.03764 -0.40294,-0.0179 -1.12891,-0.07031 -1.42771,-0.180743 -2.79466,-0.358045 -3.95312,-0.828125 -0.34877,-0.247604 -0.61949,-0.426832 -0.77734,-0.630859 -0.54162,-0.700069 -0.78269,-1.557948 -0.70313,-2.431641 0.0732,-0.435849 0.11661,-0.731204 0.19922,-0.882812 0.2641,-0.484724 1.09721,-0.765106 2.07422,-0.990234 0.4479,-0.05433 0.8222,-0.111481 0.96875,-0.09961 0.0727,0.0059 0.0983,-0.0049 0.11523,0 0.002,8.94e-4 0.008,0.0043 0.01,0.0059 0.012,0.01169 0.0255,0.03822 0.0586,0.09375 0.27103,0.525401 0.73927,0.921835 1.25195,1.076171 0.52086,0.156798 1.05204,0.08457 1.49415,-0.136718 0.4421,-0.221286 0.81904,-0.602546 1.00585,-1.113282 0.18681,-0.510735 0.14396,-1.133947 -0.125,-1.671875 a 1.0001,1.0001 0 0 0 -0.008,-0.01758 c -0.82692,-1.577324 -2.39349,-2.331674 -4.05273,-2.373047 z m -27.15234,0.427735 0.0254,0.04102 v 0.002 a 1.0001,1.0001 0 0 0 -0.0273,-0.02344 l 0.0254,0.02539 a 1.0001,1.0001 0 0 0 0.002,0 v 0.002 c -3.1e-4,0.01607 -0.002,0.05683 -0.002,0.05664 v 0.0039 0.002 c -0.002,0.01055 -0.0254,0.160276 -0.0254,0.160156 l -0.0137,0.04492 a 1.0001,1.0001 0 0 0 0.0137,-0.294922 v -0.002 a 1.0001,1.0001 0 0 0 0.002,-0.01758 z m 48.97656,0.21289 c -0.70595,0.04411 -1.43822,0.545778 -1.7539,1.304688 a 1.0001,1.0001 0 0 0 -0.01,0.01758 c -0.22035,0.558918 -0.34257,1.076843 -0.48047,1.523438 a 1.0001,1.0001 0 0 0 -0.0254,0.09766 c -0.30081,1.495533 -0.77066,3.060561 -0.92187,4.779297 a 1.0001,1.0001 0 0 0 0,0.002 c -0.16427,1.912269 -0.35051,3.881186 -0.2793,5.894531 0.002,0.598659 0.24081,1.171461 0.63477,1.542969 0.39602,0.373447 0.90365,0.546875 1.39843,0.546875 0.49478,0 1.00242,-0.173428 1.39844,-0.546875 0.38182,-0.360055 0.61823,-0.907933 0.63477,-1.486328 0.0334,-0.512208 0.0761,-1.024768 0.11328,-1.53711 0.62064,0.59056 1.23871,1.132016 1.89648,1.763672 0.4474,0.432832 1.04684,0.664274 1.60547,0.638672 0.55863,-0.0256 1.05018,-0.276628 1.4043,-0.642578 0.35413,-0.36595 0.58852,-0.864623 0.5957,-1.423828 0.007,-0.559205 -0.24596,-1.149198 -0.69336,-1.582031 -0.68312,-0.666776 -1.43577,-1.378701 -2.19726,-2.072266 0.55121,-0.505121 1.12893,-1.012418 1.60156,-1.496094 a 1.0001,1.0001 0 0 0 0.041,-0.04687 c 0.7518,-0.873462 1.37894,-1.801136 1.97461,-2.707031 v -0.002 c 0.33994,-0.501731 0.46414,-1.116258 0.34571,-1.650391 -0.11856,-0.534738 -0.44151,-0.966164 -0.85352,-1.246094 -0.41202,-0.279929 -0.93373,-0.422895 -1.47461,-0.335937 -0.54089,0.08696 -1.06738,0.429601 -1.4082,0.931641 -0.53304,0.760518 -1.05396,1.48546 -1.62891,2.123046 -0.10923,0.108092 -0.2095,0.19802 -0.3164,0.304688 0.0624,-0.314389 0.11698,-0.59451 0.16992,-0.912109 0.10361,-0.286243 0.11435,-0.509533 0.13476,-0.654297 0.0146,-0.103379 0.0331,-0.162262 0.0352,-0.175782 -0.002,0.0026 -0.008,0.0093 -0.0176,0.02539 a 1.0001,1.0001 0 0 0 0.0586,-0.119141 c 0.30143,-0.724641 0.17324,-1.557896 -0.25,-2.089843 -0.42283,-0.531431 -1.05789,-0.810154 -1.73047,-0.769532 z m -8.16211,0.375 c -0.45837,-0.02044 -0.82498,0.03445 -1.09961,0.04687 a 1.0001,1.0001 0 0 0 -0.14648,0.01758 c -1.75774,0.342774 -3.44529,1.161768 -4.65039,2.652343 -0.72843,0.900995 -0.87092,1.405455 -1.24609,2.320313 a 1.0001,1.0001 0 0 0 -0.0488,0.152344 c -0.36198,1.551328 -0.70912,3.450467 0.11914,5.263671 0.52291,1.144644 1.0836,1.573135 1.81836,2.289063 a 1.0001,1.0001 0 0 0 0.11719,0.09961 c 2.10226,1.497988 4.2719,1.774145 6.61328,1.710938 0.61778,-0.01214 1.20196,-0.268914 1.57617,-0.679688 0.37555,-0.412246 0.5438,-0.93581 0.53515,-1.443359 -0.009,-0.507549 -0.19474,-1.024582 -0.58398,-1.423828 -0.38923,-0.399247 -0.98328,-0.63736 -1.60352,-0.626953 -1.64984,0.0079 -2.62227,-0.01823 -3.86523,-0.810547 -0.39044,-0.323597 -0.59251,-0.455451 -0.74219,-0.714844 -0.23613,-0.409203 -0.11134,-1.404172 0.0293,-2.423828 0.0659,-0.188792 0.12738,-0.378721 0.16602,-0.458984 0.43639,-0.906401 1.25268,-1.442028 2.32226,-1.761719 0.4675,-0.04605 0.77658,-0.04808 0.92578,-0.002 0.15697,0.04859 0.31583,0.138818 0.62696,0.498047 0.335,0.480949 0.84557,0.809928 1.36914,0.898437 0.53715,0.09081 1.05501,-0.04743 1.46679,-0.322266 0.41178,-0.274831 0.73889,-0.699793 0.86133,-1.230468 0.12245,-0.530674 0.002,-1.145094 -0.33203,-1.646485 a 1.0001,1.0001 0 0 0 -0.002,-0.0059 c -0.95398,-1.415088 -2.48605,-2.320822 -4.22657,-2.398438 z m -40.98632,0.417969 c 0.32051,0.0055 0.39714,0.03032 0.83203,0.128906 0.36629,0.125808 0.73542,0.267026 0.97656,0.423829 0.25224,0.164018 0.33833,0.282229 0.375,0.441406 0.004,0.01609 -0.05,0.409017 -0.12109,0.816406 -0.0973,0.212303 -0.18612,0.421013 -0.22266,0.474609 -0.36601,0.536911 -1.11554,0.770666 -1.95508,0.904297 -0.004,-0.98675 8e-4,-1.968998 0.0937,-2.93164 0.009,-0.09641 0.0155,-0.170067 0.0215,-0.257813 z m -0.64063,0.0332 c -0.0299,0.0037 -0.0939,0.01171 -0.0937,0.01172 1e-5,-10e-7 -0.0107,2.5e-5 -0.0117,0 0.0215,-0.0021 0.0787,-0.0085 0.10547,-0.01172 z m -0.2832,0.002 c 0.036,0.0025 0.0706,0.005 0.11133,0.0078 -0.0417,-9.37e-4 -0.0839,-0.0019 -0.084,-0.002 2e-5,10e-7 -0.0212,-0.0044 -0.0273,-0.0059 z m 76.21094,0.316407 c -0.5594,-0.007 -1.11496,0.202757 -1.5254,0.640625 -0.40236,0.429247 -0.61038,1.093983 -0.51367,1.748047 0.12161,1.826078 0.0734,3.700588 0.0937,5.615234 -0.0578,1.504497 -0.0829,2.951268 -0.44336,4.216797 a 1.0001,1.0001 0 0 0 -0.0156,0.0625 c -0.0711,0.326114 -0.24744,0.932002 -0.13672,1.664062 0.0554,0.36603 0.20738,0.801128 0.56055,1.144532 0.35317,0.343405 0.8625,0.525997 1.375,0.550781 0.6464,0.03126 1.14825,-0.268277 1.5332,-0.585938 0.38494,-0.317661 0.69529,-0.695218 0.97656,-1.082031 0.56253,-0.773626 1.01553,-1.62694 1.21094,-1.943359 a 1.0001,1.0001 0 0 0 0.0117,-0.01758 c 0.6993,-1.187166 1.46705,-2.301021 2.2832,-3.363282 -0.0676,1.245228 -0.10853,2.497565 -0.18359,3.660157 a 1.0001,1.0001 0 0 0 -0.002,0.07422 c 0.002,0.237487 -0.0375,0.419001 -0.13867,0.638672 a 1.0001,1.0001 0 0 0 -0.0117,0.0293 c -0.23422,0.553312 -0.23643,1.17833 -0.0176,1.675781 0.21888,0.497451 0.61738,0.854462 1.07226,1.046875 0.45488,0.192414 0.99061,0.230243 1.5,0.04102 0.50939,-0.189232 0.95523,-0.626376 1.18945,-1.179688 a 1.0001,1.0001 0 0 0 0.008,-0.01367 c 0.2301,-0.568737 0.46789,-1.221864 0.51953,-1.984375 v -0.002 h 0.002 v -0.002 c 0.1932,-1.71782 0.12244,-3.340288 0.32422,-4.833984 a 1.0001,1.0001 0 0 0 0.002,-0.0098 c 0.1083,-0.872932 0.15418,-1.227924 0.25391,-2.121093 0.0286,-0.256376 0.0668,-0.602238 0.0977,-0.947266 v -0.002 h 0.002 v -0.002 l 0.20312,-0.201172 v -0.002 c 0.003,-0.252589 -0.0417,-0.46663 -0.0898,-0.554688 -0.0374,-0.06855 -0.064,-0.09615 -0.0937,-0.134765 -0.004,-0.138075 0.004,-0.273311 -0.0137,-0.414063 -0.005,-0.04116 -5.1e-4,-0.236857 -0.0371,-0.521484 -0.0366,-0.284626 -0.1553,-0.777277 -0.60742,-1.105469 -0.8531,-0.619357 -1.66817,-0.497794 -1.97461,-0.576172 a 1.0001,1.0001 0 0 0 -0.87305,0.189453 c -0.99489,0.799278 -1.65603,1.703998 -2.37695,2.273438 a 1.0001,1.0001 0 0 0 -0.0801,0.07031 c -0.7043,0.688985 -1.24958,1.509689 -1.87109,2.269531 -0.0232,-1.408585 0.003,-2.811247 -0.23633,-4.25 -0.17255,-1.035286 -1.10445,-1.750781 -1.97656,-1.761718 z m -14.07422,0.585937 c -0.49657,0 -1.00515,0.174643 -1.40235,0.548828 -0.39721,0.374185 -0.64062,0.952053 -0.64062,1.556641 -0.0192,1.666277 -0.17727,3.344284 -0.36719,5.042969 v 0.002 0.002 0.002 0.002 c -0.2242,1.305608 -0.36974,2.597252 -0.53125,3.861328 a 1.0001,1.0001 0 0 0 -0.002,0.0078 c -0.0964,0.810838 -0.20591,1.666051 0.35742,2.484375 0.28167,0.409162 0.7719,0.715625 1.28125,0.814453 0.50935,0.09883 1.03496,0.0476 1.63476,-0.0957 0.5278,-0.126104 0.56039,-0.269755 0.74024,-0.416016 0.17985,-0.146261 0.3599,-0.312218 0.53516,-0.478515 0.35052,-0.332594 0.69859,-0.691302 0.7539,-0.746094 a 1.0001,1.0001 0 0 0 0.0332,-0.0332 c 1.3542,-1.47778 2.46452,-3.014837 3.64454,-4.466797 -0.22586,1.108588 -0.48426,2.220663 -0.59375,3.427734 -0.0659,0.413822 -0.0316,0.201881 -0.10743,0.66211 l 0.004,-0.01563 c -0.10791,0.593793 0.0263,1.205422 0.34961,1.644531 0.32336,0.439108 0.79348,0.702119 1.28125,0.791015 0.48777,0.0889 1.0191,0.008 1.47656,-0.289062 0.45745,-0.297095 0.79833,-0.822224 0.90625,-1.416016 0.0996,-0.503545 0.0585,-0.2764 0.16211,-0.875 a 1.0001,1.0001 0 0 0 0.006,-0.03711 c 0.17365,-1.295356 0.5432,-2.629896 0.82227,-4.052734 v -0.002 c 0.25576,-1.28836 0.6573,-2.746728 0.60351,-4.318359 -0.006,-0.17968 0.19801,-0.809829 -0.27344,-1.560547 -0.48451,-0.771333 -1.12998,-1.005195 -1.35351,-1.191406 a 1.0001,1.0001 0 0 0 -0.8457,-0.208984 c -0.17895,0.03755 -0.54581,0.03772 -1.03125,0.228515 -0.48009,0.188709 -0.66614,0.398826 -0.9375,0.623047 -0.27136,0.224221 -0.50961,0.442984 -0.61914,0.544922 -0.78784,0.733261 -1.488,1.504809 -2.18165,2.222656 a 1.0001,1.0001 0 0 0 -0.0332,0.03711 c -0.6568,0.751165 -1.24222,1.526091 -1.85937,2.294921 0.16448,-1.469094 0.33607,-2.954771 0.22265,-4.503906 -0.004,-0.598604 -0.23918,-1.173178 -0.63281,-1.544922 -0.3967,-0.374653 -0.90577,-0.548828 -1.40234,-0.548828 z m 24.03906,4.609375 -0.2832,0.285156 h -0.41407 a 1.0001,1.0001 0 0 0 0,-0.002 l 0.0332,-0.0332 0.004,-0.002 c 0.0843,0.0026 0.0721,0.05223 0.25196,-0.0039 a 1.0001,1.0001 0 0 0 0.10546,-0.03906 c 1.9e-4,-8.6e-5 0.0733,-0.03739 0.11524,-0.06055 -3e-5,1.8e-5 0.003,-0.0016 0.004,-0.002 a 1.0001,1.0001 0 0 0 0.004,-0.0039 c 0.007,-0.004 0.0212,-0.01024 0.0234,-0.01172 0.0138,-0.009 0.0179,-0.01477 0.0215,-0.01758 a 1.0001,1.0001 0 0 0 0.13477,-0.109375 z m -49.75781,12.902344 c -3.31758,0.01023 -6.67202,-0.04558 -10.05078,0.158203 -0.60658,7.33e-4 -1.18687,0.242271 -1.5625,0.640625 -0.3762,0.398955 -0.55079,0.909526 -0.55079,1.408203 0,0.498677 0.17459,1.011201 0.55079,1.410156 0.37619,0.398956 0.95688,0.642579 1.56445,0.642579 0.87185,0.05255 1.73942,0.06692 2.60742,0.08984 -0.59843,1.445074 -1.04345,2.922737 -1.36328,4.38086 a 1.0001,1.0001 0 0 0 -0.006,0.0332 c -0.24365,1.326225 -0.3551,2.657868 -0.39063,3.978515 -0.008,0.297542 -0.0443,0.66804 -0.008,1.107427 0.10797,1.29964 0.27943,1.64576 0.64453,2.7832 a 1.0001,1.0001 0 0 0 0.0371,0.0996 c 0.48136,1.08488 1.01006,2.59304 2.39453,3.55078 0.76713,0.53069 1.25747,0.59879 1.99414,0.7793 a 1.0001,1.0001 0 0 0 0.11719,0.0215 c 1.65801,0.20184 3.45071,0.42186 5.27735,0.20507 0.43188,-0.0513 0.79446,-0.14319 1.10156,-0.19922 a 1.0001,1.0001 0 0 0 0.0469,-0.008 c 1.48842,-0.34336 3.0098,-0.81846 4.41602,-1.64648 0.90185,-0.53105 1.25556,-0.86761 2.01367,-1.48242 a 1.0001,1.0001 0 0 0 0.0508,-0.043 c 1.55967,-1.44684 3.00313,-3.13342 3.95899,-5.156258 0.18756,-0.396927 0.31845,-0.764503 0.44922,-1.080078 a 1.0001,1.0001 0 0 0 0.002,-0.0039 c 0.71902,-1.750924 1.22095,-3.603755 1.3125,-5.552735 a 1.0001,1.0001 0 0 0 0,-0.04297 c 0.002,-0.405616 0.038,-0.902879 -0.0547,-1.470703 v -0.002 c -0.003,-0.01157 -0.0165,-0.02545 -0.0215,-0.03711 -2.8e-4,-8.96e-4 -0.002,-0.003 -0.002,-0.0039 0.76734,0.04927 1.53245,0.08987 2.30274,0.146484 a 1.0001,1.0001 0 0 0 0.0195,0.002 c 0.67481,0.03772 0.44941,0.0272 0.9707,0.04492 0.6031,0.04385 1.19904,-0.156243 1.60156,-0.52539 0.40252,-0.369147 0.6122,-0.864129 0.64844,-1.359375 0.0362,-0.495245 -0.10054,-1.015693 -0.44531,-1.439454 -0.33719,-0.414449 -0.87896,-0.694869 -1.4668,-0.748046 l -0.0117,-0.002 c -0.54836,-0.06325 -0.23346,-0.02353 -0.90039,-0.109375 a 1.0001,1.0001 0 0 0 -0.002,0 c -2.29756,-0.291817 -4.60219,-0.463318 -6.91797,-0.517578 a 1.0001,1.0001 0 0 0 -0.0195,0 c -3.41725,-0.01147 -6.85138,-0.08736 -10.30273,-0.05273 z m 9.83398,4.365234 v 0.002 c 0.024,0.466512 0.29789,0.902826 0.66602,1.269532 4.4e-4,0.08395 0.002,0.164962 0.002,0.236328 -0.11966,1.389648 -0.59422,2.793432 -1.12109,4.242187 l -0.002,0.002 v 0.002 c -0.11677,0.301531 -0.20068,0.556448 -0.28515,0.738281 -0.64678,1.392247 -1.82341,2.611313 -3.0293,3.886716 -0.25765,0.22834 -0.47834,0.43884 -0.67188,0.58985 -1.02341,0.79854 -2.40992,1.24751 -3.85351,1.64062 -0.26977,0.0534 -0.48741,0.10764 -0.625,0.12305 -0.4322,0.0484 -1.20236,0.0312 -1.77539,0.0215 -0.8758,-0.015 -1.71293,-0.0245 -2.50195,-0.12305 a 1.0001,1.0001 0 0 0 -0.0332,-0.004 c -0.11848,-0.0107 -0.19112,-0.013 -0.27734,-0.0215 -0.0595,-0.0515 -0.20994,-0.21665 -0.36524,-0.55078 -0.1522,-0.32745 -0.29918,-0.73325 -0.49804,-1.13867 v -0.002 c -0.20167,-0.57171 -0.44366,-1.23777 -0.47266,-1.55664 -0.0131,-0.14459 0.0188,-0.402792 0.0391,-0.771486 0.0623,-1.131026 0.18616,-2.259075 0.36719,-3.38086 5.3e-4,-0.0033 9.5e-4,-0.0065 0.002,-0.0098 0.0786,-0.423584 0.13951,-0.819595 0.21875,-1.171875 0.30136,-1.339941 0.8465,-2.649122 1.43555,-3.972656 0.98513,-9.67e-4 1.9691,-0.005 2.94727,-0.002 0.0833,8.4e-4 0.16668,0.0012 0.25,0.002 -0.5894,0.863778 -1.08494,1.79087 -1.37891,2.820312 -0.13161,0.460896 -0.18643,0.868263 -0.25781,1.201172 a 1.0001,1.0001 0 0 0 -0.008,0.04297 c -0.16309,0.961127 -0.13832,1.879412 -0.0898,2.746093 v 0.002 c 0.0209,0.611507 0.28571,1.186112 0.69922,1.550781 0.41396,0.36505 0.93367,0.524372 1.43555,0.507812 0.50188,-0.01656 1.01146,-0.209827 1.40039,-0.601562 0.38311,-0.385879 0.60664,-0.965933 0.59375,-1.56836 v -0.02734 c -0.003,-0.658676 0.006,-1.266487 0.10156,-1.81836 0.0619,-0.313117 0.099,-0.571144 0.14844,-0.75 0.33494,-1.210729 1.05995,-2.254309 2.00781,-3.224609 0.29928,-0.240842 0.50598,-0.559258 0.64258,-0.894531 1.43274,-0.01426 2.86247,-0.02989 4.28906,-0.03711 z" /></g><g
             id="g89"
             transform="translate(1.59099,-3.3587572)"
             style="display:inline;fill:#d8b0ff;fill-opacity:1"><path
               style="fill:#d8b0ff;fill-opacity:1;stroke-width:2;stroke-linecap:round;stroke-linejoin:round;stroke-miterlimit:2;stroke-dasharray:none"
               id="path68"
               d="m 201.78115,78.460425 c 0.11013,-2.173792 0.11234,-4.352251 0.12251,-6.528432 -0.021,-1.227833 -0.002,-2.454247 0.11612,-3.676894 0.0296,-0.306277 0.03,-0.935746 0.24707,-1.233681 0.0111,0.004 0.0222,0.008 0.0333,0.01198 -0.0183,0.03584 -0.0927,0.09334 -0.055,0.10752 0.0808,0.0304 0.1711,-0.02361 0.25708,-0.03149 0.14433,-0.01322 0.28871,-0.03225 0.43364,-0.03179 0.55663,0.0018 0.63741,0.05392 1.20956,0.178356 0.80082,0.271076 1.83434,0.669672 2.05043,1.607643 0.0965,0.418902 -0.055,0.941264 -0.12899,1.334599 -0.12102,0.248078 -0.20759,0.516163 -0.36306,0.744234 -0.7426,1.089333 -2.12628,1.364827 -3.34178,1.457867 -0.2155,-0.0016 -0.431,-0.0033 -0.64649,-0.0049 -1.52829,-0.02449 -1.56293,2.136825 -0.0346,2.161319 v 0 c 0.28522,0.0064 0.57043,0.01279 0.85565,0.01918 0.33279,-0.02755 0.66852,-0.03056 0.99836,-0.08264 1.70973,-0.269939 3.36569,-1.12945 4.23992,-2.689164 0.2338,-0.417122 0.3368,-0.895086 0.50519,-1.342629 0.0923,-1.142175 0.26298,-1.596396 -0.18542,-2.70283 -0.61106,-1.507822 -2.10999,-2.24742 -3.57695,-2.651283 -0.33162,-0.04772 -0.66071,-0.119023 -0.99488,-0.143166 -0.86096,-0.0622 -1.94136,0.05229 -2.65858,0.586153 -0.15591,0.116046 -0.2641,0.285206 -0.39615,0.427809 -0.10028,0.181076 -0.21922,0.353011 -0.30084,0.543229 -0.20451,0.476607 -0.2926,0.995187 -0.36779,1.503482 -0.19143,1.294207 -0.23583,2.60013 -0.20308,3.907095 0.0102,2.176181 0.0124,4.35464 0.12251,6.528432 0,1.458263 2.0623,1.458263 2.0623,0 z" /><path
               style="fill:#d8b0ff;fill-opacity:1;stroke-width:2;stroke-linecap:round;stroke-linejoin:round;stroke-miterlimit:2;stroke-dasharray:none"
               id="path69"
               d="m 212.42964,66.576788 c -0.58505,1.386105 -0.88821,3.003948 -0.25412,4.439315 0.1418,0.321005 0.36485,0.59958 0.54727,0.89937 0.32133,0.250652 0.60955,0.550836 0.96399,0.751956 1.3418,0.761369 3.22034,0.70262 4.63435,0.193702 0.36488,-0.131323 0.70052,-0.332865 1.05078,-0.499297 1.36208,-1.09035 0.73186,-0.420955 1.80664,-2.084106 0.78509,-1.388512 -1.17856,-2.498804 -1.96366,-1.110293 v 0 c -0.40704,0.962756 -0.11862,0.563646 -0.82582,1.224868 -0.20748,0.111893 -0.40331,0.248807 -0.62245,0.33568 -1.01603,0.402786 -2.23312,0.399407 -3.24033,-0.004 -0.0935,-0.117857 -0.20973,-0.220808 -0.28047,-0.353572 -0.48035,-0.901503 -0.18153,-1.942289 0.035,-2.868075 0.65448,-1.308961 -1.19667,-2.234535 -1.85115,-0.925575 z" /><path
               style="fill:#d8b0ff;fill-opacity:1;stroke-width:2;stroke-linecap:round;stroke-linejoin:round;stroke-miterlimit:2;stroke-dasharray:none"
               id="path70"
               d="m 219.36669,67.366186 c 0.13319,1.033853 0.27276,2.08263 0.25558,3.127803 -0.0131,0.799011 -0.11312,1.321876 -0.22577,2.110343 -0.24569,1.393997 -0.69755,2.800906 -1.79873,3.763345 -0.21073,0.184172 -0.4578,0.322055 -0.68669,0.483082 -0.77385,0.455305 -1.6212,0.742893 -2.46809,1.024045 -1.48027,0.462147 -0.8267,2.555573 0.65358,2.093426 v 0 c 1.10577,-0.327615 2.18996,-0.692495 3.15934,-1.342052 0.33249,-0.264207 0.69001,-0.499664 0.99747,-0.792621 1.36534,-1.300933 2.02797,-3.104646 2.37027,-4.914419 0.058,-0.414339 0.13674,-0.826305 0.1741,-1.243017 0.14866,-1.658217 -0.028,-3.361663 -0.47139,-4.963156 -0.4619,-1.38569 -2.42156,-0.73247 -1.95967,0.653221 z" /><path
               style="fill:#d8b0ff;fill-opacity:1;stroke-width:2;stroke-linecap:round;stroke-linejoin:round;stroke-miterlimit:2;stroke-dasharray:none"
               id="path71"
               d="m 233.53079,69.497637 c -0.673,-1.283725 -1.76093,-1.802234 -3.19176,-1.837426 -0.35963,-0.0088 -0.71837,0.04015 -1.07756,0.06023 -1.62059,0.252456 -3.2659,0.826596 -4.23559,2.246583 -0.57636,0.84401 -0.58891,1.296403 -0.80605,2.251221 -0.21972,1.66209 0.1399,3.350077 1.14571,4.718073 0.60696,0.825512 0.93142,0.9824 1.71759,1.567602 1.65443,0.859137 3.53713,1.115951 5.37182,1.298287 0.9483,0.05703 0.49391,0.0414 1.36295,0.0526 1.50235,0.0461 1.56754,-2.078544 0.0652,-2.124642 v 0 c -0.7601,-0.03872 -0.36429,-0.01476 -1.1873,-0.07385 -1.45306,-0.184025 -2.95735,-0.350739 -4.31506,-0.921071 -0.40401,-0.289821 -0.78611,-0.520194 -1.09694,-0.921961 -0.69907,-0.903575 -1.01858,-2.024414 -0.91115,-3.15232 0.0729,-0.430187 0.10567,-0.860386 0.31982,-1.253407 0.53332,-0.978838 1.75295,-1.267601 2.74617,-1.494919 0.90186,-0.104339 1.69855,-0.367043 2.24101,0.51057 0.65448,1.308961 2.50563,0.383386 1.85115,-0.925575 z" /><path
               style="fill:#d8b0ff;fill-opacity:1;stroke-width:2;stroke-linecap:round;stroke-linejoin:round;stroke-miterlimit:2;stroke-dasharray:none"
               id="path72"
               d="m 247.42015,70.634959 c -0.79556,-1.180099 -2.00601,-1.895144 -3.44024,-1.959101 -0.33666,-0.01501 -0.6733,0.03047 -1.00995,0.04571 -1.58676,0.30943 -3.03195,1.021536 -4.06453,2.298724 -0.66909,0.827593 -0.70707,1.113817 -1.10028,2.072673 -0.3502,1.500847 -0.61385,3.1586 0.0546,4.621955 0.46245,1.012304 0.82903,1.228301 1.60772,1.987027 1.89769,1.352216 3.75074,1.589006 6.00908,1.52767 1.53792,-0.02581 1.50142,-2.200761 -0.0365,-2.174954 v 0 c -1.69292,0.0082 -2.98506,-0.02893 -4.46484,-0.987891 -0.41481,-0.349436 -0.75043,-0.563201 -1.02433,-1.037854 -0.52227,-0.905069 -0.23189,-2.156405 -0.0972,-3.126121 0.0857,-0.229908 0.15053,-0.468666 0.25696,-0.689723 0.59616,-1.238245 1.72767,-1.952487 3.01506,-2.320343 1.20071,-0.137172 1.75686,-0.06585 2.56805,0.893161 0.81383,1.220746 2.54023,0.06982 1.7264,-1.150931 z" /><path
               style="fill:#d8b0ff;fill-opacity:1;stroke-width:2;stroke-linecap:round;stroke-linejoin:round;stroke-miterlimit:2;stroke-dasharray:none"
               id="path74"
               d="m 251.78634,80.912162 c 0.12193,-1.871916 0.2723,-3.742227 0.43111,-5.611635 0.11014,-1.5182 0.52602,-2.986838 0.76928,-4.483435 0.13866,-0.315657 0.0867,-0.743594 0.26024,-1.040126 0.55668,-1.338289 -1.33595,-2.125557 -1.89263,-0.787268 v 0 c -0.18662,0.473358 -0.30444,0.963908 -0.45469,1.450502 -0.31271,1.554693 -0.76783,3.084238 -0.90736,4.670229 -0.16557,1.927304 -0.3494,3.866417 -0.27863,5.801733 0,1.465605 2.07268,1.465605 2.07268,0 z" /><path
               style="fill:#d8b0ff;fill-opacity:1;stroke-width:2;stroke-linecap:round;stroke-linejoin:round;stroke-miterlimit:2;stroke-dasharray:none"
               id="path75"
               d="m 252.11619,77.133306 c 1.75654,-0.525928 3.03489,-1.937235 4.27736,-3.20871 0.70514,-0.819254 1.31243,-1.712841 1.90509,-2.614375 0.83376,-1.22817 -0.90314,-2.407288 -1.7369,-1.179118 v 0 c -0.54189,0.773288 -1.09133,1.542941 -1.72597,2.244627 -0.64389,0.636395 -1.26455,1.285599 -1.95337,1.874352 -0.28432,0.243012 -0.63738,0.556013 -0.9813,0.739173 -0.13985,0.07448 -0.29209,0.122926 -0.43813,0.184389 -1.3857,0.461897 -0.73247,2.421559 0.65322,1.959662 z" /><path
               style="fill:#d8b0ff;fill-opacity:1;stroke-width:2;stroke-linecap:round;stroke-linejoin:round;stroke-miterlimit:2;stroke-dasharray:none"
               id="path76"
               d="m 251.83015,77.130841 c 1.35254,0.972035 2.46435,2.206986 3.65851,3.35348 1.11215,1.07593 2.63374,-0.496883 1.5216,-1.572813 v 0 c -1.29199,-1.260769 -2.49554,-2.627394 -4.0682,-3.559724 -1.25799,-0.786239 -2.3699,0.992818 -1.11191,1.779057 z" /><path
               style="fill:#d8b0ff;fill-opacity:1;stroke-width:2;stroke-linecap:round;stroke-linejoin:round;stroke-miterlimit:2;stroke-dasharray:none"
               id="path77"
               d="m 263.20847,71.1361 c -0.0193,1.728396 -0.18369,3.445936 -0.37564,5.162047 -0.22338,1.286631 -0.3677,2.58308 -0.53309,3.877571 -0.17689,1.488545 -0.005,2.6025 2.04948,2.111644 0.29269,-0.06993 1.37372,-1.196521 1.55642,-1.377487 1.58613,-1.730878 2.89169,-3.690144 4.4436,-5.446851 0.6497,-0.718468 1.32722,-1.412428 2.02485,-2.084443 0.18816,-0.181254 0.37719,-0.361822 0.57308,-0.5347 0.11406,-0.100661 0.28237,-0.152335 0.35614,-0.285376 0.0528,-0.09514 -0.19035,0.105355 -0.28553,0.158032 -0.28152,-0.08922 -0.54942,-0.257662 -0.84457,-0.267672 -0.0871,-0.003 -0.0968,0.149769 -0.11426,0.235154 -0.052,0.254596 -0.0553,0.516853 -0.0919,0.774122 -0.1376,0.968766 -0.34857,1.925336 -0.52972,2.886462 -0.27163,1.430312 -0.61688,2.851333 -0.7473,4.303752 -0.0775,0.487368 -0.0384,0.245838 -0.11726,0.724603 -0.26309,1.447661 1.78422,1.819727 2.04731,0.372066 v 0 c 0.10749,-0.544091 0.0535,-0.255037 0.1595,-0.867596 0.18599,-1.387431 0.56302,-2.739866 0.83209,-4.112216 0.26444,-1.332588 0.6337,-2.72126 0.5868,-4.091591 -0.0122,-0.356248 0.069,-0.760704 -0.12056,-1.062551 -0.26474,-0.421464 -0.7648,-0.637146 -1.14721,-0.955719 -0.29031,0.06092 -0.59485,0.07424 -0.87093,0.182751 -0.3127,0.122913 -1.0495,0.78767 -1.24246,0.967261 -0.74664,0.694919 -1.43483,1.453065 -2.14301,2.185947 -1.52205,1.740708 -2.91897,3.584658 -4.36412,5.389113 -0.20155,0.223357 -0.40731,0.442989 -0.60466,0.670069 -0.10343,0.119019 -0.38683,0.238026 -0.29738,0.367883 0.18222,0.264541 0.62221,0.222472 0.85588,0.442897 0.11165,0.105321 0.004,0.325453 0.0919,0.451189 0.16617,0.237359 -0.30092,-1.474251 0.0543,-0.867536 0.16587,-1.302636 0.33427,-2.603582 0.60557,-3.889623 0.22225,-1.797315 0.41618,-3.606078 0.27567,-5.419202 0,-1.472946 -2.08306,-1.472946 -2.08306,0 z" /><path
               style="fill:#d8b0ff;fill-opacity:1;stroke-width:2;stroke-linecap:round;stroke-linejoin:round;stroke-miterlimit:2;stroke-dasharray:none"
               id="path78"
               d="m 277.28072,70.709166 c 0.1313,1.915167 0.0806,3.836247 0.10157,5.754677 -0.0577,1.492604 -0.0717,3.030507 -0.48387,4.477377 -0.14703,0.674115 -0.47743,2.083601 0.86982,2.148752 1.12573,0.05444 2.34181,-2.361917 2.82238,-3.140084 0.83679,-1.42058 1.73241,-2.81897 2.7842,-4.092726 0.35214,-0.426451 0.9103,-0.998292 1.29932,-1.405856 0.80399,-0.656529 1.38307,-1.543532 2.13204,-2.251222 2.39367,1.866817 -1.39851,-0.48287 -1.53706,0.01041 -0.0594,0.211471 -0.0432,0.437256 -0.072,0.655023 -0.1315,0.996384 -0.28685,1.986419 -0.40037,2.985491 -0.18583,1.650771 -0.13856,3.312424 -0.24543,4.967798 0.004,0.379727 -0.0729,0.728225 -0.23,1.069198 -0.56937,1.345051 1.33282,2.150254 1.90219,0.805203 v 0 c 0.21886,-0.540959 0.4115,-1.092093 0.45073,-1.680663 0.18796,-1.629149 0.11106,-3.271493 0.33095,-4.899194 0.1086,-0.875322 0.15427,-1.222178 0.25339,-2.109813 0.0671,-0.60048 0.1863,-1.405846 0.10794,-2.019231 -0.0411,-0.321894 0.0218,-0.752623 -0.24084,-0.943274 -0.45499,-0.330324 -1.08943,-0.278653 -1.63415,-0.417979 -0.85589,0.687602 -1.51853,1.595769 -2.38313,2.2787 -1.7724,1.733868 -3.27818,3.712475 -4.48909,5.879348 -0.22308,0.392268 -0.45046,0.78212 -0.66925,1.176803 -0.16867,0.304295 -0.53023,0.574047 -0.49303,0.91997 0.0231,0.214908 0.45469,0.06186 0.61431,0.207604 0.31826,0.290574 0.47171,0.725444 0.75924,1.046455 0.14675,0.163832 -0.3136,-1.442322 0.13135,-0.646624 0.41002,-1.647685 0.65266,-3.33271 0.68677,-5.032654 0.002,-2.029034 6e-4,-4.075834 -0.33293,-6.082666 -0.23983,-1.439021 -2.27492,-1.09984 -2.03508,0.339181 z" /><path
               style="fill:#d8b0ff;fill-opacity:1;stroke-width:2;stroke-linecap:round;stroke-linejoin:round;stroke-miterlimit:2;stroke-dasharray:none"
               id="path79"
               d="m 280.53958,65.281148 c 1.17791,-0.08708 2.35401,-0.181389 3.53438,-0.231072 1.49832,-0.04269 1.43795,-2.161628 -0.0604,-2.11894 v 0 c -1.16224,0.01838 -2.32813,0.08171 -3.47401,0.287716 -1.45827,0 -1.45827,2.062296 0,2.062296 z" /><path
               style="fill:#d8b0ff;fill-opacity:1;stroke-width:2;stroke-linecap:round;stroke-linejoin:round;stroke-miterlimit:2;stroke-dasharray:none"
               id="path87"
               d="m 228.48263,89.801913 c 3.34898,0.205021 6.7066,0.144842 10.05989,0.155293 3.43255,0.03461 6.8647,-0.04171 10.29703,-0.05323 2.20331,0.03855 4.40116,0.188243 6.598,0.349704 0.70657,0.0395 0.37679,0.02515 0.98923,0.04611 1.47175,0.107014 1.6231,-1.974366 0.15134,-2.081381 v 0 c -0.56322,-0.06501 -0.25472,-0.02771 -0.92523,-0.114022 -2.26323,-0.287457 -4.53132,-0.454907 -6.81334,-0.508376 -3.43233,-0.01152 -6.86448,-0.08783 -10.29703,-0.05323 -3.35329,0.01045 -6.71091,-0.04973 -10.05989,0.155293 -1.48763,0 -1.48763,2.103826 0,2.103826 z" /><path
               style="fill:#d8b0ff;fill-opacity:1;stroke-width:2;stroke-linecap:round;stroke-linejoin:round;stroke-miterlimit:2;stroke-dasharray:none"
               id="path88"
               d="m 232.92964,89.326788 c -1.19145,1.878756 -1.75416,4.012826 -2.22522,6.160457 -0.23198,1.262663 -0.34174,2.542907 -0.37624,3.82507 -0.009,0.332315 -0.0346,0.665988 -0.007,0.997285 0.10322,1.24243 0.22289,1.38736 0.59953,2.56075 0.49572,1.11725 0.99642,2.40422 2.04949,3.13271 0.67818,0.46915 0.8639,0.43538 1.66138,0.63079 1.65512,0.20149 3.37032,0.40309 5.03838,0.20512 0.35036,-0.0416 0.69417,-0.12663 1.04126,-0.18995 1.436,-0.33127 2.8586,-0.78087 4.13546,-1.53273 0.84629,-0.49833 1.11216,-0.76522 1.89082,-1.39669 1.50071,-1.39214 2.85602,-2.98572 3.7367,-4.849442 0.15983,-0.338246 0.28644,-0.691217 0.42966,-1.036826 0.68685,-1.672606 1.1535,-3.412177 1.23841,-5.219717 0.004,-0.878534 0.0952,-1.7885 -0.64225,-2.446374 -0.20361,-0.181645 -0.4933,-0.233385 -0.73995,-0.350077 -1.40099,-0.423824 -2.00037,1.557469 -0.59938,1.981293 v 0 c -0.2648,-0.365002 0.0344,0.09282 -0.18923,-0.490653 -0.0314,-0.08185 0.0378,0.171718 0.0451,0.259072 0.0195,0.233872 0.0163,0.676588 0.017,0.914546 -0.13129,1.562861 -0.65077,3.05749 -1.18368,4.522673 -0.10625,0.272296 -0.19559,0.551807 -0.31874,0.816888 -0.74939,1.613118 -2.03181,2.908067 -3.23632,4.182437 -0.25142,0.22091 -0.49038,0.45685 -0.75424,0.66273 -1.2234,0.95459 -2.75712,1.42321 -4.2308,1.8237 -0.25059,0.0478 -0.49824,0.115 -0.75175,0.14339 -0.56436,0.0632 -1.3473,0.0384 -1.90476,0.0289 -0.87043,-0.0149 -1.74419,-0.0231 -2.60937,-0.13112 -0.0995,-0.009 -0.52254,-0.0233 -0.65584,-0.1011 -0.70917,-0.41407 -0.98683,-1.6151 -1.33608,-2.27261 -0.18664,-0.52914 -0.4731,-1.22573 -0.52537,-1.80056 -0.0277,-0.30464 0.017,-0.611635 0.0338,-0.917068 0.0645,-1.171152 0.19544,-2.337871 0.38264,-3.495704 0.0767,-0.410274 0.13865,-0.823604 0.23024,-1.230822 0.34871,-1.550437 0.95619,-3.01734 1.60757,-4.460763 0.65448,-1.308961 -1.19667,-2.234535 -1.85115,-0.925575 z" /><path
               style="fill:#d8b0ff;fill-opacity:1;stroke-width:2;stroke-linecap:round;stroke-linejoin:round;stroke-miterlimit:2;stroke-dasharray:none"
               id="path89"
               d="m 241.55497,89.39124 c -1.53679,1.185172 -2.6555,2.790499 -3.19021,4.662978 -0.10644,0.372733 -0.16251,0.758041 -0.24377,1.137062 -0.14339,0.84506 -0.12321,1.694728 -0.0753,2.545055 0.0502,1.506369 2.18056,1.435332 2.13033,-0.07104 v 0 c -0.003,-0.675511 6.8e-4,-1.35197 0.11601,-2.020533 0.0568,-0.282124 0.0938,-0.568997 0.17051,-0.846372 0.40085,-1.448987 1.26391,-2.650041 2.30677,-3.707008 1.20218,-0.858703 -0.0122,-2.558847 -1.21439,-1.700145 z" /></g></g></g><g
         id="g50"
         transform="translate(-62,-6.5)"><path
           style="fill:#7d776c;fill-opacity:1;stroke-width:2;stroke-linecap:round;stroke-linejoin:round;stroke-miterlimit:2;stroke-dasharray:none"
           id="path51"
           d="m 287.87825,188.14031 c -0.007,-2.518 -0.12134,-5.03466 -0.18705,-7.55174 -0.0692,-2.87238 -0.10383,-5.7454 -0.13527,-8.61839 -0.0232,-2.12119 -3.02304,-2.08836 -2.99982,0.0328 v 0 c 0.0316,2.88814 0.0665,5.77632 0.13611,8.66386 0.0651,2.49098 0.17826,4.98157 0.18603,7.47343 0,2.12132 3,2.12132 3,0 z" /><path
           style="fill:#7d776c;fill-opacity:1;stroke-width:2;stroke-linecap:round;stroke-linejoin:round;stroke-miterlimit:2;stroke-dasharray:none"
           id="path54"
           d="m 186.68972,166.56654 c 2.42729,0.18411 4.83989,0.54998 7.24667,0.90879 3.01011,0.44747 6.0183,0.9145 9.01409,1.45031 3.02845,0.58026 6.0669,1.10746 9.12671,1.49175 2.5066,0.2716 5.02306,0.43889 7.52925,0.71256 3.06876,0.32478 6.1338,0.67881 9.20553,0.97556 3.13055,0.3197 6.27277,0.51242 9.41505,0.67225 3.14957,0.10441 6.29765,0.24716 9.44684,0.36116 3.20399,0.13657 6.40725,0.30475 9.60218,0.58408 3.27539,0.30498 6.55313,0.57429 9.83332,0.82073 2.09131,0.13629 4.17891,0.3204 6.26298,0.54016 1.7914,0.18346 3.54335,0.60454 5.2917,1.01884 1.17483,0.24224 2.3074,0.63436 3.45609,0.97068 0.9027,0.24935 1.83348,0.3672 2.76564,0.4308 0.10546,0.005 0.21093,0.01 0.31639,0.0149 1.05951,0.0493 1.1293,-1.44903 0.0698,-1.49838 v 0 c -0.095,-0.004 -0.19005,-0.009 -0.28508,-0.0131 -0.82388,-0.055 -1.647,-0.15646 -2.44556,-0.37386 -1.17372,-0.34312 -2.33113,-0.74309 -3.53141,-0.99061 -1.81046,-0.42901 -3.62528,-0.86156 -5.48033,-1.051 -2.09901,-0.22116 -4.20154,-0.40694 -6.30783,-0.5442 -3.27415,-0.24598 -6.54584,-0.51481 -9.81519,-0.81926 -3.22036,-0.28098 -6.44895,-0.4517 -9.67843,-0.58879 -3.14189,-0.1137 -6.28266,-0.2563 -9.42493,-0.3602 -3.11956,-0.15855 -6.23908,-0.34979 -9.34699,-0.66724 -3.0656,-0.29613 -6.1245,-0.6496 -9.18715,-0.97367 -2.49824,-0.27209 -5.00636,-0.44123 -7.50516,-0.70973 -3.03406,-0.38015 -6.04646,-0.90543 -9.04942,-1.48001 -3.01012,-0.53795 -6.03247,-1.00802 -9.05695,-1.45733 -2.47955,-0.36948 -4.96584,-0.75079 -7.4678,-0.92518 -1.06066,0 -1.06066,1.5 0,1.5 z" /><path
           style="fill:#7d776c;fill-opacity:1;stroke-width:2;stroke-linecap:round;stroke-linejoin:round;stroke-miterlimit:2;stroke-dasharray:none"
           id="path55"
           d="m 186.62629,170.45563 c 2.22848,0.28894 4.4581,0.56717 6.69489,0.79092 3.96258,0.3962 7.92496,0.79369 11.88833,1.18197 3.17173,0.25432 6.34042,0.53916 9.50615,0.85936 3.10563,0.31083 6.20558,0.67511 9.30982,0.99857 2.53448,0.27366 5.07814,0.41488 7.62281,0.5469 2.70931,0.11679 5.41488,0.31117 8.11777,0.52861 4.06603,0.36265 8.12562,0.77119 12.20025,1.02829 2.88169,0.17114 5.76581,0.28336 8.64976,0.40459 2.37878,0.13547 4.75401,0.33525 7.12628,0.55627 1.92314,0.18703 3.83605,0.45672 5.74909,0.72468 1.86901,0.22587 3.73706,0.45109 5.59931,0.72717 1.10496,0.19503 2.21817,0.349 3.31108,0.60584 0.72516,0.21348 1.46021,0.39678 2.18077,0.62514 1.01212,0.31719 1.4607,-1.11416 0.44857,-1.43135 v 0 c -0.75735,-0.23525 -1.52545,-0.43641 -2.288,-0.65444 -1.13368,-0.2636 -2.28619,-0.43031 -3.43245,-0.62898 -1.86622,-0.27666 -3.73815,-0.50314 -5.6112,-0.72888 -1.93597,-0.27117 -3.87187,-0.54366 -5.81808,-0.73271 -2.39761,-0.2232 -4.79817,-0.42534 -7.2024,-0.56142 -2.87347,-0.12069 -5.74709,-0.23256 -8.61831,-0.40294 -4.06603,-0.25631 -8.11693,-0.66521 -12.17442,-1.02644 -2.71706,-0.21846 -5.4368,-0.41394 -8.16031,-0.53141 -2.51871,-0.13067 -5.03646,-0.2698 -7.54509,-0.54085 -3.10574,-0.32349 -6.20717,-0.68819 -9.31431,-0.99903 -3.16729,-0.32034 -6.33753,-0.60565 -9.51084,-0.85982 -3.9624,-0.38818 -7.9238,-0.78558 -11.88541,-1.18169 -2.27627,-0.22728 -1.56271,-0.14108 -3.66678,-0.40386 -0.94044,-0.11745 -1.87994,-0.27481 -2.82289,-0.37152 -0.11776,-0.0121 -0.23626,-0.0153 -0.35439,-0.023 -1.06066,0 -1.06066,1.5 0,1.5 z" /><path
           style="fill:#7d776c;fill-opacity:1;stroke-width:2;stroke-linecap:round;stroke-linejoin:round;stroke-miterlimit:2;stroke-dasharray:none"
           id="path56"
           d="m 186.43012,174.1845 c 2.29885,0.24952 4.6096,0.385 6.9164,0.54183 2.88152,0.16695 5.76541,0.27423 8.64712,0.43898 2.50125,0.15061 4.9988,0.35163 7.49438,0.57626 1.96604,0.17497 3.93135,0.36064 5.89391,0.57149 2.05225,0.23018 4.11361,0.35098 6.17227,0.50539 2.64371,0.18679 5.29157,0.30525 7.93756,0.45322 2.53433,0.13613 5.06799,0.288 7.59988,0.46403 2.54547,0.18773 5.08019,0.49458 7.61076,0.82271 2.46977,0.33378 4.93308,0.70943 7.411,0.97871 2.03095,0.2212 4.05412,0.50298 6.08647,0.71203 2.19878,0.20226 4.3983,0.39404 6.59466,0.62214 1.88275,0.16191 3.74995,0.45465 5.62836,0.6546 1.92878,0.20907 3.86522,0.34251 5.80133,0.4625 1.40941,0.13217 2.82454,0.18719 4.23539,0.29653 0.87532,0.0527 1.74278,0.17871 2.61358,0.27618 0.55848,0.031 1.1035,0.15965 1.65157,0.26186 1.04269,0.19439 1.3176,-1.2802 0.2749,-1.47459 v 0 c -0.58386,-0.1088 -1.16507,-0.24306 -1.75975,-0.27797 -0.88793,-0.0992 -1.77255,-0.22719 -2.66506,-0.28105 -1.41846,-0.10871 -2.84089,-0.16641 -4.25789,-0.29809 -1.91414,-0.11852 -3.82862,-0.2503 -5.73551,-0.45696 -1.87967,-0.19952 -3.74795,-0.49388 -5.63202,-0.65499 -2.19688,-0.22803 -4.39688,-0.42032 -6.59621,-0.6223 -2.02953,-0.2084 -4.04973,-0.49095 -6.0779,-0.71113 -2.46764,-0.26771 -4.92048,-0.6435 -7.38006,-0.97502 -2.5601,-0.33186 -5.12442,-0.64199 -7.69961,-0.83155 -2.53866,-0.17641 -5.07906,-0.32884 -7.62016,-0.46531 -2.63651,-0.14734 -5.27486,-0.26552 -7.90911,-0.45134 -2.04265,-0.15317 -4.08799,-0.27271 -6.12429,-0.50103 -1.97114,-0.2116 -3.94499,-0.39839 -5.91963,-0.57402 -2.51185,-0.226 -5.02565,-0.42836 -7.54321,-0.57986 -2.87634,-0.16443 -5.75482,-0.27188 -8.63099,-0.43796 -2.28547,-0.15535 -4.57488,-0.28925 -6.85249,-0.53612 -1.05417,-0.11713 -1.21982,1.3737 -0.16565,1.49083 z" /><path
           style="fill:#7d776c;fill-opacity:1;stroke-width:2;stroke-linecap:round;stroke-linejoin:round;stroke-miterlimit:2;stroke-dasharray:none"
           id="path57"
           d="m 186.13825,177.34992 c 2.0158,0.12206 4.02767,0.29728 6.04276,0.4313 2.6571,0.19037 5.31777,0.32217 7.97514,0.50864 2.51874,0.15174 5.03209,0.37834 7.54461,0.60873 2.20423,0.20642 4.4131,0.35065 6.62185,0.49674 2.01228,0.13459 4.02588,0.25608 6.03511,0.43174 2.21827,0.23465 4.44129,0.42001 6.66085,0.64144 2.04031,0.19622 4.08052,0.39436 6.1186,0.61267 1.97505,0.2015 3.94653,0.43784 5.91873,0.66562 1.77973,0.17479 3.55047,0.42606 5.32646,0.6334 1.63878,0.21866 3.28848,0.33276 4.93638,0.45627 1.79102,0.17718 3.5898,0.23566 5.38618,0.32807 2.20633,0.10642 4.40892,0.28585 6.6089,0.48192 2.17381,0.1767 4.34638,0.37105 6.52406,0.49425 1.48299,0.11427 2.96745,0.20117 4.45401,0.25 1.09102,0.016 2.1787,0.10985 3.26472,0.20814 1.16012,0.10348 2.29614,0.37689 3.42578,0.6505 0.85686,0.22668 1.72377,0.39352 2.59911,0.52752 1.19449,0.19512 2.4032,0.27518 3.60523,0.40997 1.05406,0.11818 1.22119,-1.37248 0.16714,-1.49066 v 0 c -1.18205,-0.13252 -2.37066,-0.21125 -3.54539,-0.40203 -0.83314,-0.12754 -1.65812,-0.28576 -2.47348,-0.50276 -1.20127,-0.29013 -2.4095,-0.57802 -3.64319,-0.68644 -1.11464,-0.10087 -2.23103,-0.19638 -3.35076,-0.21344 -1.47474,-0.0483 -2.94734,-0.13536 -4.41855,-0.24841 -2.16151,-0.12198 -4.31788,-0.31572 -6.47556,-0.49072 -2.21868,-0.19762 -4.43997,-0.37854 -6.66504,-0.48586 -1.78468,-0.0916 -3.57174,-0.14972 -5.35107,-0.32585 -1.62729,-0.12191 -3.25638,-0.23415 -4.87462,-0.45036 -1.7766,-0.20719 -3.54788,-0.45896 -5.32822,-0.63361 -1.97633,-0.22822 -3.95193,-0.46503 -5.93111,-0.66699 -2.0417,-0.21858 -4.0855,-0.41731 -6.12943,-0.61379 -2.22568,-0.22196 -4.45479,-0.40808 -6.67919,-0.64316 -2.01976,-0.17631 -4.04384,-0.2991 -6.06667,-0.43416 -2.19608,-0.14521 -4.3923,-0.28851 -6.58388,-0.49375 -2.52318,-0.23129 -5.04718,-0.45888 -7.5766,-0.61131 -2.6592,-0.18648 -5.32167,-0.31871 -7.9806,-0.50902 -2.04817,-0.1361 -4.09294,-0.31788 -6.14226,-0.4346 -1.06066,0 -1.06066,1.5 0,1.5 z" /></g><g
         id="g49"
         transform="translate(-62,-6.5)"><path
           style="fill:#000000;fill-opacity:1;stroke-width:2;stroke-linecap:round;stroke-linejoin:round;stroke-miterlimit:2;stroke-dasharray:none"
           id="path43"
           d="m 283.08134,167 c -3.49995,0.0965 -6.98213,-0.27151 -10.44829,-0.71014 -5.31222,-0.77431 -10.64338,-1.35602 -15.99604,-1.75982 -6.26245,-0.44552 -12.52358,-0.857 -18.7757,-1.43678 -5.32119,-0.44488 -10.64526,-0.8701 -15.97273,-1.23454 -4.34952,-0.23763 -8.70469,-0.27521 -13.04749,-0.63205 -3.73427,-0.31807 -7.46207,-0.70439 -11.14518,-1.40629 -2.72415,-0.54167 -5.46915,-0.97362 -8.21104,-1.41588 -0.9683,-0.34283 -2.13424,-0.0264 -3.08968,-0.38663 -0.1746,-0.0658 0.37204,0.0577 0.54507,0.12757 0.10124,0.0529 0.23655,0.25103 0.30372,0.15865 0.11343,-0.15601 -0.004,-0.38584 0.002,-0.57865 0.01,-0.36087 0.0161,-0.72219 0.0438,-1.08212 0.13298,-1.72263 0.37692,-3.44367 0.55703,-5.16188 0.37735,-3.95284 0.94427,-7.87961 1.58203,-11.79764 0.59771,-4.35342 0.99529,-8.73287 1.43298,-13.10493 0.35554,-4.02267 0.83594,-8.03255 1.19046,-12.05527 0.31225,-3.97261 0.62754,-7.94305 0.79871,-11.92473 0.18129,-3.820011 0.48508,-7.62453 0.91686,-11.42359 0.48602,-4.36786 1.01252,-8.726854 1.3447,-13.110109 0.22263,-4.334541 0.49938,-8.666477 0.68745,-13.002886 0.1405,-3.557159 0.18029,-7.117066 0.19962,-10.676596 0.0604,-3.018258 0.45524,-6.01158 0.83657,-9.001586 0.29069,-2.890801 0.59151,-5.777206 1.04093,-8.648192 0.29033,-2.145047 0.64273,-4.280767 0.87843,-6.432992 0.1582,-1.677679 0.20672,-3.3823 0.55869,-5.035059 0.0356,-0.07043 0.0386,-0.251095 0.10671,-0.211288 0.22975,0.134248 -0.42975,0.492224 -0.31633,0.732941 0.0717,0.152178 0.33648,-0.001 0.50466,0.0027 1.11294,0.02454 1.12662,0.03823 2.3616,0.11079 3.39234,0.328562 6.74918,0.925288 10.10878,1.485502 3.81694,0.602847 7.63891,1.172099 11.46084,1.742519 3.65569,0.5453 7.33057,0.896032 11.00843,1.242613 3.74003,0.249807 7.45679,0.728409 11.18564,1.095616 3.87529,0.360531 7.7492,0.695449 11.63764,0.874023 3.36576,0.128973 6.73425,0.152592 10.10208,0.162903 2.96865,0.0033 5.9373,-0.0013 8.90595,-0.0034 2.68569,-0.0017 5.37138,-0.0024 8.05708,-0.0027 2.03178,0.159116 4.06637,0.289518 6.09715,0.460441 2.84434,0.314886 5.71308,0.289923 8.56081,0.536338 0.16609,0.05336 0.33939,0.08804 0.49826,0.160096 0.0743,0.0337 0.21302,0.215037 0.13191,0.206194 -0.14869,-0.01621 -0.28089,-0.338333 -0.38482,-0.230773 -0.0823,0.08517 -0.009,0.236706 -0.0136,0.355059 -0.26812,1.532104 -0.65884,3.040214 -1.07592,4.53819 -0.66694,2.676623 -1.33509,5.352403 -1.90948,8.050647 -0.56965,2.947018 -0.93839,5.92326 -1.16873,8.914334 -0.12358,3.031612 -0.27246,6.062837 -0.53403,9.086167 -0.3095,3.321593 -0.46239,6.653652 -0.71409,9.979594 -0.18729,3.200421 -0.4987,6.390908 -0.69469,9.590746 -0.14161,3.553351 -0.29444,7.107524 -0.58095,10.652651 -0.32233,3.997959 -0.70676,7.991217 -1.08301,11.984647 -0.26378,3.41058 -0.50811,6.82218 -0.75854,10.23394 -0.11087,2.91661 -0.30224,5.81437 -0.64882,8.71199 -0.51231,3.57847 -0.9848,7.16176 -1.31391,10.76208 -0.29898,2.91847 -0.65942,5.832 -1.09062,8.73391 -0.35736,2.3588 -0.6758,4.72293 -1.03173,7.08178 -0.32118,2.39218 -0.67146,4.77821 -1.07543,7.15774 -0.26005,2.26476 -0.62279,4.51588 -0.89812,6.77873 -0.05,0.56932 -0.0801,1.1375 -0.28954,1.67178 -0.0604,0.15399 -0.1431,0.5935 -0.21772,0.44589 -0.0209,-0.0413 0.025,-0.089 0.0374,-0.13357 0.13199,-0.19133 0.0714,-0.11055 0.17721,-0.24561 -3.26783,1.34955 -1.35927,5.97096 1.90856,4.62141 v 0 c 1.1356,-0.54577 0.59136,-0.20982 1.62337,-1.02285 1.20461,-1.51403 1.57986,-2.80827 1.72428,-4.73482 0.26422,-2.18457 0.61979,-4.35699 0.86399,-6.54409 0.40927,-2.41077 0.76539,-4.82801 1.09045,-7.2516 0.35377,-2.36305 0.6768,-4.7303 1.03341,-7.09307 0.44125,-2.99474 0.81919,-5.99992 1.1238,-9.01171 0.32305,-3.55389 0.79662,-7.0899 1.29921,-10.62242 0.35536,-2.97328 0.55941,-5.94721 0.67077,-8.93978 0.24758,-3.37734 0.49037,-6.75446 0.74989,-10.13072 0.3784,-4.01628 0.76454,-8.032442 1.08901,-12.053266 0.28577,-3.57714 0.44901,-7.162619 0.58769,-10.748074 0.1936,-3.175749 0.50485,-6.342092 0.68975,-9.518439 0.25038,-3.309051 0.40312,-6.624101 0.70998,-9.928876 0.2594,-3.038903 0.42066,-6.084972 0.53779,-9.13236 0.21091,-2.770685 0.55264,-5.526864 1.07428,-8.257602 0.5502,-2.598358 1.19928,-5.172974 1.83616,-7.751137 0.55461,-2.001361 1.12996,-4.027932 1.25283,-6.109777 -0.0276,-0.375421 -0.006,-0.757817 -0.0829,-1.126262 -0.54674,-2.611053 -2.24152,-3.65854 -4.72484,-4.113223 -2.85047,-0.233508 -5.71732,-0.235552 -8.56415,-0.536619 -2.16918,-0.179096 -4.34131,-0.333875 -6.51296,-0.477706 -2.68663,3.41e-4 -5.37326,0.001 -8.05989,0.0027 -2.96241,0.002 -5.92482,0.0067 -8.88723,0.0034 -3.29668,-0.01004 -6.59402,-0.03263 -9.88872,-0.157696 -3.80145,-0.173412 -7.58829,-0.503858 -11.37691,-0.855248 -3.73579,-0.366877 -7.45941,-0.847262 -11.2063,-1.097605 -3.58793,-0.337533 -7.173,-0.677518 -10.73925,-1.209882 -3.79387,-0.565929 -7.58766,-1.131447 -11.37662,-1.729219 -3.53846,-0.589603 -7.07447,-1.218725 -10.64958,-1.54563 -2.41526,-0.131198 -4.84441,-0.392821 -6.82319,1.33203 -0.60203,0.524773 -0.78612,1.344349 -1.01935,2.052863 -0.34212,1.803815 -0.49527,3.636017 -0.62472,5.465991 -0.2244,2.075119 -0.57126,4.133231 -0.84775,6.201547 -0.4559,2.917631 -0.76963,5.850123 -1.06081,8.788222 -0.40692,3.19068 -0.82019,6.385988 -0.87666,9.607031 -0.0189,3.496412 -0.0575,6.993201 -0.19501,10.487304 -0.18531,4.282849 -0.46001,8.561176 -0.67791,12.842265 -0.32599,4.320759 -0.84964,8.616937 -1.32696,12.922593 -0.44485,3.915497 -0.7572,7.837035 -0.94425,11.773995 -0.16697,3.90687 -0.47889,7.80246 -0.78403,11.70045 -0.35188,4.00294 -0.83222,7.99281 -1.18486,11.99573 -0.4273,4.27013 -0.81707,8.54719 -1.39297,12.80006 -0.65218,4.01166 -1.23211,8.0324 -1.61968,12.07941 -0.13179,1.25837 -0.27909,2.51508 -0.41075,3.77347 -0.17066,1.63118 -0.46483,3.54562 0.0392,5.15616 0.18876,0.6032 0.54808,1.1391 0.82213,1.70866 0.37518,0.30894 0.70821,0.67777 1.12556,0.92684 1.27292,0.75968 2.8501,0.50849 4.23926,0.81525 2.69661,0.43444 5.39623,0.85908 8.07525,1.39207 3.85794,0.72828 7.75883,1.15036 11.67012,1.47727 4.36508,0.35379 8.74113,0.4097 13.1132,0.63698 5.28728,0.36095 10.57108,0.78423 15.85216,1.22483 6.28079,0.58188 12.57054,0.99709 18.8617,1.444 5.26927,0.39609 10.51665,0.97245 15.74597,1.73466 3.67387,0.4617 7.36469,0.84694 11.07382,0.74942 3.53553,0 3.53553,-5 0,-5 z" /><path
           style="fill:#000000;fill-opacity:1;stroke-width:2;stroke-linecap:round;stroke-linejoin:round;stroke-miterlimit:2;stroke-dasharray:none"
           id="path46"
           d="m 183.73186,181.02343 c 0.90986,0.20354 1.13949,0.27449 2.1333,0.39942 3.57743,0.44971 7.16049,0.84987 10.73601,1.32437 6.23604,0.76597 12.47912,1.47463 18.72099,2.19232 5.26018,0.45411 10.50256,1.05284 15.74729,1.65353 5.26263,0.53468 10.55035,0.74068 15.82361,1.14292 5.52032,0.33838 10.98585,1.2026 16.44237,2.06634 4.05384,0.64887 8.14316,1.0384 12.23361,1.36675 2.68193,0.0624 5.29613,0.58175 7.91613,1.09761 1.00253,0.20435 2.01338,0.35928 3.02586,0.50355 3.50056,0.49601 4.20203,-4.45454 0.70146,-4.95055 v 0 c -0.92419,-0.1301 -1.84653,-0.27224 -2.76142,-0.45882 -2.80639,-0.55254 -5.61192,-1.09539 -8.48243,-1.1758 -3.96262,-0.31732 -7.92431,-0.69313 -11.85147,-1.32125 -5.58983,-0.88484 -11.18941,-1.76488 -16.84433,-2.11338 -5.21028,-0.39637 -10.43436,-0.60411 -15.63464,-1.12492 -5.24396,-0.60018 -10.48546,-1.20031 -15.74491,-1.65326 -6.21297,-0.71435 -12.42713,-1.41985 -18.63439,-2.18159 -4.04883,-0.53724 -8.11715,-0.97862 -12.15344,-1.57486 -3.3995,-0.97129 -4.7731,3.83633 -1.3736,4.80762 z" /><path
           style="fill:#000000;fill-opacity:1;stroke-width:2;stroke-linecap:round;stroke-linejoin:round;stroke-miterlimit:2;stroke-dasharray:none"
           id="path47"
           d="m 290.52343,189.26814 c 0.77291,-2.98178 1.6619,-5.93106 2.44932,-8.90869 0.90696,-3.30114 1.64821,-6.64304 2.45131,-9.96984 0.50651,-2.26283 0.93751,-4.5411 1.41326,-6.81055 0.34117,-1.76635 0.60379,-3.54748 0.95094,-5.31272 0.40918,-1.92673 0.63828,-3.88489 0.91764,-5.83304 0.37768,-2.6338 0.66436,-5.28074 1.06154,-7.91166 0.34633,-2.44075 0.74971,-4.87188 1.0244,-7.32239 0.2714,-1.54135 0.50027,-3.08508 0.61745,-4.64607 0.0511,-1.61732 0.29626,-3.21925 0.56587,-4.81195 0.32901,-1.79351 0.42945,-3.61508 0.49183,-5.43386 -0.0351,-1.55618 0.10421,-3.09466 0.25352,-4.64066 0.21229,-1.86425 0.18505,-3.74266 0.3178,-5.61137 0.20174,-2.25114 0.33312,-4.50703 0.4073,-6.76571 0.0511,-1.75442 0.056,-3.5097 0.0582,-5.26473 1.4e-4,-1.58173 -0.002,-3.163462 -0.003,-4.745194 0.0774,-1.280256 0.3468,-2.529383 0.58939,-3.784628 0.30354,-1.381275 0.50894,-2.7806 0.77462,-4.168702 0.2871,-1.305195 0.42444,-2.632856 0.67918,-3.943259 0.33942,-1.62264 0.58161,-3.258545 0.82463,-4.897775 0.34683,-2.195069 0.48569,-4.4138 0.57662,-6.631808 -0.0574,-1.366444 0.17249,-2.70232 0.34246,-4.050229 0.20991,-1.220272 0.0765,-2.475188 0.25005,-3.695049 0.24435,-1.417596 0.55033,-2.822187 0.7476,-4.24934 0.24318,-1.163207 0.0627,-2.381316 0.25809,-3.543709 0.14087,-0.743125 0.22958,-1.494163 0.31004,-2.245709 0.37226,-3.515882 -4.59995,-4.042326 -4.9722,-0.526444 v 0 c -0.0756,0.723566 -0.17023,1.444461 -0.30029,2.160552 -0.1237,1.156463 -0.0977,2.321556 -0.24937,3.476629 -0.19834,1.463508 -0.5408,2.898048 -0.76114,4.356912 -0.12441,1.212922 -0.10019,2.433461 -0.24411,3.64555 -0.18399,1.485416 -0.42597,2.963101 -0.37698,4.467139 -0.0827,2.041589 -0.20638,4.084239 -0.52706,6.104584 -0.23064,1.565449 -0.45732,3.128003 -0.78687,4.676651 -0.25586,1.321844 -0.40188,2.658947 -0.68542,3.976019 -0.25389,1.380944 -0.46771,2.767618 -0.76913,4.139863 -0.30254,1.567627 -0.62472,3.133911 -0.68011,4.735811 9.6e-4,1.578658 0.003,3.157317 0.003,4.735976 -0.002,1.70263 -0.006,3.40551 -0.0555,5.10757 -0.0715,2.19932 -0.20222,4.39567 -0.39831,6.58763 -0.12093,1.82322 -0.11204,3.65335 -0.30632,5.47225 -0.15913,1.64866 -0.30358,3.29306 -0.27379,4.9518 -0.0534,1.59593 -0.13368,3.1952 -0.42458,4.76881 -0.29575,1.74742 -0.55827,3.50588 -0.62252,5.27958 -0.10746,1.49892 -0.35812,2.97546 -0.6,4.45767 -0.26589,2.38825 -0.66531,4.75656 -0.99994,7.13548 -0.39452,2.64254 -0.69148,5.29903 -1.06634,7.94441 -0.26725,1.86569 -0.48406,3.74138 -0.87599,5.58647 -0.33683,1.74318 -0.60928,3.49829 -0.93687,5.24309 -0.46518,2.22039 -0.8886,4.44894 -1.38014,6.6636 -0.79363,3.29229 -1.52795,6.599 -2.425,9.86573 -0.77675,2.94574 -1.66058,5.86175 -2.42267,8.81171 -0.97129,3.3995 3.83633,4.7731 4.80762,1.3736 z" /><path
           style="fill:#000000;fill-opacity:1;stroke-width:2;stroke-linecap:round;stroke-linejoin:round;stroke-miterlimit:2;stroke-dasharray:none"
           id="path48"
           d="m 185.42512,177.36921 c -0.18349,-2.32145 -0.39208,-4.64006 -0.60136,-6.95964 -0.20145,-2.34913 -0.27067,-4.70655 -0.31078,-7.06308 -0.003,-0.29813 -0.018,-0.59635 -0.01,-0.89439 0.006,-0.20768 0.0165,-0.41626 0.0505,-0.6212 0.014,-0.0841 0.12023,-0.31905 0.0923,-0.23851 -0.34129,0.98418 -0.99228,0.99379 -1.85983,0.74464 0.63555,1.79095 0.84597,3.67308 1.02645,5.55366 0.1612,1.85498 0.18725,3.71771 0.19829,5.5785 0.0514,1.00011 -0.0306,2.28919 0.58,3.16387 0.17344,0.24844 0.40593,0.44992 0.6089,0.67488 0.71489,-0.1196 1.50154,-0.0245 2.14469,-0.35878 0.6614,-0.34375 0.62383,-3.84082 0.638,-4.49372 0.031,-2.04402 0.0248,-4.08837 0.023,-6.13256 -0.001,-1.15811 -6.9e-4,-0.59498 -0.002,-1.68938 -0.003,-2.12132 -3.00276,-2.1174 -2.99999,0.004 v 0 c 0.001,1.09379 7.1e-4,0.53107 0.002,1.68817 0.002,2.02175 0.008,4.04367 -0.0223,6.06525 -0.0176,0.82332 -0.0298,1.64583 -0.093,2.46721 -0.009,0.12175 -0.13732,0.29957 -0.0341,0.36472 0.0937,0.0591 0.1506,-0.16244 0.2259,-0.24367 0.63451,-0.0273 1.26902,-0.0545 1.90352,-0.0818 0.10718,0.154 0.21009,0.31107 0.32154,0.46201 0.0863,0.11684 -0.14054,-0.25797 -0.17499,-0.39908 -0.11999,-0.49152 -0.13703,-1.00687 -0.12122,-1.50898 -0.0118,-1.95114 -0.0411,-3.90426 -0.21216,-5.84915 -0.23023,-2.36692 -0.48832,-4.77463 -1.52851,-6.94723 -0.40212,-0.356 -0.68598,-0.9352 -1.20637,-1.06801 -2.4906,-0.63564 -2.62528,2.27861 -2.55021,3.81083 0.0416,2.42944 0.11399,4.85977 0.32248,7.28152 0.21405,2.37126 0.42157,4.742 0.61937,7.11426 0.3,2.1 3.26985,1.67574 2.96985,-0.42426 z" /></g></g></g></svg>
