<?xml version="1.0" encoding="UTF-8" standalone="no"?>
<!-- Created with Inkscape (http://www.inkscape.org/) -->

<svg
   width="63.687149"
   height="85.995438"
   viewBox="0 0 63.687149 85.995438"
   version="1.1"
   id="svg1"
   xml:space="preserve"
   xmlns="http://www.w3.org/2000/svg"
   xmlns:svg="http://www.w3.org/2000/svg"><defs
     id="defs1" /><g
     id="g10"
     style="display:inline"
     transform="translate(-151.34265,-57.311962)"><g
       id="g158"
       style="display:inline"
       transform="matrix(0.5,0,0,0.5,91.593113,50.15484)"><g
         id="g149"
         transform="translate(-62,-6.5)"><g
           id="g133"
           style="display:inline"><path
             style="fill:#d8d2c3;fill-opacity:1;stroke-width:0.353553;stroke-linecap:round;stroke-linejoin:round;stroke-miterlimit:2;stroke-dasharray:none"
             d="m 187.33427,161.29009 c -1.49206,0.29306 -2.04863,2.07211 -1.33826,3.30835 0.17659,4.03009 0.11152,8.01258 -0.1785,12.06052 0.18449,1.58362 1.88035,1.95574 3.20682,2.02014 15.14524,1.9656 30.29018,3.61026 45.47107,5.10635 8.48407,0.64826 17.00551,0.99224 25.41523,2.37569 6.33541,1.06167 12.73255,1.64727 19.12379,2.24311 1.99002,0.14043 3.92976,0.87648 5.92133,0.82381 1.73821,-0.34011 1.90685,-2.34504 1.79953,-3.78033 -0.0909,-4.30005 -0.0737,-8.62134 -0.40945,-12.90362 -0.49692,-1.93569 -2.83892,-2.53037 -4.62247,-2.45023 -7.69576,-0.1596 -15.23094,-1.76454 -22.91959,-2.27814 -11.66154,-0.85879 -23.31223,-1.86175 -34.97474,-2.70593 -9.3422,-0.58541 -18.74984,-0.64071 -27.94236,-2.49827 -2.82097,-0.40838 -5.62044,-1.12659 -8.4593,-1.32418 z"
             id="path132" /><path
             style="fill:#7d776c;fill-opacity:1;stroke-width:0.353553;stroke-linecap:round;stroke-linejoin:round;stroke-miterlimit:2;stroke-dasharray:none"
             d="m 301.91699,39.726764 c -1.55279,0.981957 -1.37784,3.076739 -1.92917,4.64834 -1.95937,7.895877 -1.83102,16.077693 -2.5572,24.130808 -0.60318,8.252958 -1.16095,16.509022 -1.59711,24.772136 -0.82776,9.863422 -1.68192,19.724812 -2.32757,29.602472 -0.53233,5.66356 -1.36614,11.29533 -1.97264,16.95189 -1.19577,9.22525 -2.53233,18.43336 -3.89708,27.63429 -0.1748,1.22898 -0.5695,2.45323 -1.54006,3.29268 -0.9035,1.52364 -0.33165,3.39456 -0.46249,5.08364 0.18343,1.73173 -0.23429,3.73168 0.84747,5.21878 1.14655,1.13345 3.21119,0.39135 3.44127,-1.17736 2.86025,-10.91186 5.05532,-21.99665 6.45394,-33.19195 0.93625,-6.39728 1.75173,-12.81055 2.5199,-19.2289 0.61807,-4.23548 0.47572,-8.47068 0.91695,-12.71706 0.62271,-7.1437 0.45371,-14.32239 0.83707,-21.4757 1.12395,-6.990102 2.84473,-13.915158 3.19849,-21.011629 0.27186,-4.37876 0.62384,-8.63625 1.35413,-12.958907 0.17369,-1.744697 0.47167,-3.578136 -0.13362,-5.256689 0.18766,-4.25309 -0.12224,-8.525925 -0.36698,-12.763304 -0.16139,-1.319831 -1.58512,-2.032803 -2.7853,-1.553537 z"
             id="path133" /></g><g
           id="g148"><g
             id="g134"
             style="display:inline"><path
               style="display:inline;fill:#ffe3f2;fill-opacity:1;stroke-width:1;stroke-linecap:round;stroke-linejoin:round;stroke-miterlimit:2;stroke-dasharray:none"
               d="m 200.69043,24.248047 c -3.98408,0.04173 -3.59056,5.068664 -4.05132,7.818235 -3.09309,20.096108 -2.31982,40.481092 -4.73686,60.583648 -1.47822,20.0803 -3.1977,40.09471 -5.98038,60.06491 -0.17204,2.43289 -1.41012,6.74005 2.24805,7.11231 17.13456,3.99623 34.78989,3.508 52.18555,5.26757 13.18708,0.86002 26.3387,2.50838 39.51953,3.55762 2.39442,0.10971 6.84661,0.6169 6.71756,-2.9773 2.87011,-19.91812 5.74327,-39.8895 6.86659,-59.9751 1.93828,-19.648835 2.18637,-39.412183 4.68708,-58.964136 0.69727,-4.389401 2.64715,-8.666437 2.73463,-13.091273 -1.76275,-2.908738 -5.96046,-1.772325 -8.81152,-2.323242 C 267.8449,30.542444 243.64593,30.61602 219.70191,26.72641 213.4367,25.896113 207.05982,24.532703 200.69043,24.248047 Z"
               id="path134" /></g><g
             id="g223"><g
               id="g245"><path
                 id="path218"
                 style="fill:#002fac;fill-opacity:1;stroke-width:5;stroke-linecap:round;stroke-linejoin:round;stroke-miterlimit:2"
                 d="m 210.95508,37.875 c -1.57717,-0.0026 -1.59052,1.573371 -1.6875,2.529297 -0.26019,2.844588 -1.09386,5.591015 -1.58594,8.398437 -0.43532,2.945775 -0.76128,5.927823 -0.52344,8.908204 0,1.898552 2.6836,1.898551 2.6836,0 0.16142,-0.546147 0.25607,-0.832878 0.38086,-1.449219 0.45981,-2.270973 0.79249,-4.573879 1.19531,-6.855469 0.1849,-1.129644 0.38892,-2.255578 0.5625,-3.386719 0.35779,0.785934 0.74332,1.559375 1.14258,2.326172 0.54919,1.054753 0.88948,1.67134 1.65234,2.5625 0.90514,0.639964 0.94757,0.890859 2.39844,0.435547 0.31088,-0.09756 1.47876,-1.286871 1.70703,-1.515625 1.6139,-1.617365 0.25723,-0.316423 2.03125,-1.980469 0.29557,-0.287168 0.60342,-0.564724 0.91797,-0.83789 -0.19746,1.236336 -0.3185,2.483786 -0.36719,3.738281 -0.0522,1.344102 0.033,2.684822 0.0742,4.027344 0.0649,0.794573 -0.0257,1.59254 -0.15039,2.376953 -0.44733,1.954628 2.31829,2.587441 2.76562,0.632812 0.25274,-0.92823 0.37702,-1.87597 0.52344,-2.826172 0.47687,-3.292572 0.95713,-6.583877 1.31055,-9.892578 0.0854,-0.552067 0.15333,-1.107098 0.25586,-1.65625 0.0534,-0.286207 0.12809,-0.568635 0.19726,-0.851562 0.0703,-0.103257 0.13892,-0.207715 0.20508,-0.314453 0.16964,-0.273671 0.27708,-0.580628 0.41602,-0.871094 0.0378,-0.222336 0.2617,-0.498165 0.11328,-0.667969 -0.5409,-0.618804 -1.19129,-1.239224 -1.98047,-1.46875 -0.33161,-0.09645 -0.5695,0.400217 -0.79688,0.660156 -0.0716,0.08184 -0.14231,0.167841 -0.20898,0.25586 -1.90359,1.794387 -4.07586,3.29086 -5.82031,5.257812 -1.02365,1.173046 -1.07043,1.154145 -1.79492,2.210938 -0.67759,-1.92548 -1.38824,-3.837297 -2.31641,-5.66211 -0.52268,-1.032813 -1.80064,-4.081508 -3.30078,-4.083984 z m 26.76562,3.085938 c -2.25978,-0.0202 -3.44765,2.917751 -4.23632,4.726562 -1.11942,2.452132 -1.33071,2.818514 -2.32422,5.419922 -0.36742,0.962033 -0.69508,1.93769 -1.04493,2.90625 -0.63263,1.751454 -1.33717,3.490608 -1.51367,5.365234 -0.6861,1.829592 1.9018,2.800295 2.58789,0.970703 0.4504,-0.871059 1.03782,-1.66073 1.52149,-2.511718 0.11301,-0.198844 0.34367,-0.632833 0.62304,-1.166016 0.90864,0.185227 1.85118,0.09448 2.76368,0.238281 0.41395,0.06524 0.81544,0.190745 1.22461,0.28125 2.44662,0.541175 1.46557,0.316645 1.13085,0.240235 0.14832,0.03371 0.49133,0.111136 1.15626,0.261718 0.0717,0.01574 0.14317,0.03114 0.21484,0.04687 0.12498,0.660008 0.25785,1.317497 0.4043,1.972657 0.59945,-0.116854 -0.10286,1.4393 0.44336,1.433593 -0.2417,1.875443 2.41064,2.217241 2.65234,0.341797 0.16893,-0.68147 0.26927,-1.362102 0.28125,-2.068359 0.0658,-1.351946 0.11977,-1.988169 0.0644,-3.439453 -0.14187,-3.719444 -0.7876,-7.415653 -2.05273,-10.921875 -0.52841,-1.116371 -1.22666,-3.146336 -2.52735,-3.75586 -0.49625,-0.232552 -0.95066,-0.338056 -1.36914,-0.341796 z m 17.29883,1.628906 c -1.07582,-0.01505 -2.2403,-0.0079 -3.31836,0.101562 -0.32531,0.03302 -0.64589,0.102563 -0.96875,0.154297 -1.98575,0 -1.98575,2.808594 0,2.808594 1.65489,0.304743 3.32091,0.508539 4.99219,0.650391 -0.0429,0.14482 -0.0664,0.306059 -0.0664,0.484374 -0.2222,1.06659 -0.36224,2.149271 -0.54492,3.222657 -0.12209,0.717416 -0.28507,1.427301 -0.38281,2.148437 -0.23008,1.697446 -0.26835,3.067966 -0.35938,4.775391 -0.0696,1.699407 0.0232,3.391655 0.19922,5.080078 -0.0419,2.317356 3.2354,2.377899 3.27735,0.06055 0.23735,-1.631562 0.41625,-3.270161 0.52539,-4.916016 0.0662,-1.125975 0.22444,-3.574961 0.23828,-4.697265 0.009,-0.732281 -0.0352,-1.463041 -0.0449,-2.195313 -0.0153,-1.158759 0.0576,-2.341586 -0.22461,-3.478516 0,-0.109499 -0.009,-0.211725 -0.0254,-0.308593 0.73462,0.03845 1.46941,0.06841 2.20507,0.09375 1.27637,0.02489 2.55179,-0.0046 3.82032,-0.148438 1.98428,0.107621 2.13662,-2.69902 0.15234,-2.80664 -1.22828,-0.294362 -2.46942,-0.520758 -3.72266,-0.681641 -1.91592,-0.193971 -3.82514,-0.32071 -5.75195,-0.347656 z m 24.7793,0.785156 c -2.18539,-0.05196 -4.36892,-0.05826 -6.55078,0.105469 -0.29655,0.02333 -1.08848,0.06036 -1.34571,0.193359 -0.96276,0.497791 -1.20471,1.129765 -1.23242,2.119141 -0.31877,2.07868 -0.98911,4.099071 -1.26758,6.1875 -0.34519,1.898653 -0.69888,3.789955 -0.96875,5.701172 -0.14602,1.034094 -0.26611,1.818433 -0.3125,2.845703 -0.009,0.198583 0.0118,0.397003 0.0176,0.595703 -0.53493,1.248165 0.54544,2.151367 1.5,1.962891 0.19278,0.152147 0.4442,0.263791 0.75781,0.308593 2.44882,0.829722 5.08845,0.822084 7.64649,0.8125 1.3726,-0.01573 2.7416,0.01396 4.11328,-0.04687 2.08915,0.147009 2.29813,-2.806116 0.20898,-2.953125 -1.41008,-0.254784 -2.8319,-0.392964 -4.26757,-0.365234 -2.2893,-0.08468 -4.5822,-0.19196 -6.87305,-0.148438 0.64538,-1.88032 1.07861,-3.831988 1.45312,-5.789062 0.0779,0.01291 0.15543,0.02569 0.23243,0.04297 0.33999,0.07629 0.67125,0.187583 1.01172,0.261718 1.66739,0.363066 3.34593,0.524741 5.04882,0.552735 0.24967,-0.0089 0.49838,-0.01645 0.74805,-0.02539 2.08339,0.178056 2.33534,-2.76921 0.25195,-2.947266 -0.22572,-0.04957 -0.45007,-0.09887 -0.67578,-0.148437 -1.99786,-0.39214 -4.07397,-0.770632 -6.11523,-0.595703 0.25997,-1.89021 0.40528,-3.788353 0.31836,-5.69336 2.08247,0.307962 4.18446,0.316536 6.28515,0.285157 0.95171,0.07665 1.89118,-0.239117 2.83594,-0.242188 0.21134,-6.87e-4 0.41917,0.056 0.62891,0.08203 1.92925,0.296654 2.34917,-2.431861 0.41992,-2.728515 -1.27437,-0.223494 -2.58173,-0.271699 -3.86914,-0.373047 z m -41.85938,2.328125 c 0.0464,0.20315 0.093,0.40528 0.13282,0.609375 0.13246,0.753292 0.28293,1.503392 0.39648,2.259766 0.135,0.899333 0.22672,1.805963 0.34961,2.707031 0.12928,0.947952 0.26107,1.895979 0.40234,2.84375 -1.41072,-0.383107 -2.88534,-0.516408 -4.3457,-0.441406 0.19792,-0.390545 0.34361,-0.682437 0.39648,-0.796875 1.01111,-2.188355 1.38376,-3.366 2.17969,-5.583985 0.17717,-0.574963 0.33239,-1.092922 0.48828,-1.597656 z M 209.97852,62.84375 c -0.38353,0.0024 -0.77105,0.06051 -1.13672,0.142578 -0.32635,0.07325 -0.47273,0.472237 -0.70899,0.708984 -0.16878,0.28031 -0.35931,0.549255 -0.50586,0.841797 -1.07332,2.142512 -1.33838,4.569527 -1.8164,6.884766 -0.19779,1.239603 -0.36971,2.17222 -0.47461,3.433594 -0.15161,1.823013 -0.0523,3.661974 0.27539,5.460937 0,1.963945 2.77734,1.963945 2.77734,0 0.37003,-1.726613 0.26685,-3.504485 0.4668,-5.25 0.11956,-1.043727 0.3102,-2.076947 0.45703,-3.117187 0.15529,-1.33787 0.38215,-2.66406 0.6875,-3.970703 0.3678,1.180708 0.86394,2.348718 1.27734,3.457031 0.54313,1.247973 1.49328,4.889675 3.49414,4.699219 0.54471,-0.05185 0.92726,-0.582038 1.39063,-0.873047 1.4634,-2.0182 2.81028,-4.11635 4.32617,-6.097657 0.007,-0.0095 0.0142,-0.01786 0.0215,-0.02734 -0.0367,0.436938 -0.0694,0.847622 -0.0977,1.18164 -0.22847,2.703771 -0.12672,1.343577 -0.29883,4.033203 -0.22488,2.211172 -0.44855,4.43656 -0.29687,6.660157 0.0141,0.485981 0.0784,0.967891 0.10351,1.453125 0.0875,1.866826 2.72811,1.743779 2.64063,-0.123047 -0.0164,-0.384488 -0.0402,-0.771678 0.0176,-1.154297 0.52077,-2.165901 1.13337,-4.315576 1.3125,-6.548828 0.18161,-2.072619 0.38337,-4.146327 0.3086,-6.230469 -0.0126,-0.351585 -0.18252,-2.771619 -0.38281,-3.244141 -0.25254,-0.595822 -0.70684,-1.085043 -1.06055,-1.626953 -0.55506,0.05326 -1.12463,0.02668 -1.66602,0.160157 -0.22603,0.05573 -0.95983,0.839407 -1.05078,0.935546 -0.74885,0.791573 -1.43699,1.637737 -2.16797,2.445313 -1.01032,1.222432 -1.98505,2.503083 -2.77539,3.884766 -0.071,-0.275623 -0.14579,-0.548719 -0.22461,-0.822266 -0.70211,-2.015061 -1.38665,-4.048844 -2.63867,-5.808594 -0.33424,-0.469776 -0.60666,-1.086237 -1.14258,-1.298828 -0.34836,-0.13819 -0.7278,-0.191835 -1.11132,-0.189453 z m 24.9707,2.396484 c -0.80949,0.0091 -1.74698,1.165406 -2.14258,1.683594 -0.21777,0.322913 -0.45655,0.633206 -0.6543,0.96875 -1.40422,2.38266 -2.03217,5.13735 -3.04296,7.6875 -0.42107,1.262621 -0.95437,2.784541 -1.27735,4.074219 -0.37757,1.507613 -0.60329,3.061293 -0.72265,4.609375 -0.70012,1.750318 1.77447,2.740552 2.4746,0.990234 0.10245,-0.207447 0.21741,-0.409577 0.30664,-0.623047 0.31319,-0.749256 0.56986,-1.521554 0.85157,-2.283203 0.24033,-0.649785 0.48091,-1.298475 0.7207,-1.947265 1.25469,0.162317 2.48268,0.485954 3.73438,0.666015 0.86793,0.09539 0.42991,0.03084 1.30859,0.199219 0.0909,0.01362 0.17922,0.01997 0.26367,0.02148 0.0767,1.945523 0.0409,1.003127 0.11133,2.931641 -0.0268,2.424935 3.40283,2.463999 3.42969,0.03906 0.11663,-2.057492 0.0705,-0.989936 0.125,-3.203124 -0.059,-4.052561 -0.40749,-8.142693 -1.91602,-11.947266 -0.23648,-0.539415 -0.9798,-2.434917 -1.5,-2.873047 -0.54707,-0.46076 -1.20773,-0.8437 -1.91015,-0.978516 -0.0526,-0.0101 -0.1062,-0.01623 -0.16016,-0.01563 z m 16.48242,2.8125 c -1.22331,0.02996 -2.4423,0.123937 -3.64258,0.355469 -1.89856,0 -1.89856,2.683594 0,2.683594 1.59804,0.308259 3.22914,0.37244 4.85938,0.367187 -0.48733,1.852589 -0.7551,3.758799 -0.94532,5.664063 -0.13836,2.507606 -0.53915,4.992974 -1.03124,7.453125 -0.0434,0.23854 -0.0875,0.476304 -0.13086,0.714844 -0.59811,2.025039 2.26712,2.870742 2.86523,0.845703 0.1003,-0.24809 0.20049,-0.496052 0.30078,-0.744141 0.84386,-2.558203 1.24023,-5.226986 1.38867,-7.914062 0.15017,-1.355327 0.27033,-2.711943 0.40821,-4.06836 0.0212,-0.209206 0.18464,-1.585028 0.2207,-2 0.90064,-0.0081 1.80207,0.01642 2.70312,0.0078 2.20215,0.143197 2.40333,-2.970085 0.20118,-3.113281 -1.17119,-0.157324 -2.34493,-0.262484 -3.5293,-0.226563 -1.21698,-0.0225 -2.44466,-0.05535 -3.66797,-0.02539 z m 17.58984,0.396485 c -0.48382,0.01801 -0.96932,0.293283 -1.24609,0.916015 -1.80268,2.808096 -2.44129,6.091596 -2.98437,9.328125 -0.32404,2.134087 -0.35085,4.294645 0.0137,6.421875 1.26602,3.580842 4.0384,-0.805288 4.95508,-2.007812 1.6754,-1.958191 3.06562,-4.152411 4.78711,-6.072266 0.31053,-0.346303 0.64494,-0.67201 0.96679,-1.007812 0.57762,-0.583559 1.19115,-1.12763 1.80274,-1.673828 -0.0733,0.432666 -0.15303,0.864255 -0.22657,1.296875 -0.44529,3.087734 -0.7472,6.195947 -0.61523,9.316406 -0.11538,0.736257 -0.0586,0.372758 -0.16602,1.087891 -0.42401,1.992394 2.3924,2.592003 2.81641,0.599609 0.24015,-0.907448 0.13092,-0.420883 0.31445,-1.460938 0.65275,-3.066912 1.38706,-6.133702 1.41407,-9.291015 -0.0324,-1.186509 -0.0362,-2.305813 -0.14649,-3.480469 -0.05,-0.532054 -0.21364,-2.127558 -0.67773,-2.453125 -1.07043,-0.750927 -1.47066,-0.438532 -2.19141,-0.0625 -0.29094,0.206072 -0.57108,0.427448 -0.86523,0.628906 -0.54902,0.376012 -1.21813,0.752689 -1.73828,1.150391 -0.76894,0.587927 -1.50336,1.310864 -2.20704,1.970703 -0.5465,0.575078 -1.57883,1.650778 -2.09961,2.248047 -0.87349,1.001805 -1.69577,2.047392 -2.47656,3.123047 0.30044,-1.624203 0.5987,-3.250726 0.97461,-4.859375 0.19974,-0.854758 0.50184,-1.92386 0.71484,-2.792969 0.0708,-0.289033 0.1312,-0.580937 0.19727,-0.871094 0.52838,-1.188852 -0.39274,-2.08907 -1.31641,-2.054687 z m -34.00586,0.992187 c 0.0719,0.276952 0.14538,0.553007 0.2168,0.830078 0.72644,2.63938 1.11246,5.340904 1.3418,8.058594 -0.35754,-0.03514 -0.22002,-0.01613 -0.80664,-0.140625 -1.07279,-0.276632 -2.17258,-0.570985 -3.28125,-0.625 0.0884,-0.254044 0.1755,-0.508606 0.26172,-0.763672 0.20295,-0.636221 0.40873,-1.271251 0.60937,-1.908203 0.18791,-0.596529 0.37991,-1.191078 0.55664,-1.791016 0.0614,-0.208564 0.69488,-2.53882 0.8125,-2.892578 0.1144,-0.344084 0.19968,-0.569345 0.28906,-0.767578 z m -5.22265,21.302735 c -0.5941,0.01661 -1.18098,0.385305 -1.38086,1.201171 -0.42568,1.019171 -0.21974,0.461494 -0.59766,1.683594 -0.37069,1.36916 -0.44849,1.555973 -0.7207,3.033203 -0.37839,2.05346 -0.5696,4.139351 -1.02734,6.179691 -0.37871,2.59071 -0.66842,5.22111 -0.17383,7.82031 0,1.92035 2.71484,1.92035 2.71484,0 0.28007,-2.08512 0.50949,-4.17623 0.77344,-6.26367 0.0776,-0.0166 0.15487,-0.0418 0.23047,-0.0742 0.35942,0.4482 0.67135,0.73847 1.16992,1.23437 0.74881,0.74481 1.53071,1.44717 2.31641,2.15235 0.50057,0.44833 0.98154,0.91329 1.45898,1.38476 0.24952,0.24641 0.49271,0.45403 0.69727,0.73828 0.14364,0.22884 0.29561,0.45284 0.42968,0.6875 0.90999,1.66215 3.26156,0.37503 2.35157,-1.2871 -0.15525,-0.28969 -0.32381,-0.56687 -0.48438,-0.85352 -0.63596,-1.04982 -1.44805,-1.99228 -2.27148,-2.89844 -1.0845,-1.14934 -2.23219,-2.24058 -3.45313,-3.24414 0.11911,-0.11928 0.2379,-0.23679 0.36133,-0.35156 1.01971,-0.94819 2.13327,-1.7915 3.22852,-2.648439 1.30081,-1.02518 2.72928,-1.939252 3.88476,-3.138672 0.053,-0.055 0.50849,-0.596274 0.65625,-0.771484 0.30155,-0.35669 0.15614,-0.181908 0.43359,-0.517578 1.22525,-1.39783 -0.75132,-3.132205 -1.97656,-1.734375 -0.0982,0.0912 -0.0397,0.04782 -0.18554,0.125 -1.69687,1.07042 -3.49768,1.984303 -5.02149,3.314453 -1.04105,0.873745 -2.10182,1.753909 -3.03906,2.738281 0.0162,-0.09405 0.0353,-0.187767 0.0547,-0.28125 0.1107,-0.535 0.28288,-1.05522 0.40429,-1.58789 0.35322,-1.54958 0.32866,-1.601781 0.52539,-3.087891 0.0917,-1.26412 0.0641,-0.71318 0.0996,-1.65625 0.29214,-1.192416 -0.59068,-1.920756 -1.45898,-1.896484 z m 23.24609,1.43164 c -0.71771,0.02161 -1.28122,0.456366 -1.83984,1.0625 -0.67215,0.86625 -1.2362,1.757582 -1.79492,2.701172 -0.0729,0.1232 -1.48601,2.500163 -1.49024,2.507813 -0.29823,0.54009 -0.56791,1.094698 -0.85156,1.642574 -0.25586,0.63352 -0.53673,1.25734 -0.76758,1.90039 -0.90327,2.51619 -1.62194,5.17928 -1.57617,7.87305 0.006,0.37027 0.0745,0.73697 0.11133,1.10547 0,2.00754 2.83984,2.00754 2.83984,0 0.25582,-1.25159 0.58134,-2.48384 0.94727,-3.70508 1.60701,0.40079 3.22863,0.72988 4.87695,0.90821 0.23822,0.01 0.47662,0.0195 0.71484,0.0293 0.0298,0.003 0.0588,0.006 0.0879,0.008 0.002,0.028 0.006,0.056 0.008,0.084 0.0742,1.02514 0.063,2.05339 0.0879,3.08008 2.9e-4,0.0101 -9.4e-4,0.0223 -0.002,0.0351 -0.7012,0.99069 0.30574,2.56262 1.72657,1.90821 0.34189,-0.32272 0.73639,-0.59792 1.02539,-0.96875 0.14401,-0.18477 0.1796,-0.43302 0.24414,-0.65821 0.32453,-1.13236 0.38021,-2.32789 0.50976,-3.49023 0.0371,-1.57082 0.0819,-2.21291 -0.0195,-3.83203 -0.17744,-2.83309 -0.69157,-5.640504 -1.59961,-8.332034 -0.36472,-0.95926 -1.08411,-3.124295 -2.15039,-3.609375 -0.40336,-0.183503 -0.76166,-0.259823 -1.08789,-0.25 z m -0.13281,4.265625 c 0.0308,0.179296 0.0623,0.357929 0.0937,0.53711 0.51956,2.716719 0.81267,5.464504 1.05078,8.216794 -0.0365,-0.007 -0.0729,-0.016 -0.10937,-0.0234 -1.45101,-0.28385 -2.91987,-0.66703 -4.40235,-0.76172 0.3408,-0.99898 0.69384,-1.99544 1.04297,-2.99024 0.65207,-1.714432 1.46483,-3.358898 2.32422,-4.978514 z" /></g><path
               id="path245"
               style="fill:#f1a3a3;fill-opacity:1;stroke-width:3.42397;stroke-linecap:round;stroke-linejoin:round;stroke-miterlimit:2"
               d="m 219.1033,124.97838 c -1.19197,0.11335 -2.88597,0.2047 -3.9349,0.89211 -0.16094,0.10547 -0.2975,0.24361 -0.44671,0.36512 -0.0844,0.11434 -0.17931,0.22077 -0.25278,0.3424 -0.31538,0.52204 -0.39443,1.16614 -0.58048,1.73606 -0.271,0.96318 -0.62344,1.90223 -0.84529,2.87962 -0.42175,1.51489 -0.65384,3.06449 -0.85733,4.62236 -0.0761,0.57125 -0.16936,1.22134 -0.214,1.7949 -0.0197,0.25351 -0.01,0.50916 -0.0334,0.76237 -0.0648,0.70039 -0.22554,1.39379 -0.34641,2.08514 -0.36606,1.77135 -0.8046,3.52794 -1.19036,5.29512 -0.11374,0.4943 -0.25724,1.15006 -0.4026,1.63976 -0.32069,1.08037 -0.88842,2.09018 -0.86267,3.25142 0.0955,0.29325 0.13738,0.60996 0.28622,0.88008 0.34484,0.62582 1.3124,0.90173 1.94203,1.09272 1.17519,0.30124 2.3848,0.41336 3.58715,0.5564 0.59017,0.0456 1.08699,0.0931 1.68389,0.0936 0.30159,2.5e-4 0.60258,-0.0292 0.90414,-0.0321 0.64532,-0.006 1.29105,0.0153 1.93669,-0.003 0.77004,0.0339 1.54504,0.0755 2.30182,0.2354 0.20966,0.0443 0.4149,0.11046 0.62193,0.16585 0.27339,0.0732 0.54661,0.14706 0.81987,0.22068 1.59888,0.41927 3.20752,0.79499 4.84438,1.03657 0.44364,0.0654 0.89124,0.10967 1.33616,0.16584 0.43462,0.0548 0.86823,0.11117 1.30271,0.16718 0.24625,0.0239 2.55148,0.24863 2.74185,0.26349 2.47366,0.19322 4.95391,0.32263 7.43242,0.43335 0.66662,0.014 3.00717,0.0572 3.72356,0.0936 2.53061,0.12843 5.03754,0.51147 7.55414,0.78377 0.74903,0.0633 1.49648,0.14729 2.24697,0.18993 2.35264,0.13366 4.7535,0.0844 7.05526,-0.45609 -0.009,1.02504 1.50545,1.37734 1.86713,0.21934 0.16302,-0.47631 0.29989,-0.9635 0.36914,-1.4632 0.0752,-0.5209 0.13021,-1.04579 0.20731,-1.5662 0.10512,-0.7095 0.0927,-0.50088 0.25412,-1.24655 0.0516,-0.23814 0.0963,-0.47803 0.14446,-0.71688 0.40217,-1.61862 0.78234,-3.24011 1.08737,-4.8805 0.13686,-0.7724 0.29386,-1.5407 0.40259,-2.31786 0.19675,-1.40639 0.10391,-0.80971 0.0856,-0.76638 v 0.002 h -0.002 v -0.002 -0.002 c -0.003,-0.025 0.0179,-0.22652 0.10433,-0.90012 0.0357,-0.2787 0.0856,-0.55556 0.1284,-0.83325 0.0337,-0.20496 0.24024,-1.46694 0.28086,-1.66919 0.23083,-1.14947 0.60285,-2.26667 0.79314,-3.42531 0.55015,-1.47315 1.15422,-2.93267 1.53944,-4.46051 0.0797,-0.55385 0.28278,-1.43575 0.0562,-1.99821 -0.49693,-1.23343 -1.60347,-1.35139 -2.73116,-1.50201 -1.44783,-0.15684 -2.89474,-0.29483 -4.35218,-0.31296 -1.48463,-0.0237 -2.96884,0.0557 -4.4525,-0.004 -1.40623,-0.0911 -2.81287,-0.1627 -4.22244,-0.14578 -1.59112,-0.007 -3.18283,-0.007 -4.77216,-0.0923 -1.61718,-0.1363 -3.22917,-0.3446 -4.84973,-0.44138 -0.44824,-0.0268 -0.89754,-0.0225 -1.34552,-0.0535 -0.39403,-0.0272 -0.78539,-0.0802 -1.17832,-0.12038 -0.94392,-0.0624 -1.88302,-0.14278 -2.82076,-0.27017 -0.55777,-0.0758 -1.10937,-0.18915 -1.66785,-0.25947 -0.29354,-0.037 -0.5896,-0.0571 -0.88408,-0.0856 -1.88105,-0.16238 -3.7619,-0.34244 -5.57331,-0.9135 -0.47694,-0.11263 -0.95166,-0.23701 -1.43112,-0.33839 -3.08322,-0.65197 -6.24172,-0.97842 -9.39183,-0.9884 z m -1.86178,2.3727 c 1.00239,-0.0116 0.72971,-0.003 1.88451,0.10165 0.46948,0.0755 0.9399,0.14458 1.40838,0.22604 1.60524,0.2791 2.12725,0.42063 3.79311,0.67008 1.71898,0.2574 3.44808,0.40723 5.17875,0.55639 1.9381,0.18107 3.86758,0.43436 5.80871,0.58314 1.27279,0.0976 2.53758,0.28054 3.79713,0.48953 -0.0372,0.36668 -0.0896,0.73129 -0.18992,1.09004 -0.19129,1.00897 -0.2263,2.04159 -0.30094,3.06419 -0.0387,0.56474 -0.092,1.13142 -0.11101,1.69728 -0.0167,0.49595 0.009,0.57891 -0.016,1.06998 -0.009,0.16401 -0.0277,0.32722 -0.0415,0.49086 -0.10582,0.60133 -0.24258,1.19537 -0.35845,1.79491 -0.0455,0.23535 -0.088,0.47065 -0.13241,0.7062 -0.0383,0.23475 -0.0707,0.47118 -0.11502,0.70486 -0.0475,0.24982 -0.107,0.49638 -0.16051,0.74498 -0.35362,1.77476 -0.68061,3.56566 -1.25188,5.28575 -0.35658,1.25112 -0.67859,2.50652 -0.97636,3.77304 -0.16526,0.70288 -0.33047,1.38325 -0.44271,2.09585 -0.0117,0.0738 -0.0211,0.14773 -0.0295,0.22203 -0.95255,-5.7e-4 -1.90436,0.0313 -2.85688,0.0213 -0.41902,-0.004 -0.8371,-0.0295 -1.25589,-0.0442 -2.40209,-0.25859 -4.77058,-0.76329 -7.15156,-1.16628 -1.3877,-0.17393 -2.77597,-0.34777 -4.17563,-0.38119 -0.64074,-0.016 -1.28419,-0.002 -1.9233,-0.0602 -0.29934,-0.0277 -0.59507,-0.0824 -0.89479,-0.10566 -0.63891,-0.0494 -1.07131,-0.0316 -1.70262,-0.0254 -1.10668,0.0252 -2.19619,-0.17025 -3.29022,-0.2996 -0.28102,0.006 -0.43155,-0.0473 -0.65805,-0.18056 -0.0786,-0.0462 -0.1659,-0.0798 -0.23272,-0.14177 l -0.002,-0.002 v -0.002 h -0.002 v -8.6e-4 -0.002 -0.002 -0.002 h 0.002 v -0.002 h 0.002 l 0.002,-0.002 0.002,-0.002 c 0.0132,-0.006 0.0446,-0.008 0.0588,-0.004 0.0648,0.0164 0.12304,0.0516 0.18457,0.0776 0.0565,-0.0695 0.12768,-0.1283 0.16986,-0.20731 0.0954,-0.17869 0.1571,-0.37397 0.23941,-0.55907 0.33912,-0.76256 0.31848,-0.62829 0.61123,-1.48327 0.2799,-0.81741 0.31064,-1.01401 0.52296,-1.85242 0.46771,-1.79483 0.86936,-3.60877 1.15158,-5.44225 0.19203,-1.58246 0.44705,-3.15725 0.65537,-4.73737 0.20128,-1.47388 0.33733,-2.95299 0.65403,-4.40836 0.16811,-0.96703 0.44575,-1.90754 0.71288,-2.85019 0.15321,-0.47891 0.15363,-1.0512 0.37851,-1.4913 -0.004,0.0248 -0.0296,0.0634 -0.0241,0.0829 3.1e-4,6.8e-4 6.9e-4,0.003 0.002,0.004 h 0.002 c 5.2e-4,5.9e-4 0.002,0.003 0.003,0.004 6.9e-4,4.5e-4 0.002,6.8e-4 0.003,0.002 0.0535,0.023 0.11635,-0.0146 0.17388,-0.0241 0.12171,-0.0201 0.24093,-0.0543 0.36379,-0.0655 0.17701,-0.0162 0.35594,-0.014 0.53366,-0.016 z m 23.74708,2.93846 c 0.25271,0.0374 0.50543,0.0752 0.75836,0.11101 1.18822,0.16807 1.64115,0.24037 2.83815,0.32902 1.19061,0.0882 2.37848,0.0862 3.5711,0.0789 1.62737,-0.004 3.25361,-0.0714 4.88048,-0.107 1.37087,-0.0724 2.73638,0.0975 4.10609,0.13374 1.51935,0.0436 3.03679,0.0935 4.55682,0.0588 0.60657,-0.0269 1.21742,-0.091 1.82434,-0.0268 0.48006,0.0508 0.88003,0.15799 1.35888,0.24209 0.28715,0.0504 0.57605,0.0909 0.86402,0.13642 0.371,0.0761 0.74812,0.0631 1.12349,0.0829 -0.14919,0.11078 -0.26335,0.53109 -0.31163,0.64468 -0.45447,1.434 -0.93201,2.85949 -1.39233,4.292 -0.4151,1.17677 -0.79401,2.38252 -1.03254,3.60987 -0.12522,0.64434 -0.18798,1.21149 -0.27017,1.85911 -0.19257,1.60249 -0.39809,3.20158 -0.62862,4.79891 -0.33601,1.57919 -0.7682,3.13558 -1.12082,4.71062 -0.19753,1.04524 -0.30404,2.10364 -0.38519,3.16316 -3.10819,-0.15141 -6.2059,-0.44833 -9.30491,-0.72357 -1.97317,-0.1894 -3.95086,-0.34294 -5.93175,-0.42399 -0.58355,-0.0239 -1.16724,-0.0251 -1.75077,-0.0495 -1.3336,-0.0558 -2.38959,-0.14191 -3.72758,-0.23807 -0.66353,-0.0443 -1.32759,-0.0958 -1.99152,-0.13375 -0.789,-0.0452 -1.30882,-0.0714 -1.80561,-0.0883 0.737,-1.7592 1.19859,-3.62863 1.65313,-5.47701 0.46731,-1.81378 0.64668,-3.67969 0.98039,-5.51847 0.25506,-1.35275 0.50161,-2.71011 0.64868,-4.07934 0.089,-1.13809 0.11401,-2.27967 0.17253,-3.41996 0.008,-0.70749 0.1248,-1.40762 0.16585,-2.11323 0.0159,-0.27222 0.0139,-0.5449 0.0281,-0.8172 0.0586,-0.27615 0.0244,-0.56863 0.0722,-0.8453 0.0111,-0.0644 0.0321,-0.12714 0.0508,-0.18992 z m 26.16528,1.06464 c 0.0469,0.0115 0.11258,0.0355 0.12438,0.0415 -0.002,-3e-5 -0.004,-1e-5 -0.009,-0.002 -0.0387,-0.01 -0.077,-0.0254 -0.11502,-0.0401 z m -41.16921,0.0602 c -0.52285,0.0147 -1.03459,0.39879 -1.01381,1.13821 -0.0123,0.19694 -0.0251,0.39423 -0.0374,0.59117 -0.10119,1.99494 -0.20616,3.98989 -0.39589,5.97857 -0.62844,-0.003 -1.25695,0.003 -1.88586,0.0134 -0.79673,-0.032 -1.59524,-0.0641 -2.39277,-0.0669 -0.52905,-0.002 -0.62018,0.025 -1.09406,-0.004 -0.12114,-0.008 -0.24168,-0.0242 -0.36246,-0.0361 -1.26168,-0.25233 -1.61879,1.53189 -0.35711,1.78421 1.306,0.54542 2.77197,0.54654 4.16493,0.54436 0.2885,0.007 0.57679,0.0204 0.86536,0.0213 0.66666,0.003 0.73763,-0.009 0.82791,-0.016 -0.0157,0.13447 -0.0317,0.26988 -0.0508,0.40392 -0.0744,0.52254 -0.19098,1.03808 -0.27285,1.55951 -0.25418,1.61873 -0.50561,3.26928 -0.42933,4.91125 -0.16508,1.32063 1.70204,1.55468 1.86713,0.23406 0.86306,-2.25126 1.28106,-4.63215 1.63039,-7.00977 0.17197,0.012 0.34447,0.0247 0.51628,0.0374 0.93728,0.1405 1.88336,0.17194 2.82878,0.20463 0.50771,0.11118 1.02519,0.14762 1.54346,0.15381 1.33396,0.072 1.43561,-1.81392 0.10165,-1.88586 -0.51441,-0.0531 -1.02905,-0.0995 -1.54479,-0.13776 -0.26698,-0.0221 -0.49026,-0.0905 -0.749,-0.16451 -0.65252,-0.18663 -1.31366,-0.34378 -1.99152,-0.40659 -0.15197,-0.0141 -0.30405,-0.0272 -0.45609,-0.0387 0.1272,-2.04347 0.0279,-4.09308 -0.1645,-6.13105 -0.0235,-0.19979 -0.0474,-0.39941 -0.0709,-0.5992 -0.0207,-0.73942 -0.55382,-1.09403 -1.07668,-1.07935 z m 18.42389,9.73558 c -0.35481,-0.008 -0.71026,0.002 -1.06598,0.0334 -1.31503,0 -1.31503,1.85911 0,1.85911 0.1197,0.0319 0.23695,0.0722 0.35846,0.0963 1.17971,0.23377 2.3838,0.37245 3.57241,0.55239 1.71681,0.28676 3.45555,0.2724 5.18946,0.29023 1.0513,-0.005 2.10395,0.0117 3.1538,0.0695 0.46706,0.0141 0.24443,0.0102 0.66741,0.0147 1.33755,0.12789 1.51811,-1.76332 0.18056,-1.89121 -0.4117,-0.0761 -0.19126,-0.0364 -0.66473,-0.11636 -0.36412,-0.046 -0.66615,-0.0917 -1.03656,-0.11101 -0.72537,-0.0379 -1.45775,0.0163 -2.17609,-0.12706 -0.5001,-0.0518 -1.05774,-0.1151 -1.55684,-0.14445 -1.14715,-0.0674 -2.30275,-0.0238 -3.44269,-0.1926 -1.05455,-0.14102 -2.11477,-0.31089 -3.17921,-0.33304 z" /></g></g></g><g
         id="g153"
         transform="translate(-62,-6.5)"><path
           style="fill:#7d776c;fill-opacity:1;stroke-width:2;stroke-linecap:round;stroke-linejoin:round;stroke-miterlimit:2;stroke-dasharray:none"
           id="path149"
           d="m 287.87825,188.14031 c -0.007,-2.518 -0.12134,-5.03466 -0.18705,-7.55174 -0.0692,-2.87238 -0.10383,-5.7454 -0.13527,-8.61839 -0.0232,-2.12119 -3.02304,-2.08836 -2.99982,0.0328 v 0 c 0.0316,2.88814 0.0665,5.77632 0.13611,8.66386 0.0651,2.49098 0.17826,4.98157 0.18603,7.47343 0,2.12132 3,2.12132 3,0 z" /><path
           style="fill:#7d776c;fill-opacity:1;stroke-width:2;stroke-linecap:round;stroke-linejoin:round;stroke-miterlimit:2;stroke-dasharray:none"
           id="path150"
           d="m 186.68972,166.56654 c 2.42729,0.18411 4.83989,0.54998 7.24667,0.90879 3.01011,0.44747 6.0183,0.9145 9.01409,1.45031 3.02845,0.58026 6.0669,1.10746 9.12671,1.49175 2.5066,0.2716 5.02306,0.43889 7.52925,0.71256 3.06876,0.32478 6.1338,0.67881 9.20553,0.97556 3.13055,0.3197 6.27277,0.51242 9.41505,0.67225 3.14957,0.10441 6.29765,0.24716 9.44684,0.36116 3.20399,0.13657 6.40725,0.30475 9.60218,0.58408 3.27539,0.30498 6.55313,0.57429 9.83332,0.82073 2.09131,0.13629 4.17891,0.3204 6.26298,0.54016 1.7914,0.18346 3.54335,0.60454 5.2917,1.01884 1.17483,0.24224 2.3074,0.63436 3.45609,0.97068 0.9027,0.24935 1.83348,0.3672 2.76564,0.4308 0.10546,0.005 0.21093,0.01 0.31639,0.0149 1.05951,0.0493 1.1293,-1.44903 0.0698,-1.49838 v 0 c -0.095,-0.004 -0.19005,-0.009 -0.28508,-0.0131 -0.82388,-0.055 -1.647,-0.15646 -2.44556,-0.37386 -1.17372,-0.34312 -2.33113,-0.74309 -3.53141,-0.99061 -1.81046,-0.42901 -3.62528,-0.86156 -5.48033,-1.051 -2.09901,-0.22116 -4.20154,-0.40694 -6.30783,-0.5442 -3.27415,-0.24598 -6.54584,-0.51481 -9.81519,-0.81926 -3.22036,-0.28098 -6.44895,-0.4517 -9.67843,-0.58879 -3.14189,-0.1137 -6.28266,-0.2563 -9.42493,-0.3602 -3.11956,-0.15855 -6.23908,-0.34979 -9.34699,-0.66724 -3.0656,-0.29613 -6.1245,-0.6496 -9.18715,-0.97367 -2.49824,-0.27209 -5.00636,-0.44123 -7.50516,-0.70973 -3.03406,-0.38015 -6.04646,-0.90543 -9.04942,-1.48001 -3.01012,-0.53795 -6.03247,-1.00802 -9.05695,-1.45733 -2.47955,-0.36948 -4.96584,-0.75079 -7.4678,-0.92518 -1.06066,0 -1.06066,1.5 0,1.5 z" /><path
           style="fill:#7d776c;fill-opacity:1;stroke-width:2;stroke-linecap:round;stroke-linejoin:round;stroke-miterlimit:2;stroke-dasharray:none"
           id="path151"
           d="m 186.62629,170.45563 c 2.22848,0.28894 4.4581,0.56717 6.69489,0.79092 3.96258,0.3962 7.92496,0.79369 11.88833,1.18197 3.17173,0.25432 6.34042,0.53916 9.50615,0.85936 3.10563,0.31083 6.20558,0.67511 9.30982,0.99857 2.53448,0.27366 5.07814,0.41488 7.62281,0.5469 2.70931,0.11679 5.41488,0.31117 8.11777,0.52861 4.06603,0.36265 8.12562,0.77119 12.20025,1.02829 2.88169,0.17114 5.76581,0.28336 8.64976,0.40459 2.37878,0.13547 4.75401,0.33525 7.12628,0.55627 1.92314,0.18703 3.83605,0.45672 5.74909,0.72468 1.86901,0.22587 3.73706,0.45109 5.59931,0.72717 1.10496,0.19503 2.21817,0.349 3.31108,0.60584 0.72516,0.21348 1.46021,0.39678 2.18077,0.62514 1.01212,0.31719 1.4607,-1.11416 0.44857,-1.43135 v 0 c -0.75735,-0.23525 -1.52545,-0.43641 -2.288,-0.65444 -1.13368,-0.2636 -2.28619,-0.43031 -3.43245,-0.62898 -1.86622,-0.27666 -3.73815,-0.50314 -5.6112,-0.72888 -1.93597,-0.27117 -3.87187,-0.54366 -5.81808,-0.73271 -2.39761,-0.2232 -4.79817,-0.42534 -7.2024,-0.56142 -2.87347,-0.12069 -5.74709,-0.23256 -8.61831,-0.40294 -4.06603,-0.25631 -8.11693,-0.66521 -12.17442,-1.02644 -2.71706,-0.21846 -5.4368,-0.41394 -8.16031,-0.53141 -2.51871,-0.13067 -5.03646,-0.2698 -7.54509,-0.54085 -3.10574,-0.32349 -6.20717,-0.68819 -9.31431,-0.99903 -3.16729,-0.32034 -6.33753,-0.60565 -9.51084,-0.85982 -3.9624,-0.38818 -7.9238,-0.78558 -11.88541,-1.18169 -2.27627,-0.22728 -1.56271,-0.14108 -3.66678,-0.40386 -0.94044,-0.11745 -1.87994,-0.27481 -2.82289,-0.37152 -0.11776,-0.0121 -0.23626,-0.0153 -0.35439,-0.023 -1.06066,0 -1.06066,1.5 0,1.5 z" /><path
           style="fill:#7d776c;fill-opacity:1;stroke-width:2;stroke-linecap:round;stroke-linejoin:round;stroke-miterlimit:2;stroke-dasharray:none"
           id="path152"
           d="m 186.43012,174.1845 c 2.29885,0.24952 4.6096,0.385 6.9164,0.54183 2.88152,0.16695 5.76541,0.27423 8.64712,0.43898 2.50125,0.15061 4.9988,0.35163 7.49438,0.57626 1.96604,0.17497 3.93135,0.36064 5.89391,0.57149 2.05225,0.23018 4.11361,0.35098 6.17227,0.50539 2.64371,0.18679 5.29157,0.30525 7.93756,0.45322 2.53433,0.13613 5.06799,0.288 7.59988,0.46403 2.54547,0.18773 5.08019,0.49458 7.61076,0.82271 2.46977,0.33378 4.93308,0.70943 7.411,0.97871 2.03095,0.2212 4.05412,0.50298 6.08647,0.71203 2.19878,0.20226 4.3983,0.39404 6.59466,0.62214 1.88275,0.16191 3.74995,0.45465 5.62836,0.6546 1.92878,0.20907 3.86522,0.34251 5.80133,0.4625 1.40941,0.13217 2.82454,0.18719 4.23539,0.29653 0.87532,0.0527 1.74278,0.17871 2.61358,0.27618 0.55848,0.031 1.1035,0.15965 1.65157,0.26186 1.04269,0.19439 1.3176,-1.2802 0.2749,-1.47459 v 0 c -0.58386,-0.1088 -1.16507,-0.24306 -1.75975,-0.27797 -0.88793,-0.0992 -1.77255,-0.22719 -2.66506,-0.28105 -1.41846,-0.10871 -2.84089,-0.16641 -4.25789,-0.29809 -1.91414,-0.11852 -3.82862,-0.2503 -5.73551,-0.45696 -1.87967,-0.19952 -3.74795,-0.49388 -5.63202,-0.65499 -2.19688,-0.22803 -4.39688,-0.42032 -6.59621,-0.6223 -2.02953,-0.2084 -4.04973,-0.49095 -6.0779,-0.71113 -2.46764,-0.26771 -4.92048,-0.6435 -7.38006,-0.97502 -2.5601,-0.33186 -5.12442,-0.64199 -7.69961,-0.83155 -2.53866,-0.17641 -5.07906,-0.32884 -7.62016,-0.46531 -2.63651,-0.14734 -5.27486,-0.26552 -7.90911,-0.45134 -2.04265,-0.15317 -4.08799,-0.27271 -6.12429,-0.50103 -1.97114,-0.2116 -3.94499,-0.39839 -5.91963,-0.57402 -2.51185,-0.226 -5.02565,-0.42836 -7.54321,-0.57986 -2.87634,-0.16443 -5.75482,-0.27188 -8.63099,-0.43796 -2.28547,-0.15535 -4.57488,-0.28925 -6.85249,-0.53612 -1.05417,-0.11713 -1.21982,1.3737 -0.16565,1.49083 z" /><path
           style="fill:#7d776c;fill-opacity:1;stroke-width:2;stroke-linecap:round;stroke-linejoin:round;stroke-miterlimit:2;stroke-dasharray:none"
           id="path153"
           d="m 186.13825,177.34992 c 2.0158,0.12206 4.02767,0.29728 6.04276,0.4313 2.6571,0.19037 5.31777,0.32217 7.97514,0.50864 2.51874,0.15174 5.03209,0.37834 7.54461,0.60873 2.20423,0.20642 4.4131,0.35065 6.62185,0.49674 2.01228,0.13459 4.02588,0.25608 6.03511,0.43174 2.21827,0.23465 4.44129,0.42001 6.66085,0.64144 2.04031,0.19622 4.08052,0.39436 6.1186,0.61267 1.97505,0.2015 3.94653,0.43784 5.91873,0.66562 1.77973,0.17479 3.55047,0.42606 5.32646,0.6334 1.63878,0.21866 3.28848,0.33276 4.93638,0.45627 1.79102,0.17718 3.5898,0.23566 5.38618,0.32807 2.20633,0.10642 4.40892,0.28585 6.6089,0.48192 2.17381,0.1767 4.34638,0.37105 6.52406,0.49425 1.48299,0.11427 2.96745,0.20117 4.45401,0.25 1.09102,0.016 2.1787,0.10985 3.26472,0.20814 1.16012,0.10348 2.29614,0.37689 3.42578,0.6505 0.85686,0.22668 1.72377,0.39352 2.59911,0.52752 1.19449,0.19512 2.4032,0.27518 3.60523,0.40997 1.05406,0.11818 1.22119,-1.37248 0.16714,-1.49066 v 0 c -1.18205,-0.13252 -2.37066,-0.21125 -3.54539,-0.40203 -0.83314,-0.12754 -1.65812,-0.28576 -2.47348,-0.50276 -1.20127,-0.29013 -2.4095,-0.57802 -3.64319,-0.68644 -1.11464,-0.10087 -2.23103,-0.19638 -3.35076,-0.21344 -1.47474,-0.0483 -2.94734,-0.13536 -4.41855,-0.24841 -2.16151,-0.12198 -4.31788,-0.31572 -6.47556,-0.49072 -2.21868,-0.19762 -4.43997,-0.37854 -6.66504,-0.48586 -1.78468,-0.0916 -3.57174,-0.14972 -5.35107,-0.32585 -1.62729,-0.12191 -3.25638,-0.23415 -4.87462,-0.45036 -1.7766,-0.20719 -3.54788,-0.45896 -5.32822,-0.63361 -1.97633,-0.22822 -3.95193,-0.46503 -5.93111,-0.66699 -2.0417,-0.21858 -4.0855,-0.41731 -6.12943,-0.61379 -2.22568,-0.22196 -4.45479,-0.40808 -6.67919,-0.64316 -2.01976,-0.17631 -4.04384,-0.2991 -6.06667,-0.43416 -2.19608,-0.14521 -4.3923,-0.28851 -6.58388,-0.49375 -2.52318,-0.23129 -5.04718,-0.45888 -7.5766,-0.61131 -2.6592,-0.18648 -5.32167,-0.31871 -7.9806,-0.50902 -2.04817,-0.1361 -4.09294,-0.31788 -6.14226,-0.4346 -1.06066,0 -1.06066,1.5 0,1.5 z" /></g><g
         id="g157"
         transform="translate(-62,-6.5)"><path
           style="fill:#000000;fill-opacity:1;stroke-width:2;stroke-linecap:round;stroke-linejoin:round;stroke-miterlimit:2;stroke-dasharray:none"
           id="path154"
           d="m 283.08134,167 c -3.49995,0.0965 -6.98213,-0.27151 -10.44829,-0.71014 -5.31222,-0.77431 -10.64338,-1.35602 -15.99604,-1.75982 -6.26245,-0.44552 -12.52358,-0.857 -18.7757,-1.43678 -5.32119,-0.44488 -10.64526,-0.8701 -15.97273,-1.23454 -4.34952,-0.23763 -8.70469,-0.27521 -13.04749,-0.63205 -3.73427,-0.31807 -7.46207,-0.70439 -11.14518,-1.40629 -2.72415,-0.54167 -5.46915,-0.97362 -8.21104,-1.41588 -0.9683,-0.34283 -2.13424,-0.0264 -3.08968,-0.38663 -0.1746,-0.0658 0.37204,0.0577 0.54507,0.12757 0.10124,0.0529 0.23655,0.25103 0.30372,0.15865 0.11343,-0.15601 -0.004,-0.38584 0.002,-0.57865 0.01,-0.36087 0.0161,-0.72219 0.0438,-1.08212 0.13298,-1.72263 0.37692,-3.44367 0.55703,-5.16188 0.37735,-3.95284 0.94427,-7.87961 1.58203,-11.79764 0.59771,-4.35342 0.99529,-8.73287 1.43298,-13.10493 0.35554,-4.02267 0.83594,-8.03255 1.19046,-12.05527 0.31225,-3.97261 0.62754,-7.94305 0.79871,-11.92473 0.18129,-3.820011 0.48508,-7.62453 0.91686,-11.42359 0.48602,-4.36786 1.01252,-8.726854 1.3447,-13.110109 0.22263,-4.334541 0.49938,-8.666477 0.68745,-13.002886 0.1405,-3.557159 0.18029,-7.117066 0.19962,-10.676596 0.0604,-3.018258 0.45524,-6.01158 0.83657,-9.001586 0.29069,-2.890801 0.59151,-5.777206 1.04093,-8.648192 0.29033,-2.145047 0.64273,-4.280767 0.87843,-6.432992 0.1582,-1.677679 0.20672,-3.3823 0.55869,-5.035059 0.0356,-0.07043 0.0386,-0.251095 0.10671,-0.211288 0.22975,0.134248 -0.42975,0.492224 -0.31633,0.732941 0.0717,0.152178 0.33648,-0.001 0.50466,0.0027 1.11294,0.02454 1.12662,0.03823 2.3616,0.11079 3.39234,0.328562 6.74918,0.925288 10.10878,1.485502 3.81694,0.602847 7.63891,1.172099 11.46084,1.742519 3.65569,0.5453 7.33057,0.896032 11.00843,1.242613 3.74003,0.249807 7.45679,0.728409 11.18564,1.095616 3.87529,0.360531 7.7492,0.695449 11.63764,0.874023 3.36576,0.128973 6.73425,0.152592 10.10208,0.162903 2.96865,0.0033 5.9373,-0.0013 8.90595,-0.0034 2.68569,-0.0017 5.37138,-0.0024 8.05708,-0.0027 2.03178,0.159116 4.06637,0.289518 6.09715,0.460441 2.84434,0.314886 5.71308,0.289923 8.56081,0.536338 0.16609,0.05336 0.33939,0.08804 0.49826,0.160096 0.0743,0.0337 0.21302,0.215037 0.13191,0.206194 -0.14869,-0.01621 -0.28089,-0.338333 -0.38482,-0.230773 -0.0823,0.08517 -0.009,0.236706 -0.0136,0.355059 -0.26812,1.532104 -0.65884,3.040214 -1.07592,4.53819 -0.66694,2.676623 -1.33509,5.352403 -1.90948,8.050647 -0.56965,2.947018 -0.93839,5.92326 -1.16873,8.914334 -0.12358,3.031612 -0.27246,6.062837 -0.53403,9.086167 -0.3095,3.321593 -0.46239,6.653652 -0.71409,9.979594 -0.18729,3.200421 -0.4987,6.390908 -0.69469,9.590746 -0.14161,3.553351 -0.29444,7.107524 -0.58095,10.652651 -0.32233,3.997959 -0.70676,7.991217 -1.08301,11.984647 -0.26378,3.41058 -0.50811,6.82218 -0.75854,10.23394 -0.11087,2.91661 -0.30224,5.81437 -0.64882,8.71199 -0.51231,3.57847 -0.9848,7.16176 -1.31391,10.76208 -0.29898,2.91847 -0.65942,5.832 -1.09062,8.73391 -0.35736,2.3588 -0.6758,4.72293 -1.03173,7.08178 -0.32118,2.39218 -0.67146,4.77821 -1.07543,7.15774 -0.26005,2.26476 -0.62279,4.51588 -0.89812,6.77873 -0.05,0.56932 -0.0801,1.1375 -0.28954,1.67178 -0.0604,0.15399 -0.1431,0.5935 -0.21772,0.44589 -0.0209,-0.0413 0.025,-0.089 0.0374,-0.13357 0.13199,-0.19133 0.0714,-0.11055 0.17721,-0.24561 -3.26783,1.34955 -1.35927,5.97096 1.90856,4.62141 v 0 c 1.1356,-0.54577 0.59136,-0.20982 1.62337,-1.02285 1.20461,-1.51403 1.57986,-2.80827 1.72428,-4.73482 0.26422,-2.18457 0.61979,-4.35699 0.86399,-6.54409 0.40927,-2.41077 0.76539,-4.82801 1.09045,-7.2516 0.35377,-2.36305 0.6768,-4.7303 1.03341,-7.09307 0.44125,-2.99474 0.81919,-5.99992 1.1238,-9.01171 0.32305,-3.55389 0.79662,-7.0899 1.29921,-10.62242 0.35536,-2.97328 0.55941,-5.94721 0.67077,-8.93978 0.24758,-3.37734 0.49037,-6.75446 0.74989,-10.13072 0.3784,-4.01628 0.76454,-8.032442 1.08901,-12.053266 0.28577,-3.57714 0.44901,-7.162619 0.58769,-10.748074 0.1936,-3.175749 0.50485,-6.342092 0.68975,-9.518439 0.25038,-3.309051 0.40312,-6.624101 0.70998,-9.928876 0.2594,-3.038903 0.42066,-6.084972 0.53779,-9.13236 0.21091,-2.770685 0.55264,-5.526864 1.07428,-8.257602 0.5502,-2.598358 1.19928,-5.172974 1.83616,-7.751137 0.55461,-2.001361 1.12996,-4.027932 1.25283,-6.109777 -0.0276,-0.375421 -0.006,-0.757817 -0.0829,-1.126262 -0.54674,-2.611053 -2.24152,-3.65854 -4.72484,-4.113223 -2.85047,-0.233508 -5.71732,-0.235552 -8.56415,-0.536619 -2.16918,-0.179096 -4.34131,-0.333875 -6.51296,-0.477706 -2.68663,3.41e-4 -5.37326,0.001 -8.05989,0.0027 -2.96241,0.002 -5.92482,0.0067 -8.88723,0.0034 -3.29668,-0.01004 -6.59402,-0.03263 -9.88872,-0.157696 -3.80145,-0.173412 -7.58829,-0.503858 -11.37691,-0.855248 -3.73579,-0.366877 -7.45941,-0.847262 -11.2063,-1.097605 -3.58793,-0.337533 -7.173,-0.677518 -10.73925,-1.209882 -3.79387,-0.565929 -7.58766,-1.131447 -11.37662,-1.729219 -3.53846,-0.589603 -7.07447,-1.218725 -10.64958,-1.54563 -2.41526,-0.131198 -4.84441,-0.392821 -6.82319,1.33203 -0.60203,0.524773 -0.78612,1.344349 -1.01935,2.052863 -0.34212,1.803815 -0.49527,3.636017 -0.62472,5.465991 -0.2244,2.075119 -0.57126,4.133231 -0.84775,6.201547 -0.4559,2.917631 -0.76963,5.850123 -1.06081,8.788222 -0.40692,3.19068 -0.82019,6.385988 -0.87666,9.607031 -0.0189,3.496412 -0.0575,6.993201 -0.19501,10.487304 -0.18531,4.282849 -0.46001,8.561176 -0.67791,12.842265 -0.32599,4.320759 -0.84964,8.616937 -1.32696,12.922593 -0.44485,3.915497 -0.7572,7.837035 -0.94425,11.773995 -0.16697,3.90687 -0.47889,7.80246 -0.78403,11.70045 -0.35188,4.00294 -0.83222,7.99281 -1.18486,11.99573 -0.4273,4.27013 -0.81707,8.54719 -1.39297,12.80006 -0.65218,4.01166 -1.23211,8.0324 -1.61968,12.07941 -0.13179,1.25837 -0.27909,2.51508 -0.41075,3.77347 -0.17066,1.63118 -0.46483,3.54562 0.0392,5.15616 0.18876,0.6032 0.54808,1.1391 0.82213,1.70866 0.37518,0.30894 0.70821,0.67777 1.12556,0.92684 1.27292,0.75968 2.8501,0.50849 4.23926,0.81525 2.69661,0.43444 5.39623,0.85908 8.07525,1.39207 3.85794,0.72828 7.75883,1.15036 11.67012,1.47727 4.36508,0.35379 8.74113,0.4097 13.1132,0.63698 5.28728,0.36095 10.57108,0.78423 15.85216,1.22483 6.28079,0.58188 12.57054,0.99709 18.8617,1.444 5.26927,0.39609 10.51665,0.97245 15.74597,1.73466 3.67387,0.4617 7.36469,0.84694 11.07382,0.74942 3.53553,0 3.53553,-5 0,-5 z" /><path
           style="fill:#000000;fill-opacity:1;stroke-width:2;stroke-linecap:round;stroke-linejoin:round;stroke-miterlimit:2;stroke-dasharray:none"
           id="path155"
           d="m 183.73186,181.02343 c 0.90986,0.20354 1.13949,0.27449 2.1333,0.39942 3.57743,0.44971 7.16049,0.84987 10.73601,1.32437 6.23604,0.76597 12.47912,1.47463 18.72099,2.19232 5.26018,0.45411 10.50256,1.05284 15.74729,1.65353 5.26263,0.53468 10.55035,0.74068 15.82361,1.14292 5.52032,0.33838 10.98585,1.2026 16.44237,2.06634 4.05384,0.64887 8.14316,1.0384 12.23361,1.36675 2.68193,0.0624 5.29613,0.58175 7.91613,1.09761 1.00253,0.20435 2.01338,0.35928 3.02586,0.50355 3.50056,0.49601 4.20203,-4.45454 0.70146,-4.95055 v 0 c -0.92419,-0.1301 -1.84653,-0.27224 -2.76142,-0.45882 -2.80639,-0.55254 -5.61192,-1.09539 -8.48243,-1.1758 -3.96262,-0.31732 -7.92431,-0.69313 -11.85147,-1.32125 -5.58983,-0.88484 -11.18941,-1.76488 -16.84433,-2.11338 -5.21028,-0.39637 -10.43436,-0.60411 -15.63464,-1.12492 -5.24396,-0.60018 -10.48546,-1.20031 -15.74491,-1.65326 -6.21297,-0.71435 -12.42713,-1.41985 -18.63439,-2.18159 -4.04883,-0.53724 -8.11715,-0.97862 -12.15344,-1.57486 -3.3995,-0.97129 -4.7731,3.83633 -1.3736,4.80762 z" /><path
           style="fill:#000000;fill-opacity:1;stroke-width:2;stroke-linecap:round;stroke-linejoin:round;stroke-miterlimit:2;stroke-dasharray:none"
           id="path156"
           d="m 290.52343,189.26814 c 0.77291,-2.98178 1.6619,-5.93106 2.44932,-8.90869 0.90696,-3.30114 1.64821,-6.64304 2.45131,-9.96984 0.50651,-2.26283 0.93751,-4.5411 1.41326,-6.81055 0.34117,-1.76635 0.60379,-3.54748 0.95094,-5.31272 0.40918,-1.92673 0.63828,-3.88489 0.91764,-5.83304 0.37768,-2.6338 0.66436,-5.28074 1.06154,-7.91166 0.34633,-2.44075 0.74971,-4.87188 1.0244,-7.32239 0.2714,-1.54135 0.50027,-3.08508 0.61745,-4.64607 0.0511,-1.61732 0.29626,-3.21925 0.56587,-4.81195 0.32901,-1.79351 0.42945,-3.61508 0.49183,-5.43386 -0.0351,-1.55618 0.10421,-3.09466 0.25352,-4.64066 0.21229,-1.86425 0.18505,-3.74266 0.3178,-5.61137 0.20174,-2.25114 0.33312,-4.50703 0.4073,-6.76571 0.0511,-1.75442 0.056,-3.5097 0.0582,-5.26473 1.4e-4,-1.58173 -0.002,-3.163462 -0.003,-4.745194 0.0774,-1.280256 0.3468,-2.529383 0.58939,-3.784628 0.30354,-1.381275 0.50894,-2.7806 0.77462,-4.168702 0.2871,-1.305195 0.42444,-2.632856 0.67918,-3.943259 0.33942,-1.62264 0.58161,-3.258545 0.82463,-4.897775 0.34683,-2.195069 0.48569,-4.4138 0.57662,-6.631808 -0.0574,-1.366444 0.17249,-2.70232 0.34246,-4.050229 0.20991,-1.220272 0.0765,-2.475188 0.25005,-3.695049 0.24435,-1.417596 0.55033,-2.822187 0.7476,-4.24934 0.24318,-1.163207 0.0627,-2.381316 0.25809,-3.543709 0.14087,-0.743125 0.22958,-1.494163 0.31004,-2.245709 0.37226,-3.515882 -4.59995,-4.042326 -4.9722,-0.526444 v 0 c -0.0756,0.723566 -0.17023,1.444461 -0.30029,2.160552 -0.1237,1.156463 -0.0977,2.321556 -0.24937,3.476629 -0.19834,1.463508 -0.5408,2.898048 -0.76114,4.356912 -0.12441,1.212922 -0.10019,2.433461 -0.24411,3.64555 -0.18399,1.485416 -0.42597,2.963101 -0.37698,4.467139 -0.0827,2.041589 -0.20638,4.084239 -0.52706,6.104584 -0.23064,1.565449 -0.45732,3.128003 -0.78687,4.676651 -0.25586,1.321844 -0.40188,2.658947 -0.68542,3.976019 -0.25389,1.380944 -0.46771,2.767618 -0.76913,4.139863 -0.30254,1.567627 -0.62472,3.133911 -0.68011,4.735811 9.6e-4,1.578658 0.003,3.157317 0.003,4.735976 -0.002,1.70263 -0.006,3.40551 -0.0555,5.10757 -0.0715,2.19932 -0.20222,4.39567 -0.39831,6.58763 -0.12093,1.82322 -0.11204,3.65335 -0.30632,5.47225 -0.15913,1.64866 -0.30358,3.29306 -0.27379,4.9518 -0.0534,1.59593 -0.13368,3.1952 -0.42458,4.76881 -0.29575,1.74742 -0.55827,3.50588 -0.62252,5.27958 -0.10746,1.49892 -0.35812,2.97546 -0.6,4.45767 -0.26589,2.38825 -0.66531,4.75656 -0.99994,7.13548 -0.39452,2.64254 -0.69148,5.29903 -1.06634,7.94441 -0.26725,1.86569 -0.48406,3.74138 -0.87599,5.58647 -0.33683,1.74318 -0.60928,3.49829 -0.93687,5.24309 -0.46518,2.22039 -0.8886,4.44894 -1.38014,6.6636 -0.79363,3.29229 -1.52795,6.599 -2.425,9.86573 -0.77675,2.94574 -1.66058,5.86175 -2.42267,8.81171 -0.97129,3.3995 3.83633,4.7731 4.80762,1.3736 z" /><path
           style="fill:#000000;fill-opacity:1;stroke-width:2;stroke-linecap:round;stroke-linejoin:round;stroke-miterlimit:2;stroke-dasharray:none"
           id="path157"
           d="m 185.42512,177.36921 c -0.18349,-2.32145 -0.39208,-4.64006 -0.60136,-6.95964 -0.20145,-2.34913 -0.27067,-4.70655 -0.31078,-7.06308 -0.003,-0.29813 -0.018,-0.59635 -0.01,-0.89439 0.006,-0.20768 0.0165,-0.41626 0.0505,-0.6212 0.014,-0.0841 0.12023,-0.31905 0.0923,-0.23851 -0.34129,0.98418 -0.99228,0.99379 -1.85983,0.74464 0.63555,1.79095 0.84597,3.67308 1.02645,5.55366 0.1612,1.85498 0.18725,3.71771 0.19829,5.5785 0.0514,1.00011 -0.0306,2.28919 0.58,3.16387 0.17344,0.24844 0.40593,0.44992 0.6089,0.67488 0.71489,-0.1196 1.50154,-0.0245 2.14469,-0.35878 0.6614,-0.34375 0.62383,-3.84082 0.638,-4.49372 0.031,-2.04402 0.0248,-4.08837 0.023,-6.13256 -0.001,-1.15811 -6.9e-4,-0.59498 -0.002,-1.68938 -0.003,-2.12132 -3.00276,-2.1174 -2.99999,0.004 v 0 c 0.001,1.09379 7.1e-4,0.53107 0.002,1.68817 0.002,2.02175 0.008,4.04367 -0.0223,6.06525 -0.0176,0.82332 -0.0298,1.64583 -0.093,2.46721 -0.009,0.12175 -0.13732,0.29957 -0.0341,0.36472 0.0937,0.0591 0.1506,-0.16244 0.2259,-0.24367 0.63451,-0.0273 1.26902,-0.0545 1.90352,-0.0818 0.10718,0.154 0.21009,0.31107 0.32154,0.46201 0.0863,0.11684 -0.14054,-0.25797 -0.17499,-0.39908 -0.11999,-0.49152 -0.13703,-1.00687 -0.12122,-1.50898 -0.0118,-1.95114 -0.0411,-3.90426 -0.21216,-5.84915 -0.23023,-2.36692 -0.48832,-4.77463 -1.52851,-6.94723 -0.40212,-0.356 -0.68598,-0.9352 -1.20637,-1.06801 -2.4906,-0.63564 -2.62528,2.27861 -2.55021,3.81083 0.0416,2.42944 0.11399,4.85977 0.32248,7.28152 0.21405,2.37126 0.42157,4.742 0.61937,7.11426 0.3,2.1 3.26985,1.67574 2.96985,-0.42426 z" /></g></g></g></svg>
