<?xml version="1.0" encoding="UTF-8" standalone="no"?>
<!-- Created with Inkscape (http://www.inkscape.org/) -->

<svg
   width="98"
   height="32"
   viewBox="0 0 98 32"
   version="1.1"
   id="svg1"
   xml:space="preserve"
   xmlns="http://www.w3.org/2000/svg"
   xmlns:svg="http://www.w3.org/2000/svg"><defs
     id="defs1" /><path
     d="m 4.349979,24.1 h 9.75 V 13.6 h -9.75 z m 0,2.4 -2.7,-2.7 V 8.2 l 2.7,-2.7 h 12 v 2.4 h -12 v 3.3 h 10.05 l 2.4,2.4 v 10.2 l -2.7,2.7 z M 20.100005,23.8 V 12.4 l 2.7,-2.7 h 11.7 V 19 h -11.7 v 5.1 h 11.1 v 2.4 h -11.1 z m 2.7,-6.9 9.12,-0.3 v -4.5 h -9.12 z M 52.95001,9.7 V 26.5 H 50.250009 V 12.04 h -6.63 l -2.61,14.46 h -4.41 v -2.46 h 2.16 l 2.61,-14.34 z m 3.60002,16.8 V 9.7 h 2.7 v 4.2 h 9.75 l 2.7,2.7 v 7.2 l -2.7,2.7 z m 2.7,-2.4 h 9.75 v -7.8 h -9.75 z m 15.9,2.4 V 9.7 h 2.7 v 16.8 z m 22.2,0 h -2.7 V 12.49 l -9.66,14.01 h -3.54 V 9.7 h 2.7 v 14.01 l 9.66,-14.01 h 3.54 z M 92.64003,4 h 2.76 l -2.1,3.6 h -7.8 l -2.1,-3.6 h 2.76 l 0.99,1.65 h 4.5 z"
     id="text1"
     style="font-size:30px;line-height:1;font-family:Tektur;-inkscape-font-specification:Tektur;text-align:center;text-anchor:middle;fill:#ffffff;stroke-width:2;stroke-miterlimit:2"
     aria-label="белый" /></svg>
