<?xml version="1.0" encoding="UTF-8" standalone="no"?>
<!-- Created with Inkscape (http://www.inkscape.org/) -->

<svg
   width="180"
   height="32"
   viewBox="0 0 180 32"
   version="1.1"
   id="svg1"
   xml:space="preserve"
   xmlns="http://www.w3.org/2000/svg"
   xmlns:svg="http://www.w3.org/2000/svg"><defs
     id="defs1" /><path
     d="M 1.0999474,23.8 V 12.4 L 3.799947,9.7 h 9.3 l 2.7,2.7 v 11.4 l -2.7,2.7 h -9.3 z m 2.6999996,0.3 h 9.3 v -12 h -9.3 z m 15.450012,6.6 v -21 h 12.45 l 2.7,2.7 v 11.4 l -2.7,2.7 h -9.75 v 4.2 z m 12.45,-18.6 h -9.75 v 12 h 9.75 z m 5.850025,11.7 v -6.9 l 12,-0.3 v -4.5 h -11.4 V 9.7 h 11.4 l 2.7,2.7 v 14.1 h -12 z m 2.7,-4.5 v 4.8 h 9.3 v -5.4 z m 15.600011,7.2 V 9.7 h 2.7 v 7.2 h 9.6 V 9.7 h 2.7 v 16.8 h -2.7 v -7.2 h -9.6 v 7.2 z m 32.400026,0 h -2.7 v -7.53 h -5.01 l -4.53,7.53 h -3.06 l 5.55,-9.06 -5.28,-7.74 h 3.09 l 4.5,6.87 h 4.74 V 9.7 h 2.7 v 6.87 h 4.739999 l 4.5,-6.87 h 3.09 l -5.28,7.74 5.55,9.06 h -3.06 l -4.53,-7.53 H 88.250021 Z M 102.80004,23.8 V 12.4 l 2.7,-2.7 h 11.7 V 19 h -11.7 v 5.1 h 11.1 v 2.4 h -11.1 z m 2.7,-6.9 9.12,-0.3 v -4.5 h -9.12 z m 15.15001,-7.2 v 16.8 h 12.6 l 2.4,-2.4 v -4.56 l -2.31,-1.8 1.71,-1.29 V 12.1 l -2.4,-2.4 z m 2.7,7.02 V 12.1 h 9 v 4.62 z m 0,7.38 v -4.98 h 9.6 v 4.98 z m 15.60002,2.4 V 9.7 h 2.7 v 4.2 h 9.75 l 2.7,2.7 v 7.2 l -2.7,2.7 z m 2.7,-2.4 h 9.75 v -7.8 h -9.75 z m 15.9,2.4 V 9.7 h 2.7 v 16.8 z m 22.19999,0 h -2.7 V 12.49 l -9.66,14.01 h -3.54 V 9.7 h 2.7 v 14.01 l 9.66,-14.01 h 3.54 z m -4.71,-22.5 h 2.76 l -2.1,3.6 h -7.8 l -2.1,-3.6 h 2.76 l 0.99,1.65 h 4.5 z"
     id="text1"
     style="font-size:30px;line-height:1;font-family:Tektur;-inkscape-font-specification:Tektur;text-align:center;text-anchor:middle;fill:#ffffff;stroke-width:2;stroke-miterlimit:2"
     aria-label="оранжевый" /></svg>
