<?xml version="1.0" encoding="UTF-8" standalone="no"?>
<!-- Created with Inkscape (http://www.inkscape.org/) -->

<svg
   width="92"
   height="32"
   viewBox="0 0 92 32"
   version="1.1"
   id="svg1"
   xml:space="preserve"
   xmlns="http://www.w3.org/2000/svg"
   xmlns:svg="http://www.w3.org/2000/svg"><defs
     id="defs1" /><path
     d="M 1.425003,23.8 V 12.4 l 2.7,-2.7 h 11.1 v 2.4 h -11.1 v 12 h 11.1 v 2.4 h -11.1 z m 32.400003,2.7 h -2.7 V 12.49 l -9.66,14.01 h -3.54 V 9.7 h 2.7 v 14.01 l 9.66,-14.01 h 3.54 z m 3.599988,0 V 9.7 h 2.7 v 7.2 H 49.72499 V 9.7 h 2.7 v 16.8 h -2.7 v -7.2 h -9.599996 v 7.2 z m 34.500026,0 h -2.7 V 12.49 l -9.66,14.01 h -3.54 V 9.7 h 2.7 v 14.01 l 9.66,-14.01 h 3.54 z m 19.49999,0 h -2.7 V 12.49 l -9.66,14.01 h -3.54 V 9.7 h 2.7 v 14.01 l 9.66,-14.01 h 3.54 z M 86.71501,4 h 2.76 l -2.1,3.6 h -7.8 l -2.1,-3.6 h 2.76 l 0.99,1.65 h 4.5 z"
     id="text1"
     style="font-size:30px;line-height:1;font-family:Tektur;-inkscape-font-specification:Tektur;text-align:center;text-anchor:middle;fill:#ffffff;stroke-width:2;stroke-miterlimit:2"
     aria-label="синий" /></svg>
