<?xml version="1.0" encoding="UTF-8" standalone="no"?>
<!-- Created with Inkscape (http://www.inkscape.org/) -->

<svg
   width="126"
   height="32"
   viewBox="0 0 126 32"
   version="1.1"
   id="svg1"
   xml:space="preserve"
   xmlns="http://www.w3.org/2000/svg"
   xmlns:svg="http://www.w3.org/2000/svg"><defs
     id="defs1" /><path
     d="m 16.099989,26.5 h -2.7 v -7.53 h -5.01 L 3.8599886,26.5 h -3.06 L 6.349989,17.44 1.0699886,9.7 h 3.09 l 4.5000004,6.87 h 4.74 V 9.7 h 2.7 v 6.87 h 4.74 l 4.5,-6.87 h 3.09 l -5.28,7.74 5.55,9.06 h -3.06 l -4.53,-7.53 h -5.01 z M 30.650011,23.8 V 12.4 l 2.7,-2.7 h 11.7 V 19 h -11.7 v 5.1 h 11.1 v 2.4 h -11.1 z m 2.7,-6.9 9.12,-0.3 v -4.5 h -9.12 z m 0.3,-9.3 V 5.2 h 2.7 v 2.4 z m 6.6,0 V 5.2 h 2.7 v 2.4 z m 23.250005,2.1 v 16.8 h -2.7 V 12.04 h -6.63 l -2.61,14.46 h -4.41 v -2.46 h 2.16 l 2.61,-14.34 z M 75.050037,26.5 V 12.1 h 6.45 V 9.7 h -15.6 v 2.4 h 6.45 v 14.4 z m 8.849988,0 V 9.7 h 2.7 v 4.2 h 9.750005 l 2.7,2.7 v 7.2 l -2.7,2.7 z m 2.7,-2.4 h 9.750005 v -7.8 h -9.750005 z m 15.900005,2.4 V 9.7 h 2.7 v 16.8 z m 22.19999,0 h -2.7 V 12.49 l -9.66,14.01 h -3.54 V 9.7 h 2.7 v 14.01 l 9.66,-14.01 h 3.54 z m -4.71,-22.5 h 2.76 l -2.1,3.6 h -7.8 l -2.1,-3.6 h 2.76 l 0.99,1.65 h 4.5 z"
     id="text2"
     style="font-size:30px;line-height:1;font-family:Tektur;-inkscape-font-specification:Tektur;text-align:center;text-anchor:middle;fill:#ffffff;stroke-width:2;stroke-miterlimit:2"
     aria-label="жёлтый" /></svg>
