<?xml version="1.0" encoding="UTF-8" standalone="no"?>
<!-- Created with Inkscape (http://www.inkscape.org/) -->

<svg
   width="134"
   height="32"
   viewBox="0 0 134 32"
   version="1.1"
   id="svg1"
   inkscape:version="1.4.3 (0d15f75, 2025-12-25)"
   sodipodi:docname="blank-Inkscape.svg"
   xml:space="preserve"
   inkscape:export-filename="..\assets\40\string_red.svg"
   inkscape:export-xdpi="96"
   inkscape:export-ydpi="96"
   xmlns:inkscape="http://www.inkscape.org/namespaces/inkscape"
   xmlns:sodipodi="http://sodipodi.sourceforge.net/DTD/sodipodi-0.dtd"
   xmlns="http://www.w3.org/2000/svg"
   xmlns:svg="http://www.w3.org/2000/svg"><sodipodi:namedview
     id="namedview1"
     pagecolor="#f0f0f0"
     bordercolor="#000000"
     borderopacity="0.25"
     inkscape:showpageshadow="2"
     inkscape:pageopacity="0.0"
     inkscape:pagecheckerboard="0"
     inkscape:deskcolor="#d1d1d1"
     inkscape:document-units="px"
     inkscape:zoom="1"
     inkscape:cx="313"
     inkscape:cy="297.5"
     inkscape:window-width="1920"
     inkscape:window-height="1009"
     inkscape:window-x="-8"
     inkscape:window-y="-8"
     inkscape:window-maximized="1"
     inkscape:current-layer="g74"><inkscape:page
       x="0"
       y="0"
       width="134"
       height="32"
       id="page2"
       margin="0"
       bleed="0" /></sodipodi:namedview><defs
     id="defs1" /><path
     d="M 2.024962,26.5 V 9.7 h 2.7 v 6.87 h 5.82 l 4.62,-6.87 h 3.12 l -5.31,7.74 5.55,9.06 h -3.06 l -4.53,-7.53 h -6.21 v 7.53 z m 18.600025,4.2 v -21 h 12.45 l 2.7,2.7 v 11.4 l -2.7,2.7 h -9.75 v 4.2 z m 12.45,-18.6 h -9.75 v 12 h 9.75 z m 5.850026,11.7 v -6.9 l 12,-0.3 v -4.5 h -11.4 V 9.7 h 11.4 l 2.7,2.7 v 14.1 h -12 z m 2.7,-4.5 v 4.8 h 9.3 v -5.4 z m 15.450011,4.5 V 12.4 l 2.7,-2.7 H 70.87502 v 2.4 H 59.775024 v 12 H 70.87502 v 2.4 H 59.775024 Z M 73.57503,26.5 V 9.7 h 2.7 v 7.2 h 9.6 V 9.7 h 2.7 v 16.8 h -2.7 v -7.2 h -9.6 v 7.2 z m 18.60002,0 V 9.7 h 2.7 v 4.2 h 9.75 l 2.7,2.7 v 7.2 l -2.7,2.7 z m 2.7,-2.4 h 9.75 v -7.8 h -9.75 z m 15.9,2.4 V 9.7 h 2.7 v 16.8 z m 22.2,0 h -2.7 V 12.49 l -9.66,14.01 h -3.54 V 9.7 h 2.7 v 14.01 l 9.66,-14.01 h 3.54 z m -4.71,-22.5 h 2.76 l -2.1,3.6 h -7.8 l -2.1,-3.6 h 2.76 l 0.99,1.65 h 4.5 z"
     id="text1"
     style="font-size:30px;line-height:1;font-family:Tektur;-inkscape-font-specification:Tektur;text-align:center;text-anchor:middle;fill:#ffffff;stroke-width:2;stroke-miterlimit:2"
     aria-label="красный" /></svg>
