<?xml version="1.0" encoding="UTF-8" standalone="no"?>
<!-- Created with Inkscape (http://www.inkscape.org/) -->

<svg
   width="25"
   height="44"
   viewBox="0 0 25 44"
   version="1.1"
   id="svg1"
   xml:space="preserve"
   xmlns="http://www.w3.org/2000/svg"
   xmlns:svg="http://www.w3.org/2000/svg"><defs
     id="defs1" /><g
     id="layer5"
     transform="translate(-210)"><path
       id="path804"
       style="display:inline;fill:#ffffff;fill-opacity:1;stroke:none;stroke-width:2;stroke-dasharray:none;stroke-opacity:1"
       d="m 219.36523,1.587891 c -2.44665,0.110883 -2.79075,3.743883 -0.0684,4.132812 1.52451,0.339351 3.09558,0.32412 4.64843,0.298828 0.57318,-0.02493 1.14577,-0.04485 1.71875,-0.07422 2.92834,-0.03275 2.88151,-4.175325 -0.0469,-4.142578 -0.54376,-0.01598 -1.08769,-0.02164 -1.63086,-0.05273 -1.36744,-0.05247 -2.73451,-0.170016 -4.10352,-0.136719 -0.1815,-0.02593 -0.35447,-0.03278 -0.51758,-0.02539 z M 215.52344,10 c -1.11853,0.01249 -2.22769,0.867329 -2.07032,2.441406 -0.11957,1.9682 0.06,3.941604 0.0274,5.912114 -0.0239,1.44089 -0.12797,2.72963 -0.22266,4.16796 -0.20556,2.75154 -0.28455,5.50938 -0.22656,8.26758 0.0576,0.81729 0.0223,1.67885 0.27344,2.47071 0.0742,0.23404 0.08,0.52908 0.26758,0.6875 0.59916,0.506 1.33569,0.81994 2.0039,1.23046 0.60964,-0.25344 1.26172,-0.4238 1.83008,-0.75976 0.39477,-0.23336 1.50127,-1.58153 1.74219,-1.86524 0.78353,-0.92268 1.49473,-1.75319 2.21289,-2.73632 0.41094,-0.56257 0.78893,-1.14855 1.18359,-1.72266 0.3855,-0.62329 0.77199,-1.24703 1.15625,-1.87109 0.85034,-1.38097 1.37574,-2.21218 2.16016,-3.63672 0.36507,-0.66298 0.71163,-1.33601 1.04687,-2.01367 0.005,0.36627 0.009,0.73151 0.0195,1.09765 0.0454,1.58715 0.0967,2.46525 0.17383,4.02149 0.0541,1.62505 0.17572,3.24441 0.33789,4.86132 -0.24119,0.56614 -0.21973,1.26937 0.24805,1.99024 0.77776,0.30731 1.52569,1.13637 2.33398,0.92187 1.61977,-0.42985 1.49578,-1.65011 1.53711,-2.70117 0.2429,-1.71201 0.36011,-3.43597 0.37305,-5.16601 0.0415,-3.99006 -0.16835,-7.98126 -0.74023,-11.933598 -0.0979,-0.589707 -0.31509,-2.636339 -0.97852,-2.892578 -2.48064,-0.958099 -3.22919,-0.26991 -3.96875,1.324219 -0.6826,1.328444 -1.62076,2.508667 -2.24805,3.871097 -1.76515,3.18101 -3.64426,6.29397 -5.49414,9.42578 -0.22151,0.34261 -0.447,0.68291 -0.67383,1.02148 0.14671,-1.19224 0.29388,-2.3837 0.38868,-3.58203 0.0465,-0.77913 0.11922,-1.55767 0.14062,-2.33789 0.0779,-2.8396 -0.23037,-5.67639 -0.71484,-8.470702 C 217.50367,10.634546 216.51038,9.98898 215.52344,10 Z" /></g></svg>
