<?xml version="1.0" encoding="UTF-8" standalone="no"?>
<!-- Created with Inkscape (http://www.inkscape.org/) -->

<svg
   width="23"
   height="44"
   viewBox="0 0 23 44"
   version="1.1"
   id="svg1"
   xml:space="preserve"
   xmlns="http://www.w3.org/2000/svg"
   xmlns:svg="http://www.w3.org/2000/svg"><defs
     id="defs1" /><g
     id="layer5"
     transform="translate(-389)"><path
       style="display:inline;fill:#ffffff;fill-opacity:1;stroke:none;stroke-width:2;stroke-dasharray:none;stroke-opacity:1"
       d="m 399.66797,10.330078 c -0.14339,0.006 -0.28615,0.01973 -0.42774,0.04492 -2.16513,0.385246 -3.61737,1.732825 -4.71875,3.564453 -0.80719,1.342379 -1.15506,2.611159 -1.65625,4.076169 -0.38068,1.66569 -0.74447,2.93946 -0.83984,4.66016 -0.13104,2.36438 0.20212,4.79941 1.11133,6.9961 0.25509,0.61629 0.62271,1.18135 0.93359,1.77148 0.38798,0.48318 0.71675,1.02038 1.16407,1.44922 1.44904,1.38921 3.34737,2.04086 5.34179,1.95703 1.61649,-0.068 2.05913,-0.38129 3.48633,-0.95899 1.30569,-0.67392 2.35764,-1.66906 3.34961,-2.72851 2.24368,-1.90355 -0.44774,-5.07738 -2.69141,-3.17383 -0.7848,0.57958 -1.54294,1.20211 -2.38867,1.69336 -0.86026,0.36484 -2.66816,1.10136 -3.50976,0.33008 -0.22312,-0.20447 -0.37718,-0.47281 -0.56641,-0.70899 -0.17752,-0.36551 -0.38521,-0.71726 -0.5332,-1.0957 -1.11101,-2.84106 -0.86436,-5.79385 -0.23243,-8.70898 0.37825,-1.28427 0.50669,-1.82017 0.96289,-3.02344 0.18194,-0.47988 0.5175,-1.36402 1.05665,-1.61914 0.1584,-0.075 0.34281,-0.0783 0.51367,-0.11719 0.20381,0.0227 0.41252,0.0181 0.61133,0.0684 0.94482,0.239 1.67867,0.94293 2.27148,1.67578 0.80675,2.8236 4.80088,1.68298 3.99414,-1.14062 -0.10813,-0.30461 -0.18513,-0.62229 -0.32422,-0.914068 -0.80247,-1.683356 -2.30671,-3.029334 -4.05859,-3.673828 -0.5015,-0.184493 -1.03507,-0.26595 -1.55274,-0.398437 -0.43141,0.0046 -0.8667,-0.04331 -1.29687,-0.02539 z"
       id="path802" /></g></svg>
