<?xml version="1.0" encoding="UTF-8" standalone="no"?>
<!-- Created with Inkscape (http://www.inkscape.org/) -->

<svg
   width="25"
   height="44"
   viewBox="0 0 25 44"
   version="1.1"
   id="svg1"
   xml:space="preserve"
   xmlns="http://www.w3.org/2000/svg"
   xmlns:svg="http://www.w3.org/2000/svg"><defs
     id="defs1" /><g
     id="layer5"
     transform="translate(-429)"><path
       style="display:inline;fill:#ffffff;fill-opacity:1;stroke:none;stroke-width:2;stroke-dasharray:none;stroke-opacity:1"
       d="m 447.75,8.601562 c -1.03152,0 -2.0625,0.728713 -2.0625,2.1875 10e-4,1.080878 0.16041,2.163191 0.17383,3.242188 0.009,0.7014 -0.0291,1.40234 -0.0488,2.10352 -0.0463,1.6491 -0.0527,2.09305 -0.0879,2.61914 -0.29875,0.0373 -0.6138,0.13754 -0.9375,0.31445 -0.15199,0.0843 -1.03366,0.62065 -1.18359,0.6543 -0.48621,0.10913 -1.02419,0.004 -1.51563,0.0508 -0.23752,-0.0137 -0.99554,-0.0336 -1.21484,-0.10938 -0.6409,-0.22137 -0.90625,-0.9843 -1.18946,-1.51367 -0.12379,-0.37366 -0.27717,-0.73883 -0.37109,-1.12109 -0.49783,-2.02621 -0.47705,-4.133025 -0.73828,-6.191409 0,-2.932433 -4.14844,-2.932433 -4.14844,0 -0.27997,2.315221 -0.32827,4.714759 0.24024,6.996089 0.1513,0.60714 0.39136,1.18917 0.58789,1.78321 0.699,1.50354 1.61974,2.85291 3.10547,3.67578 1.09905,0.60871 2.26864,0.73223 3.48828,0.79883 1.05803,-0.0388 2.13817,-0.0687 3.16211,-0.37305 0.0683,-0.0203 0.1321,-0.0409 0.19335,-0.0606 -0.16628,1.20299 -0.41008,2.41849 -0.94921,3.36524 -0.71035,1.24739 -2.47813,1.99129 -3.66602,2.64258 -1.32942,0.57014 -2.65244,1.38376 -4.13477,1.4746 -0.25441,0.0156 -0.67147,-0.0161 -0.93554,-0.0312 -2.98777,-0.37676 -3.52099,3.84981 -0.5332,4.22656 2.93961,0.48306 5.37951,-0.1243 8.07421,-1.38672 1.78451,-1.06736 2.7522,-1.48261 4.20899,-3.05078 2.36978,-2.55097 3.01524,-6.01603 3.4414,-9.33985 0.0596,-0.98536 0.16991,-1.96796 0.17969,-2.95507 0.0224,-2.2573 -0.1294,-2.99813 -0.47461,-5.132817 -0.052,-0.321254 -0.34612,-1.978712 -0.45703,-2.390625 -0.0282,-0.104584 -0.0964,-0.19402 -0.14453,-0.291016 0,-1.458787 -1.03098,-2.1875 -2.0625,-2.1875 z"
       id="path787" /></g></svg>
