<?xml version="1.0" encoding="UTF-8" standalone="no"?>
<!-- Created with Inkscape (http://www.inkscape.org/) -->

<svg
   width="27"
   height="44"
   viewBox="0 0 27 44"
   version="1.1"
   id="svg1"
   xml:space="preserve"
   xmlns="http://www.w3.org/2000/svg"
   xmlns:svg="http://www.w3.org/2000/svg"><defs
     id="defs1" /><g
     id="layer5"
     transform="translate(-454)"><path
       style="display:inline;fill:#ffffff;fill-opacity:1;stroke:none;stroke-width:2;stroke-dasharray:none;stroke-opacity:1"
       d="m 467.51562,8.572266 c -1.08024,-9.4e-5 -2.16002,0.763319 -2.16015,2.291015 -0.12897,1.051106 -0.2295,2.105962 -0.30859,3.16211 -1.84544,0.106254 -3.6476,0.483969 -5.33204,1.349609 -0.48434,0.24891 -0.90628,0.60418 -1.35937,0.90625 -0.56531,0.34527 -0.91093,0.78494 -1.08008,1.25 -0.0313,0.0538 -0.0628,0.10987 -0.0918,0.16797 -1.18644,2.08685 -1.64453,4.57308 -0.72461,6.87109 0.25999,0.64947 0.69026,1.21752 1.03516,1.82617 0.55522,0.55208 1.0394,1.18676 1.66602,1.65625 1.5929,1.19347 3.61024,1.93403 5.67773,2.31446 0.0672,1.0195 0.15921,2.03717 0.28516,3.05273 0,3.00672 4.2539,3.00672 4.2539,0 0.13762,-0.92482 0.21421,-1.85454 0.26758,-2.78711 0.61404,-0.0567 1.22305,-0.16337 1.83594,-0.23437 0.67394,-0.18554 1.36863,-0.30682 2.02148,-0.55664 1.85489,-0.70976 3.52416,-1.92205 4.46289,-3.71289 0.74731,-1.42565 0.71939,-2.13461 0.9336,-3.66407 -0.0768,-0.69296 -0.0531,-1.4058 -0.23047,-2.08007 -0.40535,-1.541 -1.26009,-2.83969 -2.54883,-3.80665 -1.63248,-1.22488 -3.70022,-1.84275 -5.66602,-2.212886 -0.16491,-0.03105 -0.33013,-0.058 -0.49609,-0.08203 -0.0567,-1.142458 -0.14644,-2.283965 -0.28125,-3.419922 1.4e-4,-1.527696 -1.07991,-2.290922 -2.16016,-2.291016 z m -2.72656,10.666014 c -0.0534,2.01219 -0.10737,4.02892 -0.10547,6.04492 -0.87098,-0.18632 -1.69373,-0.44201 -2.38281,-0.7832 -0.32012,-0.15851 -0.59279,-0.40141 -0.88867,-0.60156 -0.42498,-0.51354 -0.69401,-0.72906 -0.89844,-1.36719 -0.23426,-0.73126 0.0472,-1.65547 0.27735,-2.45117 0.17183,-0.0893 0.33894,-0.18845 0.52148,-0.25196 1.12311,-0.39069 2.29631,-0.54151 3.47656,-0.58984 z m 5.25196,0.24805 c 0.40683,0.0556 0.87303,0.13338 1.48632,0.24609 0.45142,0.083 1.67578,0.2897 2.13672,0.71094 0.42099,0.38475 0.51413,1.00259 0.65821,1.50781 -0.0138,0.22786 -0.0565,1.34218 -0.1543,1.65625 -0.24795,0.79667 -1.12215,1.37119 -1.86133,1.63672 -0.42503,0.15268 -0.8789,0.20844 -1.31836,0.3125 -0.36681,0.0302 -0.73282,0.0747 -1.09961,0.10547 0.0112,-0.22127 0.0223,-0.44269 0.0312,-0.66406 0.0876,-2.16653 0.0932,-3.43713 0.1211,-5.51172 z"
       id="path771" /></g></svg>
