<?xml version="1.0" encoding="UTF-8" standalone="no"?>
<!-- Created with Inkscape (http://www.inkscape.org/) -->

<svg
   width="26"
   height="44"
   viewBox="0 0 26 44"
   version="1.1"
   id="svg1"
   xml:space="preserve"
   xmlns="http://www.w3.org/2000/svg"
   xmlns:svg="http://www.w3.org/2000/svg"><defs
     id="defs1" /><g
     id="layer5"
     transform="translate(-500)"><path
       style="display:inline;fill:#ffffff;fill-opacity:1;stroke:none;stroke-width:2;stroke-dasharray:none;stroke-opacity:1"
       d="m 514.27344,8.287109 c -1.03003,-0.03988 -2.08813,0.648792 -2.14453,2.105469 -0.32324,2.408943 -0.20721,4.850502 -0.084,7.269532 0.24307,3.11193 0.20528,2.87963 0.53516,6.03711 0.10046,0.96159 0.2317,1.92006 0.32031,2.88281 0.14124,1.53452 0.16498,3.07582 0.3125,4.60938 -1.46713,0.002 -2.93196,0.023 -4.39844,0.084 -0.0878,0.004 -0.17774,-0.001 -0.26953,-0.01 0.0802,-2.5613 -0.0157,-5.12451 -0.13281,-7.68554 -0.25846,-4.27248 -0.50733,-8.57451 -1.31055,-12.785158 -0.41486,-2.904005 -4.52228,-2.318069 -4.10742,0.585937 -0.2799,4.155071 -0.0275,8.330351 0.17383,12.484371 0.18772,2.17218 0.40976,4.34032 0.64453,6.50782 0.0161,0.149 0.20229,1.92728 0.26562,2.26172 0.0564,0.2978 0.14855,0.58695 0.22266,0.88085 0.36219,0.49634 0.58928,1.12655 1.08594,1.48829 0.79448,0.57866 2.26217,0.71822 3.22851,0.79882 1.65178,0.13776 3.30579,0.12007 4.96094,0.0957 2.13212,-0.0511 4.26289,-0.13894 6.39258,-0.25 0.0497,1.50629 0.0538,3.0145 0.0644,4.52148 -4.2e-4,3.20287 4.52887,3.20287 4.5293,0 0.0146,-2.11083 0.0367,-4.2512 -0.49609,-6.31054 -0.2288,-0.46708 -0.3696,-0.98877 -0.6875,-1.4004 -0.82939,-1.07391 -2.10007,-1.04885 -3.29688,-1.10937 -0.86432,-0.0416 -1.72902,-0.073 -2.59375,-0.0977 0.84579,-4.65751 0.33572,-9.41311 -0.17187,-14.08203 -0.24215,-2.22391 -0.68626,-4.415876 -1.06836,-6.617186 0.0564,-1.456677 -0.94459,-2.225739 -1.97461,-2.265625 z"
       id="path776" /></g></svg>
