<?xml version="1.0" encoding="UTF-8" standalone="no"?>
<!-- Created with Inkscape (http://www.inkscape.org/) -->

<svg
   width="24"
   height="44"
   viewBox="0 0 24 44"
   version="1.1"
   id="svg1"
   xml:space="preserve"
   xmlns="http://www.w3.org/2000/svg"
   xmlns:svg="http://www.w3.org/2000/svg"><defs
     id="defs1" /><g
     id="layer5"
     transform="translate(-524)"><path
       style="display:inline;fill:#ffffff;fill-opacity:1;stroke:none;stroke-width:2;stroke-dasharray:none;stroke-opacity:1"
       d="m 529.25,7.675781 c -1.04202,0 -2.08398,0.737293 -2.08398,2.210938 -0.20871,1.740934 -0.13445,3.522662 0.13476,5.253901 0.15943,1.02524 0.48913,2.37663 0.72266,3.39258 0.56473,2.1765 1.5657,4.36615 3.60351,5.53711 1.11058,0.63815 1.69498,0.59862 2.94727,0.78516 1.59526,0.0649 3.14094,-0.24347 4.66797,-0.64453 0.004,2.2712 0.0929,4.54172 0.21484,6.80859 0.0764,1.31353 0.0314,0.7091 0.12695,1.81836 -0.005,3.06035 4.32146,3.06589 4.32618,0.006 0.099,-1.10135 0.053,-0.49914 0.13672,-1.80469 0.25474,-4.10235 0.4251,-8.22335 0.12304,-12.32812 -0.0683,-2.82737 -0.0761,-5.743618 -1.0332,-8.439456 -0.9388,-2.816391 -4.92103,-1.487619 -3.98438,1.328125 0.32941,2.371596 0.27794,4.774221 0.26954,7.162111 -0.0236,0.32617 -0.044,0.65214 -0.0625,0.97851 -0.0481,0.008 -0.0973,0.0168 -0.14649,0.0273 -1.43646,0.21861 -2.86293,0.49388 -4.30859,0.65234 -0.1576,0.0276 -0.31403,0.0632 -0.47266,0.084 -0.0653,0.009 -0.13508,0.0257 -0.19726,0.004 -0.87712,-0.30639 -1.43354,-2.31471 -1.6211,-3.02929 -0.57661,-2.50629 -1.07823,-5.022818 -1.2793,-7.591801 0,-1.473645 -1.04196,-2.210938 -2.08398,-2.210938 z"
       id="path769" /></g></svg>
