<?xml version="1.0" encoding="UTF-8" standalone="no"?>
<!-- Created with Inkscape (http://www.inkscape.org/) -->

<svg
   width="28"
   height="44"
   viewBox="0 0 28 44"
   version="1.1"
   id="svg1"
   xml:space="preserve"
   xmlns="http://www.w3.org/2000/svg"
   xmlns:svg="http://www.w3.org/2000/svg"><defs
     id="defs1" /><g
     id="layer5"
     transform="translate(-549)"><path
       style="display:inline;fill:#ffffff;fill-opacity:1;stroke:none;stroke-width:2;stroke-dasharray:none;stroke-opacity:1"
       d="m 563.06445,9.070312 c -1.07753,-0.02977 -2.17665,0.702693 -2.21875,2.226563 -0.34434,2.849457 -0.46687,5.727185 -0.56054,8.593745 0.0272,3.52839 0.12788,7.0565 0.52148,10.56446 -1.77326,0.0338 -3.54518,0.10282 -5.31836,0.0801 0.28694,-2.6967 0.42314,-5.407 0.61719,-8.11133 0.26498,-3.68124 0.64034,-7.40352 0.21875,-11.085939 0,-2.932433 -4.14844,-2.932433 -4.14844,0 -0.5315,3.580989 -0.86901,7.177599 -1.03711,10.792969 -0.0154,0.68985 -0.041,1.37835 -0.0469,2.06836 -0.005,0.58852 0.016,1.17708 0.0137,1.76562 -0.006,1.6055 -0.0761,3.20699 -0.0293,4.8125 -0.001,1.29363 0.3314,2.45927 1.41602,3.28125 0.47058,0.35663 1.20368,0.49652 1.76562,0.64063 2.46597,0.39947 4.9805,0.39855 7.47266,0.4043 2.16905,-0.0937 4.34028,-0.0993 6.50976,-0.17188 1.05939,-0.0921 2.12402,-0.0573 3.18555,-0.084 1.42609,0.002 2.39124,-0.61504 2.99805,-1.94141 0.27913,-0.61014 0.47881,-1.86457 0.60156,-2.50195 0.36301,-2.26742 0.34841,-4.5638 0.37695,-6.85157 0.0452,-3.62213 0.0526,-0.16321 0.0274,-3.73046 -0.0879,-2.11121 -0.25245,-4.21633 -0.25977,-6.330082 -0.004,-0.243837 -0.007,-0.488586 -0.0117,-0.732422 -6.4e-4,-3.054452 -4.32094,-3.052498 -4.32031,0.002 -0.004,0.245623 -0.01,0.490705 -0.0137,0.736328 -10e-4,2.115576 -0.12593,4.225746 -0.19141,6.339846 -10e-4,2.43547 -0.012,1.21514 0.0352,3.66406 0.003,2.11849 -0.0938,4.23727 -0.11914,6.35547 -0.009,0.26035 -0.0276,0.52089 -0.0332,0.78125 -0.75994,-0.006 -1.51928,-0.009 -2.27734,-0.0742 -1.01732,-0.0324 -2.03487,-0.0475 -3.05273,-0.0605 0.37221,-3.55522 0.21276,-7.14489 0.10156,-10.71094 -0.0981,-2.79086 0.0443,-5.589084 -0.13086,-8.376957 0.0421,-1.52387 -1.01426,-2.315933 -2.0918,-2.345704 z"
       id="path773" /></g></svg>
