<?xml version="1.0" encoding="UTF-8" standalone="no"?>
<!-- Created with Inkscape (http://www.inkscape.org/) -->

<svg
   width="30"
   height="44"
   viewBox="0 0 30 44"
   version="1.1"
   id="svg1"
   xml:space="preserve"
   xmlns="http://www.w3.org/2000/svg"
   xmlns:svg="http://www.w3.org/2000/svg"><defs
     id="defs1" /><g
     id="layer5"
     transform="translate(-579)"><path
       style="display:inline;fill:#ffffff;fill-opacity:1;stroke:none;stroke-width:2;stroke-dasharray:none;stroke-opacity:1"
       d="m 600.04492,8.693359 c -1.1897,-0.008 -2.38195,0.943763 -2.0957,2.601563 0.0903,0.792805 0.0424,0.385198 0.14062,1.228516 0.12914,1.008205 0.26514,2.009062 0.28907,3.027342 0.04,1.70036 -0.10319,3.39935 -0.0859,5.09961 0.008,3.26011 -0.0315,6.53708 0.35547,9.7793 -0.24015,0.0525 -0.43993,0.0996 -0.76953,0.1914 -0.12625,0.0352 -0.24587,0.0948 -0.375,0.11719 -0.57605,0.0998 -1.17961,0.0543 -1.75782,0.0254 -0.68318,-0.0873 -1.36923,-0.16918 -2.05468,-0.24023 0.39816,-3.68085 0.32827,-7.39643 0.32812,-11.09375 -0.0563,-2.41892 0.0209,-4.84251 -0.0957,-7.259768 0.0257,-3.05178 -4.2907,-3.088887 -4.31641,-0.03711 -0.0598,0.875877 -0.0845,1.753677 -0.15234,2.628908 -0.11786,1.51964 -0.3045,3.03518 -0.37696,4.55859 -0.15767,3.62531 -0.15891,7.27417 0.20118,10.88867 -1.45068,-0.0521 -2.90412,-0.0491 -4.35547,0.0273 0.39702,-3.02187 0.62344,-6.06192 0.52344,-9.11328 -0.076,-3.01977 -0.18591,-6.04228 -0.62305,-9.035159 0,-2.932433 -4.14844,-2.932433 -4.14844,0 -0.025,0.227617 -0.06,0.455048 -0.0742,0.683593 -0.0542,0.8686 -0.0464,1.789906 -0.0527,2.656246 -0.014,1.92154 -0.0132,3.84209 -0.008,5.76368 -0.0257,1.78643 0.12388,3.57295 0.0801,5.35937 -0.0308,1.25588 -0.16832,2.51101 -0.23437,3.76563 0.003,1.12595 -0.24146,2.73295 0.79687,3.5664 0.94436,0.75802 2.23249,0.79304 3.35352,0.92383 3.66718,0.4298 7.35409,0.62904 11.04297,0.43945 1.53043,-0.076 3.01675,-0.40069 4.5,-0.75586 1.15306,-0.2699 2.32926,-0.38993 3.49219,-0.61523 0.025,-3.6e-4 0.0525,-0.002 0.0801,-0.004 -0.0257,0.46402 -0.0259,0.54044 -0.0547,1.25977 -0.0504,1.65983 -0.0714,3.31891 0.0371,4.97656 -0.015,2.9867 4.20961,3.00821 4.22461,0.0215 0.12761,-1.65559 0.15072,-3.31448 0.14648,-4.97461 -0.0422,-1.60365 0.0569,-3.34706 -1.13477,-4.59571 -0.16817,-0.17622 -0.39313,-0.288 -0.58984,-0.43164 -0.23032,-0.0992 -0.45488,-0.21361 -0.69141,-0.29687 -0.8288,-0.29174 -1.74005,-0.17852 -2.59375,-0.1211 -0.0218,0.002 -0.0446,0.004 -0.0664,0.006 0.30291,-3.0085 0.27009,-6.04374 0.27734,-9.06445 -0.046,-2.23008 -0.0232,-4.47107 -0.33594,-6.685546 -0.12959,-0.91758 -0.25111,-1.369774 -0.45117,-2.234375 -0.23051,-0.843164 -0.13194,-0.458912 -0.30273,-1.154297 -0.22264,-1.2894 -1.14694,-1.876606 -2.07227,-1.882813 z"
       id="path781" /></g></svg>
