<?xml version="1.0" encoding="UTF-8" standalone="no"?>
<!-- Created with Inkscape (http://www.inkscape.org/) -->

<svg
   width="28"
   height="44"
   viewBox="0 0 28 44"
   version="1.1"
   id="svg1"
   xml:space="preserve"
   xmlns="http://www.w3.org/2000/svg"
   xmlns:svg="http://www.w3.org/2000/svg"><defs
     id="defs1" /><g
     id="layer5"
     transform="translate(-638)"><path
       id="path768"
       style="display:inline;fill:#ffffff;fill-opacity:1;stroke:none;stroke-width:2;stroke-dasharray:none;stroke-opacity:1"
       d="m 660.19922,8.341797 c -1.14735,0.04076 -2.26334,0.947454 -2.0625,2.558594 0.0397,1.103966 0.009,0.504511 0.0957,1.796875 0.0213,0.25886 0.22181,2.677674 0.23047,2.824214 0.16083,2.72301 0.0711,5.45034 0.0918,8.17579 0.0133,3.3077 -0.0558,6.61198 -0.25586,9.91406 -0.64329,2.8948 3.45046,3.80495 4.09375,0.91015 0.10533,-0.35867 0.23192,-0.71203 0.3164,-1.07617 0.72728,-3.13475 0.7249,-6.48538 0.81641,-9.68554 0.0315,-2.85429 0.049,-5.71563 -0.26953,-8.55664 -0.14459,-1.289686 -0.26,-1.863078 -0.47266,-3.091802 -0.24903,-1.272191 -0.12841,-0.69123 -0.35937,-1.746094 -0.17721,-1.421593 -1.21224,-2.059401 -2.22461,-2.023437 z M 641.75,8.351597 c -1.03152,0 -2.0625,0.728714 -2.0625,2.1875 -0.41475,3.23693 -0.243,6.516113 -0.1875,9.769523 0.13028,3.57518 0.0262,7.15801 0.2207,10.73047 0.0933,0.83139 0.0926,2.50851 0.69727,3.15821 0.87136,0.93619 1.08615,0.89555 2.00391,1.08984 0.16286,0.0372 0.32822,0.0635 0.48828,0.11133 0.13838,0.0414 0.26635,0.11147 0.40429,0.15429 0.98148,0.30469 2.03927,0.53535 3.06641,0.59571 0.4718,0.0277 0.94536,9e-4 1.41797,0.002 0.51488,-0.0914 1.03769,-0.14627 1.54492,-0.27344 1.72094,-0.4315 3.67056,-1.42621 4.82813,-2.80859 0.31313,-0.37395 0.54324,-0.81142 0.81445,-1.2168 0.16267,-0.45462 0.36846,-0.89554 0.48828,-1.36328 0.3846,-1.5014 0.17649,-2.98484 -0.47852,-4.38281 -0.52924,-1.12958 -1.04758,-1.53208 -1.88476,-2.4082 -2.489,-1.98537 -4.90162,-2.16564 -7.95508,-2.10547 -0.24174,0.0198 -0.48287,0.0387 -0.72461,0.0586 -0.002,-0.48189 -0.002,-0.96365 -0.002,-1.44531 -0.0798,-3.22926 -0.19894,-6.459533 -0.61719,-9.666013 0,-1.458787 -1.03098,-2.1875 -2.0625,-2.1875 z m 5.26367,17.716793 c 0.61413,0.0106 1.22321,0.0627 1.77735,0.2207 0.51379,0.14655 0.68645,0.28463 1.13281,0.54883 0.86199,0.81953 0.1553,0.0977 0.94922,1.06641 0.10267,0.12527 0.25191,0.21646 0.32812,0.35937 0.21262,0.39877 0.0532,0.87625 0.043,1.29492 -0.0396,0.10195 -0.0531,0.21947 -0.11914,0.30664 -0.26547,0.35049 -0.75693,0.65543 -1.11133,0.86916 -0.72347,0.43626 -1.497,0.75194 -2.32422,0.92968 -0.27436,0.0192 -0.54922,0.0618 -0.82422,0.0586 -0.2661,-0.003 -1.42199,-0.12956 -1.71875,-0.17578 -0.29515,-0.046 -0.5853,-0.11214 -0.87695,-0.17774 0.009,-0.10536 0.0177,-0.21109 0.0273,-0.31642 0.0994,-1.65425 0.13522,-3.31125 0.14453,-4.96875 0.2567,0.002 0.51283,0.004 0.76953,0.006 0.56961,-0.002 1.18861,-0.0321 1.80273,-0.0215 z" /></g></svg>
