<?xml version="1.0" encoding="UTF-8" standalone="no"?>
<!-- Created with Inkscape (http://www.inkscape.org/) -->

<svg
   width="32"
   height="44"
   viewBox="0 0 32 44"
   version="1.1"
   id="svg1"
   xml:space="preserve"
   xmlns="http://www.w3.org/2000/svg"
   xmlns:svg="http://www.w3.org/2000/svg"><defs
     id="defs1" /><g
     id="layer5"
     transform="translate(-715)"><path
       style="display:inline;fill:#ffffff;fill-opacity:1;stroke:none;stroke-width:2;stroke-dasharray:none;stroke-opacity:1"
       d="m 718.89062,8.045148 c -1.23937,-0.02879 -2.49331,1.018938 -2.06835,2.71875 0.0819,3.55027 -0.14379,7.099852 -0.27344,10.646482 -0.12066,3.91945 -0.37564,7.85991 -0.008,11.77344 l 0.0918,0.42578 c -0.0377,2.95201 4.13809,3.00476 4.17578,0.0527 0.0339,-0.12613 0.0676,-0.25278 0.10157,-0.37891 0.34977,-2.39371 0.54589,-4.80607 0.67968,-7.22266 1.04088,0.0475 2.08326,0.0345 3.125,0.004 0.0755,0.57513 0.18641,1.14618 0.26758,1.7207 0.61019,2.57103 1.5768,4.92113 3.99219,6.29688 0.5521,0.31447 1.14581,0.57699 1.76562,0.71679 0.8507,0.19189 1.73607,0.17986 2.60352,0.26954 0.91001,-0.15468 1.84621,-0.19361 2.72852,-0.46485 3.11489,-0.95759 5.60078,-3.06966 7.24609,-5.85937 1.34488,-2.28032 1.36165,-3.29296 1.91992,-5.82227 5.6e-4,-1.00125 0.11916,-2.00958 0.002,-3.0039 -0.33943,-2.8716 -1.68822,-5.607218 -4.04687,-7.349614 -1.88944,-1.395772 -2.93797,-1.438207 -5.13867,-1.996094 -0.84529,-0.03312 -1.69111,-0.156064 -2.53516,-0.09961 -2.33338,0.156072 -4.48079,1.06376 -6.00391,2.878907 -1.03233,1.230271 -1.16736,1.998051 -1.68359,3.449221 -0.0279,0.15815 -0.0534,0.29843 -0.0762,0.42383 -0.44381,1.16351 -0.67325,2.26752 -0.86133,3.50781 -0.0498,0.3282 -0.0945,0.64158 -0.13281,0.94726 -0.99239,-0.0296 -1.98657,-0.0441 -2.97852,-0.006 0.002,-0.0571 0.006,-0.11482 0.008,-0.17187 -10e-4,-2.61884 -0.0119,-5.21485 -0.25977,-7.824219 -0.0963,-1.013996 -0.21335,-2.036464 -0.42383,-3.035157 -0.0634,-0.300666 -0.1576,-0.593612 -0.23633,-0.890625 -0.29075,-1.163029 -1.13247,-1.687331 -1.98047,-1.707031 z m 15.13282,7.326172 c 0.32865,0.004 0.65518,0.0192 0.96875,0.0312 1.02114,0.16754 1.92996,0.20862 2.84375,0.74219 1.36329,0.79603 2.10337,2.32855 2.33398,3.83984 0.0962,0.63058 0.0444,1.27461 0.0664,1.91211 -0.12031,0.66436 -0.17348,1.34564 -0.36133,1.99414 -0.7382,2.54836 -2.4198,4.78113 -4.87695,5.86328 -0.51338,0.2261 -1.0716,0.332 -1.60743,0.49805 -0.38111,0.0775 -0.75606,0.21395 -1.14453,0.23242 -0.23827,0.0113 -0.47236,-0.0708 -0.69921,-0.14453 -1.34038,-0.43548 -1.43156,-2.07224 -1.70118,-3.22266 -0.0783,-0.59159 -0.18856,-1.18054 -0.23632,-1.77539 -0.10787,-1.34355 -0.0797,-2.6962 0.0176,-4.04492 0.19118,-0.32231 0.3166,-0.72054 0.34571,-1.19531 0.1097,-1.22543 0.0353,-0.60315 0.22851,-1.86328 0.20716,-0.75107 0.37743,-1.63103 1.03125,-2.15235 0.79344,-0.63264 1.80504,-0.72719 2.79102,-0.71484 z"
       id="path764" /></g></svg>
