<?xml version="1.0" encoding="UTF-8" standalone="no"?>
<!-- Created with Inkscape (http://www.inkscape.org/) -->

<svg
   width="480"
   height="360"
   viewBox="0 0 480 360"
   version="1.1"
   id="svg1"
   xml:space="preserve"
   xmlns="http://www.w3.org/2000/svg"
   xmlns:svg="http://www.w3.org/2000/svg"><defs
     id="defs1" /><g
     id="g316"
     style="display:inline"><g
       id="g348"
       style="display:inline;fill:#6b00a6;fill-opacity:1"
       transform="translate(102,21)"><g
         id="g379"
         style="display:inline;fill:#f3f3f3;fill-opacity:1"><path
           style="fill:#f3f3f3;fill-opacity:1;stroke-width:3;paint-order:stroke fill markers"
           d="m 161.61622,139.96583 c -2.88783,0.30177 -7.31431,-0.40174 -8.76856,2.78515 -1.5101,9.94931 -0.77443,20.1156 -1.07324,30.15235 -2.9e-4,25.632 -0.0304,51.26834 0.22656,76.89746 1.88172,2.11515 5.81409,0.39113 8.49903,0.94922 58.04916,0 116.09831,0 174.14747,0 2.08914,-1.33608 0.29981,-4.66917 0.6084,-6.87695 -0.75005,-19.74496 -2.2135,-39.50658 -3.11544,-59.23627 -0.74991,-12.42814 0.0387,-24.97941 -1.48613,-37.36432 -0.10404,-2.58185 -2.44495,-3.95156 -4.84375,-3.61231 -48.34714,-1.28456 -96.79543,0.53225 -145.05051,-2.94553 -6.37473,-0.36277 -12.75547,-0.79584 -19.14383,-0.7488 z"
           id="path378"
           transform="translate(0,-22)" /><path
           style="fill:#62a4ce;fill-opacity:1;stroke-width:3;paint-order:stroke fill markers"
           d="m 141.47071,134.25489 c -3.98185,0.94861 -4.58412,5.96001 -5.63863,9.28077 -3.0768,13.54846 -2.43824,27.57637 -3.02711,41.37091 -0.63371,18.9205 0.43811,37.82027 0.69964,56.72333 0.23108,2.93206 -0.46776,6.06481 0.33719,8.87304 4.59418,0.44334 9.5024,0.3541 14.09677,0.0401 1.27076,-2.61094 0.21429,-6.2784 0.58527,-9.28808 0.26725,-24.94587 0.046,-49.9022 -0.43592,-74.82724 0.23728,-8.46569 -0.14368,-17.00926 1.52927,-25.32716 1.25739,-1.4952 0.71677,-3.44786 -1.23339,-3.92676 -2.22875,-1.0592 -4.45864,-2.51888 -6.91309,-2.91894 z"
           id="path381"
           transform="translate(0,-22)" /><g
           id="g391"
           style="display:inline;fill:#6b00a6;fill-opacity:1"><path
             d="m 153.625,119.62305 c -0.30953,0.30791 -0.57283,0.68073 -0.77734,1.1289 -0.0804,0.52988 -0.15448,1.05879 -0.22266,1.58985 v 7.9082 h -0.64063 c -0.0138,0.33322 -0.0258,0.66656 -0.0371,1 h 0.67773 v 9 h -0.77734 c 7.5e-4,0.33335 0.003,0.66668 0.004,1 h 0.77344 v 9 h -0.83203 c -0.006,0.21784 -0.0111,0.43658 -0.0176,0.6543 0,0.11555 0,0.23014 0,0.3457 h 0.84961 v 9 h -0.85156 c -4e-5,0.33333 3e-5,0.66667 0,1 h 0.85156 v 9 h -0.85156 c 6e-5,0.33333 -8e-5,0.66667 0,1 h 0.85156 v 9 h -0.8457 c 3e-4,0.33333 -3.4e-4,0.66667 0,1 h 0.8457 v 9 h -0.83203 c 6.8e-4,0.33333 0.001,0.66667 0.002,1 h 0.83008 v 9 h -0.80469 c 0.001,0.33333 0.003,0.66667 0.004,1 h 0.80078 v 9 h -0.75977 c 0.002,0.33333 0.004,0.66667 0.006,1 h 0.75391 v 9 h -0.69141 c 0.003,0.33333 0.005,0.66667 0.008,1 h 0.68359 v 7.07617 c 0.30474,0.1898 0.64077,0.32269 1,0.41016 V 221.25 h 9 v 7.5 h 1 v -7.5 h 9 v 7.5 h 1 v -7.5 h 9 v 7.5 h 1 v -7.5 h 9 v 7.5 h 1 v -7.5 h 9 v 7.5 h 1 v -7.5 h 9 v 7.5 h 1 v -7.5 h 9 v 7.5 h 1 v -7.5 h 9 v 7.5 h 1 v -7.5 h 9 v 7.5 h 1 v -7.5 h 9 v 7.5 h 1 v -7.5 h 9 v 7.5 h 1 v -7.5 h 9 v 7.5 h 1 v -7.5 h 9 v 7.5 h 1 v -7.5 h 9 v 7.5 h 1 v -7.5 h 9 v 7.5 h 1 v -7.5 h 9 v 7.5 h 1 v -7.5 h 9 v 7.5 h 1 v -7.5 h 9 v 7.5 h 1 v -7.5 h 1.60742 c -0.0129,-0.33333 -0.0258,-0.66666 -0.0391,-1 H 333.625 v -9 h 1.16602 c -0.0163,-0.33333 -0.0323,-0.66666 -0.0488,-1 H 333.625 v -9 h 0.64258 c -0.0184,-0.33333 -0.0381,-0.66667 -0.0566,-1 H 333.625 v -9 h 0.0723 c -0.0194,-0.33334 -0.0392,-0.66667 -0.0586,-1 h -0.0137 v -0.24219 c -0.3421,-5.88179 -0.68666,-11.7618 -1,-17.64062 V 180.25 h -9 v -9 H 332 v -1 h -8.375 v -9 H 332 v -1 h -8.375 v -9 h 8.15039 c -0.005,-0.33331 -0.01,-0.66665 -0.0137,-1 H 323.625 v -9 h 8.01758 c -0.007,-0.33337 -0.0138,-0.6667 -0.0215,-1 H 323.625 v -9 h 7.60156 c -0.0236,-0.33342 -0.05,-0.66676 -0.0762,-1 H 323.625 v -8.64648 c -0.33333,-0.008 -0.66666,-0.0155 -1,-0.0234 V 130.25 h -9 v -8.85352 c -0.33333,-0.006 -0.66666,-0.0102 -1,-0.0156 V 130.25 h -9 v -8.99219 c -31.13841,-0.34271 -62.29984,0.0683 -93.40625,-1.00781 H 203.625 v -0.25195 c -0.33334,-0.0139 -0.66667,-0.0267 -1,-0.041 V 120.25 h -9 v -0.72852 c -0.33334,-0.018 -0.66667,-0.0363 -1,-0.0547 v 0.7832 h -9 v -1.33594 c -0.33334,-0.0226 -0.66668,-0.0453 -1,-0.0684 v 1.4043 h -9 v -1.94141 c -0.33332,-0.0177 -0.66665,-0.0358 -1,-0.0527 V 120.25 h -9 v -2.2832 c -0.33331,-0.002 -0.66665,-0.004 -1,-0.004 v 2.2872 h -9 z m 0,1.62695 h 9 v 9 h -9 z m 10,0 h 9 v 9 h -9 z m 10,0 h 9 v 9 h -9 z m 10,0 h 9 v 9 h -9 z m 10,0 h 9 v 9 h -9 z m 10,0 h 9 v 9 h -9 z m 10,0 h 9 v 9 h -9 z m 10,0 h 9 v 9 h -9 z m 10,0 h 9 v 9 h -9 z m 10,0 h 9 v 9 h -9 z m 10,0 h 9 v 9 h -9 z m 10,0 h 9 v 9 h -9 z m 10,0 h 9 v 9 h -9 z m 10,0 h 9 v 9 h -9 z m 10,0 h 9 v 9 h -9 z m -140,10 h 9 v 9 h -9 z m 10,0 h 9 v 9 h -9 z m 10,0 h 9 v 9 h -9 z m 10,0 h 9 v 9 h -9 z m 10,0 h 9 v 9 h -9 z m 10,0 h 9 v 9 h -9 z m 10,0 h 9 v 9 h -9 z m 10,0 h 9 v 9 h -9 z m 10,0 h 9 v 9 h -9 z m 10,0 h 9 v 9 h -9 z m 10,0 h 9 v 9 h -9 z m 10,0 h 9 v 9 h -9 z m 10,0 h 9 v 9 h -9 z m 10,0 h 9 v 9 h -9 z m 10,0 h 9 v 9 h -9 z m 10,0 h 9 v 9 h -9 z m 10,0 h 9 v 9 h -9 z m -160,10 h 9 v 9 h -9 z m 10,0 h 9 v 9 h -9 z m 10,0 h 9 v 9 h -9 z m 10,0 h 9 v 9 h -9 z m 10,0 h 9 v 9 h -9 z m 10,0 h 9 v 9 h -9 z m 10,0 h 9 v 9 h -9 z m 10,0 h 9 v 9 h -9 z m 10,0 h 9 v 9 h -9 z m 10,0 h 9 v 9 h -9 z m 10,0 h 9 v 9 h -9 z m 10,0 h 9 v 9 h -9 z m 10,0 h 9 v 9 h -9 z m 10,0 h 9 v 9 h -9 z m 10,0 h 9 v 9 h -9 z m 10,0 h 9 v 9 h -9 z m 10,0 h 9 v 9 h -9 z m -160,10 h 9 v 9 h -9 z m 10,0 h 9 v 9 h -9 z m 10,0 h 9 v 9 h -9 z m 10,0 h 9 v 9 h -9 z m 10,0 h 9 v 9 h -9 z m 10,0 h 9 v 9 h -9 z m 10,0 h 9 v 9 h -9 z m 10,0 h 9 v 9 h -9 z m 10,0 h 9 v 9 h -9 z m 10,0 h 9 v 9 h -9 z m 10,0 h 9 v 9 h -9 z m 10,0 h 9 v 9 h -9 z m 10,0 h 9 v 9 h -9 z m 10,0 h 9 v 9 h -9 z m 10,0 h 9 v 9 h -9 z m 10,0 h 9 v 9 h -9 z m 10,0 h 9 v 9 h -9 z m -160,10 h 9 v 9 h -9 z m 10,0 h 9 v 9 h -9 z m 10,0 h 9 v 9 h -9 z m 10,0 h 9 v 9 h -9 z m 10,0 h 9 v 9 h -9 z m 10,0 h 9 v 9 h -9 z m 10,0 h 9 v 9 h -9 z m 10,0 h 9 v 9 h -9 z m 10,0 h 9 v 9 h -9 z m 10,0 h 9 v 9 h -9 z m 10,0 h 9 v 9 h -9 z m 10,0 h 9 v 9 h -9 z m 10,0 h 9 v 9 h -9 z m 10,0 h 9 v 9 h -9 z m 10,0 h 9 v 9 h -9 z m 10,0 h 9 v 9 h -9 z m 10,0 h 9 v 9 h -9 z m -160,10 h 9 v 9 h -9 z m 10,0 h 9 v 9 h -9 z m 10,0 h 9 v 9 h -9 z m 10,0 h 9 v 9 h -9 z m 10,0 h 9 v 9 h -9 z m 10,0 h 9 v 9 h -9 z m 10,0 h 9 v 9 h -9 z m 10,0 h 9 v 9 h -9 z m 10,0 h 9 v 9 h -9 z m 10,0 h 9 v 9 h -9 z m 10,0 h 9 v 9 h -9 z m 10,0 h 9 v 9 h -9 z m 10,0 h 9 v 9 h -9 z m 10,0 h 9 v 9 h -9 z m 10,0 h 9 v 9 h -9 z m 10,0 h 9 v 9 h -9 z m 10,0 h 9 v 9 h -9 z m -160,10 h 9 v 9 h -9 z m 10,0 h 9 v 9 h -9 z m 10,0 h 9 v 9 h -9 z m 10,0 h 9 v 9 h -9 z m 10,0 h 9 v 9 h -9 z m 10,0 h 9 v 9 h -9 z m 10,0 h 9 v 9 h -9 z m 10,0 h 9 v 9 h -9 z m 10,0 h 9 v 9 h -9 z m 10,0 h 9 v 9 h -9 z m 10,0 h 9 v 9 h -9 z m 10,0 h 9 v 9 h -9 z m 10,0 h 9 v 9 h -9 z m 10,0 h 9 v 9 h -9 z m 10,0 h 9 v 9 h -9 z m 10,0 h 9 v 9 h -9 z m 10,0 h 9 v 9 h -9 z m 10,0 h 9 v 9 h -9 z m -170,10 h 9 v 9 h -9 z m 10,0 h 9 v 9 h -9 z m 10,0 h 9 v 9 h -9 z m 10,0 h 9 v 9 h -9 z m 10,0 h 9 v 9 h -9 z m 10,0 h 9 v 9 h -9 z m 10,0 h 9 v 9 h -9 z m 10,0 h 9 v 9 h -9 z m 10,0 h 9 v 9 h -9 z m 10,0 h 9 v 9 h -9 z m 10,0 h 9 v 9 h -9 z m 10,0 h 9 v 9 h -9 z m 10,0 h 9 v 9 h -9 z m 10,0 h 9 v 9 h -9 z m 10,0 h 9 v 9 h -9 z m 10,0 h 9 v 9 h -9 z m 10,0 h 9 v 9 h -9 z m 10,0 h 9 v 9 h -9 z m -170,10 h 9 v 9 h -9 z m 10,0 h 9 v 9 h -9 z m 10,0 h 9 v 9 h -9 z m 10,0 h 9 v 9 h -9 z m 10,0 h 9 v 9 h -9 z m 10,0 h 9 v 9 h -9 z m 10,0 h 9 v 9 h -9 z m 10,0 h 9 v 9 h -9 z m 10,0 h 9 v 9 h -9 z m 10,0 h 9 v 9 h -9 z m 10,0 h 9 v 9 h -9 z m 10,0 h 9 v 9 h -9 z m 10,0 h 9 v 9 h -9 z m 10,0 h 9 v 9 h -9 z m 10,0 h 9 v 9 h -9 z m 10,0 h 9 v 9 h -9 z m 10,0 h 9 v 9 h -9 z m 10,0 h 9 v 9 h -9 z m -170,10 h 9 v 9 h -9 z m 10,0 h 9 v 9 h -9 z m 10,0 h 9 v 9 h -9 z m 10,0 h 9 v 9 h -9 z m 10,0 h 9 v 9 h -9 z m 10,0 h 9 v 9 h -9 z m 10,0 h 9 v 9 h -9 z m 10,0 h 9 v 9 h -9 z m 10,0 h 9 v 9 h -9 z m 10,0 h 9 v 9 h -9 z m 10,0 h 9 v 9 h -9 z m 10,0 h 9 v 9 h -9 z m 10,0 h 9 v 9 h -9 z m 10,0 h 9 v 9 h -9 z m 10,0 h 9 v 9 h -9 z m 10,0 h 9 v 9 h -9 z m 10,0 h 9 v 9 h -9 z m 10,0 h 9 v 9 h -9 z"
             style="display:inline;fill:#8bbeff;stroke-width:6.02478;paint-order:stroke fill markers"
             id="path430" /></g><path
           style="display:inline;fill:#000000;fill-opacity:0.202096;stroke-width:1.5;paint-order:stroke fill markers"
           d="m 314.98048,143.12501 c -4.46945,0.0602 -8.98358,-0.12014 -13.42521,0.0898 -1.85239,0.92919 0.501,2.52718 1.30072,3.38224 6.27956,5.70471 9.52664,13.85276 11.12939,22.03164 2.1956,10.387 1.74778,21.0516 2.02551,31.70224 0.16541,16.76605 0.21498,33.53298 0.32165,50.29946 0.55255,1.75862 2.87282,0.71228 4.25,0.99463 4.73492,-0.12585 9.51314,0.25895 14.22363,-0.23535 1.67453,-0.6236 0.62387,-2.76365 0.77286,-4.06243 -1.11928,-16.77556 -1.32292,-33.67586 -2.77536,-50.4596 -1.3172,-15.58657 -0.74491,-31.26054 -1.456,-46.89692 -0.16889,-2.16931 -0.56935,-4.66719 -2.24023,-6.19531 -2.56351,-1.05068 -5.47904,-0.45932 -8.18115,-0.65224 -1.98194,-10e-4 -3.96387,0.001 -5.94581,0.002 z"
           id="path433"
           transform="translate(0,-22)" /><path
           id="path465"
           style="fill:#000000;fill-opacity:0.203922;stroke-width:6;paint-order:stroke fill markers"
           d="m 142.39062,112.11719 c -0.24193,-0.008 -0.49275,0.0227 -0.74218,0.008 -2.93161,0.12903 -4.10242,3.41142 -4.95117,5.72852 -2.27568,7.22809 -3.01011,14.84891 -3.53321,22.375 -0.3778,17.20865 -0.7615,34.42567 -0.51953,51.63867 0.26719,6.79438 0.37928,13.63765 0.8125,20.39843 0.31189,0.527 0.641,0.71237 0.94141,0.67774 -0.0707,1.64782 -0.12918,3.29618 -0.15625,4.94531 -0.031,2.19375 -0.0232,4.38815 -0.043,6.58203 -0.0132,1.6584 -0.0255,3.31657 -0.0644,4.97461 -0.0166,0.57989 -0.0349,1.16918 -0.0723,1.74414 -0.69337,3.46688 4.20896,4.44735 4.90234,0.98047 0.13411,-0.85252 0.14302,-1.71906 0.16797,-2.58008 0.0403,-1.69265 0.0529,-3.38703 0.0664,-5.08007 0.0203,-2.18338 0.0116,-4.36558 0.043,-6.54883 0.0399,-2.41073 0.14676,-4.8205 0.26367,-7.22852 0.12708,-2.52079 0.2065,-5.04336 0.27148,-7.5664 0.0628,-2.57806 0.0965,-5.15578 0.12696,-7.73438 0.0376,-2.31435 0.0462,-4.62947 -0.0156,-6.94336 -0.0813,-2.37442 -0.14936,-4.74979 -0.20312,-7.125 -0.0531,-2.26713 0.0291,-4.5318 0.15625,-6.79492 0.11527,-2.14772 0.28363,-4.29209 0.45898,-6.43555 0.13752,-1.97784 0.33802,-3.94869 0.56445,-5.91797 0.19157,-1.8482 0.44092,-3.68957 0.68555,-5.53125 0.23083,-1.75202 0.45252,-3.50485 0.625,-5.26367 0.16875,-1.79994 0.25766,-3.60616 0.33008,-5.41211 0.0469,-1.78197 0.13561,-3.56304 0.21484,-5.34375 0.0714,-1.59795 0.12024,-3.19588 0.15821,-4.79492 0.0317,-1.54685 0.11084,-3.09253 0.16601,-4.63867 0.0475,-1.50691 0.11693,-3.01401 0.25391,-4.51563 0.13086,-1.4017 0.30843,-2.79802 0.46289,-4.19726 0.0973,-0.90228 0.2559,-1.79585 0.47656,-2.67578 0.1404,-0.55819 0.39473,-1.07209 0.65039,-1.58399 0.10641,-0.20965 0.29888,-0.55574 0.45313,-0.64648 0.13208,-0.068 0.25346,-0.17074 0.3789,-0.25391 2.74838,-1.85873 0.45005,-5.62031 -2.26367,-4.43945 -0.0493,-0.18985 -0.16748,-0.38238 -0.37891,-0.57617 -0.21267,-0.17015 -0.44556,-0.21674 -0.6875,-0.22461 z" /></g><g
         id="g376"
         style="display:inline"><path
           id="path382"
           style="display:inline;fill:#808186;fill-opacity:1;stroke-width:6;paint-order:stroke fill markers"
           d="m 144.29492,104.57617 c -2.21664,0.22473 -3.74359,1.25439 -5.2207,2.84375 -0.0674,0.0864 -0.13292,0.17357 -0.19727,0.26172 0.35283,0.14716 0.70576,0.29356 1.06055,0.43555 1.41863,0.4608 2.80986,0.977 4.17969,1.56836 0.15199,-0.0577 0.31764,-0.098 0.5,-0.11914 1.26664,-0.17107 2.37906,0.40633 3.47656,0.98437 1.81975,0.94932 3.57296,2.04549 5.47266,2.82813 -0.0164,0.0171 -0.0325,0.0354 -0.0488,0.0527 -0.12994,0.15689 -0.25233,0.31704 -0.36914,0.47852 0.12995,0.0571 0.25871,0.11284 0.38867,0.16992 0.0975,0.0395 0.1949,0.0816 0.29101,0.125 0.004,0.002 0.008,0.003 0.01,0.004 l 0.002,0.002 v 0.002 c 0.0235,0.0103 0.0468,0.0211 0.0703,0.0312 1.52156,0.51037 3.00826,1.10864 4.45312,1.80859 0.25156,-0.10655 0.51416,-0.1933 0.7832,-0.27148 2.0637,-0.44804 4.18846,-0.5549 6.29102,-0.68555 4.16167,-0.10379 8.31603,0.22652 12.46484,0.50782 5.02946,0.33638 10.05896,0.67374 15.08985,0.98828 5.65419,0.35542 11.31744,0.55468 16.97656,0.80859 5.20069,0.24622 10.40356,0.43364 15.60742,0.59766 4.30869,0.13518 8.61756,0.21874 12.92774,0.28711 4.69746,0.0728 9.39585,0.0992 14.09375,0.12304 2.85745,0.013 5.71451,0.0237 8.57226,0.0332 -9.1e-4,0.0169 -6.5e-4,0.0339 -0.002,0.0508 2.51867,0.002 5.038,0.003 7.55664,0.004 2.45554,8.4e-4 52.91164,6e-4 55.36719,0.002 1.88522,3.4e-4 3.77102,0.002 5.65625,0.002 0.61309,0.0658 1.30748,-0.12081 1.90234,0.11719 0.21993,0.088 0.50981,0.44083 0.67188,0.59765 0.82637,0.97186 1.12901,2.19734 1.4082,3.41016 0.40239,1.75967 0.48573,3.56284 0.55859,5.35938 0.079,2.38218 0.10267,4.76516 0.125,7.14843 0.0269,3.21405 0.0384,6.42844 0.0488,9.64258 -8.1e-4,3.51549 0.007,7.03035 0.0898,10.54492 0.0891,4.14014 0.30907,8.27457 0.58204,12.40625 0.30743,4.4456 0.64964,8.8904 1.00976,13.33203 0.37162,4.43446 0.57941,8.87826 0.75,13.32422 0.13896,4.68909 0.30826,9.37858 0.53125,14.06446 0.21438,4.56734 0.4765,9.13225 0.76758,13.69531 0.30097,4.73444 0.55551,9.47064 0.82422,14.20703 0.20397,3.58782 0.39003,7.17757 0.55078,10.76758 0.0814,1.38847 0.0119,2.77127 -0.16211,4.14843 -0.42677,3.50971 4.53611,4.1132 4.96289,0.60352 0.19508,-1.6527 0.29453,-3.31155 0.19531,-4.97656 -0.16169,-3.60986 -0.34955,-7.21852 -0.55468,-10.82617 -0.26938,-4.74813 -0.52444,-9.49602 -0.82618,-14.24219 -0.28958,-4.53622 -0.55045,-9.07477 -0.76367,-13.61524 -0.22265,-4.67052 -0.38841,-9.34386 -0.52734,-14.01757 -0.1735,-4.51679 -0.38818,-9.032 -0.76563,-13.53711 -0.35812,-4.41694 -0.69809,-8.83497 -1.0039,-13.25586 -0.26888,-4.06097 -0.48261,-8.12795 -0.57032,-12.19727 -0.0821,-3.48075 -0.0903,-6.96169 -0.0898,-10.44336 -0.0105,-3.22434 -0.0218,-6.44761 -0.0488,-9.67187 -0.0229,-2.43575 -0.0472,-4.872 -0.1289,-7.30664 -0.0871,-2.11453 -0.20777,-4.23377 -0.68946,-6.30274 -0.54297,-2.25899 -1.3098,-4.43234 -3.03906,-6.07422 -1.92505,-1.55865 -3.34051,-2.01812 -5.80859,-1.90234 -1.8851,-1.9e-4 -3.7692,-0.002 -5.6543,-0.002 -2.45525,-4.4e-4 -52.91194,-5.4e-4 -55.36719,-0.002 -0.10399,-3e-5 -0.21189,0.005 -0.32422,0.0137 8.5e-4,-0.0153 7.2e-4,-0.0316 0.002,-0.0469 -0.24046,-5.4e-4 -0.48025,-6e-4 -0.72071,-0.002 -5.01983,-0.0136 -10.04073,-0.0299 -15.06054,-0.0527 -4.67992,-0.0237 -9.35959,-0.0505 -14.03907,-0.12304 -4.28411,-0.0679 -8.56894,-0.15082 -12.85156,-0.28516 -5.18168,-0.16327 -10.3625,-0.34854 -15.54101,-0.59375 -5.62981,-0.25243 -11.26181,-0.45155 -16.88672,-0.80469 -5.02215,-0.31394 -10.04374,-0.6525 -15.06446,-0.98828 -4.36467,-0.29588 -8.73712,-0.63883 -13.11523,-0.50781 -1.54988,0.097 -3.11072,0.18372 -4.6543,0.38281 -0.37489,-0.49576 -0.97249,-0.87023 -1.8125,-0.99023 -1.00494,-0.21487 -2.02201,-0.33672 -3.00195,-0.65625 -1.81766,-0.76556 -3.50168,-1.80992 -5.24805,-2.72266 -2.07133,-1.13744 -3.74211,-1.63723 -6.11328,-1.54297 z" /><path
           id="path356"
           style="fill:#000000;fill-opacity:1;stroke-width:6;paint-order:stroke fill markers"
           d="m 140.79492,108.07617 c -2.21664,0.22473 -3.74359,1.25439 -5.2207,2.84375 -1.18423,1.5193 -1.89188,3.31405 -2.61328,5.08008 -0.68462,1.72088 -1.1094,3.53111 -1.50586,5.33594 -0.51804,2.205 -0.90265,4.43701 -1.21289,6.67968 -0.33128,2.60949 -0.65314,5.22072 -0.89844,7.83985 -0.23792,2.68481 -0.36654,5.37595 -0.48047,8.06836 -0.10589,2.61878 -0.16173,5.24096 -0.20898,7.86133 -0.0446,2.55848 -0.0681,5.11701 -0.0879,7.67578 -0.018,2.47298 -0.028,4.94494 -0.0371,7.41797 -0.008,2.07791 -0.0138,4.15645 -0.0176,6.23437 -0.004,2.06796 -0.004,4.13517 -0.006,6.20313 l -0.004,6.16015 c -6.4e-4,2.09948 2e-5,4.19935 0,6.29883 -0.004,2.25827 0.11911,4.51496 0.19727,6.77149 0.0723,2.34656 0.25177,4.68665 0.36914,7.03124 0.11879,2.5706 0.18512,5.14424 0.24219,7.7168 0.0595,2.82753 -0.0299,5.65542 -0.0879,8.48242 -0.0513,2.46108 -0.092,4.92339 -0.125,7.38477 -0.0359,2.28047 -0.16099,4.55889 -0.25,6.83789 -0.0619,2.02493 -0.24412,4.04219 -0.38672,6.0625 -0.1173,1.68775 -0.20015,3.37776 -0.26172,5.06836 -0.0547,1.57772 -0.0856,3.15599 -0.11328,4.73437 -0.062,3.53499 4.936,3.62291 4.99804,0.0879 0.0271,-1.54705 0.0598,-3.09419 0.11329,-4.64062 0.0593,-1.63378 0.13686,-3.26546 0.25,-4.89648 0.14624,-2.07257 0.33341,-4.14533 0.39648,-6.22266 0.0907,-2.32163 0.21843,-4.64167 0.25391,-6.96484 0.0329,-2.44958 0.072,-4.89839 0.12304,-7.34766 0.0595,-2.89817 0.15204,-5.79856 0.0899,-8.69727 -0.0581,-2.619 -0.12672,-5.2385 -0.24805,-7.85547 -0.11629,-2.3189 -0.29256,-4.63429 -0.36523,-6.95507 -0.0762,-2.19861 -0.19767,-4.3974 -0.19532,-6.59766 3e-4,-2.09917 -3.6e-4,-4.1977 0,-6.29687 6.7e-4,-2.05241 0.002,-4.1058 0.004,-6.15821 0.002,-2.06615 0.002,-4.13111 0.006,-6.19726 0.004,-2.07489 0.0104,-4.14972 0.0176,-6.22461 0.009,-2.46627 0.0191,-4.93417 0.0371,-7.40039 0.0196,-2.54161 0.0436,-5.08174 0.0879,-7.62305 0.0465,-2.57998 0.0991,-5.15986 0.20312,-7.73828 0.11021,-2.60753 0.23551,-5.21615 0.46485,-7.81641 0.23777,-2.54665 0.55217,-5.08374 0.87304,-7.62109 0.29006,-2.11301 0.654,-4.21599 1.14258,-6.29297 0.33329,-1.5251 0.68356,-3.05624 1.25195,-4.51367 0.50037,-1.22495 0.98507,-2.46197 1.67383,-3.59766 0.53254,-0.59719 1.00549,-1.13018 1.85352,-1.22851 1.26664,-0.17107 2.37906,0.40633 3.47656,0.98437 1.81975,0.94932 3.57296,2.04549 5.47266,2.82813 -0.0164,0.0171 -0.0325,0.0354 -0.0488,0.0527 -0.94614,1.14238 -1.54919,2.39761 -1.75586,3.87891 -0.20423,1.31703 -0.3328,2.64649 -0.33984,3.98047 -0.0237,1.19455 -0.0555,2.38824 -0.10547,3.58203 -0.058,1.35611 -0.12495,2.71276 -0.22657,4.0664 -0.10876,1.39582 -0.2465,2.79031 -0.26172,4.19141 -0.0559,1.51283 -0.12491,3.02472 -0.1914,4.53711 -0.0699,1.96608 -0.025,3.93198 0.0195,5.89844 0.0516,2.35609 0.10644,4.71179 0.20703,7.0664 0.1085,2.43319 0.24743,4.86449 0.40625,7.29492 0.14283,2.65284 0.21595,5.31215 0.21289,7.96875 -0.006,2.96201 -0.013,5.92277 -0.0254,8.88477 -0.0128,2.84979 -0.0275,5.7011 -0.0566,8.55078 -0.0311,2.82208 -0.0688,5.64322 -0.13086,8.46485 -0.061,2.6005 -0.14357,5.19941 -0.24023,7.79882 -0.047,1.9899 -0.0247,3.98035 -0.0293,5.97071 v 1.6289 2.13672 c 0,0.0123 -1.2e-4,0.0249 0,0.0371 v 1.63281 6.22071 c -0.011,2.40599 -0.009,4.81004 0.0703,7.21484 0.096,2.40466 0.17039,4.80899 0.22852,7.21484 0.0717,2.64885 -0.0177,5.29982 -0.14844,7.94532 -0.13595,3.00735 -0.30058,6.01352 -0.46289,9.01953 -0.10913,2.13666 -0.0548,1.08066 -0.15625,3.16797 -0.17159,3.53136 4.82255,3.77355 4.99414,0.24218 0.10057,-2.0701 0.0481,-1.02264 0.15625,-3.14062 0.1627,-3.01372 0.32643,-6.02792 0.46289,-9.04297 0.13637,-2.76782 0.22721,-5.53926 0.15235,-8.31055 -0.0586,-2.42083 -0.13379,-4.8421 -0.23047,-7.26172 -0.0782,-2.34955 -0.0764,-4.69808 -0.0664,-7.04882 v -6.22071 -1.66992 -2.13672 -1.6289 c 0.007,-1.94995 -0.0212,-3.90015 0.0273,-5.84961 0.0973,-2.60061 0.1791,-5.20102 0.24024,-7.80274 0.0625,-2.84235 0.10145,-5.6845 0.13281,-8.52734 0.0292,-2.86058 0.0438,-5.72135 0.0566,-8.58203 0.0124,-2.96623 0.0196,-5.9322 0.0254,-8.89844 0.005,-2.74887 -0.0733,-5.49913 -0.21875,-8.24414 -0.15737,-2.4158 -0.29664,-4.83344 -0.40429,-7.25195 -0.0988,-2.31691 -0.1524,-4.63477 -0.20313,-6.95313 -0.0393,-1.87007 -0.0916,-3.73973 -0.0234,-5.60937 0.0668,-1.51074 0.13554,-3.02201 0.19141,-4.53321 0.0123,-1.33312 0.14647,-2.65833 0.25,-3.98633 0.10634,-1.41176 0.17766,-2.82585 0.23828,-4.24023 0.0517,-1.23194 0.0829,-2.46451 0.10742,-3.69727 0.003,-1.10903 0.10921,-2.21407 0.28125,-3.30859 0.13152,-0.46523 0.1312,-1.04138 0.5625,-1.33789 0.54077,-0.49933 1.18856,-0.76115 1.88281,-0.96289 2.0637,-0.44804 4.18846,-0.5549 6.29102,-0.68555 4.16167,-0.10379 8.31603,0.22652 12.46484,0.50782 5.02946,0.33638 10.05896,0.67374 15.08985,0.98828 5.65419,0.35542 11.31744,0.55468 16.97656,0.80859 5.20069,0.24622 10.40356,0.43364 15.60742,0.59766 4.30869,0.13518 8.61756,0.21874 12.92774,0.28711 4.69746,0.0728 9.39585,0.0992 14.09375,0.12304 2.85745,0.013 5.71451,0.0237 8.57226,0.0332 -9.1e-4,0.0169 -10e-4,0.0339 -0.002,0.0508 2.51867,0.002 5.038,0.003 7.55664,0.004 2.45554,8.4e-4 52.91164,8.8e-4 55.36719,0.002 1.88522,3.4e-4 3.77102,0.002 5.65625,0.002 0.61309,0.0658 1.30748,-0.12081 1.90234,0.11719 0.21993,0.088 0.50981,0.44083 0.67188,0.59765 0.82637,0.97186 1.12901,2.19734 1.4082,3.41016 0.40239,1.75967 0.48573,3.56286 0.55859,5.35938 0.079,2.3822 0.10267,4.76516 0.125,7.14843 0.0269,3.21405 0.0384,6.42844 0.0488,9.64258 -8.1e-4,3.51549 0.007,7.03035 0.0898,10.54492 0.0891,4.14014 0.30907,8.27457 0.58204,12.40625 0.30743,4.4456 0.64964,8.8904 1.00976,13.33203 0.37162,4.43446 0.57941,8.87826 0.75,13.32422 0.13896,4.68909 0.30826,9.37858 0.53125,14.06446 0.21438,4.56734 0.4765,9.13225 0.76758,13.69531 0.30097,4.73444 0.55551,9.47064 0.82422,14.20703 0.20397,3.58782 0.39003,7.17757 0.55078,10.76758 0.0814,1.38847 0.0119,2.77126 -0.16211,4.14843 -0.42677,3.50969 4.53611,4.1132 4.96289,0.60352 0.19508,-1.6527 0.29453,-3.31155 0.19531,-4.97656 -0.16169,-3.60986 -0.34955,-7.21852 -0.55468,-10.82617 -0.26938,-4.74813 -0.52444,-9.49602 -0.82618,-14.24219 -0.28958,-4.53622 -0.55045,-9.07477 -0.76367,-13.61524 -0.22265,-4.67052 -0.38841,-9.34386 -0.52734,-14.01757 -0.1735,-4.51679 -0.38818,-9.032 -0.76563,-13.53711 -0.35812,-4.41694 -0.69809,-8.83497 -1.0039,-13.25586 -0.26888,-4.06097 -0.48261,-8.12795 -0.57032,-12.19727 -0.0821,-3.48075 -0.0903,-6.96169 -0.0898,-10.44336 -0.0105,-3.22434 -0.0218,-6.44761 -0.0488,-9.67187 -0.0229,-2.43575 -0.0472,-4.872 -0.1289,-7.30664 -0.0871,-2.11453 -0.20777,-4.23377 -0.68946,-6.30274 -0.54297,-2.25899 -1.3098,-4.43234 -3.03906,-6.07422 -1.92505,-1.55865 -3.34051,-2.01812 -5.80859,-1.90234 -1.8851,-1.9e-4 -3.7692,-0.002 -5.6543,-0.002 -2.45525,-4.4e-4 -52.91194,-8.2e-4 -55.36719,-0.002 -0.10399,-3e-5 -0.21189,0.005 -0.32422,0.0137 8.5e-4,-0.0153 10e-4,-0.0316 0.002,-0.0469 -0.24046,-5.4e-4 -0.48025,-9.5e-4 -0.72071,-0.002 -5.01983,-0.0136 -10.04073,-0.0299 -15.06054,-0.0527 -4.67992,-0.0237 -9.35959,-0.0505 -14.03907,-0.12304 -4.28411,-0.0679 -8.56894,-0.15082 -12.85156,-0.28516 -5.18168,-0.16327 -10.3625,-0.34854 -15.54101,-0.59375 -5.62981,-0.25243 -11.26181,-0.45155 -16.88672,-0.80469 -5.02215,-0.31394 -10.04374,-0.6525 -15.06446,-0.98828 -4.36467,-0.29588 -8.73712,-0.63883 -13.11523,-0.50781 -1.54988,0.097 -3.11072,0.18372 -4.6543,0.38281 -0.37489,-0.49576 -0.97249,-0.87023 -1.8125,-0.99023 -1.00494,-0.21487 -2.02201,-0.33672 -3.00195,-0.65625 -1.81766,-0.76556 -3.50168,-1.80992 -5.24805,-2.72266 -2.07133,-1.13744 -3.74211,-1.63723 -6.11328,-1.54297 z" /></g></g></g></svg>
