<?xml version="1.0" encoding="UTF-8" standalone="no"?>
<!-- Created with Inkscape (http://www.inkscape.org/) -->

<svg
   width="23"
   height="44"
   viewBox="0 0 23 44"
   version="1.1"
   id="svg1"
   xml:space="preserve"
   xmlns="http://www.w3.org/2000/svg"
   xmlns:svg="http://www.w3.org/2000/svg"><defs
     id="defs1" /><g
     id="layer5"
     transform="translate(-234)"><path
       style="display:inline;fill:#ffffff;fill-opacity:1;stroke:none;stroke-width:2;stroke-dasharray:none;stroke-opacity:1"
       d="m 239.48828,8.308594 c -1.11576,-0.0029 -2.23423,0.783383 -2.23828,2.361328 -0.11698,2.730244 -0.27514,5.460628 -0.31055,8.193358 0.0214,2.98037 0.11125,5.93581 0.3086,8.91016 0.0839,1.26514 0.20024,3.09874 0.35937,4.40625 0.0553,0.45424 0.14169,0.9054 0.21289,1.35742 0.23179,3.01324 4.4935,2.68512 4.26172,-0.32813 0.16996,-2.2913 0.24469,-4.58575 0.25586,-6.88086 0.68464,0.61065 1.37328,1.21685 2.01758,1.8711 0.48005,0.48745 1.5984,1.72322 2.05078,2.21875 1.02696,1.15993 2.0761,2.30703 3.23437,3.33789 1.9319,2.24674 5.10964,-0.48569 3.17774,-2.73242 -0.91667,-1.3025 -1.91812,-2.54066 -2.9375,-3.76367 -1.52945,-1.68794 -3.10895,-3.35395 -4.93164,-4.7168 0.89735,-0.75726 1.7701,-1.54068 2.57617,-2.39844 0.42525,-0.45253 0.81777,-0.93489 1.22656,-1.40234 1.45513,-1.8224 2.72439,-3.80252 3.56641,-5.982424 1.25626,-2.7187 -2.58944,-4.496044 -3.8457,-1.777344 -0.93428,1.64691 -2.06898,3.186291 -3.28907,4.630858 -1.10469,1.25548 -0.97205,1.14444 -2.17773,2.34375 -0.26838,0.26696 -0.54079,0.52993 -0.81445,0.79297 -8e-5,-0.002 7e-5,-0.004 0,-0.006 -0.0373,-1.92683 -0.2852,-3.83741 -0.39063,-5.759765 -0.0421,-0.766576 -0.0583,-1.535575 -0.0879,-2.302734 0.004,-1.577942 -1.10885,-2.370187 -2.22461,-2.373047 z"
       id="path778" /></g></svg>
