<?xml version="1.0" encoding="UTF-8" standalone="no"?>
<!-- Created with Inkscape (http://www.inkscape.org/) -->

<svg
   width="23"
   height="44"
   viewBox="0 0 23 44"
   version="1.1"
   id="svg1"
   xml:space="preserve"
   xmlns="http://www.w3.org/2000/svg"
   xmlns:svg="http://www.w3.org/2000/svg"><defs
     id="defs1" /><g
     id="layer5"
     transform="translate(-255)"><path
       style="display:inline;fill:#ffffff;fill-opacity:1;stroke:none;stroke-width:2;stroke-dasharray:none;stroke-opacity:1"
       d="m 265.64453,9.033203 c -0.82584,-0.04193 -1.66516,0.281804 -2.49609,0.380859 -0.20647,0.262177 -0.43599,0.508141 -0.61914,0.78711 -0.3374,0.513898 -0.66415,1.355512 -0.85742,1.904297 -0.69023,1.959858 -1.23317,3.974371 -1.80274,5.970701 -0.21834,0.90602 -0.45699,1.80596 -0.6543,2.7168 -0.8243,3.80522 -1.30444,7.67651 -1.41601,11.56836 -0.64329,2.8948 3.45047,3.80495 4.09375,0.91015 0.12958,-0.39067 0.2806,-0.77665 0.38867,-1.17382 0.92374,-3.39496 1.43004,-6.88808 2.10156,-10.33594 0.16579,-0.85127 0.35506,-1.69811 0.53321,-2.54688 0.17297,-0.74427 0.34682,-1.48808 0.51953,-2.23242 0.35761,0.9459 0.62442,1.70264 1.10351,3.02539 1.02365,3.08083 2.13624,6.13295 3.15625,9.21485 0.28453,0.85967 0.53687,1.72923 0.8125,2.59179 0.0885,0.27588 0.17717,0.55225 0.26563,0.82813 0.71041,3.02489 4.98969,2.02098 4.27929,-1.00391 -0.0496,-0.3118 -0.10083,-0.62374 -0.15039,-0.93555 -0.0553,-0.2972 -0.52467,-2.81918 -0.53125,-2.8496 -0.71907,-3.32213 -1.82969,-6.5421 -3.02929,-9.7168 -0.89672,-2.15808 -1.08786,-2.75574 -2.14453,-4.781251 -0.50072,-0.959816 -1.25584,-2.313414 -2,-3.158203 -0.36187,-0.410804 -0.6617,-1.019191 -1.19922,-1.123047 -0.11738,-0.02268 -0.23554,-0.03503 -0.35352,-0.04102 z"
       id="path784" /></g></svg>
