<?xml version="1.0" encoding="UTF-8" standalone="no"?>
<!-- Created with Inkscape (http://www.inkscape.org/) -->

<svg
   width="28"
   height="44"
   viewBox="0 0 28 44"
   version="1.1"
   id="svg1"
   xml:space="preserve"
   xmlns="http://www.w3.org/2000/svg"
   xmlns:svg="http://www.w3.org/2000/svg"><defs
     id="defs1" /><g
     id="layer5"
     transform="translate(-278)"><path
       style="display:inline;fill:#ffffff;fill-opacity:1;stroke:none;stroke-width:2;stroke-dasharray:none;stroke-opacity:1"
       d="m 281.79102,8.988281 c -0.40307,0.494798 -0.88488,0.934609 -1.20899,1.484375 -0.36156,0.613262 -0.50208,2.230335 -0.54883,2.804688 -0.21661,2.661246 -0.13785,5.334176 -0.22656,7.999996 -9.5e-4,0.98634 -9.5e-4,1.97265 -0.002,2.95899 0.0251,0.87126 0.0699,1.74363 0.0742,2.61523 0.009,1.78326 -0.21349,3.58434 0.0586,5.35938 0,2.91758 4.125,2.91758 4.125,0 0.33946,-2.58539 0.70761,-5.17326 0.90039,-7.77539 0.0746,-1.00742 0.0981,-2.01636 0.14649,-3.02539 0.0215,-0.87618 0.0354,-1.75307 0.041,-2.62891 0.25238,0.51365 0.50487,1.02668 0.75977,1.53906 0.79684,1.34003 1.14437,2.93666 2.03515,4.22657 0.16521,0.23923 0.26483,0.59273 0.54102,0.68359 0.877,0.28849 1.82646,0.26459 2.74023,0.39648 0.32683,-0.25125 0.6725,-0.47986 0.98047,-0.7539 0.25848,-0.23 0.48029,-0.49956 0.71485,-0.75391 0.49382,-0.53548 1.37465,-1.51929 1.80468,-2.06641 0.47799,-0.60812 1.49411,-2.0663 1.94336,-2.70312 0.46716,-0.6915 0.94049,-1.38146 1.40039,-2.08008 0.009,0.24056 0.019,0.52547 0.0312,0.87305 -0.0463,3.81144 0.19241,7.61793 0.42969,11.41992 0.0157,1.00938 0.1779,2.01546 0.14453,3.02539 -6.1e-4,0.11598 -9.5e-4,0.23168 -0.002,0.34766 -0.003,2.9338 4.14535,2.93807 4.14844,0.004 -3.7e-4,-0.11221 2.6e-4,-0.22372 0,-0.33593 -0.0278,-1.01275 0.18565,-2.01888 0.19921,-3.03125 0.25526,-3.89267 0.35974,-7.80642 -0.0254,-11.69532 -0.13745,-1.89002 -0.17418,-3.864008 -0.64843,-5.710934 -0.12644,-0.492405 -0.0524,-1.196738 -0.49805,-1.441407 -2.8233,-1.55011 -2.73152,-1.431833 -3.80469,-0.34375 -0.0776,0.103156 -0.16287,0.199849 -0.23242,0.308594 -0.007,0.0117 -0.013,0.02376 -0.0137,0.03125 l 0.002,0.002 v 0.002 0.002 0.002 l 0.002,0.002 v 0.002 l 0.002,0.002 h 0.002 c 0.006,0.0049 0.0147,0.0085 0.0254,0.0098 h 0.002 c 0.0418,0.0038 0.11235,-0.01142 0.13282,-0.0098 h 0.002 v 0.002 h 0.002 v 0.002 h -0.002 v 0.002 c -0.004,0.0047 -0.0166,0.01241 -0.0352,0.02344 -0.32764,0.194434 -0.46072,0.263925 -0.48632,0.267578 h -0.002 v -0.002 l 0.002,-0.002 v -0.002 c 0.009,-0.01259 0.0451,-0.04125 0.0918,-0.07617 -0.16795,0.115073 -0.41568,0.283837 -0.76953,0.523437 -1.55163,1.537815 -2.68619,3.433942 -3.96484,5.191402 -0.64299,0.9403 -1.29255,1.87179 -1.94922,2.80078 -0.11928,-0.30184 -0.27178,-0.67601 -0.50195,-1.26367 -0.96763,-2.11299 -1.93434,-4.105037 -3.25196,-6.031246 -0.19056,-0.278581 -1.84574,-2.596474 -2.32422,-2.783203 -0.93552,-0.365094 -1.99085,-0.266061 -2.98632,-0.398438 z"
       id="path783" /></g></svg>
