<?xml version="1.0" encoding="UTF-8" standalone="no"?>
<!-- Created with Inkscape (http://www.inkscape.org/) -->

<svg
   width="24"
   height="44"
   viewBox="0 0 24 44"
   version="1.1"
   id="svg1"
   xml:space="preserve"
   xmlns="http://www.w3.org/2000/svg"
   xmlns:svg="http://www.w3.org/2000/svg"><defs
     id="defs1" /><g
     id="layer5"
     transform="translate(-304)"><path
       style="display:inline;fill:#ffffff;fill-opacity:1;stroke:none;stroke-width:2;stroke-dasharray:none;stroke-opacity:1"
       d="m 310,8.851562 c -1.03152,0 -2.0625,0.728713 -2.0625,2.1875 -0.76264,4.508418 -1.13538,9.079808 -1.17188,13.652348 -0.009,1.12152 0.0313,2.24184 0.0469,3.36328 0.23696,3.10561 0.0498,1.70123 0.48633,4.22461 0.18956,3.30315 4.86144,3.03557 4.67187,-0.26758 0.17701,-2.22936 0.0767,-0.95108 0.30078,-3.83594 0.071,-1.21562 0.1304,-2.14087 0.17774,-3.02344 1.67698,0.13576 3.36406,0.12506 5.04492,0.0723 0.76063,0.004 1.51936,-0.0386 2.27734,-0.0957 0.051,1.53788 0.0999,3.07542 0.19727,4.61132 0.0467,0.73719 0.0759,1.48377 0.19922,2.21289 0.0208,0.0168 0.0417,0.034 0.0625,0.0508 -0.14468,2.859 3.89829,3.06406 4.04297,0.20507 0.0245,-0.0572 0.0497,-0.11467 0.0742,-0.17187 0.14816,-0.74774 0.20032,-1.51606 0.25781,-2.27539 0.14057,-1.85676 0.18287,-3.7164 0.18945,-5.57813 -0.0418,-4.2163 -0.15157,-8.47297 -1.13867,-12.593746 -0.27093,-2.980249 -4.48577,-2.597437 -4.21484,0.382812 0.007,2.962994 0.0908,5.924804 0.1875,8.886724 -0.71066,-0.0517 -1.42177,-0.0879 -2.13477,-0.084 -1.64167,-0.0516 -3.28945,-0.0616 -4.92773,0.0644 0.003,-1.25959 -0.0344,-2.51999 -0.0625,-3.77929 -0.023,-1.03056 -0.0279,-2.06309 -0.0937,-3.0918 -0.0492,-0.76815 -0.22605,-2.030465 -0.34766,-2.929688 0,-1.458787 -1.03098,-2.1875 -2.0625,-2.1875 z"
       id="path790" /></g></svg>
