<?xml version="1.0" encoding="UTF-8" standalone="no"?>
<!-- Created with Inkscape (http://www.inkscape.org/) -->

<svg
   width="23"
   height="44"
   viewBox="0 0 23 44"
   version="1.1"
   id="svg1"
   xml:space="preserve"
   xmlns="http://www.w3.org/2000/svg"
   xmlns:svg="http://www.w3.org/2000/svg"><defs
     id="defs1" /><g
     id="layer5"
     transform="translate(-326)"><path
       style="display:inline;fill:#ffffff;fill-opacity:1;stroke:none;stroke-width:2;stroke-dasharray:none;stroke-opacity:1"
       d="m 334.66211,9.191406 c -0.28911,-8.87e-4 -0.57168,0.01327 -0.84375,0.04687 -0.50193,0.06199 -0.98191,0.244957 -1.47266,0.367188 -1.41676,1.013414 -1.62742,0.859408 -2.28906,2.542969 -0.008,0.02014 -0.0162,0.0402 -0.0234,0.06055 -0.28148,0.25058 -0.51639,0.599974 -0.66992,1.060547 -0.13581,0.46062 -0.30193,0.914493 -0.4082,1.38281 -0.29846,1.31531 -0.49051,2.9875 -0.59961,4.30274 -0.1747,2.10616 -0.24687,3.4652 -0.0195,5.5918 0.0959,0.89701 0.30319,1.77871 0.45508,2.66796 0.2708,0.80916 0.47897,1.64234 0.8125,2.42774 0.86047,2.02622 2.19038,3.78053 4.15429,4.84375 1.32025,0.71475 1.94506,0.69757 3.36328,0.92187 0.57666,-0.0498 1.16906,-0.008 1.73047,-0.14843 2.71334,-0.6809 4.67329,-2.92863 5.7168,-5.43165 0.3566,-0.85536 0.58022,-1.76074 0.87109,-2.64062 0.16423,-0.92481 0.39754,-1.83914 0.49414,-2.77344 0.35295,-3.41359 -0.0916,-7.24165 -2.01171,-10.173827 -0.42834,-0.654103 -0.99479,-1.205347 -1.49219,-1.808593 -0.60159,-0.470556 -1.16215,-0.999212 -1.80469,-1.41211 -1.5784,-1.014301 -3.93913,-1.821914 -5.96289,-1.828125 z m -0.46875,4.53125 c 0.45181,0.02574 0.93672,0.127423 1.32422,0.228516 1.19943,0.312922 2.31452,0.826408 3.29883,1.585938 0.26606,0.28475 0.58254,0.53128 0.79882,0.85547 0.5842,0.87569 0.85764,1.99618 1.04493,3.0039 0.40389,2.17312 0.31663,4.34773 -0.0586,6.51954 -0.0999,0.60627 -0.14293,1.22453 -0.30078,1.81836 -0.27323,1.02782 -0.86514,1.95193 -1.60547,2.69531 -0.12886,0.1294 -0.24526,0.28098 -0.40625,0.36719 -0.16272,0.0871 -0.35822,0.0912 -0.53711,0.13671 -0.75885,-0.0775 -1.49169,-0.15809 -2.09765,-0.68945 -1.10615,-0.96994 -1.47749,-2.46522 -1.85938,-3.81445 -0.29191,-2.09309 -0.39409,-2.4235 -0.45312,-4.60938 -0.0563,-2.08386 0.063,-4.17302 0.0312,-6.25781 0.3667,-0.32867 0.64008,-0.81512 0.73437,-1.470703 -0.0518,-0.576409 -0.0843,-0.199882 -0.58984,-0.259766 0.08,-0.03587 0.15287,-0.100466 0.24023,-0.107422 0.13835,-0.01102 0.28495,-0.01053 0.43555,-0.002 z"
       id="path795" /></g></svg>
