<?xml version="1.0" encoding="UTF-8" standalone="no"?>
<!-- Created with Inkscape (http://www.inkscape.org/) -->

<svg
   width="25"
   height="44"
   viewBox="0 0 25 44"
   version="1.1"
   id="svg1"
   xml:space="preserve"
   xmlns="http://www.w3.org/2000/svg"
   xmlns:svg="http://www.w3.org/2000/svg"><defs
     id="defs1" /><g
     id="layer5"
     transform="translate(-346)"><path
       style="display:inline;fill:#ffffff;fill-opacity:1;stroke:none;stroke-width:2;stroke-dasharray:none;stroke-opacity:1"
       d="m 354.70703,9.371094 c -1.01655,-0.01239 -2.16228,0.06084 -2.9043,0.638672 -1.06627,0.830326 -1.28544,1.730781 -1.41601,2.917968 -0.2901,3.017836 -0.38935,6.053156 -0.48633,9.082036 -0.0859,3.6172 -0.1725,7.25381 0.26563,10.85351 0,2.94729 4.16796,2.94729 4.16796,0 0.35093,-3.56479 0.516,-7.14981 0.60547,-10.73047 0.0434,-1.98903 0.02,-3.97961 -0.0723,-5.96679 -0.0376,-0.8096 -0.10257,-1.61351 -0.125,-2.421879 0.19438,0.02994 0.38963,0.06167 0.58398,0.0918 2.40836,0.381043 4.84105,0.456151 7.27344,0.378906 0.0534,-0.0068 0.10629,-0.01263 0.16016,-0.01758 -0.14684,2.636123 -0.14656,5.285713 -0.15235,7.925783 0.0556,2.66799 0.11702,5.33573 0.16797,8.0039 0.1242,1.254 0.034,0.63824 0.26563,1.84375 0.5061,2.99253 4.73853,2.27769 4.23242,-0.71484 -0.0802,-0.66013 -0.0523,-0.28661 -0.0547,-1.12305 0.0587,-2.66396 0.16255,-5.32546 0.25781,-7.98828 0.014,-1.99121 0.0208,-3.9799 -0.0996,-5.96875 -0.0674,-1.11363 -0.14889,-2.127086 -0.39453,-3.214841 -0.0858,-0.380144 -0.22646,-0.746283 -0.33984,-1.119141 -0.22403,-0.351201 -0.36418,-0.771923 -0.67188,-1.052735 -1.0548,-0.962637 -2.04514,-0.837325 -3.30273,-0.949218 -2.33519,-0.156212 -4.67047,-0.322349 -7.00781,-0.44336 -0.29017,-0.0072 -0.61428,-0.02126 -0.95313,-0.02539 z"
       id="path792" /></g></svg>
