<?xml version="1.0" encoding="UTF-8" standalone="no"?>
<!-- Created with Inkscape (http://www.inkscape.org/) -->

<svg
   width="25"
   height="44"
   viewBox="0 0 25 44"
   version="1.1"
   id="svg1"
   xml:space="preserve"
   xmlns="http://www.w3.org/2000/svg"
   xmlns:svg="http://www.w3.org/2000/svg"><defs
     id="defs1" /><g
     id="layer5"
     transform="translate(-368)"><path
       style="display:inline;fill:#ffffff;fill-opacity:1;stroke:none;stroke-width:2;stroke-dasharray:none;stroke-opacity:1"
       d="m 377.85547,9.175781 c -0.88739,0.06005 -1.7712,0.174734 -2.64649,0.324219 -0.94225,0.307538 -1.30162,0.304146 -2.02734,1.222656 -0.6808,0.861671 -0.54716,2.120757 -0.67578,3.132813 -0.1582,3.215581 -0.16048,6.439271 -0.19922,9.658201 0.0109,2.95318 0.0425,5.90837 0.20508,8.85742 -0.47985,2.87909 3.59241,3.55683 4.07226,0.67774 0.48379,-2.46129 0.58362,-4.97922 0.61914,-7.48828 2.15498,0.12146 4.23551,-0.48647 6.19336,-1.40625 2.61303,-1.44252 5.34603,-2.90828 5.65821,-6.22657 0.0374,-0.39797 -0.026,-0.79776 -0.0391,-1.19726 -0.0788,-0.41823 -0.13122,-0.84346 -0.23632,-1.25586 -0.56268,-2.20788 -1.70287,-4.12712 -3.76758,-5.226563 -0.46613,-0.248211 -0.9868,-0.376891 -1.48047,-0.564453 -1.18294,-0.246441 -1.77979,-0.407023 -3.00977,-0.503906 -0.88796,-0.06994 -1.77863,-0.06396 -2.66601,-0.0039 z m -0.86719,4.5 c 1.12012,0.08545 2.24676,0.07876 3.36719,0.16211 1.03252,0.07681 1.30986,0.150829 2.31055,0.324218 0.23588,0.09655 0.49166,0.155895 0.70898,0.289063 0.51206,0.313778 0.67256,1.074608 0.84766,1.582028 0.34349,0.99534 0.23041,0.60567 0.4375,1.5625 0.009,0.16815 0.0508,0.33716 0.0273,0.50391 -0.0206,0.14593 -0.28526,0.16274 -0.35352,0.19727 -0.20549,0.10389 -0.39472,0.23883 -0.59765,0.34765 -0.71317,0.38241 -1.86541,0.94044 -2.5586,1.28125 -1.28974,0.45529 -2.56569,1.37983 -3.97656,1.41797 -0.0299,-2.49945 -0.0759,-5.00062 -0.20703,-7.496094 -6.2e-4,-0.05734 -0.003,-0.114727 -0.006,-0.171875 z"
       id="path794" /></g></svg>
