<?xml version="1.0" encoding="UTF-8" standalone="no"?>
<!-- Created with Inkscape (http://www.inkscape.org/) -->

<svg
   width="25"
   height="44"
   viewBox="0 0 25 44"
   version="1.1"
   id="svg1"
   xml:space="preserve"
   xmlns="http://www.w3.org/2000/svg"
   xmlns:svg="http://www.w3.org/2000/svg"><defs
     id="defs1" /><g
     id="layer5"
     transform="translate(-407)"><path
       style="display:inline;fill:#ffffff;fill-opacity:1;stroke:none;stroke-width:2;stroke-dasharray:none;stroke-opacity:1"
       d="m 420.94531,8.841797 c -2.88656,0.0097 -5.78656,-0.01059 -8.65625,0.345703 -2.91758,0 -2.91758,4.125 0,4.125 1.7943,0.222777 3.60113,0.298666 5.40821,0.326172 -0.19616,3.099778 -0.38343,6.200658 -0.39649,9.308598 -0.004,1.01129 0.0349,2.02205 0.0527,3.0332 0.007,2.03701 0.12276,4.06679 0.36523,6.08789 -0.01,3.23868 4.57056,3.25232 4.58008,0.0137 0.25407,-2.02838 0.37712,-4.06537 0.3789,-6.11133 0.0137,-1.01637 0.0523,-2.03242 0.041,-3.04882 -0.0345,-3.09792 -0.18883,-6.21862 -0.64648,-9.287114 1.62596,-0.03592 3.25175,-0.08966 4.87109,-0.242188 3.02935,0 3.02935,-4.285156 0,-4.285156 -1.99356,-0.187783 -3.99699,-0.226838 -5.99805,-0.265625 z"
       id="path789" /></g></svg>
