<?xml version="1.0" encoding="UTF-8" standalone="no"?>
<!-- Created with Inkscape (http://www.inkscape.org/) -->

<svg
   width="25"
   height="44"
   viewBox="0 0 25 44"
   version="1.1"
   id="svg1"
   xml:space="preserve"
   xmlns="http://www.w3.org/2000/svg"
   xmlns:svg="http://www.w3.org/2000/svg"><defs
     id="defs1" /><g
     id="layer5"
     transform="translate(-478)"><path
       style="display:inline;fill:#ffffff;fill-opacity:1;stroke:none;stroke-width:2;stroke-dasharray:none;stroke-opacity:1"
       d="m 495.42188,7.212891 c -0.8203,0.01824 -1.64803,0.471348 -2.13282,1.519531 -1.2514,2.095571 -2.48401,4.202632 -3.76367,6.281248 -0.094,0.16535 -0.18737,0.3305 -0.28125,0.4961 -0.24543,-0.38495 -0.49043,-0.76966 -0.73633,-1.154301 -2.43361,-3.574275 -1.28748,-1.920274 -3.43359,-4.96875 -1.86842,-3.112836 -6.27076,-0.472211 -4.40234,2.640625 1.725,3.396336 0.76885,1.595137 2.90429,5.392576 0.80554,1.33326 1.61461,2.66922 2.44141,3.9961 -1.94735,3.78066 -3.65734,7.67795 -4.7461,11.79492 -1.20816,2.71837 2.63558,4.42735 3.84375,1.70898 0.26332,-0.41986 0.53883,-0.83198 0.78907,-1.25976 0.60301,-1.0308 2.51887,-4.52365 2.96484,-5.33789 0.25589,-0.4672 0.51148,-0.93431 0.76563,-1.40235 1.99297,2.83698 4.1539,5.54865 6.61523,8.00586 1.9109,2.43205 5.35035,-0.27106 3.43945,-2.70312 -2.28483,-3.73188 -4.59341,-7.45034 -6.92383,-11.1543 0.58601,-1.10882 1.16985,-2.21881 1.75196,-3.33008 0.98272,-1.9957 1.66075,-3.267922 2.47265,-5.283202 0.2284,-0.56693 0.40776,-1.152203 0.61133,-1.728516 0.92551,-2.001075 -0.61367,-3.548485 -2.17968,-3.513671 z"
       id="path766" /></g></svg>
