<?xml version="1.0" encoding="UTF-8" standalone="no"?>
<!-- Created with Inkscape (http://www.inkscape.org/) -->

<svg
   width="27"
   height="44"
   viewBox="0 0 27 44"
   version="1.1"
   id="svg1"
   xml:space="preserve"
   xmlns="http://www.w3.org/2000/svg"
   xmlns:svg="http://www.w3.org/2000/svg"><defs
     id="defs1" /><g
     id="layer5"
     transform="translate(-609)"><path
       style="display:inline;fill:#ffffff;fill-opacity:1;stroke:none;stroke-width:2;stroke-dasharray:none;stroke-opacity:1"
       d="m 614.71094,9.009766 c -0.92789,-0.0084 -1.85649,0.03182 -2.77735,0.146484 -2.96214,0 -2.96214,4.1875 0,4.1875 1.74292,0.305547 3.51007,0.01759 5.25977,0.101562 0.007,5.97e-4 0.0127,0.0014 0.0195,0.002 -0.46157,4.042328 -0.68348,8.104048 -0.84766,12.167968 -0.0959,2.47182 -0.048,4.9495 0.28321,7.40235 0.0138,0.85974 0.3797,1.4638 0.88867,1.8125 0.25099,0.62372 0.8241,1.1381 1.75781,1.27148 1.82736,0.32922 3.71933,0.51727 5.57813,0.39063 0.49554,-0.0338 0.98721,-0.11563 1.48047,-0.17383 2.75899,-0.55443 5.45487,-1.6765 6.63086,-4.46875 0.25683,-0.60982 0.33611,-1.27986 0.5039,-1.91992 -0.0253,-0.6509 0.0462,-1.31335 -0.0762,-1.95313 -0.40116,-2.09683 -1.71208,-3.77181 -3.4668,-4.92773 -1.43823,-0.94743 -2.19175,-1.04024 -3.82031,-1.52344 -1.48259,-0.33821 -2.98887,-0.48738 -4.49414,-0.44727 0.0901,-2.66055 0.11831,-5.32357 -0.0215,-7.980468 -0.12621,-0.951584 -0.12597,-1.892708 -0.80079,-2.691406 -0.89057,-1.054069 -2.08327,-1.145531 -3.31836,-1.255859 -0.92261,-0.07628 -1.85141,-0.132206 -2.77929,-0.140625 z m 6.72461,16.621094 c 1.16069,0.10693 2.31848,0.25129 3.46484,0.45898 0.40736,0.0904 0.82152,0.14994 1.2207,0.27149 1.06649,0.32474 2.28126,0.91964 2.73829,2.01758 0.0867,0.20833 0.10278,0.4385 0.15429,0.6582 -5.7e-4,0.20459 0.037,0.41239 -0.002,0.61328 -0.28238,1.46509 -1.98471,1.86787 -3.20899,2.14649 -0.34808,0.0441 -0.69514,0.1053 -1.04492,0.13281 -1.27372,0.10015 -2.55408,0.0327 -3.83203,0.0391 0.24207,-2.03578 0.43475,-4.07754 0.5,-6.12891 0.003,-0.0695 0.006,-0.13942 0.01,-0.20898 z"
       id="path779" /></g></svg>
