<?xml version="1.0" encoding="UTF-8" standalone="no"?>
<!-- Created with Inkscape (http://www.inkscape.org/) -->

<svg
   width="25"
   height="44"
   viewBox="0 0 25 44"
   version="1.1"
   id="svg1"
   xml:space="preserve"
   xmlns="http://www.w3.org/2000/svg"
   xmlns:svg="http://www.w3.org/2000/svg"><defs
     id="defs1" /><g
     id="layer5"
     transform="translate(-666)"><path
       style="display:inline;fill:#ffffff;fill-opacity:1;stroke:none;stroke-width:2;stroke-dasharray:none;stroke-opacity:1"
       d="m 671.5,8.287109 c -1.05778,0 -2.11523,0.748209 -2.11523,2.244141 -0.22851,1.53281 -0.2338,3.084518 -0.30079,4.62891 -0.0357,0.82247 -0.0963,1.64392 -0.12109,2.46679 -0.0542,1.80236 -0.0245,3.32404 -0.01,5.12305 0.0527,1.86299 0.21666,3.71794 0.54297,5.55273 0.13392,0.75301 0.30044,1.47491 0.3711,2.23633 -0.0132,1.92342 -0.13742,3.45719 1.75586,4.68946 0.41747,0.27172 0.9345,0.34268 1.40234,0.51367 1.81763,0.27818 3.66944,0.23018 5.50195,0.17578 0.46985,-0.014 0.94013,-0.0117 1.40821,-0.0547 0.51892,-0.0477 1.0328,-0.14428 1.54883,-0.2168 0.53137,-0.17744 1.08345,-0.30202 1.59374,-0.5332 1.44287,-0.65368 2.60127,-1.7359 3.20704,-3.21484 0.42069,-1.02707 0.37985,-1.55575 0.45312,-2.61133 -0.0362,-2.35951 -0.88457,-4.29605 -2.51367,-5.99805 -0.28636,-0.29918 -0.6054,-0.56511 -0.9082,-0.84765 -1.38493,-1.08868 -3.00851,-1.76185 -4.73829,-2.06836 -0.88062,-0.15605 -1.50332,-0.15851 -2.38867,-0.20117 -0.71708,-0.0151 -1.4226,0.0353 -2.12109,0.15234 0.003,-0.87499 -0.003,-1.74771 -0.0312,-2.69727 -0.0248,-0.82287 -0.0874,-1.64432 -0.12305,-2.46679 -0.067,-1.544392 -0.0703,-3.0961 -0.29883,-4.62891 0,-1.495932 -1.05745,-2.244141 -2.11523,-2.244141 z m 3.50781,16.279301 c 0.32403,0.003 0.64962,0.0207 0.97461,0.041 1.50696,0.0672 3.04883,0.19068 4.32031,1.08985 1.09536,1.00129 1.92764,1.83838 2.0586,3.38867 0.002,0.20854 0.0728,0.86778 -0.0352,1.08789 -0.27128,0.55285 -0.93211,0.74488 -1.45703,0.9375 -0.35964,0.0462 -0.71639,0.11352 -1.07812,0.13867 -0.47332,0.0329 -0.94968,0.0179 -1.42383,0.0352 -1.3973,0.0509 -2.79045,0.16091 -4.18555,0.25 -0.002,-0.43342 0.007,-0.86738 -0.043,-1.29493 -0.0977,-1.87327 -0.10844,-3.75241 -0.10156,-5.6289 0.32349,-0.0376 0.64668,-0.0483 0.9707,-0.0449 z m -0.8164,7.46093 c 0.0188,0.0553 0.0406,0.1215 0.0625,0.20118 0.0162,0.0587 -0.004,0.21555 -0.0176,0.24414 v 0.002 0.002 h -0.002 -0.002 v -0.002 h -0.002 v -0.002 c -8e-4,-0.003 -10e-4,-0.007 -0.002,-0.0117 -0.0182,-0.14375 -0.0302,-0.28839 -0.0371,-0.4336 z"
       id="path770" /></g></svg>
