<?xml version="1.0" encoding="UTF-8" standalone="no"?>
<!-- Created with Inkscape (http://www.inkscape.org/) -->

<svg
   width="25"
   height="44"
   viewBox="0 0 25 44"
   version="1.1"
   id="svg1"
   xml:space="preserve"
   xmlns="http://www.w3.org/2000/svg"
   xmlns:svg="http://www.w3.org/2000/svg"><defs
     id="defs1" /><g
     id="layer5"
     transform="translate(-689)"><path
       style="display:inline;fill:#ffffff;fill-opacity:1;stroke:none;stroke-width:2;stroke-dasharray:none;stroke-opacity:1"
       d="m 699.25977,8.910382 c -0.57861,0.02789 -1.15454,0.09734 -1.7168,0.203126 -0.54605,0.102733 -1.07386,0.281013 -1.61133,0.421874 -0.49537,0.26247 -1.02547,0.467916 -1.48633,0.78711 -1.62077,1.122553 -2.42136,3.059427 -2.75781,4.929688 -1.0377,2.7672 2.87636,4.234 3.91406,1.4668 0.38258,-0.71982 0.89681,-2.797658 1.71289,-3.072269 0.1264,-0.04253 0.26562,-0.0231 0.39844,-0.03516 1.33105,-0.109502 2.72165,-0.271707 4.02344,0.136719 0.79186,0.248438 1.17799,0.567926 1.86523,1.01367 0.24285,0.24984 0.51647,0.47353 0.72852,0.75 1.16125,1.51404 1.53992,3.45694 1.58984,5.32032 0.007,0.24668 0.003,0.49352 -0.004,0.74023 -1.13762,-0.21528 -2.29728,-0.32988 -3.45118,-0.39258 -1.30809,-0.14298 -2.61916,-0.19782 -3.93359,-0.14843 -2.92535,-0.0675 -3.02106,4.06924 -0.0957,4.13672 1.24084,0.1323 2.47417,0.33426 3.7207,0.41601 1.0901,0.0967 2.17712,0.21676 3.26367,0.33789 -0.3077,1.48326 -0.81935,2.93647 -1.76953,3.81836 -0.20845,0.19348 -0.465,0.32806 -0.69727,0.49219 -1.01598,0.41314 -2.11158,0.41953 -3.18945,0.46484 -1.35235,0.0568 -1.95107,0.0653 -3.23437,-0.2207 -0.11253,-0.0408 -0.20128,-0.075 -0.26953,-0.10352 -1.501,-2.43621 -5.04423,-0.3818 -3.59571,2.16797 0.22189,0.32754 0.39662,0.69269 0.66602,0.98242 0.6836,0.73521 1.15835,0.86349 2.0332,1.28125 0.45681,0.13495 0.9048,0.30706 1.3711,0.4043 2.26292,0.47191 5.11557,0.26312 7.2871,-0.52148 0.60354,-0.21807 1.16148,-0.54721 1.74219,-0.82032 1.34084,-1.07936 1.73538,-1.22738 2.70703,-2.70703 1.17275,-1.78591 1.80433,-3.99604 2.11719,-6.08789 0.11861,-0.7931 0.14061,-1.59765 0.21094,-2.39648 -0.0311,-1.88722 0.0451,-2.8786 -0.35547,-4.73438 -0.46811,-2.16895 -1.42405,-4.213589 -2.94336,-5.847657 -0.45291,-0.487121 -0.99836,-0.879354 -1.49805,-1.318359 -0.5544,-0.319922 -1.08083,-0.69527 -1.66406,-0.958985 -1.5724,-0.710967 -3.34232,-0.989913 -5.07812,-0.90625 z"
       id="path765" /></g></svg>
