<?xml version="1.0" encoding="UTF-8" standalone="no"?>
<!-- Created with Inkscape (http://www.inkscape.org/) -->

<svg
   width="25"
   height="44"
   viewBox="0 0 25 44"
   version="1.1"
   id="svg1"
   xml:space="preserve"
   xmlns="http://www.w3.org/2000/svg"
   xmlns:svg="http://www.w3.org/2000/svg"><defs
     id="defs1" /><g
     id="layer5"
     transform="translate(-745)"><path
       style="display:inline;fill:#ffffff;fill-opacity:1;stroke:none;stroke-width:2;stroke-dasharray:none;stroke-opacity:1"
       d="m 759.44719,9.484526 c -0.52378,0.01182 -1.68925,0.02968 -2.15625,0.08008 -2.09945,0.226594 -3.81107,0.960791 -5.32032,2.458984 -0.31383,0.419191 -0.67026,0.809826 -0.9414,1.257813 -1.19829,1.979817 -1.35138,4.322997 -0.95117,6.548827 0.37568,1.11247 0.38073,1.43126 1.12695,2.38671 1.05587,1.35193 2.59345,2.13597 4.18555,2.66602 -0.48045,0.40517 -0.9734,0.79475 -1.4336,1.22266 -1.86492,1.73411 -3.48195,3.73257 -4.88867,5.84961 -2.07429,2.07429 0.8593,5.00788 2.93359,2.93359 0.21322,-0.188 0.43434,-0.36488 0.63868,-0.5625 1.61968,-1.56638 3.13992,-3.24032 4.77148,-4.79492 0.40475,-0.38566 0.8318,-0.7459 1.24805,-1.11914 0.88446,-0.90755 1.97435,-1.48909 3.08008,-2.04688 0.10229,1.68316 0.20712,3.36545 0.33398,5.04688 0.0644,0.66116 0.13442,1.32096 0.16797,1.98437 -0.0802,2.91978 4.04873,3.03306 4.1289,0.11328 0.0713,-0.72298 0.15579,-1.44478 0.20313,-2.16992 0.13227,-3.2957 -0.057,-6.58854 -0.38477,-9.86914 -0.16608,-2.4842 -0.29989,-4.97291 -0.59765,-7.445307 -0.26467,-1.343315 -0.71734,-2.63228 -1.77539,-3.566406 -0.25689,-0.174285 -0.49037,-0.385697 -0.76953,-0.521484 -1.11081,-0.540324 -2.40705,-0.416649 -3.59961,-0.453127 z m 2.10156,4.265626 c 0.014,5.95e-4 0.0294,0.0034 0.0371,0.0059 h 0.002 l 0.002,0.002 h 0.002 v 0.002 0.002 0.002 l -0.002,0.002 -0.002,0.002 -0.002,0.002 c -0.0612,0.04927 -0.18362,0.01825 -0.27149,-0.0098 0.0463,-0.0036 0.0923,-0.0064 0.13868,-0.0078 0.0223,-6.5e-4 0.0638,-0.0033 0.0957,-0.002 z m -0.29883,0.01562 c 0.005,0.05215 -0.0191,0.12388 -0.01,0.15625 0.0881,0.320094 0.17847,0.495398 0.21679,0.828128 -0.10871,2.26017 -0.0821,4.526 -0.0137,6.78711 -1.50243,-0.34486 -3.0235,-0.59532 -4.52539,-0.94336 -0.89625,-0.26893 -1.96502,-0.56591 -2.51562,-1.4043 -0.13276,-0.20215 -0.12853,-0.37009 -0.15821,-0.59766 -0.0356,-1.14584 0.12963,-2.3469 0.80469,-3.31054 0.12247,-0.17481 0.28792,-0.31681 0.43164,-0.47461 0.41509,-0.27919 0.57641,-0.426414 1.06836,-0.585939 0.97011,-0.314582 2.0711,-0.280179 3.07617,-0.339844 0.8324,-0.05117 0.62373,-0.03516 1.37695,-0.09375 0.0828,-0.0064 0.16537,-0.01395 0.24805,-0.02148 z"
       id="path774" /></g></svg>
