<?xml version="1.0" encoding="UTF-8" standalone="no"?>
<!-- Created with Inkscape (http://www.inkscape.org/) -->

<svg
   width="25"
   height="44"
   viewBox="0 0 25 44"
   version="1.1"
   id="svg1"
   xml:space="preserve"
   xmlns="http://www.w3.org/2000/svg"
   xmlns:svg="http://www.w3.org/2000/svg"><defs
     id="defs1" /><g
     id="layer5"
     transform="translate(-185)"><path
       style="display:inline;fill:#ffffff;fill-opacity:1;stroke:none;stroke-width:2;stroke-dasharray:none;stroke-opacity:1"
       d="m 190.25,9.601562 c -1.03151,1.7e-5 -2.0625,0.72873 -2.0625,2.1875 -0.10186,3.057938 -0.14662,6.117708 -0.14258,9.177738 0.0246,1.73386 0.0431,3.46796 0.20899,5.19531 0.0874,0.91017 0.22738,1.81095 0.30078,2.72266 0.0167,1.02458 0.0938,2.04515 0.14062,3.06835 0.20256,1.19559 0.14581,1.78591 2.14649,2.28126 0.63381,0.1569 1.2775,-0.33342 1.85156,-0.64454 0.40732,-0.22076 0.71376,-0.592 1.03906,-0.92187 1.12491,-1.14071 1.31827,-1.56003 2.27149,-2.93359 2.07023,-3.25297 3.85759,-6.66727 5.58593,-10.10938 0.006,3.53699 0.25309,7.07786 0.68164,10.58789 0.0899,0.70477 0.20885,1.39588 0.18555,2.10547 0.005,0.0438 0.0105,0.0871 0.0156,0.13086 -0.0821,2.86968 3.97645,2.98687 4.05859,0.11719 0.008,-0.0481 0.0157,-0.0964 0.0234,-0.14453 0.0131,-0.79032 0.17429,-1.56787 0.1914,-2.35938 0.19647,-3.80767 -0.0577,-7.61652 -0.27734,-11.41797 -0.0818,-1.43246 -0.10764,-2.47729 -0.30664,-3.88281 -0.2649,-1.871045 -0.52237,-3.625608 -2.8125,-4.177736 -0.55727,-0.134351 -1.09225,0.346255 -1.63867,0.519532 -0.21355,0.188236 -0.44098,0.361538 -0.64063,0.564453 -1.47501,1.499085 -2.297,3.515261 -3.41015,5.265621 -1.5614,2.84962 -3.2281,5.63992 -4.78125,8.49414 0.033,-1.49915 0.0922,-2.99812 0.0957,-4.49804 -0.0409,-3.04531 -0.0343,-6.14903 -0.66211,-9.140628 0,-1.45877 -1.03099,-2.187483 -2.0625,-2.1875 z"
       id="path793" /></g></svg>
