<?xml version="1.0" encoding="UTF-8" standalone="no"?>
<!-- Created with Inkscape (http://www.inkscape.org/) -->

<svg
   width="480"
   height="360"
   viewBox="0 0 480 360"
   version="1.1"
   id="svg1"
   xml:space="preserve"
   xmlns="http://www.w3.org/2000/svg"
   xmlns:svg="http://www.w3.org/2000/svg"><defs
     id="defs1" /><g
     id="layer6"
     style="display:inline"><g
       id="g963"
       style="display:inline;fill:#b596c7;fill-opacity:1"
       transform="matrix(0.93043465,0,0,0.93043465,27.190039,19.340083)"><g
         id="g962"
         transform="translate(3,18)"
         style="display:inline;fill:#b596c7;fill-opacity:1"><path
           id="path352"
           style="fill:#b596c7;fill-opacity:1;stroke:none;stroke-width:1.84154;stroke-dasharray:none;stroke-opacity:1"
           d="m 239.11133,-25.056641 c -1.14116,0.04679 -2.24096,1.015257 -1.89063,2.591797 0.24888,4.559197 0.22704,9.129112 0.31641,13.6933596 0.23312,3.231775 -0.13522,6.5609351 0.5293,9.7519532 0.75783,2.690211 2.7309,2.3717067 4.94921,2.3554687 2.59595,0.09464 5.25779,-0.02982 7.63868,-1.1855469 0.5059,-0.245575 0.97034,-0.5703667 1.45508,-0.8554687 1.79724,-1.409735 3.32827,-3.2688262 3.42578,-5.6582031 0.0173,-0.423855 -0.0472,-0.8479014 -0.0703,-1.2714844 -0.17117,-0.459068 -0.28528,-0.9424841 -0.51172,-1.3769532 -0.8545,-1.6395109 -2.51361,-2.8952685 -4.04492,-3.8515622 -2.6318,-1.33734 -5.58171,-1.41799 -8.44726,-1.021485 -0.0401,-3.858222 -0.25848,-7.733607 -1.27735,-11.460937 -0.27249,-1.226198 -1.1847,-1.747331 -2.07226,-1.710938 z m -105.79297,0.0039 c -1.52554,-0.05722 -3.05362,-0.05761 -4.58008,0.03906 -2.57013,0.176385 -6.74131,0.239701 -6.2832,3.972656 0.31671,2.833131 -0.51862,5.694802 -0.33203,8.533204 -0.062,5.6348605 -0.0815,11.2971616 0.68164,16.8925776 0,2.777947 3.92969,2.777947 3.92969,0 0.76312,-5.595416 0.74558,-11.2577181 0.68359,-16.8925776 -0.0736,-2.325299 -0.1159,-4.660817 -0.54102,-6.955079 -0.0724,-0.390476 -0.17346,-0.769798 -0.27929,-1.148437 0.7515,0.05068 1.50797,0.0062 2.26172,0.02148 2.99018,0.154128 5.98484,0.0923 8.97265,-0.07227 0.22685,-0.01431 0.45479,-0.02866 0.68164,-0.04297 2.82317,0.02867 2.86223,-3.965464 0.0391,-3.994141 -0.22154,-0.01887 -0.44252,-0.03777 -0.66406,-0.05664 -1.52111,-0.127032 -3.04477,-0.239653 -4.57031,-0.296875 z m 19.95703,0.04102 c -0.88067,-0.0084 -1.75555,0.108819 -2.59375,0.375 -0.81094,0.257524 -1.52418,0.752234 -2.28711,1.128907 -0.56538,0.499814 -1.13188,1.000185 -1.69726,1.5 -1.24877,1.149034 -0.96043,2.627627 -0.0645,3.425781 -0.80415,3.739283 -1.30146,7.5906 -0.64062,11.3886716 0.1849,1.062674 0.55179,2.0843122 0.82812,3.1269532 0.43528,0.8776469 0.77006,1.8131704 1.30664,2.6328124 1.41972,2.16867 3.72063,3.847536 6.40625,3.859375 2.3929,0.01055 3.31761,-0.7528017 5.375,-1.7773437 0.93844,-1.023376 2.02578,-1.9275305 2.81446,-3.0703125 2.10805,-3.054541 3.48403,-7.604837 3.04492,-11.330078 -0.37603,-3.189999 -1.16197,-3.769047 -2.83008,-6.347656 -0.76631,-0.734285 -1.45588,-1.558261 -2.29883,-2.203125 -2.0147,-1.541286 -4.72126,-2.68373 -7.36328,-2.708985 z m 171.26758,0.214844 c -0.86016,0.01079 -1.71605,0.56187 -1.91602,1.761719 -1.49364,4.958775 -1.45015,10.247023 -1.51562,15.3808591 0.10859,2.383196 0.0358,4.7927518 0.31055,7.1679688 0.0696,0.601802 0.29266,1.9752406 0.66992,2.5410156 0.32553,0.488194 0.7957,0.8634359 1.19336,1.2949219 0.53912,0.176173 1.06214,0.4106837 1.61718,0.5273437 0.44871,0.09431 0.91483,0.083189 1.37305,0.099609 0.36072,0.01293 2.48661,-0.0011 2.82617,-0.039063 1.62731,-0.182113 2.14957,-0.4037426 3.69922,-0.8535156 0.59196,-0.305896 1.22432,-0.5462878 1.77734,-0.9179688 2.67033,-1.794699 3.17259,-4.1043954 3.14063,-7.0996094 -0.13901,-0.5773999 -0.19907,-1.1795658 -0.41602,-1.7324218 -0.98075,-2.499275 -3.23896,-4.0277325 -5.69726,-4.8554685 -0.5609,-0.188866 -1.14572,-0.297231 -1.71875,-0.445313 -1.18371,-0.254039 -2.37412,-0.254494 -3.57031,-0.197265 0.0333,-3.409158 0.0711,-6.819001 0.18945,-10.22461 0.25711,-1.542663 -0.85697,-2.422072 -1.96289,-2.408202 z m -104.23828,0.0293 c -1.76266,0.006 -3.73646,0.155551 -4.91407,1.324219 -0.39996,0.39694 -0.61987,0.949822 -0.83007,1.472656 -0.12203,0.303515 -0.10174,0.647514 -0.15235,0.970703 -0.0437,2.716432 -0.26876,5.423313 -0.28906,8.140625 -0.0772,4.097052 -0.0773,8.2132879 0.32031,12.2949219 0,0.659018 0.21477,1.1656723 0.54493,1.5214843 -0.48495,0.92943 -0.2714,2.2232741 1.0957,2.796875 0.38335,0.151556 0.76705,0.3035222 1.15039,0.4550782 0.41182,0.05571 0.82123,0.1459286 1.23633,0.1660156 3.20152,0.154923 6.3962,-0.7449506 9.28515,-2.0410156 0.62524,-0.4069 1.29761,-0.7483502 1.875,-1.2207032 1.90644,-1.559617 3.37899,-4.1405712 2.94922,-6.6601562 -0.0966,-0.566313 -0.38174,-1.08302 -0.57226,-1.625 -0.30944,-0.480773 -0.55784,-1.0073904 -0.92774,-1.4433594 -1.13634,-1.339311 -2.59038,-2.2108656 -4.18164,-2.7265626 0.91967,-1.06173 1.54191,-2.392829 1.81836,-4.207031 0.0901,-0.590981 0.0388,-1.195493 0.0586,-1.792969 -0.0948,-1.426647 -0.0584,-2.738504 -0.67187,-4.085937 -1.23326,-2.708944 -3.48293,-3.130935 -6.14063,-3.330078 -0.50328,0.0027 -1.06674,-0.01173 -1.65429,-0.0098 z m 47.875,0.128906 c -3.51426,0.01923 -7.08389,-0.03801 -10.5293,0.746094 -2.74251,0.457086 -2.09604,4.335992 0.64649,3.878906 1.48471,0.03054 2.96952,0.02686 4.45507,0.01172 -0.81516,5.461954 -0.4542,10.9713417 -0.0859,16.4511718 0.083,1.5833869 0.32097,3.1208806 0.82617,4.6191406 0.51172,2.823741 4.50586,2.1010857 3.99414,-0.7226563 0.065,-1.364605 9.8e-4,-2.7307221 0.084,-4.0957031 -0.0741,-5.437723 -0.0828,-10.898239 -0.71875,-16.304688 0.45161,-0.0052 0.90393,-0.0089 1.35547,-0.01172 2.17966,-0.05738 1.14717,-0.01492 3.09961,-0.119141 3.05643,0.01205 3.07214,-4.31021 0.0156,-4.322265 -1.97835,-0.119791 -0.93054,-0.0738 -3.14258,-0.13086 z m 14.17578,0.02148 c -1.25176,0.01932 -2.78077,-0.09542 -3.81445,0.804688 -0.94102,0.819427 -1.05752,1.888764 -1.07422,3.013672 -0.0344,2.948173 0.0722,5.888544 0.28125,8.830078 -0.0171,3.50792 -0.26714,7.0148495 -0.13672,10.5234375 0.1496,1.315845 0.0685,2.1395036 1.04492,3.2597656 1.02127,1.171674 2.8598,0.9206082 4.20898,1.0175781 3.381,0.1297241 6.77548,0.3649409 10.14454,-0.1113281 2.86477,0 2.86477,-4.0507812 0,-4.0507812 -3.36906,-0.476269 -6.76354,-0.2410522 -10.14454,-0.1113282 -0.35429,0.01303 -0.70831,0.023602 -1.0625,0.039063 -0.002,-0.0534 -10e-4,-0.1055697 0.006,-0.1523437 0.29128,-2.568584 0.36244,-5.1493027 0.40821,-7.7304687 1.12202,0.08764 2.24847,0.087579 3.37304,0.068359 2.91073,0 2.91073,-4.1171873 0,-4.1171873 -1.1189,-0.01913 -2.24102,-0.01796 -3.35742,0.06836 -0.0934,-2.420832 -0.39615,-4.828305 -0.61133,-7.240234 0.19332,0.01925 0.38683,0.03478 0.58008,0.05469 2.61951,0.177376 5.23531,0.335205 7.86133,0.300781 3.05283,0.01765 3.07627,-4.300707 0.0234,-4.318359 -2.58049,-0.0647 -5.15278,0.02667 -7.73047,-0.148438 z m -83.55078,0.08008 c -1.39003,-0.05895 -2.33838,0.283196 -4.04688,0.662109 -2.58961,1.199866 -1.4373,0.494949 -3.5039,2.041016 -1.77225,1.238998 -1.05149,3.375012 0.4082,3.90039 -0.33666,2.538191 -0.60685,5.083848 -0.78906,7.638672 -0.08,1.1218751 -0.18512,2.2444218 -0.18164,3.3691408 0.004,1.0668189 0.13422,2.1305904 0.20117,3.1953124 0.48693,1.742017 0.63229,3.1606354 1.89844,4.5371094 1.64913,1.792829 4.19513,2.3607635 6.52343,1.8203125 0.88197,-0.204723 1.68648,-0.6613845 2.5293,-0.9921875 0.77241,-0.565425 1.63029,-1.0278255 2.31641,-1.6953125 3.2269,-3.139243 4.61242,-7.9869701 4.47656,-12.3925781 -0.0359,-1.165196 -0.30455,-2.311062 -0.45703,-3.466797 -0.38252,-1.046751 -0.62962,-2.154302 -1.14844,-3.140625 -1.30785,-2.48633 -3.83003,-4.70119 -6.64453,-5.269531 -0.60561,-0.122293 -1.11869,-0.187382 -1.58203,-0.207031 z m 109.4082,0.07617 c -0.74993,0.03201 -1.47786,0.262657 -2.2168,0.394532 -0.70462,0.372381 -1.46101,0.662023 -2.11523,1.117187 -2.94784,2.050938 -4.84095,5.341627 -5.71094,8.765625 -0.20294,0.79867 -0.28911,1.624264 -0.43359,2.435547 -9.2e-4,0.860847 -0.0883,1.725518 -0.002,2.5820314 0.34764,3.451211 2.08392,6.7760231 4.85546,8.8925781 0.5117,0.390786 1.10823,0.6580271 1.66211,0.9863281 2.1946,0.873893 4.70868,0.9732155 7,0.3671875 0.49082,-0.129817 0.96123,-0.3312367 1.44141,-0.4960937 0.40454,-0.215242 0.80834,-0.4292893 1.21289,-0.6445313 2.61209,-1.386886 0.65115,-5.0821985 -1.96094,-3.6953125 -0.23409,0.123839 -0.46902,0.2492079 -0.70312,0.3730469 -0.25665,0.104382 -0.50352,0.235004 -0.76953,0.3125 -0.66677,0.194245 -2.57463,0.5355106 -3.26954,0.3535156 -0.22394,-0.05865 -0.4227,-0.1845137 -0.63476,-0.2773437 -0.78298,-0.536848 -1.23135,-0.7763332 -1.87695,-1.5488282 -1.10217,-1.31883 -2.02558,-2.9746051 -2.29102,-4.6894531 -0.0863,-0.557618 -0.0434,-1.1275431 -0.0645,-1.6914061 0.10868,-0.600278 0.17803,-1.208997 0.32617,-1.800781 0.68837,-2.750146 2.1993,-5.350134 4.43359,-7.115235 0.22026,-0.118046 0.41677,-0.306 0.66211,-0.353515 0.29201,-0.05655 0.59617,0.01274 0.89063,0.05469 1.1331,0.161425 1.7642,0.475005 2.46094,1.388672 1.2515,2.503001 4.79251,0.733469 3.54101,-1.769531 -0.91767,-1.937748 -2.61679,-3.20307 -4.69727,-3.714844 -0.56805,-0.139735 -1.15578,-0.251515 -1.74023,-0.226563 z m -123.22656,0.121094 c -0.0856,0.0024 -0.17336,0.0088 -0.26367,0.01953 -1.26169,0.05184 -2.52173,0.123089 -3.77735,0.263671 -3.78692,0.265167 -7.59793,0.212114 -11.36523,0.689453 -2.77794,0 -2.77794,3.927735 0,3.927735 1.89145,0.285751 3.79755,0.39732 5.70508,0.375 -0.28291,5.114566 -0.16779,10.24144 0.23632,15.345703 0.0884,0.736504 0.17727,1.4724804 0.26563,2.2089844 0.17817,3.320409 4.87348,3.0684549 4.69531,-0.2519532 0.009,-0.737446 0.0182,-1.4754446 0.0274,-2.2128906 -0.11627,-5.11493 -0.20276,-10.2850566 -1.08789,-15.3339846 0.67086,-0.06917 1.34072,-0.150399 2.00781,-0.24414 1.27117,-0.165879 2.5258,-0.425585 3.78125,-0.679688 2.79971,-0.334135 2.42874,-4.180943 -0.22461,-4.107422 z m 33.54687,3.81836 c 0.70714,0.109704 3.17318,0.214403 3.30469,0.222656 0.26008,0.226311 2.64775,-0.196754 2.66406,0.541016 0.003,0.107261 -0.13025,0.181056 -0.14648,0.287109 -0.11531,0.753722 -0.0383,1.524645 -0.0449,2.287109 -0.0127,0.501313 0.039,1.008567 -0.0391,1.503906 -0.29387,1.861554 -2.06887,2.670297 -3.57226,3.398438 -0.98807,0.392805 -1.62138,0.612633 -1.86133,1.03125 -0.007,-0.536805 -0.0153,-1.073069 -0.0254,-1.609375 -0.0191,-2.557201 -0.2194,-5.106588 -0.2793,-7.662109 z m -65.99218,0.06445 c 1.6439,-0.08047 3.64249,0.938895 4.76953,1.75 0.5694,0.409789 1.05481,0.925877 1.58203,1.388672 0.99748,1.301148 1.54562,1.664357 1.74219,3.404297 0.40739,3.606013 -1.5467,7.3044695 -3.05665,10.4374995 -0.52617,0.36142 -1.68918,1.2589301 -2.42382,1.4707031 -1.97273,0.568679 -2.96024,-2.0001485 -3.52539,-3.3203125 -0.19586,-0.760514 -0.46488,-1.505617 -0.58789,-2.28125 -0.65553,-4.1330161 0.15675,-8.2978581 0.1582,-12.4394531 0.0872,-0.06229 0.17809,-0.116829 0.27539,-0.162109 0.32646,-0.151925 0.68704,-0.229477 1.06641,-0.248047 z m 46.08789,0.449219 c 0.0409,-0.0014 0.0761,-0.0011 0.10742,0.002 0.48158,0.04764 0.93631,0.267975 1.37109,0.480468 1.80526,0.882297 2.50333,2.42957 3.03906,4.294922 0.12251,0.849193 0.31375,1.692509 0.36719,2.548828 0.18837,3.0190394 -0.37115,6.4969494 -2.33008,8.9218754 -0.36877,0.456496 -0.85678,0.802034 -1.28515,1.203125 -1.23144,0.762351 -1.52871,0.9394262 -2.94727,1.1289062 -0.11366,0.01518 -0.26351,0.1190314 -0.34375,0.037109 -0.53819,-0.54944 -0.5934,-2.0064973 -0.67578,-2.5195312 -0.004,-0.9021531 -0.0402,-1.8053893 -0.01,-2.7070313 0.0382,-1.12747 0.16656,-2.2499521 0.21679,-3.3769531 0.13867,-3.111286 0.14989,-6.256096 -0.19531,-9.355468 0.45329,-0.134408 2.07187,-0.636755 2.68555,-0.658203 z m 20.21875,9.830078 c 0.17899,0.5565734 0.56312,1.3196406 1.16406,2.4140621 0.17292,0.314912 0.71363,0.08614 1.07226,0.1074219 0.46639,0.02768 0.93339,0.025923 1.4004,0.039063 1.74709,-0.01076 3.49188,0.3802362 4.9121,1.4570313 0.49018,0.371658 0.71513,0.8004488 1.03711,1.2949218 0.04,0.193434 0.12566,0.3826081 0.1211,0.5800782 -0.007,0.318825 -0.33896,0.5544851 -0.51367,0.7519531 -0.49469,0.55916 -0.87997,1.1144887 -1.51758,1.5429687 -0.31343,0.210623 -0.68334,0.3185186 -1.02539,0.4785156 -2.27978,0.741482 -4.6716,1.4057493 -7.08203,1.5820313 0.0483,-0.193569 0.0762,-0.4040266 0.0762,-0.6347656 0.31103,-3.1919667 0.37764,-6.4050566 0.35547,-9.6132814 z m 107.42578,2.1542965 c 0.85971,0.05429 1.71781,0.1312828 2.5664,0.2890625 1.81864,0.419634 3.89249,1.0305163 4.6875,2.8945312 0.0844,2.09891 0.0438,2.6332757 -2.02539,3.6660157 -0.46994,0.152564 -2.04975,0.691407 -2.60547,0.78125 -0.36159,0.05846 -2.08992,0.0894297 -2.9414,0.1835937 0.005,-0.102639 0.0104,-0.2040216 0.0156,-0.3066406 0.1202,-2.356787 0.25385,-4.7140978 0.29688,-7.0742188 0.002,-0.1447404 0.004,-0.2888452 0.006,-0.4335937 z m -80.41016,0.2265625 c 0.99153,0.02327 1.97806,0.1295651 2.94336,0.3925781 0.99744,0.566711 1.67822,1.5519295 2.63086,2.1640625 0.34193,1.220369 -0.68993,2.1337443 -1.5293,2.8476563 -0.27616,0.169119 -0.53711,0.3657515 -0.82812,0.5078125 -1.95996,0.956798 -4.20487,0.8817072 -6.31641,1.0976562 -0.22486,0.02557 -0.44899,0.0504819 -0.67383,0.0761719 0.16756,-2.298332 0.34103,-4.5967607 0.37305,-6.9023437 0.14173,-0.02529 0.28406,-0.050882 0.42578,-0.076172 0.9866,-0.0699 1.98308,-0.1306939 2.97461,-0.1074218 z m -82.06055,21.867187 c -1.11184,-0.0288 -2.24366,0.839895 -2.00585,2.394532 -0.20143,2.398762 -0.32722,4.802742 -0.33594,7.210937 0.0553,5.718266 0.22407,11.452831 0.84179,17.140625 0,2.864755 4.05079,2.864755 4.05079,0 0.33697,-2.435081 0.49009,-4.880233 0.52734,-7.328125 2.01254,1.991458 4.11889,3.887416 6.20898,5.796875 0.98724,0.891507 2.04253,1.661045 2.97266,2.611328 1.91612,2.090871 4.87314,-0.620065 2.95703,-2.710937 -0.91472,-1.071761 -1.80953,-2.154332 -2.8125,-3.148438 -1.38762,-1.398675 -2.78768,-2.768977 -4.25586,-4.083984 -0.56537,-0.506383 -2.08757,-1.850946 -2.86914,-2.46875 1.68287,-1.956414 3.03517,-4.189353 4.37109,-6.402344 0.87667,-1.232813 1.67077,-2.485467 2.35157,-3.83789 1.3774,-2.557832 -2.23979,-4.505098 -3.61719,-1.947266 -0.69301,1.192906 -1.40013,2.363369 -2.41406,3.324219 -1.07448,1.458223 -2.08757,2.959097 -3.11133,4.453125 -0.0287,-0.525137 -0.0587,-1.049536 -0.0898,-1.574219 -0.33179,-2.53059 -0.27501,-5.141148 -0.86719,-7.632812 -0.18496,-1.209162 -1.03758,-1.774475 -1.90235,-1.796876 z m 98.60547,0.597657 c -0.96034,9.45e-4 -1.92125,0.680849 -1.91992,2.039062 -0.35504,0.863441 -0.34483,1.890561 -0.41797,2.798828 -0.20264,2.516582 -0.14783,1.849239 -0.3125,4.626953 -0.21495,5.241963 -0.50579,10.592084 0.57813,15.759766 0.39725,2.780708 4.32888,2.220162 3.93164,-0.560547 0.0878,-1.933381 0.1883,-3.86533 0.2793,-5.796875 2.18315,2.853186 4.77396,5.385142 7.38085,7.847656 0.34037,0.308828 0.68112,0.618909 1.02149,0.927735 2.11307,2.20131 5.22637,-0.786971 3.11328,-2.988281 -0.29355,-0.351555 -0.58731,-0.703133 -0.88086,-1.054688 -2.34835,-2.709841 -4.84769,-5.280344 -7.50781,-7.683594 2.44861,-2.362743 4.38927,-5.228869 6.23828,-8.070312 0.27668,-0.444441 0.55341,-0.887591 0.83008,-1.332031 1.77941,-2.564187 -1.84559,-5.081765 -3.625,-2.517579 -0.32663,0.424937 -0.65385,0.850454 -0.98047,1.275391 -1.77646,2.485289 -3.62022,4.919679 -5.35352,7.433594 0.0268,-1.039733 0.0446,-2.079993 0.0508,-3.121094 -0.044,-2.499186 -0.019,-2.364948 -0.13476,-4.667969 -0.0479,-0.952083 -0.0291,-1.972998 -0.36914,-2.880859 -0.002,-1.358195 -0.96153,-2.036102 -1.92188,-2.035156 z m 42.16992,1.111328 c -1.31293,0.06362 -2.58369,1.001929 -2.6582,2.859375 -0.25114,3.970268 -0.40879,7.960731 0.33399,11.896484 0,3.177188 4.49218,3.177188 4.49218,0 0.60575,-3.857697 0.715,-7.774569 0.7793,-11.671875 0.0844,-2.105105 -1.45927,-3.156081 -2.94727,-3.083984 z m -11.68945,0.804687 c -1.10592,-0.01387 -2.22,0.865539 -1.96289,2.408204 0.13744,3.01188 0.3407,6.014578 0.35156,9.029296 -0.37226,0.03702 -0.76438,0.185163 -1.15234,0.476563 -0.87217,0.715582 -1.79281,0.823655 -2.89648,0.828125 -0.20867,-0.0064 -0.42338,0.04036 -0.62696,-0.0059 -0.82879,-0.18834 -1.28249,-1.991804 -1.5,-2.578124 -0.17476,-0.628713 -0.5638,-1.929318 -0.64648,-2.59375 -0.19335,-1.553778 0.13179,-3.137558 0.043,-4.695313 0.45709,-2.742512 -3.42184,-3.388996 -3.87891,-0.646484 -0.56889,2.403484 -0.72828,4.906163 -0.24805,7.341797 0.11682,0.592517 0.31116,1.166475 0.4668,1.75 0.77241,2.423557 2.23422,4.653103 4.83594,5.30664 0.37682,0.09466 0.77246,0.09214 1.1582,0.138672 1.11497,-0.02966 2.25696,-0.06515 3.33203,-0.353516 -0.33971,1.002373 -0.71329,1.992085 -1.12304,2.964844 -0.2332,0.553607 -0.46098,1.115553 -0.7793,1.625 -0.46569,0.745295 -0.95138,1.011102 -1.625,1.503906 -1.10372,0.83571 -2.42463,0.973813 -3.75195,1.132813 -2.95609,0.250267 -2.60257,4.431908 0.35351,4.181641 2.12766,-0.130179 4.15451,-0.538075 5.95508,-1.765626 1.54198,-1.102825 1.95444,-1.22905 3.14453,-2.84375 1.55182,-2.105493 2.57916,-4.903327 3.16016,-7.423828 0.23289,-1.010296 0.32039,-2.049858 0.48047,-3.074218 0.0249,-3.684129 -0.25293,-7.364589 -1.17383,-10.945313 -0.19998,-1.199849 -1.05586,-1.750932 -1.91602,-1.761719 z m -93.11133,0.002 c -0.98215,0 -1.96289,0.69501 -1.96289,2.083984 -0.34121,2.777979 -0.0149,5.718102 1.14453,8.289062 0.28762,0.63778 0.6803,1.224051 1.01954,1.835938 1.11849,1.675955 2.53497,2.953384 4.5625,3.394531 0.64912,0.141232 1.33268,0.21942 1.99023,0.125 1.09974,-0.157914 1.70753,-0.419995 2.27734,-0.824219 0.066,1.595748 0.14554,3.192305 0.22657,4.78711 -1.5e-4,0.910576 0.1384,1.440031 -0.26954,2.232422 -0.61566,1.195896 -2.96938,2.307286 -4.06835,2.910156 -1.50697,0.595044 -3.01728,1.270884 -4.62696,1.533203 -2.8981,0.09067 -2.7692,4.190279 0.12891,4.099609 0.43272,0.009 0.86741,0.0619 1.29883,0.02734 1.93799,-0.15524 3.78593,-0.874195 5.51953,-1.705078 3.97762,-2.458417 6.24369,-4.175577 6.5664,-9.144531 0.12159,-4.105631 0.0984,-8.217197 -0.2539,-12.310547 0.01,-0.0523 0.0199,-0.103735 0.0293,-0.15625 0.14746,-0.820929 0.21869,-2.014426 0.2832,-2.822266 -0.23684,-3.051499 -0.47601,-5.397867 -4.64844,-2.228515 -0.4132,0.313859 -0.21796,1.016895 -0.26953,1.533203 -0.0663,0.663834 -0.056,1.331502 -0.084,1.998047 -0.01,0.761732 -0.0113,1.523618 -0.008,2.285156 -0.38698,0.874094 -0.8547,1.719548 -1.23633,2.439453 -0.0732,0.109051 -0.55692,0.929021 -0.8164,1.035156 -1.2386,0.506605 -2.16036,-0.447925 -2.71289,-1.421875 -0.22727,-0.384628 -0.49061,-0.748486 -0.68164,-1.152343 -0.99829,-2.110524 -1.15535,-4.480753 -1.44336,-6.759766 0,-1.388974 -0.98269,-2.083985 -1.96485,-2.083984 z m 47.31055,0.65039 c -1.49892,0.05296 -3.00659,0.420108 -4.36914,0.929688 -0.52456,0.196176 -1.02176,0.462508 -1.52344,0.71289 -0.55185,0.05116 -1.10741,0.349589 -1.5332,0.988282 -2.34763,3.147181 -3.51541,7.175959 -3.56641,11.09375 -0.0137,1.055821 0.14593,2.106759 0.21875,3.160156 0.26139,0.979524 0.42239,1.992036 0.78321,2.939453 1.07774,2.829825 3.13177,5.68696 6.06054,6.792969 0.51821,0.195695 1.07806,0.253674 1.61719,0.380859 0.53955,0.02442 1.08179,0.128523 1.61914,0.07422 3.24059,-0.327508 5.60067,-2.901515 7.06055,-5.621094 0.42663,-0.79476 0.72264,-1.652023 1.08398,-2.478516 1.54786,-4.626097 2.44982,-9.913718 0.14844,-14.482422 -0.36649,-0.727566 -0.90864,-1.351352 -1.36328,-2.027343 -0.64045,-0.501229 -1.21404,-1.103419 -1.92188,-1.503907 -1.32641,-0.750485 -2.81552,-1.011942 -4.31445,-0.958985 z m -23.4668,0.02539 c -0.84538,0.01805 -1.68817,0.11192 -2.25195,0.296875 -0.46236,0.151685 -0.88705,0.40223 -1.33008,0.603515 -0.39872,0.444883 -0.89084,0.821938 -1.19531,1.335938 -0.44646,0.753685 -0.48991,1.775693 -0.55859,2.619141 -0.18569,2.280423 -0.2796,4.56897 -0.23438,6.857421 0.12739,4.125618 0.0162,8.244189 -0.24805,12.363282 -0.68951,2.75806 3.21088,3.732669 3.90039,0.974609 0.69292,-2.379189 0.97093,-4.831739 1.11524,-7.300781 0.40271,0.20108 0.90521,0.279096 1.49414,0.169922 2.58005,-0.361864 5.24229,-1.11233 7.17578,-2.996094 0.62138,-0.605398 1.04436,-1.385246 1.56641,-2.078125 0.23834,-0.836782 0.61957,-1.644935 0.71484,-2.509766 0.39015,-3.54199 -1.70648,-6.87796 -4.51367,-8.833984 -0.52402,-0.365132 -1.13925,-0.57659 -1.70898,-0.865234 -0.55213,-0.158362 -1.09415,-0.356489 -1.65626,-0.47461 -0.5768,-0.121212 -1.42414,-0.180159 -2.26953,-0.162109 z m -0.92773,3.501953 h 0.002 0.002 v 0.002 0.002 0.002 0.002 0.002 c -0.0167,0.07204 -0.0394,0.142595 -0.0625,0.21289 -0.003,-0.0335 -0.004,-0.068 -0.006,-0.101562 -7e-5,-10e-4 -3e-5,-0.0048 0,-0.0059 0.003,-0.03486 0.0453,-0.09884 0.0625,-0.113281 z m 1.00391,0.599609 c 1.10199,0.04443 1.43533,0.07124 2.42578,0.564453 0.32131,0.217836 0.68386,0.384407 0.96289,0.654297 0.34045,0.329307 0.60287,0.732047 0.87304,1.121094 0.84054,1.210368 1.53896,2.554106 1.24805,4.097656 -0.0598,0.316902 -0.28131,0.580865 -0.42187,0.871094 -1.4593,1.264101 -3.39934,1.877523 -5.2461,2.347656 -0.20715,0.0384 -0.39551,0.09469 -0.5664,0.166016 0.0238,-0.725837 0.0492,-1.450298 0.082,-2.171875 0.0588,-2.315426 -0.0576,-4.630241 -0.28711,-6.933594 -0.0232,-0.232687 -0.0594,-0.465319 -0.0899,-0.697266 0.33595,0.04847 0.68012,-0.03322 1.01954,-0.01953 z m 23.94335,0.263672 c 0.65102,-0.0025 1.28573,0.153313 1.90626,0.583985 0.2292,0.351941 0.51743,0.6726 0.6875,1.05664 1.56424,3.532678 0.78706,7.560561 -0.11329,11.138672 -0.45208,1.222298 -0.7756,2.324425 -1.48242,3.425781 -0.27517,0.428769 -0.64227,0.789613 -0.96289,1.185547 -0.19925,0.246053 -0.35351,0.536305 -0.5957,0.740234 -0.47297,0.398247 -0.84517,0.336194 -1.41602,0.382813 -1.49497,-0.236262 -2.21514,-1.404556 -2.95508,-2.644531 -0.32752,-0.548849 -0.66705,-1.098774 -0.89648,-1.695313 -0.25809,-0.670977 -0.37118,-1.387469 -0.55664,-2.082031 -0.0775,-0.787794 -0.21675,-1.573792 -0.23242,-2.365234 -0.0551,-2.781275 0.53215,-5.537575 1.49609,-8.134766 0.0704,-0.02667 0.14125,-0.05661 0.21289,-0.08984 1.47109,-0.666773 1.27867,-0.634524 2.9082,-1.130859 0.68275,-0.207953 1.34901,-0.368548 2,-0.371094 z M 304,39 a 2.5,2.5 0 0 0 -2.5,2.5 2.5,2.5 0 0 0 2.5,2.5 2.5,2.5 0 0 0 2.5,-2.5 A 2.5,2.5 0 0 0 304,39 Z" /></g><g
         id="g441"
         transform="translate(-1.8475948e-7,0.53737126)"><path
           d="M 150.26307,78.629844 V 104.96162 H 324.37524 V 78.629844 Z"
           style="display:inline;fill:#87c186;fill-opacity:1;stroke:#000000;stroke-width:2.14954"
           id="path354" /><circle
           style="fill:#000000;fill-opacity:1;stroke-width:6.4486;paint-order:stroke fill markers"
           id="path441"
           cx="161.41379"
           cy="92.198761"
           r="3.2242994" /></g></g></g></svg>
