<?xml version="1.0" encoding="UTF-8" standalone="no"?>
<!-- Created with Inkscape (http://www.inkscape.org/) -->

<svg
   width="124"
   height="32"
   viewBox="0 0 124 32"
   version="1.1"
   id="svg1"
   xml:space="preserve"
   xmlns="http://www.w3.org/2000/svg"
   xmlns:svg="http://www.w3.org/2000/svg"><defs
     id="defs1" /><path
     d="M 1.899974,26.5 V 9.7 h 11.7 v 2.4 h -9 V 26.5 Z M 15.849953,23.8 V 12.4 l 2.7,-2.7 h 9.3 l 2.7,2.7 v 11.4 l -2.7,2.7 h -9.3 z m 2.7,0.3 h 9.3 v -12 h -9.3 z M 48.999965,9.7 v 16.8 h -2.7 V 12.04 h -6.63 l -2.61,14.46 h -4.41 v -2.46 h 2.16 l 2.61,-14.34 z m 3.030025,21 v -2.4 h 7.83 l 1.29,-4.2 h -5.13 l -4.89,-14.4 h 2.73 l 4.08,12 h 3.93 l 3.87,-12 h 2.73 l -6.72,21 z M 73.3,24.1 h 9.75 V 13.6 H 73.3 Z m 0,2.4 -2.7,-2.7 V 8.2 l 2.7,-2.7 h 12 v 2.4 h -12 v 3.3 h 10.05 l 2.4,2.4 v 10.2 l -2.7,2.7 z M 89.05002,23.8 V 12.4 l 2.7,-2.7 h 9.3 l 2.7,2.7 v 11.4 l -2.7,2.7 h -9.3 z m 2.7,0.3 h 9.3 v -12 h -9.3 z m 31.35002,2.4 h -2.7 V 12.49 l -9.66,14.01 h -3.54 V 9.7 h 2.7 v 14.01 l 9.66,-14.01 h 3.54 z m -4.71,-22.5 h 2.76 l -2.1,3.6 h -7.8 l -2.1,-3.6 h 2.76 l 0.99,1.65 h 4.5 z"
     id="text1"
     style="font-size:30px;line-height:1;font-family:Tektur;-inkscape-font-specification:Tektur;text-align:center;text-anchor:middle;fill:#ffffff;stroke-width:2;stroke-miterlimit:2"
     aria-label="голубой" /></svg>
