<?xml version="1.0" encoding="UTF-8" standalone="no"?>
<!-- Created with Inkscape (http://www.inkscape.org/) -->

<svg
   width="194"
   height="32"
   viewBox="0 0 194 32"
   version="1.1"
   id="svg1"
   xml:space="preserve"
   xmlns="http://www.w3.org/2000/svg"
   xmlns:svg="http://www.w3.org/2000/svg"><defs
     id="defs1" /><path
     d="m 1.6499966,24.1 v -12 l 2.4,-2.4 H 19.649997 l 2.4,2.4 v 12 l -2.4,2.4 H 4.0499966 Z m 2.7,-12.12 V 24.22 H 19.349997 V 11.98 Z M 13.199997,30.7 h -2.7 V 5.5 h 2.7 z m 28.349977,-4.2 h -2.7 V 12.49 l -9.66,14.01 h -3.54 V 9.7 h 2.7 v 14.01 l 9.66,-14.01 h 3.54 z m 3.449988,-2.7 V 12.4 l 2.7,-2.7 h 9.3 l 2.7,2.7 v 11.4 l -2.7,2.7 h -9.3 z m 2.7,0.3 h 9.3 v -12 h -9.3 z M 78.149974,9.7 v 16.8 h -2.7 V 12.04 h -6.63 l -2.61,14.46 h -4.41 v -2.46 h 2.16 l 2.61,-14.34 z m 3.450029,14.1 V 12.4 l 2.7,-2.7 h 11.7 V 19 h -11.7 v 5.1 h 11.1 v 2.4 h -11.1 z m 2.7,-6.9 9.12,-0.3 v -4.5 h -9.12 z M 107.4,26.5 V 12.1 h 6.45 V 9.7 h -15.6 v 2.4 h 6.45 v 14.4 z m 8.69999,-2.7 V 12.4 l 2.7,-2.7 h 9.3 l 2.7,2.7 v 11.4 l -2.7,2.7 h -9.3 z m 2.7,0.3 h 9.3 v -12 h -9.3 z M 134.25,9.7 v 16.8 h 12.6 l 2.4,-2.4 v -4.56 l -2.31,-1.8 1.71,-1.29 V 12.1 l -2.4,-2.4 z m 2.7,7.02 V 12.1 h 9 v 4.62 z m 0,7.38 v -4.98 h 9.6 v 4.98 z m 15.60002,2.4 V 9.7 h 2.7 v 4.2 h 9.75 l 2.7,2.7 v 7.2 l -2.7,2.7 z m 2.7,-2.4 h 9.75 v -7.8 h -9.75 z m 15.9,2.4 V 9.7 h 2.7 v 16.8 z m 22.19999,0 h -2.7 V 12.49 l -9.66,14.01 h -3.54 V 9.7 h 2.7 v 14.01 l 9.66,-14.01 h 3.54 z m -4.71,-22.5 h 2.76 l -2.1,3.6 h -7.8 l -2.1,-3.6 h 2.76 l 0.99,1.65 h 4.5 z"
     id="text1"
     style="font-size:30px;line-height:1;font-family:Tektur;-inkscape-font-specification:Tektur;text-align:center;text-anchor:middle;fill:#ffffff;stroke-width:2;stroke-miterlimit:2"
     aria-label="фиолетовый" /></svg>
