<?xml version="1.0" encoding="UTF-8" standalone="no"?>
<!-- Created with Inkscape (http://www.inkscape.org/) -->

<svg
   width="480"
   height="360"
   viewBox="0 0 480 360"
   version="1.1"
   id="svg1"
   xml:space="preserve"
   xmlns:xlink="http://www.w3.org/1999/xlink"
   xmlns="http://www.w3.org/2000/svg"
   xmlns:svg="http://www.w3.org/2000/svg"><defs
     id="defs1"><linearGradient
       id="linearGradient344"><stop
         style="stop-color:#204a33;stop-opacity:1;"
         offset="0"
         id="stop344" /><stop
         style="stop-color:#2b3923;stop-opacity:1;"
         offset="1"
         id="stop345" /></linearGradient><linearGradient
       xlink:href="#linearGradient344"
       id="linearGradient345"
       x1="249.50105"
       y1="325.40326"
       x2="249.64034"
       y2="359.40326"
       gradientUnits="userSpaceOnUse" /></defs><g
     id="layer6"
     style="display:inline"><g
       id="layer7"
       style="display:inline;fill:#6b00a6;fill-opacity:1"><g
         id="g342"
         transform="translate(0,-0.50000002)"
         style="display:inline"><path
           style="display:inline;fill:#dac69e;fill-opacity:1;stroke-width:6;paint-order:stroke fill markers"
           d="M -1,0.50000002 C -1,120.16668 -1,239.83334 -1,359.50002 c 5.8346282,2.34205 13.473739,0.3277 20.000001,1 153.666679,0 307.333339,0 461.000019,0 2.34205,-5.83463 0.3277,-13.47374 1,-20.00001 0,-113.33333 0,-226.66668 0,-340.00000998 -5.83463,-2.34205232 -13.47374,-0.32769891 -20,-1.00000004 -153.66668,0 -307.33334,0 -461.00002,0 l -0.70710683,0.70710681 z"
           id="path342" /><g
           id="g353"><path
             id="path431"
             style="display:inline;fill:#c7976d;stroke-width:6;paint-order:stroke fill markers"
             d="m 181.3125,241.32617 c -20.41376,0.0227 -40.82788,0.22695 -61.22656,1.07813 -15.29017,0.6318 -30.56927,1.48972 -45.851565,2.28515 -15.016573,0.73451 -30.030083,1.64597 -45.066406,1.86133 -10.887313,0.2342 -21.7751702,0.53293 -32.6660159,0.44922 -1.4142135,0 -1.4142135,2 0,2 1.1288982,0.009 2.2578838,0.0127 3.38671878,0.0137 -0.6844296,1.8615 -0.95822328,3.88937 -1.03320308,5.99805 10.1056272,0.0287 20.2097632,-0.24362 30.3125002,-0.46094 15.036323,-0.21536 30.049833,-1.12682 45.066406,-1.86133 15.282295,-0.79543 30.561395,-1.65335 45.851565,-2.28515 20.39868,-0.85118 40.8128,-1.05543 61.22656,-1.07813 25.55379,0.0534 51.10821,0.35457 76.65625,0.89649 23.12167,0.6412 46.24135,1.33052 69.35937,2.09179 16.93904,0.56248 33.87888,1.08253 50.82227,1.49414 11.34533,0.30979 22.69626,0.28239 34.04492,0.27149 9.17828,-0.0234 18.34895,-0.24729 27.51953,-0.50586 5.85228,-0.30438 11.70526,-0.60306 17.56055,-0.84375 4.2697,-0.17026 8.53932,-0.25676 12.80273,-0.55078 3.16013,-0.28383 6.33636,-0.38979 9.49415,-0.69336 0.61622,-0.059 0.9979,0.28913 1.11523,0.71094 -0.0549,-2.40206 -0.009,-4.8278 -0.0859,-7.22461 0.34766,-0.62285 -0.0387,-1.5811 -1.02929,-1.48633 -3.15779,0.30357 -6.33402,0.40953 -9.49415,0.69336 -4.26341,0.29402 -8.53303,0.38052 -12.80273,0.55078 -5.85529,0.24069 -11.70827,0.53937 -17.56055,0.84375 -9.17058,0.25857 -18.34125,0.48243 -27.51953,0.50586 -11.34866,0.0109 -22.69959,0.0383 -34.04492,-0.27149 -16.94339,-0.41161 -33.88323,-0.93166 -50.82227,-1.49414 -23.11802,-0.76127 -46.2377,-1.45059 -69.35937,-2.09179 -25.54804,-0.54192 -51.10246,-0.84308 -76.65625,-0.89649 z" /><path
             id="path343"
             style="display:inline;fill:#89684b;fill-opacity:1;stroke-width:6;paint-order:stroke fill markers"
             d="m 181.3125,249.32617 c -20.41376,0.0227 -40.82788,0.22695 -61.22656,1.07813 -15.29017,0.6318 -30.56927,1.48972 -45.851565,2.28515 -15.016573,0.73451 -30.030083,1.64597 -45.066406,1.86133 -10.887313,0.2342 -21.7751702,0.53293 -32.6660159,0.44922 -1.4142135,0 -1.4142135,2 0,2 1.1288982,0.009 2.2578838,0.0127 3.38671878,0.0137 C -2.2599391,262.85745 -0.35255283,270.34627 -1,276.79883 V 359.5 c 5.8346282,2.34205 13.473738,0.3277 20,1 h 461 c 2.34205,-5.83463 0.3277,-13.47373 1,-20 -0.2679,-29.14358 0.53297,-58.54108 -0.39844,-87.52734 0.34766,-0.62285 -0.0387,-1.5811 -1.02929,-1.48633 -3.15779,0.30357 -6.33403,0.40953 -9.49415,0.69336 -4.26343,0.29402 -8.53303,0.38052 -12.80273,0.55078 -5.85529,0.24069 -11.70827,0.53937 -17.56055,0.84375 -9.17058,0.25857 -18.34125,0.48243 -27.51953,0.50586 -11.34866,0.0109 -22.69959,0.0383 -34.04492,-0.27149 -16.94339,-0.41161 -33.88324,-0.93166 -50.82227,-1.49414 -23.11802,-0.76127 -46.2377,-1.45059 -69.35937,-2.09179 -25.54804,-0.54192 -51.10246,-0.84308 -76.65625,-0.89649 z m -16.04102,2.28321 c -26.7494,0.1345 -53.46688,1.36482 -80.187496,2.54296 11.692768,-0.61896 23.384346,-1.26662 35.083986,-1.75 15.02694,-0.627 30.06599,-0.68285 45.10351,-0.79296 z" /><path
             id="path440"
             style="display:inline;fill:#855420;fill-opacity:1;stroke-width:4.42532;paint-order:stroke fill markers"
             d="m -1.0351562,261.31641 c -0.067149,0.69801 -0.1044359,1.40651 -0.1210938,2.125 9.2835275,0.44199 18.59141,0.77061 27.882812,1.15429 13.785706,0.59756 27.587489,1.07615 41.396485,1.48828 0.353273,-0.69734 0.703531,-1.39653 1.052734,-2.0957 -14.052773,-0.41739 -28.09714,-0.90168 -42.125,-1.50976 -9.360345,-0.38654 -18.7341934,-0.71984 -28.0859372,-1.16211 z m 481.9238262,3.23828 c -3.0272,0.0778 -6.05754,0.15274 -9.08789,0.18359 -9.97005,0.0989 -19.94186,0.13523 -29.91211,0.23047 -3.40802,0.0292 -6.81676,0.0598 -10.22461,0.0918 0.29892,0.70575 0.60158,1.41111 0.9043,2.11523 0.68058,-0.006 1.36044,-0.0133 2.04102,-0.0195 0.0156,0.0879 0.0481,0.1798 0.10351,0.27539 0.47292,1.3093 0.6629,2.64067 0.86328,3.9668 0.18291,1.13115 0.27659,2.26463 0.33203,3.39844 1.28851,2.89906 2.58851,5.79338 3.87696,8.69335 5.62014,0.0316 11.23878,0.0644 16.85937,0.0918 5.63825,0.0267 11.27765,0.0463 16.91602,0.0645 2.47458,0.008 4.94757,0.0151 7.42187,0.0215 -10e-4,-0.70791 -0.005,-1.41536 -0.008,-2.12305 -2.46378,-0.006 -4.92721,-0.0136 -7.39063,-0.0215 -5.63399,-0.0181 -11.26849,-0.0378 -16.90234,-0.0645 -5.51061,-0.0269 -11.02074,-0.0587 -16.53125,-0.0898 0.20365,-0.186 0.30979,-0.42059 0.26172,-0.70117 -0.0598,-0.34704 -0.12488,-0.69495 -0.23242,-1.03906 -0.0402,-0.12469 -0.10549,-0.23483 -0.19141,-0.33399 0.0836,-0.12761 0.12943,-0.27313 0.12695,-0.43554 -0.0169,-1.10588 -0.005,-0.54292 -0.0273,-1.69141 -0.0473,-1.98 -0.10675,-3.96112 -0.42578,-5.93555 -0.20819,-1.37452 -0.39136,-2.75825 -0.90234,-4.11328 1.06596,-0.009 2.1313,-0.0181 3.19726,-0.0273 9.97376,-0.0951 19.95024,-0.1336 29.92383,-0.23242 3.01638,-0.0307 6.03018,-0.10273 9.04297,-0.17969 -0.0111,-0.70846 -0.0225,-1.41692 -0.0352,-2.125 z M -1,280.19141 v 2.1289 c 2.9700426,0.0394 5.9407649,0.13817 8.9023438,0.22266 12.5729322,0.42316 25.1263962,0.97967 37.7011722,1.38867 2.936432,0.0954 5.872565,0.18053 8.810546,0.25781 0.0568,0.51887 0.07424,1.03945 0.101563,1.5586 0.06544,1.41733 0.103576,2.83433 0.134766,4.25195 0.01549,0.4885 0.02106,0.97624 0.02539,1.46484 1.652564,-3.09338 3.318134,-6.1807 4.978516,-9.27148 C 55.05411,282.08728 50.456012,281.9618 45.859375,281.8125 33.274011,281.40335 20.708616,280.84643 8.125,280.42383 5.0918354,280.3375 2.0456716,280.22965 -1,280.19141 Z m 0,16.61718 v 2.12696 c 3.981279,0.14753 7.9689905,0.26046 11.951172,0.38867 12.897315,0.42043 25.809089,0.69529 38.728516,0.83398 0.370807,0.003 0.742473,0.005 1.113281,0.008 -0.144024,-0.22323 -0.231088,-0.51082 -0.244141,-0.88282 0.214381,-0.41228 0.429155,-0.82446 0.644531,-1.23632 -0.476618,-0.004 -0.953096,-0.008 -1.429687,-0.0117 -12.86288,-0.13783 -25.717735,-0.41161 -38.558594,-0.83008 C 7.1380102,297.07403 3.0656572,296.96128 -1,296.80859 Z m 453.74805,1.35547 c -2.22213,0.004 -4.44433,0.0157 -6.66602,0.0332 0.0111,0.0276 0.024,0.0564 0.0352,0.084 0.0968,0.59863 0.40253,1.30384 0.70117,2.0332 1.98011,-0.0145 3.9609,-0.0243 5.94141,-0.0273 5.10339,0.006 10.20734,0.0351 15.31054,0.0566 3.64245,0.0152 7.28523,0.0264 10.92774,0.0371 0.67894,0.002 1.35798,0.002 2.03711,-0.002 8.7e-4,-0.20523 9.5e-4,-0.41004 0.002,-0.61524 0.002,-0.5035 -0.008,-1.00435 -0.006,-1.50781 -0.67018,0.004 -1.33992,0.004 -2.00977,0.002 -3.63918,-0.0107 -7.2769,-0.0219 -10.91601,-0.0371 -5.11837,-0.0215 -10.23887,-0.0503 -15.35742,-0.0566 z M -1,313.01758 v 2.12305 c 1.3501526,0.0184 2.7006717,0.0373 4.0507812,0.0527 0.8330411,0.009 1.6649809,0.017 2.4980469,0.0254 v 1.86914 3.73633 3.21875 2.48047 1.03906 c 0,0.53207 0.5164687,0.87444 1.1816407,1.0293 C 4.1533564,328.54419 1.5746657,328.49419 -1,328.41797 v 2.13086 c 3.8853541,0.11285 7.7806144,0.16447 11.662109,0.24023 14.104023,0.2437 28.213222,0.40008 42.322266,0.54883 0.01333,-0.70895 0.0326,-1.41626 0.05664,-2.12305 -14.075559,-0.14819 -28.151758,-0.30387 -42.222657,-0.54687 -0.8289674,-0.0162 -1.6586606,-0.0318 -2.4882809,-0.0469 0.7310993,-0.13842 1.3183594,-0.48995 1.3183594,-1.05859 v -1.03711 -2.48242 -3.21875 -3.73633 -1.83008 c 6.6532785,0.0579 13.3069975,0.0954 19.9609375,0.12696 5.945424,0.006 11.889108,0.0623 17.832031,0.14453 -0.0081,-0.70515 -8.73e-4,-1.41537 0.01367,-2.125 -5.934503,-0.0821 -11.869804,-0.13684 -17.80664,-0.14258 -8.836309,-0.0419 -17.673011,-0.0945 -26.507813,-0.19141 -1.3801946,-0.016 -2.76048101,-0.0339 -4.140625,-0.0527 z m 481.9707,1.58008 c -3.01995,0.0349 -6.04148,0.0742 -9.06054,0.125 -5.09063,0.0837 -10.18075,0.18182 -15.27149,0.26367 -2.86206,0.0335 -5.72391,0.0746 -8.58594,0.10937 -0.002,0.70857 -0.0111,1.41673 -0.0293,2.12305 2.90315,-0.0355 5.80603,-0.0773 8.70898,-0.11133 5.10322,-0.0818 10.20549,-0.17783 15.3086,-0.26172 1.17816,-0.0198 2.35487,-0.0398 3.5332,-0.0566 0.003,0.019 0.008,0.0391 0.0117,0.0586 0.14875,0.99089 0.18378,1.98526 0.23437,2.97851 0.0751,1.6397 0.10555,3.27987 0.13477,4.91992 0.0242,1.42852 0.0425,2.85661 0.0586,4.28516 9.9e-4,0.26761 -8.3e-4,0.53541 0.002,0.80273 -0.1879,-0.0197 -0.39326,-0.0287 -0.61328,-0.0254 -2.8662,0.0438 -5.73103,0.0908 -8.59765,0.12696 -5.68872,0.0602 -11.38136,0.0666 -17.07031,0.12304 -2.47454,0.0201 -4.94924,0.0444 -7.42383,0.0645 0.0704,0.70656 0.13349,1.41476 0.18945,2.12304 2.43318,-0.02 4.86581,-0.0447 7.29883,-0.0644 5.69544,-0.0562 11.39269,-0.063 17.08789,-0.12305 2.87912,-0.0363 5.75802,-0.083 8.63672,-0.12695 0.28869,-0.004 0.54833,-0.0309 0.77734,-0.0723 0.80884,1.0913 4.17818,0.80145 3.92383,-0.56055 -0.14945,-0.75764 -0.0908,-1.51875 -0.11133,-2.2793 -0.0162,-1.43093 -0.0344,-2.86207 -0.0586,-4.29297 -0.0294,-1.65218 -0.0609,-3.30325 -0.13672,-4.95508 -0.0517,-1.01174 -0.0842,-2.02584 -0.23633,-3.03515 0.4268,-0.005 0.85443,-0.0106 1.28125,-0.0156 0.003,-0.7076 0.005,-1.41537 0.008,-2.12304 z M -1,343.49414 v 2.13281 c 7.8708752,0.34822 15.75495,0.63392 23.626953,0.95899 10.144112,0.4397 20.297258,0.81485 30.455078,1.14648 -0.002,-0.70854 -0.007,-1.41901 -0.01367,-2.1289 C 43.02296,345.27437 32.982493,344.90359 22.951172,344.46875 14.969743,344.13915 6.9788844,343.84711 -1,343.49414 Z m 479.19531,3.01563 c -3.49635,0.0898 -6.99561,0.1831 -10.49609,0.21875 -8.19837,0.0813 -16.39727,0.11934 -24.5957,0.18359 0.0214,0.70793 0.0445,1.41574 0.0703,2.12305 8.20164,-0.0647 16.40414,-0.10429 24.60547,-0.18555 3.542,-0.036 7.07934,-0.12993 10.61718,-0.2207 2.89577,-0.0743 2.69462,-2.19346 -0.20117,-2.11914 z" /></g></g><g
         id="g345"
         style="display:inline"><g
           id="layer8"
           style="display:inline;fill:#6b00a6;fill-opacity:1"><path
             style="fill:#41a96e;fill-opacity:1;stroke-width:3;paint-order:stroke fill markers"
             d="m 346.99709,205.12989 c -25.3473,-0.23315 -50.6516,1.62975 -75.97169,2.04395 -55.90089,-0.86602 -111.86861,-0.76482 -167.73454,-1.75623 -2.73636,0.32146 -6.12705,-1.12469 -8.469567,0.32459 -6.063209,13.39906 -12.313166,26.87412 -17.734376,40.61523 -7.540901,18.05916 -17.501421,35.04616 -26.538087,52.42481 0.09644,2.74853 4.186353,0.97709 6.084962,1.47266 21.515358,1.02596 43.123465,2.52075 64.702328,3.26139 15.11752,0.48193 30.11717,2.33757 45.2171,3.05445 32.90007,0.89875 65.89796,0.33664 98.74953,1.44685 15.43243,0.51914 30.89761,-0.63919 46.30874,-1.50728 37.86407,-2.23896 75.84187,-2.46658 113.78005,-2.53466 7.06523,-0.16786 14.22551,0.79173 21.23641,-0.10064 2.05611,-1.41993 -0.21549,-4.26221 -0.51172,-6.09472 -6.40593,-15.86453 -14.19702,-31.1021 -19.96773,-47.22272 -5.59477,-13.89478 -11.0135,-27.89438 -17.25688,-41.50483 -3.83894,-1.40761 -8.30579,-0.9913 -12.3684,-1.66839 -16.47248,-1.72522 -32.95876,-2.63573 -49.52613,-2.25446 z"
             id="path268" /><path
             style="fill:#3a8459;fill-opacity:1;stroke-width:3;paint-order:stroke fill markers"
             d="m 50.748049,303.6338 c -2.044271,-0.57878 -3.511088,1.17421 -3.178711,3.125 0.06808,4.33502 -0.483845,8.85906 0.273438,13.06934 26.147495,2.57598 52.607054,2.67569 78.853104,4.2569 51.34257,1.98553 102.74286,2.27648 154.11473,1.43698 36.18613,-0.69321 72.38088,-0.57857 108.56894,-0.97121 15.31024,-0.58787 30.51166,-2.20544 45.84302,-2.38304 4.16107,-0.36476 8.55343,0.0843 12.56065,-0.89725 0.37358,-4.57871 0.3434,-9.43758 0.01,-14.00301 -2.623,-1.24751 -6.29159,-0.0807 -9.3102,-0.39027 -46.84279,1.06432 -93.79132,0.55164 -140.5296,3.9323 -29.19716,1.22619 -58.46662,0.12133 -87.69211,0.0159 -21.71397,-0.4019 -43.44996,-0.0227 -65.03586,-2.35966 -27.11835,-2.03389 -54.317019,-2.49938 -81.439089,-4.40445 -4.343208,-0.20596 -8.688906,-0.43118 -13.038162,-0.42753 z"
             id="path269" /><path
             id="path271"
             style="fill:#41a96e;fill-opacity:1;stroke-width:6;paint-order:stroke fill markers"
             d="m 54.515625,323.91992 c -0.428326,0.002 -0.844569,0.0734 -1.232422,0.29883 -0.630548,8.2507 -0.151796,16.73469 -0.205078,25.07813 0.251127,3.00272 -0.31431,6.28442 0.744141,9.11914 -0.699022,0.0484 -1.39893,0.0805 -2.09961,0.084 -2.828427,0 -2.828427,4 0,4 1.503358,-0.006 3.004365,-0.13253 4.5,-0.27539 1.534447,-0.13571 3.053057,-0.40588 4.580078,-0.60352 1.052934,-0.1111 2.092119,-0.31576 3.136719,-0.48437 2.500627,-0.40396 2.249249,-3.61316 0.164063,-3.95508 0.158423,-10.47961 0.266894,-21.07826 -0.419922,-31.56641 -1.468093,-2.05252 -4.793199,-1.05784 -7.001953,-1.55664 -0.704132,0.0402 -1.452139,-0.14252 -2.166016,-0.13867 z" /><path
             id="path273"
             style="display:inline;fill:#41a96e;fill-opacity:1;stroke-width:6;paint-order:stroke fill markers"
             d="m 440.55273,325.4043 c -0.0422,0.001 -0.0841,0.004 -0.12695,0.01 -2.51119,0.68168 -5.2584,-0.11839 -7.67969,0.68164 -0.5726,10.62962 -0.0812,21.45092 -0.24609,32.1543 0.0732,0.0898 0.15011,0.17299 0.23047,0.25 h -2.0625 c -2.82843,0 -2.82843,4 0,4 h 4.00391 5.32617 2.86718 c 2.69335,0 2.82282,-3.62623 0.38672,-3.97266 0.68496,-1.31326 -0.0169,-3.91311 0.14258,-5.37695 -0.54786,-8.88995 -0.24708,-17.89163 -1.45898,-26.71094 -0.19388,-0.59428 -0.74949,-1.05613 -1.38282,-1.03515 z" /><g
             id="g336"
             style="display:inline"><g
               id="g340"
               style="display:inline;fill:#6b00a6;fill-opacity:1"><path
                 style="fill:#1a4429;fill-opacity:1;stroke-width:3;paint-order:stroke fill markers"
                 d="M 130.2461,-0.40722658 C 129.69693,10.181294 130.11603,20.96047 130.10675,31.622997 c 0.53407,29.877116 2.19187,59.703842 2.54548,89.582643 0.50969,3.64551 -0.92648,8.96533 3.1925,10.97015 10.39216,5.04116 22.35466,4.32994 33.58801,5.16547 35.03834,1.57123 70.15937,0.67762 105.18739,1.25054 24.2101,0.49886 48.44613,0.41181 72.65018,-0.30506 4.27416,-0.0436 7.84375,-2.97654 9.34592,-6.87951 5.96009,-13.59979 4.27856,-28.83471 4.57098,-43.274336 -0.45283,-26.411981 -0.64763,-52.851003 -2.22215,-79.2249491 -0.43484,-3.1270831 -0.0524,-6.4972924 -1.04903,-9.45872617 -15.63528,-0.46566233 -31.41058,-0.0657975 -47.09961,-0.19921876 -59.9388,0 -119.87761,0 -179.81641,0 l -0.45517,0.2069459 z"
                 id="path338" /><path
                 style="fill:#235d43;fill-opacity:1;stroke-width:3;paint-order:stroke fill markers"
                 d="M 27.226564,-0.40722658 C 27.42512,5.0507002 28.243118,10.772329 28.468151,16.330457 c 1.369901,19.984582 3.561611,39.88785 3.386309,59.924296 0.06904,21.126566 0.0583,42.271367 -1.608273,63.297477 0.190395,2.98835 -0.754417,7.78162 2.740142,9.17727 10.81095,-1.54618 21.214777,-5.21325 32.000069,-6.90668 13.199115,-2.01604 26.083866,-5.59923 38.919392,-9.19806 5.16318,-1.87612 10.85272,-3.03681 15.39891,-6.19897 1.58077,-4.03361 0.57061,-8.67136 0.97733,-12.9198 0.22377,-20.611491 -1.01956,-41.202572 -0.9332,-61.816128 -0.17374,-17.147472 -0.2735,-34.295609 -0.34882,-51.44376824 -1.80494,-2.19810086 -5.82309,-0.42503959 -8.50001,-0.99609379 -27.506506,0 -55.013019,0 -82.51953,0 l -0.455163,0.2069459 z"
                 id="path339" /><path
                 style="fill:#235d43;fill-opacity:1;stroke-width:3;paint-order:stroke fill markers"
                 d="M 371.66115,-0.40722658 C 371.3357,8.8434939 372.21,18.253817 372.12479,27.579037 c 0.34151,25.629465 0.0656,51.246601 -1.27119,76.834773 -0.10609,8.21216 -0.87035,16.50463 -0.33405,24.67995 3.18442,3.33263 8.20456,4.16328 12.31151,5.97255 22.30497,8.00162 45.77597,11.99368 68.4297,18.6671 2.62471,0.53984 6.33717,2.87035 8.23633,-0.18555 4.08795,-5.69589 3.2539,-13.24269 3.96496,-19.86558 0.68046,-29.13585 0.65326,-58.295482 0.13563,-87.434231 -1.11054,-15.101408 -0.55782,-30.407245 -1.50773,-45.56226137 -0.93549,-2.92631213 -5.25338,-0.78263811 -7.60946,-1.43578766 -27.35515,0 -54.71029,0 -82.06543,0 l -0.45517,0.2069459 z"
                 id="path340" /></g><g
               id="g337"><path
                 id="path275"
                 style="fill:#85876d;fill-opacity:1;stroke-width:6;paint-order:stroke fill markers"
                 d="m 358.59961,-2.53125 c -0.49985,0.012119 -0.9898,0.3770852 -0.97266,1.0839844 0.0262,1.08183368 0.0533,2.16279171 0.0957,3.2441406 0.072,1.7542545 0.15852,3.5088959 0.29101,5.2597656 0.15999,2.0816828 0.36337,4.1597224 0.53711,6.2402344 0.13581,2.203414 0.24813,4.406456 0.3125,6.613281 0.0919,2.093261 0.20447,4.187029 0.17969,6.283203 0.0125,2.058122 0.028,4.115881 0.0586,6.173829 0.0304,1.957123 0.0699,3.914707 0.13282,5.871093 0.0678,2.171056 0.14681,4.341685 0.24218,6.511719 0.0587,2.082505 0.0159,4.164916 0.0312,6.248047 0.002,1.782759 0.003,3.566856 0.008,5.349609 0.005,1.574065 0.0107,3.146666 0.0215,4.720703 0.011,1.550213 0.0235,3.100364 0.0508,4.650391 0.0274,1.447925 0.062,2.896648 0.11914,4.34375 0.067,1.64464 0.14929,3.287852 0.26758,4.929688 0.13507,1.773713 0.32195,3.545441 0.41016,5.322265 0.0805,1.456116 0.20509,2.909904 0.20507,4.369141 0.0304,1.518654 0.0683,3.036563 0.11914,4.554687 0.0636,1.885075 0.1406,3.769331 0.20704,5.654297 0.0348,1.628217 -0.009,3.256786 -0.0449,4.884766 -0.0111,0.389156 -0.0224,0.778766 -0.0351,1.167966 -0.0542,0.12517 -0.0887,0.27109 -0.0957,0.4375 -0.005,0.1209 -0.009,0.2405 -0.0156,0.36133 -0.0159,0.28424 -0.0369,0.56953 -0.0566,0.85352 -0.0196,0.38105 -0.0213,0.76134 -0.0371,1.14257 -0.0176,0.4833 -0.0389,0.96618 -0.0625,1.44922 -0.0227,0.57279 -0.0292,1.14786 -0.0508,1.72071 -0.0218,0.64549 -0.0539,1.28996 -0.0723,1.93554 -0.0211,0.72608 -0.0438,1.45233 -0.082,2.17774 -0.0441,0.78933 -0.0974,1.57746 -0.18555,2.36328 -0.0964,0.83959 -0.20366,1.67914 -0.32421,2.51562 -0.12875,0.84835 -0.26949,1.69426 -0.40821,2.54102 -0.1353,0.82907 -0.24562,1.66166 -0.37109,2.49219 -0.14826,0.89606 -0.3057,1.79041 -0.52734,2.67187 -0.21671,0.89438 -0.43435,1.78945 -0.68946,2.67383 -0.24565,0.83977 -0.49347,1.67975 -0.81054,2.49609 -0.27808,0.71623 -0.56708,1.42918 -0.91016,2.11719 -0.31066,0.60312 -0.63518,1.19998 -1.00781,1.76758 -0.36085,0.55253 -0.73891,1.09353 -1.13282,1.62305 -0.26145,0.34556 -0.52903,0.68739 -0.80273,1.02343 -0.41713,0.31531 -0.84353,0.6197 -1.29102,0.89063 -0.52797,0.29175 -1.06695,0.56575 -1.63281,0.77734 -0.60817,0.2235 -1.2334,0.38801 -1.86914,0.51367 -0.62802,0.11875 -1.26014,0.19677 -1.89648,0.25586 -0.60948,0.0677 -1.21906,0.13709 -1.83008,0.18946 -0.59524,0.0448 -1.19116,0.0997 -1.78711,0.13476 -0.53599,0.0272 -1.07046,0.0586 -1.60742,0.0527 h -1.3418 -1.11719 -0.70508 c -0.0439,0 -0.0858,0.002 -0.12695,0.006 -0.49439,-0.036 -0.98947,-0.0713 -1.48437,-0.0996 -1.45424,-0.0596 -2.91007,-0.0159 -4.36524,-0.0293 -1.52733,4.2e-4 -3.05469,8.5e-4 -4.58203,0.002 -1.53098,0.001 -3.06277,0.003 -4.59375,0.006 -1.97865,0.003 -3.9569,0.005 -5.93555,0.01 -2.10771,0.005 -4.21458,0.0123 -6.32226,0.0254 -2.15712,0.014 -4.31565,0.0301 -6.47266,0.0566 -2.49883,0.0307 -4.99802,0.0613 -7.49609,0.13281 -1.43188,0.0461 -2.87177,0.0659 -4.29297,0.25977 -0.17033,0.0341 -0.31354,0.0923 -0.43164,0.16992 -1.8269,-0.13121 -3.65259,-0.26724 -5.48047,-0.38477 -2.67983,-0.11895 -5.36199,-0.1823 -8.04102,-0.32226 -2.39508,-0.10402 -4.79104,-0.15451 -7.1875,-0.2168 -2.48805,-0.0747 -4.97621,-0.17934 -7.46484,-0.23242 -2.4381,0.002 -4.87635,0.005 -7.31445,0.01 -2.22363,0.004 -4.44631,0.009 -6.66992,0.0195 -2.19056,0.0109 -4.38179,0.0248 -6.57227,0.0469 -2.05395,0.0221 -4.10888,0.0485 -6.16211,0.10938 -1.88293,0.0585 -3.76407,0.12923 -5.64453,0.24414 -2.01401,0.12557 -4.03151,0.2942 -6.05078,0.2539 -1.84843,-0.0842 -3.6942,-0.2033 -5.53711,-0.37109 -1.8114,-0.14825 -3.62619,-0.24975 -5.44141,-0.33984 -1.79676,-0.0703 -3.59503,-0.0489 -5.39258,-0.0937 -1.9239,-0.037 -3.84845,-0.0805 -5.77148,-0.15039 -1.95871,-0.0717 -3.91618,-0.17117 -5.875,-0.23829 -1.86421,-0.001 -3.72759,-0.003 -5.5918,-0.006 -2.05774,-0.003 -4.11609,-0.006 -6.17383,-0.0117 -1.95241,-0.007 -3.90504,-0.0165 -5.85742,-0.0312 -1.76526,-0.0149 -3.52993,-0.0328 -5.29492,-0.0684 -1.69797,-0.0362 -3.39523,-0.0821 -5.0918,-0.16211 -1.76991,-0.085 -3.54027,-0.19335 -5.30468,-0.35938 -1.63675,-0.16278 -3.26923,-0.38309 -4.91407,-0.44726 -1.39703,-0.028 -2.79322,-0.063 -4.18945,-0.11914 -1.31848,-0.0556 -2.63758,-0.11528 -3.94922,-0.26758 -1.18796,-0.14312 -2.37179,-0.32079 -3.55078,-0.52539 -1.09554,-0.14569 -2.18511,-0.33289 -3.25195,-0.62696 -1.18124,-0.3218 -2.36428,-0.64046 -3.53321,-1.0039 -1.06194,-0.32198 -2.08695,-0.747 -3.1289,-1.12696 -0.92057,-0.34295 -1.8098,-0.75054 -2.53125,-1.4375 -0.69116,-0.68817 -1.10436,-1.51714 -1.38086,-2.45312 -0.19397,-0.56062 -0.35091,-1.13473 -0.49414,-1.71094 -0.0106,-0.33973 -0.0164,-0.67944 -0.0195,-1.01953 -0.0209,-1.94506 0.0684,-3.88995 0.12304,-5.83398 0.0649,-1.84419 0.18216,-3.68741 0.15625,-5.53321 -0.0251,-2.08359 -0.0538,-4.16667 -0.0957,-6.25 -0.0542,-2.66106 -0.11899,-5.32268 -0.2207,-7.98242 -0.11128,-2.821824 -0.26385,-5.642044 -0.39649,-8.462889 -0.084,-2.8957 -0.1938,-5.789042 -0.31054,-8.683594 -0.0939,-2.997696 -0.096,-5.998283 -0.19141,-8.996094 -0.0881,-3.03616 -0.19338,-6.072323 -0.35742,-9.105469 -0.16803,-3.166508 -0.31764,-6.332218 -0.41211,-9.501953 -0.11545,-3.022401 -0.16342,-6.046613 -0.23438,-9.070312 -0.0889,-3.130411 -0.20231,-6.260776 -0.35742,-9.388672 -0.15668,-3.327856 -0.32005,-6.657397 -0.25195,-9.990235 0.0283,-2.844892 0.0618,-5.688956 0.13086,-8.533203 0.065,-2.484119 0.15289,-4.967823 0.24219,-7.451171 0.0514,-2.2510311 0.0192,-4.502405 0.0273,-6.7539068 V 0.16796875 c 0,-0.42773383 -0.18226,-0.7255366 -0.4375,-0.89453125 -0.19145,-0.2935763 -0.54433,-0.4920474 -1.0332,-0.4238281 -0.46697,0.067686 -0.9378,0.095773 -1.40821,0.1308594 -0.88785,0.0454831 -1.77734,0.00545 -2.66601,0.019531 h -2.30078 c -1.41421,0 -1.41421,1.99999993 0,2 h 1.62109 c -1.0048,5.6497535 -0.46798,11.5494562 -0.69922,17.2988282 -0.11189,22.847662 -0.32699,45.716027 0.91992,68.535156 0.63545,13.654796 0.39787,27.361386 1.36719,41.001956 0.44865,4.46691 3.74186,8.02973 7.72656,9.80078 0.54949,0.28057 1.39181,0.76807 2.14454,0.93359 0.17575,0.16417 0.42718,0.27149 0.7539,0.27149 0.45327,0.0602 0.90201,0.17278 1.34766,0.27539 0.76904,0.18476 1.53312,0.38436 2.29687,0.58984 0.60448,0.16243 1.20854,0.33106 1.81641,0.48047 0.2436,0.0589 0.48772,0.11389 0.73242,0.16797 0.21531,0.0475 0.4064,0.0416 0.57227,-0.006 0.17437,0.22358 0.45481,0.38098 0.85156,0.40234 11.80281,1.71076 23.78787,1.485 35.68164,1.96875 38.63966,0.90456 77.28489,1.76312 115.9375,1.7168 16.86151,-0.17945 33.68279,1.07596 50.54297,0.28711 5.83912,-0.40808 12.56265,-3.05192 14.42187,-9.15039 2.9473,-8.96334 4.80362,-18.31531 5.64649,-27.70899 0.96181,-15.276333 0.0165,-30.619151 -0.89063,-45.832027 -1.02472,-20.074791 0.49899,-40.144898 0.62891,-60.2265626 -0.0373,-0.5812168 0.0968,-1.41448215 -0.0937,-2.00585935 0.95079,-0.48950585 0.55405,-2.06694295 -0.70117,-1.85351565 -0.50626,0.088894 -1.01911,0.14267 -1.53321,0.1582032 -0.94932,0.053742 -1.89801,0.1168755 -2.84375,0.2167968 -0.59418,0.066218 -1.18506,0.1475919 -1.77539,0.2402344 -4.7e-4,-0.019507 -10e-4,-0.039087 -0.002,-0.058594 -0.0172,-0.7068989 -0.52554,-1.0472749 -1.02539,-1.0351562 z" /><path
                 id="path301"
                 style="display:inline;fill:#a4a58c;fill-opacity:1;stroke-width:6;paint-order:stroke fill markers"
                 d="m 26.513672,-3.0820312 c -0.56246,0.011086 -1.113041,0.4758122 -0.957031,1.2558593 0.10575,0.4321861 0.183901,0.86902087 0.248047,1.30859378 -0.632615,-0.26819313 -1.5118,0.15824845 -1.384766,1.11328124 0.0075,0.0560209 0.01403,0.11194789 0.02148,0.16796876 0.05588,0.41832462 0.103807,0.83733722 0.158203,1.25585932 0.06427,0.5385998 0.128047,1.0788218 0.208985,1.6152344 0.08639,0.6046812 0.18308,1.2075365 0.267578,1.8125 0.08402,0.5727859 0.162098,1.1466318 0.220703,1.7226563 0.05571,0.5435881 0.108899,1.0877499 0.148437,1.6328125 0.0384,0.4951045 0.06497,0.9912183 0.103516,1.4863276 0.0351,0.529326 0.07533,1.058808 0.152344,1.583985 0.07564,0.495805 0.171818,0.986713 0.296875,1.472656 0.05262,0.210923 0.03566,0.140489 0.08203,0.349609 0.0091,0.04112 0.01864,0.08379 0.02734,0.125 0.0049,0.02334 0.0043,0.04642 0.01367,0.06836 v 0.002 h 0.002 v -0.002 -0.002 c 8.03e-4,-0.0062 0.0018,-0.01941 0.002,-0.02539 0.0022,0.01681 0,0.03382 0,0.05078 0,0.73734 0.544029,1.092072 1.064453,1.060547 0.18978,2.518117 0.293383,5.041515 0.435547,7.5625 0.142185,2.747649 0.391051,5.486478 0.611328,8.228516 0.177429,2.194608 0.383002,4.386452 0.609375,6.576172 -0.642442,-0.06024 -1.324715,0.510228 -1.037109,1.373047 0.07099,0.175591 0.122574,0.356959 0.166015,0.541015 0.08825,0.402344 0.170283,0.805001 0.240235,1.210938 0.02962,0.17504 0.05185,0.351276 0.07422,0.527344 0.02341,0.183712 0.07789,0.338733 0.154297,0.466796 -0.170779,0.289212 -0.212386,0.664811 -0.15625,1.001954 0.45644,8.541198 0.35226,17.10579 0.572266,25.662109 0.125832,6.22295 0.451389,12.442212 0.414063,18.662109 0.02649,2.329121 -0.04316,4.661469 0.06641,6.988282 0.0037,0.184497 0.06143,0.355714 0.15625,0.501953 -0.186413,0.251846 -0.276486,0.577776 -0.181641,0.933593 -0.873723,14.903383 -2.505013,29.847063 -3.212891,44.796873 0.180611,3.55337 0.212296,7.41772 2.150391,10.5293 2.173647,2.98794 6.344586,2.63753 9.595703,2.38086 9.319336,-0.95676 18.568463,-2.58576 27.736328,-4.49414 6.233835,-1.64895 12.362224,-3.79518 18.644532,-5.15626 11.307028,-2.74034 22.960325,-4.82428 33.589845,-9.76367 2.1775,-1.29062 4.65844,-2.45661 6.20312,-4.51562 -0.0245,-2.28808 -0.39708,-4.68628 -0.39453,-6.98047 -0.57718,-17.95901 -0.52544,-35.959426 -1.77343,-53.896482 0.24276,-0.207099 0.38992,-0.541295 0.3164,-0.982422 -0.044,-0.332493 -0.11096,-0.661761 -0.17773,-0.990234 -0.10958,-0.552837 -0.18657,-1.110136 -0.25,-1.669922 -0.0711,-0.666712 -0.10555,-1.336241 -0.13477,-2.005859 -0.0361,-0.795196 -0.0305,-1.591019 -0.0234,-2.386719 0.003,-0.779822 0.0244,-1.560234 0.041,-2.339844 0.0125,-0.936711 0.0532,-1.872862 0.0957,-2.808594 0.0527,-1.066224 0.10352,-2.132399 0.14258,-3.199219 0.0375,-1.04573 0.0606,-2.092269 0.0605,-3.138671 -0.0104,-0.857725 -0.0348,-1.714678 -0.0527,-2.572266 -0.0205,-0.735872 -0.0432,-1.471451 -0.0723,-2.207031 -0.0195,-0.606053 -0.062,-1.2102 -0.11133,-1.814453 -0.0424,-0.471441 -0.0768,-0.945399 -0.10352,-1.417969 -0.0244,-0.426945 -0.0366,-0.853771 -0.0469,-1.28125 -0.005,-0.327452 0.008,-0.655173 0.0176,-0.982422 0.0214,-0.709388 -0.47097,-1.077347 -0.97266,-1.089844 0.0291,-0.60423 0.052,-1.207898 0.0723,-1.8125 0.0256,-0.800497 0.0415,-1.601557 0.0547,-2.402344 0.0122,-0.758997 0.0181,-1.518273 0.0234,-2.277343 7.1e-4,-0.771818 0.0201,-1.544882 -0.004,-2.316407 -0.0171,-0.307462 -0.0308,-0.614239 -0.0449,-0.921874 0.10788,-0.0037 0.21662,-0.02764 0.32422,-0.07617 0.61105,-0.192696 0.70291,-0.909954 0.65625,-1.462891 0.0886,-7.267864 0.2854,-14.519808 0.47656,-21.7871094 -2.4e-4,-1.3570879 0.11839,-2.7219177 -0.0137,-4.07421873 -0.0412,-0.22363493 -0.15187,-0.42798522 -0.30664,-0.58593749 0.21136,-0.61239768 -0.1865,-1.41240148 -1.0957,-1.33007818 -0.24709,0.022432 -0.12174,0.010147 -0.37109,0.035156 -0.17604,0.019602 -0.35204,0.041141 -0.52735,0.066406 -0.48798,-0.7339714 -1.82626,-0.5232519 -1.82617,0.6328124 3e-5,0.37670914 0.002,0.75415038 0.002,1.13085942 9e-5,0.6232361 -1.7e-4,1.24590458 0,1.86914058 1.9e-4,0.6976648 -3.6e-4,1.3960855 0,2.09375 4.9e-4,0.9227366 9.6e-4,1.8448419 0.002,2.7675782 9.7e-4,1.0599068 0.002,2.1197827 0.004,3.1796875 0.002,0.9006467 0.005,1.8005377 0.01,2.7011717 0.006,0.868279 0.0144,1.737238 0.0254,2.605468 0.0131,1.014736 0.0265,2.028518 0.0547,3.042969 0.0272,0.922076 0.0578,1.845668 0.1289,2.765625 0.0626,0.780036 0.15232,1.55801 0.18946,2.339844 0.05,0.878525 0.11136,1.755978 0.18554,2.632812 0.0592,0.813137 0.0817,1.629447 0.12891,2.44336 0.0263,0.744483 -5e-5,1.48956 0.002,2.234375 -0.005,0.752749 -0.0114,1.505136 -0.0234,2.257812 -0.013,0.789462 -0.0275,1.578009 -0.0527,2.367188 -0.0303,0.9076 -0.0697,1.816088 -0.12305,2.722656 -0.0575,0.959842 -0.14173,1.918191 -0.18164,2.878906 -0.0338,0.801864 -0.0827,1.603448 -0.0488,2.40625 0.0162,0.753275 0.0355,1.507006 0.0684,2.259766 0.0369,0.824859 0.0815,1.649057 0.14063,2.472656 0.0567,0.847113 0.0671,1.6943 0.0879,2.542969 0.0327,1.154497 0.0713,2.308761 0.11523,3.462891 0.0338,0.988565 0.0383,1.977674 0.0293,2.966797 -0.002,0.793399 -0.002,1.587466 -0.006,2.380859 -0.004,0.750827 -0.007,1.501158 -0.0156,2.251953 -0.009,0.758589 -0.0202,1.516976 -0.0391,2.275391 -0.0186,0.665538 -0.0436,1.331372 -0.082,1.996093 -0.0457,0.814455 -0.10817,1.629094 -0.0996,2.445313 6.1e-4,0.875586 0.002,1.751367 0.004,2.626953 0.001,0.792691 0.003,1.584266 0.006,2.376953 0.004,0.876218 0.006,1.752709 0.0137,2.628906 0.007,0.809 0.0157,1.618918 0.0352,2.427735 0.0179,0.68101 0.0406,1.360874 0.0801,2.041015 0.0459,0.778942 0.0998,1.557509 0.17774,2.333985 0.0742,0.700113 0.14573,1.40097 0.19336,2.103515 0.0497,0.594525 0.0658,1.18904 0.0879,1.785157 0.0327,0.703532 0.0716,1.407078 0.125,2.109375 0.0619,0.832114 0.13036,1.663341 0.14453,2.498047 0.0367,0.832581 0.0832,1.665084 0.14648,2.496093 0.0608,0.812627 0.11569,1.62486 0.14258,2.439453 0.0384,0.724663 0.0848,1.449698 0.0547,2.175782 -0.0108,0.770933 -0.023,1.541845 -0.0469,2.3125 -0.025,0.75974 -0.0555,1.51877 -0.10547,2.27734 -0.0495,0.77955 -0.11145,1.56008 -0.10743,2.3418 -0.0148,0.78248 -0.0329,1.5655 -0.0605,2.34765 -0.0319,0.86116 -0.0724,1.72109 -0.10938,2.58203 -0.0203,0.84212 -7.6e-4,1.68513 0.01,2.52735 0.0132,0.68739 0.0264,1.37358 0.0547,2.06054 0.0292,0.65748 0.0651,1.31489 0.12109,1.97071 0.0518,0.63719 0.0882,1.27431 0.084,1.91406 0.0156,0.76383 0.0347,1.52716 0.0488,2.29102 0.005,0.66705 -0.032,1.33139 -0.11133,1.99414 -0.0706,0.57836 -0.16077,1.15583 -0.30664,1.7207 -0.11096,0.42202 -0.20741,0.84725 -0.33789,1.26367 -10e-4,8.9e-4 -0.003,0.001 -0.004,0.002 -0.428,0.29974 -0.87284,0.57067 -1.33789,0.81055 -0.51132,0.2824 -1.05304,0.4953 -1.60352,0.68945 -0.66366,0.249 -1.32834,0.49463 -1.99609,0.73243 -0.69077,0.25879 -1.37927,0.52459 -2.06641,0.79296 -0.77019,0.2828 -1.53233,0.58362 -2.27148,0.94141 -0.72324,0.31427 -1.45107,0.61532 -2.18946,0.89258 -0.7634,0.28431 -1.52369,0.57733 -2.29492,0.83984 -0.78764,0.2741 -1.57527,0.55969 -2.39258,0.73438 -0.92117,0.21143 -1.83722,0.43766 -2.761717,0.63476 -0.948957,0.19952 -1.901149,0.38491 -2.84375,0.61329 -0.928123,0.24063 -1.851224,0.49979 -2.769531,0.77539 -0.949538,0.27003 -1.903376,0.53144 -2.861328,0.76953 -1.219416,0.27183 -2.448367,0.49413 -3.669922,0.75586 -1.189816,0.25312 -2.370138,0.55268 -3.527344,0.92968 -1.023686,0.31868 -2.04017,0.66078 -3.074218,0.94532 -0.995855,0.28404 -1.990336,0.56897 -3.003907,0.78515 -1.067863,0.24019 -2.134262,0.48857 -3.214843,0.66602 -1.115199,0.19702 -2.236609,0.35677 -3.34961,0.5664 -1.094663,0.19807 -2.197104,0.35184 -3.294922,0.53125 -1.133339,0.18191 -2.266131,0.36885 -3.40039,0.54493 -1.134758,0.18462 -2.267851,0.38614 -3.404297,0.56054 -1.40856,0.23366 -2.824106,0.4359 -4.212891,0.77344 -1.26071,0.30264 -2.519201,0.61256 -3.761719,0.98438 -0.958736,0.27572 -1.922696,0.53195 -2.896484,0.75 -0.900995,0.21128 -1.797728,0.43187 -2.705078,0.61523 -1.013949,0.2332 -2.033654,0.45388 -3.023438,0.7793 -0.913057,0.2874 -1.8311,0.55096 -2.757812,0.79101 -1.029026,0.25178 -2.064115,0.47914 -3.107422,0.66407 -1.060711,0.18374 -2.118008,0.39092 -3.177734,0.58007 -0.650094,0.12856 -1.299672,0.25378 -1.947266,0.39453 -0.246561,0.0298 -0.493968,0.0313 -0.732422,-0.0469 -0.28177,-0.11271 -0.537384,-0.11686 -0.751953,-0.0469 -0.329655,-0.35152 -0.595624,-0.75712 -0.818359,-1.18554 -0.343485,-0.77402 -0.47712,-1.61603 -0.572266,-2.45313 -0.09854,-1.22073 -0.210506,-2.44164 -0.171875,-3.66797 0.05823,-1.35557 0.129185,-2.71081 0.222656,-4.06445 0.09558,-1.38012 0.187736,-2.76047 0.25,-4.14258 0.09272,-1.40365 0.214804,-2.80468 0.347657,-4.20508 0.136269,-1.61053 0.220023,-3.22593 0.408203,-4.83203 0.187167,-1.78565 0.344746,-3.57262 0.5,-5.36133 0.147583,-2.01954 0.18753,-4.04376 0.138672,-6.06835 -0.02466,-2.11455 -0.05609,-4.22949 -0.09961,-6.34375 -0.04854,-2.27331 -0.113825,-4.54672 -0.146484,-6.820313 0.0095,-2.285841 0.01946,-4.571657 0.04102,-6.857422 0.02188,-2.151297 0.04841,-4.302212 0.0957,-6.453125 0.04859,-2.147444 0.10632,-4.295129 0.193359,-6.441406 0.07975,-2.142818 0.09311,-4.285451 0.07813,-6.429688 -0.03733,-2.554006 -0.159707,-5.105553 -0.291016,-7.65625 C 32.471213,62.25446 32.323381,59.688314 32.205078,57.121094 32.07218,54.293909 31.994542,51.463747 31.816406,48.638672 31.620999,45.414125 31.404779,42.190242 31.03125,38.980469 30.727621,36.191706 30.456457,33.399724 30.230469,30.603516 30.011442,27.877296 29.76447,25.153672 29.623047,22.421875 29.469399,19.700246 29.358333,16.975446 29.138672,14.257812 28.960174,11.77823 28.809076,9.296881 28.589844,6.8203125 28.406066,4.8226771 28.168926,2.8309837 27.978516,0.83398438 27.872574,-0.18970342 27.760588,-1.2166269 27.517578,-2.21875 27.396238,-2.8254533 26.95114,-3.0906535 26.513672,-3.0820312 Z" /><path
                 id="path326"
                 style="fill:#a4a58c;fill-opacity:1;stroke-width:6;paint-order:stroke fill markers"
                 d="m 465.26172,-3.9902344 c -0.0734,-0.00148 -0.14965,0.00321 -0.23047,0.015625 -0.28781,0.044458 -0.57728,0.089063 -0.86133,0.1542969 -0.62391,0.1496839 -1.24435,0.3333222 -1.7539,0.7421875 -0.55088,0.4830467 -0.9613,1.0615278 -1.04493,1.8105469 -0.0497,0.59046401 -0.009,1.17992769 0.043,1.76953122 0.0493,0.58293368 0.11054,1.16301208 0.17774,1.74414068 0.0626,0.6562065 0.0749,1.3174497 0.12695,1.9746093 0.0462,0.8130646 0.0329,1.6253111 0.0332,2.4394531 6.6e-4,1.163592 9.6e-4,2.3285955 0.002,3.4921878 10e-4,1.262321 0.002,2.524791 0.006,3.787109 0.003,1.043745 0.007,2.087128 0.0137,3.130859 0.008,1.22365 0.0163,2.446337 0.0312,3.669922 0.0166,1.278946 0.0391,2.5593 0.0742,3.837891 0.0379,1.425161 0.0819,2.848817 0.13671,4.273437 0.0358,1.272004 0.0257,2.546093 0.0508,3.81836 0.0195,1.225461 0.0417,2.451044 0.0898,3.675781 0.05,1.242441 0.11437,2.483895 0.19727,3.724609 0.0835,1.241346 0.16321,2.482607 0.26367,3.722657 0.0984,1.0001 0.2398,1.995946 0.3164,2.998047 0.0574,1.041147 0.13463,2.081442 0.1836,3.123046 0.0339,1.285782 0.0741,2.57003 0.11914,3.855469 0.028,1.162392 0.009,2.325632 0.0156,3.488281 6e-4,1.392216 9.6e-4,2.785519 0.002,4.177735 10e-4,1.456427 0.003,2.912716 0.006,4.369141 0.003,1.598363 0.007,3.196569 0.0137,4.794921 0.006,1.353011 0.0118,2.705672 0.0293,4.058594 0.0158,1.248247 0.0367,2.495766 0.0371,3.744141 -0.0136,1.20698 -0.079,2.413236 -0.16406,3.617187 -0.0772,1.007872 -0.15694,2.015022 -0.22656,3.023438 -0.007,0.07981 -0.0145,0.160451 -0.0215,0.240234 -0.18981,0.186019 -0.30884,0.462477 -0.29101,0.828125 0.0374,0.766582 0.078,1.532888 0.12695,2.298828 0.0634,1.021542 0.11683,2.043248 0.14649,3.066406 0.0475,1.029585 0.10655,2.059658 0.17773,3.087891 0.0613,1.116039 0.0748,2.233154 0.12891,3.349609 0.0374,1.018352 0.0391,2.037646 0.0332,3.056638 -1.2e-4,1.00794 -0.002,2.01551 -0.002,3.02344 -2.7e-4,1.10779 4.4e-4,2.21449 0,3.32227 -6.7e-4,1.25773 -0.002,2.5157 -0.004,3.77343 -0.001,1.18753 -0.003,2.37498 -0.006,3.5625 -0.004,1.20484 -0.007,2.41042 -0.0137,3.61524 -0.007,1.00277 -0.0172,2.00517 -0.0352,3.00781 -0.0181,0.97025 -0.0379,1.94052 -0.0781,2.91016 -0.0502,1.21564 -0.10901,2.43185 -0.17969,3.64648 -0.0947,1.60106 -0.20062,3.20159 -0.25586,4.80469 -0.0776,1.81578 -0.11436,3.6311 -0.18164,5.44726 -0.0715,1.71522 -0.14302,3.43363 -0.33398,5.14063 -0.17908,1.42796 -0.39475,2.85294 -0.73828,4.25195 -0.30116,1.17911 -0.61984,2.35911 -1.16602,3.45313 -0.42081,0.82097 -0.88358,1.62048 -1.44727,2.35351 -0.28773,0.3549 -0.6251,0.69578 -1.03125,0.91407 -0.51895,0.0918 -1.02874,0.0569 -1.54882,-0.0332 -0.76718,-0.10397 -1.53395,-0.22128 -2.28516,-0.41211 -0.70364,-0.17649 -1.40787,-0.3558 -2.10156,-0.56836 -0.29765,-0.0977 -0.59714,-0.19313 -0.88477,-0.3164 -0.11683,-0.286 -0.37635,-0.52498 -0.80078,-0.60547 -0.98955,-0.18754 -0.49149,-0.0898 -1.49414,-0.29297 -1.48435,-0.3166 -2.9721,-0.62199 -4.44141,-1.00391 -1.25387,-0.34935 -2.51757,-0.66322 -3.77734,-0.99023 -1.40865,-0.38029 -2.81982,-0.75581 -4.23438,-1.11328 -1.27486,-0.33096 -2.54371,-0.68103 -3.81445,-1.02735 -1.2745,-0.32642 -2.5478,-0.65702 -3.83203,-0.94336 -1.55423,-0.38427 -3.11133,-0.75846 -4.66797,-1.13281 -1.6452,-0.3865 -3.28493,-0.79517 -4.92969,-1.18359 -1.61851,-0.4104 -3.24302,-0.79676 -4.86914,-1.17578 -1.37324,-0.34111 -2.75511,-0.6417 -4.1289,-0.98047 -1.36793,-0.31737 -2.73219,-0.64586 -4.10157,-0.95703 -1.24613,-0.3272 -2.48817,-0.66916 -3.73437,-0.9961 -1.22919,-0.3184 -2.45354,-0.65536 -3.68555,-0.96289 -1.2188,-0.3285 -2.43558,-0.67095 -3.62304,-1.10156 -1.09836,-0.42182 -2.19305,-0.85195 -3.29297,-1.26953 -1.1098,-0.40832 -2.24309,-0.73936 -3.36524,-1.11133 -1.13892,-0.3651 -2.28126,-0.71766 -3.41406,-1.10156 -1.20574,-0.39152 -2.42085,-0.75337 -3.63281,-1.125 -1.13605,-0.38744 -2.2766,-0.77904 -3.35742,-1.30469 -1.1033,-0.52068 -2.22082,-1.01146 -3.3125,-1.55664 -0.87728,-0.4358 -1.77081,-0.85944 -2.57422,-1.42383 -0.16278,-0.14023 -0.34293,-0.28007 -0.47852,-0.44922 -0.033,-0.0412 -0.062,-0.0841 -0.0898,-0.1289 -0.0209,-0.0336 -0.0252,-0.0942 -0.0508,-0.11914 -0.005,-0.004 -0.0121,-0.008 -0.0195,-0.01 h -0.002 -0.002 c -7.5e-4,4e-5 -0.003,-1.4e-4 -0.004,0 -0.0652,-0.25507 -0.19432,-0.44252 -0.35547,-0.57031 0.0291,-0.52331 0.0611,-1.04819 0.10743,-1.57031 0.0664,-0.73983 0.1651,-1.47501 0.20703,-2.2168 0.0623,-0.96253 0.13904,-1.92551 0.1914,-2.88867 0.0374,-1.15566 0.0871,-2.31078 0.11133,-3.4668 -0.004,-1.17285 -0.008,-2.34475 -0.0156,-3.51758 -0.008,-1.28197 -0.0172,-2.56382 -0.0352,-3.8457 -0.0167,-1.08641 -0.0423,-2.17323 -0.0488,-3.25977 0.008,-1.17006 0.0634,-2.34036 0.14063,-3.50781 0.0865,-1.21338 0.17974,-2.42456 0.2207,-3.64062 0.0724,-1.32735 0.1616,-2.654897 0.18555,-3.984379 0.0514,-1.430179 0.12125,-2.859528 0.1875,-4.289062 0.0395,-1.510258 0.0823,-3.02009 0.15234,-4.529297 0.0675,-1.44341 0.12921,-2.887507 0.16797,-4.332031 0.0592,-1.448524 0.12923,-2.897023 0.25195,-4.341797 0.12963,-1.507274 0.30253,-3.009101 0.45899,-4.513672 0.16107,-1.623406 0.28562,-3.250649 0.30664,-4.882813 0.0404,-1.726925 0.0331,-3.452364 0.0254,-5.179687 -0.004,-1.646013 -0.009,-3.293459 -0.0176,-4.939453 -0.01,-1.768397 -0.0195,-3.536368 -0.0391,-5.304688 -0.0222,-1.942032 -0.0472,-3.884504 -0.0918,-5.826172 -0.0466,-1.946417 -0.11371,-3.892688 -0.11328,-5.839843 -0.007,-2.068984 -0.0157,-4.138104 -0.0332,-6.207032 -0.019,-2.083413 -0.043,-4.166787 -0.0781,-6.25 -0.0415,-2.374554 -0.0883,-4.747641 -0.17383,-7.121093 -0.0861,-2.397311 -0.19275,-4.795329 -0.25781,-7.19336 -0.0839,-2.318348 -0.18602,-4.634416 -0.25976,-6.9531248 -0.0794,-2.0420931 -0.15022,-4.0847797 -0.22657,-6.1269531 C 372.13781,1.2976047 372.06739,0.09443105 372,-1.109375 372,-1.6111786 371.74875,-1.9363363 371.42383,-2.0820312 371.30059,-2.450015 370.96413,-2.75 370.41602,-2.75 h -0.49024 c -0.99653,0 -1.29069,0.9934757 -0.88281,1.5800781 10e-4,0.011187 0.003,0.021863 0.004,0.033203 0.0274,0.23503486 0.0563,0.47101827 0.0742,0.7070313 -0.003,0.60035948 -0.076,1.19768657 -0.13086,1.7949219 -0.0724,0.6334057 -0.15837,1.266188 -0.29882,1.8886718 -0.087,0.3781892 -0.18076,0.8095496 -0.25782,1.1621094 -0.42008,0.7001393 -0.0248,1.3379072 0.52344,1.5195313 -0.005,0.9076621 0.0244,1.8271818 -0.0898,2.7011719 -0.3412,11.6718103 -0.93618,23.3186983 -1.09961,34.9902343 -0.0641,11.702258 0.70819,23.385205 1.49023,35.056641 -0.005,0.04828 -0.008,0.09827 -0.008,0.15039 0.005,0.261638 0.0306,0.522021 0.0488,0.783204 0.0374,0.555274 0.0328,1.112756 0.0703,1.667968 0.008,0.02211 0.015,0.04329 0.0234,0.06445 0.0207,0.427336 0.0436,0.854482 0.0781,1.28125 0.0104,0.122661 0.0209,0.244527 0.0312,0.367188 0.0529,0.625356 0.47542,0.941235 0.91797,0.974609 -0.0376,1.149633 -0.0869,2.298165 -0.14062,3.447266 -0.0708,1.522913 -0.11439,3.046338 -0.1543,4.570312 -0.0669,1.422988 -0.13824,2.845863 -0.18945,4.269532 -0.0234,1.317109 -0.10985,2.632282 -0.18164,3.947267 -0.0403,1.205 -0.13304,2.40705 -0.21875,3.60938 -0.0812,1.20961 -0.13645,2.42048 -0.14649,3.63281 0.006,1.10197 0.0319,2.20286 0.0488,3.30469 0.005,0.33053 0.008,0.66164 0.0117,0.99218 -0.39429,0.0997 -0.73072,0.43507 -0.74219,1.00977 -0.002,0.10936 -0.005,0.21876 -0.008,0.32812 -0.0163,0.73697 -0.035,1.47241 -0.0645,2.20899 -0.008,0.19459 -0.016,0.38941 -0.0254,0.58398 -0.32552,0.23629 -0.56207,0.61879 -0.54883,1.06446 -1.04859,4.97202 -1.89991,9.98144 -3.10352,14.93164 0.51705,1.9581 2.38001,3.32834 3.85938,4.65234 7.88971,5.96068 17.71328,8.3733 27.10156,10.88086 11.74308,2.96002 23.70085,4.67647 35.41211,7.74219 8.15854,1.88174 16.19602,4.28328 24.38476,6.02148 2.46437,0.65879 5.14876,-0.41672 6.41016,-2.65039 3.00903,-4.99111 3.59604,-10.98086 4.42383,-16.63281 1.15847,-9.31718 0.63006,-18.73411 0.80664,-28.09766 -0.0251,-28.944265 0.16013,-57.891284 -0.17578,-86.833985 -0.25476,-5.876693 -1.06567,-11.732225 -1.08399,-17.6113281 -0.14508,-3.7562211 -0.15133,-7.5215281 -0.40429,-11.2714844 -0.023,-0.049711 -0.0471,-0.098805 -0.0723,-0.1464844 0.99441,-0.3957717 0.74343,-1.8938532 -0.35742,-1.9160156 z" /></g></g><path
             style="fill:url(#linearGradient345);stroke-width:3;paint-order:stroke fill markers"
             d="m 68.647464,324.96681 c -2.138378,1.17857 -0.539161,4.48009 -1.002499,6.54194 0.265499,9.55572 0.07343,19.23867 0.732938,28.71183 2.79453,1.23732 6.60672,0.176 9.78421,0.52944 116.612637,0 233.225267,0 349.837907,0 2.20503,-1.79773 0.42785,-5.82388 1,-8.5 -0.14042,-8.67043 0.27987,-17.46234 -0.20695,-26.05771 -2.44428,-1.196 -5.88399,0.0478 -8.72122,-0.13815 -12.98318,1.07796 -25.92233,1.86171 -38.96217,1.82324 -44.45,0.45801 -88.90478,0.65033 -133.34697,1.62945 -36.30751,-0.0257 -72.63956,-0.48885 -108.92153,-1.42734 -23.37578,-1.2518 -46.794889,-2.1141 -70.193716,-3.1127 z"
             id="path344" /></g><g
           id="layer10"
           style="display:inline"><path
             id="path346"
             style="fill:#000000;fill-opacity:0.444611;stroke-width:6;paint-order:stroke fill markers"
             d="m 126.05469,160.22461 c -2.33184,0.0777 -3.50802,3.46866 -0.83985,4.80273 0.96483,0.48272 1.98432,0.85129 3,1.21094 1.76291,0.66162 3.59319,1.09879 5.4336,1.47852 2.39103,0.46211 4.79725,0.83648 7.20312,1.21093 2.56543,0.3898 5.15219,0.62116 7.73828,0.82032 2.91477,0.21714 5.832,0.3743 8.75,0.53906 2.96988,0.16108 5.93904,0.33185 8.91016,0.46875 3.00342,0.12678 6.00972,0.22641 9.01562,0.26562 2.82331,0.0192 5.64541,0.008 8.46876,0.002 2.84434,-0.006 5.68885,-0.0106 8.5332,-0.0137 2.83702,0.002 5.67498,0.002 8.51172,-0.0391 2.92413,-0.0716 5.84664,-0.18386 8.77148,-0.22265 3.2113,-0.0239 6.42185,0.0451 9.63281,0.0859 3.64649,0.0459 7.29275,0.0734 10.93946,0.0937 3.915,0.0254 7.83112,0.0372 11.74609,0.006 4.02323,-0.0394 8.04697,-0.0721 12.07031,-0.0977 3.78313,-0.0234 7.56447,-0.037 11.34766,-0.0488 3.54255,-0.0107 7.08635,-0.0167 10.62891,-0.0215 3.72327,-0.005 7.44665,-0.008 11.16992,-0.01 3.15625,0.0218 6.31267,0.0753 9.46875,0.11328 3.12044,0.0369 6.24072,0.0572 9.36133,0.0742 0.70514,0.001 1.41014,0.004 2.11523,0.008 0.36963,0.1888 0.81721,0.29883 1.34375,0.29883 1.06978,-0.0109 2.13944,-0.0722 3.20703,-0.13867 1.60004,-0.0892 3.20063,-0.1449 4.80078,-0.23242 1.69305,-0.0982 3.38892,-0.15769 5.08399,-0.20703 1.81617,-0.0497 3.63255,-0.0755 5.44922,-0.0977 1.8944,-0.0217 3.78911,-0.0333 5.68359,-0.043 1.9296,-0.009 3.85944,-0.0135 5.78906,-0.0176 1.90677,0.027 3.81049,-0.0383 5.71289,-0.16211 1.69599,-0.11461 3.39177,-0.23886 5.08399,-0.40039 1.67918,-0.17707 3.3527,-0.3997 5.02539,-0.6289 1.45308,-0.20893 2.89747,-0.4804 4.33203,-0.79102 1.09263,-0.22061 2.16926,-0.49955 3.24023,-0.80664 0.57584,-0.16159 0.29376,-0.0877 0.8418,-0.22461 3.4282,-0.86454 2.20554,-5.71414 -1.22266,-4.84961 -0.68568,0.17411 -0.35239,0.0863 -0.99804,0.26758 -0.96621,0.27716 -1.93746,0.53168 -2.92383,0.72851 -1.30753,0.28511 -2.62482,0.52977 -3.94922,0.72266 -0.43124,0.0591 -0.8615,0.11831 -1.29297,0.17578 -0.0152,-0.17761 -0.0797,-0.35103 -0.20312,-0.49414 -0.36968,-0.53419 -1.07889,-0.38049 -1.63477,-0.39258 -0.40513,0.004 -0.81167,0.007 -1.2168,0.0117 -6.07425,0.0574 -12.1424,0.34548 -18.21289,0.54297 -0.37054,-0.0291 -0.731,0.1529 -0.94726,0.43945 -1.45058,-0.48185 -3.17167,-0.12096 -4.68164,-0.34765 -13.10432,-0.34595 -26.17482,-1.17791 -39.26368,-1.875 -12.95395,-0.28973 -25.91472,-0.13885 -38.87109,-0.17578 -25.3821,0.0703 -50.79729,0.19471 -76.14844,1.10742 -8.51984,0.18839 -17.04421,0.0742 -25.56445,0.17187 -0.61519,0.11672 -0.85973,0.5235 -0.84375,0.94532 -1.34685,-0.13189 -2.69089,-0.28967 -4.0293,-0.49219 -2.32644,-0.36208 -4.6543,-0.72329 -6.96679,-1.16797 -1.61785,-0.33082 -3.22713,-0.71038 -4.77539,-1.29492 -0.82046,-0.28862 -1.65006,-0.57952 -2.42774,-0.96875 -0.4941,-0.24706 -0.96466,-0.34448 -1.39648,-0.33008 z" /><path
             id="path349"
             style="fill:#000000;fill-opacity:0.443137;stroke-width:6;paint-order:stroke fill markers"
             d="m 124.45898,132.40625 c -0.0835,-5.3e-4 -0.17132,0.0104 -0.26562,0.0332 -2.77549,1.53166 -5.42317,3.36024 -8.43555,4.45313 -14.81252,5.92406 -30.935749,7.60838 -46.037107,12.72461 -7.580599,2.23886 -15.476516,3.08927 -23.226562,4.4707 -1.162912,0.4176 -3.196945,-0.18466 -3.611329,1.37695 0.0053,0.067 0.01388,0.13078 0.02539,0.19141 -0.838506,-0.12605 -1.674293,-0.26324 -2.509765,-0.41211 -2.007501,-0.38866 -4.046474,-0.75894 -5.939454,-1.56055 -3.354102,-1.11803 -4.936133,3.62611 -1.582031,4.74414 2.0913,0.87943 4.351181,1.29169 6.566406,1.72461 4.419343,0.79469 8.881665,1.26832 13.363282,1.5 4.817416,0.22882 9.624036,-0.10866 14.40039,-0.71289 4.589919,-0.62772 9.142098,-1.49436 13.681641,-2.41015 4.148322,-0.87973 8.239075,-2.00791 12.302734,-3.21485 3.417344,-1.04036 6.755146,-2.31102 10.054685,-3.67383 2.6906,-1.14217 5.34366,-2.36745 7.9668,-3.65624 2.32284,-1.09299 4.5581,-2.3555 6.83399,-3.53907 1.82556,-0.95553 3.68413,-1.84296 5.52929,-2.75976 0.93325,-0.45767 1.88111,-0.88109 2.8418,-1.27735 2.43145,-1.00587 1.9949,-3.82294 0.26562,-4.64062 0.1539,-0.56972 -0.0524,-1.27606 -0.66015,-1.77344 -0.42661,-0.56424 -0.75755,-1.58276 -1.56446,-1.58789 z" /><path
             id="path350"
             style="fill:#000000;fill-opacity:0.443137;stroke-width:6;paint-order:stroke fill markers"
             d="m 364.45312,135.92383 c -0.21192,-0.0129 -0.43257,0.0379 -0.6582,0.11914 -0.87287,1.26209 -1.71,2.71695 -2.13672,4.21094 -0.58655,-0.21678 -1.17724,-0.41899 -1.77539,-0.60157 -3.3995,-0.97128 -4.7745,3.83536 -1.375,4.80664 1.52537,0.47646 3.00303,1.09818 4.47266,1.72266 3.62288,1.42982 7.3069,2.69577 10.99805,3.93555 3.7343,1.25784 7.48018,2.48365 11.2246,3.71093 3.42632,1.16615 6.84873,2.34145 10.30079,3.42969 2.96664,0.92294 5.92959,1.85711 8.88086,2.82813 2.84927,0.96385 5.709,1.90102 8.59179,2.75976 2.95858,0.87184 5.93375,1.67958 8.91211,2.48047 3.0749,0.75486 6.17226,1.4107 9.29102,1.95508 2.60819,0.40317 5.20763,0.86203 7.81445,1.27344 2.25752,0.40994 4.52905,0.72491 6.79297,1.0957 1.84819,0.30348 3.70432,0.55214 5.56641,0.75195 1.69579,0.18639 3.4082,0.20265 5.10546,0.041 1.70147,-0.1635 3.26383,-0.73988 4.7461,-1.56445 1.31191,-0.75605 2.3098,-1.85001 3.1289,-3.10352 0.11757,-0.22233 0.23595,-0.44368 0.35352,-0.66601 1.60368,-3.15092 -2.85335,-5.41849 -4.45703,-2.26758 -0.0372,0.0818 -0.0741,0.16229 -0.11133,0.24414 -0.33065,0.54777 -0.73481,1.02689 -1.27344,1.37695 -0.25538,-0.58373 -1.09026,-1.00085 -1.78906,-0.85937 -5.76029,-0.69732 -11.26187,-2.72408 -16.91406,-3.97071 -11.35153,-2.90885 -22.77128,-5.5473 -34.29688,-7.67187 -9.60779,-2.02952 -19.18821,-4.37033 -28.3125,-8.00586 -4.57204,-1.84395 -8.90631,-4.34323 -12.47656,-7.76953 -0.18838,-0.17262 -0.39159,-0.2488 -0.60352,-0.26172 z" /></g><g
           id="g221"
           style="display:inline"><path
             id="path27"
             style="fill:#000000;stroke-width:6;paint-order:stroke fill markers"
             d="m 451.04102,303.04492 c -1.21975,0.14189 -2.49353,0.23573 -3.82032,0.27735 v 2.09179 14.65625 c 0,3.53554 5,3.53554 5,0 v -12.67383 c -0.0903,-0.2902 -0.18019,-0.58942 -0.26953,-0.89843 -0.23987,-0.82965 -0.47889,-1.66059 -0.71875,-2.49024 -0.0648,-0.32027 -0.12859,-0.64155 -0.1914,-0.96289 z" /><path
             style="fill:#000000;stroke-width:6;paint-order:stroke fill markers"
             id="path61"
             d="m 46.514987,324.2336 c 4.032514,0.1542 8.055027,0.49448 12.08081,0.76497 5.602982,0.44418 11.212818,0.78806 16.825281,1.0853 5.675672,0.25064 11.352483,0.47215 17.028626,0.71402 6.124805,0.25219 12.252596,0.41075 18.378346,0.637 6.60868,0.27851 13.21148,0.66371 19.81397,1.05839 5.64086,0.3493 11.28697,0.59562 16.93533,0.78175 5.5437,0.17738 11.08947,0.27442 16.63533,0.35141 6.58383,0.0811 13.16812,0.11633 19.75232,0.15092 6.16249,0.0304 12.32503,0.0486 18.48756,0.0646 5.62616,-10e-4 11.25058,0.17649 16.87482,0.30626 5.19077,0.12738 10.38256,0.19841 15.57452,0.25236 5.51269,0.0983 11.02395,0.0614 16.53589,-0.0472 4.90382,-0.0962 9.80707,-0.17616 14.70888,-0.34871 5.10933,-0.19559 10.22047,-0.33393 15.33226,-0.44494 5.31919,-0.10945 10.63926,-0.16559 15.95929,-0.21405 4.92685,-0.043 9.8538,-0.0703 14.78078,-0.0927 5.00634,-0.0231 10.01274,-0.0322 15.01913,-0.0398 5.56184,-0.008 11.12369,-0.0125 16.68553,-0.017 4.56358,-0.004 9.12717,-0.006 13.69075,-0.007 4.90284,-0.002 9.80568,-0.002 14.70852,-0.003 4.59673,0.0106 9.19219,0.021 13.78755,-0.0987 3.89863,-0.0855 7.79335,-0.22975 11.68147,-0.531 3.99722,-0.34045 7.98693,-0.75746 11.98581,-1.08192 3.44073,-0.28085 6.88729,-0.47623 10.33567,-0.63198 3.47805,-0.14365 6.95856,-0.21371 10.43881,-0.27746 3.13985,-0.0118 6.27504,-0.1137 9.40996,-0.28243 2.41249,-0.14153 4.8264,-0.25482 7.24116,-0.34914 1.05235,-0.0117 2.10041,-0.11083 3.14783,-0.20288 3.52185,-0.31069 3.08247,-5.29135 -0.43939,-4.98066 v 0 c -0.96613,0.0856 -1.93268,0.18053 -2.90365,0.18736 -2.43931,0.0953 -4.87777,0.20963 -7.31479,0.35255 -3.07591,0.16569 -6.15193,0.26506 -9.23272,0.27604 -3.52498,0.0646 -7.05021,0.13579 -10.57294,0.28172 -3.50802,0.15863 -7.01419,0.35751 -10.51444,0.64327 -3.99317,0.32422 -7.97734,0.73916 -11.96874,1.08057 -3.80247,0.2965 -7.6117,0.43248 -11.42449,0.51766 -4.55211,0.11899 -9.10434,0.10689 -13.65782,0.0971 -4.90318,7e-4 -9.80635,0.002 -14.70953,0.003 -4.56436,0.002 -9.12871,0.003 -13.69307,0.007 -5.56303,0.005 -11.12606,0.01 -16.68908,0.017 -5.01145,0.008 -10.0229,0.0167 -15.0343,0.0398 -4.93457,0.0225 -9.86912,0.0498 -14.80356,0.0929 -5.34104,0.0487 -10.68213,0.10508 -16.02233,0.21503 -5.13424,0.11154 -10.26784,0.25045 -15.39963,0.44685 -4.87601,0.17176 -9.75347,0.25059 -14.63148,0.3466 -5.46178,0.10771 -10.92285,0.14439 -16.38538,0.0465 -5.17084,-0.0537 -10.3415,-0.12441 -15.51114,-0.2513 -5.65834,-0.13055 -11.31686,-0.30914 -16.97713,-0.30757 -6.15812,-0.016 -12.31625,-0.0342 -18.47432,-0.0646 -6.56983,-0.0345 -13.13974,-0.0697 -19.70919,-0.15051 -5.51412,-0.0765 -11.02814,-0.1729 -16.54011,-0.34918 -5.60376,-0.18451 -11.20527,-0.42898 -16.80159,-0.77555 -6.64039,-0.39694 -13.28113,-0.78412 -19.92777,-1.0639 -6.11632,-0.22589 -12.234657,-0.3844 -18.350034,-0.63587 -5.658965,-0.24113 -11.318588,-0.46219 -16.977104,-0.71155 -5.588881,-0.29588 -11.175099,-0.63877 -16.754533,-1.08105 -4.137205,-0.27787 -8.27118,-0.63182 -12.415942,-0.77622 -3.535534,0 -3.535534,5 0,5 z" /><path
             style="fill:#000000;stroke-width:6;paint-order:stroke fill markers"
             id="path83"
             d="m 48.461943,318.66815 c 0,-1.39824 0,-2.79649 0,-4.19474 0,-1.76769 0,-3.53537 0,-5.30306 0,-1.38386 0,-2.76772 0,-4.15159 0,-3.53553 -5,-3.53553 -5,0 v 0 c 0,1.38387 0,2.76773 0,4.15159 0,1.76769 0,3.53537 0,5.30306 0,1.39825 0,2.7965 0,4.19474 0,3.53554 5,3.53554 5,0 z" /><path
             id="path96"
             style="fill:#000000;stroke-width:6;paint-order:stroke fill markers"
             d="m 52.548828,299.26367 c -1.988557,-0.036 -3.976319,-0.0104 -5.957031,0.15625 -3.5,0.5 -2.792969,5.44922 0.707031,4.94922 3.663512,-0.25 7.347359,-0.0432 11.011719,0.10352 7.139792,0.26522 14.265848,0.79829 21.390625,1.3164 7.500602,0.55543 15.012647,0.91433 22.527348,1.20899 7.56364,0.24965 15.12886,0.48032 22.68945,0.8125 6.74381,0.34745 13.4714,0.92763 20.20703,1.39843 5.7019,0.40807 11.38823,0.98451 17.08594,1.44336 5.13913,0.38672 10.28511,0.713 15.4375,0.84375 5.42085,0.0765 10.84244,0.0532 16.26367,0.0469 6.21567,-0.008 12.43081,-0.0148 18.64648,-0.0195 6.63995,-0.004 13.27998,-0.007 19.91993,-0.01 5.80046,-0.0758 11.59622,0.049 17.39257,0.25 6.94453,0.25174 13.89096,0.45137 20.83789,0.62305 6.92088,0.24886 13.84414,-0.0549 20.75586,-0.39844 6.97311,-0.45273 13.94164,-0.94974 20.91797,-1.35156 5.95183,-0.32615 11.90108,-0.71079 17.85547,-0.99024 5.96612,-0.26521 11.9359,-0.41949 17.90625,-0.54882 6.41684,-0.11379 12.83389,-0.18554 19.25,-0.33789 7.63358,-0.19114 15.26724,-0.31662 22.90235,-0.42774 6.42599,-0.092 12.85287,-0.15266 19.27929,-0.20508 6.02896,-0.0638 12.05942,-0.0285 18.08789,-0.1289 4.69359,-0.10601 9.38509,-0.25157 14.07813,-0.37891 2.97947,-0.13113 5.95517,-0.35512 8.93164,-0.53906 0.38522,-0.0224 0.76908,-0.0441 1.15429,-0.0664 0.0917,-0.005 0.18099,-0.0138 0.26758,-0.0254 -0.0483,-0.16059 -0.0965,-0.32419 -0.14453,-0.49023 -0.23987,-0.82965 -0.47889,-1.66059 -0.71875,-2.49024 -0.0648,-0.32029 -0.12859,-0.64153 -0.1914,-0.96289 -1.69706,0.19775 -3.49832,0.30278 -5.40235,0.30274 -1.17909,-2e-5 -2.35803,1.2e-4 -3.53711,0 -1.41844,0 -2.83546,9.6e-4 -4.2539,0 -1.44099,-0.001 -2.88324,-0.004 -4.32422,-0.01 -1.56192,-0.008 -3.12408,-0.0174 -4.68555,-0.0586 -1.49513,-0.0454 -2.99049,-0.10806 -4.48047,-0.23828 -4.94037,0.0487 -9.88182,0.0329 -14.82226,0.0859 -6.43708,0.0525 -12.87389,0.11488 -19.31055,0.20703 -7.65041,0.11136 -15.30033,0.23623 -22.94922,0.42774 -6.41264,0.15231 -12.82686,0.2238 -19.24023,0.33789 -6.01243,0.13028 -12.0231,0.2854 -18.03125,0.55273 -5.97208,0.28046 -11.93871,0.66476 -17.90821,0.99219 -6.96329,0.4012 -13.9209,0.89609 -20.88086,1.34961 -6.7878,0.338 -13.58596,0.6398 -20.38281,0.39453 -6.93034,-0.17124 -13.85916,-0.37188 -20.78711,-0.62305 -5.85473,-0.20298 -11.7095,-0.32767 -17.56836,-0.25195 -6.64053,0.003 -13.28134,0.006 -19.92187,0.01 -6.21638,0.005 -12.43206,0.011 -18.64844,0.0195 -5.37743,0.006 -10.75574,0.0296 -16.13281,-0.0449 -5.06043,-0.12572 -10.11272,-0.45092 -15.16016,-0.82813 -5.71527,-0.46001 -11.42108,-1.041 -17.14062,-1.44922 -6.77868,-0.47372 -13.54892,-1.05654 -20.33594,-1.40429 -7.56844,-0.33216 -15.14139,-0.56511 -22.71289,-0.81446 -7.459062,-0.29235 -14.916261,-0.6479 -22.36133,-1.19922 -7.179075,-0.52206 -14.358533,-1.05897 -21.552734,-1.32617 -1.982691,-0.079 -3.972381,-0.17684 -5.960938,-0.21289 z" /><path
             style="fill:#000000;stroke-width:6;paint-order:stroke fill markers"
             id="path131"
             d="m 48.378315,304.76421 c 1.537749,-3.1863 3.264367,-6.27913 4.889492,-9.42243 3.143989,-6.16136 6.449113,-12.2392 9.726317,-18.33042 3.52773,-6.43461 6.829179,-12.98674 10.065733,-19.57111 3.05482,-6.26048 5.651578,-12.72768 8.186173,-19.21157 2.133823,-5.65033 4.62192,-11.15297 7.080077,-16.66662 2.276176,-4.98216 4.687776,-9.90036 7.061775,-14.83611 1.53244,-3.18617 -2.973473,-5.35336 -4.505913,-2.1672 v 0 c -2.39479,4.97924 -4.827737,9.94068 -7.122565,14.96733 -2.48989,5.58482 -5.007884,11.15948 -7.17026,16.88232 -2.483172,6.35324 -5.024732,12.69124 -8.016489,18.82617 -3.209523,6.52944 -6.482885,13.02716 -9.981703,19.40781 -3.290161,6.11539 -6.608149,12.21746 -9.7647,18.40319 -1.680199,3.25018 -3.473989,6.44432 -5.043662,9.74904 -1.392715,3.24967 3.20301,5.21926 4.595725,1.9696 z" /><path
             style="fill:#000000;stroke-width:6;paint-order:stroke fill markers"
             id="path135"
             d="m 94.519245,206.14676 c 4.658444,-0.0254 9.314825,-0.002 13.971415,0.13499 9.12734,0.3059 18.25669,0.50619 27.38881,0.56963 10.11274,0.0389 20.22561,0.0266 30.3384,0.0229 9.94077,-0.004 19.88154,-0.008 29.8223,-0.0109 9.52705,-0.0639 19.05095,0.0123 28.57496,0.24954 8.26485,0.22565 16.52981,0.44623 24.79588,0.62232 7.04219,0.12837 14.08481,0.27312 21.12839,0.26386 7.41487,-0.0534 14.8282,-0.2946 22.23546,-0.62682 7.84044,-0.37945 15.68153,-0.74438 23.52586,-1.03376 7.31293,-0.26685 14.62967,-0.39947 21.94632,-0.51064 7.70862,-0.15233 15.41726,-0.14407 23.12643,-0.0626 6.2095,0.0446 12.40072,0.46188 18.58005,1.04194 6.81102,0.61555 13.62957,1.14434 20.44509,1.70835 2.83682,0.26654 5.68323,0.39745 8.52839,0.53324 3.53152,0.16833 3.76957,-4.826 0.23804,-4.99433 v 0 c -2.78701,-0.13265 -5.57531,-0.25979 -8.35407,-0.52188 -6.79733,-0.56249 -13.59766,-1.08992 -20.39052,-1.70353 -6.31707,-0.59203 -12.6464,-1.01761 -18.99416,-1.06351 -7.7521,-0.0819 -15.50368,-0.09 -23.25523,0.0629 -7.35278,0.11175 -14.70565,0.24521 -22.0547,0.51346 -7.8576,0.28997 -15.71197,0.65516 -23.56568,1.03538 -7.33486,0.32941 -14.67576,0.56803 -22.01816,0.6218 -7.00578,0.0101 -14.01062,-0.1359 -21.01503,-0.26273 -8.26006,-0.17593 -16.51901,-0.39646 -24.77786,-0.6219 -9.56599,-0.2382 -19.13189,-0.31516 -28.70093,-0.25109 -9.94089,0.003 -19.88177,0.007 -29.82266,0.0109 -10.10062,0.004 -20.20131,0.016 -30.30189,-0.0228 -9.09498,-0.063 -18.18719,-0.26301 -27.27741,-0.56762 -4.70529,-0.13706 -9.410346,-0.16345 -14.117495,-0.13712 -3.535534,0 -3.535534,5 0,5 z" /><path
             style="fill:#000000;stroke-width:6;paint-order:stroke fill markers"
             id="path136"
             d="m 452.14641,303.40791 c -0.35399,-1.96916 -0.96264,-3.8795 -1.54099,-5.79098 -1.04866,-3.42729 -2.55068,-6.6899 -4.00265,-9.9594 -1.47801,-3.20319 -2.91175,-6.42689 -4.40496,-9.62322 -1.65058,-3.35089 -3.15196,-6.7709 -4.66575,-10.18473 -1.34619,-3.11261 -2.56904,-6.27739 -3.82902,-9.42573 -1.35199,-3.42472 -2.59293,-6.89104 -3.92727,-10.32267 -1.48189,-3.83711 -2.96119,-7.67623 -4.51694,-11.48416 -1.49558,-3.55224 -2.94194,-7.12359 -4.44369,-10.67323 -1.25223,-2.86742 -2.4968,-5.73642 -3.6824,-8.6319 -1.01827,-2.44891 -1.94161,-4.93542 -2.99896,-7.36821 -0.80643,-1.88078 -1.6273,-3.75513 -2.44598,-5.63059 -1.41476,-3.24014 -5.997,-1.23937 -4.58224,2.00076 v 0 c 0.81842,1.87393 1.63831,3.74705 2.44416,5.62644 1.04663,2.3972 1.94654,4.85363 2.95591,7.26628 1.19297,2.91338 2.44409,5.80061 3.7047,8.68547 1.4939,3.53074 2.9323,7.08326 4.42012,10.61657 1.54591,3.78122 3.01312,7.59454 4.48533,11.40488 1.34068,3.44663 2.58631,6.92863 3.94521,10.36815 1.28272,3.20509 2.52762,6.42694 3.90029,9.59475 1.5272,3.44407 3.04222,6.89425 4.70688,10.27507 1.48088,3.16671 2.89968,6.36203 4.36509,9.53573 1.36836,3.08012 2.79108,6.15131 3.78645,9.37778 0.5163,1.7063 1.06634,3.4097 1.39474,5.16494 0.58124,3.48743 5.51321,2.66543 4.93197,-0.822 z" /><path
             style="fill:#000000;stroke-width:6;paint-order:stroke fill markers"
             id="path137"
             d="m 48.41169,322.12863 c 0.166925,3.04975 0.253607,6.10298 0.333033,9.15601 0.114442,4.8298 0.165386,9.66077 0.210897,14.49161 0.04287,4.76322 0.07017,9.52655 0.09314,14.28989 0.05043,3.55011 -0.03298,7.10284 0.08086,10.65173 0.116075,3.53362 5.11338,3.36947 4.997305,-0.16416 v 0 c -0.118051,-3.50191 -0.02213,-7.00848 -0.07822,-10.51168 -0.023,-4.77101 -0.05036,-9.54201 -0.0933,-14.31289 -0.04578,-4.85851 -0.09711,-9.71715 -0.212368,-14.5746 -0.07837,-3.00954 -0.156542,-6.02012 -0.33134,-9.02591 0,-3.53553 -5,-3.53553 -5,0 z" /><path
             style="fill:#000000;stroke-width:6;paint-order:stroke fill markers"
             id="path138"
             d="m 63.260934,324.09194 c -0.02739,2.46573 0.08402,4.9297 0.160384,7.3937 0.136193,4.40465 0.225528,8.81048 0.298533,13.21656 0.0574,3.5906 0.102238,7.18139 0.141332,10.77223 0.01794,1.66194 0.03188,3.32393 0.04611,4.98591 0.03027,3.5354 5.030087,3.4926 4.999817,-0.0428 v 0 c -0.01426,-1.66585 -0.02824,-3.33171 -0.04622,-4.99754 -0.0392,-3.60031 -0.08416,-7.20056 -0.141723,-10.80063 -0.07342,-4.43011 -0.163298,-8.85995 -0.300246,-13.28862 -0.07478,-2.4124 -0.185344,-4.8247 -0.157984,-7.2388 0,-3.53553 -5,-3.53553 -5,0 z" /><path
             style="fill:#000000;stroke-width:6;paint-order:stroke fill markers"
             id="path139"
             d="m 441.56308,326.92037 c 0.0732,2.49674 0.19783,4.99305 0.2806,7.4902 0.21953,4.01019 0.41343,8.02137 0.57275,12.0344 0.13587,3.40362 0.23391,6.80851 0.31764,10.21376 0.0385,1.62699 0.0703,3.25412 0.10499,4.8812 0.0754,3.53473 5.07424,3.42813 4.99887,-0.1066 v 0 c -0.0348,-1.63252 -0.0667,-3.2651 -0.10537,-4.89753 -0.0844,-3.4304 -0.18319,-6.86045 -0.32007,-10.2892 -0.15893,-4.00214 -0.35084,-8.00253 -0.57156,-12.00175 -0.081,-2.44191 -0.20011,-4.8833 -0.27785,-7.32448 0,-3.53554 -5,-3.53554 -5,0 z" /><path
             style="fill:#000000;stroke-width:6;paint-order:stroke fill markers"
             id="path140"
             d="m 428.12805,327.66698 c 0,1.65615 0,3.31231 0,4.96846 0,2.66453 0,5.32906 0,7.99359 0,2.77513 0,5.55026 0,8.3254 0,3.02226 0,6.04452 0,9.06678 0,0.80859 0,1.61719 0,2.42579 0,3.53553 5,3.53553 5,0 v 0 c 0,-0.8086 0,-1.6172 0,-2.42579 0,-3.02226 0,-6.04452 0,-9.06678 0,-2.77514 0,-5.55027 0,-8.3254 0,-2.66453 0,-5.32906 0,-7.99359 0,-1.65615 0,-3.31231 0,-4.96846 0,-3.53554 -5,-3.53554 -5,0 z" /><path
             style="fill:#000000;stroke-width:6;paint-order:stroke fill markers"
             id="path181"
             d="m 121.04338,-2.0284669 c 0.18319,1.77371052 0.16468,3.5573766 0.1568,5.3377605 -0.0986,4.021151 -0.23369,8.0412394 -0.33289,12.0623994 -0.10913,4.838211 -0.15944,9.677485 -0.20762,14.516608 -0.0459,4.725147 -0.0703,9.45046 -0.0912,14.175771 -0.0588,4.404994 0.0333,8.809179 0.11757,13.213102 0.0434,4.135148 0.28233,8.264092 0.4861,12.393378 0.19398,4.081477 0.32829,8.165083 0.52961,12.246194 0.19378,3.696158 0.32831,7.394906 0.43868,11.09437 0.0897,3.110094 0.15273,6.220844 0.20474,9.331774 0.0472,2.8477 0.0688,5.69573 0.0884,8.54373 -0.0151,2.73928 0.0488,5.47606 0.15192,8.21305 0.0615,2.47035 0.17712,4.93406 0.41687,7.39358 0.14302,2.31415 0.61565,4.54504 1.49379,6.68712 1.34412,2.81781 3.76516,4.68381 6.33064,6.32163 3.58527,2.19244 7.63155,3.2656 11.69524,4.15451 4.57359,0.87374 9.22712,1.20467 13.86778,1.48642 4.84546,0.25929 9.69674,0.38453 14.54745,0.49562 4.86731,0.0924 9.73255,0.269 14.59882,0.40364 4.50925,0.12223 9.01961,0.19523 13.53001,0.25854 4.2959,0.047 8.59135,0.0819 12.8864,0.18158 4.66458,0.0819 9.32695,0.22521 13.98917,0.39052 4.4724,0.16614 8.9467,0.2673 13.42132,0.3483 4.96536,0.0836 9.93131,0.12198 14.89718,0.15908 4.03204,0.0296 8.06412,0.0515 12.09623,0.0684 3.96309,0.016 7.92621,0.0233 11.88933,0.0294 4.78115,0.006 9.5623,0.01 14.34345,0.0126 3.78667,0.002 7.57334,0.004 11.36001,0.005 4.21189,-0.0223 8.42117,0.15195 12.62911,0.31088 4.00676,0.15459 8.01457,0.27887 12.02293,0.38312 3.44577,0.10025 6.89144,0.14822 10.33837,0.10859 3.13339,-0.0987 6.26738,-0.21844 9.3908,-0.49253 3.1181,-0.27836 5.77169,-1.18844 8.55644,-2.56225 2.2712,-1.27728 4.3506,-2.95156 5.74315,-5.18732 0.34058,-0.54679 0.6132,-1.13309 0.9198,-1.69963 1.76694,-3.91242 2.72796,-8.12147 3.63219,-12.2997 0.68266,-3.34226 1.27862,-6.70112 1.86206,-10.06183 0.53197,-3.09253 0.85532,-6.21402 1.10392,-9.34033 0.26119,-3.68683 0.40893,-7.38151 0.46075,-11.076962 0.0414,-3.992003 -0.007,-7.98324 -0.17506,-11.971822 -0.22778,-3.627297 -0.50937,-7.250767 -0.73134,-10.878478 -0.26047,-3.300537 -0.47607,-6.603469 -0.63358,-9.910468 -0.15363,-3.460092 -0.24378,-6.922511 -0.32256,-10.384974 -0.0715,-3.17072 -0.1104,-6.342031 -0.14046,-9.513373 0.0243,-3.607135 0.22476,-7.210742 0.37035,-10.814532 0.13107,-3.182305 0.22103,-6.366031 0.29452,-9.550116 0.0586,-3.056335 0.21586,-6.109771 0.32728,-9.1645 0.0972,-2.742628 0.16533,-5.486158 0.22667,-8.2297841 0.0424,-1.962495 0.0736,-3.9252043 0.1002,-5.88796945 0.0383,-2.82816765 -3.96132,-2.88234415 -3.99963,-0.0541765 v 0 c -0.0264,1.95102345 -0.0574,3.90199135 -0.0996,5.85274645 -0.0609,2.7248322 -0.12856,5.4495696 -0.22501,8.1734116 -0.11203,3.072555 -0.27017,6.143806 -0.32887,9.217985 -0.0729,3.161024 -0.1622,6.321691 -0.29233,9.480946 -0.14826,3.670192 -0.35272,7.340223 -0.37343,11.01391 0.0302,3.189039 0.0694,6.378047 0.14131,9.566461 0.0796,3.495615 0.17073,6.991182 0.32607,10.484393 0.15858,3.32496 0.37393,6.645966 0.63651,9.964393 0.22055,3.602612 0.4985,7.201129 0.72745,10.803159 0.1661,3.913802 0.21146,7.83027 0.17186,11.747452 -0.0492,3.608338 -0.19545,7.215888 -0.4486,10.815878 -0.23779,3.00321 -0.54748,6.00182 -1.05751,8.97267 -0.5739,3.30683 -1.16036,6.61178 -1.83068,9.9007 -0.82541,3.82226 -1.6941,7.67299 -3.25735,11.27278 -1.25356,2.43916 -2.4917,3.81363 -4.90472,5.17527 -2.2815,1.13742 -4.56528,1.94659 -7.13106,2.1615 -3.02176,0.26763 -6.05434,0.37781 -9.08573,0.47736 -3.39688,0.0394 -6.79248,-0.009 -10.18823,-0.1075 -3.99269,-0.10383 -7.98484,-0.22764 -11.97595,-0.38163 -4.25777,-0.1608 -8.5169,-0.33619 -12.77866,-0.31373 -3.78628,-0.001 -7.57257,-0.003 -11.35885,-0.005 -4.77997,-0.003 -9.55994,-0.006 -14.33991,-0.0126 -3.95956,-0.006 -7.91913,-0.0133 -11.87868,-0.0293 -4.02773,-0.0169 -8.05544,-0.0388 -12.08311,-0.0684 -4.9517,-0.037 -9.90349,-0.0752 -14.85467,-0.15854 -4.4515,-0.0805 -8.90269,-0.18112 -13.35197,-0.34644 -4.67855,-0.16589 -9.35725,-0.30959 -14.03816,-0.39195 -4.30726,-0.0999 -8.6149,-0.13535 -12.92301,-0.18226 -4.49224,-0.0631 -8.98443,-0.13571 -13.47552,-0.25741 -4.87263,-0.13481 -9.74422,-0.31167 -14.61789,-0.40412 -4.80051,-0.10989 -9.60157,-0.23357 -14.39693,-0.48934 -4.43583,-0.26858 -8.88429,-0.57971 -13.25812,-1.40202 -3.60746,-0.78304 -7.21221,-1.69811 -10.40626,-3.62519 -1.8758,-1.17733 -3.72871,-2.47514 -4.78215,-4.48853 -0.76008,-1.75797 -1.06627,-3.62427 -1.20194,-5.53004 -0.23289,-2.38027 -0.34047,-4.76467 -0.40077,-7.1555 -0.10166,-2.69597 -0.16457,-5.39165 -0.14918,-8.0899 -0.0197,-2.86111 -0.0414,-5.72225 -0.0888,-8.58306 -0.0523,-3.12841 -0.11577,-6.256639 -0.20596,-9.384208 -0.11119,-3.725404 -0.24669,-7.45009 -0.44176,-11.17217 -0.20136,-4.081122 -0.33523,-8.164763 -0.52961,-12.246238 -0.20179,-4.089114 -0.43919,-8.177869 -0.48197,-12.272797 -0.0837,-4.372505 -0.17559,-8.745258 -0.11688,-13.118829 0.0209,-4.717939 0.0452,-9.435881 0.091,-14.153657 0.048,-4.819516 0.098,-9.639182 0.2066,-14.457793 0.0998,-4.048248 0.23699,-8.0953933 0.33407,-12.1436862 0.008,-1.9517993 0.0226,-3.90767758 -0.18765,-5.8512476 -0.35082,-2.8065857 -4.31993,-2.3104468 -3.96911,0.4961389 z" /><path
             style="fill:#000000;stroke-width:6;paint-order:stroke fill markers"
             id="path182"
             d="m 124.00289,128.14909 c -1.14639,1.11794 -2.42452,2.08528 -3.73792,2.99622 -2.6724,1.79294 -5.69161,2.91597 -8.69548,4.01074 -3.70804,1.3446 -7.50017,2.43421 -11.31025,3.44567 -3.97854,1.04533 -7.99628,1.9327 -12.015486,2.8057 -3.520279,0.76133 -7.023594,1.5964 -10.508807,2.50402 -2.697458,0.73362 -5.35735,1.60029 -8.010947,2.4778 -2.72259,1.0138 -5.574125,1.56709 -8.428736,2.05167 -3.506935,0.60364 -7.001219,1.27314 -10.515736,1.83273 -3.736598,0.61399 -7.475109,1.20622 -11.232043,1.68178 -2.739247,0.34528 -5.490622,0.51011 -8.182505,-0.17612 -2.237939,-0.84085 -2.837066,-2.05103 -3.535752,-4.21547 -0.711951,-2.81083 -0.858251,-5.71373 -0.860223,-8.60007 0.101841,-3.26563 0.433303,-6.51901 0.674472,-9.77639 0.29295,-3.29239 0.521725,-6.58975 0.781672,-9.88479 0.22689,-3.1902 0.459895,-6.37957 0.704621,-9.56847 0.293681,-3.09919 0.550607,-6.20151 0.786823,-9.30555 0.358279,-4.424932 0.401626,-8.864082 0.377857,-13.30054 C 30.29065,82.838694 30.127173,78.552493 29.990585,74.266044 29.861898,70.25991 29.783346,66.252437 29.716776,62.244867 29.645144,58.416372 29.643742,54.586944 29.564887,50.758652 29.505014,46.352661 29.240306,41.953523 28.9258,37.559409 28.648736,33.472299 28.296795,29.390945 27.992858,25.305852 27.769603,22.121566 27.600885,18.936185 27.288807,15.759129 26.966357,12.800553 26.582217,9.849472 26.22877,6.8946229 25.952434,4.4370315 25.620302,1.9862731 25.334602,-0.47024277 25.007775,-3.2797238 21.034569,-2.8175207 21.361396,-0.0080396 v 0 c 0.286336,2.4608384 0.618615,4.9159736 0.895702,7.3778719 0.350298,2.9268817 0.730374,5.8500907 1.05089,8.7805557 0.309348,3.145543 0.472994,6.299649 0.695898,9.45229 0.303747,4.081419 0.655229,8.159116 0.932138,12.242548 0.310216,4.326461 0.571083,8.657901 0.629718,12.996098 0.07932,3.822866 0.07934,7.646916 0.151586,11.469987 0.06692,4.027891 0.145935,8.055683 0.275286,12.08213 0.135467,4.251192 0.298198,8.502123 0.301895,12.756172 0.02354,4.328043 -0.0165,8.658765 -0.366396,12.975587 -0.235893,3.10317 -0.49378,6.20448 -0.786616,9.30285 -0.244496,3.18606 -0.477394,6.37259 -0.703959,9.55994 -0.260453,3.30148 -0.489822,6.60527 -0.783148,9.9041 -0.248488,3.35783 -0.592886,6.71157 -0.685379,10.07852 0.0088,3.3209 0.192934,6.66175 1.073517,9.88198 0.189018,0.53635 0.340853,1.08729 0.567056,1.60905 1.121605,2.58706 3.137479,4.3477 5.811282,5.20465 0.503883,0.11809 1.002023,0.26413 1.511648,0.35427 2.683722,0.4747 5.431455,0.17123 8.117568,-0.0968 3.79922,-0.48144 7.580189,-1.07842 11.358827,-1.6999 3.528299,-0.56253 7.036822,-1.23225 10.557397,-1.83959 3.052411,-0.52064 6.100451,-1.11954 9.013842,-2.19734 2.571637,-0.85084 5.149379,-1.69116 7.762949,-2.40458 3.432446,-0.89404 6.882803,-1.71624 10.349825,-2.46607 4.078598,-0.88619 8.155688,-1.78705 12.192918,-2.8485 3.92622,-1.04287 7.83354,-2.16751 11.65446,-3.55391 3.32711,-1.21477 6.65974,-2.48481 9.61015,-4.48575 1.41958,-0.99154 2.81249,-2.03162 4.05561,-3.24196 2.1475,-1.84072 -0.45567,-4.87775 -2.60317,-3.03703 z" /><path
             style="fill:#000000;stroke-width:6;paint-order:stroke fill markers"
             id="path183"
             d="m 362.55001,134.38906 c 0.82323,1.36829 1.97792,2.48514 3.12637,3.57585 2.62261,2.47219 5.84527,4.14607 9.03005,5.7674 3.77726,1.81641 7.76027,3.1346 11.7701,4.32515 3.60569,1.04203 7.22765,2.02763 10.86561,2.9507 3.84744,0.95088 7.72811,1.75822 11.61716,2.51799 3.45669,0.62941 6.90936,1.28042 10.35973,1.94355 3.72686,0.72722 7.40331,1.68574 11.08324,2.61591 3.23579,0.79272 6.47407,1.57604 9.69708,2.41948 2.74787,0.75718 5.51813,1.42801 8.27498,2.15064 2.5952,0.70457 5.1637,1.47801 7.83138,1.84982 3.06257,0.23288 4.77561,-0.46946 7.07868,-2.42372 1.96937,-1.93046 2.96559,-4.48818 3.86541,-7.03471 0.93209,-2.82548 1.45767,-5.76038 1.96531,-8.68525 0.55241,-3.33033 0.81616,-6.69867 1.06607,-10.06239 0.2425,-3.2187 0.37576,-6.44206 0.4013,-9.66929 0.005,-3.37082 -0.0167,-6.74161 -0.0303,-10.11239 -0.0132,-3.25459 -0.0223,-6.50918 -0.0292,-9.76379 -0.007,-3.5403 -0.01,-7.0806 -0.0131,-10.620909 -0.003,-3.117177 -0.004,-6.234355 -0.006,-9.351533 -10e-4,-2.684137 -0.002,-5.368274 -0.002,-8.052412 -4.6e-4,-2.360431 -7.8e-4,-4.720862 -0.001,-7.081294 -2.1e-4,-2.094647 -3.4e-4,-4.189294 -4.5e-4,-6.283942 -10e-5,-2.107912 -1.4e-4,-4.215824 -1.9e-4,-6.323736 -3e-5,-1.964297 -6e-5,-3.928593 -8e-5,-5.89289 -2e-5,-1.734865 -3e-5,-3.46973 -3e-5,-5.204595 -1e-5,-2.021473 -1e-5,-4.042946 -2e-5,-6.064419 0,-2.422819 0,-4.845637 0,-7.268455 0.0418,-2.1494 -0.0634,-4.295966 -0.15831,-6.442372 -0.0835,-1.930741 -0.11587,-3.861839 -0.29376,-5.786795 -0.2248,-2.001157 -0.41342,-4.005447 -0.55366,-6.014242 -0.12267,-1.832135 -0.20932,-3.666357 -0.28018,-5.501139 -0.0568,-1.56849 -0.0943,-3.137582 -0.12196,-4.7068303 -0.0369,-1.6487103 -0.0152,-3.2984265 -0.0822,-4.9462453 -0.0568,-1.05380044 -0.12543,-2.10690448 -0.18842,-3.1603423 -0.16884,-2.8233832 -4.1617,-2.584607 -3.99286,0.2387762 v 0 c 0.0616,1.02971382 0.12837,2.05911886 0.18479,3.089134 0.0702,1.6151759 0.0379,3.2330023 0.0793,4.849119 0.0282,1.5972528 0.0663,3.1943477 0.12433,4.7908247 0.0725,1.876328 0.16126,3.752082 0.28693,5.625692 0.14285,2.040093 0.33234,4.075878 0.56134,6.108183 0.17674,1.85913 0.19239,3.725906 0.28025,5.590637 0.0923,2.087538 0.19659,4.175119 0.1544,6.265603 0,2.422819 0,4.845638 0,7.268458 1e-5,2.021477 1e-5,4.042954 2e-5,6.064431 0,1.734872 1e-5,3.469745 3e-5,5.204617 2e-5,1.964311 5e-5,3.928622 8e-5,5.892933 5e-5,2.107952 9e-5,4.215903 1.9e-4,6.323855 1.1e-4,2.094723 2.4e-4,4.189445 4.5e-4,6.284168 2.5e-4,2.360568 5.7e-4,4.721135 10e-4,7.081703 5.7e-4,2.684451 10e-4,5.368903 0.002,8.053354 10e-4,3.117749 0.003,6.235498 0.006,9.353247 0.003,3.541966 0.007,7.083936 0.0131,10.625906 0.007,3.25714 0.016,6.51427 0.0292,9.77139 0.0135,3.355 0.035,6.71002 0.0304,10.06506 -0.0242,3.13884 -0.15482,6.27379 -0.39044,9.40433 -0.24001,3.23406 -0.49036,6.4729 -1.01826,9.67535 -0.46846,2.70556 -0.94761,5.42188 -1.79677,8.03921 -0.66314,1.88807 -1.33698,3.83468 -2.71082,5.3398 -1.25645,1.12214 -2.16683,1.634 -3.92029,1.48457 -2.50978,-0.33265 -4.91327,-1.11887 -7.35775,-1.75584 -2.75741,-0.72234 -5.52795,-1.39393 -8.27635,-2.15099 -3.23382,-0.84611 -6.48271,-1.63284 -9.72941,-2.4278 -3.75455,-0.94901 -7.50584,-1.92551 -11.30856,-2.66599 -3.4464,-0.66233 -6.89504,-1.31296 -10.34783,-1.94125 -3.81643,-0.74534 -7.62467,-1.53716 -11.40045,-2.46938 -3.58637,-0.90953 -7.15669,-1.88172 -10.71133,-2.90826 -3.7776,-1.12008 -7.53168,-2.35477 -11.0945,-4.05572 -2.84314,-1.44469 -5.74231,-2.91208 -8.09344,-5.10679 -1.02404,-0.96595 -2.01923,-1.95652 -2.75291,-3.16991 -1.76691,-2.20863 -4.89038,0.29015 -3.12348,2.49878 z" /><path
             style="fill:#000000;stroke-width:6;paint-order:stroke fill markers"
             id="path191"
             d="m 132.75503,147.13282 c -1.51938,0.50827 -3.03117,1.03724 -4.50064,1.67644 -1.92599,0.80985 -3.63724,1.96678 -5.2361,3.29507 -1.44161,1.18604 -2.66665,2.58891 -3.66911,4.15879 -1.5541,3.26844 0.94398,4.50648 3.55834,5.38271 2.67841,0.71061 5.4379,1.06507 8.17666,1.46115 2.71473,0.39214 5.45043,0.60154 8.18537,0.7898 2.46404,0.16592 4.93177,0.2641 7.39982,0.34529 2.14398,0.0661 4.28848,0.11358 6.4332,0.1476 2.58762,0.0376 5.1755,0.0508 7.76333,0.0631 3.01781,0.0522 6.03429,-0.0395 9.05029,-0.13027 2.66091,-0.0522 5.31886,-0.16659 7.97703,-0.29316 3.07512,-0.15179 6.15309,-0.22864 9.23107,-0.29206 3.5366,-0.0653 7.07362,-0.10299 10.61064,-0.13516 3.42417,-0.0196 6.84753,-0.0334 10.27056,-0.12735 3.47143,-0.11244 6.9435,-0.19637 10.41623,-0.25443 3.91495,-0.0599 7.83022,-0.0954 11.74549,-0.12526 3.87287,-0.028 7.74581,-0.0422 11.61874,-0.0543 3.99966,-0.012 7.99933,-0.0183 11.999,-0.0233 4.24006,-0.005 8.48011,-0.008 12.72017,-0.01 3.96831,-0.002 7.93662,-0.003 11.90493,-0.004 3.99177,0.0433 7.97956,0.26191 11.96398,0.49535 4.0033,0.23689 8.003,0.52601 12.00738,0.74625 3.90191,0.1981 7.80707,0.31058 11.70959,0.49488 3.81152,0.19671 7.62617,0.31652 11.44121,0.41774 3.63303,0.13848 7.26666,0.0178 10.89745,-0.11591 2.83496,-0.11191 5.67001,-0.21989 8.50616,-0.29671 2.53278,-0.0647 5.06611,-0.10394 7.59944,-0.13931 2.09158,-0.0266 4.18325,-0.0449 6.27494,-0.0602 1.74641,0.008 3.49015,-0.006 5.22919,-0.17627 1.38092,-0.14265 2.73683,-0.45613 4.08647,-0.77155 1.26356,-0.24806 2.47738,-0.63193 3.60563,-1.25303 1.63247,-1.36032 1.88856,-2.88674 1.40418,-4.86374 -0.3963,-1.26672 -1.22162,-2.29636 -2.08902,-3.27179 -0.82074,-0.85219 -1.69073,-1.64544 -2.66446,-2.31795 -1.02101,-0.74621 -2.14602,-1.30387 -3.32139,-1.75813 -0.22274,-0.0741 -0.44548,-0.14816 -0.66822,-0.22225 -2.68647,-0.88479 -3.93776,2.91446 -1.25129,3.79925 v 0 c 0.16566,0.0538 0.33132,0.10767 0.49698,0.16151 0.89561,0.33275 1.73758,0.76927 2.50924,1.33718 0.7201,0.46024 1.30802,1.08631 1.92325,1.67324 0.45757,0.50162 0.92211,1.0248 1.20503,1.6484 0.11326,0.3067 0.11044,0.52125 0.4706,0.34162 -0.76,0.47792 -1.67266,0.61718 -2.53091,0.83067 -1.18108,0.27608 -2.36657,0.55764 -3.57453,0.68646 -1.61558,0.16651 -3.23752,0.15431 -4.8601,0.15649 -2.10052,0.0154 -4.20103,0.0338 -6.30144,0.0605 -2.55084,0.0356 -5.10168,0.0752 -7.65197,0.14039 -2.8491,0.0773 -5.69712,0.18541 -8.54502,0.29795 -3.54639,0.13067 -7.09555,0.2509 -10.64414,0.1146 -3.7875,-0.10045 -7.57461,-0.21927 -11.3586,-0.41469 -3.89223,-0.18377 -7.78704,-0.29655 -11.67867,-0.4933 -3.99961,-0.21984 -7.9945,-0.50917 -11.99305,-0.74544 -4.06263,-0.23797 -8.12874,-0.45999 -12.19889,-0.50219 -3.96874,9.8e-4 -7.93748,0.002 -11.90621,0.004 -4.24097,0.002 -8.48193,0.005 -12.7229,0.01 -4.00219,0.005 -8.00439,0.0113 -12.00658,0.0233 -3.87892,0.0122 -7.75784,0.0263 -11.63669,0.0544 -3.9274,0.03 -7.85479,0.0656 -11.78187,0.1257 -3.48705,0.0583 -6.97345,0.14246 -10.4592,0.25538 -3.39852,0.0935 -6.7974,0.10611 -10.19706,0.12601 -3.55239,0.0323 -7.10476,0.0702 -10.65671,0.13584 -3.11393,0.0642 -6.22784,0.14219 -9.33888,0.29573 -2.63489,0.12547 -5.26954,0.23911 -7.90716,0.29045 -2.96954,0.0894 -5.93951,0.18067 -8.91083,0.1285 -2.57306,-0.0123 -5.14617,-0.0253 -7.71902,-0.0627 -2.12203,-0.0336 -4.24384,-0.0806 -6.36516,-0.14594 -2.42032,-0.0795 -4.84033,-0.17551 -7.25674,-0.33802 -2.63532,-0.18115 -5.27157,-0.3809 -7.88751,-0.75807 -2.5139,-0.36336 -5.04456,-0.69136 -7.51155,-1.30608 -0.25794,-0.0801 -0.51854,-0.15207 -0.7738,-0.24031 -0.17336,-0.0599 -0.33078,-0.17032 -0.51111,-0.20388 -0.20178,-0.0376 0.0385,0.41134 0.0173,0.61549 -0.0214,0.20631 -0.12229,0.39665 -0.19536,0.59076 -0.0253,0.0672 0.0345,-0.13943 0.0517,-0.20915 0.75774,-1.22865 1.73801,-2.2938 2.84574,-3.21812 1.30618,-1.09319 2.6988,-2.0456 4.2812,-2.70428 1.30092,-0.57621 2.65025,-1.02632 3.99325,-1.49365 2.7196,-0.77703 1.62071,-4.62312 -1.09889,-3.8461 z" /><path
             style="fill:#000000;stroke-width:6;paint-order:stroke fill markers"
             id="path221"
             d="m 132.97838,150.95197 c 1.17561,-0.13676 2.36044,-0.17455 3.54224,-0.22201 1.96839,-0.0757 3.93826,-0.1015 5.90777,-0.12986 1.99021,-0.0133 3.98102,-0.0754 5.97102,-0.0296 2.10052,0.0353 4.18514,0.3204 6.26954,0.55738 1.75877,0.20779 3.52312,0.36031 5.28924,0.48875 1.56619,0.0805 3.12662,0.2362 4.68881,0.37004 1.7644,0.16344 3.53649,0.20193 5.30395,0.31483 2.15507,0.15179 4.31182,0.28 6.47037,0.3697 2.97221,0.0993 5.94596,0.14408 8.91942,0.18736 2.90058,0.0321 5.80044,0.0467 8.69957,0.14795 2.402,0.0957 4.80402,0.18983 7.20676,0.26472 1.85887,0.0579 3.71819,0.0982 5.57767,0.13025 1.47751,0.008 2.94999,0.1499 4.42319,0.24933 1.59413,0.0947 3.19016,0.15153 4.78633,0.19746 1.54345,0.0404 3.08725,0.066 4.63107,0.0868 1.47345,0.0184 2.94698,0.0283 4.42051,0.0372 1.46809,0.009 2.93621,0.0127 4.40432,0.0159 1.85763,-0.0289 3.71203,0.0242 5.56696,0.11688 1.73891,0.0979 3.47925,0.16418 5.22006,0.21621 1.64699,0.0476 3.29443,0.0767 4.94189,0.10198 1.60184,0.0587 3.20139,0.001 4.80151,-0.0706 1.84816,-0.0878 3.6976,-0.14433 5.54718,-0.19156 2.24409,-0.0213 4.48487,-0.14652 6.72617,-0.24985 2.45557,-0.1142 4.91297,-0.17801 7.37054,-0.22888 2.50223,-0.0457 5.00469,-0.0769 7.50718,-0.1039 2.40792,-0.0165 4.816,-0.0589 7.22376,-0.0171 2.74388,0.0776 5.48753,0.16101 8.23187,0.22107 3.06065,0.06 6.12177,0.0921 9.18282,0.12341 2.65222,0.0185 5.30208,0.15428 7.95234,0.24999 2.38546,0.1362 4.76966,0.29281 7.15533,0.42585 2.17947,0.12193 4.36142,0.18512 6.54345,0.23787 2.16473,0.0473 4.3298,0.0773 6.49487,0.10319 2.08004,0.0222 4.16016,0.0338 6.24028,0.0442 2.13863,-9.9e-4 4.27759,0.0415 6.41576,-0.01 1.8415,-0.0664 3.68181,-0.1607 5.52307,-0.23335 1.46946,-0.0571 2.93952,-0.0959 4.40973,-0.12668 1.31455,-0.0748 2.62505,-0.20421 3.93853,-0.29503 1.1902,-0.0793 2.38207,-0.12865 3.57411,-0.17002 0.55406,-0.0187 1.10828,-0.0321 1.6625,-0.0454 2.82762,-0.0677 2.7319,-4.06654 -0.0957,-3.99886 v 0 c -0.5686,0.0136 -1.1372,0.0274 -1.70564,0.0466 -1.23794,0.0431 -2.47569,0.0946 -3.71171,0.17718 -1.24937,0.0867 -2.49625,0.20447 -3.74593,0.28634 -1.49486,0.0314 -2.98956,0.0709 -4.48365,0.12891 -1.82137,0.0719 -3.64184,0.16459 -5.46341,0.23144 -2.09868,0.053 -4.19843,0.004 -6.29759,0.008 -2.07086,-0.0104 -4.14173,-0.022 -6.2125,-0.044 -2.14881,-0.0257 -4.29761,-0.0554 -6.44608,-0.10232 -2.14,-0.0517 -4.27991,-0.11331 -6.41739,-0.23283 -2.41177,-0.13445 -4.82199,-0.29396 -7.23367,-0.42944 -2.6847,-0.0969 -5.36899,-0.23412 -8.0557,-0.25239 -3.04555,-0.0312 -6.09116,-0.063 -9.13631,-0.12266 -2.75083,-0.0602 -5.50095,-0.14432 -8.25133,-0.22145 -2.44485,-0.0408 -4.88992,-0.002 -7.33491,0.0167 -2.51573,0.0271 -5.03143,0.0585 -7.54689,0.10453 -2.49138,0.0516 -4.98258,0.11646 -7.47194,0.23226 -2.21397,0.10208 -4.42737,0.22647 -6.6441,0.24692 -1.87551,0.0479 -3.75087,0.10532 -5.62494,0.1943 -1.51987,0.0685 -3.03878,0.12532 -4.56033,0.067 -1.62808,-0.0249 -3.25613,-0.0537 -4.88374,-0.10067 -1.71415,-0.0512 -3.42782,-0.11653 -5.14009,-0.21302 -1.91842,-0.0957 -3.83653,-0.15049 -5.75768,-0.12184 -1.46302,-0.003 -2.92604,-0.007 -4.38904,-0.0158 -1.46353,-0.009 -2.92708,-0.0186 -4.39054,-0.0369 -1.52348,-0.0205 -3.04693,-0.0457 -4.57004,-0.0855 -1.54472,-0.0444 -3.0893,-0.0992 -4.63208,-0.19004 -1.53987,-0.1038 -3.079,-0.25065 -4.62344,-0.2578 -1.84092,-0.0317 -3.6817,-0.0716 -5.52203,-0.12891 -2.3978,-0.0747 -4.79487,-0.16886 -7.19193,-0.26423 -2.92621,-0.10189 -5.85312,-0.1183 -8.78078,-0.14996 -2.93765,-0.0427 -5.87558,-0.087 -8.81202,-0.18435 -2.1295,-0.088 -4.25714,-0.21576 -6.38321,-0.36514 -1.73804,-0.10916 -3.48021,-0.15051 -5.2153,-0.30822 -1.57934,-0.13527 -3.15698,-0.29218 -4.74032,-0.37412 -1.71206,-0.1243 -3.42238,-0.27205 -5.12729,-0.47367 -2.20517,-0.2507 -4.41085,-0.54713 -6.63318,-0.58201 -2.03873,-0.0432 -4.07794,0.0116 -6.11683,0.0291 -2.00391,0.0289 -4.00817,0.0554 -6.01094,0.13268 -1.31718,0.0531 -2.63785,0.0969 -3.94716,0.25897 -2.8,0.4 -2.23431,4.3598 0.56569,3.9598 z" /></g><path
           style="fill:#a4a58c;fill-opacity:1;stroke-width:3;paint-order:stroke fill markers"
           d="m 141.55079,149.81055 c -4.86155,-0.15538 -9.884,0.29153 -13.97852,3.19239 -1.59465,1.26658 -5.18984,2.53024 -4.31836,5.06543 4.262,1.76663 9.2155,1.76985 13.79555,2.3544 23.91304,1.67962 47.88549,-0.16348 71.82143,-0.24771 28.56552,-0.32128 57.21605,-0.95907 85.72878,0.3515 22.48947,1.78266 45.06882,0.87754 67.59175,0.40411 2.50298,-0.32671 6.04389,0.28752 7.76661,-1.83301 -0.27981,-2.96456 -3.63749,-4.84774 -6.16309,-5.83496 -6.12946,-0.0571 -12.17367,0.76063 -18.39445,0.57636 -25.34522,0.49939 -50.66915,-1.20123 -76.00964,-0.88995 -31.33156,1.30279 -62.72255,-0.32838 -94.04977,-1.16611 -11.25886,-0.31563 -22.46818,-2.15965 -33.79029,-1.97245 z"
           id="path345" /></g></g></g></svg>
